<svg width="778" height="1121" viewBox="0 0 778 1121" fill="none" xmlns="http://www.w3.org/2000/svg">
<g opacity="0.05">
<mask id="mask0_193_955" style="mask-type:alpha" maskUnits="userSpaceOnUse" x="-1" y="0" width="1010" height="1121">
<rect width="790.272" height="947.526" transform="matrix(-0.965926 0.258819 0.258819 0.965926 763.344 0.583984)" fill="#8D8D8D"/>
</mask>
<g mask="url(#mask0_193_955)">
<path d="M740.281 265.298C742.857 280.649 732.431 295.239 717.042 297.822C701.653 300.405 687.035 290.016 684.459 274.667C681.882 259.314 692.308 244.72 707.697 242.137C723.085 239.555 737.704 249.945 740.281 265.298ZM700.001 272.059C701.143 278.86 707.623 283.464 714.44 282.32C721.26 281.175 725.878 274.709 724.737 267.907C723.594 261.101 717.119 256.499 710.299 257.644C703.481 258.788 698.859 265.253 700.001 272.059Z" fill="#8D8D8D"/>
<path d="M693.114 186.35L695.987 168.388L709.177 167.104L715.448 184.172C719.126 184.289 722.827 184.646 726.533 185.246L736.038 169.472L748.733 173.241L748.026 191.622C751.81 193.298 755.421 195.221 758.854 197.36L773.614 186.686L783.838 195.083L776.17 211.59C778.71 214.302 781.067 217.165 783.229 220.161L800.948 215.811L807.251 227.436L793.907 239.857C795.369 243.652 796.57 247.558 797.49 251.54L815.496 254.4L816.769 267.557L799.659 273.823C799.535 277.494 799.179 281.188 798.573 284.887L814.37 294.353L810.587 307.027L792.157 306.334C790.477 310.106 788.548 313.717 786.399 317.142L797.09 331.856L788.661 342.069L772.122 334.425C769.401 336.963 766.531 339.317 763.526 341.478L767.873 359.153L756.216 365.446L743.773 352.146C739.972 353.606 736.054 354.811 732.062 355.729L729.18 373.688L715.991 374.97L709.725 357.907C706.042 357.785 702.342 357.432 698.634 356.832L689.132 372.604L676.433 368.837L677.14 350.452C673.358 348.777 669.745 346.859 666.311 344.718L651.551 355.393L641.323 346.995L648.995 330.486C646.453 327.779 644.098 324.914 641.932 321.918L624.215 326.27L617.914 314.645L631.26 302.223C629.797 298.43 628.596 294.524 627.675 290.54L609.671 287.68L608.398 274.523L625.51 268.257C625.634 264.584 625.99 260.892 626.592 257.196L610.795 247.725L614.584 235.051L633.008 235.747C634.688 231.97 636.62 228.365 638.771 224.934L628.078 210.221L636.504 200.009L653.045 207.647C655.763 205.109 658.635 202.755 661.643 200.601L657.296 182.923L668.952 176.627L681.391 189.931C685.203 188.471 689.115 187.271 693.114 186.35ZM646.502 282.131C652.613 318.538 687.153 343.082 723.649 336.957C760.146 330.832 784.781 296.354 778.671 259.949C772.561 223.543 738.019 198.993 701.522 205.118C665.027 211.243 640.392 245.725 646.502 282.131Z" fill="#8D8D8D"/>
<path d="M574.67 218.036C575.747 224.456 571.387 230.558 564.952 231.638C558.516 232.718 552.403 228.374 551.326 221.955C550.249 215.536 554.608 209.432 561.045 208.351C567.479 207.271 573.592 211.615 574.67 218.036ZM557.826 220.864C558.303 223.708 561.013 225.633 563.864 225.155C566.716 224.676 568.646 221.971 568.169 219.128C567.692 216.282 564.984 214.358 562.133 214.836C559.282 215.315 557.349 218.018 557.826 220.864Z" fill="#8D8D8D"/>
<path d="M554.942 185.012L556.144 177.499L561.66 176.961L564.284 184.1C565.822 184.15 567.369 184.3 568.92 184.55L572.897 177.952L578.207 179.53L577.912 187.219C579.493 187.919 581.005 188.724 582.441 189.619L588.615 185.156L592.891 188.667L589.684 195.572C590.747 196.709 591.733 197.905 592.636 199.158L600.048 197.338L602.685 202.201L597.103 207.397C597.716 208.984 598.218 210.618 598.602 212.284L606.133 213.481L606.665 218.985L599.506 221.605C599.455 223.142 599.306 224.686 599.053 226.234L605.661 230.194L604.079 235.494L596.371 235.205C595.668 236.783 594.861 238.292 593.963 239.727L598.435 245.881L594.909 250.154L587.991 246.957C586.852 248.018 585.652 249.003 584.395 249.909L586.214 257.3L581.338 259.933L576.133 254.37C574.544 254.981 572.906 255.486 571.233 255.869L570.029 263.382L564.512 263.918L561.891 256.78C560.35 256.729 558.804 256.581 557.253 256.33L553.278 262.928L547.967 261.353L548.263 253.662C546.681 252.961 545.171 252.159 543.735 251.264L537.561 255.729L533.284 252.216L536.493 245.312C535.43 244.18 534.445 242.981 533.539 241.726L526.128 243.547L523.493 238.683L529.074 233.487C528.463 231.9 527.959 230.266 527.575 228.602L520.045 227.405L519.511 221.902L526.67 219.281C526.721 217.745 526.87 216.2 527.121 214.655L520.513 210.692L522.099 205.392L529.805 205.684C530.508 204.103 531.315 202.596 532.215 201.161L527.743 195.009L531.267 190.738L538.188 193.933C539.324 192.873 540.527 191.887 541.784 190.987L539.965 183.592L544.841 180.959L550.044 186.523C551.631 185.9 553.268 185.397 554.942 185.012ZM535.443 225.075C537.999 240.303 552.447 250.571 567.711 248.009C582.978 245.446 593.282 231.025 590.726 215.796C588.171 200.568 573.722 190.301 558.456 192.863C543.192 195.425 532.887 209.846 535.443 225.075Z" fill="#8D8D8D"/>
<path d="M711.008 640.148C715.622 667.641 696.949 693.776 669.386 698.402C641.822 703.028 615.638 684.421 611.024 656.927C606.408 629.43 625.082 603.29 652.646 598.664C680.21 594.039 706.393 612.65 711.008 640.148ZM638.862 652.255C640.906 664.432 652.514 672.683 664.725 670.633C676.938 668.584 685.209 656.999 683.165 644.82C681.119 632.633 669.52 624.388 657.307 626.437C645.096 628.487 636.817 640.068 638.862 652.255Z" fill="#8D8D8D"/>
<path d="M626.537 498.741L631.685 466.571L655.311 464.269L666.543 494.844C673.133 495.052 679.759 495.69 686.397 496.766L703.424 468.511L726.164 475.264L724.9 508.186C731.674 511.188 738.143 514.634 744.294 518.464L770.733 499.345L789.046 514.386L775.311 543.953C779.863 548.808 784.082 553.936 787.957 559.305L819.693 551.509L830.98 572.329L807.078 594.58C809.697 601.376 811.847 608.371 813.494 615.506L845.741 620.629L848.018 644.196L817.371 655.42C817.149 661.995 816.508 668.61 815.426 675.237L843.722 692.193L836.945 714.893L803.935 713.653C800.925 720.411 797.472 726.876 793.623 733.014L812.772 759.366L797.677 777.66L768.053 763.97C763.176 768.517 758.035 772.733 752.656 776.605L760.442 808.262L739.563 819.537L717.275 795.711C710.467 798.33 703.45 800.482 696.299 802.13L691.136 834.301L667.516 836.598L656.291 806.033C649.694 805.815 643.067 805.182 636.427 804.109L619.407 832.36L596.664 825.609L597.929 792.677C591.158 789.679 584.683 786.241 578.535 782.405L552.097 801.526L533.779 786.485L547.522 756.916C542.967 752.063 538.751 746.932 534.869 741.569L503.135 749.362L491.853 728.539L515.755 706.29C513.134 699.495 510.984 692.5 509.334 685.365L477.087 680.244L474.807 656.676L505.457 645.451C505.68 638.874 506.317 632.262 507.394 625.64L479.097 608.677L485.886 585.976L518.886 587.22C521.896 580.457 525.354 574 529.208 567.855L510.057 541.501L525.149 523.212L554.778 536.895C559.644 532.35 564.791 528.133 570.175 524.272L562.388 492.611L583.266 481.338L605.549 505.165C612.368 502.542 619.374 500.394 626.537 498.741ZM543.049 670.302C553.992 735.509 615.86 779.477 681.23 768.506C746.602 757.534 790.727 695.776 779.783 630.569C768.839 565.362 706.971 521.388 641.598 532.36C576.228 543.331 532.105 605.094 543.049 670.302Z" fill="#8D8D8D"/>
<path d="M574.422 850.08L576.54 836.846L586.256 835.9L590.872 848.476C593.584 848.562 596.308 848.821 599.041 849.26L606.039 837.645L615.398 840.424L614.875 853.963C617.667 855.199 620.325 856.619 622.851 858.192L633.728 850.332L641.26 856.512L635.61 868.672C637.485 870.668 639.22 872.78 640.812 874.993L653.868 871.784L658.511 880.352L648.678 889.496C649.752 892.298 650.644 895.169 651.319 898.103L664.579 900.215L665.516 909.908L652.914 914.523C652.818 917.229 652.556 919.946 652.11 922.676L663.748 929.648L660.963 938.983L647.383 938.475C646.15 941.26 644.723 943.913 643.143 946.434L651.024 957.273L644.813 964.804L632.629 959.17C630.619 961.038 628.509 962.776 626.294 964.364L629.495 977.388L620.912 982.018L611.741 972.227C608.946 973.305 606.059 974.187 603.116 974.861L600.985 988.094L591.27 989.041L586.655 976.465C583.942 976.377 581.218 976.119 578.489 975.672L571.481 987.299L562.13 984.519L562.652 970.974C559.867 969.743 557.203 968.324 554.675 966.749L543.802 974.611L536.262 968.43L541.919 956.265C540.044 954.273 538.316 952.161 536.71 949.949L523.662 953.157L519.019 944.59L528.853 935.444C527.768 932.646 526.888 929.771 526.209 926.838L512.949 924.726L512.003 915.035L524.618 910.42C524.707 907.712 524.976 904.997 525.412 902.268L513.774 895.296L516.567 885.96L530.141 886.469C531.378 883.683 532.799 881.031 534.39 878.5L526.508 867.658L532.722 860.142L544.907 865.769C546.91 863.897 549.022 862.163 551.241 860.576L548.028 847.553L556.62 842.916L565.785 852.717C568.592 851.635 571.471 850.758 574.422 850.08ZM530.185 922.303C535.601 954.571 566.219 976.329 598.571 970.899C630.92 965.47 652.76 934.907 647.345 902.64C641.928 870.367 611.307 848.611 578.958 854.04C546.607 859.469 524.769 890.03 530.185 922.303Z" fill="#8D8D8D"/>
<path d="M532.842 921.859C538.004 952.616 567.29 973.428 598.129 968.252C628.962 963.078 649.857 933.844 644.695 903.087C639.532 872.326 610.24 851.513 579.405 856.688C548.566 861.865 527.679 891.098 532.842 921.859ZM638.262 904.167C642.83 931.385 624.346 957.259 597.055 961.839C569.763 966.42 543.843 947.998 539.275 920.779C534.706 893.555 553.191 867.681 580.483 863.1C607.774 858.522 633.693 876.944 638.262 904.167Z" fill="#8D8D8D"/>
<path d="M664.115 378.702L664.137 379.641C664.172 381.132 665.245 382.439 666.723 382.655C668.629 382.931 670.26 381.421 670.218 379.582L670.199 378.745C670.173 377.591 671.176 376.676 672.327 376.811C672.894 376.878 673.458 376.955 674.019 377.046C675.135 377.223 675.852 378.327 675.557 379.416L675.309 380.336C674.923 381.775 675.582 383.331 676.938 383.955C678.689 384.758 680.679 383.766 681.158 381.987L681.376 381.182C681.674 380.065 682.901 379.47 683.968 379.924C684.49 380.15 685.009 380.385 685.522 380.629C686.54 381.115 686.914 382.373 686.324 383.335L685.787 384.213C684.916 385.636 685.371 387.512 686.798 388.38C687.062 389.956 689.148 390.356 689.983 388.992L691.409 386.661C692.012 385.674 693.354 385.447 694.246 386.181C694.684 386.542 695.115 386.911 695.54 387.29C696.382 388.043 696.385 389.359 695.549 390.117L694.786 390.805C693.549 391.925 693.457 393.856 694.578 395.089C695.702 396.323 697.635 396.413 698.872 395.293L699.495 394.727C700.351 393.952 701.702 394.108 702.352 395.063C702.671 395.533 702.981 396.008 703.281 396.493C703.875 397.449 703.509 398.714 702.492 399.205L701.559 399.659C700.055 400.387 699.422 402.212 700.149 403.71L700.151 403.71C700.881 405.209 702.708 405.842 704.211 405.112L704.963 404.75C706.003 404.243 707.257 404.775 707.608 405.877C707.781 406.414 707.942 406.959 708.093 407.508C708.392 408.593 707.685 409.703 706.57 409.89L705.552 410.061C703.903 410.337 702.78 411.908 703.056 413.553C703.333 415.199 704.909 416.319 706.556 416.042L707.378 415.904C708.521 415.712 709.572 416.574 709.598 417.73C709.613 418.298 709.616 418.865 709.606 419.431C709.588 420.557 708.593 421.422 707.474 421.29L706.53 421.177C705.049 421.001 703.596 421.873 703.171 423.304C702.621 425.147 703.887 426.971 705.718 427.189L706.551 427.289C707.702 427.426 708.467 428.551 708.166 429.667C708.016 430.216 707.858 430.761 707.688 431.304C707.352 432.378 706.154 432.927 705.116 432.484L704.162 432.077C702.626 431.42 700.827 432.138 700.17 433.671C699.511 435.205 700.228 436.996 701.763 437.653L702.528 437.98C703.592 438.435 704.011 439.728 703.405 440.714C703.109 441.198 702.803 441.676 702.489 442.147C701.861 443.085 700.558 443.277 699.689 442.56L698.896 441.905C697.609 440.846 695.684 441.03 694.618 442.314C693.552 443.6 693.735 445.524 695.023 446.585L695.665 447.115C696.558 447.853 696.593 449.207 695.737 449.986C695.317 450.366 694.888 450.742 694.453 451.106C693.586 451.832 692.28 451.649 691.647 450.716L691.07 449.863C690.134 448.482 688.235 448.116 686.85 449.052C685.467 449.985 685.098 451.881 686.033 453.262L686.503 453.956C687.149 454.914 686.802 456.227 685.759 456.732C685.247 456.98 684.73 457.217 684.209 457.444C683.173 457.894 681.973 457.353 681.631 456.281L681.316 455.296C680.807 453.708 679.09 452.823 677.496 453.331C675.904 453.84 675.016 455.554 675.525 457.142L675.779 457.934C676.129 459.029 675.432 460.192 674.295 460.383C674.289 460.384 674.281 460.385 674.273 460.387C673.708 460.481 673.144 460.564 672.58 460.636C671.465 460.776 670.476 459.915 670.448 458.793L670.425 457.766C670.385 456.099 668.986 454.767 667.315 454.805C665.645 454.846 664.308 456.243 664.348 457.91L664.368 458.747C664.396 459.903 663.388 460.817 662.238 460.682C661.671 460.615 661.106 460.538 660.545 460.447C659.429 460.269 658.714 459.165 659.005 458.077L659.276 457.073C659.709 455.465 658.744 453.793 657.129 453.361C655.514 452.929 653.839 453.893 653.404 455.506L653.188 456.309C652.886 457.428 651.661 458.023 650.596 457.566C650.074 457.342 649.555 457.107 649.044 456.863C648.026 456.378 647.652 455.118 648.242 454.157L648.779 453.278C649.65 451.854 649.195 449.978 647.77 449.11C647.505 447.532 645.42 447.134 644.585 448.496L643.159 450.827C642.556 451.816 641.214 452.043 640.319 451.308C639.882 450.948 639.453 450.578 639.027 450.202C638.186 449.449 638.181 448.133 639.018 447.376L639.715 446.744C640.821 445.742 641.112 444.077 640.308 442.82C639.269 441.2 637.059 440.962 635.694 442.2L635.073 442.763C634.215 443.541 632.864 443.384 632.216 442.429C631.897 441.959 631.587 441.482 631.287 440.999C630.694 440.043 631.06 438.778 632.076 438.285L632.943 437.865C634.27 437.222 635.011 435.732 634.619 434.315C634.101 432.439 632.03 431.569 630.357 432.378L629.605 432.74C628.563 433.247 627.31 432.713 626.957 431.612C626.789 431.074 626.626 430.529 626.474 429.981C626.175 428.895 626.883 427.787 627.998 427.6L629.016 427.429C630.665 427.153 631.787 425.58 631.511 423.937C631.235 422.291 629.661 421.173 628.012 421.45L627.19 421.588C626.047 421.78 624.996 420.918 624.968 419.762C624.955 419.195 624.95 418.627 624.962 418.061C624.98 416.935 625.972 416.067 627.094 416.202L628.034 416.315C629.517 416.491 630.968 415.618 631.395 414.189C631.943 412.345 630.677 410.522 628.848 410.303L628.013 410.204C626.862 410.067 626.097 408.942 626.398 407.825C626.548 407.275 626.706 406.73 626.874 406.189C627.212 405.113 628.408 404.566 629.446 405.009L630.319 405.381C631.693 405.969 633.331 405.54 634.144 404.286C635.189 402.669 634.492 400.565 632.797 399.842L632.035 399.515C630.97 399.06 630.552 397.767 631.157 396.779C631.453 396.295 631.759 395.817 632.075 395.345C632.701 394.408 634.004 394.216 634.875 394.931L635.599 395.529C636.75 396.478 638.444 396.526 639.574 395.551C641.035 394.293 640.958 392.077 639.539 390.906L638.897 390.376C638.004 389.64 637.969 388.284 638.825 387.507C639.247 387.124 639.675 386.751 640.11 386.387C640.976 385.661 642.282 385.844 642.915 386.775L643.492 387.628C644.428 389.011 646.326 389.375 647.714 388.439C649.255 388.18 650.014 386.419 649.136 385.124L648.057 383.533C647.408 382.576 647.76 381.264 648.803 380.759C649.313 380.511 649.829 380.275 650.353 380.045C651.389 379.597 652.587 380.138 652.933 381.21L653.248 382.195C653.809 383.946 655.84 384.842 657.555 383.957C658.88 383.272 659.466 381.684 659.013 380.265L658.787 379.555C658.435 378.459 659.134 377.296 660.271 377.105C660.277 377.104 660.285 377.103 660.293 377.102C660.857 377.007 661.421 376.923 661.984 376.853C663.099 376.717 664.089 377.58 664.115 378.702ZM695.432 412.026C693.881 405.508 690.189 399.982 685.235 396.074L679.518 404.078C682.435 406.504 684.649 409.798 685.711 413.657L695.432 412.026ZM696.083 415.905L686.36 417.537C686.616 421.532 685.599 425.367 683.633 428.613L691.651 434.314C695.058 429.003 696.745 422.574 696.083 415.905ZM689.304 437.476L681.257 431.758C678.745 434.456 675.44 436.45 671.624 437.347L673.249 447.028C679.735 445.656 685.287 442.194 689.304 437.476ZM651.621 443.121C656.749 446.393 662.922 448.066 669.346 447.587L667.713 437.855C663.973 437.956 660.394 436.955 657.34 435.117L651.621 443.121ZM639.048 425.477C640.513 431.642 643.897 436.92 648.451 440.78L654.188 432.749C651.653 430.4 649.734 427.357 648.769 423.846L639.048 425.477ZM659.401 420.066C660.126 424.386 664.222 427.296 668.552 426.569C672.88 425.843 675.803 421.753 675.078 417.435C674.353 413.117 670.256 410.205 665.928 410.932C661.597 411.659 658.677 415.75 659.401 420.066ZM638.397 421.598L648.12 419.966C647.886 416.333 648.706 412.83 650.336 409.781L642.291 404.063C639.246 409.196 637.771 415.292 638.397 421.598ZM644.521 400.818L652.54 406.518C654.827 403.782 657.883 401.67 661.45 400.544L659.817 390.811C653.59 392.452 648.302 396.051 644.521 400.818ZM665.315 399.743C669.216 399.345 672.989 400.151 676.245 401.881L681.984 393.849C676.645 390.701 670.268 389.239 663.69 390.062L665.315 399.743Z" fill="#8D8D8D"/>
<path d="M394.336 714.964C397.363 714.585 400.064 716.935 400.129 720.008L400.186 722.574C400.286 726.651 403.197 730.211 407.216 730.808C412.389 731.557 416.793 727.447 416.677 722.429L416.619 720.13C416.548 716.994 419.263 714.486 422.387 714.855C423.916 715.05 425.469 715.271 426.989 715.496C430.006 715.998 431.947 719.02 431.161 721.984L430.483 724.487C429.445 728.42 431.243 732.681 434.917 734.372C439.665 736.573 445.061 733.865 446.34 729.032L446.939 726.835C447.753 723.768 451.065 722.154 453.951 723.402C455.368 724.016 456.784 724.654 458.167 725.332C460.939 726.635 461.95 730.08 460.353 732.713L458.912 735.11C456.539 738.993 457.782 744.116 461.664 746.496C462.383 750.78 468.029 751.883 470.285 748.17L474.151 741.816C475.783 739.124 479.437 738.499 481.846 740.5C483.041 741.485 484.204 742.501 485.363 743.539C487.646 745.599 487.649 749.185 485.389 751.262L483.323 753.137C479.984 756.193 479.735 761.464 482.774 764.822C485.852 768.21 491.078 768.453 494.419 765.39L496.106 763.86C498.435 761.74 502.098 762.171 503.858 764.796C504.731 766.069 505.545 767.37 506.382 768.669C508.001 771.301 507.004 774.758 504.259 776.109L501.731 777.321C497.654 779.313 495.925 784.283 497.914 788.391C499.909 792.484 504.847 794.202 508.932 792.225L510.958 791.247C513.795 789.868 517.187 791.323 518.16 794.333C518.609 795.797 519.045 797.274 519.455 798.789C520.26 801.736 518.367 804.769 515.333 805.278L512.603 805.736C508.111 806.49 505.074 810.759 505.831 815.269C506.587 819.775 510.853 822.83 515.345 822.076L517.551 821.706C520.637 821.188 523.496 823.54 523.588 826.677C523.628 828.235 523.623 829.784 523.598 831.33C523.569 834.395 520.868 836.766 517.809 836.393L515.27 836.083C511.263 835.595 507.305 837.994 506.171 841.866C504.678 846.911 508.118 851.893 513.087 852.505L515.35 852.779C518.484 853.15 520.541 856.225 519.74 859.261C519.335 860.769 518.904 862.258 518.44 863.735C517.533 866.666 514.306 868.163 511.481 866.956L508.893 865.848C504.734 864.05 499.853 866.005 498.077 870.173C496.291 874.365 498.247 879.271 502.409 881.041L504.472 881.956C507.381 883.195 508.5 886.733 506.884 889.422C506.069 890.734 505.25 892.041 504.387 893.336C502.702 895.883 499.165 896.411 496.781 894.438L494.644 892.652C491.141 889.758 485.932 890.248 483.037 893.755C480.169 897.267 480.654 902.518 484.157 905.406L485.9 906.855C488.329 908.869 488.421 912.567 486.101 914.704C484.965 915.752 483.795 916.761 482.616 917.762C480.269 919.729 476.737 919.233 475.015 916.694L473.449 914.332C470.887 910.578 465.756 909.586 461.995 912.126C458.234 914.683 457.255 919.845 459.8 923.614L461.066 925.497C462.83 928.128 461.885 931.695 459.053 933.089C457.665 933.752 456.278 934.399 454.854 935.03C452.048 936.245 448.783 934.769 447.848 931.848L447.003 929.156C445.625 924.82 440.956 922.392 436.643 923.76C432.321 925.16 429.907 929.841 431.296 934.165L431.991 936.339C432.932 939.331 431.066 942.501 427.971 943.02C427.955 943.023 427.927 943.028 427.917 943.029C426.393 943.285 424.854 943.523 423.334 943.708C420.291 944.077 417.6 941.728 417.53 938.659L417.477 935.873C417.351 931.309 413.549 927.683 409.028 927.784C404.48 927.889 400.891 931.684 400.997 936.25L401.034 938.528C401.137 941.679 398.382 944.182 395.28 943.809C393.732 943.613 392.217 943.42 390.696 943.155C387.66 942.674 385.711 939.652 386.507 936.695L387.232 933.944C388.416 929.559 385.775 924.989 381.41 923.8C377.037 922.62 372.485 925.244 371.32 929.65L370.727 931.835C369.92 934.899 366.601 936.516 363.705 935.268C362.274 934.65 360.89 934.017 359.482 933.351C356.724 932.018 355.714 928.58 357.296 925.956L358.764 923.548C361.109 919.668 359.874 914.544 356.022 912.184C355.299 907.875 349.642 906.766 347.363 910.501L343.506 916.852C341.875 919.547 338.231 920.159 335.799 918.145C334.622 917.166 333.452 916.158 332.299 915.142C330.012 913.071 330.003 909.477 332.268 907.407L334.159 905.685C337.15 902.962 337.928 898.41 335.742 894.979C332.933 890.559 326.935 889.891 323.254 893.273L321.563 894.808C319.251 896.931 315.553 896.497 313.81 893.87C312.937 892.595 312.096 891.286 311.294 889.973C309.654 887.354 310.664 883.912 313.424 882.563L315.78 881.429C319.364 879.675 321.369 875.612 320.3 871.723C318.89 866.609 313.278 864.235 308.746 866.446L306.711 867.421C303.876 868.809 300.487 867.36 299.537 864.339C299.059 862.871 298.607 861.378 298.206 859.892C297.388 856.921 299.308 853.898 302.326 853.391L305.093 852.927C309.571 852.175 312.598 847.886 311.843 843.392C311.091 838.906 306.83 835.844 302.352 836.595L300.118 836.97C297.024 837.489 294.161 835.13 294.086 831.994C294.041 830.429 294.036 828.881 294.063 827.337C294.086 824.257 296.803 821.912 299.833 822.269L302.404 822.586C306.415 823.073 310.345 820.681 311.498 816.796C312.964 811.759 309.529 806.774 304.58 806.173L302.335 805.898C299.184 805.512 297.104 802.441 297.913 799.407C298.322 797.897 298.76 796.424 299.225 794.927C300.135 791.996 303.377 790.498 306.186 791.708L308.565 792.747C312.283 794.346 316.724 793.178 318.926 789.757C321.76 785.356 319.846 779.611 315.247 777.624L313.193 776.722C310.296 775.478 309.165 771.954 310.795 769.264C311.595 767.949 312.425 766.649 313.288 765.351C314.986 762.794 318.508 762.277 320.877 764.231L322.851 765.867C325.972 768.456 330.557 768.599 333.638 765.937C337.582 762.517 337.368 756.468 333.513 753.266L331.773 751.819C329.342 749.809 329.249 746.102 331.562 743.989C332.709 742.939 333.869 741.92 335.056 740.917C337.394 738.952 340.957 739.453 342.65 741.995L344.222 744.331C346.771 748.093 351.918 749.098 355.678 746.557C359.858 745.856 361.916 741.046 359.533 737.525L356.598 733.173C354.845 730.549 355.787 726.975 358.623 725.601C360.007 724.917 361.394 724.274 362.821 723.649C365.624 722.424 368.872 723.897 369.823 726.83L370.67 729.52C372.188 734.312 377.703 736.758 382.343 734.355C385.949 732.482 387.534 728.151 386.294 724.281L385.679 722.339C384.738 719.349 386.63 716.167 389.694 715.652C389.716 715.649 389.736 715.645 389.76 715.641C391.287 715.381 392.799 715.154 394.336 714.964ZM365.938 814.367L402.187 823.223L382.865 791.379C374.964 797.067 369.011 805.131 365.938 814.367ZM424.449 785.027L415.501 821.211L447.469 801.917C441.768 794.013 433.688 788.087 424.449 785.027ZM408.44 819.474L417.361 783.305C412.471 782.517 407.403 782.478 402.241 783.344C397.544 784.133 393.133 785.573 389.128 787.619L408.44 819.474ZM397.527 759.137C393.53 759.808 390.805 763.604 391.479 767.615C392.153 771.632 395.967 774.33 399.964 773.659C403.985 772.985 406.715 769.188 406.041 765.171C405.368 761.159 401.548 758.462 397.527 759.137ZM451.774 781.952C454.163 778.641 453.389 774.026 450.051 771.684C446.729 769.317 442.126 770.09 439.773 773.409C437.408 776.708 438.183 781.323 441.496 783.677C444.8 786.035 449.403 785.262 451.774 781.952ZM478.258 817.612C477.583 813.589 473.794 810.896 469.775 811.571C465.758 812.245 463.054 816.028 463.73 820.051C464.401 824.05 468.194 826.76 472.211 826.086C476.23 825.411 478.929 821.611 478.258 817.612ZM455.516 821.222C454.728 816.527 453.283 812.155 451.228 808.146L419.282 827.439L455.535 836.329C456.349 831.443 456.377 826.354 455.516 821.222ZM395.307 872.702L404.202 836.547L372.286 855.832C377.961 863.729 386.039 869.647 395.307 872.702ZM425.667 889.712C424.994 885.704 421.172 883.018 417.167 883.69C413.157 884.363 410.422 888.15 411.094 892.157C411.767 896.168 415.591 898.865 419.6 898.192C423.606 897.52 426.34 893.723 425.667 889.712ZM417.518 874.384C422.183 873.601 426.592 872.129 430.603 870.125L411.289 838.28L402.363 874.434C407.26 875.236 412.366 875.249 417.518 874.384ZM453.798 843.37L417.521 834.465L436.863 866.355C444.798 860.665 450.725 852.613 453.798 843.37ZM465.659 870.016C468.007 866.693 467.238 862.112 463.936 859.75C460.606 857.39 456.012 858.161 453.65 861.476C451.278 864.79 452.047 869.372 455.373 871.742C458.686 874.096 463.28 873.325 465.659 870.016ZM365.356 875.385C362.988 878.709 363.757 883.294 367.082 885.669C370.411 888.03 374.997 887.261 377.382 883.94C379.74 880.612 378.971 876.026 375.657 873.656C372.321 871.316 367.733 872.086 365.356 875.385ZM338.861 839.743C339.534 843.75 343.336 846.438 347.361 845.763C351.372 845.09 354.084 841.308 353.412 837.301C352.737 833.284 348.935 830.569 344.924 831.242C340.897 831.918 338.187 835.728 338.861 839.743ZM364.249 836.54C365.027 841.172 366.45 845.584 368.502 849.597L400.453 830.314L364.195 821.406C363.38 826.311 363.382 831.374 364.249 836.54ZM351.471 787.329C349.109 790.634 349.883 795.243 353.193 797.592C356.532 799.95 361.135 799.177 363.481 795.865C365.867 792.56 365.094 787.951 361.759 785.603C358.459 783.23 353.855 784.003 351.471 787.329Z" fill="#8D8D8D"/>
</g>
</g>
</svg>
