<svg width="527" height="441" viewBox="0 0 527 441" fill="none" xmlns="http://www.w3.org/2000/svg">
<g opacity="0.05">
<path d="M449.592 151.906C444.014 159.441 433.329 161.021 425.776 155.43C418.222 149.838 416.614 139.157 422.191 131.623C427.769 124.087 438.455 122.505 446.009 128.096C453.563 133.688 455.17 144.37 449.592 151.906ZM429.82 137.27C427.348 140.609 428.062 145.343 431.409 147.82C434.756 150.298 439.49 149.597 441.962 146.258C444.435 142.917 443.722 138.186 440.375 135.708C437.028 133.231 432.293 133.93 429.82 137.27Z" fill="white"/>
<path d="M464.097 98.4483L473.085 92.1845L479.157 97.3657L474.379 107.221C475.866 108.864 477.258 110.618 478.548 112.475L489.361 110.001L493.034 117.081L484.77 124.459C485.626 126.8 486.301 129.169 486.81 131.552L497.608 133.488L498.243 141.431L487.88 145.009C487.767 147.244 487.511 149.463 487.116 151.653L496.41 157.516L494.006 165.108L483.042 164.517C482.008 166.737 480.816 168.891 479.475 170.955L485.764 179.957L480.592 186.01L470.722 181.212C469.078 182.693 467.328 184.083 465.471 185.367L467.971 196.173L460.895 199.831L453.49 191.552C451.152 192.401 448.78 193.075 446.397 193.575L444.488 204.362L436.537 204.977L432.936 194.611C430.697 194.493 428.477 194.233 426.284 193.834L420.439 203.108L412.836 200.686L413.4 189.73C411.178 188.693 409.017 187.498 406.95 186.151L397.96 192.41L391.889 187.229L396.667 177.378C395.18 175.73 393.786 173.979 392.496 172.12L381.686 174.595L378.009 167.515L386.275 160.135C385.42 157.795 384.741 155.426 384.233 153.043L373.434 151.107L372.799 143.161L383.163 139.585C383.274 137.351 383.532 135.132 383.925 132.941L374.631 127.079L377.036 119.488L388.001 120.08C389.034 117.86 390.225 115.706 391.567 113.641L385.28 104.64L390.451 98.5869L400.323 103.386C401.967 101.904 403.716 100.515 405.57 99.2303L403.071 88.4219L410.15 84.7656L417.552 93.0439C419.891 92.1931 422.262 91.5231 424.649 91.0213L426.557 80.2345L434.506 79.6175L438.111 89.9821C440.348 90.0994 442.569 90.36 444.76 90.7636L450.607 81.4877L458.21 83.9088L457.643 94.8638C459.87 95.9058 462.026 97.1002 464.097 98.4483ZM403.085 118.287C389.856 136.158 393.657 161.395 411.571 174.655C429.486 187.917 454.733 184.182 467.961 166.312C481.189 148.442 477.391 123.202 459.476 109.941C441.562 96.6798 416.313 100.417 403.085 118.287Z" fill="white"/>
<path d="M400.84 60.3489C398.507 63.4999 394.039 64.1609 390.88 61.823C387.721 59.4843 387.048 55.0181 389.381 51.8671C391.713 48.7162 396.182 48.0541 399.342 50.3928C402.501 52.7308 403.173 57.197 400.84 60.3489ZM392.572 54.229C391.538 55.6249 391.836 57.6047 393.236 58.6407C394.636 59.6768 396.615 59.3829 397.649 57.987C398.683 56.5902 398.385 54.6121 396.985 53.5761C395.586 52.54 393.606 52.8322 392.572 54.229Z" fill="white"/>
<path d="M406.905 37.9875L410.665 35.3676L413.205 37.5341L411.206 41.6564C411.828 42.3439 412.41 43.0774 412.95 43.8546L417.473 42.8199L419.009 45.7815L415.552 48.8683C415.91 49.8469 416.193 50.8384 416.405 51.8352L420.922 52.6459L421.187 55.9678L416.853 57.4648C416.804 58.4004 416.698 59.3281 416.533 60.2437L420.42 62.6958L419.415 65.8722L414.828 65.6249C414.397 66.5541 413.898 67.455 413.336 68.3183L415.966 72.0834L413.802 74.6149L409.673 72.6072C408.986 73.2271 408.254 73.8084 407.477 74.3458L408.523 78.8664L405.564 80.3966L402.467 76.9339C401.488 77.2889 400.497 77.5702 399.5 77.7808L398.701 82.2927L395.375 82.5506L393.868 78.2147C392.932 78.1646 392.003 78.0559 391.085 77.8899L388.641 81.7686L385.461 80.7559L385.697 76.173C384.767 75.7395 383.863 75.2404 382.998 74.6755L379.237 77.2947L376.698 75.1272L378.697 71.0066C378.075 70.3174 377.493 69.5848 376.953 68.8076L372.431 69.8431L370.893 66.8817L374.351 63.7947C373.993 62.8161 373.71 61.8256 373.497 60.8288L368.98 60.019L368.715 56.6962L373.05 55.2009C373.096 54.2665 373.204 53.3386 373.369 52.4213L369.482 49.9692L370.488 46.7935L375.074 47.0408C375.507 46.1123 376.005 45.2106 376.566 44.3483L373.936 40.5833L376.099 38.051L380.228 40.0587C380.915 39.4388 381.647 38.8575 382.422 38.3203L381.377 33.7988L384.338 32.27L387.434 35.733C388.413 35.377 389.404 35.0967 390.402 34.8868L391.199 30.3759L394.524 30.1182L396.033 34.4539C396.968 34.5033 397.897 34.6127 398.814 34.7817L401.259 30.9009L404.439 31.9137L404.202 36.4959C405.136 36.9234 406.038 37.4228 406.905 37.9875ZM381.384 46.2845C375.851 53.7595 377.44 64.316 384.933 69.8624C392.427 75.4096 402.987 73.8473 408.521 66.3722C414.054 58.8971 412.465 48.3407 404.971 42.7935C397.478 37.247 386.918 38.8094 381.384 46.2845Z" fill="white"/>
<path d="M26.2674 150.018C22.9107 154.553 16.4803 155.504 11.9351 152.14C7.388 148.774 6.42175 142.346 9.77779 137.812C13.1353 133.277 19.5647 132.325 24.1118 135.691C28.657 139.055 29.6249 145.483 26.2674 150.018ZM14.369 141.211C12.8823 143.219 13.3111 146.069 15.3252 147.56C17.3403 149.052 20.1886 148.627 21.6753 146.619C23.1634 144.609 22.7351 141.762 20.721 140.271C18.7069 138.78 15.8571 139.201 14.369 141.211Z" fill="white"/>
<path d="M34.9969 117.852L40.406 114.083L44.0599 117.202L41.1855 123.132C42.0796 124.122 42.9179 125.176 43.6946 126.295L50.201 124.806L52.4117 129.068L47.4388 133.507C47.9532 134.917 48.36 136.341 48.6665 137.776L55.1649 138.942L55.5465 143.721L49.3119 145.874C49.2428 147.22 49.0902 148.555 48.8514 149.872L54.444 153.4L52.9968 157.97L46.3997 157.613C45.7788 158.95 45.0621 160.245 44.253 161.488L48.0366 166.905L44.9252 170.547L38.9848 167.659C37.9961 168.55 36.9418 169.387 35.8257 170.16L37.3303 176.663L33.0728 178.865L28.6164 173.882C27.2094 174.392 25.7816 174.798 24.3471 175.1L23.1989 181.591L18.4129 181.962L16.2458 175.723C14.8983 175.651 13.5634 175.495 12.2429 175.254L8.7258 180.835L4.15096 179.376L4.49056 172.783C3.15274 172.158 1.8533 171.44 0.607864 170.629L-4.80147 174.396L-8.45435 171.278L-5.58047 165.35C-6.47474 164.36 -7.3141 163.305 -8.08979 162.186L-14.5952 163.676L-16.8073 159.416L-11.833 154.975C-12.3471 153.567 -12.7566 152.142 -13.0614 150.707L-19.5598 149.541L-19.9417 144.76L-13.7051 142.608C-13.6385 141.263 -13.4841 139.929 -13.2466 138.609L-18.8399 135.082L-17.3918 130.513L-10.7937 130.87C-10.1718 129.535 -9.4551 128.239 -8.64797 126.995L-12.4305 121.579L-9.31912 117.936L-3.37872 120.824C-2.38933 119.932 -1.33576 119.096 -0.221364 118.324L-1.72527 111.82L2.53493 109.619L6.98942 114.6C8.39708 114.089 9.82416 113.684 11.2597 113.383L12.4071 106.892L17.1912 106.52L19.3607 112.758C20.7055 112.829 22.0431 112.986 23.3622 113.229L26.8807 107.646L31.4563 109.104L31.1157 115.696C32.4528 116.322 33.7498 117.041 34.9969 117.852ZM-1.71733 129.79C-9.67791 140.544 -7.38997 155.731 3.38979 163.711C14.1705 171.692 29.3632 169.445 37.3238 158.691C45.2837 147.938 42.9972 132.749 32.2165 124.768C21.435 116.788 6.24253 119.037 -1.71733 129.79Z" fill="white"/>
<path d="M274.845 295.927C264.855 309.423 245.718 312.255 232.188 302.239C218.658 292.224 215.777 273.093 225.767 259.597C235.758 246.099 254.898 243.266 268.428 253.282C281.958 263.297 284.836 282.43 274.845 295.927ZM239.432 269.713C235.007 275.69 236.284 284.172 242.278 288.609C248.273 293.047 256.753 291.789 261.178 285.81C265.606 279.828 264.332 271.352 258.337 266.914C252.343 262.477 243.86 263.73 239.432 269.713Z" fill="white"/>
<path d="M300.833 200.174L316.931 188.955L327.807 198.236L319.249 215.888C321.913 218.832 324.407 221.971 326.717 225.299L346.085 220.868L352.665 233.55L337.863 246.766C339.395 250.958 340.605 255.203 341.516 259.471L360.859 262.94L361.995 277.168L343.435 283.575C343.233 287.578 342.774 291.551 342.066 295.476L358.714 305.975L354.407 319.573L334.768 318.514C332.917 322.491 330.783 326.348 328.378 330.045L339.64 346.166L330.375 357.007L312.695 348.413C309.752 351.067 306.616 353.554 303.291 355.856L307.77 375.212L295.096 381.765L281.832 366.936C277.644 368.457 273.397 369.663 269.127 370.56L265.709 389.88L251.467 390.984L245.016 372.418C241.006 372.204 237.029 371.738 233.101 371.025L222.632 387.637L209.014 383.299L210.025 363.675C206.043 361.819 202.176 359.676 198.472 357.264L182.366 368.477L171.495 359.198L180.053 341.552C177.389 338.601 174.892 335.463 172.582 332.136L153.218 336.569L146.635 323.887L161.442 310.666C159.911 306.477 158.694 302.233 157.786 297.964L138.443 294.496L137.305 280.267L155.87 273.862C156.069 269.858 156.531 265.885 157.233 261.959L140.586 251.46L144.897 237.863L164.536 238.923C166.386 234.946 168.52 231.089 170.923 227.39L159.66 211.27L168.925 200.427L186.606 209.022C189.55 206.368 192.683 203.88 196.004 201.578L191.527 182.219L204.207 175.67L217.466 190.497C221.655 188.974 225.901 187.774 230.176 186.875L233.594 167.554L247.833 166.45L254.289 185.016C258.294 185.226 262.274 185.694 266.199 186.414L276.669 169.8L290.285 174.138L289.272 193.761C293.261 195.62 297.121 197.76 300.833 200.174ZM191.549 235.709C167.856 267.716 174.661 312.921 206.749 336.674C238.838 360.427 284.06 353.735 307.753 321.728C331.447 289.72 324.644 244.513 292.555 220.759C260.467 197.007 215.243 203.701 191.549 235.709Z" fill="white"/>
<path d="M336.648 52.762L346.185 46.114L352.628 51.6153L347.558 62.072C349.135 63.8196 350.615 65.6758 351.982 67.6524L363.457 65.0226L367.356 72.54L358.587 80.3726C359.494 82.8578 360.214 85.3683 360.749 87.9001L372.213 89.953L372.884 98.3867L361.886 102.182C361.769 104.552 361.494 106.905 361.079 109.23L370.942 115.453L368.387 123.515L356.753 122.883C355.657 125.24 354.393 127.525 352.967 129.713L359.641 139.268L354.152 145.694L343.673 140.6C341.934 142.172 340.074 143.643 338.103 145.006L340.759 156.476L333.25 160.36L325.387 151.573C322.908 152.477 320.389 153.19 317.859 153.721L315.836 165.169L307.394 165.823L303.576 154.821C301.199 154.691 298.844 154.418 296.513 153.996L290.31 163.84L282.243 161.271L282.843 149.641C280.484 148.537 278.19 147.272 275.997 145.844L266.455 152.487L260.011 146.986L265.083 136.53C263.502 134.787 262.023 132.925 260.655 130.949L249.182 133.578L245.278 126.064L254.054 118.231C253.144 115.749 252.424 113.234 251.889 110.7L240.429 108.648L239.752 100.218L250.749 96.422C250.869 94.0483 251.147 91.6938 251.559 89.368L241.699 83.1453L244.25 75.0929L255.891 75.7189C256.984 73.3603 258.248 71.0771 259.672 68.886L252.999 59.3347L258.487 52.9096L268.964 58.0021C270.711 56.428 272.568 54.9551 274.536 53.5928L271.881 42.1206L279.396 38.24L287.253 47.0241C289.736 46.1215 292.252 45.4079 294.782 44.8797L296.808 33.4291L305.245 32.7786L309.07 43.7791C311.442 43.9058 313.801 44.1773 316.128 44.6086L322.33 34.7641L330.4 37.3296L329.799 48.9604C332.161 50.0631 334.446 51.3306 336.648 52.762ZM289.949 87.1809C283.271 96.2019 285.187 108.943 294.23 115.637C303.271 122.33 316.017 120.442 322.694 111.421C329.369 102.404 327.453 89.6614 318.413 82.969C309.368 76.2754 296.623 78.1647 289.949 87.1809Z" fill="white"/>
<path d="M378.66 -41.1946L385.031 -45.6353L389.335 -41.9631L385.946 -34.9795C387.001 -33.814 387.988 -32.574 388.906 -31.2566L396.566 -33.0094L399.171 -27.9891L393.314 -22.7613C393.922 -21.1006 394.398 -19.4203 394.759 -17.7332L402.413 -16.3595L402.864 -10.7312L395.52 -8.19619C395.442 -6.61086 395.258 -5.0385 394.975 -3.48429L401.565 0.67131L399.86 6.05464L392.09 5.63183C391.354 7.2057 390.514 8.73322 389.563 10.1946L394.016 16.5739L390.351 20.8641L383.357 17.4629C382.19 18.5122 380.951 19.4967 379.632 20.4076L381.405 28.0657L376.391 30.6586L371.141 24.7912C369.483 25.3965 367.803 25.8685 366.115 26.224L364.765 33.8709L359.126 34.3084L356.575 26.9608C354.987 26.8738 353.413 26.6933 351.86 26.4078L347.715 32.9817L342.331 31.2631L342.725 23.4985C341.151 22.7667 339.622 21.9177 338.158 20.9613L331.781 25.3984L327.479 21.7269L330.869 14.7441C329.812 13.5771 328.825 12.3371 327.914 11.0186L320.246 12.7718L317.644 7.75364L323.503 2.52289C322.897 0.866308 322.416 -0.815885 322.056 -2.50227L314.403 -3.87524L313.948 -9.50746L321.297 -12.0422C321.374 -13.6256 321.56 -15.1958 321.837 -16.7551L315.25 -20.906L316.956 -26.2894L324.728 -25.8661C325.459 -27.4443 326.302 -28.9672 327.254 -30.4303L322.801 -36.8106L326.463 -41.1037L333.463 -37.6981C334.628 -38.7499 335.869 -39.7302 337.182 -40.6465L335.408 -48.3053L340.425 -50.8961L345.673 -45.029C347.332 -45.6346 349.009 -46.1088 350.705 -46.4612L352.057 -54.1101L357.69 -54.5415L360.244 -47.1961C361.831 -47.1141 363.403 -46.9308 364.959 -46.643L369.098 -53.2213L374.488 -51.5035L374.087 -43.7388C375.666 -43 377.191 -42.1529 378.66 -41.1946ZM330.743 -30.5933C319.463 -15.3549 322.704 6.16757 337.983 17.4777C353.259 28.7864 374.791 25.6023 386.071 10.3639C397.353 -4.87645 394.11 -26.4003 378.834 -37.709C363.555 -49.0192 342.026 -45.8346 330.743 -30.5933Z" fill="white"/>
<path d="M331.997 -29.6686C321.245 -15.1436 324.345 5.44304 338.909 16.2243C353.47 27.0033 374.067 23.9586 384.819 9.43371C395.573 -5.09318 392.471 -25.683 377.909 -36.462C363.345 -47.2433 342.751 -44.1964 331.997 -29.6686ZM381.781 7.1847C372.266 20.0393 354.039 22.7363 341.151 13.1959C328.262 3.65482 325.519 -14.5666 335.034 -27.4203C344.551 -40.2768 362.779 -42.9748 375.668 -33.4337C388.556 -23.8933 391.299 -5.67283 381.781 7.1847Z" fill="white"/>
<path d="M126.727 324.475L133.35 319.86L137.822 323.677L134.301 330.937C135.397 332.148 136.424 333.437 137.376 334.806L145.337 332.984L148.046 338.203L141.957 343.637C142.589 345.363 143.085 347.11 143.459 348.863L151.414 350.291L151.884 356.141L144.25 358.775C144.169 360.423 143.978 362.058 143.685 363.673L150.534 367.992L148.761 373.588L140.686 373.148C139.92 374.784 139.048 376.372 138.058 377.891L142.687 384.523L138.877 388.982L131.607 385.448C130.394 386.538 129.107 387.56 127.736 388.508L129.579 396.468L124.368 399.164L118.911 393.064C117.188 393.694 115.441 394.185 113.687 394.554L112.284 402.502L106.422 402.958L103.77 395.321C102.12 395.23 100.484 395.042 98.8697 394.746L94.5616 401.579L88.9661 399.794L89.3762 391.724C87.7403 390.963 86.1507 390.08 84.6281 389.086L78.0005 393.695L73.5276 389.879L77.0503 382.621C75.9538 381.407 74.9271 380.118 73.9798 378.749L66.0089 380.572L63.3048 375.355L69.3951 369.919C68.7645 368.197 68.2657 366.449 67.8915 364.694L59.9372 363.268L59.4641 357.414L67.1033 354.78C67.1833 353.135 67.376 351.503 67.6636 349.882L60.8177 345.566L62.5901 339.971L70.6671 340.411C71.4264 338.771 72.3048 337.187 73.2926 335.666L68.6642 329.035L72.4702 324.573L79.7453 328.112C80.9564 327.019 82.2456 326 83.6111 325.048L81.768 317.088L86.9833 314.395L92.4378 320.492C94.1624 319.864 95.9064 319.371 97.6689 319.003L99.074 311.052L104.93 310.604L107.585 318.239C109.234 318.325 110.87 318.516 112.485 318.814L116.787 311.977L122.39 313.763L121.973 321.834C123.616 322.598 125.2 323.48 126.727 324.475ZM76.9212 335.494C65.1962 351.333 68.5649 373.704 84.4455 385.459C100.324 397.214 122.706 393.903 134.43 378.065C146.157 362.224 142.786 339.852 126.907 328.098C111.028 316.343 88.6477 319.653 76.9212 335.494Z" fill="white"/>
<path d="M78.227 336.461C67.0513 351.558 70.2731 372.956 85.4106 384.162C100.545 395.365 121.955 392.201 133.131 377.103C144.308 362.004 141.084 340.603 125.948 329.399C110.81 318.194 89.4042 321.361 78.227 336.461ZM129.973 374.766C120.083 388.127 101.137 390.931 87.7417 381.015C74.345 371.098 71.4945 352.158 81.3845 338.798C91.2767 325.434 110.223 322.63 123.619 332.547C137.014 342.464 139.865 361.404 129.973 374.766Z" fill="white"/>
<path d="M196.798 33.2519L195.391 34.675C193.159 36.9311 192.738 40.508 194.594 43.0883C196.988 46.4218 201.709 46.6882 204.466 43.9053L205.72 42.6363C207.451 40.8862 210.338 41.0762 211.829 43.0388C212.566 44.006 213.28 44.9863 213.972 45.9786C215.349 47.9512 214.715 50.6785 212.613 51.8379L210.839 52.8167C208.062 54.3512 206.649 57.6625 207.7 60.6618C209.059 64.5277 213.52 66.1148 216.949 64.22L218.504 63.3627C220.658 62.1719 223.383 63.1664 224.26 65.4766C224.69 66.6083 225.094 67.7506 225.477 68.8944C226.239 71.173 224.862 73.6054 222.517 74.1252L220.377 74.6005C216.907 75.3692 214.707 78.8372 215.484 82.3075C213.46 85.042 215.926 88.8289 219.253 88.0903L224.932 86.8324C227.335 86.2969 229.669 88.017 229.862 90.471C229.956 91.6762 230.028 92.8829 230.074 94.0893C230.166 96.4904 228.156 98.4408 225.758 98.2788L223.576 98.1307C220.029 97.892 216.936 100.599 216.704 104.143C216.475 107.689 219.19 110.785 222.738 111.024L224.52 111.143C226.977 111.308 228.733 113.612 228.226 116.019C227.978 117.199 227.707 118.379 227.409 119.555C226.821 121.881 224.343 123.187 222.084 122.354L220.012 121.591C216.673 120.364 212.941 122.089 211.721 125.421L211.723 125.422C210.502 128.757 212.235 132.489 215.574 133.716L217.242 134.33C219.556 135.179 220.595 137.885 219.427 140.051C218.857 141.111 218.262 142.161 217.644 143.205C216.419 145.269 213.676 145.821 211.742 144.39L209.978 143.084C207.116 140.965 203.049 141.567 200.937 144.42C198.824 147.274 199.437 151.341 202.298 153.459L203.725 154.515C205.707 155.982 205.94 158.864 204.209 160.614C203.36 161.477 202.494 162.321 201.614 163.142C199.862 164.782 197.065 164.536 195.614 162.621L194.394 161.013C192.475 158.48 188.988 157.543 186.173 159.007C182.536 160.89 181.612 165.523 183.983 168.652L185.062 170.079C186.554 172.046 185.962 174.876 183.804 176.068C182.744 176.652 181.672 177.213 180.592 177.756C178.446 178.826 175.835 177.804 174.982 175.562L174.197 173.496C172.933 170.173 169.179 168.478 165.857 169.737C162.532 170.994 160.849 174.739 162.111 178.063L162.74 179.713C163.62 182.02 162.251 184.568 159.845 185.101C158.666 185.362 157.481 185.599 156.293 185.814C153.929 186.239 151.709 184.525 151.525 182.133L151.354 179.952C151.076 176.409 147.949 173.732 144.405 173.998C140.858 174.267 138.186 177.386 138.463 180.931L138.6 182.696C138.792 185.152 136.766 187.21 134.306 187.047C133.101 186.967 131.894 186.862 130.691 186.735C128.3 186.48 126.651 184.211 127.142 181.859L127.595 179.712C128.33 176.236 126.084 172.788 122.604 172.047C119.127 171.306 115.678 173.544 114.945 177.017L114.576 178.763C114.067 181.17 111.541 182.576 109.223 181.723C108.088 181.307 106.962 180.867 105.84 180.4C103.619 179.48 102.673 176.84 103.814 174.729L104.856 172.793C106.539 169.666 105.355 165.727 102.224 164.034C99.089 162.346 95.1521 163.521 93.4672 166.644L92.627 168.203C91.4674 170.359 88.6542 171.011 86.6814 169.55C86.6696 169.542 86.6549 169.531 86.6432 169.522C85.6622 168.796 84.7025 168.055 83.761 167.296C81.8978 165.794 81.7541 163.005 83.433 161.306L84.9718 159.754C87.469 157.23 87.4432 153.119 84.9118 150.618C82.3821 148.116 78.2663 148.134 75.7706 150.656L74.5141 151.923C72.7826 153.673 69.8952 153.483 68.404 151.521C67.6676 150.554 66.9525 149.573 66.2614 148.585C64.8835 146.611 65.5188 143.884 67.6194 142.723L69.5554 141.655C72.6653 139.94 73.7985 135.991 72.0731 132.88C70.3484 129.768 66.394 128.626 63.2817 130.343L61.7315 131.2C59.5733 132.39 56.8487 131.394 55.973 129.087C55.5444 127.954 55.1375 126.815 54.7565 125.669C53.9953 123.393 55.3728 120.958 57.7165 120.44L59.8567 119.964C63.3236 119.193 65.524 115.725 64.7484 112.257C66.7726 109.522 64.3043 105.734 60.9804 106.471L55.302 107.73C52.8971 108.264 50.5629 106.546 50.3706 104.091C50.2756 102.889 50.2069 101.682 50.1581 100.474C50.0675 98.0762 52.0772 96.125 54.476 96.2851L56.4729 96.419C59.646 96.6325 62.6249 94.6168 63.363 91.5274C64.3108 87.5444 61.4105 83.8031 57.497 83.5417L55.7162 83.4208C53.256 83.2576 51.5006 80.9549 52.0056 78.5446C52.2536 77.3642 52.5271 76.186 52.8245 75.0103C53.4126 72.6843 55.8928 71.3771 58.1499 72.2098L60.0739 72.9171C63.0206 73.9996 66.3981 72.9338 67.9909 70.2375C70.1008 66.6707 68.372 62.2129 64.6603 60.8475L62.9922 60.2325C60.6768 59.3824 59.6397 56.6764 60.8082 54.5102C61.3827 53.4517 61.9756 52.4009 62.5942 51.3584C63.8155 49.295 66.5609 48.7433 68.4946 50.1747L70.2578 51.4799C73.1187 53.5977 77.1869 52.993 79.2981 50.141C81.4107 47.2871 80.7995 43.2216 77.9387 41.1038L76.5132 40.0486C74.5316 38.5817 74.3005 35.6979 76.0281 33.9456C76.8776 33.0846 77.7428 32.2413 78.6237 31.4219C80.3773 29.7798 83.1728 30.0244 84.6268 31.9419L85.8422 33.5493C87.7642 36.0815 91.2474 37.0186 94.066 35.5571C97.7018 33.6716 98.6265 29.038 96.2542 25.9103L95.1747 24.4838C93.6826 22.5154 94.2744 19.6829 96.4338 18.4958C97.4943 17.9108 98.5652 17.3486 99.6452 16.8068C101.794 15.7362 104.402 16.7587 105.255 19.0028L105.972 20.8918C107.103 23.8643 110.185 25.7392 113.303 25.1318C117.327 24.3474 119.519 20.1666 118.125 16.4992L117.497 14.8494C116.62 12.5436 117.985 9.99279 120.391 9.46121C121.57 9.19996 122.757 8.96177 123.945 8.74968C126.308 8.32289 128.528 10.0356 128.715 12.4322L128.871 14.4241C129.12 17.591 131.55 20.2581 134.713 20.5523C138.798 20.9328 142.08 17.5402 141.776 13.6335L141.638 11.8661C141.447 9.41179 143.475 7.3526 145.931 7.51724C147.137 7.59665 148.342 7.69996 149.545 7.82861C151.939 8.08526 153.587 10.3536 153.094 12.7045L152.643 14.8516C151.907 18.3274 154.155 21.7758 157.635 22.5182C160.309 24.4975 164.13 23.0537 164.816 19.803L165.66 15.8007C166.168 13.3927 168.699 11.9891 171.013 12.8402C172.147 13.258 173.277 13.699 174.399 14.1629C176.618 15.0857 177.561 17.7232 176.425 19.8365L175.381 21.7733C173.524 25.223 175.157 29.6585 179.043 30.9771C182.053 31.997 185.352 30.5475 186.857 27.7556L187.607 26.3607C188.769 24.2034 191.583 23.5535 193.556 25.0139C193.567 25.0226 193.58 25.032 193.595 25.0429C194.574 25.7677 195.535 26.5081 196.474 27.2667C198.338 28.766 198.48 31.5542 196.798 33.2519ZM192.014 130.487C199.708 118.478 202.72 104.652 201.389 91.2861L180.671 94.3532C181.265 102.41 179.487 110.672 175.143 118L192.013 130.488L192.014 130.487ZM187.032 137.217L170.162 124.729C164.421 131.025 157.039 135.135 149.161 136.92L152.277 157.631C165.449 155.002 177.793 148.083 187.032 137.217ZM143.962 158.711L140.834 137.93C132.988 138.068 125.047 135.952 118.033 131.427L105.598 148.226C117.284 156.135 130.791 159.525 143.962 158.711ZM79.6234 109.307C82.1912 122 88.7459 133.934 98.9749 143.069L111.474 126.184C105.793 120.598 102.039 113.639 100.342 106.242L79.6234 109.307ZM88.0789 63.9673C80.7992 75.3268 77.7113 88.3102 78.5261 100.992L99.3147 97.9156C99.1669 90.5604 100.994 83.1211 104.949 76.4555L88.0789 63.9673ZM112.011 76.4726C100.575 91.9212 103.861 113.73 119.346 125.192C134.826 136.652 156.644 133.426 168.08 117.978C179.512 102.534 176.229 80.7197 160.749 69.2607C145.264 57.798 123.443 61.0289 112.011 76.4726ZM93.0608 57.2372L109.931 69.7254C115.153 63.9942 121.733 60.0763 128.81 58.0698L125.684 37.2868C113.316 40.2119 101.799 46.9575 93.0608 57.2372ZM133.955 35.9104L137.072 56.6215C144.643 56.0829 152.395 57.642 159.394 61.4465L171.895 44.5587C160.172 37.4446 146.844 34.6606 133.955 35.9104ZM166.327 66.1864C172.701 71.5733 177.045 78.5505 179.206 86.0938L199.993 83.019C196.927 70.1843 189.74 58.2538 178.762 49.3877L166.327 66.1864Z" fill="white"/>
<path d="M368.582 166.276L368.184 166.679C367.553 167.317 367.434 168.329 367.959 169.059C368.636 170.001 369.973 170.077 370.752 169.29L371.107 168.932C371.597 168.438 372.413 168.49 372.835 169.045C373.043 169.319 373.246 169.596 373.441 169.877C373.831 170.436 373.652 171.208 373.056 171.535L372.554 171.812C371.769 172.247 371.37 173.183 371.666 174.031C372.05 175.126 373.313 175.574 374.284 175.039L374.724 174.796C375.333 174.459 376.104 174.742 376.353 175.394C376.473 175.715 376.588 176.038 376.697 176.363C376.912 177.007 376.523 177.695 375.859 177.842L375.254 177.976C374.273 178.194 373.65 179.175 373.87 180.156C373.298 180.93 373.996 182.001 374.937 181.793L376.543 181.436C377.223 181.285 377.883 181.772 377.938 182.466C377.964 182.807 377.985 183.148 377.998 183.491C378.023 184.17 377.454 184.722 376.776 184.676L376.159 184.633C375.156 184.565 374.28 185.333 374.215 186.334C374.15 187.338 374.919 188.213 375.921 188.281L376.427 188.314C377.121 188.361 377.618 189.013 377.476 189.694C377.406 190.028 377.329 190.361 377.245 190.694C377.078 191.351 376.377 191.722 375.739 191.486L375.152 191.271C374.208 190.924 373.152 191.412 372.807 192.354L372.807 192.355C372.462 193.298 372.952 194.354 373.897 194.701L374.368 194.875C375.023 195.115 375.317 195.881 374.986 196.494C374.825 196.793 374.656 197.091 374.481 197.386C374.136 197.969 373.359 198.126 372.812 197.721L372.312 197.352C371.503 196.752 370.352 196.922 369.755 197.73C369.157 198.538 369.33 199.689 370.139 200.288L370.542 200.586C371.103 201.002 371.169 201.817 370.679 202.312C370.439 202.556 370.194 202.794 369.945 203.027C369.449 203.49 368.658 203.42 368.248 202.88L367.902 202.423C367.359 201.708 366.373 201.442 365.575 201.856C364.546 202.389 364.285 203.7 364.956 204.585L365.261 204.988C365.683 205.544 365.515 206.346 364.905 206.682C364.605 206.847 364.302 207.006 363.996 207.16C363.39 207.463 362.651 207.173 362.409 206.538L362.186 205.954C361.829 205.013 360.766 204.534 359.826 204.89C358.885 205.245 358.409 206.305 358.766 207.245L358.944 207.713C359.192 208.365 358.806 209.087 358.125 209.237C357.791 209.311 357.457 209.378 357.121 209.439C356.452 209.559 355.824 209.074 355.772 208.398L355.724 207.78C355.645 206.779 354.76 206.021 353.758 206.096C352.754 206.172 351.997 207.056 352.075 208.058L352.114 208.558C352.168 209.253 351.595 209.834 350.9 209.789C350.559 209.766 350.217 209.737 349.877 209.701C349.2 209.628 348.733 208.986 348.873 208.321L349.001 207.714C349.209 206.732 348.574 205.755 347.589 205.546C346.606 205.337 345.63 205.969 345.422 206.952L345.318 207.446C345.173 208.126 344.458 208.525 343.803 208.284C343.481 208.166 343.163 208.041 342.847 207.909C342.218 207.649 341.951 206.902 342.273 206.306L342.568 205.757C343.044 204.873 342.709 203.758 341.823 203.279C340.936 202.802 339.823 203.134 339.347 204.018L339.109 204.46C338.781 205.069 337.985 205.253 337.427 204.84C337.424 204.838 337.42 204.835 337.416 204.832C337.139 204.627 336.868 204.417 336.601 204.203C336.074 203.778 336.034 202.989 336.508 202.508L336.944 202.068C337.65 201.354 337.642 200.191 336.927 199.483C336.211 198.775 335.047 198.78 334.341 199.494L333.986 199.853C333.496 200.348 332.679 200.293 332.257 199.738C332.049 199.464 331.846 199.187 331.651 198.906C331.261 198.348 331.441 197.577 332.035 197.248L332.583 196.945C333.461 196.461 333.782 195.343 333.294 194.463C332.807 193.582 331.688 193.259 330.807 193.744L330.369 193.987C329.757 194.324 328.987 194.041 328.74 193.389C328.619 193.069 328.504 192.745 328.396 192.422C328.181 191.777 328.571 191.089 329.233 190.943L329.839 190.808C330.821 190.59 331.444 189.609 331.224 188.628C331.798 187.853 331.099 186.783 330.159 186.99L328.552 187.347C327.871 187.499 327.212 187.012 327.157 186.317C327.129 185.977 327.111 185.636 327.095 185.294C327.071 184.615 327.639 184.062 328.317 184.108L328.883 184.147C329.779 184.207 330.622 183.637 330.831 182.763C331.099 181.635 330.279 180.578 329.171 180.503L328.667 180.47C327.972 180.423 327.475 179.772 327.618 179.091C327.688 178.757 327.765 178.423 327.849 178.091C328.016 177.434 328.717 177.063 329.356 177.298L329.9 177.498C330.734 177.805 331.69 177.503 332.14 176.741C332.737 175.732 332.248 174.47 331.198 174.083L330.727 173.909C330.071 173.669 329.779 172.902 330.109 172.289C330.271 171.991 330.439 171.693 330.614 171.397C330.959 170.814 331.736 170.658 332.283 171.063L332.782 171.433C333.592 172.032 334.743 171.861 335.34 171.054C335.938 170.247 335.765 169.097 334.955 168.497L334.552 168.199C333.991 167.784 333.925 166.968 334.414 166.472C334.655 166.229 334.899 165.99 335.149 165.758C335.645 165.295 336.436 165.362 336.846 165.906L337.19 166.36C337.734 167.077 338.719 167.341 339.517 166.928C340.546 166.395 340.807 165.084 340.137 164.2L339.831 163.796C339.409 163.24 339.577 162.438 340.187 162.101C340.488 161.936 340.791 161.777 341.095 161.623C341.703 161.32 342.44 161.61 342.682 162.245L342.886 162.779C343.206 163.62 344.076 164.151 344.96 163.98C346.098 163.757 346.718 162.574 346.323 161.538L346.146 161.071C345.898 160.419 346.284 159.697 346.966 159.546C347.299 159.472 347.634 159.405 347.971 159.345C348.639 159.224 349.267 159.709 349.321 160.385L349.364 160.949C349.435 161.845 350.122 162.599 351.017 162.682C352.173 162.789 353.102 161.829 353.016 160.724L352.977 160.224C352.923 159.53 353.497 158.948 354.191 158.994C354.534 159.017 354.874 159.046 355.214 159.082C355.891 159.154 356.358 159.797 356.218 160.461L356.09 161.068C355.882 162.051 356.518 163.027 357.503 163.237C358.26 163.797 359.341 163.389 359.535 162.468L359.774 161.335C359.918 160.653 360.634 160.257 361.289 160.498C361.609 160.616 361.928 160.741 362.246 160.872C362.874 161.133 363.14 161.879 362.82 162.477L362.525 163.025C362 164.001 362.46 165.256 363.561 165.63C364.412 165.917 365.346 165.508 365.771 164.718L365.985 164.323C366.313 163.712 367.109 163.529 367.667 163.942C367.67 163.944 367.674 163.947 367.678 163.95C367.955 164.155 368.227 164.364 368.493 164.579C369.018 165.006 369.058 165.796 368.582 166.276ZM367.229 193.786C369.406 190.388 370.258 186.477 369.881 182.696L364.021 183.563C364.189 185.843 363.686 188.179 362.457 190.253L367.229 193.786ZM365.819 195.69L361.047 192.157C359.422 193.938 357.334 195.101 355.105 195.606L355.986 201.465C359.712 200.721 363.205 198.765 365.819 195.69ZM353.634 201.77L352.748 195.891C350.528 195.929 348.282 195.33 346.298 194.051L342.78 198.803C346.086 201.042 349.909 202.001 353.634 201.77ZM335.431 187.793C336.156 191.385 338.012 194.76 340.906 197.345L344.442 192.568C342.834 190.989 341.772 189.019 341.292 186.926L335.431 187.793ZM337.823 174.966C335.763 178.178 334.89 181.852 335.12 185.441L341.001 184.57C340.959 182.489 341.476 180.384 342.595 178.498L337.823 174.966ZM348.679 181.527C347.109 183.648 347.56 186.64 349.686 188.213C351.81 189.786 354.805 189.343 356.374 187.223C357.943 185.104 357.492 182.11 355.367 180.537C353.242 178.964 350.247 179.408 348.679 181.527ZM339.233 173.061L344.006 176.594C345.483 174.974 347.345 173.865 349.347 173.297L348.463 167.418C344.964 168.244 341.705 170.154 339.233 173.061ZM350.802 167.028L351.684 172.888C353.826 172.735 356.019 173.177 357.999 174.253L361.536 169.475C358.22 167.462 354.45 166.674 350.802 167.028ZM359.962 175.594C361.766 177.119 362.994 179.092 363.605 181.226L369.487 180.356C368.619 176.725 366.587 173.349 363.48 170.842L359.962 175.594Z" fill="white"/>
<path d="M110.01 189.915C111.44 191.069 111.551 193.223 110.245 194.536L109.157 195.634C107.431 197.381 107.105 200.132 108.527 202.124C110.364 204.68 113.988 204.87 116.114 202.722L117.087 201.736C118.417 200.394 120.639 200.522 121.785 202.031C122.341 202.775 122.894 203.541 123.432 204.294C124.475 205.812 123.977 207.917 122.363 208.815L120.995 209.568C118.856 210.762 117.76 213.324 118.563 215.623C119.594 218.602 123.024 219.809 125.654 218.342L126.857 217.684C128.527 216.754 130.612 217.515 131.277 219.289C131.604 220.159 131.919 221.04 132.203 221.923C132.797 223.669 131.726 225.548 129.917 225.957L128.275 226.334C125.6 226.929 123.899 229.61 124.49 232.288C122.933 234.391 124.816 237.3 127.369 236.725L131.74 235.744C133.589 235.326 135.388 236.649 135.528 238.53C135.6 239.46 135.646 240.389 135.68 241.326C135.742 243.177 134.189 244.677 132.343 244.566L130.667 244.454C127.946 244.285 125.556 246.38 125.371 249.102C125.19 251.853 127.269 254.22 129.994 254.388L131.363 254.479C133.255 254.603 134.6 256.371 134.197 258.231C134.011 259.142 133.787 260.039 133.574 260.945C133.11 262.747 131.194 263.76 129.461 263.135L127.879 262.546C125.31 261.611 122.432 262.94 121.483 265.52C120.543 268.096 121.863 270.955 124.428 271.899L125.699 272.369C127.483 273.022 128.27 275.101 127.372 276.781C126.925 277.588 126.467 278.395 125.982 279.206C125.041 280.787 122.935 281.234 121.445 280.132L120.105 279.14C117.9 277.508 114.78 277.976 113.141 280.19C111.504 282.401 111.963 285.528 114.168 287.16L115.251 287.962C116.765 289.083 116.941 291.306 115.62 292.657C114.961 293.326 114.287 293.972 113.606 294.607C112.266 295.876 110.109 295.696 108.991 294.214L108.064 292.984C106.6 291.043 103.905 290.33 101.753 291.457C98.9411 292.919 98.2197 296.494 100.032 298.904L100.859 300C102.009 301.513 101.536 303.69 99.8844 304.613C99.0613 305.067 98.2355 305.503 97.4015 305.919C95.7517 306.752 93.7534 305.979 93.0955 304.249L92.494 302.664C91.5344 300.109 88.6461 298.811 86.0967 299.784C83.5325 300.762 82.2234 303.661 83.1963 306.206L83.6621 307.482C84.3413 309.261 83.2751 311.226 81.4337 311.65C80.524 311.845 79.6155 312.036 78.6929 312.203C76.8843 312.538 75.1765 311.225 75.035 309.367L74.9158 307.693C74.7063 304.965 72.3158 302.912 69.5848 303.123C66.8629 303.348 64.7895 305.753 65.0023 308.48L65.1027 309.841C65.2454 311.736 63.6802 313.322 61.7841 313.21C60.8545 313.155 59.9282 313.07 59.0008 312.977C57.1672 312.783 55.9053 311.044 56.2859 309.236L56.6556 307.569C57.2118 304.889 55.4966 302.25 52.8226 301.681C50.1418 301.12 47.4944 302.854 46.925 305.533L46.6377 306.869C46.2349 308.734 44.2931 309.815 42.5047 309.17C41.6368 308.846 40.7767 308.515 39.9079 308.162C38.2075 307.453 37.4826 305.421 38.358 303.794L39.1717 302.302C40.4753 299.892 39.5758 296.852 37.1796 295.555C34.7656 294.266 31.7271 295.177 30.433 297.587L29.7811 298.797C28.8774 300.456 26.7232 300.972 25.2037 299.848C25.1959 299.842 25.1822 299.832 25.1773 299.828C24.4293 299.274 23.6826 298.706 22.9671 298.125C21.5348 296.96 21.4282 294.811 22.7293 293.498L23.9149 292.31C25.8409 290.347 25.8233 287.183 23.8892 285.265C21.9425 283.337 18.7962 283.368 16.8611 285.323L15.8892 286.292C14.5658 287.654 12.3291 287.506 11.1941 286.005C10.6314 285.252 10.0816 284.515 9.56071 283.744C8.49992 282.227 8.99519 280.119 10.61 279.227L12.106 278.391C14.5016 277.072 15.3788 274.015 14.0694 271.626C12.7522 269.237 9.71179 268.361 7.31431 269.698L6.11904 270.354C4.45356 271.286 2.36449 270.523 1.69505 268.745C1.36454 267.867 1.06042 267.002 0.76054 266.113C0.185293 264.36 1.25356 262.485 3.0524 262.074L4.71021 261.703C7.37272 261.098 9.07791 258.42 8.49067 255.763C10.0561 253.648 8.17164 250.732 5.59932 251.305L1.23397 252.289C-0.61671 252.709 -2.40546 251.385 -2.54915 249.488C-2.6168 248.568 -2.66916 247.64 -2.71053 246.715C-2.76919 244.858 -1.21478 243.352 0.629757 243.468L2.16699 243.568C4.59772 243.726 6.89657 242.16 7.47025 239.778C8.21189 236.712 5.99406 233.832 2.98845 233.65L1.61623 233.559C-0.270689 233.445 -1.62915 231.66 -1.21881 229.806C-1.03083 228.894 -0.815101 227.983 -0.581478 227.086C-0.131613 225.28 1.78292 224.279 3.52155 224.911L4.99847 225.459C7.25721 226.279 9.85667 225.449 11.0958 223.36C12.7234 220.61 11.4065 217.185 8.55314 216.144L7.27962 215.67C5.49242 215.021 4.70367 212.946 5.6163 211.271C6.05285 210.45 6.51134 209.63 6.98753 208.835C7.93353 207.238 10.0472 206.807 11.5286 207.903L12.8865 208.908C15.0846 210.535 18.2098 210.054 19.8427 207.848C21.4727 205.646 21.0189 202.519 18.8209 200.892L17.7243 200.08C16.2058 198.956 16.0317 196.728 17.3596 195.385C18.0193 194.711 18.6879 194.061 19.3693 193.427C20.7139 192.15 22.8666 192.347 23.9785 193.81L24.9163 195.057C26.382 197 29.0622 197.703 31.2283 196.579C34.0248 195.108 34.7498 191.535 32.9412 189.138L32.1221 188.05C30.9718 186.523 31.4337 184.337 33.0873 183.419C33.9131 182.965 34.7344 182.539 35.5776 182.115C37.2293 181.284 39.2337 182.063 39.8838 183.787L40.4282 185.252C41.2894 187.533 43.6524 188.97 46.0565 188.494C49.1492 187.883 50.8397 184.651 49.7781 181.827L49.3101 180.559C48.6383 178.782 49.6933 176.819 51.5408 176.401C52.4459 176.198 53.3564 176.014 54.2797 175.846C56.098 175.513 57.7951 176.823 57.938 178.668L58.0546 180.207C58.237 182.643 60.0919 184.69 62.534 184.913C65.6657 185.193 68.1989 182.571 67.9751 179.561L67.875 178.202C67.7299 176.307 69.2979 174.717 71.1812 174.837C72.1156 174.895 73.0424 174.972 73.9737 175.067C75.8033 175.259 77.0754 177.013 76.6817 178.81L76.3257 180.468C75.7604 183.146 77.4774 185.798 80.1504 186.365C82.2025 187.884 85.1481 186.765 85.6781 184.26L86.3375 181.168C86.7422 179.311 88.6859 178.225 90.4671 178.88C91.3422 179.194 92.2009 179.527 93.0686 179.884C94.7716 180.587 95.4908 182.611 94.6172 184.25L93.8053 185.742C92.3624 188.403 93.6077 191.817 96.5893 192.823C98.9092 193.604 101.449 192.48 102.609 190.324L103.193 189.246C104.096 187.588 106.267 187.078 107.771 188.191C107.782 188.199 107.791 188.206 107.803 188.215C108.554 188.768 109.285 189.329 110.01 189.915ZM55.0429 219.165L66.3593 238.582L72.0859 216.892C66.3167 215.845 60.3314 216.635 55.0429 219.165ZM92.2259 232.264L72.798 243.514L94.5283 249.306C95.5716 243.529 94.7626 237.548 92.2259 232.264ZM70.5989 239.726L90.0094 228.471C88.3061 226.022 86.2043 223.808 83.6705 221.933C81.3648 220.226 78.8961 218.915 76.3349 218.035L70.5989 239.726ZM92.194 209.768C90.2319 208.315 87.4473 208.721 85.9898 210.69C84.5301 212.662 84.9549 215.444 86.917 216.896C88.8908 218.357 91.6783 217.953 93.138 215.981C94.5955 214.013 94.1678 211.229 92.194 209.768ZM104.984 242.824C107.418 242.476 109.095 240.21 108.715 237.784C108.352 235.355 106.092 233.682 103.669 234.05C101.251 234.404 99.5736 236.669 99.9384 239.09C100.298 241.508 102.557 243.181 104.984 242.824ZM100.597 269.216C102.059 267.241 101.642 264.473 99.6694 263.012C97.6975 261.553 94.9273 261.962 93.4655 263.936C92.0123 265.899 92.4235 268.677 94.3953 270.137C96.3682 271.597 99.1439 271.179 100.597 269.216ZM89.5235 260.865C91.2296 258.561 92.5206 256.106 93.3993 253.539L71.6791 247.756L82.9822 267.19C85.441 265.5 87.6587 263.385 89.5235 260.865ZM42.0321 256.287L61.4253 245.026L39.7204 239.253C38.6697 245.015 39.4817 250.992 42.0321 256.287ZM47.3513 276.56C48.8073 274.593 48.374 271.813 46.408 270.358C44.4401 268.901 41.6542 269.298 40.1981 271.265C38.7407 273.234 39.1704 276.02 41.1383 277.476C43.1043 278.932 45.8938 278.529 47.3513 276.56ZM50.5894 266.619C52.8795 268.314 55.3607 269.61 57.9067 270.511L63.6371 248.823L44.2315 260.07C45.9309 262.528 48.0605 264.747 50.5894 266.619ZM79.2038 269.381L67.8964 249.93L62.1584 271.649C67.9428 272.71 73.9114 271.913 79.2038 269.381ZM72.6109 285.663C75.0332 285.292 76.6979 283.043 76.3412 280.624C75.9715 278.194 73.7167 276.525 71.2921 276.887C68.8634 277.244 67.1986 279.493 67.5618 281.926C67.9266 284.347 70.1814 286.016 72.6109 285.663ZM28.3467 244.424C25.9153 244.787 24.2491 247.038 24.6099 249.472C24.9779 251.903 27.2288 253.569 29.6658 253.215C32.0944 252.845 33.7607 250.594 33.4026 248.167C33.0225 245.742 30.7706 244.075 28.3467 244.424ZM32.7206 218.036C31.2646 220.003 31.6888 222.775 33.6646 224.238C35.6335 225.695 38.4069 225.29 39.863 223.323C41.3226 221.351 40.9098 218.567 38.9408 217.11C36.9641 215.647 34.1796 216.065 32.7206 218.036ZM44.7241 227.703C43.0412 229.977 41.7235 232.438 40.8413 235.006L62.5599 240.795L51.2623 221.352C48.795 223.049 46.6012 225.167 44.7241 227.703ZM60.7156 201.588C58.2956 201.946 56.6207 204.209 56.9867 206.626C57.3603 209.059 59.62 210.731 62.0368 210.364C64.467 210.017 66.1419 207.754 65.7657 205.326C65.4145 202.904 63.1548 201.231 60.7156 201.588Z" fill="white"/>
<path d="M-19.7604 188.746L-14.8586 185.33L-11.5456 188.156L-14.1535 193.532C-13.3405 194.428 -12.5819 195.385 -11.8786 196.398L-5.98122 195.048L-3.97655 198.91L-8.4835 202.935C-8.01672 204.213 -7.64806 205.504 -7.37118 206.805L-1.48044 207.861L-1.13409 212.195L-6.7857 214.146C-6.84676 215.365 -6.98656 216.575 -7.20271 217.77L-2.1325 220.967L-3.44427 225.108L-9.42394 224.786C-9.98862 225.997 -10.6388 227.172 -11.3697 228.297L-7.9405 233.207L-10.7622 236.509L-16.1467 233.89C-17.0433 234.698 -17.9987 235.457 -19.0114 236.157L-17.6472 242.054L-21.5061 244.048L-25.546 239.533C-26.8224 239.996 -28.115 240.362 -29.4152 240.637L-30.4563 246.521L-34.7945 246.857L-36.7595 241.201C-37.9805 241.137 -39.1915 240.994 -40.3873 240.777L-43.5763 245.837L-47.7239 244.515L-47.4157 238.54C-48.6288 237.974 -49.806 237.322 -50.9347 236.587L-55.8384 240.001L-59.1498 237.176L-56.5426 231.801C-57.3534 230.902 -58.1142 229.948 -58.8168 228.933L-64.7131 230.284L-66.7195 226.422L-62.2094 222.395C-62.6759 221.119 -63.0473 219.827 -63.3242 218.527L-69.2147 217.472L-69.5627 213.139L-63.9094 211.187C-63.8483 209.968 -63.7085 208.758 -63.4941 207.563L-68.5643 204.366L-67.2511 200.223L-61.2704 200.546C-60.7075 199.335 -60.0573 198.16 -59.3257 197.034L-62.7556 192.125L-59.9349 188.822L-54.5496 191.44C-53.653 190.632 -52.6993 189.874 -51.6883 189.174L-53.0509 183.277L-49.1902 181.282L-45.151 185.799C-43.8756 185.335 -42.583 184.968 -41.2816 184.697L-40.2397 178.812L-35.9033 178.475L-33.9376 184.13C-32.7176 184.194 -31.5056 184.338 -30.3112 184.556L-27.1222 179.497L-22.9763 180.818L-23.2845 186.793C-22.067 187.36 -20.8908 188.011 -19.7604 188.746ZM-35.4325 203.024C-33.6538 202.992 -31.4335 203.783 -30.3783 204.405L-23.0324 194.481C-28.0197 190.981 -32.4157 190.241 -37.344 190.644L-35.4325 203.024ZM-38.4587 209.922C-39.806 211.742 -39.4171 214.324 -37.5911 215.676C-35.7661 217.027 -33.1836 216.644 -31.8364 214.824C-30.4876 213.002 -30.8763 210.421 -32.7013 209.07C-34.5272 207.718 -37.11 208.1 -38.4587 209.922ZM-21.0909 195.953L-28.4659 205.916C-27.6506 206.862 -26.3228 208.884 -25.9742 210.666L-13.6063 208.867C-14.4991 203.959 -17.3639 199.107 -21.0909 195.953ZM-13.7818 211.221L-26.3771 213.288C-26.4078 214.75 -26.4077 215.702 -27.6946 217.781L-17.439 225.373C-14.1012 220.266 -13.3612 215.894 -13.7818 211.221ZM-18.1226 226.382L-28.3783 218.79C-29.9492 220.659 -31.0248 220.961 -32.6968 221.434L-30.8148 234.364C-25.9099 233.309 -21.1009 230.24 -18.1226 226.382ZM-32.5462 234.527L-34.4458 221.707C-36.131 221.811 -38.2398 221.167 -39.3718 220.649L-47.17 231.184C-43.0617 233.823 -37.5379 235.14 -32.5462 234.527ZM-49.1433 229.755L-41.3763 219.262C-42.2843 218.441 -43.5417 216.768 -44.0597 215.199L-57.0197 217.069C-55.9837 221.945 -53.9465 226.007 -49.1433 229.755ZM-57.2898 215.37L-44.5327 213.547C-44.7438 211.556 -44.5697 209.834 -43.2612 207.771L-53.4943 200.196C-56.3098 204.176 -57.9189 210.129 -57.2898 215.37ZM-52.7282 199.249L-42.4951 206.825C-40.8537 205.008 -39.3225 204.199 -37.6391 203.802L-39.665 191.7C-44.5444 192.546 -48.8039 194.576 -52.7282 199.249Z" fill="white"/>
</g>
</svg>
