<svg width="1823" height="533" viewBox="0 0 1823 533" fill="none" xmlns="http://www.w3.org/2000/svg">
<mask id="mask0_193_706" style="mask-type:alpha" maskUnits="userSpaceOnUse" x="0" y="0" width="1823" height="533">
<rect width="1823" height="533" fill="#0E100E"/>
</mask>
<g mask="url(#mask0_193_706)">
<rect y="0.113525" width="1823" height="673.792" fill="#0E100E"/>
<g filter="url(#filter0_f_193_706)">
<ellipse cx="867.5" cy="399.381" rx="508.5" ry="382.248" fill="#A47B1B"/>
</g>
<g filter="url(#filter1_f_193_706)">
<ellipse cx="1463.5" cy="674.293" rx="677.5" ry="509.406" fill="#C2650F"/>
</g>
<rect opacity="0.7" y="0.114258" width="1823" height="580.189" fill="url(#paint0_radial_193_706)"/>
<rect y="0.113525" width="1823" height="580.189" fill="url(#paint1_linear_193_706)"/>
<g opacity="0.05">
<mask id="mask1_193_706" style="mask-type:alpha" maskUnits="userSpaceOnUse" x="1227" y="-143" width="842" height="833">
<rect width="624.396" height="594.209" transform="matrix(-0.856826 -0.515605 -0.515605 0.856826 2068.77 179.941)" fill="#8D8D8D"/>
</mask>
<g mask="url(#mask1_193_706)">
<path d="M1429.85 177.215C1425.45 183.163 1417.01 184.411 1411.05 179.998C1405.09 175.582 1403.82 167.15 1408.22 161.203C1412.62 155.253 1421.06 154.004 1427.02 158.42C1432.99 162.833 1434.26 171.265 1429.85 177.215ZM1414.24 165.661C1412.29 168.295 1412.86 172.034 1415.5 173.99C1418.14 175.947 1421.88 175.39 1423.83 172.756C1425.78 170.119 1425.22 166.384 1422.58 164.428C1419.93 162.473 1416.19 163.024 1414.24 165.661Z" fill="#8D8D8D"/>
<path d="M1441.3 135.02L1448.4 130.075L1453.19 134.166L1449.42 141.946C1450.6 143.244 1451.7 144.626 1452.71 146.094L1461.25 144.142L1464.15 149.732L1457.63 155.556C1458.3 157.405 1458.83 159.274 1459.24 161.156L1467.76 162.685L1468.26 168.954L1460.08 171.779C1459.99 173.545 1459.79 175.296 1459.48 177.024L1466.82 181.652L1464.92 187.647L1456.26 187.179C1455.45 188.932 1454.51 190.632 1453.45 192.262L1458.41 199.368L1454.33 204.146L1446.54 200.357C1445.24 201.527 1443.86 202.624 1442.39 203.638L1444.37 212.169L1438.78 215.057L1432.93 208.52C1431.09 209.19 1429.22 209.722 1427.33 210.118L1425.83 218.634L1419.55 219.12L1416.71 210.935C1414.94 210.842 1413.19 210.637 1411.45 210.321L1406.84 217.642L1400.84 215.728L1401.29 207.079C1399.53 206.259 1397.83 205.317 1396.19 204.253L1389.1 209.195L1384.3 205.105L1388.07 197.329C1386.9 196.029 1385.8 194.645 1384.78 193.178L1376.25 195.131L1373.35 189.544L1379.87 183.718C1379.2 181.87 1378.66 180.001 1378.26 178.119L1369.74 176.59L1369.23 170.318L1377.42 167.495C1377.5 165.731 1377.71 163.98 1378.02 162.248L1370.68 157.622L1372.58 151.628L1381.23 152.097C1382.05 150.344 1382.99 148.645 1384.05 147.013L1379.09 139.908L1383.17 135.13L1390.96 138.918C1392.26 137.748 1393.64 136.651 1395.1 135.638L1393.13 127.106L1398.72 124.218L1404.56 130.753C1406.41 130.082 1408.28 129.551 1410.17 129.156L1411.67 120.642L1417.95 120.154L1420.79 128.337C1422.56 128.43 1424.31 128.635 1426.04 128.954L1430.66 121.631L1436.66 123.543L1436.21 132.191C1437.97 133.012 1439.67 133.956 1441.3 135.02ZM1393.14 150.679C1382.7 164.787 1385.7 184.71 1399.84 195.178C1413.98 205.648 1433.91 202.7 1444.36 188.593C1454.8 174.486 1451.8 154.561 1437.66 144.092C1423.51 133.624 1403.58 136.573 1393.14 150.679Z" fill="#8D8D8D"/>
<path d="M1755.94 368.64C1742.84 386.343 1717.73 390.059 1699.99 376.92C1682.24 363.781 1678.46 338.684 1691.56 320.98C1704.67 303.274 1729.78 299.557 1747.53 312.696C1765.28 325.835 1769.05 350.933 1755.94 368.64ZM1709.49 334.25C1703.68 342.091 1705.36 353.218 1713.22 359.039C1721.09 364.86 1732.21 363.21 1738.02 355.368C1743.82 347.52 1742.15 336.401 1734.29 330.58C1726.43 324.759 1715.3 326.403 1709.49 334.25Z" fill="#8D8D8D"/>
<path d="M1790.03 243.041L1811.15 228.324L1825.42 240.498L1814.19 263.656C1817.69 267.517 1820.96 271.635 1823.99 276.001L1849.39 270.188L1858.03 286.824L1838.61 304.162C1840.62 309.661 1842.21 315.23 1843.4 320.829L1868.78 325.379L1870.27 344.043L1845.92 352.449C1845.65 357.7 1845.05 362.913 1844.12 368.061L1865.96 381.834L1860.31 399.672L1834.55 398.283C1832.12 403.5 1829.32 408.559 1826.17 413.409L1840.94 434.558L1828.79 448.779L1805.59 437.506C1801.73 440.986 1797.62 444.249 1793.26 447.269L1799.13 472.661L1782.51 481.257L1765.11 461.804C1759.61 463.799 1754.04 465.381 1748.44 466.558L1743.96 491.902L1725.27 493.351L1716.81 468.995C1711.55 468.715 1706.33 468.104 1701.18 467.168L1687.45 488.96L1669.58 483.269L1670.91 457.526C1665.68 455.091 1660.61 452.28 1655.75 449.117L1634.63 463.826L1620.36 451.652L1631.59 428.504C1628.1 424.633 1624.82 420.517 1621.79 416.152L1596.39 421.968L1587.75 405.331L1607.18 387.987C1605.17 382.493 1603.57 376.925 1602.38 371.324L1577.01 366.775L1575.51 348.109L1599.87 339.706C1600.13 334.454 1600.73 329.242 1601.65 324.093L1579.82 310.32L1585.47 292.483L1611.23 293.873C1613.66 288.656 1616.46 283.596 1619.61 278.744L1604.84 257.597L1616.99 243.373L1640.19 254.648C1644.05 251.167 1648.16 247.903 1652.52 244.883L1646.64 219.487L1663.28 210.897L1680.67 230.347C1686.17 228.349 1691.74 226.774 1697.34 225.596L1701.83 200.249L1720.51 198.801L1728.98 223.157C1734.23 223.432 1739.45 224.046 1744.6 224.99L1758.33 203.196L1776.2 208.887L1774.87 234.628C1780.1 237.068 1785.16 239.874 1790.03 243.041ZM1646.67 289.657C1615.59 331.645 1624.52 390.945 1666.61 422.105C1708.71 453.265 1768.03 444.487 1799.11 402.499C1830.19 360.51 1821.27 301.206 1779.17 270.046C1737.08 238.886 1677.75 247.668 1646.67 289.657Z" fill="#8D8D8D"/>
<path d="M1837.02 49.6437L1849.53 40.9227L1857.98 48.1393L1851.33 61.8567C1853.4 64.1494 1855.34 66.5844 1857.13 69.1772L1872.19 65.7275L1877.3 75.589L1865.8 85.864C1866.99 89.1241 1867.93 92.4174 1868.63 95.7388L1883.67 98.4318L1884.55 109.495L1870.13 114.474C1869.97 117.583 1869.61 120.67 1869.07 123.72L1882 131.884L1878.65 142.459L1863.39 141.63C1861.95 144.722 1860.3 147.72 1858.43 150.59L1867.18 163.124L1859.98 171.554L1846.23 164.872C1843.95 166.934 1841.51 168.863 1838.93 170.652L1842.41 185.699L1832.56 190.793L1822.24 179.266C1818.99 180.452 1815.69 181.388 1812.37 182.084L1809.72 197.102L1798.64 197.96L1793.63 183.527C1790.51 183.357 1787.42 182.999 1784.37 182.445L1776.23 195.359L1765.65 191.988L1766.43 176.732C1763.34 175.283 1760.33 173.625 1757.45 171.751L1744.94 180.466L1736.48 173.25L1743.14 159.533C1741.06 157.246 1739.12 154.804 1737.33 152.211L1722.28 155.66L1717.16 145.803L1728.67 135.528C1727.47 132.272 1726.53 128.973 1725.83 125.648L1710.79 122.957L1709.91 111.898L1724.33 106.918C1724.49 103.804 1724.85 100.715 1725.4 97.6643L1712.46 89.5012L1715.81 78.938L1731.08 79.7592C1732.51 76.6651 1734.17 73.67 1736.04 70.7956L1727.28 58.2659L1734.48 49.8373L1748.23 56.5178C1750.52 54.4529 1752.96 52.5207 1755.54 50.7336L1752.05 35.684L1761.91 30.5933L1772.22 42.1165C1775.48 40.9325 1778.78 39.9964 1782.1 39.3035L1784.75 24.2822L1795.82 23.429L1800.84 37.8597C1803.95 38.0259 1807.05 38.3821 1810.1 38.9478L1818.23 26.0336L1828.82 29.3991L1828.03 44.6567C1831.13 46.1033 1834.13 47.7659 1837.02 49.6437ZM1775.76 94.7952C1767 106.629 1769.51 123.343 1781.37 132.125C1793.23 140.904 1809.95 138.428 1818.71 126.594C1827.47 114.765 1824.96 98.0492 1813.1 89.27C1801.23 80.4891 1784.51 82.9676 1775.76 94.7952Z" fill="#8D8D8D"/>
<path d="M1892.14 -73.5915L1900.49 -79.4169L1906.14 -74.5996L1901.69 -65.4384C1903.08 -63.9094 1904.37 -62.2827 1905.58 -60.5545L1915.62 -62.854L1919.04 -56.2682L1911.36 -49.4102C1912.16 -47.2316 1912.78 -45.0274 1913.25 -42.8142L1923.29 -41.0121L1923.89 -33.6288L1914.25 -30.3033C1914.15 -28.2236 1913.91 -26.161 1913.54 -24.1221L1922.18 -18.6707L1919.95 -11.6087L1909.75 -12.1634C1908.79 -10.0987 1907.69 -8.09491 1906.44 -6.17776L1912.28 2.19069L1907.47 7.81871L1898.3 3.3569C1896.77 4.73344 1895.14 6.02492 1893.41 7.21989L1895.74 17.2659L1889.16 20.6674L1882.27 12.9703C1880.1 13.7644 1877.89 14.3835 1875.68 14.85L1873.91 24.8814L1866.51 25.4553L1863.16 15.8165C1861.08 15.7023 1859.02 15.4656 1856.98 15.091L1851.54 23.7148L1844.48 21.4604L1845 11.2745C1842.93 10.3146 1840.92 9.20081 1839 7.94623L1830.64 13.7669L1824.99 8.95056L1829.44 -0.209726C1828.06 -1.7406 1826.76 -3.36726 1825.57 -5.09684L1815.51 -2.79698L1812.09 -9.37994L1819.78 -16.2418C1818.98 -18.4149 1818.35 -20.6217 1817.88 -22.8339L1807.84 -24.635L1807.24 -32.0235L1816.89 -35.3486C1816.99 -37.4257 1817.23 -39.4855 1817.59 -41.5311L1808.95 -46.9764L1811.19 -54.0384L1821.39 -53.4832C1822.34 -55.5535 1823.45 -57.5513 1824.7 -59.4706L1818.86 -67.8404L1823.66 -73.4722L1832.84 -69.0047C1834.37 -70.3844 1836 -71.6705 1837.72 -72.8724L1835.4 -82.9194L1841.98 -86.3181L1848.86 -78.6216C1851.04 -79.416 1853.24 -80.038 1855.46 -80.5003L1857.24 -90.5343L1864.63 -91.1003L1867.98 -81.4643C1870.06 -81.3569 1872.12 -81.1163 1874.16 -80.7389L1879.59 -89.3684L1886.66 -87.115L1886.14 -76.929C1888.21 -75.9598 1890.21 -74.8486 1892.14 -73.5915ZM1829.28 -59.6844C1814.48 -39.6943 1818.73 -11.4606 1838.77 3.37635C1858.81 18.2114 1887.06 14.0343 1901.86 -5.95575C1916.66 -25.9484 1912.4 -54.184 1892.36 -69.019C1872.32 -83.8559 1844.08 -79.6783 1829.28 -59.6844Z" fill="#8D8D8D"/>
<path d="M1830.92 -58.4706C1816.82 -39.4165 1820.88 -12.4104 1839.99 1.73271C1859.09 15.8729 1886.11 11.8789 1900.21 -7.1753C1914.32 -26.232 1910.25 -53.2423 1891.15 -67.3825C1872.04 -81.5256 1845.03 -77.5287 1830.92 -58.4706ZM1896.23 -10.1256C1883.75 6.73737 1859.84 10.2754 1842.93 -2.23995C1826.02 -14.7562 1822.42 -38.6596 1834.9 -55.5213C1847.39 -72.3868 1871.3 -75.9261 1888.21 -63.4098C1905.12 -50.8945 1908.71 -26.9924 1896.23 -10.1256Z" fill="#8D8D8D"/>
<path d="M1561.64 406.103L1570.33 400.049L1576.19 405.056L1571.57 414.579C1573.01 416.168 1574.36 417.859 1575.61 419.655L1586.05 417.264L1589.6 424.111L1581.62 431.239C1582.45 433.504 1583.1 435.795 1583.59 438.095L1594.02 439.969L1594.64 447.642L1584.62 451.099C1584.52 453.26 1584.27 455.405 1583.88 457.524L1592.87 463.189L1590.54 470.53L1579.95 469.953C1578.94 472.1 1577.8 474.182 1576.5 476.175L1582.57 484.875L1577.58 490.724L1568.04 486.088C1566.45 487.518 1564.76 488.859 1562.96 490.103L1565.38 500.545L1558.54 504.081L1551.38 496.08C1549.12 496.906 1546.83 497.55 1544.53 498.034L1542.69 508.46L1535 509.059L1531.52 499.04C1529.36 498.921 1527.21 498.674 1525.09 498.285L1519.44 507.25L1512.1 504.908L1512.64 494.321C1510.49 493.323 1508.41 492.165 1506.41 490.861L1497.72 496.907L1491.85 491.902L1496.47 482.379C1495.03 480.788 1493.69 479.097 1492.44 477.3L1481.99 479.692L1478.44 472.849L1486.43 465.717C1485.6 463.458 1484.95 461.164 1484.46 458.863L1474.02 456.991L1473.4 449.313L1483.42 445.858C1483.53 443.699 1483.78 441.558 1484.16 439.432L1475.18 433.77L1477.5 426.431L1488.1 427.008C1489.09 424.856 1490.25 422.778 1491.54 420.783L1485.47 412.084L1490.46 406.231L1500.01 410.874C1501.59 409.439 1503.29 408.103 1505.08 406.854L1502.66 396.412L1509.5 392.879L1516.66 400.878C1518.92 400.054 1521.21 399.407 1523.52 398.924L1525.36 388.494L1533.04 387.906L1536.53 397.922C1538.69 398.035 1540.84 398.285 1542.95 398.677L1548.6 389.707L1555.95 392.05L1555.4 402.638C1557.56 403.64 1559.63 404.797 1561.64 406.103ZM1496.3 420.557C1480.92 441.336 1485.34 470.682 1506.17 486.103C1527 501.523 1556.36 497.181 1571.74 476.403C1587.13 455.622 1582.7 426.274 1561.87 410.855C1541.04 395.434 1511.68 399.776 1496.3 420.557Z" fill="#8D8D8D"/>
<path d="M1498.01 421.825C1483.35 441.631 1487.58 469.701 1507.43 484.401C1527.29 499.098 1555.37 494.947 1570.03 475.142C1584.7 455.334 1580.47 427.26 1560.61 412.562C1540.75 397.863 1512.67 402.018 1498.01 421.825ZM1565.89 472.076C1552.92 489.602 1528.07 493.281 1510.49 480.273C1492.92 467.263 1489.18 442.418 1502.15 424.892C1515.13 407.361 1539.98 403.682 1557.56 416.692C1575.13 429.702 1578.87 454.546 1565.89 472.076Z" fill="#8D8D8D"/>
<path d="M1653.56 24.0693L1651.71 25.9362C1648.78 28.8958 1648.23 33.5881 1650.67 36.973C1653.81 41.3459 1660 41.6955 1663.62 38.0447L1665.26 36.3801C1667.53 34.0843 1671.32 34.3335 1673.28 36.908C1674.24 38.1769 1675.18 39.4628 1676.09 40.7646C1677.89 43.3523 1677.06 46.93 1674.3 48.451L1671.98 49.735C1668.34 51.748 1666.48 56.0917 1667.86 60.0263C1669.64 65.0977 1675.49 67.1797 1679.99 64.6941L1682.03 63.5694C1684.86 62.0074 1688.43 63.312 1689.58 66.3426C1690.15 67.8271 1690.68 69.3256 1691.18 70.8261C1692.18 73.8152 1690.37 77.0061 1687.3 77.6879L1684.49 78.3115C1679.94 79.3199 1677.05 83.8693 1678.07 88.4217C1675.42 92.0089 1678.65 96.9766 1683.02 96.0077L1690.47 94.3576C1693.62 93.6552 1696.68 95.9115 1696.93 99.1309C1697.06 100.712 1697.15 102.295 1697.21 103.877C1697.33 107.027 1694.69 109.586 1691.55 109.373L1688.69 109.179C1684.03 108.866 1679.98 112.417 1679.67 117.066C1679.37 121.717 1682.93 125.779 1687.59 126.093L1689.92 126.249C1693.15 126.466 1695.45 129.487 1694.79 132.645C1694.46 134.194 1694.11 135.741 1693.71 137.283C1692.94 140.335 1689.69 142.048 1686.73 140.956L1684.01 139.955C1679.63 138.345 1674.73 140.608 1673.14 144.979L1673.14 144.98C1671.54 149.355 1673.81 154.251 1678.19 155.861L1680.38 156.666C1683.41 157.78 1684.78 161.329 1683.24 164.171C1682.5 165.562 1681.72 166.939 1680.9 168.309C1679.3 171.016 1675.7 171.74 1673.16 169.863L1670.85 168.149C1667.09 165.37 1661.76 166.16 1658.99 169.903C1656.22 173.647 1657.02 178.982 1660.77 181.76L1662.64 183.145C1665.25 185.07 1665.55 188.851 1663.28 191.147C1662.17 192.278 1661.03 193.386 1659.88 194.462C1657.58 196.613 1653.91 196.292 1652.01 193.779L1650.4 191.669C1647.89 188.347 1643.31 187.118 1639.62 189.038C1634.85 191.508 1633.64 197.585 1636.75 201.691L1638.16 203.562C1640.12 206.142 1639.34 209.856 1636.51 211.419C1635.12 212.185 1633.72 212.921 1632.3 213.633C1629.48 215.037 1626.06 213.696 1624.94 210.755L1623.91 208.046C1622.25 203.685 1617.33 201.463 1612.97 203.114C1608.61 204.762 1606.4 209.675 1608.06 214.036L1608.88 216.201C1610.03 219.226 1608.24 222.57 1605.08 223.269C1603.54 223.611 1601.98 223.922 1600.42 224.204C1597.32 224.761 1594.41 222.514 1594.17 219.375L1593.94 216.515C1593.58 211.867 1589.48 208.355 1584.83 208.703C1580.18 209.056 1576.67 213.147 1577.03 217.798L1577.21 220.114C1577.46 223.336 1574.81 226.035 1571.58 225.822C1570 225.717 1568.42 225.579 1566.84 225.412C1563.7 225.077 1561.54 222.102 1562.18 219.016L1562.78 216.199C1563.74 211.64 1560.79 207.117 1556.23 206.144C1551.67 205.173 1547.14 208.108 1546.18 212.665L1545.7 214.954C1545.03 218.112 1541.72 219.956 1538.68 218.838C1537.19 218.291 1535.71 217.714 1534.24 217.102C1531.32 215.896 1530.08 212.432 1531.58 209.663L1532.95 207.123C1535.15 203.021 1533.6 197.853 1529.49 195.633C1525.38 193.418 1520.22 194.959 1518.01 199.057L1516.9 201.102C1515.38 203.93 1511.69 204.785 1509.1 202.869C1509.09 202.858 1509.07 202.844 1509.05 202.832C1507.77 201.879 1506.51 200.908 1505.27 199.912C1502.83 197.942 1502.64 194.283 1504.84 192.054L1506.86 190.018C1510.14 186.707 1510.1 181.314 1506.78 178.033C1503.46 174.751 1498.07 174.774 1494.79 178.083L1493.14 179.745C1490.87 182.04 1487.08 181.791 1485.13 179.218C1484.16 177.95 1483.22 176.663 1482.32 175.366C1480.51 172.777 1481.34 169.199 1484.1 167.676L1486.64 166.276C1490.72 164.025 1492.2 158.845 1489.94 154.764C1487.68 150.681 1482.49 149.183 1478.41 151.435L1476.37 152.56C1473.54 154.121 1469.97 152.815 1468.82 149.788C1468.26 148.302 1467.72 146.807 1467.22 145.304C1466.23 142.318 1468.03 139.125 1471.11 138.444L1473.92 137.821C1478.46 136.81 1481.35 132.26 1480.33 127.71C1482.99 124.123 1479.75 119.153 1475.39 120.12L1467.94 121.771C1464.79 122.472 1461.72 120.219 1461.47 116.998C1461.35 115.421 1461.26 113.837 1461.19 112.253C1461.07 109.107 1463.71 106.548 1466.86 106.758L1469.48 106.934C1473.64 107.214 1477.55 104.569 1478.51 100.517C1479.76 95.2916 1475.95 90.3837 1470.82 90.0407L1468.48 89.8821C1465.26 89.6681 1462.95 86.6473 1463.62 83.4855C1463.94 81.9369 1464.3 80.3913 1464.69 78.849C1465.46 75.7978 1468.72 74.0829 1471.68 75.1752L1474.2 76.1032C1478.07 77.5232 1482.5 76.125 1484.59 72.588C1487.35 67.909 1485.09 62.0611 1480.22 60.2699L1478.03 59.4632C1474.99 58.348 1473.63 54.7981 1475.16 51.9565C1475.92 50.5679 1476.7 49.1894 1477.51 47.8219C1479.11 45.1151 1482.71 44.3913 1485.25 46.269L1487.56 47.9813C1491.31 50.7594 1496.65 49.9663 1499.42 46.2249C1502.19 42.481 1501.39 37.1478 1497.64 34.3697L1495.77 32.9854C1493.17 31.0611 1492.86 27.278 1495.13 24.9793C1496.24 23.8499 1497.38 22.7437 1498.53 21.6687C1500.83 19.5145 1504.5 19.8354 1506.41 22.3508L1508 24.4595C1510.53 27.7812 1515.09 29.0105 1518.79 27.0934C1523.56 24.6198 1524.77 18.5415 1521.66 14.4384L1520.25 12.5671C1518.29 9.98489 1519.07 6.26917 1521.9 4.71191C1523.29 3.94446 1524.69 3.20696 1526.11 2.49623C1528.93 1.09182 1532.35 2.43316 1533.47 5.37699L1534.41 7.85502C1535.89 11.7544 1539.94 14.214 1544.03 13.4172C1549.31 12.3882 1552.18 6.90373 1550.35 2.09276L1549.53 -0.0715167C1548.38 -3.09634 1550.17 -6.44255 1553.33 -7.13989C1554.87 -7.48261 1556.43 -7.79506 1557.99 -8.07329C1561.09 -8.63317 1564 -6.3864 1564.24 -3.24244L1564.45 -0.62941C1564.78 3.52495 1567.96 7.02374 1572.11 7.40968C1577.47 7.90888 1581.78 3.45829 1581.38 -1.66652L1581.2 -3.98507C1580.95 -7.20474 1583.61 -9.90603 1586.83 -9.69005C1588.41 -9.58587 1589.99 -9.45033 1591.57 -9.28158C1594.71 -8.94491 1596.87 -5.96924 1596.23 -2.8852L1595.63 -0.0686989C1594.67 4.491 1597.62 9.01465 1602.18 9.98861C1605.69 12.5851 1610.7 10.6911 1611.6 6.42677L1612.71 1.17647C1613.38 -1.98248 1616.7 -3.82372 1619.73 -2.70721C1621.22 -2.15915 1622.7 -1.5807 1624.17 -0.972144C1627.09 0.238465 1628.32 3.69837 1626.83 6.47065L1625.46 9.01142C1623.03 13.5369 1625.17 19.3555 1630.27 21.0852C1634.22 22.4232 1638.54 20.5216 1640.52 16.8591L1641.5 15.0293C1643.03 12.1993 1646.72 11.3468 1649.31 13.2625C1649.32 13.2739 1649.34 13.2863 1649.36 13.3006C1650.64 14.2513 1651.9 15.2226 1653.13 16.2178C1655.58 18.1846 1655.77 21.8423 1653.56 24.0693ZM1647.28 151.625C1657.38 135.871 1661.33 117.734 1659.58 100.2L1632.4 104.224C1633.18 114.793 1630.85 125.631 1625.15 135.244L1647.28 151.626L1647.28 151.625ZM1640.75 160.454L1618.62 144.071C1611.09 152.33 1601.4 157.723 1591.07 160.064L1595.16 187.233C1612.43 183.785 1628.63 174.707 1640.75 160.454ZM1584.25 188.65L1580.14 161.389C1569.85 161.569 1559.43 158.794 1550.23 152.858L1533.92 174.895C1549.25 185.271 1566.97 189.717 1584.25 188.65ZM1499.85 123.84C1503.21 140.491 1511.81 156.147 1525.23 168.13L1541.63 145.98C1534.18 138.652 1529.25 129.523 1527.03 119.82L1499.85 123.84ZM1510.94 64.3625C1501.39 79.2643 1497.34 96.2962 1498.41 112.933L1525.68 108.897C1525.48 99.248 1527.88 89.489 1533.07 80.7449L1510.94 64.3625ZM1542.33 80.7674C1527.33 101.033 1531.64 129.642 1551.95 144.679C1572.26 159.712 1600.88 155.481 1615.89 135.215C1630.88 114.955 1626.58 86.3388 1606.27 71.3066C1585.96 56.2696 1557.33 60.5079 1542.33 80.7674ZM1517.47 55.5339L1539.6 71.9162C1546.45 64.3978 1555.09 59.2583 1564.37 56.626L1560.27 29.3624C1544.04 33.1996 1528.94 42.0487 1517.47 55.5339ZM1571.12 27.5568L1575.21 54.7261C1585.14 54.0196 1595.31 56.0649 1604.49 61.0557L1620.89 38.9018C1605.51 29.5694 1588.03 25.9173 1571.12 27.5568ZM1613.59 67.2737C1621.95 74.3404 1627.65 83.4931 1630.48 93.3887L1657.75 89.3551C1653.73 72.5183 1644.3 56.8674 1629.9 45.2367L1613.59 67.2737Z" fill="#8D8D8D"/>
<path d="M1878.91 198.574L1878.39 199.102C1877.56 199.94 1877.41 201.267 1878.09 202.225C1878.98 203.461 1880.74 203.56 1881.76 202.528L1882.22 202.058C1882.87 201.41 1883.94 201.479 1884.49 202.207C1884.76 202.566 1885.03 202.93 1885.29 203.298C1885.8 204.031 1885.56 205.044 1884.78 205.473L1884.12 205.837C1883.09 206.406 1882.57 207.635 1882.96 208.748C1883.46 210.184 1885.12 210.772 1886.39 210.069L1886.97 209.751C1887.77 209.308 1888.78 209.679 1889.11 210.535C1889.26 210.956 1889.41 211.38 1889.56 211.806C1889.84 212.651 1889.33 213.554 1888.46 213.746L1887.66 213.922C1886.38 214.208 1885.56 215.495 1885.85 216.783C1885.1 217.797 1886.01 219.203 1887.25 218.93L1889.35 218.462C1890.25 218.264 1891.11 218.902 1891.18 219.812C1891.22 220.259 1891.25 220.707 1891.26 221.157C1891.3 222.048 1890.55 222.772 1889.66 222.712L1888.85 222.656C1887.54 222.566 1886.39 223.573 1886.3 224.887C1886.22 226.203 1887.22 227.352 1888.54 227.441L1889.2 227.485C1890.11 227.546 1890.77 228.401 1890.58 229.294C1890.49 229.733 1890.39 230.17 1890.28 230.607C1890.06 231.469 1889.14 231.954 1888.3 231.645L1887.53 231.364C1886.29 230.908 1884.91 231.549 1884.45 232.784L1884.45 232.785C1884 234.022 1884.64 235.408 1885.88 235.863L1886.5 236.091C1887.36 236.405 1887.75 237.41 1887.31 238.214C1887.1 238.607 1886.88 238.997 1886.65 239.385C1886.2 240.15 1885.18 240.356 1884.46 239.825L1883.8 239.34C1882.74 238.554 1881.23 238.776 1880.45 239.836C1879.67 240.896 1879.89 242.406 1880.95 243.191L1881.48 243.583C1882.22 244.128 1882.31 245.198 1881.66 245.847C1881.35 246.167 1881.03 246.48 1880.7 246.785C1880.05 247.392 1879.01 247.3 1878.47 246.591L1878.02 245.993C1877.31 245.054 1876.01 244.706 1874.97 245.249C1873.62 245.948 1873.27 247.668 1874.15 248.829L1874.55 249.357C1875.11 250.087 1874.89 251.139 1874.09 251.58C1873.69 251.796 1873.3 252.005 1872.89 252.206C1872.1 252.604 1871.13 252.224 1870.81 251.391L1870.52 250.624C1870.05 249.391 1868.66 248.761 1867.43 249.229C1866.19 249.695 1865.57 251.085 1866.03 252.319L1866.27 252.933C1866.59 253.788 1866.09 254.735 1865.19 254.931C1864.76 255.028 1864.32 255.117 1863.88 255.196C1863 255.354 1862.17 254.718 1862.11 253.83L1862.04 253.021C1861.94 251.707 1860.78 250.713 1859.46 250.811C1858.15 250.91 1857.15 252.07 1857.26 253.384L1857.31 254.04C1857.38 254.953 1856.63 255.715 1855.72 255.656C1855.27 255.625 1854.82 255.587 1854.37 255.54C1853.49 255.445 1852.87 254.602 1853.06 253.73L1853.23 252.934C1853.5 251.645 1852.66 250.364 1851.37 250.089C1850.08 249.815 1848.8 250.644 1848.53 251.934L1848.39 252.581C1848.2 253.475 1847.26 253.997 1846.41 253.681C1845.98 253.526 1845.57 253.362 1845.15 253.19C1844.33 252.848 1843.98 251.869 1844.4 251.086L1844.79 250.367C1845.41 249.206 1844.97 247.744 1843.81 247.116C1842.65 246.49 1841.18 246.925 1840.56 248.085L1840.25 248.664C1839.82 249.464 1838.77 249.706 1838.04 249.164C1838.04 249.161 1838.03 249.157 1838.03 249.153C1837.66 248.884 1837.31 248.608 1836.96 248.327C1836.27 247.77 1836.21 246.735 1836.84 246.104L1837.41 245.527C1838.33 244.591 1838.32 243.065 1837.39 242.135C1836.45 241.207 1834.92 241.214 1833.99 242.15L1833.53 242.621C1832.89 243.271 1831.81 243.199 1831.26 242.471C1830.99 242.112 1830.72 241.748 1830.46 241.379C1829.95 240.647 1830.19 239.635 1830.97 239.203L1831.69 238.807C1832.84 238.171 1833.26 236.705 1832.62 235.55C1831.98 234.395 1830.51 233.97 1829.36 234.608L1828.78 234.926C1827.98 235.368 1826.97 234.997 1826.65 234.141C1826.49 233.721 1826.34 233.297 1826.19 232.873C1825.91 232.027 1826.42 231.124 1827.29 230.932L1828.09 230.756C1829.37 230.47 1830.19 229.182 1829.9 227.896C1830.66 226.88 1829.74 225.475 1828.51 225.747L1826.4 226.215C1825.51 226.415 1824.64 225.776 1824.57 224.864C1824.53 224.418 1824.51 223.97 1824.49 223.522C1824.46 222.631 1825.2 221.907 1826.09 221.967L1826.83 222.017C1828.01 222.096 1829.11 221.349 1829.39 220.202C1829.74 218.722 1828.66 217.335 1827.21 217.238L1826.55 217.194C1825.64 217.132 1824.99 216.278 1825.17 215.385C1825.27 214.946 1825.37 214.509 1825.48 214.073C1825.7 213.211 1826.62 212.725 1827.45 213.033L1828.17 213.295C1829.26 213.698 1830.52 213.302 1831.11 212.302C1831.89 210.978 1831.25 209.323 1829.87 208.816L1829.25 208.587C1828.39 208.272 1828.01 207.267 1828.44 206.462C1828.65 206.071 1828.87 205.68 1829.1 205.293C1829.56 204.527 1830.58 204.322 1831.29 204.854L1831.95 205.339C1833.01 206.125 1834.52 205.901 1835.3 204.842C1836.09 203.783 1835.86 202.274 1834.8 201.488L1834.27 201.096C1833.53 200.552 1833.45 199.482 1834.09 198.832C1834.4 198.513 1834.72 198.199 1835.05 197.895C1835.7 197.287 1836.74 197.376 1837.28 198.088L1837.73 198.685C1838.44 199.624 1839.74 199.971 1840.78 199.43C1842.13 198.73 1842.48 197.01 1841.6 195.85L1841.2 195.321C1840.64 194.591 1840.86 193.539 1841.66 193.097C1842.06 192.881 1842.45 192.672 1842.85 192.471C1843.65 192.073 1844.62 192.453 1844.94 193.286L1845.2 193.987C1845.62 195.09 1846.76 195.787 1847.92 195.561C1849.42 195.269 1850.23 193.718 1849.71 192.359L1849.48 191.745C1849.15 190.89 1849.66 189.943 1850.55 189.746C1850.99 189.648 1851.43 189.56 1851.87 189.481C1852.75 189.323 1853.57 189.959 1853.64 190.846L1853.7 191.586C1853.79 192.761 1854.69 193.751 1855.87 193.859C1857.39 193.999 1858.6 192.74 1858.49 191.291L1858.44 190.635C1858.37 189.724 1859.12 188.96 1860.03 189.021C1860.48 189.051 1860.93 189.089 1861.37 189.137C1862.26 189.232 1862.88 190.075 1862.69 190.945L1862.52 191.742C1862.25 193.032 1863.09 194.312 1864.38 194.587C1865.37 195.322 1866.79 194.787 1867.04 193.578L1867.36 192.092C1867.55 191.198 1868.48 190.678 1869.34 190.994C1869.76 191.149 1870.18 191.313 1870.6 191.484C1871.42 191.828 1871.77 192.806 1871.35 193.591L1870.97 194.31C1870.28 195.589 1870.88 197.236 1872.32 197.726C1873.44 198.103 1874.67 197.566 1875.22 196.53L1875.5 196.012C1875.93 195.211 1876.98 194.97 1877.71 195.512C1877.71 195.515 1877.72 195.519 1877.73 195.523C1878.09 195.792 1878.45 196.066 1878.79 196.348C1879.48 196.908 1879.54 197.944 1878.91 198.574ZM1877.14 234.662C1879.99 230.205 1881.11 225.075 1880.62 220.114L1872.93 221.252C1873.15 224.242 1872.49 227.307 1870.88 230.028L1877.14 234.662ZM1875.29 237.16L1869.03 232.525C1866.89 234.862 1864.16 236.387 1861.23 237.05L1862.39 244.736C1867.28 243.76 1871.86 241.194 1875.29 237.16ZM1859.3 245.136L1858.14 237.423C1855.23 237.474 1852.28 236.688 1849.68 235.01L1845.06 241.244C1849.4 244.18 1854.42 245.439 1859.3 245.136ZM1835.42 226.801C1836.37 231.512 1838.81 235.94 1842.6 239.331L1847.24 233.065C1845.13 230.993 1843.74 228.409 1843.11 225.664L1835.42 226.801ZM1838.56 209.973C1835.86 214.188 1834.71 219.007 1835.02 223.715L1842.73 222.572C1842.68 219.842 1843.35 217.081 1844.82 214.607L1838.56 209.973ZM1852.8 218.581C1850.74 221.363 1851.33 225.288 1854.12 227.352C1856.91 229.415 1860.84 228.834 1862.9 226.053C1864.95 223.273 1864.36 219.345 1861.58 217.282C1858.79 215.218 1854.86 215.801 1852.8 218.581ZM1840.41 207.475L1846.67 212.11C1848.61 209.984 1851.05 208.529 1853.68 207.784L1852.52 200.072C1847.93 201.156 1843.65 203.661 1840.41 207.475ZM1855.59 199.561L1856.74 207.248C1859.55 207.048 1862.43 207.627 1865.03 209.039L1869.67 202.771C1865.32 200.13 1860.37 199.097 1855.59 199.561ZM1867.6 210.798C1869.97 212.798 1871.58 215.386 1872.38 218.186L1880.1 217.045C1878.96 212.282 1876.29 207.853 1872.22 204.563L1867.6 210.798Z" fill="#8D8D8D"/>
<path d="M1539.71 229.578C1541.58 231.091 1541.73 233.917 1540.02 235.639L1538.59 237.079C1536.32 239.372 1535.9 242.98 1537.76 245.593C1540.17 248.946 1544.92 249.196 1547.71 246.378L1548.99 245.084C1550.74 243.324 1553.65 243.492 1555.15 245.471C1555.88 246.448 1556.61 247.452 1557.31 248.44C1558.68 250.432 1558.03 253.192 1555.91 254.371L1554.12 255.359C1551.31 256.926 1549.87 260.285 1550.93 263.302C1552.28 267.209 1556.78 268.793 1560.23 266.869L1561.81 266.005C1564 264.786 1566.73 265.784 1567.61 268.11C1568.03 269.253 1568.45 270.408 1568.82 271.566C1569.6 273.857 1568.19 276.322 1565.82 276.858L1563.67 277.353C1560.16 278.133 1557.93 281.65 1558.7 285.163C1556.66 287.921 1559.13 291.738 1562.48 290.984L1568.21 289.698C1570.64 289.149 1573 290.884 1573.18 293.352C1573.28 294.572 1573.34 295.791 1573.38 297.019C1573.46 299.447 1571.42 301.416 1569 301.27L1566.8 301.123C1563.24 300.901 1560.1 303.65 1559.86 307.22C1559.62 310.829 1562.35 313.934 1565.92 314.154L1567.72 314.275C1570.2 314.436 1571.96 316.756 1571.44 319.196C1571.19 320.391 1570.9 321.567 1570.62 322.756C1570.01 325.12 1567.5 326.449 1565.22 325.629L1563.15 324.856C1559.78 323.63 1556 325.373 1554.76 328.758C1553.52 332.137 1555.26 335.888 1558.62 337.126L1560.29 337.742C1562.63 338.599 1563.66 341.327 1562.48 343.53C1561.9 344.589 1561.3 345.647 1560.66 346.711C1559.42 348.785 1556.66 349.372 1554.71 347.926L1552.95 346.625C1550.06 344.484 1545.96 345.098 1543.81 348.002C1541.67 350.903 1542.27 355.005 1545.16 357.146L1546.58 358.198C1548.57 359.668 1548.8 362.585 1547.07 364.357C1546.2 365.235 1545.32 366.082 1544.42 366.915C1542.67 368.58 1539.84 368.344 1538.37 366.4L1537.15 364.786C1535.23 362.239 1531.7 361.304 1528.87 362.783C1525.19 364.701 1524.24 369.39 1526.62 372.552L1527.7 373.989C1529.21 375.974 1528.59 378.831 1526.42 380.041C1525.34 380.637 1524.26 381.209 1523.17 381.755C1521 382.847 1518.38 381.833 1517.52 379.564L1516.73 377.485C1515.47 374.133 1511.68 372.43 1508.34 373.706C1504.97 374.989 1503.26 378.792 1504.53 382.13L1505.14 383.805C1506.03 386.139 1504.64 388.716 1502.22 389.272C1501.03 389.528 1499.83 389.779 1498.62 389.998C1496.25 390.437 1494.01 388.715 1493.83 386.277L1493.67 384.082C1493.39 380.502 1490.26 377.809 1486.68 378.086C1483.11 378.381 1480.39 381.537 1480.66 385.114L1480.8 386.899C1480.98 389.386 1478.93 391.466 1476.44 391.319C1475.22 391.247 1474.01 391.135 1472.79 391.014C1470.39 390.758 1468.73 388.477 1469.23 386.105L1469.71 383.919C1470.44 380.404 1468.19 376.941 1464.69 376.195C1461.17 375.459 1457.7 377.733 1456.95 381.248L1456.57 383.001C1456.04 385.447 1453.5 386.865 1451.15 386.019C1450.01 385.594 1448.88 385.16 1447.74 384.696C1445.51 383.767 1444.56 381.101 1445.71 378.967L1446.78 377.009C1448.49 373.848 1447.31 369.861 1444.17 368.158C1441 366.468 1437.01 367.663 1435.32 370.824L1434.46 372.411C1433.27 374.588 1430.45 375.265 1428.46 373.79C1428.45 373.782 1428.43 373.769 1428.42 373.764C1427.44 373.038 1426.46 372.293 1425.52 371.53C1423.64 370.002 1423.5 367.183 1425.21 365.46L1426.76 363.902C1429.29 361.327 1429.27 357.176 1426.73 354.66C1424.18 352.131 1420.05 352.171 1417.51 354.736L1416.24 356.007C1414.5 357.793 1411.57 357.6 1410.08 355.631C1409.34 354.643 1408.62 353.676 1407.93 352.665C1406.54 350.674 1407.19 347.909 1409.31 346.739L1411.27 345.643C1414.42 343.912 1415.57 339.902 1413.85 336.768C1412.12 333.634 1408.13 332.485 1404.99 334.238L1403.42 335.1C1401.23 336.321 1398.49 335.321 1397.62 332.989C1397.18 331.837 1396.78 330.702 1396.39 329.536C1395.64 327.236 1397.04 324.776 1399.4 324.237L1401.57 323.751C1405.06 322.957 1407.3 319.443 1406.53 315.958C1408.58 313.184 1406.11 309.358 1402.74 310.111L1397.01 311.401C1394.58 311.952 1392.24 310.215 1392.05 307.727C1391.96 306.52 1391.89 305.303 1391.84 304.089C1391.76 301.653 1393.8 299.677 1396.22 299.83L1398.24 299.961C1401.42 300.168 1404.44 298.114 1405.19 294.989C1406.17 290.967 1403.26 287.189 1399.31 286.951L1397.51 286.831C1395.04 286.681 1393.26 284.34 1393.79 281.907C1394.04 280.712 1394.32 279.516 1394.63 278.339C1395.22 275.97 1397.73 274.656 1400.01 275.486L1401.95 276.204C1404.91 277.28 1408.32 276.192 1409.95 273.451C1412.08 269.844 1410.36 265.351 1406.61 263.986L1404.94 263.363C1402.6 262.512 1401.56 259.79 1402.76 257.593C1403.33 256.516 1403.93 255.44 1404.56 254.397C1405.8 252.302 1408.57 251.736 1410.52 253.175L1412.3 254.493C1415.18 256.628 1419.28 255.996 1421.42 253.103C1423.56 250.214 1422.97 246.111 1420.08 243.977L1418.64 242.912C1416.65 241.438 1416.42 238.515 1418.17 236.753C1419.03 235.868 1419.91 235.017 1420.8 234.185C1422.57 232.509 1425.39 232.768 1426.85 234.687L1428.08 236.323C1430 238.872 1433.52 239.794 1436.36 238.319C1440.03 236.39 1440.98 231.703 1438.61 228.559L1437.53 227.131C1436.02 225.127 1436.63 222.259 1438.8 221.056C1439.88 220.46 1440.96 219.902 1442.06 219.345C1444.23 218.255 1446.86 219.277 1447.71 221.538L1448.43 223.461C1449.56 226.452 1452.66 228.337 1455.81 227.713C1459.87 226.911 1462.09 222.672 1460.69 218.967L1460.08 217.304C1459.2 214.973 1460.58 212.397 1463.01 211.849C1464.19 211.583 1465.39 211.342 1466.6 211.121C1468.98 210.684 1471.21 212.404 1471.4 214.823L1471.55 216.843C1471.79 220.038 1474.22 222.724 1477.43 223.015C1481.53 223.383 1484.86 219.944 1484.56 215.995L1484.43 214.211C1484.24 211.726 1486.3 209.641 1488.77 209.797C1490 209.874 1491.21 209.974 1492.43 210.099C1494.83 210.351 1496.5 212.652 1495.99 215.01L1495.52 217.185C1494.78 220.698 1497.03 224.176 1500.54 224.921C1503.23 226.914 1507.09 225.446 1507.79 222.159L1508.65 218.103C1509.18 215.667 1511.73 214.242 1514.07 215.101C1515.22 215.514 1516.34 215.95 1517.48 216.419C1519.72 217.341 1520.66 219.995 1519.51 222.145L1518.45 224.102C1516.56 227.594 1518.19 232.072 1522.1 233.393C1525.14 234.417 1528.48 232.943 1530 230.114L1530.76 228.7C1531.95 226.525 1534.8 225.855 1536.77 227.316C1536.78 227.326 1536.8 227.336 1536.81 227.347C1537.8 228.073 1538.76 228.808 1539.71 229.578ZM1467.6 267.948L1482.44 293.42L1489.96 264.966C1482.39 263.592 1474.54 264.63 1467.6 267.948ZM1516.38 285.132L1490.89 299.889L1519.4 307.487C1520.77 299.91 1519.7 292.064 1516.38 285.132ZM1488.01 294.921L1513.47 280.156C1511.23 276.943 1508.48 274.04 1505.15 271.579C1502.13 269.34 1498.89 267.621 1495.53 266.466L1488.01 294.921ZM1516.34 255.62C1513.76 253.715 1510.11 254.248 1508.2 256.831C1506.28 259.417 1506.84 263.067 1509.41 264.972C1512 266.888 1515.66 266.359 1517.57 263.772C1519.49 261.189 1518.92 257.537 1516.34 255.62ZM1533.11 298.985C1536.31 298.528 1538.51 295.556 1538.01 292.373C1537.53 289.186 1534.57 286.992 1531.39 287.474C1528.22 287.939 1526.02 290.911 1526.49 294.086C1526.97 297.258 1529.93 299.452 1533.11 298.985ZM1527.36 333.606C1529.28 331.015 1528.73 327.384 1526.14 325.468C1523.55 323.553 1519.92 324.09 1518 326.681C1516.1 329.256 1516.64 332.9 1519.22 334.814C1521.81 336.73 1525.45 336.181 1527.36 333.606ZM1512.83 322.652C1515.07 319.629 1516.76 316.409 1517.92 313.041L1489.42 305.455L1504.25 330.948C1507.48 328.732 1510.39 325.957 1512.83 322.652ZM1450.53 316.646L1475.97 301.874L1447.5 294.301C1446.12 301.859 1447.19 309.7 1450.53 316.646ZM1457.51 343.241C1459.42 340.661 1458.85 337.013 1456.27 335.104C1453.69 333.193 1450.04 333.715 1448.13 336.295C1446.21 338.878 1446.78 342.532 1449.36 344.443C1451.94 346.352 1455.6 345.824 1457.51 343.241ZM1461.76 330.2C1464.76 332.424 1468.02 334.123 1471.36 335.305L1478.87 306.855L1453.42 321.608C1455.65 324.833 1458.44 327.744 1461.76 330.2ZM1499.29 333.822L1484.46 308.307L1476.93 336.798C1484.52 338.19 1492.35 337.145 1499.29 333.822ZM1490.65 355.183C1493.82 354.696 1496.01 351.746 1495.54 348.572C1495.05 345.384 1492.1 343.194 1488.92 343.669C1485.73 344.138 1483.55 347.088 1484.02 350.28C1484.5 353.455 1487.46 355.645 1490.65 355.183ZM1432.58 301.084C1429.39 301.56 1427.2 304.513 1427.68 307.706C1428.16 310.894 1431.11 313.08 1434.31 312.615C1437.49 312.131 1439.68 309.178 1439.21 305.993C1438.71 302.813 1435.76 300.626 1432.58 301.084ZM1438.32 266.467C1436.41 269.047 1436.96 272.684 1439.55 274.602C1442.14 276.514 1445.78 275.983 1447.69 273.403C1449.6 270.816 1449.06 267.164 1446.48 265.252C1443.88 263.333 1440.23 263.881 1438.32 266.467ZM1454.06 279.149C1451.86 282.131 1450.13 285.361 1448.97 288.729L1477.46 296.323L1462.64 270.818C1459.4 273.044 1456.53 275.822 1454.06 279.149ZM1475.04 244.891C1471.87 245.36 1469.67 248.328 1470.15 251.499C1470.64 254.691 1473.6 256.885 1476.77 256.403C1479.96 255.947 1482.16 252.979 1481.67 249.795C1481.21 246.616 1478.24 244.422 1475.04 244.891Z" fill="#8D8D8D"/>
<path d="M1369.47 228.02L1375.9 223.539L1380.25 227.246L1376.82 234.298C1377.89 235.473 1378.89 236.729 1379.81 238.058L1387.55 236.288L1390.18 241.354L1384.26 246.634C1384.88 248.31 1385.36 250.004 1385.72 251.71L1393.45 253.096L1393.9 258.781L1386.49 261.341C1386.41 262.939 1386.23 264.527 1385.94 266.095L1392.59 270.289L1390.87 275.721L1383.03 275.298C1382.29 276.887 1381.44 278.429 1380.48 279.904L1384.98 286.346L1381.27 290.677L1374.21 287.242C1373.03 288.302 1371.78 289.296 1370.45 290.216L1372.24 297.95L1367.18 300.567L1361.88 294.644C1360.21 295.251 1358.51 295.732 1356.8 296.091L1355.44 303.81L1349.75 304.252L1347.17 296.833C1345.57 296.748 1343.98 296.56 1342.41 296.276L1338.23 302.913L1332.79 301.18L1333.19 293.341C1331.6 292.599 1330.05 291.744 1328.57 290.779L1322.14 295.258L1317.8 291.551L1321.22 284.5C1320.15 283.321 1319.16 282.069 1318.23 280.739L1310.5 282.51L1307.87 277.445L1313.78 272.162C1313.17 270.488 1312.68 268.793 1312.32 267.087L1304.59 265.703L1304.14 260.019L1311.55 257.459C1311.63 255.86 1311.82 254.272 1312.1 252.705L1305.45 248.511L1307.17 243.076L1315.02 243.5C1315.75 241.911 1316.61 240.369 1317.57 238.893L1313.07 232.453L1316.77 228.12L1323.83 231.554C1325.01 230.494 1326.26 229.5 1327.59 228.581L1325.8 220.846L1330.86 218.229L1336.16 224.154C1337.83 223.545 1339.53 223.065 1341.24 222.708L1342.6 214.988L1348.29 214.547L1350.87 221.965C1352.47 222.048 1354.06 222.237 1355.63 222.524L1359.81 215.887L1365.25 217.62L1364.85 225.459C1366.44 226.202 1367.99 227.056 1369.47 228.02ZM1348.91 246.751C1351.24 246.709 1354.16 247.746 1355.54 248.561L1365.18 235.543C1358.63 230.952 1352.87 229.982 1346.4 230.51L1348.91 246.751ZM1344.94 255.799C1343.17 258.186 1343.68 261.574 1346.08 263.347C1348.47 265.12 1351.86 264.617 1353.63 262.23C1355.4 259.84 1354.89 256.454 1352.49 254.682C1350.1 252.909 1346.71 253.409 1344.94 255.799ZM1367.72 237.474L1358.05 250.544C1359.12 251.785 1360.86 254.438 1361.32 256.775L1377.54 254.415C1376.37 247.977 1372.61 241.612 1367.72 237.474ZM1377.31 257.503L1360.79 260.215C1360.75 262.133 1360.75 263.382 1359.06 266.109L1372.51 276.068C1376.89 269.368 1377.86 263.633 1377.31 257.503ZM1371.62 277.392L1358.16 267.433C1356.1 269.884 1354.69 270.281 1352.5 270.902L1354.97 287.863C1361.4 286.479 1367.71 282.453 1371.62 277.392ZM1352.7 288.077L1350.2 271.259C1347.99 271.396 1345.23 270.551 1343.74 269.871L1333.51 283.691C1338.9 287.154 1346.15 288.881 1352.7 288.077ZM1330.92 281.816L1341.11 268.052C1339.92 266.975 1338.27 264.78 1337.59 262.722L1320.59 265.175C1321.95 271.571 1324.62 276.899 1330.92 281.816ZM1320.24 262.947L1336.97 260.555C1336.7 257.942 1336.92 255.684 1338.64 252.978L1325.22 243.041C1321.52 248.261 1319.41 256.071 1320.24 262.947ZM1326.22 241.799L1339.65 251.736C1341.8 249.354 1343.81 248.292 1346.02 247.771L1343.36 231.895C1336.96 233.005 1331.37 235.669 1326.22 241.799Z" fill="#8D8D8D"/>
</g>
</g>
</g>
<defs>
<filter id="filter0_f_193_706" x="-250.721" y="-592.588" width="2236.44" height="1983.94" filterUnits="userSpaceOnUse" color-interpolation-filters="sRGB">
<feFlood flood-opacity="0" result="BackgroundImageFix"/>
<feBlend mode="normal" in="SourceGraphic" in2="BackgroundImageFix" result="shape"/>
<feGaussianBlur stdDeviation="304.86" result="effect1_foregroundBlur_193_706"/>
</filter>
<filter id="filter1_f_193_706" x="277" y="-344.113" width="2373" height="2036.81" filterUnits="userSpaceOnUse" color-interpolation-filters="sRGB">
<feFlood flood-opacity="0" result="BackgroundImageFix"/>
<feBlend mode="normal" in="SourceGraphic" in2="BackgroundImageFix" result="shape"/>
<feGaussianBlur stdDeviation="254.5" result="effect1_foregroundBlur_193_706"/>
</filter>
<radialGradient id="paint0_radial_193_706" cx="0" cy="0" r="1" gradientUnits="userSpaceOnUse" gradientTransform="translate(1272.5 429.454) rotate(175.61) scale(611.795 617.6)">
<stop stop-color="#47463F"/>
<stop offset="1" stop-color="#22201E"/>
</radialGradient>
<linearGradient id="paint1_linear_193_706" x1="911.5" y1="0.113525" x2="911.5" y2="580.302" gradientUnits="userSpaceOnUse">
<stop stop-opacity="0"/>
<stop offset="0.890053"/>
</linearGradient>
</defs>
</svg>
