<svg width="528" height="441" viewBox="0 0 528 441" fill="none" xmlns="http://www.w3.org/2000/svg">
<g opacity="0.05">
<path d="M450.592 151.906C445.014 159.441 434.329 161.021 426.776 155.43C419.222 149.838 417.614 139.157 423.191 131.623C428.77 124.087 439.456 122.505 447.009 128.096C454.563 133.688 456.17 144.37 450.592 151.906ZM430.82 137.27C428.349 140.609 429.062 145.343 432.409 147.82C435.756 150.298 440.49 149.597 442.962 146.258C445.435 142.917 444.722 138.186 441.375 135.708C438.028 133.231 433.293 133.93 430.82 137.27Z" fill="white"/>
<path d="M465.097 98.4483L474.085 92.1845L480.157 97.3657L475.379 107.221C476.866 108.864 478.259 110.618 479.548 112.475L490.361 110.001L494.034 117.081L485.77 124.459C486.626 126.8 487.301 129.169 487.81 131.552L498.608 133.488L499.243 141.431L488.88 145.009C488.767 147.244 488.511 149.463 488.116 151.653L497.41 157.516L495.006 165.108L484.042 164.517C483.008 166.737 481.816 168.891 480.475 170.955L486.764 179.957L481.592 186.01L471.722 181.212C470.078 182.693 468.328 184.083 466.471 185.367L468.971 196.173L461.895 199.831L454.49 191.552C452.152 192.401 449.78 193.075 447.397 193.575L445.488 204.362L437.537 204.977L433.936 194.611C431.697 194.493 429.477 194.233 427.284 193.834L421.439 203.108L413.836 200.686L414.4 189.73C412.178 188.693 410.017 187.498 407.95 186.151L398.96 192.41L392.889 187.229L397.667 177.378C396.18 175.73 394.786 173.979 393.496 172.12L382.686 174.595L379.009 167.515L387.275 160.135C386.42 157.795 385.741 155.426 385.233 153.043L374.434 151.107L373.799 143.161L384.163 139.585C384.274 137.351 384.532 135.132 384.925 132.941L375.631 127.079L378.036 119.488L389.001 120.08C390.034 117.86 391.225 115.706 392.567 113.641L386.28 104.64L391.451 98.5869L401.323 103.386C402.967 101.904 404.716 100.515 406.57 99.2303L404.071 88.4219L411.15 84.7656L418.552 93.0439C420.891 92.1931 423.262 91.5231 425.649 91.0213L427.557 80.2345L435.506 79.6175L439.111 89.9821C441.348 90.0994 443.569 90.36 445.761 90.7636L451.607 81.4877L459.21 83.9088L458.643 94.8638C460.87 95.9058 463.026 97.1002 465.097 98.4483ZM404.085 118.287C390.856 136.158 394.657 161.395 412.571 174.655C430.486 187.917 455.733 184.182 468.961 166.312C482.189 148.442 478.391 123.202 460.476 109.941C442.562 96.6798 417.313 100.417 404.085 118.287Z" fill="white"/>
<path d="M401.84 60.3489C399.507 63.4999 395.039 64.1609 391.88 61.823C388.721 59.4843 388.048 55.0181 390.381 51.8671C392.714 48.7162 397.183 48.0541 400.342 50.3928C403.501 52.7308 404.173 57.197 401.84 60.3489ZM393.572 54.229C392.538 55.6249 392.836 57.6047 394.236 58.6407C395.636 59.6767 397.616 59.3829 398.649 57.987C399.683 56.5902 399.385 54.6121 397.986 53.5761C396.586 52.54 394.606 52.8322 393.572 54.229Z" fill="white"/>
<path d="M407.905 37.9875L411.665 35.3676L414.205 37.5341L412.207 41.6564C412.828 42.3439 413.41 43.0774 413.95 43.8546L418.473 42.8199L420.009 45.7815L416.552 48.8683C416.91 49.8469 417.193 50.8384 417.405 51.8352L421.922 52.6459L422.188 55.9678L417.853 57.4648C417.804 58.4004 417.698 59.3281 417.533 60.2437L421.42 62.6958L420.415 65.8722L415.829 65.6249C415.397 66.5541 414.898 67.455 414.336 68.3183L416.966 72.0834L414.802 74.6149L410.674 72.6072C409.986 73.2271 409.254 73.8084 408.477 74.3458L409.523 78.8664L406.564 80.3966L403.467 76.9339C402.489 77.2889 401.497 77.5702 400.5 77.7808L399.701 82.2927L396.375 82.5506L394.868 78.2147C393.932 78.1646 393.003 78.0559 392.085 77.8899L389.641 81.7686L386.461 80.7559L386.697 76.173C385.767 75.7395 384.864 75.2404 383.998 74.6755L380.238 77.2947L377.698 75.1272L379.697 71.0066C379.075 70.3174 378.493 69.5848 377.953 68.8076L373.431 69.8431L371.893 66.8817L375.351 63.7947C374.994 62.8161 374.71 61.8256 374.497 60.8288L369.98 60.019L369.715 56.6962L374.05 55.2009C374.096 54.2665 374.204 53.3386 374.369 52.4213L370.482 49.9692L371.488 46.7935L376.075 47.0408C376.507 46.1123 377.005 45.2106 377.566 44.3483L374.936 40.5833L377.099 38.051L381.228 40.0587C381.916 39.4388 382.647 38.8575 383.422 38.3203L382.377 33.7988L385.338 32.27L388.434 35.733C389.413 35.377 390.404 35.0967 391.402 34.8868L392.2 30.3759L395.524 30.1182L397.033 34.4539C397.968 34.5033 398.898 34.6127 399.814 34.7817L402.259 30.9009L405.439 31.9137L405.203 36.4959C406.136 36.9235 407.038 37.4228 407.905 37.9875ZM382.384 46.2845C376.851 53.7596 378.441 64.316 385.933 69.8624C393.427 75.4096 403.987 73.8473 409.521 66.3722C415.054 58.8971 413.465 48.3407 405.971 42.7935C398.478 37.247 387.918 38.8094 382.384 46.2845Z" fill="white"/>
<path d="M27.2675 150.018C23.9107 154.553 17.4803 155.504 12.9352 152.14C8.38807 148.774 7.42181 142.346 10.7778 137.812C14.1353 133.277 20.5648 132.325 25.1119 135.691C29.657 139.055 30.625 145.483 27.2675 150.018ZM15.369 141.211C13.8824 143.219 14.3112 146.069 16.3253 147.56C18.3403 149.052 21.1887 148.627 22.6754 146.619C24.1635 144.609 23.7351 141.762 21.721 140.271C19.7069 138.78 16.8571 139.201 15.369 141.211Z" fill="white"/>
<path d="M35.9969 117.852L41.4059 114.083L45.0598 117.202L42.1855 123.132C43.0795 124.122 43.9179 125.176 44.6945 126.295L51.2009 124.806L53.4116 129.068L48.4387 133.507C48.9531 134.917 49.3599 136.341 49.6664 137.776L56.1648 138.942L56.5464 143.721L50.3118 145.874C50.2428 147.22 50.0901 148.555 49.8514 149.872L55.444 153.4L53.9968 157.97L47.3996 157.613C46.7787 158.95 46.0621 160.245 45.253 161.488L49.0365 166.905L45.9251 170.547L39.9847 167.659C38.996 168.55 37.9417 169.387 36.8256 170.16L38.3303 176.663L34.0727 178.865L29.6163 173.882C28.2094 174.392 26.7816 174.798 25.347 175.1L24.1989 181.591L19.4128 181.962L17.2457 175.723C15.8982 175.651 14.5634 175.495 13.2428 175.254L9.72574 180.835L5.1509 179.376L5.49049 172.783C4.15267 172.158 2.85324 171.44 1.6078 170.629L-3.80153 174.396L-7.45441 171.278L-4.58053 165.35C-5.4748 164.36 -6.31416 163.305 -7.08985 162.186L-13.5952 163.676L-15.8074 159.416L-10.8331 154.975C-11.3472 153.567 -11.7567 152.142 -12.0615 150.707L-18.5599 149.541L-18.9418 144.76L-12.7051 142.608C-12.6386 141.263 -12.4842 139.929 -12.2467 138.609L-17.84 135.082L-16.3918 130.513L-9.79372 130.87C-9.17184 129.535 -8.45517 128.239 -7.64803 126.995L-11.4306 121.579L-8.31918 117.936L-2.37878 120.824C-1.38939 119.932 -0.335816 119.096 0.778575 118.324L-0.725329 111.82L3.53487 109.619L7.98936 114.6C9.39702 114.089 10.8241 113.684 12.2596 113.383L13.407 106.892L18.1911 106.52L20.3607 112.758C21.7055 112.829 23.043 112.986 24.3621 113.229L27.8807 107.646L32.4562 109.104L32.1157 115.696C33.4528 116.322 34.7497 117.041 35.9969 117.852ZM-0.717389 129.79C-8.67797 140.544 -6.39003 155.731 4.38973 163.711C15.1705 171.692 30.3632 169.445 38.3237 158.691C46.2836 147.938 43.9971 132.749 33.2164 124.768C22.4349 116.788 7.24247 119.037 -0.717389 129.79Z" fill="white"/>
<path d="M275.845 295.927C265.855 309.423 246.718 312.255 233.188 302.239C219.658 292.224 216.777 273.093 226.767 259.597C236.758 246.099 255.898 243.266 269.428 253.282C282.958 263.297 285.836 282.43 275.845 295.927ZM240.432 269.713C236.007 275.69 237.284 284.172 243.278 288.609C249.273 293.047 257.753 291.789 262.178 285.81C266.606 279.828 265.332 271.352 259.337 266.914C253.343 262.477 244.86 263.73 240.432 269.713Z" fill="white"/>
<path d="M301.833 200.174L317.931 188.955L328.807 198.236L320.249 215.888C322.913 218.832 325.407 221.971 327.717 225.299L347.085 220.868L353.665 233.55L338.863 246.766C340.395 250.958 341.605 255.203 342.516 259.471L361.859 262.94L362.995 277.168L344.435 283.575C344.233 287.578 343.774 291.551 343.066 295.476L359.714 305.975L355.407 319.573L335.768 318.514C333.917 322.491 331.783 326.348 329.378 330.045L340.64 346.166L331.375 357.007L313.695 348.413C310.752 351.067 307.616 353.554 304.291 355.856L308.77 375.212L296.096 381.765L282.832 366.936C278.644 368.457 274.397 369.663 270.127 370.56L266.709 389.88L252.467 390.984L246.016 372.418C242.006 372.204 238.029 371.738 234.101 371.025L223.632 387.637L210.014 383.299L211.025 363.675C207.043 361.819 203.176 359.676 199.472 357.264L183.366 368.477L172.495 359.198L181.053 341.552C178.389 338.601 175.892 335.463 173.582 332.136L154.218 336.569L147.635 323.887L162.442 310.666C160.911 306.477 159.694 302.233 158.786 297.964L139.443 294.496L138.305 280.267L156.87 273.862C157.069 269.858 157.531 265.885 158.233 261.959L141.586 251.46L145.897 237.863L165.536 238.923C167.386 234.946 169.52 231.089 171.923 227.39L160.66 211.27L169.925 200.427L187.606 209.022C190.55 206.368 193.683 203.88 197.004 201.578L192.527 182.219L205.207 175.67L218.466 190.497C222.655 188.974 226.901 187.774 231.176 186.875L234.594 167.554L248.833 166.45L255.289 185.016C259.294 185.226 263.274 185.694 267.199 186.414L277.669 169.8L291.285 174.138L290.272 193.761C294.261 195.62 298.121 197.76 301.833 200.174ZM192.549 235.709C168.856 267.716 175.661 312.921 207.749 336.674C239.838 360.427 285.06 353.735 308.753 321.728C332.447 289.72 325.644 244.513 293.555 220.759C261.467 197.007 216.243 203.701 192.549 235.709Z" fill="white"/>
<path d="M337.648 52.762L347.185 46.114L353.628 51.6153L348.558 62.072C350.135 63.8196 351.615 65.6758 352.982 67.6524L364.457 65.0226L368.356 72.54L359.587 80.3726C360.494 82.8578 361.214 85.3683 361.749 87.9001L373.213 89.953L373.884 98.3867L362.886 102.182C362.769 104.552 362.494 106.905 362.079 109.23L371.942 115.453L369.387 123.515L357.753 122.883C356.657 125.24 355.393 127.525 353.967 129.713L360.641 139.268L355.152 145.694L344.673 140.6C342.934 142.172 341.074 143.643 339.103 145.006L341.759 156.476L334.25 160.36L326.387 151.573C323.908 152.477 321.389 153.19 318.859 153.721L316.836 165.169L308.394 165.823L304.576 154.821C302.199 154.691 299.844 154.418 297.513 153.996L291.31 163.84L283.243 161.271L283.843 149.641C281.484 148.537 279.19 147.272 276.997 145.844L267.455 152.487L261.011 146.986L266.083 136.53C264.502 134.787 263.023 132.925 261.655 130.949L250.182 133.578L246.278 126.064L255.054 118.231C254.144 115.749 253.424 113.234 252.889 110.7L241.429 108.648L240.752 100.218L251.749 96.422C251.869 94.0483 252.147 91.6938 252.559 89.368L242.699 83.1453L245.25 75.0929L256.891 75.719C257.984 73.3603 259.248 71.0772 260.672 68.886L253.999 59.3347L259.487 52.9096L269.964 58.0021C271.711 56.428 273.568 54.9551 275.536 53.5928L272.881 42.1206L280.396 38.24L288.253 47.0241C290.736 46.1215 293.252 45.4079 295.782 44.8797L297.808 33.4291L306.245 32.7786L310.07 43.7791C312.442 43.9058 314.801 44.1773 317.128 44.6086L323.33 34.7641L331.4 37.3297L330.799 48.9604C333.161 50.0632 335.446 51.3306 337.648 52.762ZM290.949 87.1809C284.271 96.2019 286.187 108.943 295.23 115.637C304.271 122.33 317.017 120.442 323.694 111.421C330.369 102.404 328.453 89.6614 319.413 82.969C310.368 76.2754 297.623 78.1647 290.949 87.1809Z" fill="white"/>
<path d="M379.66 -41.1946L386.031 -45.6353L390.335 -41.9631L386.946 -34.9795C388.001 -33.814 388.988 -32.574 389.906 -31.2565L397.566 -33.0094L400.171 -27.9891L394.314 -22.7613C394.922 -21.1006 395.398 -19.4203 395.759 -17.7332L403.413 -16.3595L403.864 -10.7311L396.52 -8.19618C396.442 -6.61084 396.258 -5.03849 395.975 -3.48427L402.565 0.671323L400.86 6.05465L393.09 5.63184C392.354 7.20571 391.514 8.73323 390.563 10.1947L395.016 16.5739L391.351 20.8641L384.357 17.4629C383.19 18.5122 381.951 19.4967 380.632 20.4076L382.405 28.0657L377.391 30.6587L372.141 24.7912C370.483 25.3965 368.803 25.8685 367.115 26.224L365.765 33.8709L360.126 34.3085L357.575 26.9608C355.987 26.8738 354.413 26.6933 352.86 26.4078L348.715 32.9817L343.331 31.2632L343.725 23.4985C342.151 22.7667 340.622 21.9177 339.158 20.9613L332.781 25.3984L328.479 21.7269L331.869 14.7441C330.812 13.5771 329.825 12.3371 328.914 11.0186L321.246 12.7718L318.644 7.75366L324.503 2.5229C323.897 0.866321 323.416 -0.815871 323.056 -2.50225L315.403 -3.87523L314.948 -9.50745L322.297 -12.0422C322.374 -13.6256 322.56 -15.1958 322.837 -16.755L316.25 -20.906L317.956 -26.2894L325.728 -25.8661C326.459 -27.4443 327.302 -28.9672 328.254 -30.4303L323.801 -36.8105L327.463 -41.1037L334.463 -37.6981C335.628 -38.7499 336.869 -39.7302 338.182 -40.6465L336.408 -48.3053L341.425 -50.8961L346.673 -45.029C348.332 -45.6346 350.009 -46.1088 351.705 -46.4612L353.057 -54.1101L358.69 -54.5415L361.244 -47.196C362.831 -47.1141 364.403 -46.9308 365.959 -46.643L370.098 -53.2212L375.488 -51.5035L375.087 -43.7388C376.666 -43 378.191 -42.1529 379.66 -41.1946ZM331.743 -30.5932C320.463 -15.3549 323.704 6.16759 338.983 17.4777C354.259 28.7864 375.791 25.6023 387.071 10.3639C398.353 -4.87644 395.11 -26.4003 379.834 -37.709C364.555 -49.0192 343.026 -45.8346 331.743 -30.5932Z" fill="white"/>
<path d="M332.997 -29.6685C322.245 -15.1436 325.345 5.44305 339.909 16.2243C354.47 27.0033 375.067 23.9587 385.819 9.43372C396.573 -5.09317 393.471 -25.683 378.909 -36.462C364.345 -47.2432 343.751 -44.1964 332.997 -29.6685ZM382.781 7.18471C373.266 20.0393 355.039 22.7363 342.151 13.1959C329.262 3.65483 326.519 -14.5666 336.034 -27.4202C345.551 -40.2768 363.779 -42.9748 376.668 -33.4337C389.556 -23.8933 392.299 -5.67282 382.781 7.18471Z" fill="white"/>
<path d="M127.727 324.475L134.35 319.86L138.823 323.677L135.301 330.937C136.397 332.148 137.424 333.437 138.376 334.806L146.338 332.984L149.046 338.203L142.957 343.637C143.589 345.363 144.085 347.11 144.459 348.863L152.414 350.291L152.884 356.141L145.25 358.775C145.169 360.423 144.978 362.058 144.685 363.673L151.534 367.992L149.761 373.588L141.686 373.148C140.92 374.784 140.048 376.372 139.058 377.891L143.687 384.523L139.877 388.982L132.607 385.448C131.394 386.538 130.107 387.56 128.736 388.508L130.579 396.468L125.368 399.164L119.911 393.064C118.188 393.694 116.441 394.185 114.687 394.554L113.284 402.502L107.422 402.958L104.77 395.321C103.12 395.23 101.484 395.042 99.8698 394.746L95.5616 401.579L89.9662 399.794L90.3762 391.724C88.7403 390.963 87.1507 390.08 85.6281 389.086L79.0005 393.695L74.5276 389.879L78.0503 382.621C76.9539 381.407 75.9272 380.118 74.9799 378.749L67.009 380.572L64.3048 375.355L70.3951 369.919C69.7645 368.197 69.2658 366.449 68.8915 364.694L60.9373 363.268L60.4642 357.414L68.1033 354.78C68.1834 353.135 68.3761 351.503 68.6636 349.882L61.8178 345.566L63.5902 339.971L71.6671 340.411C72.4265 338.771 73.3048 337.187 74.2927 335.666L69.6642 329.035L73.4703 324.573L80.7454 328.112C81.9565 327.019 83.2457 326 84.6111 325.048L82.768 317.088L87.9834 314.395L93.4378 320.492C95.1624 319.864 96.9064 319.371 98.669 319.003L100.074 311.052L105.93 310.604L108.585 318.239C110.234 318.325 111.87 318.516 113.485 318.814L117.788 311.977L123.39 313.763L122.973 321.834C124.616 322.598 126.2 323.48 127.727 324.475ZM77.9213 335.494C66.1962 351.333 69.565 373.704 85.4455 385.459C101.324 397.214 123.706 393.903 135.43 378.065C147.157 362.224 143.786 339.852 127.907 328.098C112.028 316.343 89.6477 319.653 77.9213 335.494Z" fill="white"/>
<path d="M79.227 336.461C68.0513 351.558 71.2732 372.956 86.4107 384.162C101.545 395.365 122.955 392.201 134.131 377.103C145.308 362.004 142.084 340.603 126.948 329.399C111.81 318.194 90.4042 321.361 79.227 336.461ZM130.973 374.766C121.083 388.127 102.138 390.931 88.7418 381.015C75.345 371.098 72.4946 352.158 82.3846 338.798C92.2768 325.434 111.223 322.63 124.619 332.547C138.014 342.464 140.865 361.404 130.973 374.766Z" fill="white"/>
<path d="M197.798 33.2519L196.391 34.675C194.159 36.9311 193.738 40.508 195.594 43.0883C197.988 46.4218 202.709 46.6882 205.466 43.9053L206.721 42.6363C208.451 40.8862 211.339 41.0762 212.829 43.0388C213.566 44.006 214.281 44.9863 214.972 45.9786C216.349 47.9512 215.715 50.6785 213.613 51.8379L211.84 52.8167C209.062 54.3512 207.649 57.6625 208.7 60.6618C210.059 64.5277 214.52 66.1148 217.949 64.22L219.504 63.3627C221.658 62.1719 224.384 63.1664 225.261 65.4766C225.69 66.6083 226.095 67.7506 226.477 68.8944C227.239 71.173 225.862 73.6054 223.517 74.1252L221.377 74.6005C217.907 75.3692 215.707 78.8372 216.484 82.3075C214.46 85.042 216.927 88.8289 220.253 88.0903L225.932 86.8324C228.335 86.2969 230.669 88.017 230.862 90.471C230.956 91.6762 231.029 92.8829 231.074 94.0893C231.166 96.4904 229.156 98.4408 226.759 98.2788L224.577 98.1307C221.03 97.892 217.936 100.599 217.704 104.143C217.476 107.689 220.19 110.785 223.738 111.024L225.52 111.143C227.977 111.308 229.733 113.612 229.226 116.019C228.978 117.199 228.707 118.379 228.409 119.555C227.821 121.881 225.343 123.187 223.085 122.354L221.012 121.591C217.673 120.364 213.941 122.089 212.722 125.421L212.723 125.422C211.502 128.757 213.235 132.489 216.574 133.716L218.242 134.33C220.556 135.179 221.595 137.885 220.427 140.051C219.857 141.111 219.262 142.161 218.644 143.205C217.419 145.269 214.676 145.821 212.743 144.39L210.978 143.084C208.117 140.965 204.049 141.567 201.937 144.42C199.824 147.274 200.437 151.341 203.298 153.459L204.725 154.515C206.707 155.982 206.94 158.864 205.209 160.614C204.36 161.477 203.494 162.321 202.614 163.142C200.862 164.782 198.066 164.536 196.614 162.621L195.394 161.013C193.475 158.48 189.989 157.543 187.173 159.007C183.536 160.89 182.612 165.523 184.983 168.652L186.062 170.079C187.554 172.046 186.962 174.876 184.804 176.068C183.744 176.652 182.672 177.213 181.592 177.756C179.446 178.826 176.835 177.804 175.982 175.562L175.197 173.496C173.933 170.173 170.179 168.478 166.857 169.737C163.532 170.994 161.85 174.739 163.111 178.063L163.74 179.713C164.62 182.02 163.251 184.568 160.846 185.101C159.666 185.362 158.481 185.599 157.293 185.814C154.93 186.239 152.709 184.525 152.525 182.133L152.354 179.952C152.076 176.409 148.949 173.732 145.406 173.998C141.859 174.267 139.186 177.386 139.463 180.931L139.6 182.696C139.792 185.152 137.766 187.21 135.306 187.047C134.101 186.967 132.894 186.862 131.691 186.735C129.301 186.48 127.651 184.211 128.142 181.859L128.595 179.712C129.33 176.236 127.084 172.788 123.604 172.047C120.127 171.306 116.678 173.544 115.945 177.017L115.576 178.763C115.067 181.17 112.541 182.576 110.223 181.723C109.089 181.307 107.962 180.867 106.841 180.4C104.619 179.48 103.673 176.84 104.814 174.729L105.857 172.793C107.539 169.666 106.356 165.727 103.224 164.034C100.089 162.346 96.1522 163.521 94.4674 166.644L93.6271 168.203C92.4676 170.359 89.6543 171.011 87.6815 169.55C87.6697 169.542 87.6551 169.531 87.6433 169.522C86.6623 168.796 85.7026 168.055 84.7611 167.296C82.8979 165.794 82.7542 163.005 84.4332 161.306L85.9719 159.754C88.4691 157.23 88.4433 153.119 85.9119 150.618C83.3822 148.116 79.2664 148.134 76.7707 150.656L75.5142 151.923C73.7828 153.673 70.8953 153.483 69.4042 151.521C68.6677 150.554 67.9526 149.573 67.2615 148.585C65.8836 146.611 66.519 143.884 68.6195 142.723L70.5556 141.655C73.6654 139.94 74.7986 135.991 73.0732 132.88C71.3486 129.768 67.3941 128.626 64.2818 130.343L62.7316 131.2C60.5735 132.39 57.8488 131.394 56.9731 129.087C56.5445 127.954 56.1376 126.815 55.7567 125.669C54.9954 123.393 56.373 120.958 58.7166 120.44L60.8568 119.964C64.3237 119.193 66.5241 115.725 65.7485 112.257C67.7727 109.522 65.3044 105.734 61.9806 106.471L56.3022 107.73C53.8972 108.264 51.563 106.546 51.3707 104.091C51.2757 102.889 51.207 101.682 51.1582 100.474C51.0677 98.0762 53.0773 96.125 55.4761 96.2851L57.473 96.419C60.6461 96.6325 63.625 94.6168 64.3631 91.5274C65.3109 87.5444 62.4107 83.8031 58.4971 83.5417L56.7163 83.4208C54.2561 83.2576 52.5007 80.9549 53.0058 78.5446C53.2537 77.3642 53.5272 76.186 53.8246 75.0103C54.4127 72.6843 56.893 71.3771 59.1501 72.2098L61.074 72.9171C64.0207 73.9996 67.3983 72.9338 68.991 70.2375C71.1009 66.6707 69.3721 62.2129 65.6604 60.8475L63.9923 60.2325C61.6769 59.3824 60.6399 56.6764 61.8084 54.5102C62.3828 53.4517 62.9757 52.4009 63.5944 51.3584C64.8156 49.295 67.561 48.7433 69.4947 50.1747L71.258 51.4799C74.1188 53.5977 78.187 52.993 80.2982 50.141C82.4108 47.2871 81.7996 43.2216 78.9388 41.1038L77.5133 40.0486C75.5317 38.5817 75.3007 35.6979 77.0282 33.9456C77.8777 33.0846 78.7429 32.2413 79.6238 31.4219C81.3774 29.7798 84.1729 30.0244 85.627 31.9419L86.8423 33.5493C88.7643 36.0815 92.2475 37.0186 95.0661 35.5571C98.7019 33.6716 99.6267 29.038 97.2543 25.9103L96.1749 24.4838C94.6827 22.5154 95.2745 19.6829 97.4339 18.4958C98.4944 17.9108 99.5653 17.3486 100.645 16.8068C102.794 15.7362 105.402 16.7587 106.255 19.0028L106.972 20.8918C108.103 23.8643 111.185 25.7392 114.303 25.1318C118.327 24.3474 120.519 20.1666 119.125 16.4992L118.497 14.8494C117.62 12.5436 118.985 9.99279 121.391 9.46121C122.57 9.19996 123.757 8.96177 124.945 8.74968C127.308 8.32289 129.528 10.0356 129.715 12.4322L129.871 14.4241C130.12 17.591 132.55 20.2581 135.713 20.5523C139.798 20.9328 143.081 17.5402 142.776 13.6335L142.639 11.8661C142.447 9.41179 144.475 7.3526 146.931 7.51724C148.138 7.59665 149.342 7.69996 150.545 7.82861C152.939 8.08526 154.587 10.3536 154.094 12.7045L153.643 14.8516C152.907 18.3274 155.155 21.7758 158.636 22.5182C161.309 24.4975 165.13 23.0537 165.817 19.803L166.66 15.8007C167.168 13.3927 169.699 11.9891 172.013 12.8402C173.147 13.258 174.277 13.699 175.399 14.1629C177.618 15.0857 178.561 17.7232 177.425 19.8365L176.381 21.7733C174.524 25.223 176.158 29.6585 180.043 30.9771C183.053 31.997 186.352 30.5475 187.857 27.7556L188.608 26.3607C189.769 24.2034 192.583 23.5535 194.556 25.0139C194.568 25.0226 194.58 25.032 194.595 25.0429C195.574 25.7677 196.535 26.5081 197.474 27.2667C199.338 28.766 199.481 31.5542 197.798 33.2519ZM193.014 130.487C200.708 118.478 203.721 104.652 202.389 91.2861L181.671 94.3532C182.265 102.41 180.487 110.672 176.143 118L193.013 130.488L193.014 130.487ZM188.032 137.217L171.162 124.729C165.421 131.025 158.039 135.135 150.162 136.92L153.277 157.631C166.449 155.002 178.793 148.083 188.032 137.217ZM144.962 158.711L141.834 137.93C133.988 138.068 126.047 135.952 119.033 131.427L106.598 148.226C118.284 156.135 131.791 159.525 144.962 158.711ZM80.6235 109.307C83.1913 122 89.746 133.934 99.9751 143.069L112.474 126.184C106.793 120.598 103.039 113.639 101.343 106.242L80.6235 109.307ZM89.0791 63.9673C81.7993 75.3268 78.7114 88.3102 79.5262 100.992L100.315 97.9156C100.167 90.5604 101.994 83.1211 105.949 76.4555L89.0791 63.9673ZM113.011 76.4726C101.575 91.9212 104.861 113.73 120.346 125.192C135.826 136.652 157.644 133.426 169.08 117.978C180.512 102.534 177.229 80.7197 161.749 69.2607C146.264 57.798 124.443 61.0289 113.011 76.4726ZM94.061 57.2372L110.931 69.7254C116.153 63.9942 122.733 60.0763 129.81 58.0698L126.684 37.2868C114.316 40.2119 102.8 46.9575 94.061 57.2372ZM134.955 35.9104L138.072 56.6215C145.643 56.0829 153.395 57.642 160.394 61.4465L172.895 44.5587C161.172 37.4446 147.844 34.6606 134.955 35.9104ZM167.327 66.1864C173.702 71.5733 178.045 78.5505 180.206 86.0938L200.993 83.019C197.927 70.1843 190.741 58.2538 179.763 49.3877L167.327 66.1864Z" fill="white"/>
<path d="M369.582 166.276L369.184 166.679C368.553 167.317 368.434 168.329 368.959 169.059C369.636 170.001 370.973 170.077 371.752 169.29L372.107 168.932C372.597 168.438 373.413 168.49 373.835 169.045C374.043 169.319 374.246 169.596 374.441 169.877C374.831 170.436 374.652 171.208 374.056 171.535L373.554 171.812C372.769 172.247 372.37 173.183 372.666 174.031C373.05 175.126 374.313 175.574 375.284 175.039L375.724 174.796C376.333 174.459 377.104 174.742 377.353 175.394C377.473 175.715 377.588 176.038 377.697 176.363C377.912 177.007 377.523 177.695 376.859 177.842L376.254 177.976C375.273 178.194 374.65 179.175 374.87 180.156C374.298 180.93 374.996 182.001 375.937 181.793L377.543 181.436C378.223 181.285 378.883 181.772 378.938 182.466C378.964 182.807 378.985 183.148 378.998 183.491C379.023 184.17 378.454 184.722 377.776 184.676L377.159 184.633C376.156 184.565 375.28 185.333 375.215 186.334C375.15 187.338 375.919 188.213 376.921 188.281L377.427 188.314C378.121 188.361 378.618 189.013 378.476 189.694C378.406 190.028 378.329 190.361 378.245 190.694C378.078 191.351 377.377 191.722 376.739 191.486L376.152 191.271C375.208 190.924 374.152 191.412 373.807 192.354L373.807 192.355C373.462 193.298 373.952 194.354 374.897 194.701L375.368 194.875C376.023 195.115 376.317 195.881 375.986 196.494C375.825 196.793 375.656 197.091 375.481 197.386C375.136 197.969 374.359 198.126 373.812 197.721L373.312 197.352C372.503 196.752 371.352 196.922 370.755 197.73C370.157 198.538 370.33 199.689 371.139 200.288L371.542 200.586C372.103 201.002 372.169 201.817 371.679 202.312C371.439 202.556 371.194 202.794 370.945 203.027C370.449 203.49 369.658 203.42 369.248 202.88L368.902 202.423C368.359 201.708 367.373 201.442 366.575 201.856C365.546 202.389 365.285 203.7 365.956 204.585L366.261 204.988C366.683 205.544 366.515 206.346 365.905 206.682C365.605 206.847 365.302 207.006 364.996 207.16C364.39 207.463 363.651 207.173 363.409 206.538L363.186 205.954C362.829 205.013 361.766 204.534 360.826 204.89C359.885 205.245 359.409 206.305 359.766 207.245L359.944 207.713C360.192 208.365 359.806 209.087 359.125 209.237C358.791 209.311 358.457 209.378 358.121 209.439C357.452 209.559 356.824 209.074 356.772 208.398L356.724 207.78C356.645 206.779 355.76 206.021 354.758 206.096C353.754 206.172 352.997 207.056 353.075 208.058L353.114 208.558C353.168 209.253 352.595 209.834 351.9 209.789C351.559 209.766 351.217 209.737 350.877 209.701C350.2 209.628 349.733 208.986 349.873 208.321L350.001 207.714C350.209 206.732 349.574 205.755 348.589 205.546C347.606 205.337 346.63 205.969 346.422 206.952L346.318 207.446C346.173 208.126 345.458 208.525 344.803 208.284C344.481 208.166 344.163 208.041 343.847 207.909C343.218 207.649 342.951 206.902 343.273 206.306L343.568 205.757C344.044 204.873 343.709 203.758 342.823 203.279C341.936 202.802 340.823 203.134 340.347 204.018L340.109 204.46C339.781 205.069 338.985 205.253 338.427 204.84C338.424 204.838 338.42 204.835 338.416 204.832C338.139 204.627 337.868 204.417 337.601 204.203C337.074 203.778 337.034 202.989 337.508 202.508L337.944 202.068C338.65 201.354 338.642 200.191 337.927 199.483C337.211 198.775 336.047 198.78 335.341 199.494L334.986 199.853C334.496 200.348 333.679 200.293 333.257 199.738C333.049 199.464 332.846 199.187 332.651 198.906C332.261 198.348 332.441 197.577 333.035 197.248L333.583 196.945C334.461 196.461 334.782 195.343 334.294 194.463C333.807 193.582 332.688 193.259 331.807 193.744L331.369 193.987C330.757 194.324 329.987 194.041 329.74 193.389C329.619 193.069 329.504 192.745 329.396 192.422C329.181 191.777 329.571 191.089 330.233 190.943L330.839 190.808C331.821 190.59 332.444 189.609 332.224 188.628C332.798 187.853 332.099 186.783 331.159 186.99L329.552 187.347C328.871 187.499 328.212 187.012 328.157 186.317C328.129 185.977 328.111 185.636 328.095 185.294C328.071 184.615 328.639 184.062 329.317 184.108L329.883 184.147C330.779 184.207 331.622 183.637 331.831 182.763C332.099 181.635 331.279 180.578 330.171 180.503L329.667 180.47C328.972 180.423 328.475 179.772 328.618 179.091C328.688 178.757 328.765 178.423 328.849 178.091C329.016 177.434 329.717 177.063 330.356 177.298L330.9 177.498C331.734 177.805 332.69 177.503 333.14 176.741C333.737 175.732 333.248 174.47 332.198 174.083L331.727 173.909C331.071 173.669 330.779 172.902 331.109 172.289C331.271 171.991 331.439 171.693 331.614 171.397C331.959 170.814 332.736 170.658 333.283 171.063L333.782 171.433C334.592 172.032 335.743 171.861 336.34 171.054C336.938 170.247 336.765 169.097 335.955 168.497L335.552 168.199C334.991 167.784 334.925 166.968 335.414 166.472C335.655 166.229 335.899 165.99 336.149 165.758C336.645 165.295 337.436 165.362 337.846 165.906L338.19 166.36C338.734 167.077 339.719 167.341 340.517 166.928C341.546 166.395 341.807 165.084 341.137 164.2L340.831 163.796C340.409 163.24 340.577 162.438 341.187 162.101C341.488 161.936 341.791 161.777 342.095 161.623C342.703 161.32 343.44 161.61 343.682 162.245L343.886 162.779C344.206 163.62 345.076 164.151 345.96 163.98C347.098 163.757 347.718 162.574 347.323 161.538L347.146 161.071C346.898 160.419 347.284 159.697 347.966 159.546C348.299 159.472 348.634 159.405 348.971 159.345C349.639 159.224 350.267 159.709 350.321 160.385L350.364 160.949C350.435 161.845 351.122 162.599 352.017 162.682C353.173 162.789 354.102 161.829 354.016 160.724L353.977 160.224C353.923 159.53 354.497 158.948 355.191 158.994C355.534 159.017 355.874 159.046 356.214 159.082C356.891 159.154 357.358 159.797 357.218 160.461L357.09 161.068C356.882 162.051 357.518 163.027 358.503 163.237C359.26 163.797 360.341 163.389 360.535 162.468L360.774 161.335C360.918 160.653 361.634 160.257 362.289 160.498C362.609 160.616 362.928 160.741 363.246 160.872C363.874 161.133 364.14 161.879 363.82 162.477L363.525 163.025C363 164.001 363.46 165.256 364.561 165.63C365.412 165.917 366.346 165.508 366.771 164.718L366.985 164.323C367.313 163.712 368.109 163.529 368.667 163.942C368.67 163.944 368.674 163.947 368.678 163.95C368.955 164.155 369.227 164.364 369.493 164.579C370.018 165.006 370.058 165.796 369.582 166.276ZM368.229 193.786C370.406 190.388 371.258 186.477 370.881 182.696L365.021 183.563C365.189 185.843 364.686 188.179 363.457 190.253L368.229 193.786ZM366.819 195.69L362.047 192.157C360.422 193.938 358.334 195.101 356.105 195.606L356.986 201.465C360.712 200.721 364.205 198.765 366.819 195.69ZM354.634 201.77L353.748 195.891C351.528 195.929 349.282 195.33 347.298 194.051L343.78 198.803C347.086 201.042 350.909 202.001 354.634 201.77ZM336.431 187.793C337.156 191.385 339.012 194.76 341.906 197.345L345.442 192.568C343.834 190.989 342.772 189.019 342.292 186.926L336.431 187.793ZM338.823 174.966C336.763 178.178 335.89 181.852 336.12 185.441L342.001 184.57C341.959 182.489 342.476 180.384 343.595 178.498L338.823 174.966ZM349.679 181.527C348.109 183.648 348.56 186.64 350.686 188.213C352.81 189.786 355.805 189.343 357.374 187.223C358.943 185.104 358.492 182.11 356.367 180.537C354.242 178.964 351.247 179.408 349.679 181.527ZM340.233 173.061L345.006 176.594C346.483 174.974 348.345 173.865 350.347 173.297L349.463 167.418C345.964 168.244 342.705 170.154 340.233 173.061ZM351.802 167.028L352.684 172.888C354.826 172.735 357.019 173.177 358.999 174.253L362.536 169.475C359.22 167.462 355.45 166.674 351.802 167.028ZM360.962 175.594C362.766 177.119 363.994 179.092 364.605 181.226L370.487 180.356C369.619 176.725 367.587 173.349 364.48 170.842L360.962 175.594Z" fill="white"/>
<path d="M111.01 189.915C112.44 191.069 112.551 193.223 111.245 194.536L110.157 195.634C108.431 197.381 108.105 200.132 109.527 202.124C111.364 204.68 114.988 204.87 117.114 202.722L118.087 201.736C119.417 200.394 121.64 200.522 122.785 202.031C123.341 202.775 123.894 203.541 124.432 204.294C125.476 205.812 124.977 207.917 123.363 208.815L121.995 209.568C119.856 210.762 118.76 213.324 119.563 215.623C120.594 218.602 124.025 219.809 126.654 218.342L127.857 217.684C129.527 216.754 131.612 217.515 132.277 219.289C132.604 220.159 132.919 221.04 133.203 221.923C133.797 223.669 132.726 225.548 130.917 225.957L129.276 226.334C126.6 226.929 124.899 229.61 125.49 232.288C123.933 234.391 125.816 237.3 128.369 236.725L132.74 235.744C134.589 235.326 136.388 236.649 136.528 238.53C136.6 239.46 136.646 240.389 136.68 241.326C136.742 243.177 135.189 244.677 133.343 244.566L131.667 244.454C128.946 244.285 126.556 246.38 126.371 249.102C126.19 251.853 128.269 254.22 130.994 254.388L132.363 254.479C134.255 254.603 135.6 256.371 135.197 258.231C135.011 259.142 134.787 260.039 134.574 260.945C134.11 262.747 132.194 263.76 130.461 263.135L128.879 262.546C126.31 261.611 123.433 262.94 122.483 265.52C121.543 268.096 122.863 270.955 125.428 271.899L126.699 272.369C128.483 273.022 129.27 275.101 128.372 276.781C127.925 277.588 127.467 278.395 126.982 279.206C126.041 280.787 123.935 281.234 122.445 280.132L121.105 279.14C118.9 277.508 115.78 277.976 114.141 280.19C112.504 282.401 112.963 285.528 115.168 287.16L116.251 287.962C117.765 289.083 117.941 291.306 116.62 292.657C115.961 293.326 115.288 293.972 114.606 294.607C113.266 295.876 111.109 295.696 109.991 294.214L109.064 292.984C107.6 291.043 104.905 290.33 102.753 291.457C99.9411 292.919 99.2197 296.494 101.032 298.904L101.859 300C103.009 301.513 102.536 303.69 100.884 304.613C100.061 305.067 99.2355 305.503 98.4015 305.919C96.7517 306.752 94.7535 305.979 94.0956 304.249L93.4941 302.664C92.5345 300.109 89.6461 298.811 87.0968 299.784C84.5326 300.762 83.2235 303.661 84.1964 306.206L84.6622 307.482C85.3414 309.261 84.2751 311.226 82.4337 311.65C81.524 311.845 80.6155 312.036 79.693 312.203C77.8844 312.538 76.1766 311.225 76.0351 309.367L75.9159 307.693C75.7063 304.965 73.3158 302.912 70.5848 303.123C67.8629 303.348 65.7896 305.753 66.0023 308.48L66.1027 309.841C66.2454 311.736 64.6803 313.322 62.7841 313.21C61.8546 313.155 60.9282 313.07 60.0009 312.977C58.1673 312.783 56.9053 311.044 57.286 309.236L57.6556 307.569C58.2119 304.889 56.4967 302.25 53.8227 301.681C51.1419 301.12 48.4945 302.854 47.9251 305.533L47.6377 306.869C47.235 308.734 45.2932 309.815 43.5048 309.17C42.6369 308.846 41.7768 308.515 40.9079 308.162C39.2076 307.453 38.4827 305.421 39.3581 303.794L40.1717 302.302C41.4754 299.892 40.5758 296.852 38.1796 295.555C35.7657 294.266 32.7272 295.177 31.433 297.587L30.7811 298.797C29.8774 300.456 27.7233 300.972 26.2038 299.848C26.1959 299.842 26.1822 299.832 26.1773 299.828C25.4293 299.274 24.6827 298.706 23.9672 298.125C22.5348 296.96 22.4283 294.811 23.7294 293.498L24.915 292.31C26.841 290.347 26.8233 287.183 24.8893 285.265C22.9425 283.337 19.7962 283.368 17.8611 285.323L16.8893 286.292C15.5659 287.654 13.3291 287.506 12.1941 286.005C11.6315 285.252 11.0816 284.515 10.5608 283.744C9.49998 282.227 9.99525 280.119 11.6101 279.227L13.1061 278.391C15.5017 277.072 16.3789 274.015 15.0695 271.626C13.7523 269.237 10.7119 268.361 8.31437 269.698L7.1191 270.354C5.45362 271.286 3.36455 270.523 2.69511 268.745C2.3646 267.867 2.06048 267.002 1.7606 266.113C1.18535 264.36 2.25362 262.485 4.05246 262.074L5.71027 261.703C8.37278 261.098 10.078 258.42 9.49073 255.763C11.0562 253.648 9.1717 250.732 6.59938 251.305L2.23403 252.289C0.383351 252.709 -1.4054 251.385 -1.54909 249.488C-1.61674 248.568 -1.66909 247.64 -1.71047 246.715C-1.76913 244.858 -0.214721 243.352 1.62982 243.468L3.16705 243.568C5.59778 243.726 7.89663 242.16 8.47031 239.778C9.21195 236.712 6.99412 233.832 3.98852 233.65L2.61629 233.559C0.729372 233.445 -0.629088 231.66 -0.218745 229.806C-0.0307732 228.894 0.18496 227.983 0.418583 227.086C0.868448 225.28 2.78298 224.279 4.52162 224.911L5.99853 225.459C8.25727 226.279 10.8567 225.449 12.0959 223.36C13.7234 220.61 12.4066 217.185 9.5532 216.144L8.27968 215.67C6.49248 215.021 5.70373 212.946 6.61636 211.271C7.05291 210.45 7.5114 209.63 7.98759 208.835C8.93359 207.238 11.0473 206.807 12.5286 207.903L13.8866 208.908C16.0846 210.535 19.2099 210.054 20.8427 207.848C22.4727 205.646 22.0189 202.519 19.8209 200.892L18.7244 200.08C17.2058 198.956 17.0318 196.728 18.3597 195.385C19.0194 194.711 19.6879 194.061 20.3693 193.427C21.7139 192.15 23.8667 192.347 24.9785 193.81L25.9163 195.057C27.382 197 30.0622 197.703 32.2284 196.579C35.0248 195.108 35.7499 191.535 33.9412 189.138L33.1222 188.05C31.9719 186.523 32.4338 184.337 34.0874 183.419C34.9131 182.965 35.7344 182.539 36.5776 182.115C38.2294 181.284 40.2337 182.063 40.8838 183.787L41.4283 185.252C42.2895 187.533 44.6524 188.97 47.0565 188.494C50.1493 187.883 51.8398 184.651 50.7781 181.827L50.3102 180.559C49.6383 178.782 50.6934 176.819 52.5409 176.401C53.4459 176.198 54.3565 176.014 55.2798 175.846C57.0981 175.513 58.7951 176.823 58.938 178.668L59.0546 180.207C59.237 182.643 61.092 184.69 63.5341 184.913C66.6658 185.193 69.1989 182.571 68.9752 179.561L68.8751 178.202C68.7299 176.307 70.2979 174.717 72.1812 174.837C73.1157 174.895 74.0425 174.972 74.9737 175.067C76.8034 175.259 78.0754 177.013 77.6818 178.81L77.3258 180.468C76.7605 183.146 78.4774 185.798 81.1505 186.365C83.2026 187.884 86.1482 186.765 86.6782 184.26L87.3376 181.168C87.7423 179.311 89.686 178.225 91.4672 178.88C92.3423 179.194 93.201 179.527 94.0686 179.884C95.7716 180.587 96.4909 182.611 95.6172 184.25L94.8053 185.742C93.3624 188.403 94.6078 191.817 97.5894 192.823C99.9092 193.604 102.449 192.48 103.609 190.324L104.193 189.246C105.096 187.588 107.267 187.078 108.771 188.191C108.782 188.199 108.791 188.206 108.803 188.215C109.555 188.768 110.285 189.329 111.01 189.915ZM56.043 219.165L67.3594 238.582L73.0859 216.892C67.3167 215.845 61.3315 216.635 56.043 219.165ZM93.2259 232.264L73.7981 243.514L95.5284 249.306C96.5717 243.529 95.7626 237.548 93.2259 232.264ZM71.599 239.726L91.0094 228.471C89.3062 226.022 87.2044 223.808 84.6705 221.933C82.3648 220.226 79.8962 218.915 77.335 218.035L71.599 239.726ZM93.194 209.768C91.232 208.315 88.4473 208.721 86.9899 210.69C85.5302 212.662 85.955 215.444 87.9171 216.896C89.8909 218.357 92.6784 217.953 94.1381 215.981C95.5956 214.013 95.1678 211.229 93.194 209.768ZM105.984 242.824C108.418 242.476 110.095 240.21 109.715 237.784C109.352 235.355 107.092 233.682 104.67 234.05C102.251 234.404 100.574 236.669 100.938 239.09C101.298 241.508 103.557 243.181 105.984 242.824ZM101.597 269.216C103.059 267.241 102.642 264.473 100.669 263.012C98.6976 261.553 95.9274 261.962 94.4655 263.936C93.0124 265.899 93.4235 268.677 95.3954 270.137C97.3682 271.597 100.144 271.179 101.597 269.216ZM90.5236 260.865C92.2296 258.561 93.5206 256.106 94.3994 253.539L72.6791 247.756L83.9822 267.19C86.4411 265.5 88.6588 263.385 90.5236 260.865ZM43.0322 256.287L62.4253 245.026L40.7205 239.253C39.6698 245.015 40.4817 250.992 43.0322 256.287ZM48.3513 276.56C49.8074 274.593 49.374 271.813 47.4081 270.358C45.4401 268.901 42.6542 269.298 41.1982 271.265C39.7407 273.234 40.1704 276.02 42.1384 277.476C44.1043 278.932 46.8938 278.529 48.3513 276.56ZM51.5895 266.619C53.8795 268.314 56.3608 269.61 58.9067 270.511L64.6372 248.823L45.2315 260.07C46.9309 262.528 49.0605 264.747 51.5895 266.619ZM80.2038 269.381L68.8965 249.93L63.1584 271.649C68.9428 272.71 74.9114 271.913 80.2038 269.381ZM73.6109 285.663C76.0332 285.292 77.698 283.043 77.3412 280.624C76.9715 278.194 74.7167 276.525 72.2922 276.887C69.8634 277.244 68.1987 279.493 68.5618 281.926C68.9266 284.347 71.1814 286.016 73.6109 285.663ZM29.3468 244.424C26.9154 244.787 25.2492 247.038 25.6099 249.472C25.9779 251.903 28.2288 253.569 30.6659 253.215C33.0945 252.845 34.7607 250.594 34.4027 248.167C34.0225 245.742 31.7707 244.075 29.3468 244.424ZM33.7207 218.036C32.2646 220.003 32.6889 222.775 34.6647 224.238C36.6336 225.695 39.407 225.29 40.863 223.323C42.3227 221.351 41.9098 218.567 39.9409 217.11C37.9642 215.647 35.1796 216.065 33.7207 218.036ZM45.7241 227.703C44.0413 229.977 42.7235 232.438 41.8414 235.006L63.5599 240.795L52.2624 221.352C49.795 223.049 47.6013 225.167 45.7241 227.703ZM61.7156 201.588C59.2957 201.946 57.6208 204.209 57.9868 206.626C58.3604 209.059 60.6201 210.731 63.0368 210.364C65.4671 210.017 67.142 207.754 66.7657 205.326C66.4145 202.904 64.1548 201.231 61.7156 201.588Z" fill="white"/>
<path d="M-18.7603 188.746L-13.8585 185.33L-10.5455 188.156L-13.1534 193.532C-12.3404 194.428 -11.5818 195.385 -10.8784 196.398L-4.98109 195.048L-2.97643 198.91L-7.48337 202.935C-7.0166 204.213 -6.64794 205.504 -6.37106 206.805L-0.480314 207.861L-0.133964 212.195L-5.78558 214.146C-5.84663 215.365 -5.98644 216.575 -6.20259 217.77L-1.13238 220.967L-2.44415 225.108L-8.42381 224.786C-8.9885 225.997 -9.63867 227.172 -10.3696 228.297L-6.94038 233.207L-9.76208 236.509L-15.1466 233.89C-16.0432 234.698 -16.9986 235.457 -18.0113 236.157L-16.647 242.054L-20.506 244.048L-24.5459 239.533C-25.8223 239.996 -27.1149 240.362 -28.4151 240.637L-29.4562 246.521L-33.7943 246.857L-35.7594 241.201C-36.9804 241.137 -38.1913 240.994 -39.3872 240.777L-42.5762 245.837L-46.7238 244.515L-46.4155 238.54C-47.6287 237.974 -48.8059 237.322 -49.9346 236.587L-54.8383 240.001L-58.1497 237.176L-55.5425 231.801C-56.3533 230.902 -57.114 229.948 -57.8167 228.933L-63.713 230.284L-65.7194 226.422L-61.2093 222.395C-61.6758 221.119 -62.0472 219.827 -62.3241 218.527L-68.2145 217.472L-68.5626 213.139L-62.9093 211.187C-62.8482 209.968 -62.7084 208.758 -62.4939 207.563L-67.5642 204.366L-66.251 200.223L-60.2703 200.546C-59.7073 199.335 -59.0572 198.16 -58.3256 197.034L-61.7554 192.125L-58.9347 188.822L-53.5495 191.44C-52.6529 190.632 -51.6992 189.874 -50.6882 189.174L-52.0507 183.277L-48.1901 181.282L-44.1509 185.799C-42.8755 185.335 -41.5829 184.968 -40.2815 184.697L-39.2396 178.812L-34.9032 178.475L-32.9374 184.13C-31.7174 184.194 -30.5055 184.338 -29.311 184.556L-26.122 179.497L-21.9762 180.818L-22.2844 186.793C-21.0669 187.36 -19.8907 188.011 -18.7603 188.746ZM-34.4324 203.024C-32.6537 202.992 -30.4334 203.783 -29.3782 204.405L-22.0323 194.481C-27.0196 190.981 -31.4156 190.241 -36.3439 190.644L-34.4324 203.024ZM-37.4586 209.922C-38.8059 211.742 -38.4169 214.324 -36.591 215.676C-34.766 217.027 -32.1835 216.644 -30.8362 214.824C-29.4875 213.002 -29.8762 210.421 -31.7012 209.07C-33.5271 207.718 -36.1099 208.1 -37.4586 209.922ZM-20.0908 195.953L-27.4658 205.916C-26.6505 206.862 -25.3227 208.884 -24.9741 210.666L-12.6062 208.867C-13.4989 203.959 -16.3637 199.107 -20.0908 195.953ZM-12.7817 211.221L-25.3769 213.288C-25.4077 214.75 -25.4076 215.702 -26.6945 217.781L-16.4389 225.373C-13.1011 220.266 -12.3611 215.894 -12.7817 211.221ZM-17.1225 226.382L-27.3782 218.79C-28.949 220.659 -30.0247 220.961 -31.6967 221.434L-29.8146 234.364C-24.9097 233.309 -20.1008 230.24 -17.1225 226.382ZM-31.546 234.527L-33.4457 221.707C-35.1309 221.811 -37.2397 221.167 -38.3716 220.649L-46.1698 231.184C-42.0615 233.823 -36.5378 235.14 -31.546 234.527ZM-48.1432 229.755L-40.3761 219.262C-41.2842 218.441 -42.5416 216.768 -43.0596 215.199L-56.0196 217.069C-54.9836 221.945 -52.9464 226.007 -48.1432 229.755ZM-56.2897 215.37L-43.5326 213.547C-43.7437 211.556 -43.5696 209.834 -42.2611 207.771L-52.4942 200.196C-55.3097 204.176 -56.9188 210.129 -56.2897 215.37ZM-51.7281 199.249L-41.495 206.825C-39.8536 205.008 -38.3224 204.199 -36.6389 203.802L-38.6649 191.7C-43.5443 192.546 -47.8038 194.576 -51.7281 199.249Z" fill="white"/>
</g>
</svg>
