<svg width="1823" height="879" viewBox="0 0 1823 879" fill="none" xmlns="http://www.w3.org/2000/svg">
<mask id="mask0_193_791" style="mask-type:alpha" maskUnits="userSpaceOnUse" x="0" y="0" width="1823" height="879">
<rect y="0.583984" width="1823" height="878" fill="#666666"/>
</mask>
<g mask="url(#mask0_193_791)">
<rect y="0.583984" width="1823" height="1069" fill="url(#paint0_radial_193_791)"/>
<rect y="0.583984" width="1823" height="476" fill="url(#paint1_linear_193_791)"/>
<g opacity="0.05">
<path d="M50.9233 627.385C59.8608 624.581 69.4206 629.59 72.2317 638.548C75.0439 647.511 70.0572 657.082 61.1216 659.885C52.1821 662.69 42.6229 657.683 39.8106 648.721C36.9996 639.762 41.9838 630.19 50.9233 627.385ZM58.2821 650.836C62.2404 649.594 64.451 645.35 63.2054 641.38C61.9591 637.409 57.7217 635.194 53.7634 636.436C49.8012 637.679 47.5932 641.918 48.8389 645.888C50.0845 649.858 54.3199 652.08 58.2821 650.836Z" fill="white"/>
<path d="M7.7654 662.019L-3.17847 661.79L-5.03366 654.033L4.62125 648.884C4.38837 646.682 4.29365 644.448 4.34521 642.187L-5.84165 637.824L-4.64279 629.944L6.37062 628.847C7.05847 626.452 7.90471 624.143 8.89595 621.918L1.31411 614.002L5.47386 607.214L15.946 610.419C17.3547 608.68 18.8639 607.038 20.4724 605.503L16.4153 595.302L22.8245 590.584L31.3297 597.511C33.4693 596.325 35.6977 595.286 37.9982 594.41L38.2155 583.442L45.9517 581.595L51.1009 591.278C53.2991 591.048 55.5319 590.956 57.7851 591.009L62.123 580.811L69.9887 582.018L71.0987 593.062C73.4858 593.752 75.7985 594.604 78.019 595.6L85.9056 588.011L92.6907 592.192L89.5004 602.684C91.2389 604.097 92.8778 605.611 94.4144 607.225L104.59 603.174L109.303 609.604L102.403 618.12C103.587 620.267 104.629 622.5 105.508 624.807L116.45 625.038L118.305 632.793L108.653 637.94C108.885 640.144 108.98 642.38 108.928 644.639L119.114 649L117.919 656.879L106.902 657.976C106.215 660.369 105.372 662.681 104.378 664.905L111.96 672.822L107.799 679.611L97.3259 676.403C95.9217 678.143 94.4099 679.783 92.8007 681.323L96.8597 691.523L90.4499 696.24L81.9441 689.31C79.8039 690.495 77.5755 691.533 75.2763 692.414L75.0583 703.38L67.3221 705.227L62.1728 695.544C59.9728 695.774 57.7419 695.866 55.4912 695.813L51.1514 706.012L43.2826 704.802L42.1738 693.762C39.7847 693.072 37.474 692.22 35.2528 691.221L27.3682 698.811L20.5843 694.633L23.7702 684.141C22.0348 682.731 20.3928 681.213 18.86 679.598L8.68076 683.651L3.96516 677.221L10.8664 668.707C9.68391 666.56 8.64629 664.327 7.7654 662.019ZM68.7072 681.888C89.9033 675.236 101.679 652.618 95.0121 631.371C88.3451 610.122 65.7596 598.286 44.5634 604.937C23.3692 611.588 11.5901 634.207 18.2571 655.456C24.926 676.704 47.5129 688.538 68.7072 681.888Z" fill="white"/>
<path d="M-268.509 291.646L-301.08 290.964L-306.605 267.878L-277.862 252.554C-278.561 245.998 -278.84 239.347 -278.685 232.624L-309.01 219.638L-305.444 196.186L-272.66 192.918C-270.618 185.795 -268.092 178.915 -265.143 172.296L-287.712 148.733L-275.328 128.528L-244.156 138.072C-239.972 132.897 -235.471 128.013 -230.686 123.438L-242.765 93.0734L-223.693 79.0341L-198.37 99.6537C-191.999 96.1262 -185.365 93.0357 -178.523 90.4249L-177.878 57.7803L-154.847 52.2879L-139.52 81.1036C-132.977 80.4199 -126.337 80.1466 -119.624 80.3084L-106.714 49.9522L-83.2993 53.5472L-79.994 86.4146C-72.8866 88.4684 -66.0083 91.0011 -59.4 93.9704L-35.9273 71.3838L-15.7338 83.824L-25.226 115.047C-20.0527 119.253 -15.1707 123.767 -10.5963 128.563L19.6919 116.503L33.7271 135.637L13.1876 160.985C16.7168 167.369 19.812 174.024 22.4258 180.881L55.0014 181.577L60.5205 204.658L31.786 219.974C32.4764 226.538 32.7597 233.19 32.608 239.914L62.9287 252.893L59.3656 276.348L26.5714 279.618C24.5315 286.735 22.0159 293.621 19.0599 300.238L41.6305 323.8L29.2482 344.009L-1.92837 334.458C-6.10945 339.636 -10.6128 344.517 -15.3923 349.098L-3.31501 379.461L-22.3915 393.496L-47.7123 372.875C-54.0832 376.405 -60.7168 379.495 -67.5571 382.11L-68.201 414.754L-91.2329 420.249L-106.56 391.431C-113.106 392.114 -119.743 392.39 -126.45 392.233L-139.366 422.591L-162.784 418.984L-166.085 386.126C-173.196 384.073 -180.068 381.535 -186.684 378.561L-210.158 401.15L-230.346 388.713L-220.861 357.486C-226.032 353.289 -230.916 348.77 -235.479 343.968L-265.771 356.029L-279.804 336.897L-259.263 311.553C-262.798 305.158 -265.887 298.514 -268.509 291.646ZM-87.1078 350.783C-24.0212 330.988 11.0342 263.669 -8.81046 200.425C-28.6557 137.178 -95.8873 101.953 -158.974 121.748C-222.06 141.543 -257.122 208.864 -237.276 272.11C-217.432 335.355 -150.194 370.578 -87.1078 350.783Z" fill="white"/>
<path d="M86.6603 295.018L73.2604 294.738L70.9894 285.244L82.8121 278.944C82.5253 276.246 82.4074 273.513 82.4672 270.745L70.0012 265.408L71.4687 255.756L84.9511 254.415C85.7918 251.48 86.8334 248.652 88.0451 245.934L78.765 236.24L83.8523 227.93L96.6727 231.857C98.3928 229.725 100.247 227.716 102.22 225.836L97.2487 213.344L105.098 207.568L115.506 216.052C118.133 214.605 120.855 213.327 123.668 212.255L123.939 198.831L133.411 196.571L139.713 208.42C142.407 208.143 145.134 208.03 147.9 208.096L153.208 195.612L162.837 197.089L164.198 210.609C167.126 211.448 169.95 212.497 172.664 213.716L182.318 204.421L190.63 209.539L186.724 222.381C188.849 224.116 190.861 225.967 192.738 227.943L205.199 222.984L210.964 230.849L202.525 241.279C203.976 243.899 205.247 246.638 206.319 249.46L219.718 249.753L221.991 259.247L210.168 265.545C210.454 268.245 210.571 270.978 210.504 273.742L222.983 279.088L221.513 288.732L208.025 290.075C207.188 293.002 206.149 295.836 204.936 298.556L214.217 308.246L209.13 316.564L196.303 312.631C194.587 314.762 192.733 316.764 190.762 318.658L195.731 331.142L187.883 336.918L177.473 328.432C174.851 329.891 172.124 331.158 169.312 332.233L169.041 345.658L159.571 347.925L153.268 336.064C150.573 336.347 147.847 336.455 145.084 336.397L139.776 348.882L130.145 347.397L128.785 333.883C125.856 333.04 123.034 331.997 120.308 330.768L110.651 340.064L102.354 334.941L106.254 322.099C104.125 320.372 102.116 318.518 100.24 316.538L87.7821 321.509L82.009 313.635L90.4581 303.211C89.0009 300.58 87.7366 297.848 86.6603 295.018ZM164.274 328.918C195.493 319.122 212.839 285.806 203.018 254.506C193.198 223.209 159.925 205.773 128.708 215.568C97.4849 225.365 80.1394 258.685 89.9594 289.981C99.7799 321.28 133.051 338.715 164.274 328.918Z" fill="white"/>
<path d="M163.468 326.346C193.224 317.009 209.818 285.142 200.456 255.306C191.096 225.476 159.27 208.794 129.513 218.131C99.7529 227.469 83.1595 259.342 92.5199 289.174C101.883 319.01 133.707 335.684 163.468 326.346ZM131.466 224.354C157.799 216.091 185.967 230.848 194.251 257.251C202.536 283.656 187.848 311.86 161.515 320.122C135.176 328.387 107.008 313.63 98.7234 287.226C90.4409 260.822 105.129 232.618 131.466 224.354Z" fill="white"/>
<path d="M-292.059 617.359L-288.781 616.824C-283.579 615.979 -279.517 611.59 -279.486 606.313C-279.441 599.499 -285.516 594.526 -291.936 595.566L-294.86 596.043C-298.894 596.7 -302.583 593.622 -302.665 589.531C-302.709 587.512 -302.709 585.499 -302.667 583.491C-302.587 579.498 -299.07 576.457 -295.115 576.956L-291.779 577.376C-286.551 578.031 -281.418 574.969 -279.896 569.917C-277.941 563.4 -282.377 556.909 -288.831 556.1L-291.755 555.731C-295.811 555.223 -298.496 551.224 -297.415 547.266C-296.885 545.328 -296.312 543.399 -295.707 541.49C-294.502 537.687 -290.276 535.769 -286.621 537.364L-283.284 538.818C-277.876 541.178 -271.533 538.675 -269.184 533.257C-263.795 531.566 -263.403 524.073 -268.589 521.813L-277.441 517.949C-281.189 516.319 -282.64 511.729 -280.5 508.247C-279.448 506.537 -278.366 504.847 -277.247 503.184C-275.024 499.871 -270.419 499.219 -267.36 501.78L-264.577 504.111C-260.05 507.899 -253.252 507.29 -249.476 502.76C-245.704 498.225 -246.32 491.417 -250.848 487.628L-253.123 485.726C-256.259 483.102 -256.365 478.294 -253.331 475.559C-251.844 474.218 -250.327 472.9 -248.778 471.613C-245.715 469.066 -241.113 469.735 -238.895 473.061L-236.86 476.11C-233.578 481.022 -226.883 482.355 -221.99 479.075L-221.991 479.072C-217.092 475.79 -215.77 469.088 -219.051 464.176L-220.69 461.723C-222.966 458.32 -221.715 453.673 -218.029 451.909C-216.228 451.042 -214.404 450.216 -212.553 449.419C-208.892 447.846 -204.671 449.786 -203.476 453.597L-202.384 457.075C-200.615 462.715 -194.567 465.884 -188.944 464.119C-183.319 462.354 -180.166 456.297 -181.935 450.658L-182.818 447.847C-184.044 443.939 -181.538 439.844 -177.505 439.187C-175.522 438.859 -173.535 438.573 -171.552 438.332C-167.597 437.844 -164.084 440.907 -164.009 444.896L-163.943 448.247C-163.844 453.522 -160.08 458.187 -154.871 458.975C-148.149 460.003 -142.38 454.689 -142.503 448.171L-142.557 445.202C-142.637 441.104 -139.075 437.884 -135.014 438.394C-133.021 438.647 -131.034 438.941 -129.053 439.269C-125.128 439.93 -122.622 443.854 -123.67 447.697L-124.634 451.237C-126.188 456.932 -122.805 462.876 -117.117 464.434C-111.426 465.998 -105.507 462.616 -103.951 456.922L-103.181 454.093C-102.108 450.137 -97.7801 448.054 -94.0299 449.691C-92.1923 450.494 -90.3707 451.334 -88.5663 452.207C-84.9786 453.947 -83.6735 458.417 -85.7658 461.808L-87.6673 464.902C-90.7576 469.929 -89.1777 476.578 -84.1627 479.685C-79.1394 482.791 -72.5045 481.218 -69.4103 476.19L-67.8686 473.686C-65.7248 470.203 -60.9947 469.423 -57.8531 472.045C-56.3138 473.329 -54.7969 474.651 -53.306 475.998C-50.3477 478.677 -50.3514 483.333 -53.3099 486.01L-56.0167 488.449C-60.3998 492.396 -60.756 499.219 -56.8117 503.615C-52.8685 508.008 -46.0525 508.377 -41.6732 504.431L-39.4716 502.45C-36.4353 499.716 -31.6718 500.299 -29.3936 503.709C-28.2788 505.377 -27.197 507.069 -26.1478 508.791C-24.0658 512.197 -25.377 516.666 -28.9716 518.383L-32.2637 519.963C-37.5785 522.514 -39.8405 528.958 -37.2919 534.291C-34.7355 539.621 -28.3037 541.893 -22.9891 539.348L-20.3375 538.077C-16.6737 536.317 -12.2613 538.192 -11.0412 542.081C-11.0339 542.104 -11.0249 542.133 -11.0176 542.156C-10.4109 544.09 -9.84704 546.022 -9.32551 547.961C-8.29324 551.798 -10.8266 555.681 -14.7405 556.32L-18.3233 556.9C-24.1418 557.846 -28.1258 563.388 -27.1737 569.22C-26.224 575.05 -20.6831 579.049 -14.8685 578.104L-11.9432 577.631C-7.90944 576.976 -4.22001 580.054 -4.13636 584.144C-4.09276 586.161 -4.09198 588.177 -4.13128 590.179C-4.21098 594.175 -7.72985 597.214 -11.6838 596.719L-15.3256 596.259C-21.1763 595.521 -26.5571 599.713 -27.2827 605.575C-28.0102 611.437 -23.8194 616.835 -17.9642 617.574L-15.0455 617.938C-10.9863 618.451 -8.30276 622.451 -9.38343 626.404C-9.91543 628.343 -10.483 630.27 -11.0919 632.18C-12.2952 635.979 -16.5235 637.899 -20.1758 636.304L-23.5128 634.85C-28.9191 632.496 -35.2622 634.999 -37.6122 640.412C-43.0019 642.103 -43.3924 649.6 -38.2109 651.86L-29.3598 655.722C-25.6103 657.356 -24.1563 661.943 -26.2981 665.425C-27.3461 667.132 -28.4339 668.819 -29.549 670.488C-31.7715 673.794 -36.3759 674.448 -39.4387 671.889L-41.9877 669.757C-46.0375 666.369 -52.0058 666.162 -56.0163 669.587C-61.1818 674.005 -60.9467 681.861 -55.9501 686.038L-53.6784 687.941C-50.5362 690.565 -50.4313 695.371 -53.4652 698.112C-54.9518 699.454 -56.4706 700.768 -58.019 702.055C-61.082 704.602 -65.6885 703.932 -67.9037 700.608L-69.7942 697.778C-72.6907 693.444 -78.2655 691.573 -83.0387 693.635C-89.3569 696.359 -91.3945 704.032 -87.7479 709.492L-86.1103 711.948C-83.8339 715.353 -85.0874 719.998 -88.773 721.763C-90.5787 722.622 -92.4017 723.453 -94.2509 724.247C-97.907 725.822 -102.131 723.879 -103.327 720.068L-104.417 716.592C-106.186 710.954 -112.237 707.788 -117.858 709.552C-123.484 711.317 -126.637 717.371 -124.868 723.01L-123.987 725.819C-122.761 729.725 -125.27 733.821 -129.301 734.484C-131.283 734.809 -133.269 735.095 -135.252 735.334C-139.211 735.823 -142.723 732.762 -142.8 728.767L-142.86 725.422C-142.964 720.145 -146.723 715.483 -151.934 714.689C-158.657 713.665 -164.427 718.98 -164.301 725.496L-164.246 728.466C-164.168 732.566 -167.731 735.789 -171.79 735.271C-173.785 735.02 -175.771 734.727 -177.751 734.399C-181.681 733.735 -184.181 729.814 -183.132 725.968L-182.249 722.732C-180.861 717.637 -183.163 712.108 -187.942 709.875C-194.109 706.994 -201.137 710.463 -202.852 716.747L-203.622 719.575C-204.699 723.527 -209.025 725.616 -212.774 723.977C-214.611 723.176 -216.437 722.335 -218.238 721.459C-221.827 719.721 -223.131 715.253 -221.04 711.854L-219.302 709.028C-216.54 704.534 -217.194 698.58 -221.152 695.092C-226.262 690.589 -233.984 691.933 -237.394 697.473L-238.937 699.98C-241.08 703.461 -245.814 704.242 -248.949 701.621C-250.491 700.334 -252.006 699.019 -253.496 697.669C-256.458 694.985 -256.451 690.33 -253.492 687.657L-250.787 685.216C-246.402 681.271 -246.049 674.445 -249.994 670.047C-251.647 664.777 -258.187 662.979 -262.285 666.671L-267.33 671.217C-270.366 673.953 -275.133 673.363 -277.408 669.958C-278.521 668.289 -279.606 666.593 -280.659 664.873C-282.735 661.465 -281.421 657.005 -277.832 655.278L-274.537 653.7C-268.673 650.885 -266.529 643.336 -270.455 637.768C-273.497 633.457 -279.342 632.177 -284.091 634.453L-286.462 635.591C-290.13 637.351 -294.541 635.473 -295.761 631.584C-295.768 631.561 -295.776 631.536 -295.785 631.507C-296.391 629.577 -296.957 627.644 -297.475 625.708C-298.511 621.874 -295.977 617.993 -292.059 617.359ZM-190.589 491.541C-212.654 500.137 -230.212 515.746 -241.491 534.986L-210.688 551.122C-203.609 539.729 -193.147 530.379 -180.153 524.791L-190.587 491.54L-190.589 491.541ZM-177.324 487.379L-166.89 520.629C-153.032 517.792 -139.106 519.492 -126.79 524.797L-110.726 493.955C-130.973 484.608 -154.303 481.828 -177.324 487.379ZM-98.5109 500.634L-114.627 531.581C-103.963 539.067 -95.373 549.668 -90.3836 562.597L-57.2737 552.208C-65.2253 530.17 -80.0395 512.417 -98.5109 500.634ZM-60.4591 629.831C-51.4974 610.286 -48.628 587.862 -53.4266 565.604L-86.7063 576.046C-84.5425 589.096 -86.3068 602.105 -91.2608 613.69L-60.4591 629.831ZM-116.127 682.413C-95.2532 674.284 -78.4174 659.878 -67.1138 642.062L-98.0209 625.869C-105.013 635.885 -114.737 644.083 -126.561 649.162L-116.127 682.413ZM-136.021 642.236C-105.572 632.682 -88.6635 600.202 -98.24 569.681C-107.813 539.17 -140.248 522.171 -170.697 531.725C-201.136 541.276 -218.054 573.761 -208.48 604.272C-198.904 634.792 -166.461 651.787 -136.021 642.236ZM-129.392 686.575L-139.825 653.324C-152.435 655.912 -165.096 654.738 -176.556 650.512L-192.676 681.46C-173.218 689.624 -151.168 691.829 -129.392 686.575ZM-205.122 675.222L-189.06 644.379C-199.746 637.702 -208.627 628.031 -214.3 616.084L-247.585 626.528C-238.806 647.535 -223.641 664.3 -205.122 675.222ZM-218.972 602.945C-222.26 589.484 -221.27 575.875 -216.795 563.639L-247.699 547.446C-256.13 567.668 -258.148 590.704 -252.082 613.334L-218.972 602.945Z" fill="white"/>
<path d="M-22.4464 491.954C-23.2373 489.007 -21.2806 486.009 -18.245 485.523L-15.7111 485.113C-11.6868 484.455 -8.56058 481.083 -8.52129 477.02C-8.48889 471.793 -13.1655 467.995 -18.1192 468.799L-20.3889 469.172C-23.4855 469.673 -26.343 467.329 -26.4056 464.183C-26.4231 462.642 -26.4171 461.073 -26.4033 459.536C-26.3198 456.479 -23.5937 454.142 -20.5497 454.514L-17.9777 454.841C-13.9391 455.329 -9.96519 452.963 -8.79517 449.092C-7.26668 444.086 -10.6904 439.113 -15.6532 438.51L-17.9112 438.218C-21.0611 437.833 -23.1147 434.774 -22.2742 431.744C-21.8615 430.256 -21.4239 428.766 -20.9419 427.303C-20.0323 424.379 -16.758 422.904 -13.9311 424.124L-11.3586 425.223C-7.1869 427.04 -2.28285 425.105 -0.458887 420.934C3.68616 419.633 4.00341 413.889 0.0155456 412.164L-6.80918 409.207C-9.69953 407.961 -10.821 404.427 -9.16963 401.766C-8.35822 400.447 -7.51082 399.155 -6.6417 397.865C-4.9156 395.32 -1.36371 394.825 1.00431 396.778L3.14496 398.568C6.63058 401.455 11.8862 400.978 14.7948 397.507C17.7279 393.992 17.2507 388.783 13.7581 385.894L12.0109 384.433C9.59148 382.417 9.51538 378.729 11.874 376.626C13.0144 375.586 14.1915 374.602 15.3633 373.594C17.7482 371.629 21.3091 372.142 23.024 374.675L24.5716 377.013C27.1052 380.778 32.2657 381.808 36.0616 379.273C39.8415 376.735 40.8656 371.608 38.3456 367.833L37.0988 365.96C35.3438 363.34 36.319 359.78 39.1662 358.403C40.5555 357.758 41.9587 357.122 43.4024 356.508C46.2113 355.307 49.4753 356.765 50.3963 359.7L51.2253 362.342C52.5889 366.687 57.2341 369.109 61.5972 367.74C65.9565 366.372 68.3972 361.727 67.0335 357.382L66.3639 355.247C65.4271 352.262 67.3643 349.106 70.4586 348.585C71.9964 348.331 73.5314 348.123 75.0667 347.936C78.1063 347.544 80.8256 349.894 80.8766 352.975L80.9183 355.533C80.985 359.569 83.9049 363.159 87.8955 363.751C93.0981 364.537 97.5606 360.445 97.4842 355.439L97.4452 353.16C97.3814 350.005 100.145 347.545 103.263 347.922C104.812 348.116 106.346 348.338 107.873 348.595C110.9 349.091 112.827 352.081 112.019 355.046L111.277 357.761C110.067 362.128 112.674 366.694 117.046 367.88C121.444 369.074 126.034 366.463 127.216 362.097L127.839 359.928C128.667 356.877 132.018 355.283 134.904 356.514C136.315 357.141 137.721 357.773 139.123 358.45C141.877 359.769 142.886 363.2 141.259 365.832L139.784 368.195C137.398 372.062 138.599 377.154 142.47 379.54C146.343 381.899 151.477 380.697 153.857 376.83L155.053 374.905C156.714 372.222 160.365 371.623 162.8 373.628C163.994 374.61 165.154 375.63 166.308 376.661C168.578 378.714 168.572 382.282 166.294 384.336L164.169 386.211C160.802 389.264 160.524 394.483 163.557 397.86C166.606 401.234 171.854 401.495 175.237 398.456L176.929 396.944C179.292 394.835 182.955 395.282 184.725 397.896C185.573 399.179 186.404 400.463 187.224 401.787C188.814 404.4 187.8 407.837 185.034 409.164L182.484 410.371C178.378 412.332 176.615 417.29 178.562 421.374C180.542 425.463 185.51 427.211 189.602 425.242L191.66 424.255C194.495 422.912 197.891 424.324 198.831 427.319C198.835 427.335 198.844 427.362 198.847 427.371C199.31 428.846 199.757 430.338 200.149 431.817C200.932 434.78 198.974 437.769 195.945 438.259L193.192 438.695C188.688 439.447 185.619 443.71 186.34 448.175C187.068 452.665 191.321 455.699 195.829 454.967L198.08 454.617C201.187 454.083 204.045 456.468 204.101 459.592C204.12 461.152 204.137 462.679 204.083 464.222C204.023 467.296 201.298 469.641 198.259 469.259L195.435 468.918C190.929 468.347 186.764 471.592 186.186 476.078C185.619 480.572 188.843 484.72 193.367 485.269L195.613 485.557C198.758 485.935 200.816 489.001 199.977 492.041C199.562 493.543 199.125 495 198.659 496.486C197.717 499.402 194.45 500.874 191.634 499.668L189.047 498.544C184.882 496.754 179.975 498.681 178.167 502.821C173.998 504.128 173.676 509.885 177.69 511.629L184.509 514.577C187.404 515.822 188.51 519.348 186.849 522.033C186.04 523.334 185.203 524.631 184.355 525.913C182.618 528.463 179.059 528.965 176.698 527.005L174.732 525.369C171.624 522.781 167.009 522.635 163.91 525.271C159.918 528.66 160.079 534.693 163.935 537.875L165.688 539.339C168.108 541.338 168.187 545.061 165.823 547.148C164.68 548.187 163.499 549.2 162.309 550.176C159.94 552.159 156.392 551.631 154.677 549.083L153.23 546.905C151 543.596 146.701 542.168 142.995 543.761C138.123 545.86 136.542 551.744 139.354 555.93L140.6 557.812C142.364 560.429 141.394 563.985 138.532 565.341C137.144 566.016 135.727 566.668 134.311 567.27C131.48 568.489 128.221 567.001 127.305 564.082L126.465 561.405C125.106 557.073 120.441 554.664 116.094 556.028C111.754 557.39 109.305 562.031 110.665 566.363L111.343 568.524C112.282 571.517 110.338 574.677 107.242 575.182C105.698 575.442 104.166 575.66 102.632 575.844C99.5784 576.245 96.8825 573.875 96.8201 570.825L96.7809 568.235C96.7129 564.195 93.8035 560.631 89.7971 560.022C84.6069 559.262 80.1407 563.349 80.2251 568.334L80.2606 570.595C80.3112 573.769 77.5545 576.251 74.4384 575.866C72.8862 575.668 71.3679 575.437 69.8212 575.182C66.7923 574.683 64.8638 571.678 65.6766 568.729L66.3784 566.23C67.4517 562.328 65.6852 558.09 61.9939 556.378C57.2456 554.175 51.8178 556.859 50.4818 561.688L49.8704 563.847C49.0356 566.887 45.7001 568.492 42.8123 567.246C41.3992 566.634 39.9976 565.99 38.594 565.314C35.8279 563.984 34.8317 560.565 36.4426 557.951L37.7912 555.77C39.9273 552.323 39.4394 547.762 36.3794 545.076C32.45 541.64 26.4878 542.682 23.8454 546.94L22.651 548.863C20.9941 551.547 17.3354 552.148 14.9248 550.146C13.7276 549.155 12.5589 548.146 11.4022 547.108C9.13431 545.061 9.1417 541.464 11.4266 539.437L13.5254 537.56C16.9016 534.519 17.1894 529.282 14.157 525.907C12.8879 521.862 7.84095 520.484 4.68053 523.329L0.773468 526.833C-1.58501 528.93 -5.25525 528.487 -7.00571 525.868C-7.87288 524.59 -8.70024 523.305 -9.51534 521.977C-11.1138 519.369 -10.1008 515.95 -7.32641 514.605L-4.77834 513.396C-0.240008 511.234 1.42536 505.436 -1.59195 501.17C-3.94225 497.855 -8.44938 496.88 -12.1132 498.64L-13.9517 499.516C-16.7843 500.858 -20.1965 499.421 -21.1265 496.457C-21.1332 496.436 -21.1392 496.417 -21.1465 496.394C-21.6142 494.917 -22.0468 493.45 -22.4464 491.954ZM79.9149 506.432L83.7089 469.31L54.8204 492.822C61.5395 499.867 70.3449 504.656 79.9149 506.432ZM42.8181 452.504L79.8883 456.398L56.3869 427.383C49.3401 434.115 44.5797 442.932 42.8181 452.504ZM79.1373 463.631L42.0852 459.761C41.977 464.713 42.634 469.738 44.201 474.732C45.627 479.277 47.6589 483.449 50.2355 487.134L79.1373 463.631ZM20.8702 482.727C22.0837 486.594 26.2177 488.771 30.0984 487.553C33.9848 486.334 36.134 482.185 34.9206 478.318C33.6998 474.428 29.564 472.245 25.6775 473.465C21.7969 474.682 19.6495 478.836 20.8702 482.727ZM36.0199 425.86C32.4121 423.948 27.9467 425.35 26.0857 428.977C24.1974 432.593 25.5949 437.046 29.2059 438.921C32.7981 440.81 37.2635 439.409 39.1401 435.804C41.0217 432.208 39.6242 427.754 36.0199 425.86ZM67.7049 394.73C63.8126 395.951 61.6658 400.074 62.886 403.962C64.1055 407.849 68.2232 410.007 72.1154 408.786C75.9845 407.572 78.148 403.442 76.9285 399.556C75.7084 395.668 71.574 393.516 67.7049 394.73ZM74.4037 416.761C69.8611 418.186 65.7294 420.218 62.0407 422.804L85.5374 451.798L89.3649 414.668C84.413 414.532 79.3689 415.203 74.4037 416.761ZM133.664 469.33L96.6301 465.485L120.116 494.45C127.158 487.744 131.911 478.929 133.664 469.33ZM146.343 436.922C142.467 438.139 140.33 442.294 141.546 446.169C142.763 450.047 146.89 452.237 150.767 451.021C154.648 449.803 156.794 445.645 155.577 441.766C154.361 437.891 150.224 435.705 146.343 436.922ZM132.28 447.098C130.864 442.585 128.8 438.42 126.264 434.722L97.3733 458.227L134.411 462.103C134.533 457.143 133.844 452.083 132.28 447.098ZM96.5772 415.421L92.7391 452.578L121.67 429.039C114.945 421.961 106.156 417.196 96.5772 415.421ZM121.342 400.013C117.729 398.143 113.296 399.534 111.41 403.13C109.53 406.753 110.925 411.197 114.533 413.081C118.141 414.976 122.574 413.585 124.465 409.965C126.341 406.36 124.947 401.916 121.342 400.013ZM140.434 498.628C144.052 500.518 148.489 499.126 150.384 495.506C152.266 491.885 150.874 487.448 147.257 485.541C143.637 483.663 139.2 485.055 137.308 488.663C135.448 492.289 136.841 496.727 140.434 498.628ZM108.769 529.767C112.646 528.551 114.787 524.416 113.565 520.521C112.347 516.641 108.229 514.473 104.352 515.69C100.466 516.909 98.2986 521.049 99.5163 524.929C100.739 528.825 104.885 530.986 108.769 529.767ZM102.11 505.059C106.591 503.653 110.766 501.637 114.46 499.054L90.9713 470.054L87.1271 507.191C92.0975 507.325 97.1121 506.627 102.11 505.059ZM55.1205 524.475C58.7179 526.36 63.1775 524.961 65.0489 521.36C66.926 517.729 65.5285 513.275 61.9257 511.406C58.3249 509.496 53.8653 510.896 51.9973 514.521C50.1003 518.116 51.4979 522.57 55.1205 524.475Z" fill="white"/>
<path d="M150.554 620.402L140.636 620.194L138.952 613.164L147.707 608.498C147.491 606.501 147.409 604.475 147.456 602.428L138.222 598.474L139.306 591.332L149.289 590.336C149.912 588.165 150.679 586.072 151.579 584.055L144.707 576.879L148.478 570.725L157.97 573.63C159.243 572.054 160.614 570.567 162.072 569.174L158.393 559.927L164.202 555.652L171.911 561.93C173.853 560.857 175.875 559.915 177.955 559.12L178.153 549.178L185.167 547.505L189.834 556.283C191.827 556.075 193.85 555.991 195.894 556.041L199.827 546.794L206.956 547.89L207.964 557.899C210.129 558.525 212.222 559.297 214.235 560.2L221.384 553.321L227.535 557.109L224.644 566.621C226.22 567.901 227.705 569.276 229.098 570.737L238.324 567.064L242.598 572.891L236.344 580.609C237.418 582.555 238.361 584.58 239.157 586.67L249.076 586.882L250.758 593.911L242.004 598.576C242.214 600.575 242.302 602.599 242.254 604.647L251.487 608.598L250.405 615.742L240.415 616.738C239.794 618.906 239.03 621.003 238.13 623.019L245.004 630.194L241.235 636.349L231.741 633.442C230.467 635.018 229.096 636.506 227.641 637.899L231.32 647.146L225.508 651.423L217.797 645.143C215.858 646.218 213.836 647.159 211.754 647.955L211.558 657.896L204.544 659.571L199.876 650.794C197.883 651.002 195.862 651.087 193.821 651.038L189.885 660.284L182.754 659.187L181.748 649.178C179.583 648.553 177.49 647.781 175.478 646.874L168.327 653.754L162.178 649.966L165.068 640.455C163.493 639.177 162.007 637.8 160.618 636.338L151.392 640.011L147.12 634.185L153.374 626.467C152.294 624.517 151.352 622.494 150.554 620.402ZM185.544 616.559C183.125 614.864 180.918 611.633 180.11 609.767L160.551 615.904C163.823 625.476 168.999 630.766 176.007 635.043L185.544 616.559ZM196.347 610.261C199.935 609.135 201.937 605.289 200.808 601.69C199.679 598.093 195.839 596.083 192.252 597.208C188.661 598.335 186.66 602.179 187.788 605.776C188.917 609.375 192.756 611.388 196.347 610.261ZM159.384 612.031L179.021 605.869C178.851 603.802 179.047 599.79 180.32 597.059L161.963 587.383C158.364 594.842 157.466 604.154 159.384 612.031ZM164.5 584.395L183.424 593.933C184.895 592.001 185.825 590.723 189.584 589.192L183.242 568.978C173.77 572.569 168.503 577.712 164.5 584.395ZM185.146 568.291L191.488 588.505C195.423 587.533 197.162 588.179 199.869 589.178L209.982 569.986C202.368 566.607 192.914 566.025 185.146 568.291ZM212.465 571.46L202.482 590.522C204.846 592.029 207.046 594.955 208.059 596.757L228.823 590.242C225.889 582.683 219.764 575.516 212.465 571.46ZM230.074 594.088L209.393 600.578C209.81 602.567 209.861 606.042 209.023 608.653L228.244 618.813C231.62 611.256 232.856 603.814 230.074 594.088ZM226.946 621.357L208.043 611.333C206.38 614.212 204.463 616.352 200.691 617.841L207.019 638.011C214.688 635.422 222.667 629.006 226.946 621.357ZM205.065 638.533L198.737 618.363C194.759 619.196 191.913 618.786 189.266 617.672L180.154 635.895C187.53 639.529 195.231 640.968 205.065 638.533Z" fill="white"/>
</g>
<g opacity="0.05">
<path d="M1648.04 242.455C1642.47 249.984 1631.79 251.563 1624.24 245.977C1616.69 240.389 1615.09 229.716 1620.66 222.189C1626.24 214.659 1636.91 213.078 1644.46 218.667C1652.01 224.253 1653.61 234.925 1648.04 242.455ZM1628.28 227.832C1625.82 231.166 1626.53 235.898 1629.87 238.374C1633.22 240.85 1637.95 240.146 1640.42 236.811C1642.89 233.474 1642.17 228.747 1638.83 226.272C1635.49 223.796 1630.76 224.494 1628.28 227.832Z" fill="white"/>
<path d="M1662.53 189.05L1671.52 182.792L1677.58 187.97L1672.81 197.816C1674.29 199.459 1675.69 201.209 1676.98 203.067L1687.78 200.596L1691.45 207.671L1683.19 215.042C1684.05 217.383 1684.72 219.747 1685.23 222.129L1696.02 224.065L1696.65 232L1686.3 235.575C1686.19 237.81 1685.93 240.026 1685.54 242.213L1694.82 248.071L1692.42 255.658L1681.47 255.066C1680.44 257.285 1679.25 259.436 1677.9 261.499L1684.18 270.493L1679.02 276.54L1669.16 271.745C1667.51 273.225 1665.76 274.614 1663.91 275.897L1666.41 286.695L1659.34 290.35L1651.94 282.077C1649.6 282.924 1647.23 283.598 1644.85 284.099L1642.95 294.877L1635 295.492L1631.4 285.133C1629.16 285.015 1626.95 284.756 1624.76 284.355L1618.92 293.621L1611.32 291.199L1611.88 280.252C1609.66 279.215 1607.51 278.023 1605.44 276.675L1596.46 282.931L1590.39 277.754L1595.16 267.912C1593.68 266.267 1592.28 264.515 1591 262.659L1580.2 265.131L1576.52 258.059L1584.78 250.685C1583.93 248.347 1583.25 245.981 1582.74 243.599L1571.95 241.663L1571.32 233.725L1581.67 230.153C1581.78 227.92 1582.04 225.704 1582.43 223.512L1573.15 217.656L1575.55 210.07L1586.51 210.664C1587.54 208.446 1588.73 206.295 1590.07 204.229L1583.79 195.237L1588.96 189.189L1598.82 193.984C1600.46 192.503 1602.21 191.115 1604.06 189.833L1601.56 179.033L1608.64 175.379L1616.03 183.65C1618.37 182.801 1620.74 182.129 1623.12 181.629L1625.03 170.852L1632.97 170.235L1636.57 180.592C1638.81 180.709 1641.03 180.969 1643.22 181.373L1649.06 172.104L1656.66 174.524L1656.09 185.47C1658.31 186.509 1660.46 187.703 1662.53 189.05ZM1601.58 208.87C1588.36 226.725 1592.16 251.941 1610.06 265.19C1627.96 278.441 1653.18 274.711 1666.4 256.855C1679.61 239.001 1675.82 213.782 1657.92 200.532C1640.02 187.283 1614.79 191.016 1601.58 208.87Z" fill="white"/>
<path d="M2103.93 325.768L2130.65 307.142L2148.71 322.55L2134.5 351.86C2138.93 356.747 2143.07 361.959 2146.9 367.485L2179.06 360.127L2189.98 381.183L2165.41 403.127C2167.95 410.087 2169.96 417.135 2171.47 424.221L2203.59 429.98L2205.47 453.603L2174.66 464.241C2174.32 470.888 2173.56 477.485 2172.39 484.001L2200.03 501.433L2192.88 524.01L2160.27 522.252C2157.19 528.854 2153.65 535.258 2149.66 541.396L2168.36 568.164L2152.98 586.163L2123.62 571.894C2118.73 576.299 2113.53 580.43 2108.01 584.251L2115.44 616.389L2094.4 627.269L2072.38 602.648C2065.42 605.172 2058.37 607.175 2051.28 608.665L2045.61 640.742L2021.96 642.576L2011.25 611.749C2004.59 611.395 1997.99 610.621 1991.47 609.437L1974.09 637.018L1951.48 629.815L1953.15 597.233C1946.54 594.151 1940.12 590.594 1933.97 586.59L1907.23 605.207L1889.18 589.799L1903.39 560.502C1898.97 555.602 1894.82 550.393 1890.99 544.868L1858.84 552.229L1847.91 531.172L1872.49 509.221C1869.95 502.267 1867.93 495.22 1866.42 488.131L1834.31 482.374L1832.42 458.749L1863.24 448.114C1863.57 441.467 1864.34 434.87 1865.5 428.353L1837.86 410.921L1845.02 388.345L1877.63 390.105C1880.7 383.501 1884.24 377.097 1888.23 370.957L1869.53 344.191L1884.92 326.189L1914.27 340.459C1919.16 336.053 1924.36 331.922 1929.88 328.1L1922.44 295.957L1943.5 285.085L1965.51 309.702C1972.47 307.174 1979.51 305.18 1986.61 303.689L1992.29 271.609L2015.93 269.776L2026.65 300.602C2033.3 300.95 2039.91 301.727 2046.42 302.922L2063.81 275.338L2086.41 282.541L2084.73 315.121C2091.35 318.208 2097.76 321.76 2103.93 325.768ZM1922.48 384.768C1883.14 437.911 1894.44 512.965 1947.72 552.402C2000.99 591.841 2076.08 580.73 2115.42 527.588C2154.76 474.445 2143.46 399.386 2090.18 359.947C2036.91 320.51 1961.82 331.625 1922.48 384.768Z" fill="white"/>
<path d="M1814.84 532.149L1825.83 524.487L1833.26 530.824L1827.41 542.877C1829.23 544.889 1830.94 547.029 1832.52 549.301L1845.74 546.276L1850.23 554.941L1840.13 563.963C1841.17 566.83 1842 569.73 1842.62 572.64L1855.83 575.012L1856.61 584.724L1843.93 589.099C1843.8 591.834 1843.48 594.549 1842.99 597.231L1854.37 604.401L1851.42 613.692L1838.01 612.961C1836.74 615.679 1835.3 618.314 1833.65 620.837L1841.34 631.847L1835.01 639.251L1822.94 633.383C1820.93 635.193 1818.79 636.89 1816.51 638.464L1819.57 651.681L1810.92 656.156L1801.86 646.029C1799 647.075 1796.1 647.89 1793.19 648.502L1790.86 661.699L1781.12 662.456L1776.72 649.776C1773.98 649.625 1771.27 649.313 1768.59 648.821L1761.43 660.167L1752.14 657.202L1752.82 643.803C1750.11 642.54 1747.47 641.075 1744.94 639.425L1733.94 647.077L1726.51 640.741L1732.36 628.689C1730.54 626.675 1728.83 624.535 1727.26 622.261L1714.03 625.287L1709.54 616.627L1719.65 607.6C1718.6 604.741 1717.77 601.838 1717.15 598.925L1703.95 596.557L1703.16 586.839L1715.84 582.466C1715.98 579.733 1716.3 577.023 1716.77 574.332L1705.41 567.166L1708.35 557.878L1721.76 558.607C1723.02 555.884 1724.48 553.255 1726.12 550.73L1718.44 539.719L1724.75 532.311L1736.83 538.188C1738.84 536.372 1740.98 534.68 1743.25 533.1L1740.19 519.884L1748.85 515.413L1757.91 525.536C1760.77 524.493 1763.67 523.675 1766.59 523.063L1768.93 509.863L1778.65 509.119L1783.06 521.796C1785.79 521.938 1788.51 522.254 1791.19 522.75L1798.34 511.397L1807.64 514.363L1806.95 527.763C1809.67 529.032 1812.3 530.496 1814.84 532.149ZM1732.14 550.444C1712.68 576.742 1718.27 613.884 1744.64 633.403C1771 652.918 1808.16 647.422 1827.63 621.126C1847.1 594.824 1841.5 557.679 1815.14 538.163C1788.77 518.646 1751.61 524.142 1732.14 550.444Z" fill="white"/>
<path d="M1734.31 552.049C1715.75 577.115 1721.1 612.643 1746.24 631.248C1771.36 649.849 1806.91 644.596 1825.47 619.529C1844.03 594.459 1838.67 558.927 1813.54 540.324C1788.41 521.721 1752.87 526.979 1734.31 552.049ZM1820.22 615.648C1803.8 637.831 1772.35 642.487 1750.11 626.023C1727.86 609.558 1723.13 578.113 1739.55 555.93C1755.98 533.742 1787.43 529.086 1809.68 545.551C1831.92 562.017 1836.65 593.462 1820.22 615.648Z" fill="white"/>
<path d="M1931.18 48.6245L1928.84 50.9873C1925.14 54.7332 1924.44 60.6721 1927.52 64.9562C1931.5 70.4908 1939.33 70.9332 1943.91 66.3126L1945.99 64.2058C1948.87 61.3 1953.66 61.6154 1956.14 64.874C1957.36 66.4799 1958.55 68.1075 1959.69 69.7551C1961.98 73.0302 1960.93 77.5583 1957.44 79.4834L1954.49 81.1085C1949.88 83.6563 1947.54 89.154 1949.28 94.1338C1951.54 100.553 1958.94 103.188 1964.64 100.042L1967.22 98.6182C1970.8 96.6412 1975.32 98.2923 1976.78 102.128C1977.49 104.007 1978.16 105.904 1978.8 107.803C1980.06 111.586 1977.77 115.624 1973.88 116.487L1970.33 117.277C1964.57 118.553 1960.91 124.311 1962.21 130.073C1958.84 134.613 1962.94 140.9 1968.46 139.674L1977.89 137.586C1981.88 136.696 1985.76 139.552 1986.08 143.627C1986.23 145.628 1986.35 147.631 1986.43 149.634C1986.58 153.621 1983.24 156.859 1979.26 156.59L1975.64 156.344C1969.75 155.948 1964.62 160.442 1964.23 166.327C1963.85 172.214 1968.36 177.354 1974.25 177.751L1977.21 177.949C1981.29 178.223 1984.2 182.048 1983.36 186.044C1982.95 188.004 1982.5 189.963 1982 191.915C1981.03 195.777 1976.91 197.945 1973.16 196.563L1969.72 195.297C1964.18 193.258 1957.98 196.122 1955.96 201.654L1955.96 201.657C1953.93 207.194 1956.81 213.39 1962.35 215.428L1965.12 216.446C1968.97 217.857 1970.69 222.349 1968.75 225.946C1967.81 227.706 1966.82 229.449 1965.79 231.182C1963.76 234.609 1959.2 235.526 1955.99 233.149L1953.06 230.981C1948.31 227.464 1941.56 228.463 1938.05 233.2C1934.54 237.938 1935.56 244.691 1940.31 248.207L1942.68 249.96C1945.97 252.397 1946.36 257.182 1943.49 260.088C1942.08 261.52 1940.64 262.922 1939.18 264.283C1936.27 267.006 1931.62 266.599 1929.22 263.419L1927.19 260.749C1924 256.544 1918.21 254.989 1913.54 257.419C1907.5 260.545 1905.97 268.237 1909.9 273.433L1911.69 275.802C1914.17 279.067 1913.19 283.767 1909.61 285.745C1907.85 286.714 1906.07 287.647 1904.27 288.548C1900.71 290.325 1896.38 288.628 1894.96 284.905L1893.65 281.476C1891.56 275.957 1885.32 273.144 1879.81 275.234C1874.29 277.32 1871.49 283.538 1873.59 289.057L1874.63 291.798C1876.09 295.627 1873.82 299.859 1869.83 300.744C1867.87 301.177 1865.9 301.57 1863.93 301.926C1860 302.632 1856.32 299.787 1856.01 295.815L1855.73 292.195C1855.27 286.312 1850.07 281.867 1844.19 282.308C1838.3 282.755 1833.87 287.933 1834.32 293.819L1834.55 296.751C1834.87 300.828 1831.51 304.244 1827.42 303.974C1825.42 303.842 1823.42 303.667 1821.42 303.456C1817.45 303.032 1814.71 299.266 1815.53 295.361L1816.28 291.795C1817.5 286.025 1813.77 280.3 1807.99 279.069C1802.22 277.84 1796.49 281.554 1795.28 287.322L1794.66 290.22C1793.82 294.217 1789.63 296.55 1785.78 295.135C1783.89 294.443 1782.02 293.713 1780.16 292.938C1776.47 291.411 1774.9 287.027 1776.8 283.523L1778.53 280.308C1781.32 275.116 1779.36 268.576 1774.16 265.766C1768.95 262.963 1762.42 264.913 1759.62 270.099L1758.22 272.687C1756.3 276.267 1751.63 277.349 1748.35 274.924C1748.33 274.91 1748.31 274.892 1748.29 274.877C1746.66 273.672 1745.07 272.442 1743.5 271.181C1740.41 268.688 1740.17 264.057 1742.96 261.236L1745.51 258.659C1749.66 254.468 1749.62 247.643 1745.41 243.49C1741.21 239.336 1734.38 239.366 1730.24 243.553L1728.15 245.657C1725.27 248.562 1720.48 248.246 1718 244.989C1716.78 243.385 1715.59 241.756 1714.45 240.114C1712.16 236.838 1713.21 232.309 1716.7 230.382L1719.92 228.609C1725.08 225.761 1726.96 219.204 1724.1 214.039C1721.23 208.872 1714.67 206.976 1709.5 209.827L1706.93 211.25C1703.34 213.225 1698.82 211.573 1697.37 207.741C1696.65 205.861 1695.98 203.969 1695.35 202.066C1694.08 198.287 1696.37 194.246 1700.26 193.384L1703.81 192.595C1709.57 191.315 1713.22 185.557 1711.94 179.798C1715.3 175.258 1711.2 168.968 1705.68 170.192L1696.25 172.282C1692.26 173.169 1688.38 170.317 1688.06 166.241C1687.91 164.245 1687.79 162.24 1687.71 160.235C1687.56 156.254 1690.9 153.014 1694.88 153.28L1698.2 153.502C1703.46 153.857 1708.41 150.51 1709.63 145.381C1711.21 138.768 1706.39 132.556 1699.9 132.122L1696.94 131.921C1692.85 131.65 1689.94 127.827 1690.78 123.825C1691.19 121.865 1691.64 119.909 1692.14 117.957C1693.11 114.095 1697.23 111.925 1700.98 113.307L1704.17 114.482C1709.07 116.279 1714.67 114.509 1717.32 110.033C1720.82 104.111 1717.95 96.7092 1711.79 94.4422L1709.02 93.4212C1705.18 92.0097 1703.45 87.5167 1705.39 83.9203C1706.35 82.1628 1707.33 80.418 1708.36 78.6872C1710.39 75.2613 1714.94 74.3452 1718.16 76.7218L1721.08 78.889C1725.83 82.4051 1732.59 81.4013 1736.09 76.666C1739.6 71.9275 1738.59 65.1774 1733.84 61.6613L1731.47 59.9093C1728.18 57.4738 1727.79 52.6856 1730.66 49.7763C1732.07 48.3468 1733.51 46.9467 1734.97 45.5861C1737.88 42.8597 1742.53 43.2659 1744.94 46.4495L1746.96 49.1183C1750.15 53.3226 1755.93 54.8784 1760.61 52.452C1766.65 49.3213 1768.18 41.6282 1764.24 36.4352L1762.45 34.0667C1759.98 30.7985 1760.96 26.0956 1764.54 24.1247C1766.3 23.1533 1768.08 22.2199 1769.88 21.3204C1773.44 19.5429 1777.77 21.2405 1779.19 24.9664L1780.38 28.1028C1782.26 33.0381 1787.37 36.1511 1792.55 35.1426C1799.23 33.8402 1802.87 26.8988 1800.56 20.8097L1799.51 18.0705C1798.06 14.2421 1800.33 10.0069 1804.32 9.12433C1806.28 8.69057 1808.25 8.29511 1810.22 7.94296C1814.14 7.23434 1817.83 10.078 1818.14 14.0572L1818.4 17.3644C1818.81 22.6224 1822.85 27.0507 1828.1 27.5391C1834.88 28.1709 1840.33 22.538 1839.83 16.0517L1839.6 13.1173C1839.28 9.04226 1842.65 5.62334 1846.72 5.89669C1848.73 6.02856 1850.73 6.2001 1852.73 6.41369C1856.7 6.83979 1859.44 10.606 1858.62 14.5093L1857.87 18.074C1856.65 23.8451 1860.38 29.5705 1866.16 30.8032C1870.6 34.0894 1876.94 31.6923 1878.08 26.2951L1879.48 19.65C1880.33 15.6519 1884.53 13.3215 1888.37 14.7346C1890.25 15.4282 1892.13 16.1604 1893.99 16.9306C1897.68 18.4628 1899.24 22.8419 1897.35 26.3506L1895.62 29.5664C1892.54 35.2941 1895.25 42.6584 1901.7 44.8476C1906.7 46.5411 1912.18 44.1344 1914.67 39.4989L1915.92 37.1829C1917.85 33.6011 1922.52 32.5221 1925.8 34.9468C1925.82 34.9613 1925.84 34.9769 1925.86 34.995C1927.49 36.1983 1929.08 37.4277 1930.64 38.6872C1933.74 41.1766 1933.97 45.8059 1931.18 48.6245ZM1923.24 210.066C1936.01 190.127 1941.01 167.172 1938.8 144.98L1904.4 150.072C1905.39 163.449 1902.44 177.167 1895.23 189.334L1923.24 210.068L1923.24 210.066ZM1914.97 221.241L1886.96 200.506C1877.42 210.959 1865.17 217.784 1852.09 220.747L1857.26 255.134C1879.13 250.77 1899.63 239.281 1914.97 221.241ZM1843.46 256.928L1838.26 222.424C1825.24 222.652 1812.05 219.14 1800.41 211.627L1779.76 239.519C1799.16 252.651 1821.59 258.279 1843.46 256.928ZM1736.63 174.9C1740.9 195.975 1751.78 215.789 1768.76 230.956L1789.51 202.921C1780.08 193.647 1773.85 182.093 1771.03 169.812L1736.63 174.9ZM1750.67 99.622C1738.58 118.483 1733.46 140.039 1734.81 161.096L1769.33 155.987C1769.08 143.775 1772.11 131.424 1778.68 120.357L1750.67 99.622ZM1790.41 120.385C1771.42 146.035 1776.87 182.244 1802.58 201.276C1828.29 220.301 1864.51 214.946 1883.5 189.297C1902.48 163.655 1897.03 127.437 1871.33 108.411C1845.62 89.3791 1809.39 94.7434 1790.41 120.385ZM1758.94 88.4479L1786.95 109.182C1795.62 99.6667 1806.55 93.1618 1818.3 89.8302L1813.11 55.3238C1792.57 60.1804 1773.45 71.3804 1758.94 88.4479ZM1826.84 53.0385L1832.02 87.4256C1844.59 86.5314 1857.46 89.12 1869.08 95.4367L1889.83 67.3974C1870.37 55.5858 1848.24 50.9635 1826.84 53.0385ZM1880.59 103.307C1891.17 112.251 1898.38 123.835 1901.97 136.359L1936.48 131.254C1931.39 109.944 1919.46 90.1358 1901.24 75.4153L1880.59 103.307Z" fill="white"/>
<path d="M1787.08 308.729C1789.46 310.644 1789.64 314.22 1787.47 316.4L1785.66 318.223C1782.8 321.125 1782.26 325.691 1784.62 328.998C1787.67 333.242 1793.69 333.559 1797.22 329.992L1798.83 328.355C1801.04 326.126 1804.73 326.339 1806.63 328.844C1807.55 330.08 1808.47 331.352 1809.37 332.602C1811.1 335.123 1810.27 338.617 1807.59 340.108L1805.32 341.358C1801.77 343.342 1799.95 347.594 1801.28 351.412C1802.99 356.357 1808.69 358.361 1813.06 355.927L1815.05 354.833C1817.83 353.29 1821.29 354.554 1822.39 357.498C1822.93 358.944 1823.46 360.405 1823.93 361.872C1824.92 364.771 1823.14 367.891 1820.13 368.569L1817.41 369.196C1812.97 370.183 1810.14 374.634 1811.12 379.08C1808.54 382.572 1811.66 387.402 1815.9 386.448L1823.16 384.82C1826.23 384.126 1829.22 386.322 1829.45 389.445C1829.57 390.989 1829.64 392.532 1829.7 394.086C1829.8 397.159 1827.23 399.651 1824.16 399.467L1821.38 399.281C1816.86 398.999 1812.89 402.479 1812.59 406.997C1812.28 411.565 1815.74 415.494 1820.26 415.773L1822.53 415.926C1825.68 416.131 1827.91 419.067 1827.24 422.155C1826.93 423.668 1826.56 425.156 1826.2 426.661C1825.43 429.653 1822.25 431.335 1819.38 430.297L1816.75 429.318C1812.48 427.767 1807.71 429.973 1806.13 434.256C1804.57 438.534 1806.76 443.281 1811.02 444.848L1813.13 445.628C1816.09 446.713 1817.4 450.164 1815.91 452.953C1815.17 454.293 1814.41 455.633 1813.6 456.979C1812.04 459.604 1808.54 460.347 1806.07 458.517L1803.84 456.87C1800.18 454.16 1795 454.938 1792.28 458.613C1789.56 462.285 1790.32 467.477 1793.98 470.186L1795.78 471.517C1798.3 473.379 1798.59 477.07 1796.39 479.313C1795.3 480.424 1794.18 481.496 1793.05 482.551C1790.83 484.657 1787.24 484.359 1785.39 481.899L1783.85 479.856C1781.42 476.632 1776.95 475.449 1773.37 477.32C1768.7 479.748 1767.51 485.683 1770.51 489.685L1771.89 491.504C1773.8 494.017 1773.01 497.632 1770.27 499.163C1768.9 499.918 1767.53 500.642 1766.15 501.333C1763.41 502.715 1760.09 501.432 1759 498.56L1758 495.928C1756.41 491.686 1751.61 489.531 1747.38 491.146C1743.12 492.77 1740.95 497.583 1742.56 501.808L1743.33 503.928C1744.46 506.882 1742.69 510.143 1739.63 510.847C1738.12 511.171 1736.62 511.488 1735.08 511.766C1732.08 512.321 1729.25 510.142 1729.01 507.057L1728.81 504.278C1728.47 499.748 1724.5 496.339 1719.96 496.689C1715.44 497.063 1712 501.057 1712.35 505.584L1712.52 507.844C1712.76 510.991 1710.16 513.624 1707.01 513.438C1705.47 513.347 1703.93 513.205 1702.39 513.052C1699.34 512.728 1697.25 509.841 1697.88 506.839L1698.5 504.072C1699.42 499.622 1696.57 495.24 1692.13 494.296C1687.68 493.364 1683.28 496.242 1682.34 500.691L1681.86 502.91C1681.19 506.005 1677.97 507.801 1675 506.73C1673.56 506.192 1672.13 505.643 1670.69 505.056C1667.87 503.88 1666.66 500.505 1668.12 497.804L1669.47 495.326C1671.63 491.325 1670.14 486.279 1666.16 484.124C1662.15 481.985 1657.11 483.497 1654.96 487.498L1653.87 489.507C1652.37 492.261 1648.8 493.119 1646.27 491.252C1646.26 491.242 1646.24 491.225 1646.23 491.219C1644.99 490.3 1643.75 489.357 1642.56 488.392C1640.18 486.458 1640.01 482.89 1642.17 480.709L1644.14 478.737C1647.33 475.478 1647.3 470.224 1644.09 467.04C1640.86 463.839 1635.64 463.89 1632.42 467.136L1630.81 468.745C1628.61 471.006 1624.9 470.761 1623.01 468.268C1622.08 467.018 1621.17 465.794 1620.3 464.515C1618.54 461.996 1619.36 458.495 1622.04 457.015L1624.53 455.628C1628.51 453.436 1629.96 448.362 1627.79 444.395C1625.6 440.428 1620.55 438.974 1616.57 441.193L1614.59 442.283C1611.82 443.829 1608.35 442.563 1607.24 439.611C1606.69 438.153 1606.19 436.718 1605.69 435.242C1604.74 432.331 1606.51 429.217 1609.5 428.534L1612.25 427.92C1616.67 426.914 1619.5 422.468 1618.53 418.057C1621.13 414.546 1618 409.703 1613.73 410.656L1606.48 412.289C1603.4 412.986 1600.43 410.788 1600.2 407.639C1600.08 406.112 1600 404.57 1599.93 403.035C1599.83 399.951 1602.41 397.45 1605.47 397.644L1608.03 397.809C1612.06 398.071 1615.88 395.472 1616.83 391.517C1618.06 386.427 1614.38 381.645 1609.39 381.343L1607.11 381.191C1603.98 381.001 1601.72 378.038 1602.41 374.959C1602.72 373.447 1603.08 371.933 1603.46 370.443C1604.21 367.446 1607.39 365.783 1610.28 366.832L1612.73 367.742C1616.48 369.104 1620.79 367.726 1622.85 364.257C1625.55 359.692 1623.37 354.005 1618.63 352.277L1616.52 351.489C1613.55 350.413 1612.24 346.967 1613.75 344.186C1614.48 342.823 1615.24 341.461 1616.03 340.142C1617.6 337.49 1621.11 336.773 1623.57 338.594L1625.82 340.263C1629.47 342.965 1634.66 342.165 1637.37 338.503C1640.08 334.847 1639.33 329.654 1635.68 326.953L1633.86 325.605C1631.34 323.739 1631.05 320.04 1633.25 317.81C1634.35 316.69 1635.46 315.612 1636.59 314.56C1638.82 312.438 1642.39 312.766 1644.24 315.195L1645.8 317.266C1648.23 320.491 1652.68 321.659 1656.28 319.792C1660.92 317.351 1662.12 311.418 1659.12 307.438L1657.76 305.632C1655.85 303.096 1656.62 299.466 1659.36 297.943C1660.74 297.189 1662.1 296.482 1663.5 295.777C1666.24 294.398 1669.57 295.691 1670.65 298.553L1671.55 300.986C1672.98 304.772 1676.91 307.158 1680.9 306.369C1686.03 305.354 1688.84 299.988 1687.08 295.299L1686.3 293.194C1685.18 290.244 1686.94 286.984 1690 286.29C1691.51 285.953 1693.02 285.648 1694.55 285.369C1697.57 284.815 1700.39 286.992 1700.62 290.054L1700.82 292.61C1701.12 296.654 1704.2 300.054 1708.26 300.423C1713.45 300.887 1717.66 296.535 1717.29 291.537L1717.12 289.28C1716.88 286.135 1719.49 283.495 1722.61 283.693C1724.16 283.79 1725.7 283.917 1727.25 284.076C1730.29 284.394 1732.4 287.306 1731.75 290.29L1731.15 293.043C1730.22 297.489 1733.07 301.892 1737.5 302.834C1740.91 305.356 1745.8 303.499 1746.68 299.339L1747.78 294.206C1748.45 291.123 1751.68 289.319 1754.63 290.406C1756.09 290.928 1757.51 291.48 1758.95 292.074C1761.78 293.241 1762.97 296.601 1761.52 299.322L1760.18 301.799C1757.78 306.218 1759.85 311.885 1764.8 313.557C1768.65 314.853 1772.87 312.987 1774.79 309.407L1775.76 307.617C1777.26 304.864 1780.87 304.017 1783.36 305.865C1783.38 305.879 1783.4 305.891 1783.42 305.905C1784.66 306.824 1785.88 307.754 1787.08 308.729ZM1695.82 357.292L1714.61 389.531L1724.11 353.518C1714.54 351.78 1704.6 353.092 1695.82 357.292ZM1757.55 379.041L1725.3 397.719L1761.38 407.335C1763.11 397.745 1761.77 387.815 1757.55 379.041ZM1721.65 391.43L1753.87 372.743C1751.05 368.677 1747.56 365.002 1743.35 361.888C1739.52 359.054 1735.42 356.878 1731.17 355.416L1721.65 391.43ZM1757.5 341.69C1754.24 339.278 1749.62 339.952 1747.2 343.221C1744.78 346.495 1745.48 351.114 1748.74 353.525C1752.02 355.951 1756.64 355.281 1759.07 352.007C1761.49 348.738 1760.78 344.116 1757.5 341.69ZM1778.74 396.575C1782.78 395.996 1785.56 392.235 1784.93 388.206C1784.33 384.173 1780.58 381.395 1776.55 382.006C1772.54 382.594 1769.75 386.355 1770.36 390.374C1770.96 394.389 1774.71 397.166 1778.74 396.575ZM1771.45 440.393C1773.88 437.114 1773.19 432.518 1769.91 430.093C1766.64 427.67 1762.04 428.349 1759.61 431.628C1757.2 434.887 1757.88 439.499 1761.16 441.922C1764.43 444.347 1769.04 443.652 1771.45 440.393ZM1753.07 426.529C1755.9 422.702 1758.04 418.627 1759.5 414.365L1723.44 404.763L1742.21 437.029C1746.29 434.224 1749.97 430.711 1753.07 426.529ZM1674.22 418.927L1706.41 400.231L1670.38 390.646C1668.63 400.212 1669.98 410.135 1674.22 418.927ZM1683.05 452.587C1685.46 449.322 1684.75 444.705 1681.48 442.289C1678.21 439.87 1673.59 440.53 1671.17 443.796C1668.75 447.065 1669.46 451.69 1672.73 454.108C1676 456.524 1680.63 455.856 1683.05 452.587ZM1688.42 436.082C1692.23 438.896 1696.35 441.048 1700.57 442.544L1710.09 406.535L1677.87 425.208C1680.69 429.289 1684.22 432.974 1688.42 436.082ZM1735.93 440.667L1717.16 408.373L1707.63 444.432C1717.24 446.195 1727.15 444.872 1735.93 440.667ZM1724.99 467.701C1729.01 467.085 1731.77 463.351 1731.18 459.335C1730.57 455.3 1726.82 452.528 1722.8 453.129C1718.76 453.722 1716 457.456 1716.6 461.496C1717.21 465.515 1720.95 468.286 1724.99 467.701ZM1651.49 399.231C1647.46 399.833 1644.69 403.57 1645.29 407.612C1645.9 411.648 1649.64 414.414 1653.68 413.826C1657.72 413.213 1660.48 409.475 1659.89 405.445C1659.26 401.419 1655.52 398.652 1651.49 399.231ZM1658.76 355.418C1656.34 358.683 1657.04 363.286 1660.32 365.714C1663.59 368.134 1668.2 367.462 1670.61 364.196C1673.04 360.922 1672.35 356.3 1669.08 353.88C1665.8 351.451 1661.18 352.145 1658.76 355.418ZM1678.69 371.469C1675.89 375.243 1673.7 379.331 1672.24 383.594L1708.3 393.206L1689.54 360.924C1685.44 363.742 1681.8 367.258 1678.69 371.469ZM1705.24 328.109C1701.22 328.703 1698.44 332.46 1699.04 336.473C1699.67 340.513 1703.42 343.29 1707.43 342.68C1711.46 342.103 1714.25 338.347 1713.62 334.316C1713.04 330.294 1709.29 327.516 1705.24 328.109Z" fill="white"/>
<path d="M1571.62 306.757L1579.76 301.086L1585.26 305.777L1580.93 314.703C1582.28 316.19 1583.54 317.779 1584.71 319.462L1594.5 317.221L1597.83 323.633L1590.34 330.315C1591.12 332.436 1591.73 334.581 1592.19 336.74L1601.97 338.495L1602.55 345.689L1593.16 348.929C1593.06 350.953 1592.83 352.963 1592.47 354.947L1600.89 360.255L1598.71 367.13L1588.78 366.595C1587.84 368.606 1586.76 370.557 1585.55 372.424L1591.24 380.577L1586.56 386.06L1577.62 381.711C1576.13 383.053 1574.54 384.312 1572.86 385.475L1575.13 395.265L1568.72 398.577L1562.01 391.08C1559.89 391.849 1557.75 392.457 1555.59 392.912L1553.86 402.682L1546.66 403.24L1543.4 393.85C1541.37 393.743 1539.36 393.506 1537.37 393.145L1532.08 401.546L1525.19 399.352L1525.7 389.432C1523.69 388.492 1521.73 387.41 1519.86 386.188L1511.72 391.857L1506.22 387.166L1510.55 378.242C1509.2 376.749 1507.94 375.165 1506.77 373.481L1496.98 375.723L1493.65 369.311L1501.14 362.625C1500.37 360.507 1499.75 358.362 1499.29 356.202L1489.51 354.451L1488.93 347.256L1498.32 344.016C1498.42 341.993 1498.65 339.983 1499.01 337.999L1490.59 332.691L1492.77 325.812L1502.7 326.349C1503.63 324.338 1504.71 322.387 1505.93 320.518L1500.23 312.367L1504.92 306.883L1513.86 311.23C1515.35 309.889 1516.93 308.63 1518.61 307.467L1516.35 297.677L1522.76 294.365L1529.46 301.863C1531.58 301.093 1533.73 300.485 1535.89 300.034L1537.62 290.263L1544.82 289.704L1548.08 299.093C1550.11 299.198 1552.12 299.437 1554.1 299.801L1559.4 291.4L1566.28 293.595L1565.77 303.515C1567.79 304.455 1569.74 305.536 1571.62 306.757ZM1545.6 330.464C1548.55 330.41 1552.24 331.723 1553.99 332.755L1566.19 316.278C1557.91 310.468 1550.61 309.24 1542.43 309.909L1545.6 330.464ZM1540.57 341.915C1538.34 344.937 1538.98 349.225 1542.02 351.469C1545.05 353.712 1549.33 353.077 1551.57 350.055C1553.81 347.03 1553.16 342.745 1550.13 340.502C1547.1 338.257 1542.81 338.89 1540.57 341.915ZM1569.41 318.722L1557.17 335.264C1558.52 336.835 1560.72 340.193 1561.3 343.151L1581.84 340.164C1580.36 332.016 1575.6 323.96 1569.41 318.722ZM1581.55 344.072L1560.63 347.505C1560.58 349.933 1560.58 351.513 1558.45 354.964L1575.47 367.569C1581.02 359.09 1582.24 351.831 1581.55 344.072ZM1574.34 369.245L1557.31 356.64C1554.7 359.742 1552.92 360.244 1550.14 361.03L1553.27 382.498C1561.41 380.746 1569.39 375.65 1574.34 369.245ZM1550.39 382.768L1547.24 361.483C1544.44 361.656 1540.94 360.586 1539.06 359.726L1526.11 377.217C1532.93 381.6 1542.1 383.787 1550.39 382.768ZM1522.83 374.845L1535.73 357.423C1534.22 356.061 1532.14 353.282 1531.28 350.678L1509.76 353.783C1511.48 361.878 1514.86 368.622 1522.83 374.845ZM1509.31 350.962L1530.49 347.935C1530.14 344.628 1530.43 341.77 1532.6 338.345L1515.61 325.768C1510.94 332.375 1508.26 342.26 1509.31 350.962ZM1516.88 324.196L1533.87 336.773C1536.6 333.758 1539.14 332.414 1541.94 331.755L1538.57 311.661C1530.47 313.067 1523.4 316.437 1516.88 324.196Z" fill="white"/>
</g>
</g>
<defs>
<radialGradient id="paint0_radial_193_791" cx="0" cy="0" r="1" gradientUnits="userSpaceOnUse" gradientTransform="translate(1823 1069.58) rotate(-149.613) scale(2113.31 3402.96)">
<stop stop-color="#5E3B26"/>
<stop offset="0.584339" stop-color="#14141B"/>
<stop offset="0.704703" stop-color="#131320"/>
<stop offset="0.779921" stop-color="#20212C"/>
<stop offset="0.889698" stop-color="#202C32"/>
<stop offset="1" stop-color="#48585A"/>
</radialGradient>
<linearGradient id="paint1_linear_193_791" x1="911.5" y1="0.583984" x2="911.5" y2="476.584" gradientUnits="userSpaceOnUse">
<stop stop-color="#202A31"/>
<stop offset="1" stop-color="#202A31" stop-opacity="0"/>
</linearGradient>
</defs>
</svg>
