<svg width="16" height="22" viewBox="0 0 16 22" fill="none" xmlns="http://www.w3.org/2000/svg">
<path d="M15.011 10.9997C15.011 10.9997 15.2893 14.4098 12.7414 16.1699C12.7414 16.1699 17.7302 6.00591 7.06741 0C7.06741 0 8.56621 2.618 5.05476 5.76391C2.12143 8.38191 -4.85857 17.0281 5.3973 21.9999C5.3973 21.9999 1.24363 16.4119 6.40356 13.332C6.40356 13.332 4.43376 16.5879 7.96658 19.3379C10.065 17.094 9.5084 15.95 9.5084 15.95C9.5084 15.95 12.5487 18.4579 10.3006 22C10.3006 22 18.8437 19.8879 15.011 10.9998L15.011 10.9997Z" fill="#D83114"/>
</svg>
