<svg width="187" height="46" viewBox="0 0 187 46" fill="none" xmlns="http://www.w3.org/2000/svg">
<path d="M52.2851 16.3232C52.2851 17.85 51.8308 19.2305 50.9217 20.4652C50.0132 21.6995 48.8282 22.8124 47.3677 23.8032C45.9073 24.794 44.2685 25.6548 42.4509 26.3857C40.6333 27.1166 38.8161 27.734 36.9985 28.2373C35.1809 28.7411 33.4445 29.139 31.7894 29.4311C30.1342 29.7237 28.755 29.9186 27.6513 30.0158C27.3917 30.5682 27.1725 31.0147 26.9941 31.3559C26.8158 31.697 26.6451 31.9891 26.4831 32.233C26.3206 32.477 26.1586 32.7041 25.9961 32.9154C25.8337 33.1266 25.639 33.3783 25.4121 33.6708C25.3472 33.7358 25.2174 33.8575 25.0227 34.0365C24.828 34.215 24.5847 34.3045 24.2925 34.3045C24.1627 34.2723 24.0084 34.2069 23.83 34.1097C23.6517 34.012 23.5622 33.8498 23.5622 33.6222C23.5622 33.59 23.6108 33.4759 23.7084 33.2811C23.806 33.0862 23.9276 32.8345 24.0732 32.5256C24.2194 32.2172 24.3737 31.876 24.5357 31.5021C24.6982 31.1287 24.828 30.7467 24.9251 30.3569L23.4647 30.5518C23.3671 30.5518 22.8157 30.6168 21.8095 30.7467C20.8034 30.8766 19.5785 31.0551 18.1339 31.2827C16.6898 31.5103 15.1399 31.786 13.4848 32.1108C11.8297 32.4356 10.2962 32.8013 8.88427 33.2074C7.47239 33.6136 6.29605 34.0524 5.3548 34.523C4.41354 34.9941 3.94291 35.4897 3.94291 36.0094C3.94291 36.659 4.27557 37.1868 4.94089 37.593C5.60621 37.9991 6.4095 38.3239 7.35076 38.5678C8.29202 38.8113 9.26549 38.998 10.2716 39.1279C11.2778 39.2579 12.1378 39.3555 12.8517 39.4205C12.6892 39.6154 12.4296 39.7698 12.0729 39.8834C11.7157 39.9969 11.3427 40.0783 10.9533 40.1273C10.5639 40.1764 10.1986 40.2087 9.85822 40.2245C9.51739 40.2409 9.29818 40.2491 9.20107 40.2491C8.7141 40.2491 7.95984 40.1759 6.93734 40.0297C5.91484 39.8834 4.89282 39.6236 3.87032 39.2501C2.84781 38.8768 1.94742 38.3893 1.16864 37.7883C0.389387 37.1873 0 36.4482 0 35.571C0 34.8237 0.543702 34.1419 1.6311 33.5245C2.7185 32.9072 4.0977 32.3389 5.76918 31.8192C7.44066 31.2996 9.29049 30.8367 11.3191 30.4305C13.3478 30.0244 15.3193 29.6751 17.234 29.383C19.1487 29.0904 20.8769 28.847 22.4186 28.6521C23.9603 28.4572 25.0717 28.3109 25.7534 28.2137C26.2077 27.0444 26.5971 25.7284 26.9215 24.2666C27.246 22.8047 27.5056 21.3997 27.7003 20.0514C27.895 18.7031 28.0412 17.5011 28.1383 16.4454C28.2358 15.3897 28.2844 14.6833 28.2844 14.3258C28.2844 14.1632 28.2926 13.9601 28.3089 13.7166C28.3253 13.4731 28.333 13.1724 28.333 12.8154C28.333 12.198 28.3007 11.4916 28.2358 10.6958C28.171 9.89987 28.0411 9.12805 27.8465 8.38126C27.6518 7.63398 27.3595 6.94396 26.9701 6.31024C26.5807 5.67652 26.0452 5.22998 25.3635 4.97015C24.39 4.58039 23.3757 4.29601 22.321 4.11749C21.2663 3.93897 20.1707 3.81675 19.0348 3.75179C18.905 3.75179 18.7266 3.73543 18.4992 3.70319C18.2719 3.67095 18.0531 3.60551 17.8421 3.50831C17.6311 3.41063 17.4282 3.26483 17.2335 3.06995C17.0388 2.87507 16.9254 2.63111 16.8927 2.33903C17.12 2.14415 17.3551 1.96564 17.5984 1.803C17.8421 1.64036 18.1825 1.50226 18.6209 1.3887C19.0588 1.27514 19.6434 1.18564 20.3736 1.12068C21.1038 1.05572 22.0855 1.02348 23.319 1.02348C23.4166 1.02348 23.6762 1.03166 24.0978 1.04754C24.5198 1.0639 24.9741 1.07208 25.4606 1.07208C25.9476 1.07208 26.4101 1.08026 26.848 1.09662C27.2859 1.11298 27.57 1.12116 27.6998 1.12116C27.8945 1.12116 28.0811 1.07256 28.2594 0.974879C28.4378 0.877198 28.6488 0.763639 28.8925 0.63372C29.1358 0.5038 29.4117 0.37388 29.7198 0.24396C30.028 0.114041 30.3933 0.0327205 30.8154 0C31.075 0.194879 31.2942 0.471079 31.4726 0.828598C31.6509 1.18612 31.9028 1.44596 32.2273 1.60812C33.2335 2.03059 34.4261 2.45259 35.8053 2.87507C37.1845 3.29755 38.6128 3.77633 40.0896 4.31237C41.5663 4.84841 43.035 5.45759 44.4954 6.1399C45.9558 6.82222 47.262 7.64216 48.4143 8.60068C49.5666 9.55919 50.4996 10.6717 51.2135 11.9386C51.9284 13.2046 52.2851 14.6665 52.2851 16.3232ZM49.1209 17.3467C49.1209 15.8199 48.6503 14.4389 47.709 13.2046C46.7678 11.9699 45.6237 10.9224 44.2771 10.0616C42.9302 9.20071 41.5106 8.53475 40.0174 8.06367C38.5243 7.5926 37.2264 7.3573 36.1226 7.3573C35.4736 7.3573 34.7756 7.61714 34.0291 8.13682C33.2825 8.65649 32.6499 9.27385 32.1302 9.98841C32.1302 11.2226 32.0571 12.5709 31.911 14.0328C31.7648 15.4946 31.5379 17.0132 31.2293 18.5891C30.9212 20.1645 30.5313 21.7562 30.0612 23.3644C29.5905 24.9725 29.0146 26.5074 28.333 27.9693C29.0468 27.8721 30.053 27.7013 31.3514 27.4578C32.6499 27.2143 34.0694 26.8813 35.6111 26.4588C37.1528 26.0364 38.7185 25.533 40.3088 24.9484C41.899 24.3638 43.3513 23.6978 44.6661 22.9505C45.9808 22.2033 47.0514 21.367 47.8792 20.4412C48.707 19.5149 49.1209 18.4837 49.1209 17.3467Z" fill="white"/>
<path d="M54.9123 23.4514C54.8796 23.2878 54.8633 23.14 54.8633 23.0091C54.8633 22.8783 54.8633 22.731 54.8633 22.5669C54.8633 21.2572 55.2805 20.0619 56.1146 18.9816C56.9487 17.9009 58.0202 16.8861 59.3287 15.9367C59.296 15.7731 59.2552 15.6013 59.2061 15.4209C59.1571 15.2409 59.1326 15.0691 59.1326 14.9051C59.1326 14.6433 59.2143 14.4301 59.3782 14.2665C59.5417 14.1029 59.8522 14.0211 60.3104 14.0211C60.9973 14.0211 61.5208 14.3243 61.8804 14.9296C62.24 15.5354 62.5429 16.2476 62.788 17.066C63.0332 17.8845 63.2707 18.703 63.4995 19.522C63.7283 20.3405 64.0557 20.9627 64.4811 21.3885C64.6119 21.5194 64.8244 21.6912 65.1191 21.9039C65.4133 22.117 65.7161 22.3461 66.0267 22.5915C66.3372 22.8374 66.6074 23.0664 66.8362 23.2791C67.0655 23.4923 67.1799 23.6477 67.1799 23.7458C67.1799 24.1062 66.9425 24.3598 66.4685 24.5071C65.994 24.6543 65.6099 24.7284 65.3152 24.7284C64.8244 24.7284 64.4239 24.6548 64.1129 24.5071C63.8024 24.3598 63.5404 24.1717 63.3279 23.9422C63.1154 23.7131 62.9106 23.4514 62.7145 23.1564C62.5183 22.8619 62.3054 22.5833 62.0766 22.3215C61.2262 22.9764 60.4248 23.5904 59.6725 24.1635C58.9201 24.7366 58.0534 25.0229 57.0717 25.0229C56.5482 25.0229 56.0742 24.8429 55.6488 24.4825C55.2229 24.1226 54.9777 23.779 54.9123 23.4514ZM60.9964 19.7679C60.9964 19.2439 60.8656 18.7362 60.6041 18.2454C60.3421 17.7541 60.0642 17.2792 59.77 16.8211C59.4431 16.8211 59.1076 17.0174 58.7644 17.4106C58.4206 17.8037 58.1183 18.27 57.8568 18.8103C57.5952 19.3507 57.3746 19.8824 57.1943 20.4064C57.0145 20.9304 56.9246 21.3231 56.9246 21.5853C56.9246 21.618 56.9328 21.708 56.9491 21.8553C56.9655 22.0025 56.9982 22.1502 57.0472 22.2975C57.0962 22.4447 57.1616 22.5756 57.2434 22.6901C57.3251 22.8046 57.4313 22.8619 57.5621 22.8619C57.9548 22.8619 58.3471 22.7392 58.7398 22.4933C59.1321 22.2479 59.5004 21.9529 59.8436 21.6094C60.1873 21.2653 60.4652 20.9218 60.6776 20.5777C60.8901 20.2346 60.9964 19.9642 60.9964 19.7679ZM74.1951 20.5046C72.952 20.5046 72.3304 21.1595 72.3304 22.4693C72.3304 23.026 72.3795 23.4518 72.4775 23.7463C72.5756 24.0413 72.6246 24.3685 72.6246 24.7289C72.6246 25.0234 72.379 25.1706 71.8886 25.1706C71.5286 25.1706 71.2507 25.0643 71.0546 24.8516C70.8584 24.6389 70.7113 24.3685 70.6133 24.0413C70.5152 23.7136 70.4498 23.3782 70.4171 23.0342C70.3844 22.6901 70.3681 22.3711 70.3681 22.0766V21.1927C70.3681 21.0291 70.3191 20.9391 70.221 20.9227C70.1229 20.9064 69.9595 20.8982 69.7302 20.8982C69.1413 20.9309 68.7327 20.9636 68.5039 20.9964C68.275 21.0291 67.9803 21.0454 67.6208 21.0454C67.1958 21.0454 66.9828 20.9636 66.9828 20.8C66.9828 20.5051 67.1626 20.2842 67.5227 20.137C67.8827 19.9897 68.2832 19.8502 68.725 19.7193C69.1668 19.5884 69.5754 19.4412 69.9518 19.2771C70.3277 19.1135 70.5162 18.8681 70.5162 18.5404V18.2459C70.5162 17.9182 70.4671 17.5747 70.3691 17.2143C70.271 16.8543 69.9768 16.6739 69.486 16.6739C69.3225 16.6739 69.1754 16.7148 69.0442 16.7966C68.9134 16.8784 68.7173 16.9193 68.4553 16.9193C68.063 16.9193 67.8664 16.7393 67.8664 16.3789C67.8664 16.248 67.989 16.0431 68.2342 15.7649C68.4798 15.4868 68.774 15.2246 69.1173 14.9792C69.461 14.7333 69.8042 14.5124 70.1479 14.3161C70.4916 14.1198 70.7777 14.0211 71.0065 14.0211C71.3666 14.0211 71.6689 14.1193 71.9141 14.3161C72.1593 14.5124 72.3472 14.7414 72.4785 15.0037C72.6092 15.2655 72.6991 15.5359 72.7482 15.814C72.7972 16.0921 72.8217 16.3298 72.8217 16.5262V17.4101C72.8217 18.1959 72.9198 18.6544 73.1164 18.7853C73.3125 18.9162 73.6072 18.9816 73.9995 18.9816C74.6538 18.9816 75.1446 18.7935 75.4715 18.4167C75.7988 18.04 75.995 17.3605 76.0604 16.3784C76.1257 15.6908 76.3305 15.0441 76.6738 14.4383C77.0175 13.8325 77.3689 13.5298 77.7289 13.5298H77.778C77.9414 13.5298 78.1131 13.5953 78.2933 13.7262C78.4731 13.857 78.563 14.037 78.563 14.2665L78.0722 17.2624C77.9741 17.7864 77.8761 18.4495 77.778 19.2516C77.6799 20.0537 77.6309 20.979 77.6309 22.0266C77.6309 22.8123 77.6799 23.6636 77.778 24.5807C77.8107 24.7443 77.9006 24.9002 78.0477 25.0474C78.1948 25.1947 78.2683 25.3342 78.2683 25.4651C78.2683 25.5633 78.2275 25.7678 78.1457 26.0791C78.064 26.3899 77.8761 26.5617 77.5814 26.5944C76.8944 26.5944 76.4449 26.3981 76.232 26.005C76.0195 25.6119 75.9133 25.1211 75.9133 24.5316V23.6968C75.9133 23.2709 75.9051 22.8619 75.8887 22.4688C75.8724 22.0761 75.807 21.7321 75.6926 21.4376C75.5782 21.1426 75.4061 20.9136 75.1773 20.75C74.9475 20.5864 74.6206 20.5046 74.1951 20.5046ZM92.3992 20.9959L91.2215 23.5009C91.0907 23.7627 90.9763 23.9099 90.8782 23.9426C90.7802 23.9754 90.6162 23.9917 90.3874 23.9917C90.1259 23.9917 89.8802 23.9263 89.6514 23.7954C89.4226 23.6645 89.275 23.4518 89.2096 23.1569L88.5717 19.817C88.539 19.7515 88.4818 19.5961 88.4001 19.3502C88.3184 19.1048 88.2285 18.9821 88.1304 18.9821C87.9996 18.9821 87.8602 19.113 87.7131 19.3748C87.566 19.637 87.4189 19.9315 87.2713 20.2587C87.1242 20.5859 86.9935 20.9054 86.8791 21.2163C86.7647 21.5276 86.7074 21.7321 86.7074 21.8302C86.7074 21.9611 86.6829 22.2397 86.6339 22.6651C86.5849 23.0909 86.5603 23.3691 86.5603 23.5C86.4623 23.8599 86.2253 24.1221 85.8489 24.2857C85.473 24.4493 85.0884 24.5311 84.6956 24.5311C84.3033 24.5311 83.9678 24.433 83.6899 24.2366C83.4116 24.0403 83.24 23.729 83.1746 23.3036C83.1746 23.2055 83.1501 22.9846 83.1011 22.6406C83.052 22.297 83.003 21.912 82.954 21.4867C82.9049 21.0608 82.8559 20.6682 82.8069 20.3078C82.7578 19.9474 82.717 19.7183 82.6843 19.6202C82.6843 19.5547 82.6352 19.3416 82.5372 18.9816C82.4391 18.6212 82.3737 18.3922 82.341 18.294C82.3083 18.1304 82.1939 17.8927 81.9973 17.5819C81.8012 17.2706 81.605 17.1151 81.4084 17.1151C81.0488 17.1151 80.8114 17.2951 80.6969 17.6555C80.5825 18.0154 80.4926 18.4004 80.4273 18.8099C80.3619 19.2189 80.272 19.6038 80.1571 19.9637C80.0427 20.3241 79.8057 20.5041 79.4456 20.5041C79.2822 20.5041 79.1923 20.4305 79.1759 20.2832C79.1596 20.136 79.1514 20.0128 79.1514 19.9147C79.1514 19.5547 79.2331 19.0798 79.3966 18.4904C79.56 17.9009 79.7812 17.3278 80.059 16.7711C80.3374 16.2144 80.6561 15.7399 81.0161 15.3468C81.3757 14.9541 81.7685 14.7573 82.1939 14.7573C82.6189 14.7573 82.9953 14.9623 83.3222 15.3713C83.6496 15.7808 83.9356 16.2553 84.1808 16.7956C84.4259 17.336 84.6221 17.8764 84.7697 18.4163C84.9168 18.9566 84.9903 19.3574 84.9903 19.6197C84.9903 19.6197 85.023 19.636 85.0884 19.6688H85.1864C85.4153 19.6688 85.6609 19.4315 85.9224 18.9566C86.1844 18.4817 86.4459 17.9582 86.7074 17.3851C86.969 16.812 87.2473 16.2885 87.5415 15.8135C87.8357 15.3386 88.1467 15.1014 88.4736 15.1014C88.7356 15.1014 88.9971 15.2404 89.2587 15.519C89.5206 15.7972 89.6841 16.0676 89.7495 16.3294L90.3874 19.6202C90.3874 19.6529 90.4037 19.6693 90.4364 19.6693H90.5345C90.8619 19.6693 91.1316 19.4647 91.344 19.0553C91.5565 18.6458 91.7608 18.204 91.9575 17.7291C92.1536 17.2542 92.3665 16.8125 92.5954 16.403C92.8242 15.9935 93.1352 15.789 93.5275 15.789C93.7563 15.789 93.9529 15.9117 94.1164 16.1576C94.2798 16.403 94.4269 16.7307 94.5577 17.1397C94.6884 17.5492 94.8115 17.9991 94.9259 18.4904C95.0403 18.9816 95.1793 19.4729 95.3432 19.9637C95.6047 20.8149 95.8335 21.5435 96.0301 22.1493C96.2263 22.7551 96.6027 23.0577 97.1584 23.0577C97.4204 23.0577 97.7636 22.9269 98.1891 22.6646C98.4179 22.501 98.7208 22.2311 99.0967 21.8543C99.4731 21.478 99.8245 21.2894 100.152 21.2894C100.315 21.2894 100.413 21.3385 100.446 21.4366C100.479 21.5348 100.495 21.6657 100.495 21.8293C100.495 22.2224 100.332 22.5496 100.004 22.8119C99.4154 23.2699 98.8265 23.7203 98.2376 24.1625C97.6487 24.6043 97.0108 24.8256 96.3239 24.8256C95.9316 24.8256 95.547 24.7438 95.1706 24.5797C94.7947 24.4161 94.4428 24.1053 94.1159 23.6467C93.9851 23.4504 93.8703 23.2127 93.7722 22.9346C93.6741 22.656 93.5842 22.3697 93.5025 22.0752C93.4208 21.7802 93.3227 21.5021 93.2078 21.2403C93.0934 20.9786 92.9381 20.7822 92.742 20.6509L92.3992 20.9959ZM84.9903 13.5799C84.9249 13.6126 84.7942 13.629 84.5976 13.629C84.4014 13.629 84.1889 13.6453 83.9596 13.678C82.815 13.678 82.2425 13.3503 82.2425 12.6955V12.5973C82.3079 12.3683 82.455 12.2123 82.6838 12.1305C82.9126 12.0487 83.1746 12.0078 83.4688 12.0078H84.6461C85.3984 12.0078 86.1426 12.0406 86.8786 12.106C87.6146 12.1714 88.3261 12.2042 89.013 12.2042C90.1581 12.2042 91.0902 12.1878 91.8099 12.1551C92.5295 12.1224 93.1021 12.0815 93.5275 12.0324C93.9529 11.9833 94.2471 11.9342 94.4106 11.8851C94.574 11.8361 94.6889 11.8115 94.7543 11.8115C95.0158 11.8115 95.1466 11.8442 95.1466 11.9097V11.9588C95.1466 12.2537 94.8197 12.4991 94.1654 12.6955C93.5111 12.8923 92.7588 13.0559 91.9084 13.1867C91.058 13.3176 90.224 13.4076 89.4062 13.4567C88.5885 13.5058 88.016 13.5303 87.6886 13.5303L84.9903 13.5799ZM102.36 23.4023C102.098 23.0419 101.836 22.6001 101.575 22.0761C101.313 21.5521 101.076 21.0036 100.863 20.431C100.651 19.8579 100.471 19.2766 100.323 18.6872C100.176 18.0977 100.103 17.5415 100.103 17.0174C100.103 16.6898 100.111 16.2726 100.127 15.7649C100.144 15.2573 100.217 14.7824 100.348 14.3406C100.479 13.8984 100.667 13.514 100.912 13.1863C101.158 12.8586 101.526 12.695 102.017 12.695C102.245 12.695 102.425 12.9081 102.556 13.3335C102.687 13.7594 102.785 14.2911 102.851 14.9296C102.916 15.5681 102.981 16.2639 103.047 17.017C103.112 17.77 103.218 18.4658 103.366 19.1043C103.513 19.7429 103.717 20.2751 103.979 20.7004C104.241 21.1263 104.601 21.339 105.059 21.339C105.648 21.339 106.065 21.0363 106.31 20.4305C106.555 19.8247 106.76 19.1616 106.923 18.4413C107.087 17.7209 107.283 17.0579 107.512 16.4521C107.742 15.8462 108.117 15.5436 108.641 15.5436C109.165 15.5436 109.589 15.6908 109.917 15.9853C110.244 16.2803 110.522 16.632 110.751 17.0415C110.98 17.4505 111.168 17.8927 111.315 18.3676C111.462 18.8426 111.634 19.2598 111.831 19.6202C112.059 20.0128 112.297 20.5041 112.542 21.0936C112.787 21.683 112.91 22.207 112.91 22.6651C112.91 23.2218 112.632 23.5 112.076 23.5C111.782 23.5 111.528 23.3854 111.315 23.1559C111.103 22.9269 110.898 22.6646 110.702 22.3701C110.506 22.0757 110.301 21.8134 110.088 21.5844C109.876 21.3548 109.639 21.2403 109.377 21.2403L109.279 21.2894C108.919 21.453 108.641 21.748 108.445 22.1733C108.249 22.5987 108.044 23.0245 107.831 23.4504C107.619 23.8758 107.365 24.2525 107.071 24.5797C106.776 24.9074 106.335 25.071 105.746 25.071C105.124 25.071 104.519 24.9647 103.93 24.752C103.341 24.5403 102.817 24.0899 102.36 23.4023ZM114.283 21.4872C114.283 20.7996 114.455 20.0792 114.79 19.3262C115.125 18.5731 115.616 17.8773 116.262 17.2388C116.908 16.6003 117.685 16.0763 118.601 15.6672C119.516 15.2578 120.563 15.0533 121.741 15.0533C121.904 15.0533 122.051 15.0533 122.183 15.0533C122.313 15.0533 122.46 15.0696 122.624 15.1023C122.886 15.1678 123.082 15.3477 123.213 15.6427C123.343 15.9372 123.409 16.1335 123.409 16.2322C123.311 16.4612 123.139 16.6248 122.894 16.723C122.648 16.8211 122.362 16.8947 122.035 16.9443C121.708 16.9934 121.389 17.0261 121.078 17.0425C120.767 17.0588 120.514 17.0997 120.318 17.1652C119.369 17.4929 118.567 17.9182 117.914 18.4422C117.259 18.9662 116.933 19.6539 116.933 20.5051C116.933 21.0945 117.096 21.6594 117.423 22.1993C117.751 22.7397 118.306 23.0096 119.091 23.0096C119.517 23.0096 119.885 22.8706 120.196 22.592C120.506 22.3138 120.785 22.0189 121.03 21.708C121.275 21.3972 121.529 21.1022 121.79 20.8241C122.052 20.5455 122.363 20.4064 122.722 20.4064C123.279 20.4064 123.614 20.6109 123.729 21.0204C123.843 21.4299 123.9 21.8144 123.9 22.1748C123.9 22.6329 123.753 23.0178 123.459 23.3287C123.164 23.64 122.78 23.9099 122.306 24.139C121.831 24.368 121.291 24.5398 120.687 24.6543C120.081 24.7688 119.468 24.8261 118.847 24.8261C118.356 24.8261 117.833 24.7688 117.285 24.6543C116.729 24.5398 116.238 24.3517 115.805 24.0894C115.371 23.8272 115.003 23.4836 114.717 23.0577C114.43 22.6329 114.283 22.1089 114.283 21.4872ZM137.933 20.9959L136.756 23.5009C136.625 23.7627 136.511 23.9099 136.412 23.9426C136.314 23.9754 136.151 23.9917 135.922 23.9917C135.66 23.9917 135.414 23.9263 135.186 23.7954C134.957 23.6645 134.809 23.4518 134.744 23.1569L134.106 19.817C134.073 19.7515 134.016 19.5961 133.934 19.3502C133.853 19.1048 133.763 18.9821 133.665 18.9821C133.534 18.9821 133.394 19.113 133.247 19.3748C133.1 19.637 132.953 19.9315 132.806 20.2587C132.658 20.5859 132.528 20.9054 132.413 21.2163C132.299 21.5276 132.242 21.7321 132.242 21.8302C132.242 21.9611 132.217 22.2397 132.168 22.6651C132.119 23.0909 132.095 23.3691 132.095 23.5C131.997 23.8599 131.76 24.1221 131.383 24.2857C131.007 24.4493 130.623 24.5311 130.23 24.5311C129.838 24.5311 129.502 24.433 129.224 24.2366C128.946 24.0403 128.774 23.729 128.709 23.3036C128.709 23.2055 128.684 22.9846 128.635 22.6406C128.586 22.297 128.537 21.912 128.488 21.4867C128.439 21.0608 128.39 20.6682 128.341 20.3078C128.292 19.9474 128.251 19.7183 128.219 19.6202C128.219 19.5547 128.169 19.3416 128.071 18.9816C127.973 18.6212 127.908 18.3922 127.875 18.294C127.843 18.1304 127.728 17.8927 127.532 17.5819C127.335 17.2706 127.139 17.1151 126.943 17.1151C126.583 17.1151 126.346 17.2951 126.231 17.6555C126.117 18.0154 126.027 18.4004 125.962 18.8099C125.896 19.2189 125.806 19.6038 125.691 19.9637C125.577 20.3241 125.34 20.5041 124.98 20.5041C124.816 20.5041 124.727 20.4305 124.71 20.2832C124.694 20.136 124.686 20.0128 124.686 19.9147C124.686 19.5547 124.767 19.0798 124.931 18.4904C125.094 17.9009 125.315 17.3278 125.593 16.7711C125.872 16.2144 126.19 15.7399 126.55 15.3468C126.91 14.9541 127.302 14.7573 127.728 14.7573C128.153 14.7573 128.529 14.9623 128.856 15.3713C129.183 15.7808 129.469 16.2553 129.715 16.7956C129.96 17.336 130.156 17.8764 130.303 18.4163C130.451 18.9566 130.524 19.3574 130.524 19.6197C130.524 19.6197 130.557 19.636 130.622 19.6688H130.72C130.949 19.6688 131.195 19.4315 131.456 18.9566C131.718 18.4817 131.98 17.9582 132.241 17.3851C132.503 16.812 132.781 16.2885 133.075 15.8135C133.369 15.3386 133.681 15.1014 134.007 15.1014C134.269 15.1014 134.531 15.2404 134.792 15.519C135.054 15.7972 135.218 16.0676 135.283 16.3294L135.921 19.6202C135.921 19.6529 135.938 19.6693 135.97 19.6693H136.068C136.396 19.6693 136.665 19.4647 136.878 19.0553C137.09 18.6458 137.295 18.204 137.491 17.7291C137.687 17.2542 137.9 16.8125 138.129 16.403C138.358 15.9935 138.669 15.789 139.061 15.789C139.29 15.789 139.487 15.9117 139.65 16.1576C139.814 16.403 139.961 16.7307 140.091 17.1397C140.222 17.5492 140.345 17.9991 140.46 18.4904C140.574 18.9816 140.713 19.4729 140.877 19.9637C141.138 20.8149 141.367 21.5435 141.564 22.1493C141.76 22.7551 142.136 23.0577 142.692 23.0577C142.954 23.0577 143.297 22.9269 143.723 22.6646C143.952 22.501 144.255 22.2311 144.63 21.8543C145.007 21.478 145.358 21.2894 145.686 21.2894C145.849 21.2894 145.947 21.3385 145.98 21.4366C146.013 21.5348 146.029 21.6657 146.029 21.8293C146.029 22.2224 145.865 22.5496 145.538 22.8119C144.949 23.2699 144.36 23.7203 143.771 24.1625C143.183 24.6043 142.545 24.8256 141.858 24.8256C141.465 24.8256 141.081 24.7438 140.704 24.5797C140.328 24.4161 139.977 24.1053 139.65 23.6467C139.519 23.4504 139.404 23.2127 139.306 22.9346C139.208 22.656 139.118 22.3697 139.036 22.0752C138.955 21.7802 138.856 21.5021 138.742 21.2403C138.627 20.9786 138.472 20.7822 138.276 20.6509L137.933 20.9959ZM130.524 13.5799C130.459 13.6126 130.328 13.629 130.131 13.629C129.935 13.629 129.723 13.6453 129.493 13.678C128.349 13.678 127.776 13.3503 127.776 12.6955V12.5973C127.842 12.3683 127.989 12.2123 128.218 12.1305C128.447 12.0487 128.708 12.0078 129.003 12.0078H130.18C130.932 12.0078 131.676 12.0406 132.412 12.106C133.148 12.1714 133.86 12.2042 134.547 12.2042C135.692 12.2042 136.624 12.1878 137.344 12.1551C138.063 12.1224 138.636 12.0815 139.061 12.0324C139.486 11.9833 139.78 11.9342 139.944 11.8851C140.107 11.8361 140.222 11.8115 140.288 11.8115C140.549 11.8115 140.68 11.8442 140.68 11.9097V11.9588C140.68 12.2537 140.353 12.4991 139.699 12.6955C139.044 12.8923 138.292 13.0559 137.442 13.1867C136.591 13.3176 135.757 13.4076 134.94 13.4567C134.122 13.5058 133.549 13.5303 133.222 13.5303L130.524 13.5799ZM152.653 15.2987C153.667 15.3968 154.305 15.7245 154.567 16.2812C154.829 16.838 154.959 17.5256 154.959 18.3441C154.959 19.1298 154.812 19.8911 154.518 20.6278C154.223 21.3645 153.822 22.0275 153.316 22.617C152.809 23.2064 152.22 23.6732 151.549 24.0167C150.878 24.3603 150.183 24.5326 149.464 24.5326C147.468 24.5326 146.471 23.3705 146.471 21.0454C146.471 20.4233 146.577 19.7193 146.79 18.9335C147.002 18.1477 147.297 17.4111 147.673 16.7234C148.049 16.0358 148.491 15.4627 148.998 15.0047C149.505 14.5461 150.069 14.317 150.69 14.317C150.854 14.317 151.099 14.4561 151.426 14.7342C151.754 15.0124 152.163 15.2005 152.653 15.2987ZM151.623 19.4243C151.427 19.0312 151.157 18.6058 150.814 18.1473C150.47 17.6887 150.298 17.2306 150.298 16.772C150.298 16.6084 150.323 16.4285 150.372 16.2317C150.421 16.0354 150.527 15.8549 150.691 15.6913C150.626 15.6259 150.544 15.5931 150.445 15.5931C150.184 15.5931 149.938 15.6913 149.709 15.8876C149.48 16.084 149.284 16.3462 149.12 16.6734C148.957 17.0011 148.826 17.3774 148.728 17.8032C148.63 18.2291 148.581 18.6544 148.581 19.0803C148.581 19.7025 148.671 20.2837 148.851 20.8241C149.031 21.364 149.334 21.6344 149.759 21.6344C149.89 21.6344 150.078 21.618 150.323 21.5853C150.568 21.5526 150.806 21.4872 151.035 21.389C151.264 21.2908 151.46 21.1595 151.624 20.9959C151.787 20.8323 151.869 20.6027 151.869 20.3083C151.868 19.9806 151.787 19.6861 151.623 19.4243ZM162.859 45.4054C162.237 43.7357 161.755 42.1636 161.412 40.6902C161.068 39.2169 160.823 37.7598 160.676 36.3192C160.529 34.8785 160.447 33.4051 160.43 31.899C160.414 30.3929 160.405 28.805 160.405 27.1348C160.405 26.8731 160.275 26.6604 160.013 26.4963C159.751 26.3327 159.457 26.1691 159.13 26.0055C158.574 25.7437 158.026 25.3669 157.486 24.8757C156.947 24.3844 156.677 23.7949 156.677 23.1073C156.677 22.4524 156.84 21.8384 157.167 21.2653C157.495 20.6922 157.911 20.1687 158.419 19.6938C158.926 19.2189 159.474 18.7935 160.062 18.4167C160.651 18.04 161.191 17.7046 161.681 17.4101C161.911 17.2792 162.188 17.1483 162.515 17.0174C162.842 16.8866 163.072 16.7061 163.202 16.4771C163.726 15.7895 164.363 15.1918 165.116 14.6842C165.868 14.1765 166.735 13.923 167.717 13.923C168.404 13.923 168.944 14.0538 169.336 14.3161C169.729 14.5778 170.039 14.9301 170.268 15.3718C170.497 15.814 170.644 16.3048 170.71 16.8452C170.775 17.3856 170.808 17.9173 170.808 18.4413C170.808 20.0783 170.154 21.4862 168.845 22.6651C167.537 23.844 165.819 24.8097 163.693 25.5628C163.464 25.7264 163.268 25.9227 163.104 26.1522C162.941 26.3813 162.826 26.6103 162.761 26.8398C162.368 28.3787 162.131 30.0402 162.05 31.8249C161.968 33.6096 161.968 35.3366 162.05 37.0063C162.131 38.676 162.287 40.2066 162.516 41.5982C162.745 42.9898 162.99 44.0951 163.252 44.9136C163.383 45.3067 163.399 45.6094 163.301 45.8221C163.203 46.0357 163.056 45.8966 162.859 45.4054ZM159.179 22.1252C159.179 22.2888 159.204 22.477 159.253 22.6901C159.302 22.9028 159.375 23.0914 159.473 23.255C159.571 23.4186 159.694 23.5418 159.841 23.6236C159.988 23.7054 160.16 23.6972 160.356 23.5991C160.618 23.4682 160.839 23.1896 161.019 22.7642C161.199 22.3384 161.363 21.8639 161.51 21.3399C161.657 20.8159 161.788 20.2842 161.902 19.7438C162.017 19.2035 162.139 18.7367 162.27 18.3441C162.074 18.475 161.812 18.6467 161.485 18.8599C161.158 19.0726 160.831 19.3425 160.504 19.6702C160.177 19.9974 159.89 20.366 159.645 20.7755C159.4 21.184 159.244 21.6344 159.179 22.1252ZM163.301 22.4202C163.301 22.5511 163.358 22.7151 163.472 22.9115C163.587 23.1078 163.726 23.1896 163.89 23.1569C164.577 23.0914 165.215 22.9033 165.803 22.592C166.392 22.2811 166.899 21.8962 167.325 21.4381C167.75 20.9795 168.077 20.4719 168.306 19.9156C168.535 19.3589 168.617 18.7863 168.551 18.1968C168.485 17.6401 168.313 17.3047 168.035 17.1902C167.758 17.0757 167.52 17.0184 167.324 17.0184C166.833 17.0184 166.351 17.2229 165.877 17.6324C165.402 18.0414 164.969 18.5409 164.576 19.1303C164.183 19.7198 163.873 20.3174 163.644 20.9232C163.415 21.5281 163.301 22.0271 163.301 22.4202ZM179.051 45.4054C178.43 43.7357 177.947 42.1636 177.604 40.6902C177.26 39.2169 177.015 37.7598 176.868 36.3192C176.721 34.8785 176.639 33.4051 176.622 31.899C176.606 30.3929 176.598 28.805 176.598 27.1348C176.598 26.8731 176.467 26.6604 176.205 26.4963C175.943 26.3327 175.649 26.1691 175.322 26.0055C174.766 25.7437 174.219 25.3669 173.679 24.8757C173.139 24.3844 172.869 23.7949 172.869 23.1073C172.869 22.4524 173.033 21.8384 173.36 21.2653C173.687 20.6922 174.104 20.1687 174.611 19.6938C175.119 19.2189 175.667 18.7935 176.255 18.4167C176.844 18.04 177.384 17.7046 177.874 17.4101C178.103 17.2792 178.381 17.1483 178.708 17.0174C179.035 16.8866 179.264 16.7061 179.395 16.4771C179.919 15.7895 180.556 15.1918 181.309 14.6842C182.061 14.1765 182.928 13.923 183.91 13.923C184.596 13.923 185.136 14.0538 185.529 14.3161C185.921 14.5778 186.232 14.9301 186.461 15.3718C186.69 15.814 186.837 16.3048 186.902 16.8452C186.968 17.3856 187.001 17.9173 187.001 18.4413C187.001 20.0783 186.346 21.4862 185.038 22.6651C183.729 23.844 182.012 24.8097 179.886 25.5628C179.657 25.7264 179.461 25.9227 179.297 26.1522C179.134 26.3813 179.019 26.6103 178.954 26.8398C178.561 28.3787 178.324 30.0402 178.242 31.8249C178.161 33.6096 178.161 35.3366 178.242 37.0063C178.324 38.676 178.479 40.2066 178.709 41.5982C178.937 42.9898 179.183 44.0951 179.445 44.9136C179.575 45.3067 179.592 45.6094 179.494 45.8221C179.395 46.0357 179.247 45.8966 179.051 45.4054ZM175.371 22.1252C175.371 22.2888 175.396 22.477 175.445 22.6901C175.494 22.9028 175.568 23.0914 175.666 23.255C175.764 23.4186 175.886 23.5418 176.033 23.6236C176.18 23.7054 176.353 23.6972 176.549 23.5991C176.811 23.4682 177.031 23.1896 177.211 22.7642C177.391 22.3384 177.555 21.8639 177.702 21.3399C177.849 20.8159 177.98 20.2842 178.095 19.7438C178.209 19.2035 178.332 18.7367 178.462 18.3441C178.266 18.475 178.004 18.6467 177.677 18.8599C177.35 19.0726 177.023 19.3425 176.696 19.6702C176.369 19.9974 176.082 20.366 175.837 20.7755C175.592 21.184 175.437 21.6344 175.371 22.1252ZM179.493 22.4202C179.493 22.5511 179.55 22.7151 179.665 22.9115C179.779 23.1078 179.918 23.1896 180.082 23.1569C180.769 23.0914 181.407 22.9033 181.996 22.592C182.585 22.2811 183.091 21.8962 183.517 21.4381C183.942 20.9795 184.269 20.4719 184.498 19.9156C184.727 19.3589 184.809 18.7863 184.743 18.1968C184.678 17.6401 184.506 17.3047 184.228 17.1902C183.95 17.0757 183.712 17.0184 183.516 17.0184C183.025 17.0184 182.543 17.2229 182.069 17.6324C181.594 18.0414 181.161 18.5409 180.768 19.1303C180.376 19.7198 180.065 20.3174 179.836 20.9232C179.608 21.5281 179.493 22.0271 179.493 22.4202Z" fill="white"/>
<path d="M53.7656 29.618V34.3548H54.616V32.2116H56.8649V34.3548H57.7153V29.618H56.8649V31.5264H54.616V29.618H53.7656ZM62.5254 34.3548C62.4667 34.0319 62.447 33.6306 62.447 33.2197V31.4485C62.447 30.4991 62.0951 29.5107 60.6482 29.5107C60.0521 29.5107 59.4848 29.6772 59.0935 29.9313L59.2892 30.4991C59.6218 30.284 60.0809 30.1469 60.5213 30.1469C61.489 30.1469 61.5966 30.8513 61.5966 31.243V31.3412C59.7684 31.3315 58.7517 31.9576 58.7517 33.1028C58.7517 33.788 59.2406 34.4631 60.1987 34.4631C60.8731 34.4631 61.3817 34.1306 61.6457 33.7586H61.675L61.7433 34.3558H62.5254V34.3548ZM61.6163 32.7597C61.6163 32.8478 61.5966 32.9454 61.5673 33.0335C61.4303 33.4348 61.0395 33.8265 60.4232 33.8265C59.9833 33.8265 59.6117 33.5623 59.6117 33.0046C59.6117 32.0846 60.6775 31.9181 61.6159 31.9378V32.7597H61.6163ZM63.2099 29.618L64.9603 33.9829C64.9992 34.0906 65.0189 34.159 65.0189 34.2081C65.0189 34.2571 64.9896 34.3255 64.9506 34.4135C64.755 34.8538 64.4618 35.1868 64.2272 35.3725C63.9729 35.5876 63.6892 35.7247 63.4743 35.7936L63.6892 36.5177C63.9046 36.4788 64.3247 36.332 64.7454 35.96C65.3319 35.451 65.7525 34.6195 66.3683 32.9945L67.6591 29.618H66.75L65.8116 32.3974C65.6943 32.74 65.5963 33.1018 65.5088 33.3857H65.4891C65.4107 33.1018 65.2934 32.7299 65.1862 32.4171L64.1498 29.618H63.2099ZM68.3624 29.618V31.2719C68.3624 32.3584 69.0176 32.8184 69.917 32.8184C70.3665 32.8184 70.8751 32.6716 71.1977 32.4561H71.2174V34.3548H72.0678V29.618H71.2174V31.8493C70.9535 32.0447 70.5722 32.1818 70.2006 32.1818C69.4478 32.1818 69.2229 31.7709 69.2229 31.1737V29.6176H68.3624V29.618ZM73.4561 29.618V34.3548H74.3065V32.2116H76.5553V34.3548H77.4058V29.618H76.5553V31.5264H74.3065V29.618H73.4561ZM82.2164 34.3548C82.1577 34.0319 82.138 33.6306 82.138 33.2197V31.4485C82.138 30.4991 81.7861 29.5107 80.3391 29.5107C79.743 29.5107 79.1758 29.6772 78.7845 29.9313L78.9801 30.4991C79.3128 30.284 79.7719 30.1469 80.2122 30.1469C81.1799 30.1469 81.2876 30.8513 81.2876 31.243V31.3412C79.4594 31.3315 78.4427 31.9576 78.4427 33.1028C78.4427 33.788 78.9316 34.4631 79.8897 34.4631C80.5641 34.4631 81.0727 34.1306 81.3366 33.7586H81.366L81.4342 34.3558H82.2164V34.3548ZM81.3068 32.7597C81.3068 32.8478 81.2871 32.9454 81.2578 33.0335C81.1208 33.4348 80.73 33.8265 80.1137 33.8265C79.6738 33.8265 79.3022 33.5623 79.3022 33.0046C79.3022 32.0846 80.368 31.9181 81.3063 31.9378V32.7597H81.3068ZM86.9779 29.6575C86.5674 29.6084 86.0199 29.5593 85.4526 29.5593C84.8368 29.5593 84.2599 29.6575 83.8686 29.8822C83.5066 30.0877 83.2427 30.4207 83.2427 30.91C83.2427 31.6342 83.8782 32.0158 84.494 32.0841V32.1135C84.2787 32.1524 84.1027 32.2602 83.9561 32.3873C83.5355 32.7395 83.4182 33.3559 83.2129 33.8159C83.1249 34.0214 83.0269 34.1975 82.9197 34.3543H83.8388C83.9071 34.2369 83.9758 34.1099 84.034 33.9627C84.22 33.5026 84.3469 32.9156 84.6988 32.6317C84.8849 32.4652 85.1291 32.3675 85.4911 32.3675H86.1266V34.3543H86.977V29.6575H86.9779ZM86.1271 31.781C85.9314 31.781 85.7458 31.781 85.3935 31.781C84.8853 31.781 84.1325 31.5659 84.1325 30.9591C84.1325 30.3032 84.8267 30.1372 85.4132 30.1372C85.716 30.1372 85.9117 30.157 86.1271 30.1863V31.781ZM93.6749 33.533C93.4307 33.6407 93.1077 33.7678 92.6193 33.7678C91.6804 33.7678 90.9766 33.0927 90.9766 31.9965C90.9766 31.0082 91.5631 30.2056 92.6486 30.2056C93.1178 30.2056 93.4403 30.3134 93.6456 30.4308L93.8412 29.7653C93.6067 29.6479 93.1567 29.5204 92.6486 29.5204C91.104 29.5204 90.1065 30.5775 90.1065 32.0355C90.1065 33.4839 91.0353 34.4525 92.463 34.4525C93.0985 34.4525 93.597 34.2961 93.822 34.1787L93.6749 33.533ZM94.2225 29.618V30.3032H95.6988V34.3548H96.5492V30.3032H98.0255V29.618H94.2225ZM100.851 29.5107C99.5412 29.5107 98.5048 30.4404 98.5048 32.0259C98.5048 33.5233 99.4922 34.4626 100.773 34.4626C101.917 34.4626 103.129 33.6994 103.129 31.9475C103.129 30.4991 102.21 29.5107 100.851 29.5107ZM100.832 30.1565C101.849 30.1565 102.25 31.1742 102.25 31.9768C102.25 33.0436 101.634 33.8169 100.812 33.8169C99.9715 33.8169 99.3749 33.034 99.3749 31.9965C99.3749 31.0962 99.8152 30.1565 100.832 30.1565ZM103.911 34.3548H104.703L104.821 32.1139C104.85 31.5952 104.879 30.9687 104.899 30.411H104.938C105.055 30.8513 105.26 31.5365 105.407 31.9864L106.248 34.3255H106.874L107.783 31.9374C108.047 31.2132 108.175 30.8316 108.301 30.4009H108.331C108.35 30.9784 108.389 31.5851 108.419 32.0937L108.526 34.3543H109.348L109.015 29.6176H107.95L107.187 31.6823C107.002 32.201 106.738 32.9546 106.63 33.3068H106.61C106.503 32.9348 106.297 32.3574 106.18 32.0052L105.32 29.6176H104.263L103.911 34.3548ZM113.864 34.3548C113.806 34.0319 113.786 33.6306 113.786 33.2197V31.4485C113.786 30.4991 113.434 29.5107 111.987 29.5107C111.391 29.5107 110.824 29.6772 110.433 29.9313L110.628 30.4991C110.961 30.284 111.42 30.1469 111.86 30.1469C112.828 30.1469 112.936 30.8513 112.936 31.243V31.3412C111.107 31.3315 110.091 31.9576 110.091 33.1028C110.091 33.788 110.58 34.4631 111.538 34.4631C112.212 34.4631 112.721 34.1306 112.985 33.7586H113.014L113.082 34.3558H113.864V34.3548ZM112.955 32.7597C112.955 32.8478 112.936 32.9454 112.907 33.0335C112.77 33.4348 112.379 33.8265 111.763 33.8265C111.323 33.8265 110.951 33.5623 110.951 33.0046C110.951 32.0846 112.017 31.9181 112.955 31.9378V32.7597ZM114.569 29.618V30.3032H116.045V34.3548H116.895V30.3032H118.372V29.618H114.569ZM121.197 29.5107C119.887 29.5107 118.851 30.4404 118.851 32.0259C118.851 33.5233 119.838 34.4626 121.119 34.4626C122.263 34.4626 123.476 33.6994 123.476 31.9475C123.476 30.4991 122.556 29.5107 121.197 29.5107ZM121.178 30.1565C122.194 30.1565 122.595 31.1742 122.595 31.9768C122.595 33.0436 121.98 33.8169 121.158 33.8169C120.317 33.8169 119.721 33.034 119.721 31.9965C119.721 31.0962 120.161 30.1565 121.178 30.1565ZM124.824 29.618V31.5264C124.824 32.5836 124.775 33.2486 124.336 33.5719C124.218 33.6701 124.033 33.7384 123.866 33.7678L123.954 34.4429C124.394 34.4429 124.658 34.3351 124.893 34.1494C125.509 33.748 125.636 32.8579 125.636 31.5269V30.2941H127.259V34.3553H128.109V29.6185H124.824V29.618ZM131.522 29.5107C130.212 29.5107 129.175 30.4404 129.175 32.0259C129.175 33.5233 130.163 34.4626 131.444 34.4626C132.588 34.4626 133.8 33.6994 133.8 31.9475C133.8 30.4991 132.881 29.5107 131.522 29.5107ZM131.502 30.1565C132.519 30.1565 132.92 31.1742 132.92 31.9768C132.92 33.0436 132.304 33.8169 131.482 33.8169C130.642 33.8169 130.045 33.034 130.045 31.9965C130.046 31.0962 130.485 30.1565 131.502 30.1565ZM134.866 29.618V34.3548H135.716V30.3129H137.769V29.618H134.866ZM138.63 29.618V34.3548H139.617C140.126 33.5229 140.644 32.6129 141.094 31.8791C141.367 31.3994 141.572 31.0178 141.876 30.411H141.905C141.866 31.1742 141.846 31.5755 141.846 32.3488V34.3548H142.668V29.618H141.66L140.184 32.0649C139.871 32.6129 139.705 32.9454 139.422 33.5229L139.392 33.5132C139.431 32.8381 139.441 32.368 139.441 31.6145V29.618H138.63ZM147.517 29.6575C147.107 29.6084 146.559 29.5593 145.992 29.5593C145.376 29.5593 144.799 29.6575 144.408 29.8822C144.046 30.0877 143.782 30.4207 143.782 30.91C143.782 31.6342 144.417 32.0158 145.033 32.0841V32.1135C144.818 32.1524 144.642 32.2602 144.495 32.3873C144.075 32.7395 143.957 33.3559 143.752 33.8159C143.664 34.0214 143.566 34.1975 143.459 34.3543H144.378C144.446 34.2369 144.515 34.1099 144.573 33.9627C144.759 33.5026 144.886 32.9156 145.238 32.6317C145.424 32.4652 145.668 32.3675 146.03 32.3675H146.665V34.3543H147.516V29.6575H147.517ZM146.667 31.781C146.471 31.781 146.285 31.781 145.933 31.781C145.425 31.781 144.672 31.5659 144.672 30.9591C144.672 30.3032 145.366 30.1372 145.953 30.1372C146.256 30.1372 146.451 30.157 146.667 30.1863V31.781Z" fill="#BDBDBD"/>
</svg>
