<svg width="188" height="47" viewBox="0 0 188 47" fill="none" xmlns="http://www.w3.org/2000/svg">
<path d="M52.5645 17.1292C52.5645 18.6642 52.1078 20.052 51.1939 21.2934C50.2805 22.5342 49.0892 23.6531 47.6209 24.6492C46.1527 25.6452 44.5051 26.5107 42.6778 27.2455C40.8504 27.9803 39.0236 28.601 37.1963 29.107C35.3689 29.6135 33.6233 30.0135 31.9593 30.3072C30.2953 30.6013 28.9087 30.7972 27.7991 30.8949C27.5381 31.4503 27.3177 31.8992 27.1384 32.2422C26.9591 32.5852 26.7875 32.8788 26.6247 33.1241C26.4613 33.3694 26.2985 33.5977 26.1351 33.8101C25.9717 34.0224 25.776 34.2754 25.5479 34.5695C25.4827 34.6349 25.3522 34.7572 25.1564 34.9372C24.9607 35.1167 24.7162 35.2067 24.4223 35.2067C24.2918 35.1742 24.1367 35.1085 23.9574 35.0107C23.7781 34.9125 23.6882 34.7495 23.6882 34.5207C23.6882 34.4883 23.737 34.3736 23.8351 34.1777C23.9332 33.9818 24.0555 33.7288 24.2019 33.4182C24.3488 33.1081 24.504 32.7651 24.6669 32.3893C24.8302 32.0139 24.9607 31.6298 25.0583 31.2379L23.5901 31.4338C23.492 31.4338 22.9376 31.4992 21.9261 31.6298C20.9146 31.7604 19.6831 31.9399 18.2308 32.1687C16.779 32.3975 15.2209 32.6747 13.5569 33.0012C11.8929 33.3277 10.3512 33.6954 8.93176 34.1037C7.51233 34.512 6.32971 34.9532 5.38342 35.4263C4.43713 35.8999 3.96398 36.3981 3.96398 36.9206C3.96398 37.5737 4.29842 38.1043 4.9673 38.5126C5.63618 38.9209 6.44376 39.2475 7.39005 39.4927C8.33634 39.7375 9.31501 39.9252 10.3265 40.0558C11.3381 40.1864 12.2027 40.2846 12.9204 40.3499C12.757 40.5459 12.4961 40.7011 12.1374 40.8153C11.7784 40.9295 11.4033 41.0112 11.0119 41.0606C10.6204 41.1099 10.2531 41.1423 9.91092 41.1583C9.56826 41.1747 9.34788 41.183 9.25025 41.183C8.76067 41.183 8.00239 41.1094 6.97442 40.9624C5.94645 40.8153 4.91897 40.5541 3.891 40.1787C2.86304 39.8033 1.95782 39.3133 1.17489 38.709C0.391468 38.1048 0 37.3618 0 36.4799C0 35.7286 0.546608 35.0431 1.63982 34.4225C2.73303 33.8018 4.1196 33.2305 5.80002 32.7081C7.48043 32.1856 9.34015 31.7202 11.3796 31.3119C13.4191 30.9036 15.4011 30.5524 17.3261 30.2588C19.2511 29.9647 20.9885 29.7199 22.5384 29.524C24.0883 29.3281 25.2057 29.181 25.891 29.0833C26.3478 27.9078 26.7392 26.5847 27.0654 25.115C27.3917 23.6454 27.6526 22.2328 27.8484 20.8773C28.0441 19.5218 28.191 18.3134 28.2887 17.2521C28.3868 16.1907 28.4356 15.4806 28.4356 15.1211C28.4356 14.9576 28.4438 14.7535 28.4602 14.5087C28.4767 14.2639 28.4844 13.9616 28.4844 13.6026C28.4844 12.982 28.452 12.2718 28.3868 11.4717C28.3215 10.6715 28.191 9.89559 27.9953 9.1448C27.7996 8.39353 27.5057 7.69983 27.1143 7.06272C26.7228 6.42562 26.1844 5.97669 25.4991 5.71546C24.5204 5.32362 23.5007 5.03772 22.4403 4.85825C21.38 4.67877 20.2785 4.5559 19.1365 4.49059C19.006 4.49059 18.8267 4.47414 18.5981 4.44173C18.3695 4.40932 18.1496 4.34353 17.9375 4.24581C17.7253 4.14761 17.5213 4.00103 17.3256 3.80511C17.1299 3.60919 17.0158 3.36393 16.983 3.07029C17.2116 2.87436 17.4479 2.69489 17.6924 2.53138C17.9375 2.36787 18.2796 2.22904 18.7204 2.11487C19.1607 2.0007 19.7484 1.91072 20.4825 1.84542C21.2166 1.78011 22.2035 1.7477 23.4436 1.7477C23.5417 1.7477 23.8027 1.75592 24.2266 1.77189C24.6509 1.78833 25.1076 1.79656 25.5967 1.79656C26.0863 1.79656 26.5512 1.80478 26.9915 1.82123C27.4318 1.83768 27.7174 1.8459 27.8479 1.8459C28.0436 1.8459 28.2311 1.79704 28.4104 1.69884C28.5898 1.60064 28.8019 1.48647 29.0469 1.35586C29.2915 1.22524 29.5689 1.09463 29.8787 0.964014C30.1885 0.8334 30.5558 0.751645 30.9801 0.71875C31.2411 0.914671 31.4615 1.19235 31.6408 1.55178C31.8201 1.91121 32.0733 2.17244 32.3996 2.33546C33.4111 2.7602 34.6101 3.18445 35.9967 3.60919C37.3833 4.03393 38.8192 4.51526 40.3038 5.05417C41.7885 5.59307 43.265 6.20551 44.7332 6.89147C46.2015 7.57744 47.5146 8.40176 48.673 9.3654C49.8315 10.329 50.7696 11.4475 51.4873 12.7212C52.2059 13.994 52.5645 15.4636 52.5645 17.1292ZM49.3835 18.1581C49.3835 16.6232 48.9103 15.2348 47.9641 13.994C47.0178 12.7527 45.8675 11.6995 44.5138 10.8341C43.1596 9.96864 41.7325 9.29912 40.2313 8.82553C38.7302 8.35193 37.4253 8.11537 36.3157 8.11537C35.6632 8.11537 34.9615 8.3766 34.2109 8.89906C33.4604 9.42151 32.8244 10.0422 32.3019 10.7605C32.3019 12.0014 32.2285 13.3569 32.0816 14.8265C31.9346 16.2962 31.7065 17.8229 31.3962 19.4072C31.0864 20.991 30.6945 22.5913 30.2218 24.208C29.7487 25.8247 29.1697 27.3679 28.4844 28.8375C29.2021 28.7398 30.2136 28.5681 31.519 28.3233C32.8244 28.0785 34.2515 27.7438 35.8015 27.319C37.3514 26.8943 38.9255 26.3883 40.5242 25.8005C42.123 25.2127 43.583 24.5432 44.9048 23.792C46.2266 23.0407 47.3029 22.1999 48.1351 21.2692C48.9674 20.3379 49.3835 19.3013 49.3835 18.1581Z" fill="black"/>
<path d="M55.2057 24.2958C55.1728 24.1313 55.1564 23.9828 55.1564 23.8512C55.1564 23.7196 55.1564 23.5716 55.1564 23.4067C55.1564 22.0899 55.5759 20.8882 56.4144 19.8022C57.2529 18.7157 58.3302 17.6954 59.6457 16.741C59.6128 16.5765 59.5717 16.4038 59.5225 16.2224C59.4732 16.0415 59.4485 15.8688 59.4485 15.7038C59.4485 15.4407 59.5307 15.2263 59.6955 15.0619C59.8598 14.8974 60.172 14.8152 60.6326 14.8152C61.3232 14.8152 61.8495 15.1199 62.211 15.7285C62.5725 16.3375 62.877 17.0535 63.1235 17.8764C63.37 18.6992 63.6087 19.5221 63.8388 20.3454C64.0688 21.1683 64.3979 21.7938 64.8256 22.2219C64.9571 22.3535 65.1707 22.5262 65.467 22.74C65.7627 22.9543 66.0672 23.1846 66.3794 23.4313C66.6916 23.6785 66.9632 23.9088 67.1933 24.1226C67.4238 24.3369 67.5388 24.4932 67.5388 24.5919C67.5388 24.9542 67.3001 25.2091 66.8236 25.3572C66.3466 25.5052 65.9604 25.5797 65.6642 25.5797C65.1707 25.5797 64.7681 25.5057 64.4554 25.3572C64.1432 25.2091 63.8798 25.02 63.6662 24.7892C63.4526 24.559 63.2467 24.2958 63.0495 23.9993C62.8523 23.7032 62.6383 23.4231 62.4082 23.1599C61.5533 23.8183 60.7476 24.4356 59.9912 25.0118C59.2349 25.5879 58.3635 25.8757 57.3766 25.8757C56.8503 25.8757 56.3738 25.6948 55.9461 25.3325C55.5179 24.9706 55.2714 24.6252 55.2057 24.2958ZM61.3222 20.5926C61.3222 20.0658 61.1908 19.5555 60.9279 19.062C60.6645 18.5681 60.3851 18.0907 60.0894 17.6301C59.7607 17.6301 59.4234 17.8275 59.0783 18.2227C58.7328 18.618 58.4288 19.0867 58.1658 19.63C57.9029 20.1732 57.6811 20.7078 57.4999 21.2346C57.3191 21.7614 57.2287 22.1561 57.2287 22.4198C57.2287 22.4527 57.237 22.5431 57.2534 22.6912C57.2698 22.8392 57.3027 22.9877 57.352 23.1357C57.4013 23.2838 57.467 23.4154 57.5492 23.5305C57.6313 23.6456 57.7381 23.7032 57.8696 23.7032C58.2644 23.7032 58.6588 23.5798 59.0537 23.3326C59.448 23.0859 59.8182 22.7894 60.1633 22.444C60.5089 22.0981 60.7882 21.7527 61.0018 21.4068C61.2154 21.0619 61.3222 20.79 61.3222 20.5926ZM74.5916 21.3333C73.3418 21.3333 72.7169 21.9917 72.7169 23.3085C72.7169 23.8682 72.7662 24.2963 72.8648 24.5923C72.9634 24.8889 73.0126 25.2178 73.0126 25.5802C73.0126 25.8762 72.7657 26.0243 72.2727 26.0243C71.9107 26.0243 71.6314 25.9173 71.4342 25.7035C71.237 25.4897 71.0891 25.2178 70.9905 24.8889C70.892 24.5594 70.8262 24.2223 70.7934 23.8764C70.7605 23.5305 70.7441 23.2098 70.7441 22.9137V22.025C70.7441 21.8606 70.6948 21.7701 70.5962 21.7537C70.4976 21.7372 70.3333 21.729 70.1027 21.729C69.5107 21.7619 69.0999 21.7948 68.8699 21.8277C68.6398 21.8606 68.3435 21.877 67.982 21.877C67.5548 21.877 67.3407 21.7948 67.3407 21.6303C67.3407 21.3338 67.5215 21.1117 67.8834 20.9637C68.2454 20.8157 68.648 20.6754 69.0922 20.5438C69.5363 20.4122 69.9471 20.2642 70.3255 20.0992C70.7035 19.9347 70.8929 19.688 70.8929 19.3586V19.0625C70.8929 18.7331 70.8436 18.3877 70.745 18.0254C70.6464 17.6635 70.3507 17.4821 69.8572 17.4821C69.6929 17.4821 69.545 17.5232 69.4131 17.6055C69.2816 17.6877 69.0844 17.7288 68.821 17.7288C68.4267 17.7288 68.229 17.5479 68.229 17.1856C68.229 17.054 68.3522 16.8479 68.5987 16.5683C68.8457 16.2887 69.1415 16.025 69.4865 15.7783C69.8321 15.5311 70.1772 15.3091 70.5227 15.1117C70.8683 14.9143 71.1558 14.8152 71.3859 14.8152C71.7479 14.8152 72.0519 14.9138 72.2983 15.1117C72.5448 15.3091 72.7338 15.5393 72.8657 15.803C72.9972 16.0661 73.0876 16.338 73.1368 16.6176C73.1861 16.8972 73.2108 17.1362 73.2108 17.3336V18.2222C73.2108 19.0122 73.3094 19.4732 73.5071 19.6048C73.7042 19.7364 74.0005 19.8022 74.3949 19.8022C75.0526 19.8022 75.5461 19.613 75.8747 19.2343C76.2038 18.8555 76.401 18.1724 76.4668 17.1851C76.5325 16.4938 76.7384 15.8436 77.0834 15.2346C77.429 14.6255 77.7823 14.3212 78.1443 14.3212H78.1936C78.3579 14.3212 78.5304 14.387 78.7116 14.5186C78.8924 14.6502 78.9828 14.8311 78.9828 15.0619L78.4893 18.0737C78.3907 18.6005 78.2922 19.2672 78.1936 20.0736C78.095 20.88 78.0457 21.8103 78.0457 22.8634C78.0457 23.6534 78.095 24.5091 78.1936 25.4312C78.2264 25.5956 78.3168 25.7524 78.4647 25.9004C78.6126 26.0484 78.6865 26.1887 78.6865 26.3203C78.6865 26.419 78.6454 26.6246 78.5633 26.9376C78.4811 27.2501 78.2922 27.4228 77.9959 27.4557C77.3053 27.4557 76.8534 27.2583 76.6393 26.8631C76.4257 26.4679 76.3189 25.9744 76.3189 25.3818V24.5425C76.3189 24.1144 76.3106 23.7032 76.2942 23.308C76.2778 22.9132 76.212 22.5673 76.097 22.2713C75.982 21.9747 75.809 21.7445 75.5789 21.58C75.3479 21.4155 75.0193 21.3333 74.5916 21.3333ZM92.893 21.8272L91.7089 24.3456C91.5774 24.6088 91.4624 24.7568 91.3638 24.7897C91.2652 24.8226 91.1004 24.8391 90.8704 24.8391C90.6074 24.8391 90.3605 24.7733 90.1304 24.6417C89.9004 24.5101 89.752 24.2963 89.6863 23.9997L89.045 20.642C89.0121 20.5762 88.9546 20.4199 88.8724 20.1727C88.7903 19.926 88.6999 19.8027 88.6013 19.8027C88.4698 19.8027 88.3297 19.9343 88.1818 20.1974C88.0339 20.4611 87.886 20.7571 87.7376 21.0861C87.5898 21.415 87.4583 21.7362 87.3433 22.0488C87.2283 22.3617 87.1707 22.5673 87.1707 22.666C87.1707 22.7976 87.1461 23.0777 87.0968 23.5053C87.0475 23.9335 87.0229 24.2131 87.0229 24.3447C86.9243 24.7065 86.686 24.9702 86.3076 25.1346C85.9297 25.2991 85.543 25.3813 85.1482 25.3813C84.7538 25.3813 84.4165 25.2827 84.1371 25.0853C83.8573 24.8879 83.6847 24.5749 83.619 24.1473C83.619 24.0486 83.5944 23.8266 83.5451 23.4807C83.4958 23.1353 83.4465 22.7483 83.3972 22.3206C83.3479 21.8925 83.2986 21.4978 83.2493 21.1354C83.2 20.7731 83.1589 20.5428 83.1261 20.4441C83.1261 20.3783 83.0768 20.164 82.9782 19.8022C82.8796 19.4399 82.8139 19.2096 82.781 19.1109C82.7481 18.9464 82.6331 18.7075 82.4354 18.3949C82.2383 18.082 82.0411 17.9257 81.8434 17.9257C81.4819 17.9257 81.2431 18.1066 81.1281 18.469C81.0131 18.8308 80.9227 19.2178 80.857 19.6295C80.7913 20.0407 80.7009 20.4277 80.5854 20.7895C80.4704 21.1519 80.2321 21.3328 79.8701 21.3328C79.7058 21.3328 79.6154 21.2588 79.599 21.1108C79.5825 20.9627 79.5743 20.8389 79.5743 20.7402C79.5743 20.3783 79.6565 19.9009 79.8208 19.3083C79.9851 18.7157 80.2074 18.1395 80.4868 17.5798C80.7666 17.0201 81.087 16.5431 81.449 16.1479C81.8105 15.7532 82.2054 15.5553 82.6331 15.5553C83.0603 15.5553 83.4387 15.7614 83.7674 16.1726C84.0965 16.5842 84.3841 17.0612 84.6306 17.6045C84.877 18.1477 85.0742 18.691 85.2226 19.2338C85.3705 19.777 85.4444 20.18 85.4444 20.4437C85.4444 20.4437 85.4773 20.4601 85.543 20.493H85.6416C85.8716 20.493 86.1186 20.2545 86.3815 19.777C86.6449 19.2996 86.9078 18.7732 87.1707 18.1971C87.4337 17.6209 87.7135 17.0946 88.0093 16.6171C88.305 16.1397 88.6177 15.9012 88.9464 15.9012C89.2098 15.9012 89.4727 16.041 89.7356 16.3211C89.999 16.6007 90.1633 16.8726 90.229 17.1357L90.8704 20.4441C90.8704 20.477 90.8868 20.4935 90.9197 20.4935H91.0182C91.3474 20.4935 91.6185 20.2879 91.8321 19.8762C92.0457 19.4645 92.2511 19.0204 92.4488 18.543C92.646 18.0655 92.8601 17.6214 93.0901 17.2097C93.3202 16.7981 93.6329 16.5925 94.0272 16.5925C94.2573 16.5925 94.455 16.7158 94.6193 16.963C94.7836 17.2097 94.9315 17.5392 95.0629 17.9504C95.1944 18.3621 95.3181 18.8144 95.4331 19.3083C95.5482 19.8022 95.6878 20.2961 95.8526 20.7895C96.1156 21.6453 96.3456 22.3777 96.5433 22.9868C96.7405 23.5958 97.1189 23.9001 97.6776 23.9001C97.941 23.9001 98.286 23.7685 98.7137 23.5049C98.9438 23.3404 99.2483 23.069 99.6262 22.6902C100.005 22.3119 100.358 22.1223 100.687 22.1223C100.851 22.1223 100.95 22.1716 100.983 22.2703C101.016 22.369 101.032 22.5006 101.032 22.6651C101.032 23.0603 100.868 23.3892 100.539 23.6529C99.9466 24.1134 99.3546 24.5662 98.7626 25.0108C98.1705 25.4549 97.5292 25.6774 96.8386 25.6774C96.4442 25.6774 96.0576 25.5952 95.6791 25.4302C95.3012 25.2657 94.9474 24.9532 94.6188 24.4922C94.4873 24.2948 94.3718 24.0559 94.2732 23.7762C94.1746 23.4962 94.0843 23.2083 94.0021 22.9123C93.92 22.6157 93.8214 22.3361 93.7058 22.0729C93.5908 21.8098 93.4347 21.6124 93.2375 21.4803L92.893 21.8272ZM85.4444 14.3716C85.3787 14.4044 85.2472 14.4209 85.0496 14.4209C84.8524 14.4209 84.6388 14.4373 84.4082 14.4702C83.2575 14.4702 82.6819 14.1408 82.6819 13.4824V13.3837C82.7476 13.1535 82.8955 12.9967 83.1256 12.9145C83.3556 12.8322 83.619 12.7911 83.9148 12.7911H85.0984C85.8547 12.7911 86.6029 12.824 87.3428 12.8898C88.0827 12.9556 88.798 12.9885 89.4886 12.9885C90.6398 12.9885 91.5769 12.972 92.3004 12.9392C93.0239 12.9063 93.5995 12.8651 94.0272 12.8158C94.455 12.7665 94.7507 12.7171 94.9151 12.6678C95.0794 12.6184 95.1949 12.5938 95.2606 12.5938C95.5235 12.5938 95.655 12.6266 95.655 12.6924V12.7418C95.655 13.0383 95.3263 13.285 94.6686 13.4824C94.0108 13.6803 93.2545 13.8447 92.3995 13.9763C91.5446 14.1079 90.706 14.1984 89.884 14.2477C89.0619 14.2971 88.4863 14.3217 88.1572 14.3217L85.4444 14.3716ZM102.907 24.2465C102.644 23.8841 102.38 23.44 102.118 22.9132C101.855 22.3864 101.616 21.8349 101.402 21.2593C101.189 20.6831 101.007 20.0987 100.86 19.5061C100.712 18.9135 100.638 18.3543 100.638 17.8275C100.638 17.4981 100.646 17.0786 100.662 16.5683C100.679 16.0579 100.753 15.5805 100.884 15.1364C101.016 14.6918 101.205 14.3053 101.452 13.9758C101.699 13.6464 102.068 13.4819 102.562 13.4819C102.792 13.4819 102.973 13.6962 103.104 14.1239C103.236 14.552 103.335 15.0865 103.4 15.7285C103.466 16.3704 103.532 17.0699 103.597 17.827C103.663 18.5841 103.77 19.2836 103.918 19.9256C104.066 20.5675 104.272 21.1025 104.535 21.5302C104.798 21.9583 105.16 22.1721 105.62 22.1721C106.212 22.1721 106.632 21.8678 106.878 21.2588C107.125 20.6497 107.33 19.9831 107.495 19.2589C107.659 18.5348 107.857 17.8681 108.087 17.2591C108.317 16.65 108.695 16.3458 109.222 16.3458C109.748 16.3458 110.175 16.4938 110.504 16.7898C110.833 17.0864 111.113 17.44 111.343 17.8517C111.573 18.2629 111.762 18.7075 111.91 19.1849C112.058 19.6624 112.231 20.0818 112.428 20.4441C112.658 20.8389 112.897 21.3328 113.143 21.9254C113.39 22.518 113.513 23.0448 113.513 23.5053C113.513 24.065 113.234 24.3447 112.675 24.3447C112.379 24.3447 112.124 24.2295 111.91 23.9988C111.696 23.7685 111.491 23.5049 111.293 23.2088C111.096 22.9127 110.89 22.6491 110.677 22.4188C110.463 22.1881 110.224 22.0729 109.961 22.0729L109.863 22.1223C109.501 22.2868 109.222 22.5833 109.024 23.0109C108.827 23.4386 108.621 23.8667 108.408 24.2948C108.194 24.7225 107.939 25.1013 107.643 25.4302C107.347 25.7596 106.903 25.9241 106.311 25.9241C105.686 25.9241 105.078 25.8172 104.486 25.6034C103.893 25.3905 103.367 24.9377 102.907 24.2465ZM114.894 22.3211C114.894 21.6298 115.066 20.9056 115.403 20.1486C115.741 19.3915 116.234 18.692 116.883 18.05C117.533 17.4081 118.314 16.8813 119.234 16.4701C120.155 16.0584 121.208 15.8528 122.391 15.8528C122.556 15.8528 122.704 15.8528 122.835 15.8528C122.967 15.8528 123.115 15.8693 123.279 15.9022C123.543 15.9679 123.74 16.1489 123.871 16.4454C124.003 16.7415 124.068 16.9388 124.068 17.038C123.97 17.2683 123.797 17.4328 123.55 17.5314C123.304 17.6301 123.016 17.7041 122.687 17.754C122.358 17.8033 122.038 17.8362 121.725 17.8527C121.413 17.8691 121.158 17.9102 120.961 17.976C120.007 18.3055 119.201 18.7331 118.544 19.2599C117.886 19.7867 117.557 20.478 117.557 21.3338C117.557 21.9264 117.722 22.4943 118.051 23.0371C118.38 23.5803 118.939 23.8517 119.728 23.8517C120.156 23.8517 120.525 23.7119 120.838 23.4318C121.15 23.1522 121.43 22.8557 121.676 22.5431C121.923 22.2306 122.178 21.9341 122.441 21.6545C122.704 21.3744 123.017 21.2346 123.378 21.2346C123.937 21.2346 124.274 21.4402 124.39 21.8519C124.505 22.2635 124.562 22.6501 124.562 23.0124C124.562 23.4729 124.414 23.8599 124.119 24.1724C123.822 24.4854 123.436 24.7568 122.959 24.9871C122.482 25.2174 121.939 25.3901 121.331 25.5052C120.723 25.6203 120.106 25.6779 119.482 25.6779C118.988 25.6779 118.463 25.6203 117.912 25.5052C117.352 25.3901 116.86 25.2009 116.424 24.9373C115.988 24.6736 115.618 24.3282 115.33 23.9001C115.042 23.4729 114.894 22.9461 114.894 22.3211ZM138.671 21.8272L137.487 24.3456C137.355 24.6088 137.24 24.7568 137.141 24.7897C137.043 24.8226 136.879 24.8391 136.648 24.8391C136.385 24.8391 136.138 24.7733 135.908 24.6417C135.678 24.5101 135.53 24.2963 135.464 23.9997L134.823 20.642C134.79 20.5762 134.732 20.4199 134.65 20.1727C134.568 19.926 134.478 19.8027 134.379 19.8027C134.247 19.8027 134.107 19.9343 133.959 20.1974C133.812 20.4611 133.664 20.7571 133.515 21.0861C133.367 21.415 133.236 21.7362 133.121 22.0488C133.006 22.3617 132.948 22.5673 132.948 22.666C132.948 22.7976 132.924 23.0777 132.874 23.5053C132.825 23.9335 132.8 24.2131 132.8 24.3447C132.702 24.7065 132.464 24.9702 132.085 25.1346C131.707 25.2991 131.321 25.3813 130.926 25.3813C130.531 25.3813 130.194 25.2827 129.915 25.0853C129.635 24.8879 129.462 24.5749 129.397 24.1473C129.397 24.0486 129.372 23.8266 129.323 23.4807C129.273 23.1353 129.224 22.7483 129.175 22.3206C129.126 21.8925 129.076 21.4978 129.027 21.1354C128.978 20.7731 128.937 20.5428 128.904 20.4441C128.904 20.3783 128.854 20.164 128.756 19.8022C128.657 19.4399 128.591 19.2096 128.559 19.1109C128.526 18.9464 128.411 18.7075 128.213 18.3949C128.016 18.082 127.819 17.9257 127.621 17.9257C127.26 17.9257 127.021 18.1066 126.906 18.469C126.791 18.8308 126.7 19.2178 126.635 19.6295C126.569 20.0407 126.479 20.4277 126.363 20.7895C126.248 21.1519 126.01 21.3328 125.648 21.3328C125.483 21.3328 125.393 21.2588 125.377 21.1108C125.36 20.9627 125.352 20.8389 125.352 20.7402C125.352 20.3783 125.434 19.9009 125.598 19.3083C125.763 18.7157 125.985 18.1395 126.264 17.5798C126.544 17.0201 126.865 16.5431 127.226 16.1479C127.588 15.7532 127.983 15.5553 128.41 15.5553C128.837 15.5553 129.216 15.7614 129.545 16.1726C129.874 16.5842 130.161 17.0612 130.408 17.6045C130.654 18.1477 130.851 18.691 131 19.2338C131.148 19.777 131.222 20.18 131.222 20.4437C131.222 20.4437 131.254 20.4601 131.32 20.493H131.419C131.649 20.493 131.896 20.2545 132.159 19.777C132.422 19.2996 132.685 18.7732 132.948 18.1971C133.211 17.6209 133.491 17.0946 133.786 16.6171C134.082 16.1397 134.395 15.9012 134.724 15.9012C134.986 15.9012 135.25 16.041 135.513 16.3211C135.776 16.6007 135.94 16.8726 136.006 17.1357L136.648 20.4441C136.648 20.477 136.664 20.4935 136.697 20.4935H136.795C137.125 20.4935 137.396 20.2879 137.609 19.8762C137.823 19.4645 138.028 19.0204 138.226 18.543C138.423 18.0655 138.637 17.6214 138.867 17.2097C139.098 16.7981 139.41 16.5925 139.804 16.5925C140.034 16.5925 140.232 16.7158 140.396 16.963C140.561 17.2097 140.709 17.5392 140.84 17.9504C140.972 18.3621 141.095 18.8144 141.21 19.3083C141.325 19.8022 141.465 20.2961 141.63 20.7895C141.893 21.6453 142.123 22.3777 142.32 22.9868C142.518 23.5958 142.896 23.9001 143.455 23.9001C143.718 23.9001 144.063 23.7685 144.491 23.5049C144.721 23.3404 145.025 23.069 145.403 22.6902C145.782 22.3119 146.135 22.1223 146.464 22.1223C146.629 22.1223 146.727 22.1716 146.76 22.2703C146.793 22.369 146.809 22.5006 146.809 22.6651C146.809 23.0603 146.645 23.3892 146.316 23.6529C145.724 24.1134 145.132 24.5662 144.54 25.0108C143.948 25.4549 143.306 25.6774 142.616 25.6774C142.221 25.6774 141.835 25.5952 141.456 25.4302C141.078 25.2657 140.725 24.9532 140.396 24.4922C140.264 24.2948 140.149 24.0559 140.05 23.7762C139.952 23.4962 139.861 23.2083 139.779 22.9123C139.697 22.6157 139.598 22.3361 139.483 22.0729C139.368 21.8098 139.212 21.6124 139.015 21.4803L138.671 21.8272ZM131.222 14.3716C131.156 14.4044 131.024 14.4209 130.827 14.4209C130.63 14.4209 130.416 14.4373 130.185 14.4702C129.035 14.4702 128.459 14.1408 128.459 13.4824V13.3837C128.525 13.1535 128.673 12.9967 128.903 12.9145C129.133 12.8322 129.396 12.7911 129.692 12.7911H130.876C131.632 12.7911 132.38 12.824 133.12 12.8898C133.86 12.9556 134.575 12.9885 135.266 12.9885C136.417 12.9885 137.354 12.972 138.078 12.9392C138.801 12.9063 139.377 12.8651 139.804 12.8158C140.231 12.7665 140.527 12.7171 140.692 12.6678C140.856 12.6184 140.972 12.5938 141.037 12.5938C141.3 12.5938 141.432 12.6266 141.432 12.6924V12.7418C141.432 13.0383 141.103 13.285 140.445 13.4824C139.787 13.6803 139.031 13.8447 138.176 13.9763C137.321 14.1079 136.483 14.1984 135.661 14.2477C134.839 14.2971 134.263 14.3217 133.934 14.3217L131.222 14.3716ZM153.469 16.0995C154.488 16.1982 155.13 16.5276 155.393 17.0874C155.656 17.6471 155.787 18.3383 155.787 19.1612C155.787 19.9512 155.64 20.7165 155.343 21.4571C155.047 22.1978 154.644 22.8644 154.135 23.457C153.625 24.0496 153.033 24.5188 152.359 24.8642C151.685 25.2096 150.986 25.3828 150.262 25.3828C148.256 25.3828 147.253 24.2145 147.253 21.877C147.253 21.2515 147.36 20.5438 147.574 19.7538C147.788 18.9638 148.084 18.2232 148.462 17.5319C148.841 16.8406 149.284 16.2645 149.794 15.804C150.304 15.3429 150.871 15.1127 151.496 15.1127C151.66 15.1127 151.907 15.2525 152.236 15.5321C152.565 15.8117 152.976 16.0008 153.469 16.0995ZM152.433 20.2472C152.236 19.852 151.965 19.4244 151.619 18.9634C151.274 18.5023 151.101 18.0418 151.101 17.5808C151.101 17.4163 151.126 17.2354 151.175 17.0375C151.225 16.8402 151.331 16.6587 151.496 16.4943C151.431 16.4285 151.348 16.3956 151.249 16.3956C150.986 16.3956 150.739 16.4943 150.509 16.6916C150.279 16.889 150.082 17.1527 149.917 17.4816C149.753 17.8111 149.622 18.1894 149.523 18.6175C149.424 19.0456 149.375 19.4732 149.375 19.9014C149.375 20.5269 149.465 21.1112 149.647 21.6545C149.827 22.1973 150.132 22.4691 150.559 22.4691C150.691 22.4691 150.88 22.4527 151.127 22.4198C151.373 22.3869 151.612 22.3211 151.842 22.2224C152.072 22.1237 152.27 21.9917 152.434 21.8272C152.598 21.6627 152.68 21.432 152.68 21.1359C152.68 20.8065 152.598 20.5104 152.433 20.2472ZM163.729 46.3671C163.104 44.6885 162.619 43.1081 162.274 41.6268C161.929 40.1456 161.682 38.6808 161.534 37.2324C161.386 35.784 161.304 34.3028 161.287 32.7886C161.271 31.2745 161.263 29.6781 161.263 27.9989C161.263 27.7358 161.131 27.522 160.868 27.357C160.605 27.1925 160.309 27.028 159.98 26.8636C159.421 26.6004 158.871 26.2216 158.328 25.7277C157.785 25.2338 157.514 24.6412 157.514 23.9499C157.514 23.2915 157.679 22.6742 158.007 22.0981C158.336 21.5219 158.755 20.9956 159.265 20.5182C159.775 20.0407 160.326 19.613 160.918 19.2343C161.51 18.8555 162.052 18.5183 162.545 18.2222C162.776 18.0907 163.055 17.9591 163.384 17.8275C163.712 17.6959 163.943 17.5145 164.074 17.2842C164.601 16.593 165.242 15.9921 165.998 15.4818C166.755 14.9714 167.626 14.7165 168.613 14.7165C169.304 14.7165 169.846 14.8481 170.241 15.1117C170.636 15.3749 170.948 15.729 171.178 16.1731C171.408 16.6176 171.556 17.1111 171.622 17.6543C171.688 18.1976 171.721 18.7321 171.721 19.2589C171.721 20.9047 171.063 22.3201 169.747 23.5053C168.432 24.6905 166.706 25.6614 164.568 26.4185C164.338 26.583 164.141 26.7804 163.976 27.0111C163.812 27.2414 163.697 27.4717 163.631 27.7024C163.236 29.2495 162.998 30.9199 162.916 32.7141C162.833 34.5084 162.833 36.2446 162.916 37.9232C162.998 39.6018 163.154 41.1406 163.384 42.5397C163.614 43.9387 163.861 45.0499 164.124 45.8727C164.256 46.268 164.272 46.5723 164.174 46.7861C164.075 47.0009 163.927 46.8611 163.729 46.3671ZM160.03 22.9626C160.03 23.127 160.054 23.3162 160.104 23.5305C160.153 23.7443 160.227 23.9339 160.326 24.0984C160.424 24.2629 160.547 24.3867 160.695 24.469C160.843 24.5512 161.016 24.543 161.213 24.4443C161.477 24.3127 161.699 24.0326 161.879 23.605C162.06 23.1769 162.225 22.6999 162.373 22.1731C162.521 21.6463 162.652 21.1117 162.768 20.5685C162.883 20.0252 163.006 19.556 163.137 19.1612C162.94 19.2928 162.677 19.4655 162.348 19.6798C162.019 19.8936 161.69 20.165 161.361 20.4944C161.033 20.8234 160.745 21.194 160.498 21.6056C160.252 22.0163 160.095 22.4691 160.03 22.9626ZM164.174 23.2591C164.174 23.3907 164.231 23.5556 164.346 23.753C164.461 23.9504 164.601 24.0326 164.766 23.9997C165.456 23.9339 166.098 23.7448 166.69 23.4318C167.282 23.1193 167.791 22.7323 168.219 22.2718C168.646 21.8107 168.975 21.3004 169.205 20.7412C169.436 20.1815 169.518 19.6058 169.452 19.0132C169.386 18.4535 169.213 18.1163 168.933 18.0012C168.654 17.886 168.415 17.8285 168.218 17.8285C167.725 17.8285 167.24 18.0341 166.763 18.4457C166.286 18.8569 165.851 19.3591 165.456 19.9517C165.061 20.5443 164.749 21.1451 164.519 21.7541C164.289 22.3622 164.174 22.8639 164.174 23.2591ZM180.008 46.3671C179.383 44.6885 178.898 43.1081 178.553 41.6268C178.207 40.1456 177.961 38.6808 177.813 37.2324C177.665 35.784 177.583 34.3028 177.566 32.7886C177.55 31.2745 177.541 29.6781 177.541 27.9989C177.541 27.7358 177.41 27.522 177.147 27.357C176.884 27.1925 176.588 27.028 176.259 26.8636C175.7 26.6004 175.15 26.2216 174.607 25.7277C174.064 25.2338 173.793 24.6412 173.793 23.9499C173.793 23.2915 173.957 22.6742 174.286 22.0981C174.616 21.5219 175.035 20.9956 175.544 20.5182C176.054 20.0407 176.605 19.613 177.197 19.2343C177.789 18.8555 178.332 18.5183 178.825 18.2222C179.055 18.0907 179.334 17.9591 179.663 17.8275C179.992 17.6959 180.222 17.5145 180.354 17.2842C180.88 16.593 181.521 15.9921 182.278 15.4818C183.034 14.9714 183.905 14.7165 184.892 14.7165C185.583 14.7165 186.126 14.8481 186.52 15.1117C186.915 15.3749 187.227 15.729 187.457 16.1731C187.687 16.6176 187.836 17.1111 187.901 17.6543C187.967 18.1976 188 18.7321 188 19.2589C188 20.9047 187.342 22.3201 186.027 23.5053C184.711 24.6905 182.985 25.6614 180.847 26.4185C180.617 26.583 180.42 26.7804 180.255 27.0111C180.091 27.2414 179.976 27.4717 179.91 27.7024C179.515 29.2495 179.277 30.9199 179.195 32.7141C179.113 34.5084 179.113 36.2446 179.195 37.9232C179.277 39.6018 179.433 41.1406 179.664 42.5397C179.894 43.9387 180.14 45.0499 180.404 45.8727C180.535 46.268 180.551 46.5723 180.453 46.7861C180.354 47.0009 180.205 46.8611 180.008 46.3671ZM176.309 22.9626C176.309 23.127 176.333 23.3162 176.383 23.5305C176.432 23.7443 176.506 23.9339 176.604 24.0984C176.703 24.2629 176.826 24.3867 176.974 24.469C177.122 24.5512 177.295 24.543 177.492 24.4443C177.756 24.3127 177.977 24.0326 178.158 23.605C178.339 23.1769 178.504 22.6999 178.652 22.1731C178.799 21.6463 178.931 21.1117 179.046 20.5685C179.161 20.0252 179.285 19.556 179.416 19.1612C179.219 19.2928 178.956 19.4655 178.627 19.6798C178.298 19.8936 177.969 20.165 177.64 20.4944C177.311 20.8234 177.023 21.194 176.777 21.6056C176.53 22.0163 176.374 22.4691 176.309 22.9626ZM180.452 23.2591C180.452 23.3907 180.51 23.5556 180.625 23.753C180.74 23.9504 180.88 24.0326 181.044 23.9997C181.735 23.9339 182.376 23.7448 182.968 23.4318C183.56 23.1193 184.07 22.7323 184.498 22.2718C184.925 21.8107 185.254 21.3004 185.484 20.7412C185.714 20.1815 185.797 19.6058 185.73 19.0132C185.665 18.4535 185.492 18.1163 185.212 18.0012C184.933 17.886 184.694 17.8285 184.497 17.8285C184.004 17.8285 183.519 18.0341 183.042 18.4457C182.565 18.8569 182.129 19.3591 181.735 19.9517C181.34 20.5443 181.027 21.1451 180.797 21.7541C180.567 22.3622 180.452 22.8639 180.452 23.2591Z" fill="black"/>
<path d="M54.0529 30.4956V35.2577H54.9078V33.103H57.1687V35.2577H58.0236V30.4956H57.1687V32.4141H54.9078V30.4956H54.0529ZM62.8594 35.2577C62.8005 34.9331 62.7807 34.5296 62.7807 34.1165V32.3358C62.7807 31.3813 62.4269 30.3877 60.9722 30.3877C60.3729 30.3877 59.8026 30.5551 59.4092 30.8105L59.6059 31.3813C59.9403 31.1651 60.4019 31.0272 60.8446 31.0272C61.8175 31.0272 61.9257 31.7354 61.9257 32.1292V32.2279C60.0878 32.2182 59.0656 32.8476 59.0656 33.9989C59.0656 34.6878 59.5571 35.3665 60.5203 35.3665C61.1984 35.3665 61.7097 35.0322 61.975 34.6583H62.0045L62.0731 35.2586H62.8594V35.2577ZM61.9455 33.654C61.9455 33.7425 61.9257 33.8407 61.8962 33.9293C61.7585 34.3327 61.3656 34.7265 60.746 34.7265C60.3038 34.7265 59.9302 34.4609 59.9302 33.9002C59.9302 32.9753 61.0017 32.8079 61.9451 32.8278V33.654H61.9455ZM63.5477 30.4956L65.3073 34.8837C65.3465 34.9921 65.3663 35.0608 65.3663 35.1101C65.3663 35.1595 65.3368 35.2282 65.2977 35.3167C65.101 35.7593 64.8062 36.0941 64.5703 36.2808C64.3146 36.497 64.0295 36.6349 63.8135 36.7041L64.0295 37.4321C64.246 37.393 64.6684 37.2454 65.0913 36.8715C65.6809 36.3597 66.1038 35.5237 66.7229 33.8901L68.0206 30.4956H67.1066L66.1632 33.2897C66.0453 33.6342 65.9467 33.998 65.8588 34.2834H65.839C65.7602 33.998 65.6423 33.624 65.5345 33.3096L64.4925 30.4956H63.5477ZM68.7276 30.4956V32.1582C68.7276 33.2506 69.3863 33.713 70.2906 33.713C70.7425 33.713 71.2538 33.5655 71.5781 33.3488H71.5979V35.2577H72.4528V30.4956H71.5979V32.7387C71.3326 32.9352 70.9493 33.073 70.5757 33.073C69.8189 33.073 69.5927 32.6599 69.5927 32.0596V30.4951H68.7276V30.4956ZM73.8486 30.4956V35.2577H74.7035V33.103H76.9644V35.2577H77.8193V30.4956H76.9644V32.4141H74.7035V30.4956H73.8486ZM82.6557 35.2577C82.5967 34.9331 82.5769 34.5296 82.5769 34.1165V32.3358C82.5769 31.3813 82.2231 30.3877 80.7684 30.3877C80.1691 30.3877 79.5988 30.5551 79.2054 30.8105L79.4021 31.3813C79.7366 31.1651 80.1981 31.0272 80.6408 31.0272C81.6137 31.0272 81.7219 31.7354 81.7219 32.1292V32.2279C79.884 32.2182 78.8618 32.8476 78.8618 33.9989C78.8618 34.6878 79.3533 35.3665 80.3165 35.3665C80.9946 35.3665 81.5059 35.0322 81.7712 34.6583H81.8007L81.8693 35.2586H82.6557V35.2577ZM81.7413 33.654C81.7413 33.7425 81.7215 33.8407 81.692 33.9293C81.5542 34.3327 81.1613 34.7265 80.5417 34.7265C80.0995 34.7265 79.7259 34.4609 79.7259 33.9002C79.7259 32.9753 80.7974 32.8079 81.7408 32.8278V33.654H81.7413ZM87.4427 30.5352C87.03 30.4859 86.4795 30.4366 85.9092 30.4366C85.2901 30.4366 84.7101 30.5352 84.3167 30.7612C83.9528 30.9677 83.6875 31.3025 83.6875 31.7945C83.6875 32.5225 84.3264 32.9061 84.9455 32.9748V33.0043C84.729 33.0435 84.5521 33.1519 84.4047 33.2796C83.9818 33.6337 83.8639 34.2534 83.6575 34.7159C83.5691 34.9224 83.4705 35.0995 83.3627 35.2572H84.2868C84.3554 35.1391 84.4245 35.0114 84.483 34.8634C84.67 34.4009 84.7976 33.8108 85.1514 33.5253C85.3384 33.358 85.5839 33.2598 85.9479 33.2598H86.5868V35.2572H87.4417V30.5352H87.4427ZM86.5873 32.6701C86.3906 32.6701 86.204 32.6701 85.8498 32.6701C85.3389 32.6701 84.5821 32.4538 84.5821 31.8438C84.5821 31.1844 85.2799 31.0175 85.8696 31.0175C86.174 31.0175 86.3707 31.0374 86.5873 31.0669V32.6701ZM94.1755 34.4314C93.9299 34.5398 93.6052 34.6675 93.1142 34.6675C92.1703 34.6675 91.4627 33.9888 91.4627 32.8868C91.4627 31.8931 92.0524 31.0862 93.1436 31.0862C93.6153 31.0862 93.9396 31.1946 94.146 31.3126L94.3427 30.6436C94.1068 30.5256 93.6545 30.3974 93.1436 30.3974C91.5908 30.3974 90.588 31.4602 90.588 32.926C90.588 34.3821 91.5217 35.3559 92.9571 35.3559C93.596 35.3559 94.0972 35.1986 94.3233 35.0806L94.1755 34.4314ZM94.7259 30.4956V31.1844H96.2101V35.2577H97.0651V31.1844H98.5493V30.4956H94.7259ZM101.39 30.3877C100.073 30.3877 99.0311 31.3223 99.0311 32.9163C99.0311 34.4217 100.024 35.366 101.312 35.366C102.462 35.366 103.68 34.5988 103.68 32.8374C103.68 31.3813 102.756 30.3877 101.39 30.3877ZM101.371 31.0369C102.393 31.0369 102.796 32.06 102.796 32.8669C102.796 33.9394 102.177 34.7168 101.351 34.7168C100.506 34.7168 99.9059 33.9298 99.9059 32.8868C99.9059 31.9817 100.349 31.0369 101.371 31.0369ZM104.467 35.2577H105.263L105.381 33.0048C105.41 32.4833 105.44 31.8535 105.459 31.2928H105.499C105.616 31.7354 105.823 32.4243 105.97 32.8766L106.816 35.2282H107.445L108.359 32.8273C108.625 32.0992 108.753 31.7156 108.88 31.2826H108.91C108.929 31.8631 108.969 32.4732 108.998 32.9845L109.106 35.2572H109.932L109.598 30.4951H108.526L107.76 32.5709C107.573 33.0924 107.308 33.8499 107.2 34.204H107.18C107.072 33.8301 106.865 33.2496 106.747 32.8955L105.882 30.4951H104.82L104.467 35.2577ZM114.473 35.2577C114.414 34.9331 114.394 34.5296 114.394 34.1165V32.3358C114.394 31.3813 114.04 30.3877 112.586 30.3877C111.986 30.3877 111.416 30.5551 111.023 30.8105L111.219 31.3813C111.554 31.1651 112.015 31.0272 112.458 31.0272C113.431 31.0272 113.539 31.7354 113.539 32.1292V32.2279C111.701 32.2182 110.679 32.8476 110.679 33.9989C110.679 34.6878 111.171 35.3665 112.134 35.3665C112.812 35.3665 113.323 35.0322 113.588 34.6583H113.618L113.687 35.2586H114.473V35.2577ZM113.559 33.654C113.559 33.7425 113.539 33.8407 113.51 33.9293C113.372 34.3327 112.979 34.7265 112.36 34.7265C111.918 34.7265 111.544 34.4609 111.544 33.9002C111.544 32.9753 112.616 32.8079 113.559 32.8278V33.654ZM115.181 30.4956V31.1844H116.665V35.2577H117.52V31.1844H119.004V30.4956H115.181ZM121.845 30.3877C120.528 30.3877 119.486 31.3223 119.486 32.9163C119.486 34.4217 120.479 35.366 121.767 35.366C122.916 35.366 124.135 34.5988 124.135 32.8374C124.135 31.3813 123.211 30.3877 121.845 30.3877ZM121.825 31.0369C122.847 31.0369 123.25 32.06 123.25 32.8669C123.25 33.9394 122.631 34.7168 121.805 34.7168C120.96 34.7168 120.36 33.9298 120.36 32.8868C120.361 31.9817 120.803 31.0369 121.825 31.0369ZM125.491 30.4956V32.4141C125.491 33.477 125.442 34.1455 125 34.4706C124.882 34.5693 124.695 34.638 124.528 34.6675L124.617 35.3462C125.059 35.3462 125.324 35.2378 125.56 35.0511C126.179 34.6476 126.307 33.7527 126.307 32.4146V31.1752H127.939V35.2581H128.794V30.4961H125.491V30.4956ZM132.225 30.3877C130.908 30.3877 129.866 31.3223 129.866 32.9163C129.866 34.4217 130.858 35.366 132.146 35.366C133.296 35.366 134.515 34.5988 134.515 32.8374C134.515 31.3813 133.591 30.3877 132.225 30.3877ZM132.205 31.0369C133.227 31.0369 133.63 32.06 133.63 32.8669C133.63 33.9394 133.011 34.7168 132.185 34.7168C131.34 34.7168 130.74 33.9298 130.74 32.8868C130.741 31.9817 131.183 31.0369 132.205 31.0369ZM135.587 30.4956V35.2577H136.441V31.1941H138.506V30.4956H135.587ZM139.371 30.4956V35.2577H140.363C140.875 34.4213 141.395 33.5065 141.848 32.7687C142.123 32.2864 142.329 31.9028 142.634 31.2928H142.663C142.624 32.06 142.604 32.4635 142.604 33.2409V35.2577H143.43V30.4956H142.417L140.933 32.9555C140.619 33.5065 140.451 33.8407 140.167 34.4212L140.137 34.4116C140.176 33.7329 140.187 33.2602 140.187 32.5027V30.4956H139.371ZM148.305 30.5352C147.893 30.4859 147.342 30.4366 146.772 30.4366C146.153 30.4366 145.573 30.5352 145.179 30.7612C144.816 30.9677 144.55 31.3025 144.55 31.7945C144.55 32.5225 145.189 32.9061 145.808 32.9748V33.0043C145.592 33.0435 145.415 33.1519 145.267 33.2796C144.845 33.6337 144.727 34.2534 144.52 34.7159C144.432 34.9224 144.333 35.0995 144.225 35.2572H145.149C145.218 35.1391 145.287 35.0114 145.346 34.8634C145.533 34.4009 145.66 33.8108 146.014 33.5253C146.201 33.358 146.447 33.2598 146.81 33.2598H147.449V35.2572H148.304V30.5352H148.305ZM147.45 32.6701C147.254 32.6701 147.067 32.6701 146.713 32.6701C146.202 32.6701 145.445 32.4538 145.445 31.8438C145.445 31.1844 146.143 31.0175 146.733 31.0175C147.037 31.0175 147.234 31.0374 147.45 31.0669V32.6701Z" fill="#BDBDBD"/>
</svg>
