<svg width="1122" height="900" viewBox="0 0 1122 900" fill="none" xmlns="http://www.w3.org/2000/svg">
<g opacity="0.19">
<mask id="mask0_398_2193" style="mask-type:alpha" maskUnits="userSpaceOnUse" x="0" y="-135" width="1122" height="1177">
<rect width="755.313" height="918.877" transform="matrix(-0.856826 -0.515605 -0.515605 0.856826 1121.89 254.676)" fill="#8D8D8D"/>
</mask>
<g mask="url(#mask0_398_2193)">
<path d="M917.641 425.808C908.789 437.765 891.834 440.273 879.847 431.4C867.861 422.526 865.309 405.577 874.159 393.621C883.011 381.662 899.969 379.152 911.956 388.025C923.942 396.898 926.493 413.849 917.641 425.808ZM886.265 402.583C882.343 407.881 883.476 415.393 888.786 419.324C894.098 423.257 901.611 422.144 905.533 416.845C909.457 411.544 908.327 404.036 903.014 400.104C897.704 396.172 890.189 397.282 886.265 402.583Z" fill="url(#paint0_linear_398_2193)"/>
<path d="M940.659 340.979L954.922 331.039L964.558 339.261L956.976 354.899C959.336 357.507 961.545 360.29 963.591 363.237L980.75 359.311L986.58 370.546L973.465 382.254C974.823 385.97 975.895 389.729 976.701 393.51L993.838 396.583L994.844 409.187L978.4 414.864C978.221 418.411 977.815 421.932 977.188 425.407L991.936 434.711L988.121 446.76L970.723 445.821C969.081 449.344 967.191 452.762 965.062 456.038L975.042 470.322L966.834 479.928L951.172 472.314C948.564 474.664 945.786 476.87 942.84 478.907L946.808 496.056L935.579 501.861L923.828 488.723C920.118 490.07 916.354 491.139 912.572 491.932L909.543 509.05L896.924 510.027L891.21 493.577C887.658 493.389 884.135 492.976 880.654 492.343L871.379 507.06L859.315 503.216L860.21 485.831C856.683 484.185 853.255 482.29 849.974 480.152L835.707 490.084L826.075 481.862L833.656 466.23C831.296 463.615 829.085 460.836 827.038 457.887L809.883 461.814L804.049 450.579L817.166 438.867C815.809 435.154 814.731 431.396 813.926 427.613L796.789 424.541L795.781 411.933L812.228 406.258C812.404 402.713 812.812 399.191 813.436 395.714L798.688 386.413L802.505 374.365L819.905 375.305C821.543 371.782 823.434 368.364 825.563 365.087L815.586 350.804L823.793 341.198L839.457 348.813C842.066 346.462 844.843 344.257 847.785 342.219L843.819 325.068L855.053 319.266L866.798 332.402C870.51 331.052 874.272 329.989 878.06 329.193L881.087 312.075L893.703 311.096L899.423 327.544C902.972 327.73 906.497 328.143 909.975 328.784L919.252 314.064L931.317 317.906L930.418 335.29C933.951 336.944 937.373 338.839 940.659 340.979ZM843.841 372.46C822.848 400.819 828.879 440.866 857.307 461.91C885.736 482.954 925.8 477.027 946.791 448.669C967.783 420.312 961.755 380.26 933.326 359.215C904.899 338.172 864.832 344.103 843.841 372.46Z" fill="url(#paint1_linear_398_2193)"/>
<path d="M840.276 280.519C836.575 285.519 829.484 286.568 824.472 282.858C819.458 279.147 818.391 272.059 822.093 267.059C825.794 262.059 832.886 261.008 837.9 264.72C842.912 268.43 843.979 275.517 840.276 280.519ZM827.156 270.807C825.516 273.022 825.989 276.164 828.21 277.808C830.431 279.452 833.573 278.986 835.213 276.771C836.854 274.554 836.381 271.415 834.16 269.771C831.939 268.127 828.797 268.591 827.156 270.807Z" fill="url(#paint2_linear_398_2193)"/>
<path d="M849.906 245.036L855.872 240.878L859.903 244.316L856.732 250.858C857.718 251.949 858.641 253.113 859.498 254.346L866.676 252.704L869.113 257.404L863.628 262.302C864.196 263.855 864.645 265.428 864.982 267.01L872.148 268.297L872.57 273.568L865.692 275.944C865.615 277.428 865.446 278.901 865.184 280.354L871.353 284.245L869.757 289.285L862.479 288.893C861.794 290.367 861.003 291.797 860.112 293.167L864.284 299.142L860.851 303.159L854.299 299.973C853.208 300.957 852.046 301.879 850.814 302.732L852.473 309.905L847.778 312.334L842.863 306.839C841.31 307.402 839.737 307.849 838.154 308.183L836.888 315.343L831.609 315.752L829.218 308.871C827.733 308.792 826.259 308.619 824.801 308.356L820.923 314.511L815.877 312.904L816.251 305.631C814.776 304.944 813.342 304.151 811.968 303.255L806.001 307.411L801.972 303.972L805.143 297.433C804.156 296.339 803.232 295.177 802.375 293.943L795.199 295.587L792.759 290.887L798.247 285.989C797.679 284.436 797.229 282.864 796.892 281.282L789.724 279.997L789.303 274.724L796.182 272.351C796.255 270.869 796.427 269.396 796.689 267.94L790.519 264.049L792.117 259.01L799.395 259.402C800.081 257.929 800.871 256.498 801.761 255.13L797.589 249.155L801.02 245.137L807.572 248.323C808.664 247.339 809.825 246.416 811.055 245.564L809.397 238.389L814.095 235.963L819.008 241.458C820.561 240.893 822.134 240.448 823.717 240.115L824.983 232.957L830.259 232.548L832.653 239.428C834.136 239.507 835.612 239.68 837.066 239.948L840.946 233.79L845.993 235.397L845.617 242.669C847.099 243.347 848.53 244.14 849.906 245.036ZM809.408 258.202C800.627 270.064 803.149 286.816 815.039 295.617C826.931 304.42 843.689 301.941 852.47 290.079C861.251 278.217 858.728 261.465 846.837 252.662C834.947 243.861 818.188 246.34 809.408 258.202Z" fill="url(#paint3_linear_398_2193)"/>
<path d="M245.872 422.812C240.546 430.008 230.341 431.517 223.129 426.178C215.913 420.837 214.38 410.637 219.705 403.443C225.033 396.245 235.236 394.735 242.452 400.076C249.664 405.415 251.2 415.615 245.872 422.812ZM226.991 408.835C224.632 412.022 225.312 416.545 228.508 418.911C231.706 421.278 236.226 420.605 238.585 417.418C240.947 414.228 240.267 409.71 237.071 407.345C233.875 404.979 229.352 405.646 226.991 408.835Z" fill="url(#paint4_linear_398_2193)"/>
<path d="M259.727 371.77L268.31 365.788L274.109 370.737L269.548 380.148C270.966 381.718 272.297 383.391 273.529 385.166L283.854 382.805L287.362 389.567L279.471 396.612C280.287 398.849 280.932 401.109 281.419 403.386L291.731 405.236L292.337 412.82L282.443 416.237C282.333 418.373 282.091 420.491 281.712 422.582L290.587 428.18L288.291 435.431L277.822 434.865C276.836 436.986 275.699 439.042 274.415 441.014L280.419 449.61L275.482 455.39L266.055 450.807C264.486 452.221 262.813 453.549 261.042 454.775L263.43 465.095L256.674 468.588L249.602 460.681C247.369 461.491 245.103 462.135 242.827 462.614L241.005 472.916L233.41 473.503L229.971 463.603C227.833 463.489 225.715 463.242 223.619 462.859L218.038 471.715L210.778 469.4L211.317 458.938C209.194 457.946 207.132 456.806 205.156 455.519L196.572 461.498L190.775 456.55L195.336 447.143C193.917 445.571 192.585 443.897 191.354 442.122L181.03 444.485L177.52 437.726L185.414 430.678C184.598 428.444 183.948 426.183 183.464 423.906L173.152 422.056L172.546 414.469L182.443 411.054C182.549 408.92 182.793 406.802 183.17 404.707L174.294 399.111L176.593 391.86L187.063 392.427C188.05 390.308 189.187 388.252 190.468 386.278L184.465 377.683L189.403 371.903L198.83 376.486C200.4 375.07 202.071 373.744 203.84 372.518L201.453 362.196L208.214 358.704L215.282 366.609C217.516 365.797 219.781 365.155 222.059 364.677L223.88 354.377L231.471 353.787L234.914 363.686C237.048 363.798 239.171 364.047 241.264 364.432L246.848 355.573L254.108 357.887L253.568 368.348C255.69 369.341 257.748 370.483 259.727 371.77ZM201.466 390.713C188.833 407.779 192.464 431.879 209.57 444.542C226.678 457.206 250.787 453.641 263.419 436.575C276.051 419.511 272.422 395.408 255.315 382.744C238.206 370.081 214.097 373.649 201.466 390.713Z" fill="url(#paint5_linear_398_2193)"/>
<path d="M640.339 654.373C624.486 675.789 594.117 680.283 572.647 664.389C551.177 648.496 546.605 618.137 562.458 596.721C578.313 575.302 608.686 570.806 630.156 586.7C651.626 602.593 656.194 632.954 640.339 654.373ZM584.142 612.773C577.121 622.259 579.147 635.718 588.658 642.759C598.171 649.801 611.628 647.805 618.651 638.319C625.678 628.826 623.655 615.375 614.142 608.333C604.63 601.292 591.169 603.28 584.142 612.773Z" fill="url(#paint6_linear_398_2193)"/>
<path d="M681.575 502.44L707.122 484.638L724.381 499.364L710.799 527.377C715.028 532.049 718.986 537.03 722.65 542.311L753.385 535.279L763.826 555.403L740.338 576.376C742.768 583.029 744.689 589.765 746.135 596.538L776.83 602.042L778.632 624.62L749.179 634.787C748.859 641.14 748.131 647.445 747.008 653.673L773.427 670.334L766.592 691.912L735.426 690.232C732.489 696.542 729.103 702.663 725.286 708.53L743.157 734.113L728.455 751.315L700.4 737.678C695.73 741.888 690.753 745.836 685.476 749.489L692.584 780.205L672.472 790.603L651.424 767.071C644.777 769.484 638.038 771.398 631.262 772.823L625.838 803.48L603.237 805.233L593.001 775.77C586.637 775.432 580.326 774.692 574.093 773.56L557.48 799.921L535.87 793.037L537.475 761.896C531.156 758.951 525.02 755.551 519.142 751.724L493.584 769.517L476.332 754.791L489.913 726.79C485.685 722.107 481.723 717.128 478.057 711.847L447.329 718.883L436.883 698.757L460.379 677.778C457.949 671.131 456.018 664.396 454.579 657.621L423.883 652.118L422.077 629.538L451.537 619.374C451.853 613.02 452.586 606.716 453.7 600.487L427.284 583.826L434.125 562.249L465.289 563.931C468.225 557.619 471.611 551.499 475.424 545.63L457.552 520.048L472.254 502.842L500.311 516.481C504.984 512.27 509.956 508.322 515.226 504.669L508.121 473.948L528.242 463.556L549.282 487.084C555.931 484.668 562.668 482.763 569.453 481.337L574.876 450.677L597.472 448.925L607.716 478.387C614.072 478.719 620.388 479.463 626.616 480.605L643.231 454.241L664.838 461.125L663.231 492.263C669.56 495.215 675.686 498.609 681.575 502.44ZM508.156 558.83C470.557 609.622 481.357 681.356 532.276 719.049C583.197 756.743 654.959 746.124 692.558 695.332C730.157 644.54 719.361 572.801 668.44 535.107C617.52 497.414 545.755 508.038 508.156 558.83Z" fill="url(#paint7_linear_398_2193)"/>
<path d="M738.409 268.493L753.544 257.944L763.768 266.674L755.722 283.267C758.224 286.04 760.573 288.986 762.743 292.123L780.953 287.949L787.139 299.879L773.225 312.308C774.663 316.252 775.805 320.235 776.655 324.253L794.847 327.511L795.912 340.894L778.46 346.917C778.273 350.677 777.837 354.412 777.179 358.102L792.829 367.977L788.775 380.77L770.314 379.766C768.574 383.507 766.569 387.133 764.306 390.605L774.896 405.767L766.186 415.965L749.558 407.881C746.797 410.376 743.845 412.71 740.719 414.873L744.934 433.075L733.018 439.238L720.54 425.294C716.607 426.728 712.609 427.86 708.594 428.702L705.384 446.87L691.987 447.907L685.929 430.448C682.156 430.242 678.419 429.809 674.721 429.14L664.877 444.76L652.075 440.683L653.028 422.228C649.284 420.476 645.644 418.47 642.163 416.203L627.022 426.745L616.795 418.016L624.845 401.423C622.336 398.656 619.989 395.702 617.818 392.566L599.612 396.739L593.416 384.815L607.343 372.385C605.899 368.446 604.757 364.456 603.908 360.434L585.721 357.178L584.648 343.8L602.099 337.776C602.29 334.01 602.73 330.273 603.384 326.582L587.738 316.708L591.785 303.93L610.259 304.923C611.993 301.18 613.999 297.557 616.258 294.08L605.669 278.923L614.378 268.728L631.003 276.809C633.775 274.311 636.722 271.974 639.845 269.812L635.632 251.607L647.557 245.449L660.026 259.388C663.966 257.956 667.959 256.823 671.973 255.985L675.188 237.814L688.576 236.782L694.646 254.239C698.411 254.44 702.154 254.871 705.846 255.555L715.688 239.933L728.495 244.004L727.54 262.461C731.288 264.211 734.915 266.222 738.409 268.493ZM664.303 323.112C653.706 337.427 656.746 357.645 671.098 368.269C685.444 378.889 705.67 375.893 716.267 361.578C726.859 347.269 723.819 327.048 709.472 316.428C695.12 305.806 674.894 308.804 664.303 323.112Z" fill="url(#paint8_linear_398_2193)"/>
<path d="M805.083 119.419L815.194 112.372L822.023 118.199L816.646 129.281C818.319 131.131 819.885 133.098 821.342 135.189L833.497 132.407L837.632 140.374L828.338 148.67C829.302 151.305 830.058 153.972 830.63 156.649L842.776 158.829L843.493 167.76L831.837 171.783C831.714 174.299 831.423 176.794 830.973 179.26L841.431 185.855L838.725 194.397L826.395 193.726C825.227 196.224 823.895 198.648 822.385 200.967L829.451 211.09L823.635 217.898L812.536 212.501C810.686 214.166 808.719 215.728 806.626 217.174L809.44 229.326L801.483 233.441L793.151 224.13C790.521 225.09 787.855 225.839 785.176 226.404L783.034 238.538L774.085 239.233L770.037 227.573C767.518 227.435 765.019 227.148 762.555 226.695L755.978 237.127L747.433 234.4L748.06 222.079C745.562 220.917 743.134 219.57 740.811 218.052L730.693 225.093L723.865 219.267L729.244 208.186C727.568 206.335 726.001 204.367 724.556 202.275L712.388 205.057L708.258 197.093L717.556 188.793C716.594 186.164 715.831 183.495 715.26 180.819L703.116 178.64L702.394 169.702L714.056 165.68C714.177 163.167 714.473 160.676 714.912 158.201L704.46 151.614L707.167 143.071L719.5 143.743C720.659 141.239 721.998 138.822 723.508 136.5L716.442 126.376L722.252 119.563L733.361 124.967C735.209 123.298 737.179 121.742 739.263 120.288L736.448 108.135L744.41 104.024L752.737 113.334C755.37 112.373 758.031 111.62 760.723 111.061L762.868 98.9233L771.807 98.2387L775.86 109.895C778.378 110.025 780.873 110.316 783.342 110.773L789.91 100.334L798.462 103.06L797.826 115.381C800.333 116.554 802.753 117.898 805.083 119.419ZM729.046 136.242C711.146 160.423 716.288 194.577 740.533 212.524C764.775 230.47 798.944 225.417 816.844 201.236C834.747 177.051 829.601 142.895 805.359 124.95C781.114 107.002 746.949 112.056 729.046 136.242Z" fill="url(#paint9_linear_398_2193)"/>
<path d="M731.033 137.711C713.971 160.76 718.89 193.428 742.001 210.537C765.108 227.642 797.793 222.81 814.855 199.761C831.919 176.709 826.997 144.035 803.89 126.93C780.779 109.822 748.098 114.657 731.033 137.711ZM810.034 196.192C794.934 216.591 766.01 220.871 745.559 205.731C725.106 190.591 720.754 161.675 735.852 141.278C750.954 120.877 779.88 116.595 800.333 131.736C820.784 146.875 825.137 175.789 810.034 196.192Z" fill="url(#paint10_linear_398_2193)"/>
<path d="M405.29 699.691L415.8 692.368L422.897 698.424L417.309 709.944C419.048 711.867 420.677 713.912 422.189 716.084L434.823 713.193L439.12 721.475L429.459 730.098C430.461 732.838 431.247 735.609 431.841 738.391L444.465 740.658L445.211 749.94L433.097 754.121C432.968 756.736 432.666 759.331 432.2 761.894L443.069 768.747L440.256 777.626L427.441 776.928C426.226 779.525 424.842 782.044 423.272 784.455L430.616 794.979L424.57 802.055L413.034 796.446C411.109 798.177 409.066 799.798 406.892 801.303L409.816 813.935L401.547 818.212L392.886 808.533C390.153 809.533 387.381 810.311 384.597 810.897L382.37 823.51L373.068 824.233L368.86 812.114C366.242 811.97 363.646 811.672 361.084 811.202L354.248 822.045L345.368 819.212L346.019 806.406C343.423 805.199 340.9 803.798 338.484 802.221L327.967 809.534L320.869 803.479L326.459 791.961C324.719 790.035 323.09 787.99 321.587 785.816L308.938 788.709L304.647 780.432L314.311 771.804C313.311 769.072 312.519 766.297 311.925 763.513L299.303 761.249L298.552 751.961L310.675 747.782C310.802 745.17 311.107 742.58 311.564 740.008L300.7 733.159L303.513 724.281L316.33 724.979C317.535 722.376 318.929 719.863 320.496 717.45L313.152 706.926L319.191 699.846L330.736 705.462C332.658 703.727 334.704 702.11 336.87 700.6L333.946 687.968L342.222 683.695L350.877 693.371C353.614 692.373 356.382 691.591 359.178 691.007L361.408 678.391L370.701 677.679L374.914 689.795C377.531 689.931 380.126 690.234 382.69 690.708L389.517 679.857L398.408 682.691L397.746 695.499C400.353 696.712 402.867 698.111 405.29 699.691ZM326.254 717.176C307.648 742.311 312.994 777.811 338.195 796.465C363.392 815.118 398.909 809.865 417.514 784.731C436.122 759.593 430.774 724.092 405.576 705.439C380.377 686.785 344.863 692.038 326.254 717.176Z" fill="url(#paint11_linear_398_2193)"/>
<path d="M328.324 718.71C310.59 742.668 315.703 776.624 339.724 794.406C363.741 812.185 397.716 807.163 415.45 783.206C433.187 759.245 428.071 725.284 404.052 707.504C380.03 689.724 346.061 694.75 328.324 718.71ZM410.439 779.497C394.745 800.698 364.681 805.148 343.423 789.412C322.164 773.675 317.641 743.621 333.335 722.42C349.033 701.213 379.097 696.763 400.356 712.5C421.613 728.238 426.136 758.292 410.439 779.497Z" fill="url(#paint12_linear_398_2193)"/>
<path d="M516.486 237.556L514.254 239.815C510.712 243.395 510.043 249.071 512.988 253.166C516.788 258.455 524.279 258.878 528.654 254.462L530.645 252.448C533.391 249.671 537.973 249.973 540.338 253.087C541.509 254.622 542.642 256.177 543.739 257.752C545.924 260.882 544.919 265.21 541.582 267.05L538.768 268.603C534.361 271.038 532.119 276.293 533.786 281.052C535.942 287.187 543.022 289.706 548.464 286.699L550.93 285.338C554.349 283.449 558.674 285.027 560.066 288.693C560.747 290.489 561.389 292.301 561.996 294.117C563.206 297.732 561.02 301.592 557.299 302.417L553.903 303.172C548.397 304.391 544.905 309.895 546.139 315.401C542.927 319.741 546.841 325.75 552.119 324.578L561.132 322.582C564.945 321.732 568.648 324.462 568.955 328.356C569.105 330.268 569.219 332.183 569.291 334.098C569.438 337.908 566.247 341.003 562.443 340.746L558.98 340.511C553.352 340.132 548.443 344.428 548.075 350.052C547.712 355.678 552.019 360.591 557.649 360.971L560.477 361.16C564.377 361.422 567.164 365.077 566.359 368.897C565.965 370.77 565.534 372.642 565.062 374.508C564.129 378.199 560.197 380.272 556.613 378.951L553.324 377.74C548.025 375.792 542.103 378.529 540.168 383.817L540.171 383.819C538.233 389.111 540.983 395.033 546.282 396.981L548.928 397.954C552.601 399.302 554.249 403.596 552.395 407.033C551.491 408.716 550.547 410.381 549.566 412.038C547.622 415.313 543.27 416.19 540.201 413.918L537.402 411.846C532.86 408.484 526.405 409.439 523.054 413.967C519.702 418.496 520.675 424.949 525.214 428.31L527.478 429.986C530.624 432.314 530.993 436.888 528.247 439.665C526.899 441.034 525.525 442.374 524.129 443.675C521.348 446.278 516.911 445.888 514.608 442.849L512.671 440.297C509.626 436.278 504.094 434.792 499.625 437.114C493.854 440.102 492.388 447.454 496.15 452.42L497.863 454.684C500.23 457.805 499.291 462.297 495.866 464.187C494.185 465.114 492.484 466.005 490.769 466.866C487.364 468.564 483.221 466.943 481.867 463.384L480.621 460.107C478.616 454.833 472.658 452.144 467.387 454.141C462.111 456.135 459.44 462.078 461.443 467.353L462.44 469.972C463.836 473.632 461.665 477.677 457.847 478.523C455.975 478.936 454.095 479.312 452.21 479.653C448.459 480.328 444.936 477.609 444.644 473.812L444.372 470.352C443.931 464.729 438.968 460.481 433.346 460.903C427.717 461.33 423.477 466.279 423.916 471.904L424.133 474.706C424.437 478.604 421.222 481.868 417.32 481.61C415.408 481.484 413.492 481.317 411.582 481.115C407.789 480.71 405.172 477.111 405.951 473.378L406.67 469.97C407.835 464.455 404.271 458.983 398.75 457.806C393.232 456.632 387.759 460.182 386.595 465.694L386.01 468.464C385.202 472.284 381.194 474.515 377.515 473.162C375.715 472.501 373.928 471.803 372.148 471.063C368.623 469.603 367.121 465.413 368.932 462.064L370.586 458.99C373.257 454.029 371.378 447.778 366.409 445.092C361.434 442.413 355.187 444.277 352.513 449.234L351.18 451.707C349.34 455.129 344.875 456.163 341.745 453.845C341.726 453.832 341.703 453.814 341.684 453.8C340.127 452.648 338.605 451.473 337.111 450.268C334.154 447.885 333.926 443.459 336.59 440.763L339.032 438.299C342.995 434.294 342.954 427.771 338.937 423.801C334.922 419.832 328.391 419.86 324.431 423.862L322.437 425.873C319.689 428.649 315.107 428.348 312.741 425.235C311.572 423.701 310.437 422.144 309.341 420.575C307.154 417.444 308.162 413.115 311.496 411.273L314.568 409.579C319.503 406.857 321.301 400.59 318.563 395.654C315.826 390.715 309.551 388.903 304.612 391.627L302.152 392.988C298.728 394.876 294.404 393.296 293.014 389.634C292.334 387.837 291.689 386.029 291.084 384.21C289.876 380.599 292.062 376.736 295.781 375.913L299.177 375.158C304.679 373.935 308.171 368.432 306.94 362.927C310.152 358.588 306.235 352.576 300.961 353.746L291.95 355.744C288.133 356.591 284.429 353.866 284.124 349.97C283.973 348.062 283.864 346.146 283.787 344.23C283.643 340.424 286.832 337.328 290.639 337.582L293.808 337.795C298.843 338.134 303.57 334.935 304.741 330.032C306.245 323.712 301.643 317.775 295.433 317.36L292.607 317.168C288.703 316.909 285.917 313.255 286.719 309.43C287.112 307.557 287.546 305.687 288.018 303.822C288.951 300.131 292.887 298.056 296.469 299.378L299.522 300.5C304.198 302.218 309.558 300.527 312.085 296.248C315.433 290.588 312.69 283.514 306.8 281.347L304.153 280.371C300.479 279.022 298.833 274.728 300.687 271.291C301.599 269.611 302.54 267.943 303.521 266.289C305.46 263.015 309.816 262.139 312.885 264.411L315.683 266.482C320.222 269.843 326.678 268.883 330.028 264.357C333.381 259.828 332.411 253.377 327.871 250.016L325.609 248.342C322.465 246.014 322.098 241.438 324.839 238.657C326.187 237.291 327.56 235.953 328.958 234.652C331.741 232.047 336.177 232.435 338.485 235.478L340.413 238.028C343.463 242.047 348.991 243.534 353.463 241.214C359.233 238.222 360.7 230.869 356.936 225.906L355.223 223.642C352.855 220.519 353.794 216.024 357.221 214.14C358.904 213.212 360.603 212.32 362.317 211.46C365.727 209.761 369.865 211.384 371.219 214.945L372.357 217.942C374.152 222.659 379.041 225.635 383.99 224.671C390.376 223.426 393.853 216.792 391.642 210.972L390.645 208.354C389.253 204.695 391.42 200.647 395.238 199.803C397.109 199.389 398.992 199.011 400.877 198.674C404.627 197.997 408.15 200.715 408.446 204.518L408.694 207.679C409.089 212.704 412.945 216.937 417.965 217.404C424.447 218.008 429.656 212.624 429.173 206.424L428.955 203.62C428.651 199.725 431.869 196.457 435.766 196.719C437.681 196.845 439.592 197.009 441.502 197.213C445.301 197.62 447.915 201.22 447.133 204.95L446.417 208.357C445.249 213.873 448.817 219.345 454.34 220.523C458.583 223.664 464.647 221.373 465.736 216.215L467.075 209.864C467.881 206.042 471.896 203.815 475.569 205.166C477.368 205.829 479.161 206.528 480.942 207.264C484.463 208.729 485.959 212.914 484.157 216.268L482.5 219.341C479.554 224.816 482.145 231.854 488.312 233.946C493.088 235.565 498.323 233.265 500.711 228.834L501.902 226.621C503.746 223.197 508.211 222.166 511.341 224.484C511.36 224.497 511.38 224.512 511.403 224.53C512.957 225.68 514.483 226.855 515.972 228.059C518.93 230.438 519.156 234.862 516.486 237.556ZM508.894 391.857C521.104 372.8 525.884 350.86 523.772 329.649L490.895 334.517C491.837 347.302 489.015 360.412 482.122 372.041L508.893 391.858L508.894 391.857ZM500.989 402.536L474.218 382.719C465.108 392.709 453.393 399.233 440.893 402.065L445.837 434.931C466.739 430.759 486.327 419.779 500.989 402.536ZM432.642 436.645L427.679 403.668C415.228 403.886 402.626 400.529 391.496 393.348L371.763 420.006C390.307 432.557 411.742 437.936 432.642 436.645ZM330.545 358.246C334.62 378.388 345.021 397.326 361.253 411.822L381.087 385.028C372.072 376.163 366.115 365.12 363.423 353.383L330.545 358.246ZM343.963 286.298C332.411 304.324 327.51 324.927 328.803 345.052L361.792 340.17C361.558 328.498 364.457 316.693 370.734 306.115L343.963 286.298ZM381.94 306.142C363.793 330.657 369.007 365.265 393.579 383.455C418.144 401.639 452.767 396.521 470.914 372.006C489.056 347.498 483.846 312.882 459.281 294.698C434.709 276.508 400.081 281.635 381.94 306.142ZM351.868 275.618L378.639 295.435C386.925 286.341 397.367 280.123 408.598 276.939L403.637 243.959C384.01 248.601 365.735 259.306 351.868 275.618ZM416.762 241.775L421.709 274.641C433.722 273.786 446.025 276.26 457.13 282.298L476.968 255.499C458.365 244.21 437.215 239.792 416.762 241.775ZM468.133 289.819C478.248 298.368 485.141 309.44 488.57 321.41L521.556 316.531C516.691 296.164 505.287 277.231 487.866 263.162L468.133 289.819Z" fill="url(#paint13_linear_398_2193)"/>
<path d="M789.09 448.65L788.458 449.289C787.455 450.302 787.268 451.907 788.1 453.066C789.175 454.562 791.296 454.682 792.533 453.433L793.096 452.864C793.873 452.08 795.168 452.163 795.839 453.045C796.169 453.479 796.49 453.919 796.8 454.364C797.418 455.251 797.134 456.476 796.189 456.996L795.393 457.435C794.147 458.124 793.513 459.61 793.983 460.957C794.592 462.694 796.596 463.405 798.137 462.555L798.835 462.17C799.802 461.635 801.025 462.083 801.42 463.119C801.611 463.628 801.794 464.141 801.966 464.656C802.308 465.679 801.69 466.77 800.637 467.003L799.677 467.216C798.12 467.561 797.131 469.118 797.481 470.676C796.572 471.904 797.68 473.604 799.173 473.273L801.722 472.707C802.802 472.468 803.849 473.24 803.936 474.341C803.978 474.882 804.01 475.423 804.03 475.967C804.071 477.046 803.168 477.921 802.092 477.848L801.113 477.78C799.521 477.672 798.132 478.89 798.028 480.48C797.924 482.072 799.144 483.461 800.736 483.569L801.538 483.622C802.64 483.697 803.429 484.73 803.203 485.811C803.091 486.342 802.97 486.87 802.836 487.399C802.571 488.441 801.458 489.029 800.446 488.655L799.515 488.314C798.016 487.763 796.341 488.538 795.793 490.032L795.794 490.033C795.247 491.53 796.023 493.207 797.523 493.757L798.271 494.033C799.31 494.413 799.776 495.629 799.251 496.601C798.996 497.076 798.728 497.549 798.451 498.017C797.902 498.943 796.669 499.192 795.801 498.549L795.009 497.963C793.724 497.012 791.898 497.281 790.95 498.563C790.001 499.845 790.276 501.672 791.56 502.622L792.2 503.096C793.09 503.755 793.195 505.049 792.416 505.834C792.036 506.221 791.648 506.6 791.252 506.969C790.465 507.704 789.21 507.593 788.558 506.735L788.01 506.011C787.148 504.875 785.584 504.454 784.318 505.111C782.685 505.956 782.27 508.037 783.335 509.441L783.819 510.081C784.488 510.963 784.222 512.236 783.254 512.77C782.778 513.03 782.297 513.283 781.811 513.527C780.849 514.008 779.677 513.548 779.293 512.54L778.94 511.613C778.373 510.121 776.685 509.36 775.194 509.925C773.702 510.489 772.945 512.171 773.512 513.663L773.794 514.406C774.188 515.44 773.575 516.586 772.496 516.823C771.966 516.941 771.435 517.048 770.902 517.144C769.84 517.334 768.843 516.565 768.76 515.492L768.685 514.512C768.56 512.923 767.156 511.721 765.565 511.839C763.973 511.959 762.771 513.362 762.895 514.952L762.957 515.746C763.042 516.85 762.133 517.771 761.029 517.7C760.489 517.663 759.946 517.617 759.407 517.559C758.332 517.445 757.591 516.425 757.814 515.37L758.017 514.407C758.347 512.848 757.339 511.298 755.776 510.966C754.216 510.634 752.667 511.638 752.338 513.197L752.171 513.981C751.942 515.061 750.807 515.693 749.768 515.311C749.257 515.123 748.752 514.925 748.25 514.717C747.253 514.303 746.829 513.119 747.34 512.172L747.808 511.302C748.563 509.898 748.033 508.13 746.626 507.37C745.219 506.612 743.451 507.139 742.696 508.542L742.32 509.242C741.798 510.21 740.536 510.502 739.65 509.847C739.646 509.843 739.639 509.838 739.633 509.834C739.194 509.508 738.762 509.175 738.338 508.835C737.503 508.161 737.439 506.908 738.191 506.145L738.883 505.448C740.003 504.314 739.992 502.468 738.857 501.344C737.72 500.222 735.873 500.23 734.752 501.363L734.189 501.932C733.412 502.718 732.116 502.631 731.445 501.75C731.115 501.316 730.794 500.876 730.484 500.43C729.865 499.544 730.151 498.32 731.093 497.798L731.962 497.318C733.357 496.549 733.866 494.776 733.092 493.378C732.318 491.981 730.543 491.468 729.145 492.239L728.449 492.623C727.479 493.158 726.257 492.71 725.864 491.674C725.673 491.166 725.49 490.653 725.319 490.14C724.977 489.117 725.596 488.024 726.648 487.793L727.609 487.579C729.166 487.233 730.156 485.676 729.807 484.119C730.717 482.89 729.608 481.191 728.116 481.521L725.567 482.086C724.486 482.328 723.439 481.555 723.352 480.452C723.309 479.912 723.279 479.371 723.255 478.829C723.216 477.751 724.117 476.874 725.193 476.947L726.091 477.008C727.514 477.104 728.852 476.199 729.184 474.812C729.609 473.023 728.307 471.344 726.549 471.227L725.749 471.173C724.645 471.099 723.857 470.066 724.084 468.986C724.195 468.455 724.318 467.925 724.451 467.398C724.715 466.356 725.829 465.768 726.842 466.14L727.706 466.458C729.029 466.944 730.545 466.465 731.26 465.256C732.207 463.655 731.432 461.652 729.765 461.039L729.017 460.762C727.976 460.381 727.513 459.165 728.036 458.191C728.295 457.719 728.561 457.245 728.838 456.777C729.387 455.851 730.619 455.603 731.487 456.246L732.279 456.833C733.564 457.784 735.391 457.512 736.338 456.232C737.287 454.95 737.012 453.126 735.727 452.175L735.087 451.701C734.197 451.042 734.092 449.748 734.869 448.961C735.251 448.575 735.638 448.196 736.035 447.828C736.822 447.093 738.077 447.2 738.728 448.062L739.274 448.783C740.138 449.92 741.701 450.339 742.967 449.685C744.599 448.838 745.014 446.758 743.95 445.355L743.465 444.714C742.796 443.831 743.062 442.559 744.029 442.025C744.507 441.763 744.988 441.51 745.471 441.266C746.436 440.785 747.606 441.245 747.99 442.253L748.312 443.1C748.82 444.436 750.202 445.278 751.604 445.005C753.41 444.652 754.394 442.776 753.767 441.131L753.487 440.389C753.093 439.355 753.706 438.209 754.787 437.97C755.316 437.853 755.848 437.746 756.382 437.651C757.442 437.459 758.439 438.228 758.524 439.302L758.593 440.196C758.704 441.618 759.795 442.815 761.216 442.946C763.05 443.116 764.524 441.593 764.388 439.84L764.326 439.046C764.241 437.944 765.15 437.02 766.253 437.093C766.796 437.13 767.336 437.176 767.876 437.234C768.95 437.349 769.691 438.369 769.469 439.422L769.266 440.385C768.935 441.946 769.944 443.494 771.509 443.827C772.71 444.716 774.425 444.069 774.733 442.606L775.111 440.808C775.34 439.727 776.476 439.098 777.516 439.481C778.024 439.667 778.529 439.866 779.034 440.074C780.03 440.489 780.453 441.672 779.945 442.621L779.477 443.491C778.644 445.039 779.375 447.031 781.122 447.624C782.472 448.08 783.953 447.431 784.629 446.177L784.968 445.55C785.488 444.581 786.752 444.291 787.637 444.946C787.642 444.949 787.648 444.954 787.654 444.959C788.094 445.284 788.526 445.616 788.948 445.957C789.781 446.634 789.844 447.888 789.09 448.65ZM786.942 492.304C790.397 486.913 791.749 480.707 791.15 474.706L781.851 476.083C782.117 479.7 781.32 483.407 779.37 486.699L786.942 492.304ZM784.705 495.326L777.131 489.719C774.553 492.546 771.24 494.391 767.703 495.192L769.1 504.49C775.014 503.31 780.557 500.206 784.705 495.326ZM765.368 504.974L763.963 495.644C760.44 495.706 756.875 494.755 753.726 492.725L748.144 500.266C753.391 503.818 759.457 505.341 765.368 504.974ZM736.482 482.795C737.634 488.494 740.578 493.85 745.17 497.952L750.781 490.372C748.231 487.866 746.545 484.74 745.783 481.419L736.482 482.795ZM740.279 462.439C737.01 467.537 735.623 473.367 735.99 479.061L745.321 477.68C745.256 474.377 746.075 471.037 747.851 468.044L740.279 462.439V462.439ZM757.505 472.851C755.014 476.216 755.73 480.964 759.103 483.461C762.474 485.957 767.227 485.254 769.717 481.89C772.206 478.527 771.49 473.776 768.119 471.281C764.746 468.784 759.994 469.489 757.505 472.851ZM742.516 459.417L750.089 465.024C752.433 462.452 755.388 460.692 758.566 459.791L757.162 450.462C751.611 451.773 746.438 454.803 742.516 459.417ZM760.874 449.843L762.274 459.142C765.673 458.9 769.154 459.601 772.295 461.308L777.908 453.727C772.646 450.532 766.663 449.282 760.874 449.843ZM775.41 463.436C778.272 465.856 780.221 468.986 781.191 472.374L790.524 470.993C789.148 465.231 785.923 459.874 780.992 455.895L775.41 463.436Z" fill="url(#paint14_linear_398_2193)"/>
<path d="M378.764 486.153C381.033 487.984 381.209 491.402 379.137 493.486L377.41 495.228C374.672 498.001 374.154 502.365 376.41 505.526C379.326 509.583 385.076 509.885 388.451 506.477L389.994 504.911C392.105 502.782 395.631 502.985 397.45 505.379C398.331 506.561 399.209 507.776 400.063 508.971C401.719 511.38 400.928 514.719 398.367 516.145L396.196 517.34C392.801 519.235 391.063 523.299 392.337 526.948C393.973 531.675 399.416 533.591 403.589 531.264L405.498 530.219C408.148 528.744 411.456 529.951 412.512 532.765C413.03 534.147 413.53 535.544 413.982 536.946C414.924 539.717 413.225 542.699 410.354 543.347L407.749 543.946C403.503 544.889 400.803 549.144 401.742 553.393C399.271 556.73 402.258 561.346 406.31 560.435L413.246 558.879C416.181 558.215 419.035 560.314 419.257 563.299C419.372 564.775 419.444 566.249 419.499 567.735C419.597 570.672 417.132 573.054 414.204 572.878L411.543 572.7C407.226 572.431 403.434 575.756 403.14 580.075C402.852 584.441 406.152 588.196 410.476 588.463L412.648 588.609C415.651 588.804 417.785 591.611 417.146 594.562C416.851 596.008 416.495 597.431 416.157 598.869C415.42 601.729 412.38 603.336 409.63 602.344L407.119 601.409C403.043 599.926 398.477 602.034 396.97 606.128C395.479 610.216 397.572 614.753 401.644 616.252L403.661 616.997C406.491 618.034 407.741 621.333 406.316 623.998C405.606 625.279 404.879 626.559 404.109 627.846C402.615 630.355 399.273 631.065 396.91 629.316L394.783 627.742C391.284 625.152 386.333 625.895 383.733 629.408C381.135 632.917 381.863 637.879 385.362 640.469L387.08 641.741C389.483 643.52 389.763 647.048 387.666 649.192C386.62 650.253 385.552 651.278 384.471 652.287C382.343 654.3 378.92 654.015 377.147 651.663L375.675 649.711C373.353 646.63 369.076 645.499 365.66 647.287C361.199 649.608 360.054 655.28 362.93 659.105L364.243 660.843C366.067 663.245 365.316 666.7 362.696 668.164C361.39 668.885 360.079 669.577 358.756 670.238C356.138 671.559 352.967 670.332 351.923 667.587L350.968 665.072C349.445 661.018 344.862 658.957 340.816 660.501C336.747 662.054 334.67 666.653 336.214 670.692L336.953 672.718C338.031 675.541 336.339 678.658 333.417 679.331C331.973 679.64 330.531 679.944 329.067 680.209C326.197 680.74 323.487 678.657 323.263 675.708L323.074 673.052C322.741 668.723 318.948 665.465 314.614 665.799C310.295 666.157 307.004 669.974 307.342 674.301L307.501 676.46C307.728 679.468 305.244 681.985 302.235 681.807C300.76 681.72 299.29 681.584 297.818 681.438C294.909 681.129 292.906 678.369 293.51 675.5L294.097 672.856C294.979 668.603 292.258 664.414 288.014 663.512C283.76 662.621 279.559 665.372 278.656 669.624L278.2 671.745C277.561 674.703 274.479 676.42 271.641 675.396C270.264 674.882 268.899 674.357 267.52 673.796C264.822 672.672 263.672 669.446 265.061 666.865L266.352 664.497C268.421 660.672 266.993 655.849 263.191 653.79C259.36 651.746 254.538 653.191 252.485 657.014L251.45 658.935C250.016 661.568 246.598 662.387 244.187 660.602C244.174 660.593 244.152 660.577 244.145 660.571C242.958 659.693 241.773 658.792 240.637 657.869C238.364 656.021 238.195 652.61 240.26 650.526L242.141 648.641C245.198 645.526 245.17 640.505 242.101 637.461C239.011 634.403 234.019 634.451 230.948 637.553L229.406 639.091C227.306 641.252 223.756 641.018 221.955 638.636C221.062 637.441 220.19 636.271 219.363 635.048C217.68 632.641 218.466 629.295 221.028 627.88L223.402 626.554C227.204 624.46 228.596 619.61 226.518 615.818C224.428 612.027 219.603 610.637 215.798 612.758L213.902 613.8C211.259 615.278 207.944 614.067 206.881 611.246C206.357 609.853 205.874 608.481 205.398 607.07C204.485 604.288 206.181 601.312 209.035 600.66L211.666 600.072C215.891 599.111 218.597 594.861 217.665 590.646C220.149 587.29 217.159 582.662 213.077 583.572L206.15 585.133C203.213 585.799 200.374 583.698 200.146 580.689C200.039 579.229 199.956 577.755 199.89 576.288C199.797 573.34 202.264 570.95 205.191 571.135L207.63 571.294C211.487 571.544 215.135 569.059 216.046 565.279C217.223 560.415 213.703 555.844 208.934 555.556L206.756 555.411C203.762 555.229 201.606 552.397 202.257 549.454C202.556 548.009 202.898 546.562 203.269 545.138C203.983 542.273 207.021 540.684 209.78 541.687L212.123 542.556C215.708 543.858 219.833 542.541 221.799 539.226C224.382 534.863 222.292 529.427 217.764 527.776L215.743 527.023C212.907 525.994 211.656 522.701 213.104 520.042C213.797 518.739 214.524 517.438 215.28 516.177C216.781 513.642 220.135 512.958 222.486 514.698L224.641 516.293C228.129 518.875 233.088 518.111 235.679 514.611C238.266 511.117 237.546 506.154 234.058 503.572L232.318 502.284C229.908 500.5 229.632 496.965 231.739 494.833C232.786 493.763 233.847 492.733 234.928 491.727C237.062 489.699 240.478 490.013 242.242 492.334L243.73 494.313C246.056 497.396 250.31 498.512 253.747 496.728C258.185 494.394 259.335 488.724 256.465 484.92L255.165 483.194C253.34 480.77 254.073 477.301 256.697 475.845C258.007 475.124 259.311 474.449 260.649 473.775C263.27 472.456 266.45 473.693 267.482 476.428L268.346 478.754C269.713 482.372 273.462 484.653 277.277 483.898C282.185 482.928 284.868 477.8 283.183 473.318L282.441 471.306C281.374 468.487 283.049 465.371 285.98 464.708C287.417 464.386 288.861 464.094 290.327 463.827C293.212 463.298 295.905 465.378 296.132 468.305L296.317 470.748C296.606 474.613 299.55 477.862 303.425 478.215C308.395 478.659 312.415 474.499 312.06 469.722L311.901 467.565C311.67 464.559 314.159 462.036 317.147 462.226C318.63 462.318 320.101 462.44 321.578 462.591C324.482 462.896 326.501 465.679 325.876 468.531L325.311 471.162C324.414 475.411 327.138 479.619 331.38 480.52C334.637 482.931 339.311 481.155 340.152 477.179L341.198 472.273C341.841 469.326 344.925 467.603 347.752 468.642C349.14 469.141 350.503 469.668 351.88 470.235C354.582 471.351 355.724 474.562 354.337 477.163L353.049 479.53C350.759 483.754 352.735 489.171 357.467 490.768C361.148 492.007 365.179 490.224 367.019 486.802L367.946 485.091C369.379 482.46 372.824 481.65 375.21 483.417C375.227 483.43 375.243 483.441 375.262 483.455C376.454 484.333 377.614 485.222 378.764 486.153ZM291.538 532.568L309.496 563.382L318.583 528.961C309.428 527.3 299.93 528.555 291.538 532.568ZM350.542 553.355L319.713 571.207L354.196 580.398C355.852 571.232 354.568 561.741 350.542 553.355ZM316.223 565.197L347.025 547.336C344.322 543.45 340.987 539.938 336.966 536.961C333.307 534.253 329.39 532.173 325.325 530.776L316.223 565.197ZM350.492 517.656C347.378 515.352 342.959 515.996 340.647 519.12C338.33 522.249 339.004 526.664 342.118 528.969C345.25 531.287 349.674 530.646 351.99 527.517C354.303 524.393 353.624 519.975 350.492 517.656ZM370.787 570.114C374.65 569.561 377.312 565.965 376.708 562.116C376.133 558.26 372.547 555.606 368.702 556.189C364.864 556.751 362.202 560.346 362.781 564.187C363.351 568.024 366.937 570.679 370.787 570.114ZM363.826 611.993C366.146 608.859 365.485 604.467 362.354 602.149C359.225 599.833 354.829 600.482 352.51 603.616C350.204 606.731 350.856 611.139 353.985 613.455C357.116 615.772 361.521 615.108 363.826 611.993ZM346.254 598.742C348.962 595.085 351.01 591.19 352.405 587.117L317.937 577.94L335.874 608.779C339.776 606.097 343.295 602.74 346.254 598.742ZM270.891 591.477L301.666 573.608L267.223 564.447C265.555 573.59 266.844 583.074 270.891 591.477ZM279.332 623.648C281.643 620.527 280.955 616.115 277.835 613.805C274.712 611.494 270.291 612.125 267.981 615.246C265.668 618.37 266.35 622.79 269.473 625.102C272.593 627.411 277.019 626.773 279.332 623.648ZM284.471 607.873C288.105 610.563 292.042 612.619 296.082 614.049L305.176 579.633L274.381 597.48C277.078 601.381 280.457 604.902 284.471 607.873ZM329.878 612.255L311.935 581.39L302.829 615.854C312.008 617.538 321.48 616.274 329.878 612.255ZM319.416 638.094C323.26 637.505 325.902 633.936 325.335 630.097C324.749 626.241 321.171 623.592 317.323 624.166C313.469 624.733 310.827 628.302 311.404 632.163C311.983 636.004 315.561 638.653 319.416 638.094ZM249.174 572.652C245.316 573.228 242.672 576.8 243.244 580.663C243.828 584.52 247.4 587.164 251.267 586.602C255.121 586.015 257.765 582.444 257.197 578.591C256.594 574.744 253.021 572.099 249.174 572.652ZM256.115 530.777C253.804 533.898 254.478 538.298 257.613 540.619C260.737 542.931 265.138 542.288 267.449 539.167C269.765 536.038 269.11 531.621 265.986 529.308C262.849 526.986 258.43 527.65 256.115 530.777ZM275.163 546.118C272.492 549.726 270.401 553.632 269.002 557.707L303.466 566.894L285.538 536.04C281.623 538.733 278.142 542.094 275.163 546.118ZM300.54 504.677C296.699 505.245 294.041 508.835 294.622 512.67C295.215 516.532 298.801 519.186 302.636 518.603C306.493 518.052 309.151 514.461 308.553 510.609C307.996 506.765 304.41 504.11 300.54 504.677Z" fill="url(#paint15_linear_398_2193)"/>
<path d="M172.833 484.269L180.611 478.849L185.869 483.333L181.73 491.864C183.02 493.285 184.224 494.804 185.34 496.412L194.699 494.27L197.88 500.399L190.728 506.785C191.469 508.813 192.054 510.862 192.493 512.926L201.841 514.603L202.39 521.48L193.422 524.576C193.325 526.51 193.103 528.431 192.76 530.327L200.806 535.401L198.724 541.972L189.235 541.46C188.339 543.382 187.308 545.247 186.148 547.032L191.59 554.824L187.112 560.064L178.567 555.908C177.144 557.19 175.628 558.394 174.021 559.505L176.186 568.862L170.063 572.027L163.652 564.862C161.626 565.597 159.575 566.178 157.512 566.613L155.86 575.951L148.976 576.485L145.857 567.51C143.92 567.408 141.998 567.181 140.1 566.836L135.04 574.865L128.458 572.768L128.947 563.287C127.022 562.388 125.154 561.354 123.363 560.187L115.581 565.605L110.327 561.121L114.464 552.592C113.177 551.165 111.97 549.651 110.855 548.042L101.498 550.185L98.3144 544.057L105.471 537.666C104.731 535.642 104.142 533.592 103.702 531.528L94.355 529.853L93.8027 522.977L102.774 519.88C102.871 517.946 103.093 516.025 103.433 514.13L95.387 509.056L97.4709 502.482L106.961 502.995C107.855 501.073 108.887 499.208 110.048 497.422L104.605 489.631L109.081 484.39L117.627 488.544C119.049 487.262 120.563 486.059 122.167 484.948L120.005 475.591L126.131 472.425L132.541 479.592C134.565 478.856 136.616 478.275 138.681 477.844L140.335 468.505L147.216 467.971L150.335 476.944C152.271 477.045 154.195 477.274 156.09 477.621L161.151 469.592L167.73 471.689L167.24 481.171C169.173 482.07 171.039 483.103 172.833 484.269ZM147.963 506.927C150.786 506.876 154.309 508.131 155.983 509.118L167.641 493.37C159.726 487.816 152.75 486.642 144.93 487.282L147.963 506.927ZM143.161 517.872C141.023 520.761 141.64 524.859 144.538 527.004C147.434 529.148 151.532 528.54 153.67 525.652C155.81 522.76 155.193 518.665 152.297 516.521C149.4 514.376 145.301 514.981 143.161 517.872ZM170.721 495.706L159.018 511.516C160.312 513.017 162.419 516.227 162.972 519.053L182.599 516.198C181.182 508.411 176.636 500.712 170.721 495.706ZM182.32 519.934L162.333 523.214C162.284 525.535 162.284 527.046 160.242 530.344L176.517 542.391C181.813 534.287 182.988 527.35 182.32 519.934ZM175.432 543.993L159.157 531.946C156.665 534.911 154.958 535.391 152.304 536.142L155.291 556.66C163.074 554.985 170.706 550.115 175.432 543.993ZM152.543 556.918L149.529 536.574C146.855 536.74 143.508 535.718 141.712 534.895L129.337 551.613C135.857 555.801 144.622 557.892 152.543 556.918ZM126.206 549.345L138.531 532.695C137.09 531.392 135.095 528.737 134.273 526.247L113.707 529.215C115.351 536.952 118.584 543.397 126.206 549.345ZM113.278 526.519L133.522 523.626C133.187 520.465 133.464 517.733 135.54 514.46L119.301 502.439C114.833 508.755 112.28 518.202 113.278 526.519ZM120.517 500.937L136.756 512.958C139.36 510.076 141.79 508.791 144.462 508.162L141.247 488.956C133.504 490.3 126.744 493.522 120.517 500.937Z" fill="url(#paint16_linear_398_2193)"/>
</g>
</g>
<defs>
<linearGradient id="paint0_linear_398_2193" x1="896.099" y1="437.611" x2="885.729" y2="380.33" gradientUnits="userSpaceOnUse">
<stop stop-color="#FFE292"/>
<stop offset="0.085674" stop-color="#FFD562"/>
<stop offset="0.151478" stop-color="#FFE2A0"/>
<stop offset="0.326574" stop-color="#FCC266"/>
<stop offset="0.626342" stop-color="#FFDD9A"/>
<stop offset="0.90625" stop-color="#E98B34"/>
<stop offset="0.979167" stop-color="#FFE292"/>
</linearGradient>
<linearGradient id="paint1_linear_398_2193" x1="896.046" y1="513.318" x2="857.862" y2="302.334" gradientUnits="userSpaceOnUse">
<stop stop-color="#FFE292"/>
<stop offset="0.085674" stop-color="#FFD562"/>
<stop offset="0.151478" stop-color="#FFE2A0"/>
<stop offset="0.326574" stop-color="#FCC266"/>
<stop offset="0.626342" stop-color="#FFDD9A"/>
<stop offset="0.90625" stop-color="#E98B34"/>
<stop offset="0.979167" stop-color="#FFE292"/>
</linearGradient>
<linearGradient id="paint2_linear_398_2193" x1="831.267" y1="285.454" x2="826.931" y2="261.501" gradientUnits="userSpaceOnUse">
<stop stop-color="#FFE292"/>
<stop offset="0.085674" stop-color="#FFD562"/>
<stop offset="0.151478" stop-color="#FFE2A0"/>
<stop offset="0.326574" stop-color="#FCC266"/>
<stop offset="0.626342" stop-color="#FFDD9A"/>
<stop offset="0.90625" stop-color="#E98B34"/>
<stop offset="0.979167" stop-color="#FFE292"/>
</linearGradient>
<linearGradient id="paint3_linear_398_2193" x1="831.24" y1="317.129" x2="815.261" y2="228.878" gradientUnits="userSpaceOnUse">
<stop stop-color="#FFE292"/>
<stop offset="0.085674" stop-color="#FFD562"/>
<stop offset="0.151478" stop-color="#FFE2A0"/>
<stop offset="0.326574" stop-color="#FCC266"/>
<stop offset="0.626342" stop-color="#FFDD9A"/>
<stop offset="0.90625" stop-color="#E98B34"/>
<stop offset="0.979167" stop-color="#FFE292"/>
</linearGradient>
<linearGradient id="paint4_linear_398_2193" x1="232.908" y1="429.915" x2="226.667" y2="395.445" gradientUnits="userSpaceOnUse">
<stop stop-color="#FFE292"/>
<stop offset="0.085674" stop-color="#FFD562"/>
<stop offset="0.151478" stop-color="#FFE2A0"/>
<stop offset="0.326574" stop-color="#FCC266"/>
<stop offset="0.626342" stop-color="#FFDD9A"/>
<stop offset="0.90625" stop-color="#E98B34"/>
<stop offset="0.979167" stop-color="#FFE292"/>
</linearGradient>
<linearGradient id="paint5_linear_398_2193" x1="232.884" y1="475.482" x2="209.906" y2="348.515" gradientUnits="userSpaceOnUse">
<stop stop-color="#FFE292"/>
<stop offset="0.085674" stop-color="#FFD562"/>
<stop offset="0.151478" stop-color="#FFE2A0"/>
<stop offset="0.326574" stop-color="#FCC266"/>
<stop offset="0.626342" stop-color="#FFDD9A"/>
<stop offset="0.90625" stop-color="#E98B34"/>
<stop offset="0.979167" stop-color="#FFE292"/>
</linearGradient>
<linearGradient id="paint6_linear_398_2193" x1="601.754" y1="675.514" x2="583.181" y2="572.917" gradientUnits="userSpaceOnUse">
<stop stop-color="#FFE292"/>
<stop offset="0.085674" stop-color="#FFD562"/>
<stop offset="0.151478" stop-color="#FFE2A0"/>
<stop offset="0.326574" stop-color="#FCC266"/>
<stop offset="0.626342" stop-color="#FFDD9A"/>
<stop offset="0.90625" stop-color="#E98B34"/>
<stop offset="0.979167" stop-color="#FFE292"/>
</linearGradient>
<linearGradient id="paint7_linear_398_2193" x1="601.66" y1="811.132" x2="533.259" y2="433.233" gradientUnits="userSpaceOnUse">
<stop stop-color="#FFE292"/>
<stop offset="0.085674" stop-color="#FFD562"/>
<stop offset="0.151478" stop-color="#FFE2A0"/>
<stop offset="0.326574" stop-color="#FCC266"/>
<stop offset="0.626342" stop-color="#FFDD9A"/>
<stop offset="0.90625" stop-color="#E98B34"/>
<stop offset="0.979167" stop-color="#FFE292"/>
</linearGradient>
<linearGradient id="paint8_linear_398_2193" x1="691.057" y1="451.401" x2="650.528" y2="227.483" gradientUnits="userSpaceOnUse">
<stop stop-color="#FFE292"/>
<stop offset="0.085674" stop-color="#FFD562"/>
<stop offset="0.151478" stop-color="#FFE2A0"/>
<stop offset="0.326574" stop-color="#FCC266"/>
<stop offset="0.626342" stop-color="#FFDD9A"/>
<stop offset="0.90625" stop-color="#E98B34"/>
<stop offset="0.979167" stop-color="#FFE292"/>
</linearGradient>
<linearGradient id="paint9_linear_398_2193" x1="773.463" y1="241.564" x2="746.398" y2="92.0275" gradientUnits="userSpaceOnUse">
<stop stop-color="#FFE292"/>
<stop offset="0.085674" stop-color="#FFD562"/>
<stop offset="0.151478" stop-color="#FFE2A0"/>
<stop offset="0.326574" stop-color="#FCC266"/>
<stop offset="0.626342" stop-color="#FFDD9A"/>
<stop offset="0.90625" stop-color="#E98B34"/>
<stop offset="0.979167" stop-color="#FFE292"/>
</linearGradient>
<linearGradient id="paint10_linear_398_2193" x1="773.329" y1="222.511" x2="753.347" y2="112.092" gradientUnits="userSpaceOnUse">
<stop stop-color="#FFE292"/>
<stop offset="0.085674" stop-color="#FFD562"/>
<stop offset="0.151478" stop-color="#FFE2A0"/>
<stop offset="0.326574" stop-color="#FCC266"/>
<stop offset="0.626342" stop-color="#FFDD9A"/>
<stop offset="0.90625" stop-color="#E98B34"/>
<stop offset="0.979167" stop-color="#FFE292"/>
</linearGradient>
<linearGradient id="paint11_linear_398_2193" x1="372.422" y1="826.653" x2="344.289" y2="671.221" gradientUnits="userSpaceOnUse">
<stop stop-color="#FFE292"/>
<stop offset="0.085674" stop-color="#FFD562"/>
<stop offset="0.151478" stop-color="#FFE2A0"/>
<stop offset="0.326574" stop-color="#FCC266"/>
<stop offset="0.626342" stop-color="#FFDD9A"/>
<stop offset="0.90625" stop-color="#E98B34"/>
<stop offset="0.979167" stop-color="#FFE292"/>
</linearGradient>
<linearGradient id="paint12_linear_398_2193" x1="372.287" y1="806.853" x2="351.517" y2="692.082" gradientUnits="userSpaceOnUse">
<stop stop-color="#FFE292"/>
<stop offset="0.085674" stop-color="#FFD562"/>
<stop offset="0.151478" stop-color="#FFE2A0"/>
<stop offset="0.326574" stop-color="#FCC266"/>
<stop offset="0.626342" stop-color="#FFDD9A"/>
<stop offset="0.90625" stop-color="#E98B34"/>
<stop offset="0.979167" stop-color="#FFE292"/>
</linearGradient>
<linearGradient id="paint13_linear_398_2193" x1="427.232" y1="486.37" x2="371.818" y2="184.528" gradientUnits="userSpaceOnUse">
<stop stop-color="#FFE292"/>
<stop offset="0.085674" stop-color="#FFD562"/>
<stop offset="0.151478" stop-color="#FFE2A0"/>
<stop offset="0.326574" stop-color="#FCC266"/>
<stop offset="0.626342" stop-color="#FFDD9A"/>
<stop offset="0.90625" stop-color="#E98B34"/>
<stop offset="0.979167" stop-color="#FFE292"/>
</linearGradient>
<linearGradient id="paint14_linear_398_2193" x1="763.838" y1="519.049" x2="748.156" y2="433.644" gradientUnits="userSpaceOnUse">
<stop stop-color="#FFE292"/>
<stop offset="0.085674" stop-color="#FFD562"/>
<stop offset="0.151478" stop-color="#FFE2A0"/>
<stop offset="0.326574" stop-color="#FCC266"/>
<stop offset="0.626342" stop-color="#FFDD9A"/>
<stop offset="0.90625" stop-color="#E98B34"/>
<stop offset="0.979167" stop-color="#FFE292"/>
</linearGradient>
<linearGradient id="paint15_linear_398_2193" x1="309.842" y1="685.441" x2="266.373" y2="453.298" gradientUnits="userSpaceOnUse">
<stop stop-color="#FFE292"/>
<stop offset="0.085674" stop-color="#FFD562"/>
<stop offset="0.151478" stop-color="#FFE2A0"/>
<stop offset="0.326574" stop-color="#FCC266"/>
<stop offset="0.626342" stop-color="#FFDD9A"/>
<stop offset="0.90625" stop-color="#E98B34"/>
<stop offset="0.979167" stop-color="#FFE292"/>
</linearGradient>
<linearGradient id="paint16_linear_398_2193" x1="148.497" y1="578.28" x2="127.669" y2="463.19" gradientUnits="userSpaceOnUse">
<stop stop-color="#FFE292"/>
<stop offset="0.085674" stop-color="#FFD562"/>
<stop offset="0.151478" stop-color="#FFE2A0"/>
<stop offset="0.326574" stop-color="#FCC266"/>
<stop offset="0.626342" stop-color="#FFDD9A"/>
<stop offset="0.90625" stop-color="#E98B34"/>
<stop offset="0.979167" stop-color="#FFE292"/>
</linearGradient>
</defs>
</svg>
