<svg width="185" height="184" viewBox="0 0 185 184" fill="none" xmlns="http://www.w3.org/2000/svg">
<mask id="mask0_332_2839" style="mask-type:alpha" maskUnits="userSpaceOnUse" x="0" y="-1" width="185" height="185">
<rect y="-0.000976562" width="185" height="184" rx="15" fill="white"/>
</mask>
<g mask="url(#mask0_332_2839)">
<path d="M78.6964 73.2677C76.542 70.3574 72.4149 69.7468 69.4977 71.9062C66.5793 74.0665 65.9591 78.192 68.1131 81.1017C70.268 84.0127 74.3945 84.6237 77.3129 82.4634C80.2301 80.304 80.8514 76.1786 78.6964 73.2677ZM71.0598 78.9205C70.1056 77.6316 70.3808 75.8023 71.6735 74.8454C72.9668 73.8881 74.795 74.1604 75.7491 75.4494C76.7042 76.7395 76.4293 78.5667 75.1366 79.5235C73.8439 80.4804 72.0149 80.2107 71.0598 78.9205Z" fill="#F3F3F3"/>
<path d="M84.2982 93.9113L87.7698 96.3305L90.115 94.3289L88.2701 90.5225C88.8439 89.8876 89.382 89.2111 89.8805 88.4929L94.0564 89.4481L95.4753 86.713L92.2836 83.8638C92.6137 82.9589 92.8748 82.0448 93.0715 81.1239L97.2424 80.3758L97.4873 77.3084L93.4858 75.9263C93.4415 75.0623 93.3435 74.2058 93.1902 73.3602L96.7797 71.096L95.8508 68.163L91.6167 68.3919C91.2182 67.5342 90.7582 66.7026 90.2389 65.9051L92.6673 62.4285L90.6703 60.0907L86.8576 61.9443C86.2231 61.3722 85.5464 60.8352 84.8301 60.3393L85.7958 56.1653L83.0632 54.7525L80.203 57.9505C79.3 57.6229 78.3836 57.3626 77.4629 57.1687L76.726 53.0023L73.6542 52.7646L72.2633 56.7689C71.3984 56.8148 70.5417 56.915 69.6941 57.0696L67.4368 53.4879L64.5006 54.4242L64.7185 58.6557C63.8599 59.0569 63.0259 59.5177 62.2265 60.0384L58.7547 57.6203L56.4102 59.6214L58.2547 63.4261C57.6808 64.0621 57.1421 64.7391 56.6442 65.4568L52.4689 64.5011L51.0491 67.235L54.2418 70.0854C53.9118 70.9892 53.6489 71.9036 53.4533 72.8247L49.2825 73.5728L49.0374 76.6413L53.0402 78.0224C53.0829 78.8857 53.182 79.7423 53.3345 80.5895L49.7446 82.8531L50.674 85.7856L54.9088 85.5562C55.308 86.4134 55.7679 87.2451 56.286 88.0435L53.8582 91.5196L55.8552 93.8574L59.6679 92.0038C60.3029 92.5765 60.9791 93.1129 61.6943 93.6087L60.7291 97.7832L63.4634 99.1958L66.3224 95.9987C67.2258 96.3269 68.1418 96.5866 69.0631 96.78L69.7995 100.946L72.8701 101.184L74.2625 97.1809C75.1256 97.1354 75.9841 97.0349 76.8307 96.8789L79.089 100.462L82.0257 99.5263L81.8071 95.2952C82.6653 94.8934 83.4977 94.4318 84.2982 93.9113ZM60.7342 86.2496C55.6249 79.3472 57.0934 69.5999 64.012 64.4782C70.9313 59.356 80.6823 60.7979 85.7916 67.7003C90.9004 74.602 89.4329 84.3506 82.5136 89.4727C75.5938 94.5943 65.843 93.1513 60.7342 86.2496Z" fill="#F3F3F3"/>
<path d="M254.915 41.0631L265.248 48.2631L272.228 42.307L266.735 30.9771C268.445 29.0877 270.046 27.0729 271.528 24.937L283.959 27.7813L288.182 19.6417L278.682 11.1592C279.665 8.46863 280.442 5.74398 281.027 3.00467L293.441 0.778533L294.17 -8.35321L282.258 -12.4655C282.128 -15.0348 281.834 -17.5851 281.38 -20.1039L292.065 -26.8423L289.301 -35.5699L276.695 -34.8903C275.507 -37.4426 274.138 -39.9181 272.594 -42.2909L279.822 -52.6381L273.876 -59.5959L262.529 -54.0803C260.64 -55.7831 258.627 -57.3797 256.493 -58.857L259.368 -71.2804L251.234 -75.486L242.72 -65.9685C240.032 -66.9443 237.306 -67.7184 234.566 -68.2946L232.372 -80.6943L223.231 -81.403L219.091 -69.4866C216.517 -69.3498 213.964 -69.0506 211.443 -68.5929L204.724 -79.2545L195.984 -76.4704L196.633 -63.8754C194.077 -62.684 191.595 -61.3088 189.218 -59.761L178.881 -66.9577L171.904 -61.0018L177.396 -49.6764C175.687 -47.7824 174.084 -45.7685 172.601 -43.6328L160.173 -46.4783L155.948 -38.3384L165.451 -29.8531C164.469 -27.1648 163.687 -24.4408 163.105 -21.7006L150.69 -19.475L149.96 -10.3424L161.875 -6.23131C162.003 -3.66172 162.299 -1.11172 162.75 1.40767L152.066 8.1463L154.832 16.8731L167.437 16.1929C168.625 18.7457 169.994 21.2211 171.536 23.5949L164.308 33.9414L170.254 40.9003L181.602 35.3842C183.492 37.0872 185.503 38.6841 187.634 40.1615L184.761 52.5868L192.899 56.7897L201.409 47.2738C204.098 48.2509 206.823 49.0216 209.567 49.5983L211.76 61.999L220.899 62.7075L225.043 50.7915C227.613 50.657 230.168 50.3564 232.687 49.8945L239.407 60.5574L248.146 57.7731L247.496 45.1791C250.055 43.9855 252.533 42.6125 254.915 41.0631ZM184.775 18.2559C169.568 -2.28718 173.936 -31.3004 194.53 -46.5454C215.126 -61.7909 244.15 -57.496 259.357 -36.9529C274.564 -16.4098 270.198 12.6053 249.602 27.8508C229.008 43.0958 199.982 38.799 184.775 18.2559Z" fill="#F3F3F3"/>
<path d="M188.146 148.196L187.243 147.283C185.81 145.835 185.54 143.539 186.731 141.883C188.268 139.744 191.297 139.573 193.067 141.359L193.872 142.173C194.983 143.296 196.836 143.174 197.793 141.915C198.266 141.294 198.724 140.665 199.168 140.028C200.052 138.762 199.645 137.011 198.296 136.267L197.158 135.639C195.375 134.654 194.468 132.529 195.143 130.604C196.015 128.123 198.878 127.104 201.079 128.32L202.077 128.871C203.46 129.635 205.209 128.996 205.772 127.514C206.047 126.787 206.307 126.054 206.552 125.32C207.042 123.858 206.157 122.296 204.653 121.963L203.279 121.658C201.052 121.164 199.64 118.939 200.139 116.711C198.84 114.956 200.423 112.526 202.558 113L206.203 113.807C207.745 114.151 209.243 113.047 209.367 111.472C209.427 110.698 209.474 109.924 209.503 109.15C209.562 107.608 208.272 106.357 206.733 106.461L205.333 106.556C203.056 106.709 201.071 104.972 200.922 102.697C200.775 100.421 202.517 98.4342 204.794 98.2805L205.938 98.2042C207.515 98.0981 208.642 96.6197 208.317 95.0748C208.158 94.3171 207.983 93.56 207.793 92.8054C207.415 91.3125 205.825 90.4743 204.375 91.0086L203.045 91.4981C200.902 92.2861 198.506 91.179 197.724 89.0405L197.725 89.0395C196.941 86.8991 198.053 84.504 200.197 83.7161L201.267 83.3225C202.752 82.7773 203.419 81.0407 202.669 79.6504C202.303 78.9698 201.922 78.2963 201.525 77.6261C200.739 76.3014 198.978 75.947 197.737 76.8657L196.605 77.7039C194.768 79.0636 192.157 78.6773 190.802 76.8462C189.446 75.0144 189.84 72.4042 191.676 71.045L192.591 70.3672C193.864 69.4253 194.013 67.5756 192.902 66.4524C192.357 65.8987 191.802 65.3568 191.237 64.8304C190.112 63.7777 188.317 63.9352 187.386 65.1645L186.603 66.1968C185.371 67.8223 183.133 68.4234 181.326 67.4841C178.992 66.2754 178.399 63.3022 179.921 61.2935L180.613 60.3779C181.571 59.1156 181.191 57.2988 179.806 56.5342C179.126 56.1594 178.438 55.799 177.744 55.4506C176.367 54.7638 174.691 55.4198 174.144 56.859L173.64 58.1845C172.829 60.3177 170.419 61.4051 168.287 60.5973C166.153 59.7908 165.073 57.3871 165.883 55.2537L166.286 54.1943C166.851 52.7141 165.973 51.0783 164.429 50.7361C163.672 50.5689 162.911 50.4168 162.149 50.279C160.632 50.0061 159.207 51.1058 159.089 52.6415L158.979 54.041C158.8 56.315 156.793 58.0332 154.519 57.8626C152.243 57.6899 150.527 55.6883 150.705 53.413L150.793 52.2798C150.916 50.7034 149.616 49.3831 148.037 49.4873C147.264 49.5385 146.489 49.6062 145.717 49.6876C144.183 49.8516 143.124 51.3073 143.439 52.8171L143.73 54.1953C144.201 56.426 142.76 58.6389 140.527 59.1149C138.295 59.5901 136.081 58.154 135.611 55.9246L135.374 54.8043C135.047 53.2592 133.426 52.3572 131.938 52.9042C131.21 53.1717 130.487 53.4539 129.767 53.7534C128.342 54.3438 127.734 56.0385 128.467 57.3931L129.136 58.636C130.216 60.6429 129.456 63.1711 127.446 64.2573C125.434 65.341 122.907 64.5871 121.826 62.5823L121.287 61.5817C120.542 60.1979 118.737 59.7797 117.471 60.717C117.463 60.7226 117.454 60.7296 117.446 60.7352C116.816 61.2013 116.201 61.6767 115.596 62.1639C114.4 63.1279 114.308 64.9178 115.386 66.0082L116.373 67.0047C117.976 68.6245 117.96 71.2631 116.335 72.8685C114.711 74.4741 112.07 74.4626 110.468 72.8441L109.661 72.0306C108.55 70.9078 106.697 71.0297 105.74 72.2887C105.267 72.909 104.808 73.5387 104.365 74.1734C103.48 75.4399 103.888 77.1905 105.236 77.9356L106.479 78.6207C108.475 79.7218 109.202 82.2563 108.095 84.253C106.988 86.2504 104.45 86.9833 102.452 85.8814L101.457 85.331C100.072 84.5675 98.3234 85.2064 97.7613 86.6876C97.4863 87.4145 97.2251 88.1458 96.9806 88.8812C96.492 90.342 97.3762 91.9044 98.8803 92.2373L100.254 92.5424C102.479 93.0372 103.891 95.263 103.394 97.4893C104.693 99.2444 103.109 101.676 100.975 101.203L97.3307 100.395C95.7872 100.052 94.289 101.154 94.1656 102.73C94.1046 103.502 94.0605 104.277 94.0292 105.052C93.9711 106.591 95.2609 107.843 96.8005 107.74L98.0822 107.654C100.119 107.517 102.031 108.811 102.504 110.794C103.113 113.35 101.251 115.751 98.7394 115.919L97.5965 115.997C96.0175 116.102 94.8909 117.579 95.215 119.126C95.3741 119.884 95.5497 120.64 95.7406 121.395C96.118 122.888 97.7099 123.727 99.1585 123.192L100.393 122.738C102.285 122.043 104.452 122.728 105.475 124.458C106.829 126.747 105.719 129.608 103.337 130.485L102.266 130.879C100.78 131.425 100.115 133.162 100.865 134.552C101.233 135.232 101.614 135.906 102.011 136.575C102.795 137.899 104.557 138.254 105.798 137.335L106.93 136.497C108.766 135.138 111.377 135.526 112.732 137.356C114.088 139.188 113.696 141.797 111.859 143.157L110.944 143.834C109.673 144.775 109.524 146.626 110.633 147.751C111.178 148.304 111.734 148.845 112.299 149.371C113.425 150.425 115.219 150.268 116.152 149.037L116.932 148.005C118.166 146.38 120.401 145.779 122.21 146.717C124.544 147.927 125.137 150.901 123.615 152.908L122.922 153.824C121.964 155.087 122.344 156.905 123.73 157.667C124.411 158.042 125.098 158.403 125.791 158.751C127.17 159.438 128.844 158.782 129.391 157.342L129.852 156.129C130.578 154.221 132.555 153.018 134.557 153.408C137.14 153.911 138.546 156.595 137.652 158.948L137.249 160.007C136.686 161.487 137.562 163.124 139.106 163.466C139.863 163.633 140.625 163.786 141.387 163.922C142.904 164.196 144.328 163.097 144.448 161.559L144.549 160.28C144.708 158.248 146.268 156.536 148.298 156.347C150.92 156.103 153.027 158.28 152.831 160.788L152.743 161.922C152.62 163.497 153.922 164.819 155.498 164.713C156.273 164.662 157.045 164.596 157.818 164.513C159.354 164.349 160.412 162.893 160.095 161.384L159.806 160.006C159.333 157.775 160.777 155.562 163.01 155.085C164.726 153.815 167.179 154.742 167.619 156.828L168.161 159.397C168.487 160.942 170.111 161.843 171.597 161.297C172.324 161.029 173.049 160.746 173.77 160.448C175.194 159.856 175.799 158.163 175.07 156.806L174.4 155.563C173.208 153.349 174.256 150.502 176.75 149.656C178.682 149.002 180.8 149.932 181.765 151.724L182.247 152.619C182.993 154.004 184.799 154.421 186.065 153.484C186.072 153.478 186.08 153.472 186.09 153.465C186.718 153 187.335 152.525 187.938 152.038C189.134 151.075 189.226 149.286 188.146 148.196ZM185.075 85.7887C190.013 93.4964 191.947 102.37 191.092 110.949L177.795 108.98C178.176 103.809 177.035 98.5065 174.247 93.8032L185.075 85.788L185.075 85.7887ZM181.878 81.4692L171.05 89.4843C167.365 85.4437 162.627 82.8054 157.572 81.66L159.571 68.3671C168.025 70.0542 175.948 74.4954 181.878 81.4692ZM154.235 67.6739L152.227 81.0116C147.191 80.9234 142.094 82.2811 137.593 85.1853L129.612 74.4036C137.112 69.3271 145.781 67.1516 154.235 67.6739ZM112.941 99.3827C114.589 91.2361 118.796 83.5764 125.361 77.7136L133.383 88.5507C129.737 92.136 127.327 96.6023 126.239 101.35L112.941 99.3827ZM118.368 128.482C113.695 121.192 111.713 112.859 112.236 104.719L125.579 106.694C125.484 111.414 126.657 116.189 129.195 120.467L118.368 128.482ZM133.728 120.456C126.388 110.541 128.497 96.5439 138.435 89.1869C148.371 81.8322 162.374 83.9023 169.714 93.8175C177.051 103.73 174.944 117.73 165.009 125.085C155.07 132.442 141.065 130.368 133.728 120.456ZM121.565 132.802L132.393 124.787C135.744 128.465 139.967 130.98 144.51 132.268L142.503 145.607C134.565 143.729 127.174 139.4 121.565 132.802ZM147.812 146.49L149.812 133.197C154.671 133.543 159.647 132.542 164.139 130.1L172.162 140.939C164.638 145.505 156.084 147.292 147.812 146.49ZM168.589 127.058C172.68 123.601 175.468 119.123 176.855 114.281L190.196 116.255C188.228 124.492 183.616 132.149 176.57 137.84L168.589 127.058Z" fill="#F3F3F3"/>
<path d="M132.442 47.6486C133.359 46.908 133.431 45.5257 132.593 44.683L131.894 43.9784C130.787 42.8567 130.577 41.0916 131.49 39.8131C132.669 38.1725 134.995 38.0501 136.36 39.4288L136.984 40.0619C137.837 40.9232 139.264 40.841 139.999 39.8725C140.356 39.3947 140.711 38.9033 141.056 38.42C141.726 37.4456 141.406 36.095 140.37 35.5184L139.492 35.0352C138.119 34.2685 137.416 32.6247 137.931 31.1489C138.593 29.2371 140.795 28.4624 142.482 29.4035L143.254 29.8261C144.326 30.4227 145.664 29.9343 146.091 28.7963C146.301 28.2373 146.503 27.6722 146.686 27.1053C147.067 25.9845 146.38 24.7785 145.219 24.5164L144.165 24.2741C142.448 23.8926 141.356 22.1718 141.735 20.4533C140.736 19.1035 141.944 17.2364 143.583 17.6051L146.388 18.2345C147.575 18.5028 148.73 17.6539 148.819 16.4466C148.866 15.8499 148.895 15.2533 148.917 14.6524C148.957 13.4644 147.96 12.5012 146.776 12.5726L145.699 12.6445C143.953 12.7533 142.42 11.4082 142.301 9.66162C142.184 7.89584 143.519 6.37683 145.268 6.26896L146.146 6.21004C147.361 6.13087 148.224 4.99591 147.966 3.802C147.846 3.21738 147.702 2.64199 147.565 2.06039C147.267 0.903606 146.038 0.253394 144.926 0.654689L143.91 1.03298C142.262 1.63263 140.415 0.78011 139.805 -0.87587C139.202 -2.52931 140.049 -4.36428 141.695 -4.97034L142.511 -5.2717C143.656 -5.69109 144.161 -7.02532 143.585 -8.10348C143.298 -8.62144 143.004 -9.13929 142.693 -9.65975C142.089 -10.6744 140.737 -10.9617 139.781 -10.2542L138.921 -9.61743C137.506 -8.56989 135.503 -8.87048 134.451 -10.2912C133.401 -11.7108 133.695 -13.7176 135.11 -14.7651L135.805 -15.2796C136.777 -15.9992 136.89 -17.4261 136.042 -18.2933C135.619 -18.7225 135.187 -19.1369 134.75 -19.5448C133.889 -20.3591 132.505 -20.2438 131.788 -19.2927L131.193 -18.5029C130.253 -17.2569 128.524 -16.7996 127.142 -17.5229C125.337 -18.4613 124.874 -20.7556 126.038 -22.3024L126.568 -23.0057C127.307 -23.9771 127.003 -25.3746 125.943 -25.9665C125.415 -26.2583 124.884 -26.5381 124.349 -26.8052C123.29 -27.3394 122.008 -26.8433 121.586 -25.7331L121.2 -24.7159C120.584 -23.0762 118.73 -22.2428 117.094 -22.8671C115.448 -23.4951 114.608 -25.3555 115.232 -26.9889L115.531 -27.8084C115.967 -28.9501 115.283 -30.211 114.101 -30.4829C113.517 -30.6081 112.934 -30.7309 112.342 -30.8383C111.181 -31.0529 110.085 -30.2104 109.994 -29.0177L109.917 -27.9437C109.783 -26.1924 108.249 -24.8748 106.496 -25.0101C104.749 -25.1546 103.418 -26.6986 103.555 -28.4485L103.619 -29.322C103.711 -30.5386 102.706 -31.5565 101.489 -31.4844C100.893 -31.4494 100.298 -31.3945 99.7029 -31.3352C98.5261 -31.2101 97.7161 -30.0941 97.9604 -28.9336L98.1977 -27.8641C98.5547 -26.144 97.4538 -24.4498 95.7376 -24.085C94.017 -23.7247 92.3179 -24.8374 91.9524 -26.5571L91.768 -27.4147C91.5095 -28.6114 90.2632 -29.3055 89.1154 -28.8916C88.5583 -28.6835 88.0063 -28.4714 87.4487 -28.2444C86.3573 -27.7896 85.8921 -26.4852 86.4539 -25.441L86.9761 -24.4833C87.8129 -22.9365 87.2355 -20.9858 85.6976 -20.1528C84.1482 -19.326 82.1981 -19.9105 81.3675 -21.457L80.9491 -22.2338C80.369 -23.2985 78.9865 -23.6301 78.0112 -22.9082C78.0062 -22.9044 77.9974 -22.8979 77.9943 -22.8956C77.5142 -22.5402 77.035 -22.1758 76.5757 -21.8028C75.6564 -21.0551 75.588 -19.6758 76.4231 -18.8329L77.184 -18.0704C78.4202 -16.8105 78.4089 -14.7798 77.1676 -13.5487C75.9181 -12.3116 73.8987 -12.3313 72.6567 -13.5859L72.033 -14.2078C71.1836 -15.0819 69.748 -14.987 69.0195 -14.0237C68.6584 -13.5405 68.3055 -13.0672 67.9712 -12.5726C67.2904 -11.5988 67.6083 -10.2457 68.6447 -9.67347L69.6048 -9.13721C71.1424 -8.29007 71.7054 -6.32853 70.865 -4.795C70.0196 -3.26166 68.0682 -2.69942 66.5294 -3.55735L65.7623 -3.97873C64.6934 -4.57649 63.3525 -4.08687 62.9229 -2.94591C62.7108 -2.38229 62.5156 -1.82731 62.3231 -1.25685C61.9539 -0.131452 62.6395 1.07202 63.7941 1.33601L64.8581 1.57362C66.5669 1.96228 67.6614 3.68119 67.2844 5.38619C68.2892 6.74349 67.0797 8.61542 65.4287 8.24714L62.627 7.616C61.4391 7.34649 60.2911 8.19632 60.1989 9.41336C60.1554 10.0038 60.1218 10.5997 60.0953 11.1932C60.0576 12.3855 61.0553 13.3521 62.2392 13.2773L63.2258 13.2133C64.7859 13.1119 66.2613 14.1169 66.6295 15.6458C67.1055 17.6133 65.6821 19.4617 63.753 19.5785L62.8723 19.6371C61.6612 19.7106 60.7893 20.856 61.0527 22.0462C61.1734 22.631 61.3118 23.2162 61.4618 23.7919C61.7505 24.9507 62.9793 25.5935 64.0952 25.1877L65.0431 24.8362C66.4928 24.3098 68.1612 24.8422 68.9565 26.1833C70.0011 27.9479 69.1559 30.1464 67.3245 30.8143L66.5072 31.1188C65.3601 31.535 64.8539 32.8669 65.4396 33.942C65.7198 34.469 66.0141 34.9953 66.3197 35.5054C66.9269 36.5306 68.2835 36.8074 69.2342 36.1037L70.1058 35.4585C71.5165 34.4142 73.5224 34.7231 74.5704 36.1388C75.6166 37.5521 75.3253 39.5594 73.9146 40.6037L73.2108 41.1246C72.2362 41.8461 72.1245 43.276 72.9767 44.1382C73.4001 44.5709 73.8292 44.9876 74.2665 45.3944C75.1296 46.2146 76.5112 46.0877 77.2248 45.149L77.8267 44.3484C78.7674 43.1015 80.4877 42.6501 81.8779 43.3719C83.6728 44.3155 84.1381 46.609 82.9773 48.1473L82.4516 48.8457C81.7133 49.8261 82.0098 51.2291 83.0711 51.8179C83.6011 52.1094 84.1282 52.3826 84.6694 52.6551C85.7295 53.1884 87.0159 52.6885 87.4332 51.582L87.7826 50.6414C88.3353 49.1779 89.8519 48.2556 91.395 48.5608C93.3799 48.9532 94.4649 51.0273 93.7835 52.84L93.4832 53.6538C93.052 54.7939 93.7291 56.0543 94.9149 56.3224C95.4958 56.4527 96.0802 56.5706 96.6728 56.6786C97.8398 56.8925 98.929 56.0512 99.0207 54.8676L99.0956 53.8794C99.2126 52.3162 100.403 51.002 101.971 50.8592C103.981 50.6797 105.606 52.3622 105.463 54.2943L105.399 55.1667C105.305 56.3825 106.312 57.403 107.52 57.3263C108.12 57.2889 108.715 57.2397 109.313 57.1785C110.487 57.0553 111.304 55.9296 111.051 54.7762L110.822 53.712C110.46 51.9933 111.562 50.2914 113.277 49.9271C114.594 48.9521 116.485 49.6703 116.825 51.2783L117.248 53.2625C117.508 54.4544 118.755 55.1515 119.899 54.7313C120.46 54.5295 121.011 54.3161 121.568 54.0868C122.661 53.6356 123.123 52.3368 122.562 51.285L122.041 50.3274C121.115 48.6191 121.914 46.4283 123.828 45.7821C125.317 45.2811 126.947 46.0023 127.691 47.3861L128.066 48.0782C128.646 49.1423 130.039 49.4699 131.004 48.7554C131.011 48.7503 131.018 48.7456 131.025 48.7401C131.507 48.385 131.976 48.0252 132.442 47.6486ZM97.1626 28.8758L104.426 16.4132L108.101 30.3347C104.398 31.0066 100.557 30.4992 97.1626 28.8758ZM121.027 20.4685L108.558 13.2481L122.505 9.53077C123.175 13.2382 122.655 17.0767 121.027 20.4685ZM107.147 15.6791L119.605 22.9028C118.512 24.4746 117.163 25.8953 115.536 27.0992C114.057 28.1946 112.472 29.0358 110.828 29.6009L107.147 15.6791ZM121.007 34.907C119.748 35.8392 117.96 35.5786 117.025 34.3149C116.088 33.0494 116.361 31.264 117.62 30.3318C118.887 29.394 120.676 29.6533 121.613 30.9188C122.548 32.1825 122.274 33.9693 121.007 34.907ZM129.216 13.6904C130.778 13.9141 131.854 15.3682 131.61 16.9253C131.377 18.4847 129.927 19.5583 128.372 19.3223C126.82 19.095 125.743 17.641 125.977 16.0874C126.208 14.5355 127.658 13.4619 129.216 13.6904ZM126.4 -3.24789C127.338 -1.98044 127.071 -0.203768 125.805 0.733523C124.539 1.67035 122.761 1.40776 121.823 0.140314C120.89 -1.11959 121.154 -2.90237 122.42 -3.8392C123.686 -4.77649 125.468 -4.50779 126.4 -3.24789ZM119.293 2.11139C120.388 3.5906 121.217 5.16586 121.781 6.81343L107.84 10.5251L115.095 -1.94777C116.673 -0.863169 118.096 0.494568 119.293 2.11139ZM88.812 5.05006L101.259 12.2772L87.3283 15.9825C86.654 12.2844 87.1751 8.44841 88.812 5.05006ZM92.226 -7.96193C93.1605 -6.69952 92.8824 -4.91494 91.6206 -3.9809C90.3575 -3.04594 88.5695 -3.30108 87.635 -4.5635C86.6995 -5.82717 86.9753 -7.61489 88.2384 -8.54986C89.5002 -9.48389 91.2905 -9.2256 92.226 -7.96193ZM94.3043 -1.58153C95.7741 -2.66953 97.3666 -3.5011 99.0007 -4.07941L102.679 9.84019L90.2236 2.62195C91.3143 1.04418 92.6811 -0.380031 94.3043 -1.58153ZM112.67 -3.35385L105.412 9.12976L101.729 -4.80958C105.442 -5.49072 109.273 -4.9793 112.67 -3.35385ZM108.438 -13.8045C109.993 -13.5663 111.061 -12.1229 110.832 -10.5702C110.595 -9.01042 109.148 -7.93916 107.592 -8.17143C106.033 -8.40074 104.964 -9.84413 105.197 -11.4057C105.432 -12.9593 106.879 -14.0305 108.438 -13.8045ZM80.0285 12.6638C78.468 12.4309 77.3985 10.9862 77.6301 9.42386C77.8663 7.86387 79.3109 6.79447 80.8751 7.02179C82.4338 7.25892 83.5032 8.70356 83.2735 10.2617C83.0295 11.8177 81.5842 12.8876 80.0285 12.6638ZM82.8357 29.6003C81.9012 28.3379 82.1735 26.5586 83.4416 25.6199C84.7053 24.6845 86.4853 24.9446 87.4198 26.207C88.3567 27.4726 88.0917 29.2591 86.828 30.1945C85.5593 31.1337 83.7721 30.8652 82.8357 29.6003ZM90.5398 23.3956C89.4597 21.9365 88.6139 20.3564 88.0477 18.7085L101.987 14.9928L94.7362 27.4717C93.1526 26.3824 91.7446 25.0231 90.5398 23.3956ZM100.803 40.1567C99.2503 39.9271 98.1753 38.4749 98.4102 36.9237C98.65 35.362 100.1 34.2884 101.651 34.5244C103.211 34.7471 104.286 36.1993 104.045 37.7574C103.819 39.3123 102.369 40.3859 100.803 40.1567Z" fill="#F3F3F3"/>
<path d="M49.1547 48.411L52.3008 50.6033L54.4271 48.7899L52.7533 45.3395C53.2751 44.7645 53.762 44.1502 54.2134 43.4999L57.9985 44.3661L59.2851 41.8874L56.3924 39.3042C56.692 38.4842 56.9286 37.6554 57.1064 36.8206L60.8872 36.1423L61.1094 33.3611L57.4821 32.1087C57.4429 31.3265 57.3532 30.5495 57.2145 29.7826L60.4686 27.7307L59.6267 25.0729L55.7889 25.2798C55.4264 24.5024 55.0091 23.7481 54.54 23.0264L56.741 19.8748L54.9299 17.7555L51.474 19.4363C50.8986 18.9178 50.2854 18.4311 49.6354 17.9814L50.511 14.1971L48.0343 12.9169L45.4414 15.8149C44.6222 15.5176 43.7925 15.2826 42.958 15.1066L42.2898 11.33L39.5055 11.114L38.2443 14.744C37.4607 14.7852 36.6835 14.8771 35.9159 15.0164L33.8692 11.769L31.2072 12.6171L31.405 16.452C30.6264 16.8154 29.8708 17.2336 29.1464 17.7057L25.9991 15.5143L23.8738 17.3279L25.5472 20.7777C25.0267 21.3545 24.5385 21.967 24.0875 22.6179L20.3031 21.7512L19.0154 24.2297L21.9101 26.8143C21.6106 27.6332 21.3723 28.4624 21.1946 29.2972L17.414 29.9744L17.1906 32.7554L20.819 34.008C20.8582 34.7902 20.9479 35.5671 21.0855 36.3339L17.8314 38.3858L18.6742 41.0449L22.5127 40.8375C22.874 41.6147 23.2913 42.369 23.7609 43.0914L21.5595 46.2423L23.3699 48.3622L26.8263 46.6819C27.4017 47.2004 28.0138 47.687 28.6627 48.1365L27.7882 51.921L30.2661 53.2013L32.8585 50.3027C33.6771 50.6004 34.5067 50.8355 35.342 51.0099L36.0107 54.7871L38.7939 55.003L40.0555 51.3736C40.8385 51.3328 41.6164 51.2405 42.383 51.1L44.4298 54.3473L47.0907 53.4991L46.8928 49.6642C47.6743 49.3007 48.4292 48.8829 49.1547 48.411ZM39.096 39.2468C40.2377 39.2674 41.6627 38.7602 42.3399 38.361L47.0547 44.7304C43.8537 46.9764 41.0322 47.4513 37.8692 47.1927L39.096 39.2468ZM37.1537 34.8201C36.289 33.6519 36.5387 31.9944 37.7106 31.1268C38.8819 30.2598 40.5394 30.5055 41.4041 31.6737C42.2698 32.8431 42.0203 34.4995 40.849 35.3666C39.677 36.2341 38.0194 35.9895 37.1537 34.8201ZM48.3007 43.7856L43.5673 37.3911C44.0906 36.7839 44.9428 35.4857 45.1665 34.3425L53.1045 35.4972C52.5315 38.6469 50.6928 41.7609 48.3007 43.7856ZM52.9919 33.9863L44.908 32.6595C44.8882 31.7208 44.8883 31.1099 44.0623 29.7759L50.6446 24.9033C52.7869 28.181 53.2618 30.9869 52.9919 33.9863ZM50.2059 24.2553L43.6236 29.128C42.6154 27.9289 41.925 27.7347 40.8519 27.4309L42.0598 19.1323C45.2079 19.8096 48.2943 21.7794 50.2059 24.2553ZM40.9485 19.0279L39.7293 27.2561C38.6477 27.1891 37.2943 27.6025 36.5677 27.9351L31.5627 21.1736C34.1995 19.4795 37.7447 18.6341 40.9485 19.0279ZM30.2962 22.0908L35.2812 28.8252C34.6984 29.3519 33.8914 30.426 33.5589 31.4328L25.2409 30.2326C25.9059 27.1033 27.2133 24.4964 30.2962 22.0908ZM25.0675 31.323L33.2553 32.4931C33.1198 33.7713 33.2316 34.8763 34.0714 36.2001L27.5036 41.062C25.6966 38.5078 24.6638 34.6869 25.0675 31.323ZM27.9953 41.6698L34.5631 36.8078C35.6166 37.9734 36.5994 38.493 37.6798 38.7476L36.3795 46.5153C33.2478 45.9719 30.514 44.6689 27.9953 41.6698Z" fill="#F3F3F3"/>
</g>
</svg>
