<svg width="191" height="26" viewBox="0 0 191 26" fill="none" xmlns="http://www.w3.org/2000/svg">
<rect x="146.779" y="0.996094" width="43.774" height="25" rx="5" fill="#F5F6F8"/>
<path fill-rule="evenodd" clip-rule="evenodd" d="M175.694 12.9585V17.6149H178.552V14.8556H181.791C183.154 14.8464 184.312 14.0582 184.749 12.9585H175.694Z" fill="#37A72E"/>
<path fill-rule="evenodd" clip-rule="evenodd" d="M175.314 9.12109C175.48 11.0244 177.47 12.5272 179.899 12.5272C179.907 12.5272 184.869 12.5272 184.869 12.5272C184.906 12.3526 184.925 12.1725 184.925 11.9882C184.925 10.4116 183.52 9.13276 181.781 9.12117L175.314 9.12109Z" fill="url(#paint0_linear_332_2937)"/>
<path fill-rule="evenodd" clip-rule="evenodd" d="M171.054 12.4819L171.056 12.4775L171.056 12.4776C171.085 12.43 171.142 12.3978 171.206 12.3978C171.299 12.3978 171.375 12.465 171.377 12.5487L171.378 12.5487V17.5716H174.236V9.12109H171.378C171.015 9.13201 170.606 9.37274 170.453 9.66823L168.179 14.0831C168.173 14.1011 168.164 14.118 168.153 14.1331L168.152 14.1346L168.152 14.1345C168.118 14.1793 168.06 14.2087 167.995 14.2087C167.89 14.2087 167.805 14.1314 167.805 14.0362V9.12109H164.947V17.5716H167.805V17.5707C168.163 17.5537 168.563 17.3157 168.713 17.0245L171.048 12.4933C171.05 12.4894 171.051 12.4856 171.054 12.4819Z" fill="#37A72E"/>
<path fill-rule="evenodd" clip-rule="evenodd" d="M160.411 12.6263L158.741 17.5716H156.685L155.013 12.6233C154.997 12.5441 154.92 12.4841 154.828 12.4841C154.724 12.4841 154.64 12.5603 154.64 12.6544C154.64 12.6551 154.64 12.6558 154.64 12.6565L154.64 17.5716H151.782V9.12109H154.235H154.966C155.491 9.12109 156.043 9.49049 156.196 9.94546L157.587 14.0634C157.656 14.2683 157.769 14.2681 157.838 14.0634L159.229 9.94546C159.383 9.49018 159.934 9.12109 160.46 9.12109L161.19 9.12109H163.643V17.5716H160.785V12.6565C160.785 12.6558 160.785 12.6551 160.785 12.6544C160.785 12.5603 160.701 12.4841 160.597 12.4841C160.503 12.4841 160.426 12.5456 160.411 12.6263Z" fill="#37A72E"/>
<rect x="98.0022" y="0.996094" width="43.774" height="25" rx="5" fill="#F5F6F8"/>
<path d="M111.778 5.52393H118.178C119.071 5.52393 119.627 6.2478 119.419 7.13884L116.439 19.8559C116.229 20.7439 115.334 21.4684 114.44 21.4684H108.041C107.149 21.4684 106.592 20.7439 106.801 19.8559L109.782 7.13884C109.99 6.2478 110.884 5.52393 111.778 5.52393Z" fill="#E21836"/>
<path d="M117.648 5.52393H125.007C125.901 5.52393 125.498 6.2478 125.288 7.13884L122.309 19.8559C122.1 20.7439 122.165 21.4684 121.27 21.4684H113.91C113.015 21.4684 112.461 20.7439 112.672 19.8559L115.651 7.13884C115.862 6.2478 116.754 5.52393 117.648 5.52393Z" fill="#00447C"/>
<path d="M124.712 5.52393H131.112C132.006 5.52393 132.562 6.2478 132.352 7.13884L129.373 19.8559C129.162 20.7439 128.267 21.4684 127.373 21.4684H120.976C120.081 21.4684 119.526 20.7439 119.736 19.8559L122.715 7.13884C122.924 6.2478 123.817 5.52393 124.712 5.52393Z" fill="#007B84"/>
<path d="M113.449 9.5996C112.791 9.60627 112.597 9.5996 112.535 9.58503C112.511 9.69776 112.067 11.7343 112.066 11.736C111.97 12.148 111.9 12.4418 111.664 12.6314C111.53 12.7417 111.373 12.7948 111.192 12.7948C110.9 12.7948 110.73 12.6508 110.701 12.3776L110.696 12.2837C110.696 12.2837 110.785 11.7318 110.785 11.7287C110.785 11.7287 111.251 9.87284 111.334 9.62752C111.339 9.61356 111.34 9.60627 111.341 9.5996C110.434 9.60751 110.273 9.5996 110.262 9.58503C110.256 9.60503 110.233 9.72009 110.233 9.72009L109.757 11.8119L109.717 11.9893L109.637 12.5695C109.637 12.7417 109.671 12.8822 109.739 13.0009C109.956 13.3776 110.574 13.4341 110.924 13.4341C111.375 13.4341 111.798 13.3388 112.084 13.165C112.58 12.8736 112.71 12.4182 112.825 12.0134L112.879 11.8058C112.879 11.8058 113.359 9.87827 113.441 9.62752C113.444 9.61356 113.445 9.60627 113.449 9.5996ZM115.083 11.1546C114.967 11.1546 114.756 11.1825 114.566 11.2751C114.497 11.3103 114.431 11.3509 114.363 11.3914L114.425 11.1685L114.391 11.131C113.988 11.2121 113.898 11.223 113.526 11.2751L113.494 11.2957C113.451 11.6519 113.413 11.9197 113.253 12.6198C113.192 12.8779 113.128 13.1384 113.065 13.3958L113.082 13.4285C113.463 13.4085 113.579 13.4085 113.91 13.414L113.937 13.385C113.979 13.1705 113.985 13.1203 114.078 12.6859C114.122 12.48 114.213 12.0275 114.259 11.8663C114.341 11.8282 114.423 11.7907 114.501 11.7907C114.687 11.7907 114.664 11.9518 114.657 12.016C114.649 12.1238 114.581 12.4758 114.512 12.778L114.466 12.9731C114.433 13.1171 114.398 13.2572 114.366 13.4L114.38 13.4285C114.756 13.4085 114.87 13.4085 115.191 13.414L115.229 13.385C115.287 13.05 115.304 12.9604 115.407 12.4727L115.459 12.2486C115.559 11.8101 115.61 11.5877 115.534 11.4066C115.453 11.2036 115.26 11.1546 115.083 11.1546ZM116.908 11.6137C116.708 11.6519 116.581 11.6773 116.454 11.6937C116.328 11.7137 116.206 11.7319 116.013 11.7586L115.997 11.7724L115.983 11.7834C115.963 11.9263 115.949 12.0499 115.923 12.1952C115.9 12.3455 115.865 12.5162 115.809 12.7616C115.765 12.9493 115.742 13.0148 115.717 13.0808C115.693 13.1469 115.666 13.2111 115.617 13.3958L115.628 13.4129L115.638 13.4285C115.818 13.42 115.936 13.4139 116.058 13.4129C116.179 13.4085 116.305 13.4129 116.499 13.4139L116.516 13.4001L116.534 13.3849C116.562 13.2184 116.567 13.1736 116.584 13.0923C116.601 13.0052 116.63 12.8845 116.702 12.5623C116.736 12.4109 116.774 12.2601 116.809 12.1056C116.846 11.9518 116.884 11.8003 116.921 11.6489L116.915 11.6306L116.908 11.6137ZM116.912 10.9946C116.73 10.8881 116.412 10.9219 116.197 11.0691C115.983 11.2133 115.959 11.418 116.14 11.5259C116.319 11.6295 116.638 11.5986 116.851 11.4502C117.064 11.3029 117.091 11.1001 116.912 10.9946ZM118.01 13.4619C118.377 13.4619 118.754 13.3613 119.037 13.0626C119.256 12.8204 119.356 12.46 119.39 12.3116C119.503 11.8197 119.415 11.59 119.305 11.4502C119.137 11.2369 118.841 11.1686 118.534 11.1686C118.349 11.1686 117.91 11.1867 117.566 11.5016C117.319 11.7288 117.205 12.0371 117.136 12.3327C117.067 12.6338 116.987 13.176 117.489 13.3777C117.643 13.4438 117.866 13.4619 118.01 13.4619ZM117.981 12.3552C118.066 11.9827 118.166 11.6701 118.421 11.6701C118.621 11.6701 118.636 11.9027 118.547 12.2764C118.531 12.3593 118.458 12.6678 118.359 12.7991C118.29 12.896 118.209 12.9548 118.119 12.9548C118.092 12.9548 117.932 12.9548 117.93 12.7193C117.928 12.603 117.952 12.4842 117.981 12.3552ZM120.308 13.414L120.337 13.385C120.378 13.1705 120.385 13.1201 120.475 12.6859C120.52 12.48 120.613 12.0275 120.657 11.8664C120.74 11.8281 120.82 11.7906 120.901 11.7906C121.085 11.7906 121.063 11.9517 121.055 12.0159C121.049 12.1238 120.981 12.4757 120.91 12.7779L120.867 12.973C120.833 13.1172 120.797 13.2571 120.764 13.4L120.778 13.4286C121.155 13.4086 121.266 13.4086 121.589 13.414L121.628 13.385C121.684 13.0499 121.7 12.9603 121.806 12.4727L121.856 12.2485C121.957 11.8099 122.008 11.5877 121.933 11.4066C121.851 11.2036 121.656 11.1546 121.481 11.1546C121.366 11.1546 121.153 11.1824 120.964 11.2751C120.896 11.3103 120.829 11.3508 120.762 11.3914L120.82 11.1686L120.789 11.1309C120.386 11.2121 120.294 11.223 119.923 11.2751L119.894 11.2957C119.849 11.6519 119.812 11.9196 119.652 12.6199C119.591 12.8779 119.528 13.1384 119.465 13.3959L119.482 13.4286C119.864 13.4086 119.978 13.4086 120.308 13.414ZM123.08 13.4285C123.103 13.3134 123.244 12.6314 123.245 12.6314C123.245 12.6314 123.365 12.131 123.373 12.1129C123.373 12.1129 123.41 12.0608 123.448 12.0401H123.504C124.028 12.0401 124.619 12.0401 125.083 11.701C125.399 11.4684 125.614 11.1249 125.711 10.7075C125.736 10.6051 125.754 10.4834 125.754 10.3617C125.754 10.2018 125.722 10.0436 125.628 9.92001C125.392 9.5911 124.921 9.58506 124.377 9.58258C124.376 9.58258 124.109 9.58506 124.109 9.58506C123.414 9.59359 123.135 9.5911 123.02 9.57715C123.01 9.62755 122.992 9.71718 122.992 9.71718C122.992 9.71718 122.743 10.8656 122.743 10.8675C122.743 10.8675 122.146 13.3093 122.118 13.4243C122.726 13.417 122.975 13.417 123.08 13.4285ZM123.541 11.3884C123.541 11.3884 123.807 10.2422 123.805 10.2466L123.814 10.1878L123.818 10.143L123.923 10.1539C123.923 10.1539 124.47 10.2005 124.483 10.2018C124.699 10.2847 124.788 10.4986 124.725 10.7777C124.669 11.0328 124.502 11.2473 124.289 11.3509C124.112 11.4386 123.897 11.4459 123.674 11.4459H123.531L123.541 11.3884ZM125.192 12.3764C125.122 12.6732 125.041 13.2153 125.54 13.4085C125.699 13.4758 125.842 13.4958 125.987 13.4886C126.14 13.4803 126.281 13.404 126.413 13.2943C126.401 13.3394 126.389 13.3845 126.377 13.4298L126.4 13.4588C126.759 13.4437 126.87 13.4437 127.259 13.4467L127.294 13.42C127.351 13.0882 127.405 12.7659 127.552 12.1311C127.624 11.827 127.696 11.5258 127.77 11.223L127.758 11.1896C127.357 11.2636 127.249 11.2794 126.863 11.3338L126.834 11.3576C126.83 11.3884 126.826 11.418 126.822 11.4477C126.762 11.3512 126.675 11.2689 126.541 11.2175C126.369 11.1504 125.965 11.2369 125.619 11.5508C125.375 11.7749 125.258 12.0819 125.192 12.3764ZM126.035 12.3945C126.121 12.0287 126.22 11.7192 126.475 11.7192C126.637 11.7192 126.722 11.8676 126.705 12.1207C126.691 12.1838 126.676 12.2503 126.659 12.3255C126.633 12.4342 126.605 12.542 126.578 12.6499C126.551 12.7237 126.519 12.7934 126.484 12.8397C126.418 12.9325 126.261 12.99 126.171 12.99C126.146 12.99 125.988 12.99 125.982 12.7586C125.981 12.6434 126.005 12.5248 126.035 12.3945ZM130.438 11.1867L130.407 11.1515C130.01 11.2315 129.938 11.2442 129.573 11.2932L129.546 11.3199C129.545 11.3242 129.544 11.3309 129.542 11.3369L129.541 11.3309C129.269 11.9541 129.277 11.8197 129.056 12.3103C129.055 12.288 129.055 12.274 129.053 12.2503L128.998 11.1867L128.963 11.1515C128.547 11.2315 128.537 11.2442 128.153 11.2932L128.123 11.3199C128.119 11.3326 128.119 11.3465 128.116 11.3617L128.119 11.3672C128.167 11.6113 128.155 11.5568 128.203 11.942C128.226 12.1311 128.256 12.3212 128.278 12.5079C128.316 12.8203 128.337 12.9742 128.384 13.451C128.124 13.8768 128.063 14.038 127.813 14.4117L127.815 14.4154L127.639 14.6921C127.618 14.7212 127.6 14.7412 127.575 14.7497C127.547 14.7635 127.51 14.766 127.459 14.766H127.362L127.217 15.2452L127.714 15.2537C128.006 15.2525 128.189 15.1168 128.288 14.9344L128.601 14.4019H128.596L128.629 14.3644C128.839 13.9144 130.438 11.1867 130.438 11.1867ZM125.192 17.4799H124.981L125.761 14.9133H126.02L126.102 14.6489L126.11 14.9429C126.101 15.1246 126.244 15.2857 126.622 15.2591H127.059L127.21 14.7649H127.045C126.951 14.7649 126.907 14.7411 126.912 14.6903L126.904 14.3911H126.095V14.3927C125.834 14.3981 125.052 14.4177 124.894 14.4595C124.703 14.5085 124.501 14.6527 124.501 14.6527L124.58 14.388H123.824L123.666 14.9133L122.875 17.5191H122.721L122.571 18.0097H124.078L124.028 18.1733H124.771L124.82 18.0097H125.028L125.192 17.4799ZM124.573 15.4348C124.452 15.4681 124.226 15.5692 124.226 15.5692L124.427 14.9133H125.028L124.883 15.3912C124.883 15.3912 124.697 15.402 124.573 15.4348ZM124.585 16.3719C124.585 16.3719 124.396 16.3954 124.271 16.4234C124.149 16.4603 123.919 16.5766 123.919 16.5766L124.126 15.8939H124.731L124.585 16.3719ZM124.248 17.4859H123.644L123.819 16.9098H124.421L124.248 17.4859ZM125.7 15.8939H126.57L126.445 16.2962H125.564L125.432 16.736H126.202L125.619 17.553C125.578 17.6131 125.541 17.6343 125.5 17.6512C125.46 17.6718 125.406 17.696 125.344 17.696H125.13L124.983 18.1777H125.542C125.833 18.1777 126.005 18.0462 126.132 17.8736L126.532 17.329L126.618 17.882C126.636 17.9855 126.711 18.0462 126.762 18.0697C126.818 18.0977 126.876 18.1456 126.957 18.1527C127.045 18.1564 127.108 18.1594 127.151 18.1594H127.425L127.59 17.6203H127.482C127.42 17.6203 127.313 17.61 127.294 17.5906C127.276 17.567 127.276 17.5307 127.266 17.4755L127.179 16.9213H126.822L126.979 16.736H127.858L127.993 16.2962H127.179L127.306 15.8939H128.117L128.268 15.3979H125.848L125.7 15.8939ZM118.357 17.5979L118.56 16.9268H119.394L119.546 16.4276H118.711L118.839 16.0145H119.655L119.806 15.5311H117.764L117.616 16.0145H118.08L117.957 16.4276H117.492L117.337 16.9353H117.801L117.531 17.8232C117.494 17.9408 117.548 17.9856 117.582 18.0402C117.616 18.0934 117.652 18.1286 117.731 18.1486C117.813 18.1667 117.869 18.1776 117.945 18.1776H118.885L119.053 17.6246L118.636 17.6815C118.555 17.6815 118.332 17.6719 118.357 17.5979ZM118.452 14.385L118.241 14.7648C118.196 14.8477 118.155 14.8992 118.118 14.923C118.086 14.943 118.022 14.9513 117.93 14.9513H117.819L117.672 15.4372H118.038C118.214 15.4372 118.349 15.373 118.414 15.3409C118.483 15.304 118.502 15.3251 118.555 15.2736L118.679 15.167H119.823L119.975 14.6612H119.137L119.284 14.385H118.452ZM120.141 17.6077C120.121 17.5797 120.135 17.5306 120.165 17.4282L120.478 16.3997H121.59C121.752 16.3973 121.869 16.3955 121.945 16.39C122.027 16.3815 122.116 16.3525 122.213 16.3004C122.313 16.2458 122.364 16.1883 122.407 16.1222C122.455 16.0563 122.532 15.9121 122.599 15.6897L122.992 14.3881L121.838 14.3947C121.838 14.3947 121.483 14.4468 121.326 14.5044C121.168 14.5686 120.943 14.7478 120.943 14.7478L121.047 14.391H120.334L119.336 17.6815C119.301 17.8093 119.277 17.902 119.271 17.9577C119.27 18.0177 119.348 18.0771 119.398 18.1219C119.458 18.1667 119.546 18.1594 119.631 18.1667C119.72 18.1734 119.847 18.1775 120.021 18.1775H120.569L120.737 17.6131L120.247 17.6591C120.195 17.6591 120.157 17.6312 120.141 17.6077ZM120.68 15.7049H121.848L121.773 15.9363C121.763 15.9417 121.738 15.9248 121.619 15.9388H120.608L120.68 15.7049ZM120.913 14.929H122.091L122.007 15.2076C122.007 15.2076 121.451 15.2022 121.363 15.2185C120.971 15.2858 120.743 15.4936 120.743 15.4936L120.913 14.929ZM121.799 16.7111C121.79 16.7457 121.774 16.7668 121.753 16.7826C121.729 16.7978 121.691 16.8032 121.634 16.8032H121.467L121.477 16.5214H120.785L120.757 17.8989C120.756 17.9983 120.765 18.0559 120.839 18.1019C120.912 18.1595 121.137 18.1667 121.441 18.1667H121.874L122.031 17.6511L121.653 17.6718L121.528 17.679C121.511 17.6718 121.494 17.6651 121.476 17.6469C121.46 17.6313 121.433 17.6409 121.438 17.5415L121.441 17.1884L121.837 17.1721C122.05 17.1721 122.142 17.103 122.22 17.037C122.294 16.9739 122.319 16.9014 122.347 16.8032L122.413 16.4906H121.869L121.799 16.7111Z" fill="#FEFEFE"/>
<rect x="49.2256" y="0.996094" width="43.774" height="25" rx="5" fill="#F5F6F8"/>
<path fill-rule="evenodd" clip-rule="evenodd" d="M76.5007 21.8716H76.9004L77.3364 21.835L77.7362 21.7616L78.1359 21.6883L78.5356 21.615L78.9353 21.5049L79.2986 21.3583L79.662 21.2116L80.0254 21.0649L80.3887 20.8816L80.7521 20.6616L81.0791 20.4782L81.4062 20.2216L81.6969 20.0016L81.9875 19.7082L82.2782 19.4515L82.5689 19.1582L82.8233 18.8649L83.0413 18.5349L83.2957 18.2415L83.5137 17.8748L83.6954 17.5448L83.8771 17.1781L84.0224 16.8115L84.1678 16.4448L84.3131 16.0781L84.4221 15.6748L84.5311 15.2714L84.6038 14.8681L84.6401 14.4647L84.6765 14.0247V13.6214V13.1813L84.6401 12.778L84.6038 12.338L84.5311 11.9346L84.4221 11.568L84.3131 11.1646L84.1678 10.7613L84.0224 10.3946L83.8771 10.0279L83.6954 9.6979L83.5137 9.33122L83.2957 9.00121L83.0413 8.6712L82.8233 8.37786L82.5689 8.08451L82.2782 7.79117L81.9875 7.49783L81.6969 7.24115L81.4062 7.02115L81.0791 6.76447L80.7521 6.58113L80.3887 6.36113L80.0254 6.17779L79.662 6.03111L79.2986 5.88444L78.9353 5.73777L78.5356 5.62777L78.1359 5.55443L77.7362 5.4811L77.3364 5.40776L76.9004 5.37109H76.5007H76.0647L75.665 5.40776L75.2289 5.4811L74.8292 5.55443L74.4659 5.62777L74.0661 5.73777L73.6664 5.88444L73.3031 6.03111L72.9397 6.17779L72.6127 6.36113L72.2493 6.58113L71.9223 6.76447L71.5953 7.02115L71.3046 7.24115L71.0139 7.49783L70.7232 7.79117L70.4325 8.08451L70.1781 8.37786L69.9601 8.6712L69.7057 9.00121L69.5241 9.33122L69.306 9.6979L69.1244 10.0279L68.979 10.3946L68.8337 10.7613L68.6883 11.1646L68.5793 11.568L68.5066 11.9346L68.434 12.338L68.3613 12.778L68.325 13.1813V13.6214V14.0247L68.3613 14.4647L68.434 14.8681L68.5066 15.2714L68.5793 15.6748L68.6883 16.0781L68.8337 16.4448L68.979 16.8115L69.1244 17.1781L69.306 17.5448L69.5241 17.8748L69.7057 18.2415L69.9601 18.5349L70.1781 18.8649L70.4325 19.1582L70.7232 19.4515L71.0139 19.7082L71.3046 20.0016L71.5953 20.2216L71.9223 20.4782L72.2493 20.6616L72.6127 20.8816L72.9397 21.0649L73.3031 21.2116L73.6664 21.3583L74.0661 21.5049L74.4659 21.615L74.8292 21.6883L75.2289 21.7616L75.665 21.835L76.0647 21.8716H76.5007Z" fill="#FBB231"/>
<path fill-rule="evenodd" clip-rule="evenodd" d="M65.5671 21.8716H65.9668L66.4028 21.835L66.8025 21.7616L67.2022 21.6883L67.6019 21.615L68.0016 21.5049L68.365 21.3583L68.7284 21.2116L69.0917 21.0649L69.4551 20.8816L69.7821 20.6616L70.1092 20.4782L70.4362 20.2216L70.7632 20.0016L71.0539 19.7082L71.3446 19.4515L71.599 19.1582L71.8533 18.8649L72.1077 18.5349L72.3257 18.2415L72.5437 17.8748L72.7254 17.5448L72.9071 17.1781L73.0888 16.8115L73.2341 16.4448L73.3431 16.0781L73.4521 15.6748L73.5611 15.2714L73.6338 14.8681L73.6702 14.4647L73.7065 14.0247V13.6214V13.1813L73.6702 12.778L73.6338 12.338L73.5611 11.9346L73.4521 11.568L73.3431 11.1646L73.2341 10.7613L73.0888 10.3946L72.9071 10.0279L72.7254 9.6979L72.5437 9.33122L72.3257 9.00121L72.1077 8.6712L71.8533 8.37786L71.599 8.08451L71.3446 7.79117L71.0539 7.49783L70.7632 7.24115L70.4362 7.02115L70.1092 6.76447L69.7821 6.58113L69.4551 6.36113L69.0917 6.17779L68.7284 6.03111L68.365 5.88444L68.0016 5.73777L67.6019 5.62777L67.2022 5.55443L66.8025 5.4811L66.4028 5.40776L65.9668 5.37109H65.5671H65.131L64.7313 5.40776L64.2953 5.4811L63.8956 5.55443L63.4959 5.62777L63.1325 5.73777L62.7328 5.88444L62.3694 6.03111L62.0061 6.17779L61.6427 6.36113L61.3157 6.58113L60.9886 6.76447L60.6616 7.02115L60.3346 7.24115L60.0439 7.49783L59.7532 7.79117L59.4988 8.08451L59.2445 8.37786L58.9901 8.6712L58.7721 9.00121L58.5541 9.33122L58.3361 9.6979L58.1544 10.0279L58.009 10.3946L57.8637 10.7613L57.7183 11.1646L57.6093 11.568L57.5367 11.9346L57.464 12.338L57.3913 12.778V13.1813L57.355 13.6214L57.3913 14.0247V14.4647L57.464 14.8681L57.5367 15.2714L57.6093 15.6748L57.7183 16.0781L57.8637 16.4448L58.009 16.8115L58.1544 17.1781L58.3361 17.5448L58.5541 17.8748L58.7721 18.2415L58.9901 18.5349L59.2445 18.8649L59.4988 19.1582L59.7532 19.4515L60.0439 19.7082L60.3346 20.0016L60.6616 20.2216L60.9886 20.4782L61.3157 20.6616L61.6427 20.8816L62.0061 21.0649L62.3694 21.2116L62.7328 21.3583L63.1325 21.5049L63.4959 21.615L63.8956 21.6883L64.2953 21.7616L64.7313 21.835L65.131 21.8716H65.5671Z" fill="#EC1C2E"/>
<path fill-rule="evenodd" clip-rule="evenodd" d="M70.0715 8.52498H74.3956V8.08496H70.4349L70.0715 8.52498Z" fill="#FBB231"/>
<path fill-rule="evenodd" clip-rule="evenodd" d="M69.4197 9.51472H74.3978V9.07471H69.674L69.4197 9.51472Z" fill="#FBB231"/>
<path fill-rule="evenodd" clip-rule="evenodd" d="M68.9463 10.5411H74.3968V10.0645H69.128L68.9463 10.5411Z" fill="#FBB231"/>
<path fill-rule="evenodd" clip-rule="evenodd" d="M68.583 11.5314H74.3969V11.0547H68.7284L68.583 11.5314Z" fill="#FBB231"/>
<path fill-rule="evenodd" clip-rule="evenodd" d="M68.8031 16.3345H74.4352V15.8945H68.6577L68.8031 16.3345Z" fill="#FBB231"/>
<path fill-rule="evenodd" clip-rule="evenodd" d="M69.2039 17.3248H74.4363V16.8848H68.9858L69.2039 17.3248Z" fill="#FBB231"/>
<path fill-rule="evenodd" clip-rule="evenodd" d="M69.7819 18.314H74.433V17.874H69.5276L69.7819 18.314Z" fill="#FBB231"/>
<path fill-rule="evenodd" clip-rule="evenodd" d="M70.5824 19.3053H74.434V18.8652H70.219L70.5824 19.3053Z" fill="#FBB231"/>
<path fill-rule="evenodd" clip-rule="evenodd" d="M68.4043 12.5211H74.3998V12.0811H68.477L68.4043 12.5211Z" fill="#FBB231"/>
<path fill-rule="evenodd" clip-rule="evenodd" d="M72.0715 15.3453H74.3608V14.9053H72.1442L72.0715 15.3453Z" fill="#FBB231"/>
<path fill-rule="evenodd" clip-rule="evenodd" d="M72.2498 14.3551H74.3573V13.915H72.3224L72.2498 14.3551Z" fill="#FBB231"/>
<path fill-rule="evenodd" clip-rule="evenodd" d="M68.2544 13.915H68.8358V14.3551H68.2907L68.2544 13.915Z" fill="#FBB231"/>
<path fill-rule="evenodd" clip-rule="evenodd" d="M67.129 13.3642H67.0927L67.0564 13.3275H67.02H66.9837H66.9473H66.911H66.8747H66.8383L66.802 13.2908H66.7657H66.7293H66.6566H66.6203H66.5476H66.475L66.4023 13.3275H66.3296H66.2933H66.2206L66.1843 13.3642H66.1479L66.1116 13.4008L66.0753 13.4375V13.4742H66.0389V13.5108V13.5475V13.5842V13.6208V13.6575L66.0753 13.6942L66.1116 13.7308L66.1479 13.7675L66.2206 13.8409L66.2933 13.8775H66.3659L66.475 13.9142L66.5476 13.9509L66.6566 13.9875L66.7293 14.0242L66.8383 14.0609L66.911 14.1342L66.9837 14.2075L67.02 14.2809L67.0564 14.3909L67.0927 14.5009V14.6475V14.8309V14.9776L67.0564 15.0876L66.9837 15.1976L66.9473 15.2709L66.8747 15.3442L66.802 15.4176L66.7293 15.4909L66.6566 15.5276L66.5476 15.6009L66.475 15.6376H66.3659L66.2933 15.6742H66.1843L66.0753 15.7109H66.0026H65.9299H65.7846H65.6756H65.6029H65.4939H65.4212L65.3485 15.6742H65.2758H65.2032H65.1668H65.0942L65.0578 15.6376H64.9852H64.9488L64.9125 15.6009H64.8761L64.8035 15.5642L64.9488 14.9776H64.9852H65.0215L65.0942 15.0142H65.1305H65.2032L65.2395 15.0509H65.3122H65.3849H65.4575L65.5302 15.0876H65.6029H65.6756H65.7846H65.8572H65.9299H66.0026L66.0753 15.0509L66.1116 15.0142L66.1479 14.9776L66.1843 14.9409L66.2206 14.9042V14.8676V14.7942L66.2569 14.7209L66.2206 14.6475L66.1843 14.6109L66.1116 14.5742L66.0026 14.5009L65.9299 14.4642L65.8209 14.4275L65.7119 14.3909L65.6029 14.3542L65.4939 14.2809L65.3849 14.2075L65.3122 14.1342L65.2395 14.0242L65.2032 13.8775L65.1668 13.7308V13.5475V13.4375L65.2032 13.3642L65.2395 13.2542L65.2758 13.1808L65.3122 13.0708L65.3485 12.9975L65.4212 12.9242L65.4939 12.8875L65.5665 12.8142L65.6392 12.7775L65.7482 12.7408L65.8572 12.7041H65.9662L66.1116 12.6675H66.2569H66.4386H66.5476H66.6203H66.693H66.802H66.8747H66.911H66.9837H67.02L67.0564 12.7041H67.0927H67.129H67.1654H67.2017H67.238L67.2744 12.7408L67.129 13.3642Z" fill="#F5F6F8"/>
<path fill-rule="evenodd" clip-rule="evenodd" d="M67.7843 12.0444H68.5474L68.4384 12.7045H68.9107L68.8017 13.3278H68.3294L68.0387 14.8679V14.9412L68.075 14.9779L68.1113 15.0145V15.0512H68.184L68.2204 15.0879H68.293H68.3657H68.4384H68.4747H68.511H68.5837L68.6201 15.0512H68.6564L68.5474 15.5645L68.511 15.6012H68.4747V15.6379H68.4384H68.402H68.3657L68.3294 15.6746H68.293H68.2567H68.2204H68.184H68.1477H68.1113H67.8933H67.7843H67.6753H67.6026L67.5299 15.6379L67.4573 15.6012H67.4209L67.3483 15.5645L67.3119 15.5279L67.2756 15.4912V15.4179V15.3812L67.2393 15.3445V15.2712V15.1979L67.2756 15.1612V15.0879L67.7843 12.0444Z" fill="#F5F6F8"/>
<path fill-rule="evenodd" clip-rule="evenodd" d="M76.1082 12.888L76.0718 12.8513H76.0355L75.9992 12.8146H75.9265L75.8902 12.778H75.8538L75.8175 12.7413H75.7448H75.7085L75.6358 12.7046H75.5995H75.5268H75.4905L75.4178 12.668H75.3451H75.2724H75.1998L75.1271 12.7046H75.0544H74.9817L74.9091 12.7413L74.8364 12.778L74.7637 12.8146L74.6911 12.8513L74.582 12.9246L74.5457 12.998L74.473 13.0713L74.4004 13.1813L74.3277 13.2913L74.2914 13.438L74.2187 13.5847L74.1823 13.768L74.146 13.878V13.9513V14.0614V14.1714V14.2447L74.1823 14.3547V14.428L74.2187 14.5014L74.255 14.5747L74.3277 14.648L74.364 14.7214L74.4367 14.7947L74.5094 14.8314L74.6184 14.868L74.6911 14.9047L74.8001 14.9414H74.8364H74.8727H74.9454L74.9817 14.978H75.0544H75.1271H75.1634H75.2361L75.3088 14.9414H75.3815L75.4541 14.9047H75.5268L75.5995 14.868L75.6721 14.8314L75.7085 14.7947L75.7812 14.7214L75.6358 15.4914V15.5281H75.5995L75.5631 15.5647H75.5268L75.4905 15.6014H75.4541L75.4178 15.6381H75.3451L75.2724 15.6747H75.1998H75.0908H74.9817H74.8727H74.7274H74.582H74.4367L74.3277 15.6381L74.1823 15.6014L74.0733 15.5281L73.928 15.4547L73.819 15.3814L73.71 15.3081L73.601 15.1981L73.5283 15.0514L73.4556 14.9047L73.3829 14.758L73.3103 14.5747V14.3914L73.2739 14.208V13.988L73.3103 13.768L73.3466 13.658V13.548L73.3829 13.438L73.4193 13.328L73.4556 13.218L73.4919 13.1447L73.5283 13.0347L73.5646 12.9613L73.601 12.8513L73.6373 12.778L73.6736 12.7046L73.7463 12.6313L73.7826 12.558L73.8553 12.4846L73.8916 12.448L73.9643 12.3746L74.037 12.3013L74.0733 12.2646L74.146 12.228L74.2187 12.1913L74.2914 12.118L74.364 12.0813H74.4367L74.5094 12.0446L74.6184 12.008L74.6911 11.9713H74.8001L74.8727 11.9346H74.9817H75.0544L75.1634 11.8979H75.2724H75.3815L75.4541 11.9346H75.5268H75.5995H75.7085L75.7812 11.9713H75.8538L75.8902 12.008H75.9628L76.0355 12.0446H76.0718L76.1082 12.0813H76.1445H76.1809L76.2172 12.118L76.1082 12.888Z" fill="#F5F6F8"/>
<path fill-rule="evenodd" clip-rule="evenodd" d="M82.9003 15.6746H82.1008L82.1735 15.3812V15.3445L82.1372 15.4179L82.1008 15.4545L82.0282 15.4912L81.9918 15.5279L81.9192 15.5645L81.8828 15.6012L81.8465 15.6379L81.7738 15.6746H81.7375L81.6648 15.7112H81.6285H81.5558H81.5195L81.4831 15.7479H81.4105H81.3378L81.2288 15.7112L81.0834 15.6746L80.9744 15.6379L80.8654 15.5645L80.7564 15.4912L80.6474 15.4179L80.5747 15.3079L80.502 15.1979L80.4657 15.0512L80.4294 14.9412L80.393 14.7945L80.3567 14.6479V14.5012V14.3545V14.2078L80.393 14.0978L80.4294 13.9145L80.502 13.7678L80.5384 13.6212L80.611 13.4745L80.6837 13.3645L80.7564 13.2545L80.8654 13.1445L80.9381 13.0711L81.0471 12.9611L81.1561 12.9245L81.2651 12.8511L81.3378 12.8145L81.4831 12.7411H81.5921L81.7011 12.7045H81.8102H81.8828L81.9555 12.7411H82.0282H82.1008L82.1735 12.7778L82.2099 12.8145L82.2825 12.8511H82.3189L82.3552 12.8878L82.3915 12.9245L82.4279 12.9611L82.4642 12.9978L82.5006 13.0345L82.5369 13.0711V13.1078L82.5732 13.1445L82.7549 12.0444H83.518L82.9003 15.6746Z" fill="#F5F6F8"/>
<path fill-rule="evenodd" clip-rule="evenodd" d="M81.6285 15.0153H81.7011H81.7738L81.8465 14.9786L81.9192 14.942L81.9555 14.9053L82.0282 14.8686L82.0645 14.8319L82.1372 14.7586L82.1735 14.7219L82.2099 14.6486L82.2462 14.6119L82.2825 14.5386V14.4653L82.3189 14.3919L82.3552 14.3186V14.2453V14.1719L82.3915 14.0619V13.9886L82.3552 13.9153V13.8419V13.7686L82.3189 13.7319V13.6586L82.2825 13.5852L82.2462 13.5486L82.2099 13.5119L82.1735 13.4752L82.1372 13.4386L82.0645 13.4019H82.0282L81.9555 13.3652L81.8828 13.4019H81.8101L81.7738 13.4386H81.7011L81.6285 13.4752L81.5921 13.5486L81.5558 13.5852L81.4831 13.6219L81.4468 13.6952L81.4104 13.7686L81.3741 13.8052L81.3378 13.8786L81.3014 13.9519V14.0619L81.2651 14.1353V14.2086L81.2288 14.3186L81.2651 14.4653V14.6119L81.3014 14.7219L81.3741 14.8319L81.4468 14.942L81.5195 15.0153H81.6285Z" fill="#FBB231"/>
<path fill-rule="evenodd" clip-rule="evenodd" d="M64.6942 15.0876L64.5852 15.6742H63.8948V15.5642L63.9312 15.4909V15.3809V15.3442L63.8948 15.4176L63.8585 15.4542L63.8222 15.4909L63.7495 15.5276L63.6768 15.5642L63.6041 15.6009L63.5315 15.6376L63.4588 15.6742H63.3861L63.3134 15.7109H63.2408L63.1318 15.7476H63.0591H62.9864H62.9137L62.8411 15.7109H62.7321L62.6594 15.6742L62.5867 15.6376L62.514 15.6009L62.4414 15.5276L62.405 15.4909L62.3324 15.4542L62.296 15.3809L62.2597 15.3442V15.2709L62.2234 15.1976V15.1609L62.187 15.0876V15.0142V14.9409V14.9042V14.7942L62.2234 14.6842V14.5742L62.2597 14.5009L62.296 14.3909L62.3687 14.3175L62.405 14.2442L62.4777 14.1709L62.5504 14.0975L62.623 14.0609L62.6957 13.9875L62.8047 13.9509L62.8774 13.9142L62.9864 13.8775L63.0591 13.8409H63.1681H63.2044H63.2408H63.2771H63.3134L63.3498 13.8042H63.3861H63.4588H63.4951H63.5315H63.5678H63.6405H63.6768L63.7131 13.7675H63.7495H63.7858L63.8585 13.8042H63.9312H64.0038H64.0402H64.0765H64.1128V13.7675L64.1492 13.7308V13.6575V13.6208V13.5475L64.1128 13.5108L64.0765 13.4375L64.0402 13.4008L64.0038 13.3642H63.9312L63.8585 13.3275H63.7858H63.7131H63.6405H63.5315H63.4588H63.3498H63.2771H63.2044L63.0954 13.3642H63.0228H62.9501L62.8774 13.4008H62.8047L62.7321 13.4375H62.6957L62.6594 13.4742H62.623L62.8047 12.8142L62.8774 12.7775H62.9501L63.0228 12.7408H63.0591L63.1318 12.7041H63.2044H63.2771H63.3498L63.4225 12.6675H63.5315H63.6041H63.6768H63.7858H63.8585H63.9675H64.0402L64.1492 12.7041H64.2219H64.2945L64.4035 12.7408L64.4762 12.7775L64.5489 12.8142L64.6579 12.8508L64.7306 12.9242L64.8032 12.9608L64.8396 13.0342L64.9123 13.1075L64.9486 13.2175L64.9849 13.2908V13.4008V13.5108V13.6208L64.6942 15.0876Z" fill="#F5F6F8"/>
<path fill-rule="evenodd" clip-rule="evenodd" d="M64.0413 14.3546V14.3179H64.005H63.9687H63.9323L63.896 14.2812H63.8597H63.8233L63.787 14.3179H63.7507H63.678H63.6416H63.6053H63.569L63.5326 14.3546H63.4963H63.46L63.4236 14.3913H63.3873H63.351L63.3146 14.4279H63.2783L63.2419 14.4646L63.2056 14.5013L63.1693 14.5379H63.1329L63.0966 14.5746V14.6113L63.0603 14.6479V14.7213V14.7579L63.0239 14.8313L63.0603 14.9046L63.0966 14.9779L63.1329 15.0146L63.1693 15.0513H63.2056L63.2419 15.0879H63.2783H63.3873L63.46 15.0513H63.5326H63.569L63.6416 15.0146L63.678 14.9779H63.7507L63.787 14.9413L63.8233 14.9046L63.8597 14.8679L63.896 14.8313V14.7946H63.9323V14.7579V14.7213L63.9687 14.6846V14.6113L64.005 14.5013V14.4279L64.0413 14.3546Z" fill="#EC1C2E"/>
<path fill-rule="evenodd" clip-rule="evenodd" d="M58.8835 15.6746H58.1567L58.7745 12.0444H60.0826L60.1916 14.2078L61.1 12.0444H62.4808L61.8267 15.6746H61.0637L61.5361 12.9611H61.4997L60.4096 15.6746H59.5375V15.5645V15.2712L59.5012 14.8312L59.4649 14.3545L59.4285 13.8412V13.4011L59.3922 13.1078V12.9611H59.3558L58.8835 15.6746Z" fill="#F5F6F8"/>
<path fill-rule="evenodd" clip-rule="evenodd" d="M78.3974 15.0876L78.2884 15.6742H77.598V15.5642V15.4909V15.4176V15.3809L77.5616 15.4176L77.5253 15.4542L77.4526 15.4909L77.4163 15.5276L77.3436 15.5642L77.3073 15.6009L77.2346 15.6376L77.1619 15.6742H77.0893L77.0166 15.7109H76.9076L76.8349 15.7476H76.7622H76.6896H76.6169L76.5442 15.7109H76.4352L76.3625 15.6742L76.2898 15.6376L76.2172 15.6009L76.1445 15.5276L76.0718 15.4909L76.0355 15.4542L75.9991 15.3809L75.9628 15.3442V15.2709L75.9265 15.1976V15.1609L75.8901 15.0876V15.0142V14.9409V14.9042V14.7942L75.9265 14.6842V14.5742L75.9628 14.5009L75.9991 14.3909L76.0718 14.3175L76.1082 14.2442L76.1808 14.1709L76.2535 14.0975L76.3262 14.0609L76.3989 13.9875L76.5079 13.9509L76.5805 13.9142L76.6896 13.8775L76.7622 13.8409H76.8712H76.9076H76.9439H77.0166L77.0529 13.8042H77.0893H77.1256H77.1983H77.2346H77.2709H77.3073H77.3436L77.3799 13.7675H77.4163H77.489L77.5616 13.8042H77.6343H77.6706H77.7433H77.7797H77.816V13.7675V13.7308L77.8523 13.6575V13.6208L77.816 13.5475V13.5108L77.7797 13.4375L77.7433 13.4008L77.6706 13.3642H77.6343L77.5616 13.3275H77.489H77.4163H77.3436H77.2709H77.1619H77.0893H76.9802H76.9076L76.7986 13.3642H76.7259H76.6532L76.5805 13.4008H76.5079L76.4352 13.4375H76.3989L76.3625 13.4742H76.3262L76.5079 12.8142L76.5805 12.7775H76.6532L76.7259 12.7408H76.7622L76.8349 12.7041H76.9076H76.9802H77.0529L77.1256 12.6675H77.2346H77.3073H77.3799H77.489H77.5616H77.6706H77.7433L77.816 12.7041H77.925H77.9977L78.0703 12.7408L78.1794 12.7775L78.252 12.8142L78.3247 12.8508L78.3974 12.9242L78.4701 12.9608L78.5427 13.0342L78.6154 13.1075L78.6517 13.2175L78.6881 13.2908V13.4008V13.5108V13.6208L78.3974 15.0876Z" fill="#F5F6F8"/>
<path fill-rule="evenodd" clip-rule="evenodd" d="M78.2831 15.7122L78.3921 15.0889H78.3558L78.2468 15.6756H78.2831V15.7122Z" fill="#F5F6F8"/>
<path fill-rule="evenodd" clip-rule="evenodd" d="M77.5574 15.6748L77.5937 15.7115H78.2841V15.6748H77.5937H77.5574V15.7115H77.5937L77.5574 15.6748Z" fill="#F5F6F8"/>
<path fill-rule="evenodd" clip-rule="evenodd" d="M77.594 15.3814V15.3447L77.5574 15.4181V15.4914V15.5647V15.6747H77.594V15.5647V15.4914V15.4181V15.3814V15.3447V15.3814Z" fill="#F5F6F8"/>
<path fill-rule="evenodd" clip-rule="evenodd" d="M76.5376 15.7481H76.6103H76.6829H76.7556H76.8283H76.901L77.01 15.7114H77.0826L77.1553 15.6747L77.228 15.6381L77.3007 15.6014H77.3733L77.4097 15.5281L77.4824 15.4914L77.5187 15.4547L77.555 15.4181L77.5914 15.3814V15.3447L77.555 15.4181L77.5187 15.4547L77.446 15.4914L77.4097 15.5281L77.337 15.5647L77.2643 15.6014H77.1917L77.1553 15.6381L77.0826 15.6747H76.9736L76.901 15.7114H76.8283H76.7556H76.6829H76.6103H76.5376V15.7481Z" fill="#F5F6F8"/>
<path fill-rule="evenodd" clip-rule="evenodd" d="M75.8506 14.9053V14.9419L75.8869 15.0153V15.0886V15.1619L75.9233 15.1986V15.272L75.9596 15.3453L75.9959 15.382L76.0323 15.4553L76.0686 15.492L76.1413 15.5653L76.1776 15.602L76.2503 15.6386L76.3593 15.6753L76.432 15.712L76.541 15.7486V15.712L76.432 15.6753L76.3593 15.6386L76.2866 15.602L76.214 15.5653L76.1413 15.5286L76.1049 15.492L76.0686 15.4186L76.0323 15.382L75.9959 15.3086L75.9596 15.272L75.9233 15.1986V15.1253V15.0886V15.0153L75.8869 14.9419V14.9053H75.8506Z" fill="#F5F6F8"/>
<path fill-rule="evenodd" clip-rule="evenodd" d="M76.868 13.8418H76.759L76.65 13.8785L76.5773 13.9151L76.4683 13.9518L76.3956 13.9885L76.323 14.0251L76.2503 14.0985L76.1776 14.1718L76.1049 14.2451L76.0323 14.3185L75.9959 14.3918L75.9596 14.5018L75.9233 14.5752L75.8869 14.6852V14.7952L75.8506 14.9052H75.8869L75.9233 14.7952V14.6852L75.9596 14.5752L75.9959 14.5018L76.0323 14.3918L76.0686 14.3185L76.1413 14.2451L76.1776 14.1718L76.2503 14.1351L76.323 14.0618L76.432 14.0251L76.5046 13.9518L76.5773 13.9151H76.6863L76.759 13.8785L76.868 13.8418Z" fill="#F5F6F8"/>
<path fill-rule="evenodd" clip-rule="evenodd" d="M77.4132 13.7686H77.3769H77.3405H77.3042H77.2679H77.2315H77.1952L77.1225 13.8052H77.0862H77.0498H77.0135H76.9408H76.9045H76.8682V13.8419H76.9045H76.9408H77.0135H77.0498H77.0862H77.1225L77.1952 13.8052H77.2315H77.2679H77.3042H77.3405H77.3769H77.4132V13.7686Z" fill="#F5F6F8"/>
<path fill-rule="evenodd" clip-rule="evenodd" d="M77.8116 13.8052V13.7686H77.7753H77.739H77.6663H77.63H77.5574H77.4847H77.4121V13.8052H77.4847H77.5574H77.63H77.6663H77.739H77.7753H77.8116Z" fill="#F5F6F8"/>
<path fill-rule="evenodd" clip-rule="evenodd" d="M77.8108 13.6211V13.6579V13.7315V13.7683V13.8051L77.8476 13.7683V13.7315V13.6579V13.6211H77.8108Z" fill="#F5F6F8"/>
<path fill-rule="evenodd" clip-rule="evenodd" d="M77.4827 13.3282L77.5553 13.3648H77.6279L77.6642 13.4015L77.7006 13.4382L77.7369 13.4748L77.7732 13.5115L77.8095 13.5482V13.6215H77.8458V13.5482L77.8095 13.5115L77.7732 13.4382L77.7369 13.4015L77.7006 13.3648L77.6279 13.3282H77.5553L77.4827 13.2915V13.3282Z" fill="#F5F6F8"/>
<path fill-rule="evenodd" clip-rule="evenodd" d="M76.3264 13.4748V13.5115L76.3627 13.4748H76.3991L76.4718 13.4382H76.5081L76.5808 13.4015H76.6534H76.7261L76.7988 13.3648H76.9078H76.9805L77.0895 13.3282H77.1622H77.2712H77.3438H77.4165H77.4892L77.4165 13.2915H77.3438H77.2712H77.1622L77.0895 13.3282H76.9805H76.9078H76.7988L76.7261 13.3648H76.6534H76.5808L76.5081 13.4015H76.4354L76.3991 13.4382H76.3627L76.3264 13.4748H76.3627H76.3264Z" fill="#F5F6F8"/>
<path fill-rule="evenodd" clip-rule="evenodd" d="M76.508 12.7783V12.815L76.3264 13.475H76.3627L76.5443 12.815L76.508 12.7783V12.815V12.7783Z" fill="#F5F6F8"/>
<path fill-rule="evenodd" clip-rule="evenodd" d="M77.7401 12.6675H77.6674H77.5584H77.4857H77.3767H77.304H77.2314H77.1224H77.0497H76.977L76.9043 12.7041H76.8317H76.759L76.7227 12.7408H76.65L76.5773 12.7775H76.5046L76.541 12.8142H76.5773L76.65 12.7775L76.7227 12.7408H76.7953H76.8317L76.9043 12.7041H76.977H77.0497H77.1224H77.2314H77.304H77.3767H77.4857H77.5584H77.6674H77.7401V12.6675Z" fill="#F5F6F8"/>
<path fill-rule="evenodd" clip-rule="evenodd" d="M78.685 13.6208L78.7213 13.5108V13.4008L78.685 13.2908L78.6487 13.1808L78.6123 13.1075L78.5396 13.0342L78.5033 12.9608L78.4306 12.8875L78.358 12.8508L78.249 12.8142L78.1763 12.7775L78.0673 12.7408L77.9946 12.7041L77.9219 12.6675H77.8129H77.7402V12.7041H77.8129H77.8856L77.9946 12.7408L78.0673 12.7775H78.1399L78.249 12.8508L78.3216 12.8875L78.3943 12.9242L78.467 12.9975L78.5396 13.0708L78.576 13.1442L78.6123 13.2175L78.6487 13.2908L78.685 13.4008V13.5108L78.6487 13.5842L78.685 13.6208Z" fill="#F5F6F8"/>
<path fill-rule="evenodd" clip-rule="evenodd" d="M78.3998 15.0879L78.6904 13.6211L78.6541 13.5845L78.3635 15.0879H78.3998Z" fill="#F5F6F8"/>
<path fill-rule="evenodd" clip-rule="evenodd" d="M77.7072 14.3546V14.3179H77.6709L77.6345 14.2812H77.5982H77.5619H77.5255L77.4528 14.3179H77.4165H77.3802H77.3438H77.3075H77.2712L77.2348 14.3546H77.1985H77.1622H77.1258L77.0895 14.3913H77.0531L77.0168 14.4279H76.9805L76.9441 14.4646H76.9078L76.8715 14.5013L76.8351 14.5379V14.5746L76.7988 14.6113L76.7625 14.6479V14.7213V14.7579V14.8313V14.9046L76.7988 14.9779V15.0146L76.8715 15.0513H76.9078L76.9441 15.0879H76.9805H77.0895L77.1622 15.0513H77.2348L77.3075 15.0146H77.3438L77.4165 14.9779L77.4528 14.9413L77.4892 14.9046H77.5255L77.5619 14.8679L77.5982 14.8313L77.6345 14.7946V14.7579L77.6709 14.7213V14.6846V14.6479L77.7072 14.5746V14.5013V14.4279V14.3546Z" fill="#FBB231"/>
<path fill-rule="evenodd" clip-rule="evenodd" d="M83.4092 15.3086V15.2352V15.1619L83.4818 15.0886L83.5182 15.0519L83.5545 15.0152L83.6272 14.9786L83.6999 14.9419H83.7725H83.8452L83.9179 14.9786L83.9906 15.0152L84.0632 15.0519L84.0996 15.0886L84.1359 15.1619L84.1723 15.2352V15.3086H84.0996V15.2719L84.0632 15.1986L84.0269 15.1619L83.9906 15.0886L83.9542 15.0519L83.9179 15.0152H83.8452H83.7725H83.7362H83.6635L83.5909 15.0519L83.5545 15.0886L83.5182 15.1619V15.1986L83.4818 15.2719V15.3086H83.4092Z" fill="#F5F6F8"/>
<path fill-rule="evenodd" clip-rule="evenodd" d="M83.6646 15.3083V15.1616H83.8098H83.8461H83.8825H83.9188V15.1983V15.235H83.9551L83.9188 15.2716V15.3083H83.8098H83.8461L83.8825 15.2716V15.235V15.1983H83.8461H83.8098H83.7009V15.3083H83.6646Z" fill="#F5F6F8"/>
<path fill-rule="evenodd" clip-rule="evenodd" d="M83.4092 15.3081V15.3448V15.4181V15.4914L83.4818 15.5648L83.5182 15.6014L83.5545 15.6381L83.6272 15.6748L83.6999 15.7115H83.7725H83.8452L83.9179 15.6748L83.9906 15.6381L84.0632 15.6014L84.0996 15.5648L84.1359 15.4914L84.1723 15.4181V15.3448V15.3081H84.0996V15.3448V15.3814L84.0632 15.4548L84.0269 15.4914L83.9906 15.5648L83.9542 15.6014L83.9179 15.6381H83.8452H83.7725H83.7362H83.6635L83.5909 15.6014L83.5545 15.5648L83.5182 15.4914V15.4548L83.4818 15.3814V15.3448V15.3081H83.4092Z" fill="#F5F6F8"/>
<path fill-rule="evenodd" clip-rule="evenodd" d="M83.6646 15.3081V15.4921H83.701V15.3449H83.7739L83.8832 15.4921H83.9197L83.8468 15.3449H83.8832L83.9197 15.3081H83.8104H83.7739H83.701H83.6646Z" fill="#F5F6F8"/>
<path fill-rule="evenodd" clip-rule="evenodd" d="M78.5771 15.6742H79.3766L79.6309 14.0975L79.6672 14.0609V13.9875L79.7036 13.9142V13.8775L79.7399 13.8042L79.7763 13.7308L79.8126 13.6942L79.8489 13.6208L79.9216 13.5842L79.9579 13.5475L80.0306 13.5108L80.1033 13.4742L80.176 13.4375L80.2486 13.4008H80.3576H80.4667H80.503H80.5393L80.6483 12.6675L80.5757 12.7041H80.503H80.4303L80.3576 12.7408H80.3213L80.2486 12.7775L80.2123 12.8142L80.1396 12.8508L80.1033 12.8875L80.067 12.9242L79.9943 12.9608L79.9579 12.9975L79.9216 13.0708L79.8853 13.1075L79.8489 13.1442L79.8126 13.2175L79.8853 12.7041H79.1222L78.5771 15.6742Z" fill="#F5F6F8"/>
<path fill-rule="evenodd" clip-rule="evenodd" d="M71.2695 15.6742H72.0689L72.3233 14.0975L72.3596 14.0609V13.9875L72.396 13.9142V13.8775L72.4323 13.8042V13.7675L72.4686 13.7308L72.505 13.6575L72.5777 13.6208L72.614 13.5842L72.6867 13.5475L72.723 13.5108H72.832L72.9047 13.4742H73.0137L73.1227 13.4375V13.4742H73.159H73.1954V13.4375V13.3642L73.2317 13.3275V13.2542L73.2681 13.1442L73.3044 13.0708V12.9975L73.3407 12.9608L73.3771 12.8875V12.8508L73.4134 12.8142L73.4497 12.7408L73.4861 12.7041H73.4497H73.4134L73.3771 12.6675H73.3407L73.2681 12.7041H73.1954H73.1227L73.05 12.7408H72.9774L72.941 12.7775L72.8684 12.8142L72.832 12.8508L72.7957 12.8875L72.723 12.9242L72.6867 12.9608L72.6503 12.9975L72.614 13.0342L72.5777 13.1075L72.5413 13.1442L72.505 13.2175L72.5777 12.7041H71.8146L71.2695 15.6742Z" fill="#F5F6F8"/>
<path fill-rule="evenodd" clip-rule="evenodd" d="M83.4092 18.6083V18.5349L83.4818 18.4616L83.5182 18.4249L83.5545 18.3883L83.6272 18.3516L83.6999 18.3149H83.7725H83.8452L83.9179 18.3516L83.9906 18.3883L84.0632 18.4249L84.0996 18.4616L84.1359 18.5349L84.1723 18.6083H84.0996L84.0632 18.5716L84.0269 18.4983L83.9906 18.4616L83.9542 18.4249L83.9179 18.3883H83.8452L83.7725 18.3516L83.7362 18.3883H83.6635L83.5909 18.4249L83.5545 18.4616L83.5182 18.4983V18.5716L83.4818 18.6083H83.4092Z" fill="#FBB231"/>
<path fill-rule="evenodd" clip-rule="evenodd" d="M83.6646 18.609V18.5356H83.8098H83.8461H83.8825H83.9188V18.5723V18.609H83.9551H83.8825V18.5723H83.8461H83.8098H83.7009V18.609H83.6646Z" fill="#FBB231"/>
<path fill-rule="evenodd" clip-rule="evenodd" d="M83.4092 18.683V18.6089H83.4826V18.683H83.4092Z" fill="#FBB231"/>
<path fill-rule="evenodd" clip-rule="evenodd" d="M83.6646 18.6822V18.6089H83.7009V18.6822H83.7735H83.8098H83.8461V18.6456H83.8825V18.6089H83.9551L83.9188 18.6456V18.6822H83.6646Z" fill="#FBB231"/>
<path fill-rule="evenodd" clip-rule="evenodd" d="M84.0962 18.683V18.6089H84.1696V18.683H84.0962Z" fill="#FBB231"/>
<path fill-rule="evenodd" clip-rule="evenodd" d="M83.4092 18.6812V18.7545V18.8278L83.4818 18.9012L83.5182 18.9745L83.5545 19.0112L83.6272 19.0478L83.6999 19.0845H83.7725H83.8452L83.9179 19.0478L83.9906 19.0112L84.0632 18.9745L84.0996 18.9012L84.1359 18.8278L84.1723 18.7545V18.6812H84.0996V18.7545L84.0632 18.8278L84.0269 18.8645L83.9906 18.9012L83.9542 18.9745H83.9179L83.8452 19.0112H83.7725H83.7362L83.6635 18.9745H83.5909L83.5545 18.9012L83.5182 18.8645V18.8278L83.4818 18.7545V18.6812H83.4092Z" fill="#FBB231"/>
<path fill-rule="evenodd" clip-rule="evenodd" d="M83.6646 18.6812V18.8284H83.701V18.718H83.7739L83.8832 18.8284H83.9197L83.8468 18.718L83.8832 18.6812H83.9197H83.6646Z" fill="#FBB231"/>
<path fill-rule="evenodd" clip-rule="evenodd" d="M71.3787 13.5847L71.3424 13.4014L71.3061 13.2547L71.2334 13.1447L71.1607 13.0347L71.088 12.9247L71.0154 12.8514L70.9064 12.778L70.7973 12.7414L70.6883 12.7047L70.5793 12.668L70.4703 12.6313H70.3613H70.2523H70.0343L69.8526 12.668L69.6709 12.7047L69.5256 12.778L69.3802 12.8514L69.2712 12.9614L69.1622 13.0714L69.0895 13.1814L69.0169 13.2914L68.9442 13.4014L68.9078 13.5114L68.8715 13.6214L68.8352 13.7314L68.7988 13.8414V13.9514V14.0247V14.2447V14.4647L68.8352 14.6481L68.8715 14.7948L68.9442 14.9414L69.0169 15.0514L69.1259 15.1614L69.2349 15.2714L69.3439 15.3448L69.4529 15.4181L69.5982 15.4548L69.7436 15.4914L69.8889 15.5281L70.0343 15.5648H70.1796H70.325H70.434H70.5067H70.5793H70.652H70.7247H70.7973H70.87H70.9064H70.9427H70.979H71.0154H71.0517H71.088H71.1244L71.1607 15.5281L71.1971 15.4914L71.3061 14.7948L71.2334 14.8314L71.1607 14.8681L71.088 14.9048L71.0154 14.9414L70.9427 14.9781H70.87H70.7973H70.7247H70.652H70.5793H70.5067H70.434H70.3613H70.2886H70.216H70.1433H70.0706L69.9979 14.9414L69.9253 14.9048L69.8889 14.8681L69.8526 14.8314L69.8163 14.7948L69.7799 14.7581L69.7436 14.7214L69.7072 14.6847L69.6709 14.6481L69.6346 14.6114L69.5982 14.5747V14.5381V14.5014V14.4647V14.4281H71.3787V14.2447L71.4151 14.0247L71.4514 13.8047L71.3787 13.5847ZM70.6157 13.8414H69.5982V13.8047V13.7314V13.658L69.6346 13.5847L69.6709 13.548L69.7072 13.5114L69.7436 13.4747L69.7799 13.438L69.8163 13.4014L69.8526 13.3647L69.8889 13.328L69.9253 13.2914L69.9616 13.2547H69.9979H70.0343H70.0706H70.107H70.1433H70.1796H70.216H70.2523L70.2886 13.2914L70.325 13.328L70.3613 13.3647L70.3976 13.4014L70.434 13.438L70.4703 13.4747L70.5067 13.5114L70.543 13.548V13.6214V13.6947V13.7681L70.6157 13.8414Z" fill="#F5F6F8"/>
<rect x="0.44873" y="0.996094" width="43.774" height="25" rx="5" fill="#F5F6F8"/>
<path d="M19.8368 18.8824H17.1448L18.8218 8.66943H21.5579L19.8368 18.8824Z" fill="#0066B2"/>
<path d="M14.8515 8.66895L12.2918 15.6795L11.9829 14.1649L11.0561 9.57772C11.0561 9.57772 10.9679 8.66895 9.77632 8.66895H5.49555L5.45142 8.84205C5.45142 8.84205 6.77536 9.1017 8.27584 10.0105L10.6589 18.8819H13.4834L17.7641 8.66895H14.8515Z" fill="#0066B2"/>
<path d="M36.1233 18.8816H38.5946L36.4322 8.71191H34.2697C33.2547 8.71191 33.034 9.49087 33.034 9.49087L29.0181 18.8816H31.8425L32.4162 17.367H35.8585L36.1233 18.8816ZM33.1664 15.2465L34.5787 11.4383L35.373 15.2465H33.1664Z" fill="#0066B2"/>
<path d="M29.1965 11.1359L29.5937 8.92885C29.5937 8.92885 28.4021 8.49609 27.1664 8.49609C25.8425 8.49609 22.6209 9.05867 22.6209 11.8716C22.6209 14.5113 26.3721 14.5546 26.3721 15.8962C26.3721 17.281 23.0181 17.0213 21.9148 16.1558L21.5176 18.4494C21.5176 18.4494 22.7091 19.012 24.5627 19.012C26.4162 19.012 29.1965 18.0599 29.1965 15.5067C29.1965 12.8669 25.4012 12.6072 25.4012 11.4821C25.4453 10.3569 28.0491 10.53 29.1965 11.1359Z" fill="#0066B2"/>
<path d="M11.9829 14.1654L11.0561 9.57821C11.0561 9.57821 10.9679 8.66943 9.77632 8.66943H5.49555L5.45142 8.84253C5.45142 8.84253 7.48147 9.27529 9.4674 10.8332C11.3651 12.3046 11.9829 14.1654 11.9829 14.1654Z" fill="#F9A533"/>
<defs>
<linearGradient id="paint0_linear_332_2937" x1="175.314" y1="10.8241" x2="184.925" y2="10.8241" gradientUnits="userSpaceOnUse">
<stop stop-color="#00A0E5"/>
<stop offset="1" stop-color="#0077C3"/>
</linearGradient>
</defs>
</svg>
