<svg width="40" height="40" viewBox="0 0 40 40" fill="none" xmlns="http://www.w3.org/2000/svg">
<rect width="40" height="40" rx="20" fill="url(#paint0_linear_306_1875)" fill-opacity="0.15"/>
<path d="M19.1315 20.4198C17.9615 19.2498 17.0795 17.9398 16.4935 16.6108C16.3695 16.3298 16.4425 16.0008 16.6595 15.7838L17.4785 14.9658C18.1495 14.2948 18.1495 13.3458 17.5635 12.7598L16.3895 11.5857C15.6085 10.8047 14.3425 10.8047 13.5615 11.5857L12.9095 12.2377C12.1685 12.9787 11.8595 14.0477 12.0595 15.1077C12.5535 17.7207 14.0715 20.5818 16.5205 23.0308C18.9695 25.4797 21.8305 26.9977 24.4435 27.4917C25.5035 27.6917 26.5725 27.3827 27.3135 26.6417L27.9645 25.9908C28.7455 25.2098 28.7455 23.9438 27.9645 23.1628L26.7915 21.9897C26.2055 21.4037 25.2555 21.4037 24.6705 21.9897L23.7675 22.8938C23.5505 23.1108 23.2215 23.1838 22.9405 23.0598C21.6115 22.4728 20.3015 21.5898 19.1315 20.4198Z" fill="black"/>
<defs>
<linearGradient id="paint0_linear_306_1875" x1="9.14179" y1="2.92682" x2="42.7811" y2="6.1876" gradientUnits="userSpaceOnUse">
<stop stop-color="#AAD7EA"/>
<stop offset="1" stop-color="#698C9B"/>
</linearGradient>
</defs>
</svg>
