<svg width="236" height="566" viewBox="0 0 236 566" fill="none" xmlns="http://www.w3.org/2000/svg">
<g opacity="0.05">
<mask id="mask0_332_6119" style="mask-type:alpha" maskUnits="userSpaceOnUse" x="0" y="0" width="236" height="566">
<rect width="565.041" height="236" transform="matrix(-4.37114e-08 1 1 4.37114e-08 0 0.277344)" fill="white"/>
</mask>
<g mask="url(#mask0_332_6119)">
<path d="M-8.59848 66.3997C-1.64646 71.3116 -0.0317941 80.9307 -4.99785 87.8409C-9.9639 94.751 -19.6616 96.3774 -26.6127 91.4662C-33.5656 86.5536 -35.1821 76.9332 -30.2161 70.0231C-25.25 63.1129 -15.5514 61.4872 -8.59848 66.3997ZM-21.5971 84.487C-18.5168 86.6634 -14.2186 85.9419 -12.0185 82.8804C-9.81775 79.8181 -10.5344 75.5561 -13.6147 73.3797C-16.6969 71.202 -20.9928 71.9224 -23.1936 74.9848C-25.3937 78.0462 -24.6793 82.3094 -21.5971 84.487Z" fill="white"/>
<path d="M-57.5059 54.1785L-63.3568 46.1675L-58.7399 40.6017L-49.6891 44.7534C-48.2174 43.384 -46.644 42.0987 -44.974 40.9045L-47.4051 31.1842L-41.0201 27.7521L-34.1663 35.0915C-32.0489 34.281 -29.9033 33.6322 -27.7424 33.1346L-26.1578 23.3548L-18.9371 22.6524L-15.509 31.9482C-13.4723 32.0138 -11.448 32.2084 -9.44762 32.5292L-4.26321 24.0436L2.68876 26.0898L2.33132 35.9966C4.3696 36.8939 6.35017 37.934 8.25133 39.1111L16.3429 33.2872L21.939 37.8569L17.7336 46.8451C19.1091 48.3044 20.4034 49.8617 21.6029 51.5167L31.3999 49.0829L34.8473 55.4105L27.4317 62.2306C28.2431 64.3271 28.8955 66.4572 29.3903 68.6002L39.2424 70.1472L39.934 77.3151L30.556 80.7351C30.4848 82.7577 30.2848 84.7663 29.9577 86.7526L38.4973 91.8772L36.4176 98.7792L26.4343 98.4495C25.5265 100.473 24.4746 102.442 23.2824 104.331L29.1289 112.344L24.5117 117.908L15.4649 113.757C13.9892 115.126 12.4176 116.412 10.747 117.608L13.1784 127.325L6.79314 130.76L-0.0625173 123.419C-2.17841 124.229 -4.32349 124.881 -6.48526 125.378L-8.06983 135.158L-15.2928 135.862L-18.7196 126.564C-20.7551 126.501 -22.7797 126.305 -24.7813 125.986L-29.9642 134.471L-36.9155 132.424L-36.5574 122.516C-38.5955 121.62 -40.576 120.58 -42.4781 119.402L-50.569 125.225L-56.1651 120.656L-51.959 111.667C-53.3354 110.207 -54.6288 108.65 -55.8287 106.997L-65.6276 109.43L-69.073 103.1L-61.6585 96.283C-62.4717 94.1852 -63.1207 92.0561 -63.6169 89.9094L-73.4688 88.364L-74.1617 81.1979L-64.785 77.7742C-64.7152 75.7534 -64.5145 73.7439 -64.1832 71.7592L-72.7245 66.6333L-70.6458 59.7306L-60.6628 60.0628C-59.751 58.0359 -58.6991 56.0701 -57.5059 54.1785ZM-38.4381 108.929C-21.9499 120.579 0.96292 116.735 12.7403 100.347C24.5183 83.9587 20.7012 61.2294 4.21393 49.5806C-12.2733 37.9318 -35.1889 41.7735 -46.9669 58.1622C-58.7443 74.55 -54.9254 97.2806 -38.4381 108.929Z" fill="white"/>
<path d="M-3.33515 448.59C0.848462 451.546 1.82056 457.335 -1.16749 461.493C-4.15682 465.653 -9.99295 466.63 -14.1757 463.675C-18.3602 460.718 -19.3329 454.93 -16.3436 450.77C-13.3555 446.612 -7.51967 445.633 -3.33515 448.59ZM-11.1574 459.475C-9.3045 460.784 -6.71674 460.35 -5.39265 458.508C-4.06792 456.664 -4.50122 454.1 -6.35408 452.791C-8.20874 451.481 -10.7934 451.914 -12.1175 453.756C-13.4416 455.599 -13.012 458.164 -11.1574 459.475Z" fill="white"/>
<path d="M-32.7629 441.224L-36.2838 436.403L-33.5048 433.053L-28.0581 435.551C-27.1723 434.728 -26.2264 433.954 -25.2204 433.234L-26.6828 427.385L-22.8395 425.32L-18.7159 429.737C-17.4409 429.249 -16.151 428.859 -14.8497 428.559L-13.8957 422.673L-9.55092 422.251L-7.48771 427.843C-6.26089 427.884 -5.04353 428 -3.84001 428.194L-0.720557 423.088L3.46365 424.319L3.2478 430.28C4.47466 430.819 5.66619 431.445 6.81072 432.155L11.6798 428.651L15.0472 431.4L12.5159 436.809C13.3437 437.687 14.1228 438.625 14.8447 439.62L20.7406 438.156L22.8149 441.963L18.352 446.067C18.84 447.329 19.2328 448.611 19.5314 449.901L25.4604 450.831L25.8765 455.146L20.2322 457.204C20.1894 458.422 20.0692 459.629 19.8716 460.825L25.0103 463.909L23.7576 468.062L17.7497 467.863C17.2026 469.081 16.5705 470.266 15.8524 471.404L19.3717 476.225L16.5933 479.573L11.1491 477.076C10.2617 477.9 9.31524 478.674 8.3099 479.393L9.77291 485.241L5.93141 487.308L1.80604 482.89C0.532491 483.377 -0.757784 483.77 -2.05927 484.069L-3.01327 489.954L-7.35962 490.377L-9.42155 484.782C-10.6472 484.744 -11.8648 484.626 -13.0705 484.434L-16.1891 489.54L-20.3727 488.308L-20.1562 482.346C-21.3824 481.806 -22.5739 481.181 -23.7197 480.472L-28.5882 483.975L-31.9555 481.226L-29.4243 475.817C-30.253 474.938 -31.0312 474.001 -31.7528 473.007L-37.6496 474.471L-39.7235 470.662L-35.2619 466.559C-35.7508 465.297 -36.1427 464.015 -36.4407 462.724L-42.3688 461.795L-42.7861 457.482L-37.143 455.422C-37.1005 454.207 -36.98 452.997 -36.7806 451.802L-41.9211 448.717L-40.6694 444.563L-34.662 444.763C-34.1141 443.545 -33.4808 442.363 -32.7629 441.224ZM-21.2894 474.17C-11.3672 481.18 2.42147 478.867 9.50873 469.005C16.5966 459.143 14.3007 445.466 4.37857 438.455C-5.54266 431.446 -19.3332 433.758 -26.4211 443.621C-33.5081 453.483 -31.2106 467.161 -21.2894 474.17Z" fill="white"/>
<path d="M125.414 221.8C137.866 230.597 140.76 247.826 131.865 260.203C122.969 272.58 105.6 275.493 93.1483 266.696C80.6952 257.898 77.8001 240.667 86.6952 228.289C95.5903 215.912 112.961 213.001 125.414 221.8ZM102.132 254.195C107.647 258.092 115.348 256.801 119.289 251.318C123.23 245.833 121.945 238.199 116.429 234.302C110.91 230.402 103.214 231.692 99.273 237.176C95.3323 242.659 96.613 250.296 102.132 254.195Z" fill="white"/>
<path d="M37.8197 199.91L27.3411 185.561L35.6103 175.591L51.8228 183.029C54.459 180.575 57.2757 178.272 60.2673 176.134L55.9133 158.723L67.3506 152.575L79.6272 165.721C83.4184 164.27 87.2633 163.108 91.1339 162.215L93.9726 144.698L106.907 143.44L113.046 160.089C116.694 160.206 120.319 160.555 123.904 161.13L133.188 145.93L145.639 149.595L144.999 167.342C148.65 168.947 152.196 170.81 155.602 172.921L170.093 162.491L180.116 170.677L172.583 186.777C175.047 189.39 177.364 192.18 179.514 195.145L197.063 190.785L203.237 202.118L189.956 214.334C191.409 218.09 192.577 221.904 193.465 225.744L211.11 228.514L212.35 241.352L195.553 247.479C195.425 251.102 195.067 254.7 194.482 258.257L209.778 267.436L206.053 279.799L188.171 279.208C186.547 282.833 184.66 286.358 182.525 289.741L192.999 304.096L184.73 314.062L168.524 306.625C165.882 309.078 163.066 311.383 160.075 313.524L164.43 330.93L152.993 337.08L140.712 323.931C136.924 325.381 133.08 326.549 129.208 327.438L126.37 344.956L113.435 346.216L107.297 329.562C103.649 329.448 100.024 329.096 96.4388 328.526L87.1547 343.725L74.7048 340.056L75.3457 322.311C71.6941 320.706 68.1476 318.843 64.7408 316.734L50.2501 327.164L40.2263 318.978L47.7591 302.878C45.2949 300.263 42.978 297.475 40.8275 294.515L23.2763 298.873L17.1054 287.534L30.3849 275.323C28.9298 271.566 27.7666 267.753 26.8781 263.908L9.23141 261.139L7.99163 248.304L24.7878 242.172C24.9125 238.554 25.2732 234.953 25.8637 231.399L10.5659 222.219L14.2908 209.857L32.1719 210.45C33.7993 206.819 35.6832 203.3 37.8197 199.91ZM71.9738 297.978C101.505 318.843 142.547 311.961 163.643 282.607C184.739 253.252 177.901 212.539 148.37 191.675C118.839 170.81 77.7939 177.691 56.6977 207.045C35.6021 236.399 42.4429 277.114 71.9738 297.978Z" fill="white"/>
<path d="M-96.9894 169.989L-103.199 161.489L-98.2969 155.583L-88.6934 159.989C-87.1283 158.537 -85.4628 157.171 -83.6859 155.903L-86.2693 145.588L-79.4897 141.946L-72.2142 149.733C-69.9666 148.874 -67.6929 148.184 -65.3967 147.659L-63.7168 137.276L-56.0498 136.533L-52.4132 146.399C-50.2537 146.466 -48.1068 146.675 -45.9829 147.012L-40.4799 138.007L-33.0984 140.182L-33.4823 150.694C-31.3179 151.645 -29.2169 152.748 -27.2015 153.999L-18.6127 147.819L-12.6719 152.669L-17.1366 162.211C-15.6767 163.756 -14.307 165.411 -13.0332 167.167L-2.63429 164.582L1.0249 171.297L-6.84492 178.539C-5.98121 180.761 -5.29049 183.024 -4.76544 185.299L5.69071 186.938L6.42529 194.548L-3.52858 198.174C-3.60711 200.322 -3.81679 202.452 -4.16253 204.563L4.90167 210.002L2.69545 217.326L-7.90237 216.974C-8.86852 219.122 -9.98185 221.213 -11.246 223.217L-5.04041 231.721L-9.94228 237.629L-19.5454 233.221C-21.1067 234.677 -22.7771 236.042 -24.554 237.309L-21.9708 247.623L-28.7472 251.27L-36.0231 243.476C-38.2677 244.338 -40.5454 245.029 -42.8441 245.553L-44.5229 255.932L-52.1868 256.681L-55.824 246.816C-57.9871 246.746 -60.1352 246.534 -62.2594 246.2L-67.762 255.202L-75.1351 253.032L-74.7571 242.513C-76.9224 241.565 -79.022 240.461 -81.0402 239.212L-89.6259 245.392L-95.5658 240.542L-91.1024 231.002C-92.5642 229.451 -93.9358 227.798 -95.2085 226.044L-105.609 228.628L-109.266 221.908L-101.399 214.671C-102.261 212.445 -102.952 210.185 -103.475 207.911L-113.933 206.269L-114.665 198.664L-104.713 195.031C-104.636 192.888 -104.428 190.754 -104.074 188.646L-113.139 183.209L-110.936 175.882L-100.337 176.234C-99.3724 174.084 -98.2562 172.001 -96.9894 169.989ZM-64.8838 211.582C-56.5608 217.462 -44.993 215.525 -39.0473 207.252C-33.1036 198.981 -35.0323 187.506 -43.3553 181.626C-51.6747 175.748 -63.2441 177.686 -69.1878 185.956C-75.1326 194.23 -73.2023 205.705 -64.8838 211.582Z" fill="white"/>
<path d="M153.857 355.039L149.546 349.136L152.947 345.037L159.614 348.097C160.699 347.088 161.856 346.14 163.086 345.258L161.296 338.101L166.003 335.571L171.05 340.978C172.612 340.38 174.194 339.904 175.783 339.537L176.953 332.332L182.271 331.813L184.795 338.661C186.297 338.707 187.789 338.852 189.264 339.091L193.083 332.837L198.206 334.346L197.939 341.643C199.441 342.308 200.901 343.069 202.3 343.937L208.262 339.651L212.384 343.017L209.286 349.637C210.299 350.715 211.251 351.86 212.137 353.081L219.353 351.287L221.893 355.948L216.43 360.974C217.032 362.519 217.507 364.087 217.872 365.665L225.132 366.802L225.643 372.086L218.734 374.604C218.679 376.095 218.535 377.575 218.291 379.037L224.584 382.814L223.051 387.894L215.697 387.656C215.031 389.145 214.254 390.595 213.374 391.985L217.679 397.893L214.279 401.993L207.613 398.932C206.526 399.941 205.369 400.889 204.138 401.767L205.929 408.932L201.225 411.458L196.175 406.05C194.618 406.647 193.034 407.126 191.443 407.492L190.275 414.696L184.954 415.219L182.431 408.366C180.931 408.321 179.442 408.173 177.961 407.94L174.145 414.191L169.023 412.682L169.289 405.384C167.784 404.725 166.327 403.958 164.927 403.092L158.965 407.378L154.84 404.015L157.943 397.39C156.927 396.315 155.978 395.168 155.089 393.951L147.873 395.745L145.335 391.081L150.796 386.057C150.196 384.511 149.718 382.945 149.354 381.36L142.093 380.221L141.588 374.942L148.495 372.421C148.546 370.931 148.693 369.452 148.938 367.988L142.642 364.216L144.176 359.13L151.53 359.374C152.199 357.879 152.976 356.434 153.857 355.039ZM164.71 399.819C179.324 410.144 199.634 406.737 210.075 392.21C220.514 377.684 217.131 357.534 202.519 347.21C187.903 336.883 167.591 340.292 157.152 354.818C146.712 369.344 150.094 389.493 164.71 399.819Z" fill="white"/>
<path d="M165.569 398.639C179.498 408.48 198.926 405.222 208.878 391.374C218.828 377.529 215.594 358.254 201.665 348.413C187.734 338.57 168.303 341.831 158.352 355.677C148.401 369.525 151.638 388.796 165.569 398.639ZM199.589 351.301C211.915 360.011 214.781 377.067 205.974 389.321C197.166 401.577 179.971 404.46 167.644 395.75C155.315 387.039 152.449 369.983 161.257 357.728C170.065 345.474 187.26 342.591 199.589 351.301Z" fill="white"/>
<path d="M-112.431 296.562L-111.113 297.808C-109.022 299.787 -105.758 300.109 -103.44 298.391C-100.444 296.175 -100.28 291.909 -102.859 289.466L-104.035 288.354C-105.657 286.821 -105.531 284.211 -103.769 282.834C-102.901 282.152 -102.02 281.491 -101.128 280.851C-99.3549 279.576 -96.8615 280.103 -95.7713 281.982L-94.8509 283.567C-93.4081 286.049 -90.3702 287.27 -87.6569 286.273C-84.1597 284.983 -82.7884 280.93 -84.57 277.865L-85.3762 276.476C-86.4958 274.551 -85.6353 272.074 -83.5465 271.245C-82.5234 270.839 -81.4901 270.455 -80.455 270.091C-78.3932 269.365 -76.1559 270.569 -75.6441 272.677L-75.176 274.601C-74.4189 277.721 -71.2253 279.65 -68.0788 278.892C-65.5559 280.674 -62.1489 278.386 -62.8762 275.395L-64.1151 270.289C-64.6422 268.129 -63.1148 265.994 -60.8837 265.78C-59.7881 265.675 -58.6907 265.59 -57.5931 265.529C-55.4086 265.406 -53.5998 267.189 -53.7078 269.356L-53.8066 271.328C-53.9654 274.534 -51.4501 277.282 -48.2194 277.434C-44.9878 277.582 -42.2141 275.081 -42.0546 271.874L-41.9758 270.264C-41.8657 268.043 -39.7976 266.42 -37.5978 266.838C-36.519 267.043 -35.4405 267.269 -34.3653 267.518C-32.238 268.011 -31.0081 270.226 -31.7287 272.279L-32.3889 274.162C-33.4515 277.197 -31.8196 280.537 -28.7661 281.583L-28.7648 281.582C-25.7085 282.63 -22.3396 281.004 -21.277 277.97L-20.7462 276.454C-20.0111 274.351 -17.5648 273.369 -15.5735 274.389C-14.5986 274.886 -13.6335 275.406 -12.6726 275.947C-10.7734 277.018 -10.2255 279.485 -11.4967 281.254L-12.6566 282.868C-14.5381 285.486 -13.923 289.148 -11.2908 291.008C-8.65762 292.868 -4.96513 292.248 -3.08431 289.631L-2.14648 288.326C-0.84304 286.513 1.77683 286.256 3.3987 287.789C4.19808 288.542 4.98097 289.309 5.74221 290.09C7.26431 291.645 7.08707 294.174 5.36727 295.515L3.92314 296.643C1.64901 298.416 0.85384 301.579 2.23276 304.097C4.00719 307.349 8.23995 308.107 11.0501 305.916L12.331 304.918C14.097 303.539 16.6839 304.028 17.804 305.956C18.3532 306.903 18.8821 307.862 19.394 308.828C20.4036 310.747 19.5162 313.121 17.4888 313.928L15.6216 314.671C12.6165 315.865 11.1359 319.282 12.3366 322.26C13.5354 325.241 16.9728 326.699 19.9782 325.505L21.4705 324.911C23.5556 324.079 25.8985 325.273 26.4237 327.436C26.6804 328.496 26.9156 329.562 27.1307 330.631C27.5567 332.757 26.0334 334.79 23.8581 334.995L21.8759 335.185C18.6548 335.494 16.2691 338.361 16.5695 341.555C16.873 344.752 19.7563 347.113 22.9792 346.806L24.5844 346.653C26.8173 346.44 28.7236 348.235 28.6163 350.458C28.5636 351.547 28.4875 352.638 28.3918 353.727C28.1987 355.889 26.161 357.414 24.0112 357.01L22.0489 356.636C18.8725 356.03 15.7706 358.114 15.1527 361.267C14.5361 364.418 16.63 367.495 19.8045 368.099L21.3997 368.404C23.5997 368.824 24.921 371.081 24.1832 373.188C23.8225 374.218 23.4407 375.242 23.0344 376.263C22.2336 378.283 19.8454 379.18 17.905 378.185L16.1247 377.275C13.2503 375.807 9.68356 376.94 8.19448 379.795C6.709 382.652 7.84332 386.187 10.7149 387.657L12.148 388.39C14.1301 389.401 14.7696 391.93 13.4726 393.735C13.4649 393.746 13.4553 393.759 13.4475 393.77C12.8026 394.667 12.1441 395.546 11.4685 396.408C10.1318 398.114 7.59512 398.29 6.02075 396.802L4.58191 395.438C2.243 393.225 -1.49935 393.316 -3.73482 395.642C-5.97056 397.966 -5.8865 401.681 -3.54941 403.893L-2.37479 405.006C-0.753563 406.541 -0.878885 409.15 -2.64017 410.529C-3.50793 411.209 -4.38923 411.871 -5.27818 412.511C-7.05196 413.787 -9.54561 413.258 -10.6372 411.381L-11.641 409.651C-13.2542 406.871 -16.8679 405.913 -19.6718 407.521C-22.4766 409.129 -23.451 412.717 -21.8366 415.499L-21.0303 416.884C-19.9118 418.813 -20.7731 421.289 -22.8597 422.117C-23.8838 422.522 -24.9143 422.908 -25.9512 423.271C-28.0108 423.995 -30.2497 422.792 -30.7606 420.684L-31.2287 418.76C-31.9877 415.643 -35.1813 413.714 -38.3265 414.471C-40.8495 412.688 -44.2577 414.978 -43.5316 417.967L-42.292 423.072C-41.7662 425.234 -43.2912 427.369 -45.5232 427.583C-46.6163 427.688 -47.7142 427.77 -48.8129 427.834C-50.9945 427.955 -52.804 426.173 -52.6978 424.005L-52.6088 422.2C-52.4668 419.332 -54.351 416.676 -57.1759 416.06C-60.8176 415.27 -64.1759 417.949 -64.3494 421.486L-64.4301 423.095C-64.5381 425.319 -66.6056 426.941 -68.8082 426.525C-69.887 426.32 -70.9641 426.093 -72.0394 425.843C-74.1667 425.351 -75.3977 423.133 -74.6769 421.082L-74.0646 419.334C-73.1277 416.656 -74.1538 413.624 -76.6347 412.231C-79.9168 410.385 -83.9467 412.018 -85.1286 415.391L-85.6609 416.907C-86.3967 419.011 -88.8432 419.991 -90.8346 418.972C-91.8077 418.471 -92.7742 417.952 -93.7335 417.411C-95.6322 416.342 -96.1798 413.873 -94.9085 412.104L-93.7493 410.491C-91.8685 407.874 -92.486 404.212 -95.1173 402.352C-97.7504 400.492 -101.442 401.11 -103.322 403.727L-104.26 405.031C-105.562 406.844 -108.184 407.1 -109.808 405.569C-110.606 404.816 -111.388 404.049 -112.148 403.267C-113.672 401.711 -113.496 399.184 -111.774 397.84L-110.331 396.716C-108.057 394.94 -107.261 391.78 -108.638 389.26C-110.415 386.009 -114.649 385.25 -117.457 387.443L-118.738 388.44C-120.505 389.819 -123.094 389.332 -124.21 387.402C-124.76 386.454 -125.29 385.496 -125.801 384.53C-126.811 382.608 -125.923 380.237 -123.894 379.431L-122.186 378.752C-119.499 377.683 -117.842 374.87 -118.447 372.065C-119.227 368.446 -123.07 366.536 -126.386 367.854L-127.877 368.448C-129.962 369.277 -132.307 368.086 -132.83 365.923C-133.088 364.863 -133.324 363.796 -133.537 362.727C-133.964 360.601 -132.442 358.569 -130.263 358.361L-128.452 358.187C-125.573 357.911 -123.185 355.674 -122.969 352.814C-122.69 349.12 -125.833 346.212 -129.385 346.551L-130.991 346.704C-133.223 346.917 -135.131 345.12 -135.022 342.901C-134.969 341.81 -134.895 340.721 -134.798 339.633C-134.603 337.467 -132.566 335.943 -130.417 336.35L-128.455 336.722C-125.278 337.329 -122.176 335.243 -121.558 332.089C-119.8 329.643 -121.177 326.218 -124.148 325.652L-127.806 324.955C-130.006 324.536 -131.326 322.275 -130.589 320.172C-130.227 319.141 -129.845 318.114 -129.441 317.094C-128.637 315.075 -126.252 314.182 -124.309 315.172L-122.528 316.083C-119.357 317.702 -115.346 316.156 -114.21 312.626C-113.331 309.893 -114.705 306.938 -117.271 305.626L-118.554 304.971C-120.537 303.957 -121.175 301.428 -119.878 299.624C-119.87 299.613 -119.862 299.601 -119.852 299.588C-119.208 298.692 -118.55 297.812 -117.875 296.952C-116.541 295.245 -114.005 295.071 -112.431 296.562ZM-23.8284 299.291C-34.8886 292.542 -47.5253 290.048 -59.6721 291.469L-56.5381 310.12C-49.2129 309.453 -41.6618 310.923 -34.9186 314.724L-23.8275 299.291L-23.8284 299.291ZM-17.6191 303.678L-28.7102 319.111C-22.884 324.19 -19.0198 330.786 -17.2652 337.868L1.5393 334.717C-1.07118 322.87 -7.57455 311.84 -17.6191 303.678ZM2.65969 342.205L-16.208 345.368C-15.9535 352.449 -17.7484 359.652 -21.7523 366.057L-6.2535 377.008C0.754668 366.329 3.61772 354.081 2.65969 342.205ZM-41.2576 401.091C-29.7441 398.566 -18.9871 392.454 -10.8395 383.071L-26.4179 372.064C-31.4099 377.284 -37.6834 380.786 -44.3894 382.438L-41.2576 401.091ZM-82.6746 394.2C-72.2126 400.586 -60.3415 403.161 -48.809 402.218L-51.953 383.502C-58.6468 383.756 -65.4497 382.228 -71.5834 378.767L-82.6746 394.2ZM-71.6843 372.392C-57.4311 382.462 -37.6305 379.14 -27.4501 364.974C-17.273 350.813 -20.5692 331.17 -34.8224 321.1C-49.0711 311.033 -68.8768 314.353 -79.054 328.514C-89.2343 342.68 -85.933 362.325 -71.6843 372.392ZM-88.8839 389.813L-77.7927 374.38C-83.0966 369.76 -86.772 363.885 -88.7155 357.528L-107.585 360.69C-104.718 371.807 -98.3867 382.093 -88.8839 389.813ZM-108.975 353.247L-90.1703 350.094C-90.7855 343.269 -89.494 336.245 -86.1458 329.865L-101.727 318.857C-108.01 329.556 -110.325 341.633 -108.975 353.247ZM-81.9448 323.529C-77.1456 317.687 -70.8652 313.652 -64.0333 311.578L-67.1755 292.864C-78.8098 295.842 -89.553 302.524 -97.4436 312.579L-81.9448 323.529Z" fill="white"/>
<path d="M5.84216 139.304L6.21517 139.656C6.80698 140.216 7.72962 140.306 8.38625 139.821C9.23289 139.194 9.27973 137.986 8.55045 137.296L8.21807 136.981C7.7605 136.547 7.79474 135.81 8.29328 135.419C8.53906 135.227 8.78807 135.04 9.04058 134.859C9.5425 134.498 10.2484 134.647 10.5564 135.179L10.8169 135.628C11.2251 136.329 12.0844 136.675 12.8519 136.393C13.8423 136.029 14.2295 134.882 13.7255 134.014L13.4975 133.62C13.1803 133.076 13.4251 132.376 14.0151 132.14C14.3052 132.026 14.5977 131.917 14.8911 131.814C15.4743 131.609 16.1069 131.949 16.2516 132.546L16.3835 133.09C16.598 133.972 17.5017 134.519 18.3918 134.303C19.1053 134.808 20.0693 134.16 19.8641 133.314L19.513 131.87C19.3642 131.258 19.7964 130.655 20.4271 130.594C20.737 130.564 21.0471 130.54 21.3591 130.523C21.9776 130.489 22.4893 130.993 22.4586 131.606L22.4297 132.164C22.3844 133.07 23.0974 133.848 24.0104 133.891C24.925 133.934 25.7093 133.225 25.7547 132.319L25.7767 131.862C25.8081 131.234 26.3928 130.775 27.0154 130.892C27.3211 130.95 27.6253 131.014 27.9299 131.085C28.5309 131.224 28.8796 131.852 28.6755 132.431L28.4899 132.964C28.189 133.823 28.6512 134.768 29.5141 135.064L29.5147 135.063C30.3792 135.359 31.3329 134.9 31.6328 134.041L31.7839 133.613C31.9909 133.018 32.6835 132.74 33.2469 133.029C33.5219 133.169 33.7958 133.317 34.0674 133.47C34.6045 133.772 34.7602 134.471 34.4004 134.972L34.0721 135.428C33.5398 136.169 33.7135 137.205 34.4587 137.731C35.2039 138.258 36.2494 138.082 36.781 137.342L37.0462 136.973C37.415 136.46 38.1566 136.387 38.6151 136.822C38.8411 137.034 39.0623 137.251 39.2779 137.473C39.7079 137.913 39.6571 138.628 39.1718 139.007L38.7623 139.327C38.1197 139.829 37.894 140.723 38.2843 141.436C38.786 142.356 39.9842 142.571 40.7787 141.951L41.1405 141.669C41.64 141.279 42.3727 141.417 42.6892 141.962C42.8436 142.231 42.9936 142.501 43.1386 142.775C43.4244 143.318 43.1731 143.989 42.5987 144.218L42.0705 144.428C41.2203 144.766 40.8012 145.734 41.141 146.576C41.4801 147.42 42.4527 147.833 43.3029 147.495L43.7261 147.327C44.3155 147.092 44.9792 147.429 45.1265 148.041C45.1996 148.341 45.2664 148.642 45.3271 148.944C45.4473 149.546 45.0166 150.121 44.4014 150.179L43.8402 150.232C42.9301 150.32 42.2547 151.131 42.3393 152.035C42.4247 152.939 43.2418 153.608 44.1528 153.521L44.6075 153.478C45.24 153.418 45.7783 153.926 45.7487 154.554C45.7332 154.862 45.7124 155.171 45.6849 155.479C45.6303 156.091 45.0529 156.523 44.4456 156.407L43.891 156.302C42.9927 156.13 42.1143 156.72 41.9401 157.612C41.7657 158.503 42.3576 159.373 43.2558 159.545L43.7071 159.631C44.3293 159.751 44.7038 160.39 44.4953 160.985C44.3928 161.277 44.2843 161.567 44.17 161.854C43.9431 162.426 43.2679 162.679 42.7194 162.399L42.2153 162.141C41.4023 161.726 40.3932 162.046 39.9718 162.854C39.5518 163.662 39.8722 164.662 40.6853 165.077L41.0909 165.284C41.6515 165.571 41.8322 166.286 41.4654 166.797C41.4634 166.799 41.4608 166.803 41.4583 166.806C41.2761 167.06 41.0892 167.309 40.8984 167.553C40.5204 168.036 39.8027 168.085 39.357 167.665L38.9496 167.278C38.2878 166.653 37.2289 166.678 36.5958 167.336C35.9636 167.994 35.9873 169.045 36.649 169.67L36.9814 169.985C37.4405 170.419 37.4041 171.157 36.9056 171.548C36.6598 171.74 36.4108 171.927 36.1583 172.108C35.6564 172.469 34.951 172.319 34.6417 171.789L34.3577 171.299C33.9019 170.514 32.8794 170.242 32.0855 170.697C31.2917 171.152 31.0157 172.167 31.4727 172.954L31.7005 173.346C32.0172 173.892 31.773 174.592 31.1828 174.826C30.8936 174.94 30.6012 175.05 30.3083 175.152C29.7251 175.357 29.0917 175.016 28.9479 174.42L28.8151 173.876C28.6006 172.993 27.6969 172.447 26.8075 172.661C26.093 172.156 25.1299 172.805 25.3342 173.65L25.6853 175.094C25.8351 175.706 25.4028 176.31 24.7705 176.371C24.4615 176.401 24.1512 176.423 23.8404 176.443C23.2225 176.476 22.7102 175.973 22.7409 175.359L22.7664 174.848C22.8066 174.038 22.2738 173.286 21.4745 173.112C20.4434 172.888 19.4941 173.646 19.4448 174.647L19.4225 175.103C19.3914 175.732 18.8067 176.191 18.1847 176.073C17.8791 176.015 17.5739 175.95 17.2702 175.88C16.6692 175.741 16.3205 175.113 16.5237 174.533L16.6968 174.038C16.9622 173.281 16.6715 172.423 15.9701 172.029C15.042 171.507 13.901 171.969 13.5664 172.923L13.4154 173.351C13.2077 173.947 12.5148 174.223 11.9508 173.936C11.677 173.793 11.4025 173.647 11.1309 173.494C10.5938 173.191 10.4391 172.493 10.7989 171.993L11.1271 171.536C11.6594 170.795 11.4848 169.759 10.7405 169.233C9.99531 168.707 8.9514 168.882 8.4191 169.623L8.15392 169.992C7.78511 170.505 7.04356 170.578 6.58444 170.144C6.35908 169.931 6.13717 169.715 5.92224 169.492C5.49225 169.052 5.54056 168.337 6.02828 167.958L6.4365 167.64C7.07982 167.137 7.30393 166.243 6.91515 165.53C6.41279 164.61 5.21461 164.396 4.42082 165.015L4.05832 165.298C3.55888 165.688 2.82612 165.549 2.5096 165.004C2.35431 164.735 2.20431 164.465 2.05959 164.192C1.7735 163.649 2.02507 162.978 2.59947 162.749L3.08224 162.557C3.84299 162.255 4.31205 161.46 4.14094 160.665C3.91916 159.641 2.83277 159.101 1.89558 159.474L1.473 159.642C0.88365 159.876 0.219887 159.54 0.0716821 158.927C-0.00138024 158.627 -0.0682468 158.326 -0.128291 158.023C-0.249148 157.422 0.181619 156.847 0.796572 156.787L1.30927 156.739C2.12393 156.661 2.79934 156.028 2.85953 155.218C2.93788 154.173 2.0487 153.351 1.04453 153.446L0.58985 153.489C-0.0417366 153.549 -0.581011 153.041 -0.550527 152.413C-0.535279 152.104 -0.514238 151.796 -0.486739 151.489C-0.43213 150.877 0.145271 150.445 0.751656 150.56L1.30631 150.665C2.20545 150.838 3.08295 150.248 3.25779 149.354C3.75534 148.662 3.36626 147.693 2.524 147.533L1.4887 147.336C0.865799 147.217 0.493482 146.577 0.70206 145.982C0.803844 145.691 0.912327 145.401 1.02636 145.112C1.25418 144.541 1.92873 144.289 2.47857 144.568L2.98263 144.825C3.87926 145.283 5.01414 144.847 5.33636 143.847C5.58407 143.074 5.19604 142.238 4.46997 141.867L4.10681 141.68C3.54549 141.395 3.36544 140.679 3.73233 140.168C3.73426 140.165 3.73683 140.162 3.73941 140.158C3.92156 139.905 4.10758 139.655 4.29865 139.412C4.67846 138.931 5.3971 138.883 5.84216 139.304ZM30.9095 140.075C27.7806 138.166 24.2058 137.461 20.7693 137.863L21.6559 143.139C23.7282 142.95 25.8638 143.365 27.7723 144.441L30.9095 140.075ZM32.6664 141.317L29.5286 145.683C31.1771 147.12 32.2699 148.986 32.7665 150.99L38.0863 150.099C37.3479 146.747 35.5091 143.626 32.6664 141.317ZM38.4027 152.217L33.0646 153.113C33.1365 155.116 32.6281 157.154 31.4962 158.966L35.8808 162.064C37.8641 159.042 38.6746 155.576 38.4027 152.217ZM25.9786 168.878C29.236 168.164 32.2784 166.434 34.5838 163.779L30.1767 160.665C28.7654 162.142 26.9896 163.133 25.0926 163.601L25.9786 168.878ZM14.2605 166.928C17.2193 168.735 20.5786 169.463 23.8416 169.196L22.9518 163.902C21.0577 163.974 19.1332 163.542 17.3977 162.563L14.2605 166.928ZM20.055 157.021C22.0115 158.403 24.728 157.947 26.1254 156.003C27.5221 154.06 27.0697 151.363 25.1141 149.981C23.1585 148.6 20.4404 149.056 19.0437 151C17.6463 152.944 18.1003 155.64 20.055 157.021ZM12.5036 165.686L15.6414 161.32C14.1415 160.013 13.1014 158.351 12.5512 156.552L7.21379 157.447C8.02363 160.591 9.81581 163.502 12.5036 165.686ZM6.82007 155.342L12.1404 154.45C11.9662 152.519 12.3321 150.531 13.2791 148.727L8.87109 145.612C7.09293 148.638 6.43788 152.055 6.82007 155.342ZM14.4674 146.933C15.8257 145.28 17.6017 144.139 19.535 143.552L18.6459 138.257C15.3546 139.1 12.3146 140.99 10.0829 143.835L14.4674 146.933Z" fill="white"/>
<path d="M31.6236 372.331C32.6506 371.021 34.6095 370.886 35.8265 372.043L36.8439 373.007C38.4634 374.537 40.9726 374.786 42.7627 373.47C45.0595 371.77 45.1733 368.495 43.1826 366.611L42.2685 365.749C41.0249 364.57 41.1048 362.562 42.4597 361.503C43.1283 360.99 43.8162 360.478 44.493 359.98C45.8578 359.013 47.7819 359.428 48.6264 360.87L49.3344 362.093C50.4572 364.005 52.8069 364.952 54.8871 364.189C57.582 363.21 58.6244 360.094 57.246 357.744L56.6267 356.669C55.7529 355.176 56.4114 353.282 58.0146 352.653C58.8021 352.344 59.5985 352.045 60.3979 351.774C61.978 351.209 63.7063 352.145 64.108 353.771L64.4787 355.247C65.064 357.652 67.5329 359.144 69.961 358.567C71.9013 359.938 74.5187 358.191 73.9536 355.896L72.9886 351.966C72.5776 350.304 73.752 348.658 75.4624 348.501C76.3076 348.42 77.153 348.364 78.0048 348.318C79.6889 348.231 81.0808 349.609 81.01 351.277L80.9357 352.792C80.8262 355.251 82.7737 357.374 85.2542 357.496C87.7619 357.615 89.8823 355.7 89.9904 353.237L90.0514 352C90.1325 350.29 91.7202 349.047 93.4204 349.38C94.2528 349.533 95.0726 349.721 95.9011 349.898C97.5497 350.288 98.5036 352 97.9629 353.575L97.4524 355.013C96.6442 357.347 97.901 359.923 100.266 360.737C102.626 361.544 105.208 360.306 106.025 357.975L106.431 356.82C106.997 355.199 108.877 354.454 110.421 355.237C111.163 355.628 111.905 356.028 112.651 356.453C114.106 357.277 114.548 359.17 113.569 360.533L112.688 361.759C111.239 363.776 111.716 366.585 113.759 368.028C115.799 369.47 118.638 369.004 120.088 366.987L120.8 365.997C121.796 364.611 123.817 364.416 125.069 365.587C125.688 366.17 126.287 366.768 126.877 367.372C128.054 368.562 127.926 370.512 126.596 371.545L125.491 372.402C123.747 373.755 123.143 376.199 124.205 378.124C125.582 380.638 128.848 381.231 131.013 379.555L131.997 378.791C133.355 377.728 135.346 378.12 136.212 379.595C136.64 380.331 137.05 381.069 137.443 381.815C138.228 383.291 137.557 385.107 135.993 385.73L134.56 386.299C132.25 387.207 131.116 389.835 132.044 392.12C132.977 394.419 135.637 395.553 137.938 394.634L139.093 394.192C140.701 393.55 142.507 394.48 142.923 396.136C143.116 396.954 143.305 397.771 143.473 398.601C143.807 400.228 142.64 401.791 140.95 401.949L139.429 402.084C136.948 402.318 135.119 404.509 135.356 406.971C135.606 409.424 137.83 411.257 140.308 411.02L141.546 410.907C143.269 410.747 144.739 412.134 144.668 413.848C144.634 414.688 144.571 415.525 144.502 416.364C144.355 418.022 142.793 419.19 141.14 418.876L139.617 418.57C137.168 418.111 134.793 419.703 134.32 422.126C133.853 424.555 135.475 426.916 137.924 427.387L139.145 427.624C140.849 427.957 141.866 429.692 141.308 431.317C141.027 432.106 140.741 432.888 140.433 433.678C139.816 435.224 137.977 435.912 136.482 435.148L135.11 434.438C132.894 433.301 130.142 434.163 129 436.347C127.867 438.547 128.746 441.275 130.961 442.404L132.074 442.973C133.599 443.761 134.105 445.697 133.106 447.087C133.101 447.094 133.092 447.107 133.089 447.111C132.597 447.796 132.092 448.479 131.575 449.134C130.538 450.446 128.583 450.578 127.366 449.425L126.265 448.374C124.446 446.667 121.566 446.735 119.851 448.512C118.129 450.301 118.209 453.141 120.02 454.856L120.918 455.717C122.18 456.89 122.082 458.911 120.735 459.96C120.058 460.48 119.396 460.989 118.703 461.472C117.339 462.454 115.412 462.041 114.574 460.598L113.788 459.261C112.547 457.12 109.75 456.379 107.596 457.6C105.443 458.828 104.696 461.587 105.952 463.729L106.57 464.797C107.445 466.285 106.785 468.184 105.178 468.817C104.384 469.13 103.601 469.418 102.797 469.704C101.21 470.252 99.4856 469.318 99.0814 467.701L98.717 466.211C98.1218 463.817 95.6554 462.321 93.2466 462.895C91.2955 461.516 88.6713 463.265 89.2361 465.578L90.2033 469.502C90.6162 471.166 89.4402 472.803 87.7162 472.963C86.8798 473.039 86.0354 473.102 85.1941 473.154C83.504 473.238 82.1071 471.859 82.1829 470.192L82.2483 468.803C82.3521 466.606 80.8886 464.556 78.7104 464.078C75.9072 463.458 73.3219 465.507 73.2058 468.223L73.1454 469.464C73.0721 471.169 71.4699 472.424 69.7748 472.084C68.9422 471.929 68.1085 471.75 67.288 471.553C65.6369 471.177 64.6934 469.465 65.2404 467.885L65.7147 466.543C66.4242 464.491 65.6261 462.158 63.7033 461.073C61.1734 459.649 58.0766 460.894 57.1762 463.487L56.7653 464.644C56.2043 466.268 54.3281 467.014 52.788 466.217C52.0333 465.837 51.2792 465.436 50.5478 465.019C49.078 464.192 48.6504 462.291 49.6243 460.935L50.517 459.693C51.9621 457.682 51.4724 454.869 49.4373 453.431C47.4057 451.996 44.5659 452.457 43.1208 454.467L42.3999 455.471C41.4016 456.86 39.3762 457.053 38.1312 455.876C37.5066 455.292 36.9044 454.699 36.3162 454.094C35.1305 452.902 35.275 450.955 36.5882 449.927L37.7084 449.06C39.4529 447.706 40.0491 445.275 38.9895 443.338C37.6048 440.837 34.3396 440.241 32.1874 441.913L31.2102 442.67C29.8386 443.734 27.8408 443.353 26.9783 441.875C26.5511 441.137 26.1501 440.402 25.7496 439.648C24.9659 438.171 25.642 436.349 27.2009 435.734L28.526 435.218C30.5879 434.404 31.8571 432.247 31.3845 430.085C30.7769 427.303 27.8069 425.83 25.2531 426.834L24.1066 427.277C22.5004 427.913 20.6952 426.993 20.2844 425.332C20.0847 424.518 19.9023 423.699 19.7339 422.868C19.4005 421.232 20.5659 419.679 22.2424 419.52L23.6423 419.39C25.8567 419.185 27.6902 417.477 27.8525 415.269C28.0555 412.437 25.6271 410.194 22.8901 410.445L21.6543 410.557C19.9321 410.719 18.4587 409.33 18.5364 407.628C18.574 406.784 18.6286 405.946 18.7 405.103C18.8445 403.449 20.4204 402.272 22.0629 402.598L23.5784 402.892C26.0257 403.358 28.4114 401.765 28.8842 399.343C30.2333 397.466 29.166 394.825 26.8764 394.388L24.0508 393.843C22.3535 393.508 21.3326 391.771 21.8992 390.153C22.171 389.357 22.4596 388.577 22.7706 387.788C23.3825 386.239 25.213 385.557 26.7194 386.318L28.091 387.027C30.5381 388.286 33.6252 387.106 34.4925 384.398C35.165 382.291 34.1001 380.017 32.118 379.005L31.1267 378.495C29.6024 377.707 29.1019 375.756 30.0906 374.38C30.0977 374.371 30.1041 374.362 30.1118 374.351C30.6031 373.663 31.1014 372.995 31.6236 372.331ZM59.1592 421.471L76.6505 410.938L56.8087 406.124C55.9507 411.349 56.7691 416.738 59.1592 421.471ZM70.4715 387.692L81.0339 405.045L85.9485 385.335C80.6724 384.487 75.2409 385.316 70.4715 387.692ZM77.6219 407.092L67.0551 389.755C64.8536 391.332 62.8729 393.266 61.2071 395.584C59.6913 397.693 58.5388 399.943 57.7795 402.269L77.6219 407.092ZM49.9912 388.089C48.7013 389.884 49.1169 392.391 50.9334 393.674C52.7527 394.959 55.2782 394.53 56.5681 392.736C57.8658 390.93 57.4521 388.42 55.6329 387.135C53.8163 385.851 51.2888 386.283 49.9912 388.089ZM79.8757 376.003C79.5182 373.811 77.428 372.334 75.2255 372.717C73.0195 373.084 71.5339 375.152 71.9087 377.333C72.2709 379.51 74.3611 380.987 76.5589 380.618C78.7543 380.254 80.2399 378.187 79.8757 376.003ZM103.975 379.531C102.153 378.244 99.6395 378.665 98.3425 380.47C97.0461 382.274 97.4643 384.768 99.2863 386.055C101.097 387.335 103.619 386.918 104.916 385.114C106.213 383.309 105.786 380.811 103.975 379.531ZM96.5553 389.664C94.429 388.161 92.1732 387.036 89.8217 386.285L84.915 405.986L102.421 395.465C100.842 393.273 98.8795 391.306 96.5553 389.664ZM93.1702 432.609L82.5988 415.287L77.7009 434.974C82.9639 435.828 88.3917 434.998 93.1702 432.609ZM111.54 427.476C109.725 426.193 107.201 426.63 105.908 428.429C104.615 430.229 105.022 432.737 106.837 434.019C108.654 435.303 111.182 434.869 112.476 433.069C113.769 431.271 113.356 428.759 111.54 427.476ZM102.436 424.715C103.941 422.62 105.08 420.359 105.858 418.046L86.0191 413.228L96.5782 430.562C98.7882 428.987 100.773 427.029 102.436 424.715ZM104.478 398.84L86.9566 409.365L106.824 414.19C107.695 408.951 106.871 403.576 104.478 398.84ZM119.411 404.525C119.033 402.344 116.958 400.878 114.761 401.24C112.555 401.614 111.073 403.676 111.442 405.859C111.807 408.046 113.882 409.512 116.091 409.144C118.289 408.775 119.771 406.712 119.411 404.525ZM82.596 445.157C82.9665 447.345 85.0432 448.813 87.2534 448.447C89.4601 448.075 90.9399 446.016 90.5773 443.822C90.2009 441.636 88.1242 440.168 85.9199 440.531C83.7189 440.914 82.2385 442.974 82.596 445.157ZM58.4996 441.64C60.3144 442.922 62.8313 442.494 64.1302 440.686C65.4246 438.885 65.0099 436.388 63.1952 435.106C61.3759 433.821 58.8486 434.239 57.5542 436.04C56.2546 437.848 56.6813 440.355 58.4996 441.64ZM67.103 430.646C69.2005 432.128 71.4635 433.277 73.8155 434.032L78.728 414.332L61.2131 424.848C62.799 427.047 64.7634 428.993 67.103 430.646ZM43.0639 416.638C43.4295 418.816 45.517 420.291 47.7114 419.921C49.9204 419.544 51.406 417.477 51.0314 415.302C50.6754 413.114 48.5878 411.639 46.3839 412.018C44.1841 412.375 42.6985 414.442 43.0639 416.638Z" fill="white"/>
<path d="M32.683 489.496L29.4924 485.127L32.01 482.09L36.9474 484.356C37.7496 483.607 38.6084 482.907 39.5193 482.256L38.1933 476.954L41.6762 475.081L45.4147 479.084C46.5702 478.642 47.7398 478.288 48.9194 478.017L49.7844 472.682L53.7237 472.298L55.5935 477.368C56.7041 477.403 57.8084 477.51 58.8999 477.685L61.7269 473.056L65.5185 474.172L65.3237 479.575C66.4357 480.065 67.5163 480.633 68.5522 481.274L72.9661 478.099L76.0189 480.592L73.7234 485.495C74.4737 486.291 75.1799 487.141 75.8345 488.044L81.1799 486.716L83.0595 490.167L79.0154 493.888C79.4581 495.032 79.8128 496.193 80.0839 497.362L85.4581 498.206L85.8361 502.116L80.7194 503.983C80.6811 505.086 80.5706 506.181 80.3929 507.265L85.0518 510.06L83.9172 513.826L78.4724 513.646C77.9769 514.75 77.4031 515.823 76.7521 516.854L79.9414 521.225L77.4235 524.26L72.487 521.995C71.6821 522.741 70.826 523.444 69.9142 524.094L71.2408 529.395L67.7582 531.269L64.0176 527.264C62.8637 527.706 61.6937 528.062 60.5141 528.333L59.6507 533.668L55.7116 534.053L53.8416 528.982C52.731 528.947 51.6266 528.84 50.5355 528.666L47.7084 533.295L43.915 532.178L44.1105 526.774C42.9987 526.285 41.918 525.717 40.8813 525.075L36.4683 528.252L33.4148 525.76L35.7094 520.856C34.9591 520.059 34.2532 519.211 33.5989 518.31L28.2532 519.636L26.3733 516.184L30.4183 512.464C29.975 511.32 29.6203 510.159 29.3514 508.989L23.9763 508.145L23.5986 504.236L28.7144 502.369C28.752 501.266 28.8631 500.17 29.0427 499.088L24.3838 496.292L25.5186 492.528L30.9635 492.709C31.459 491.6 32.0322 490.528 32.683 489.496ZM45.9406 503.409C45.8821 501.804 46.565 499.787 47.1138 498.824L37.9578 492.355C34.8541 496.915 34.253 500.895 34.7011 505.337L45.9406 503.409ZM52.2699 506.028C53.9491 507.215 56.2938 506.821 57.4943 505.151C58.6942 503.481 58.303 501.156 56.6238 499.97C54.9427 498.782 52.5995 499.175 51.3997 500.845C50.1992 502.515 50.5888 504.84 52.2699 506.028ZM39.266 490.579L48.4581 497.073C49.3059 496.322 51.1254 495.09 52.7413 494.746L50.8995 483.611C46.4464 484.497 42.0765 487.163 39.266 490.579ZM53.0456 483.731L55.1353 495.067C56.4673 495.071 57.3339 495.055 59.2474 496.183L65.99 486.801C61.2855 483.872 57.2932 483.275 53.0456 483.731ZM66.9203 487.402L60.1777 496.784C61.9045 498.171 62.1977 499.137 62.6562 500.639L74.3966 498.728C73.355 494.318 70.4815 490.027 66.9203 487.402ZM74.5732 500.289L62.9331 502.213C63.0559 503.733 62.5042 505.647 62.0512 506.677L71.7708 513.544C74.1062 509.792 75.2141 504.785 74.5732 500.289ZM70.5024 515.349L60.8216 508.509C60.0894 509.342 58.5866 510.505 57.167 510.998L59.0832 522.666C63.505 521.651 67.1692 519.746 70.5024 515.349ZM57.541 522.938L55.6708 511.452C53.8611 511.675 52.2908 511.546 50.3915 510.399L43.6637 519.76C47.3332 522.236 52.7797 523.591 57.541 522.938ZM42.789 519.084L49.5168 509.722C47.8363 508.27 47.0741 506.901 46.6852 505.388L35.7002 507.415C36.5516 511.806 38.47 515.618 42.789 519.084Z" fill="white"/>
</g>
</g>
</svg>
