<svg width="44" height="34" viewBox="0 0 44 34" fill="none" xmlns="http://www.w3.org/2000/svg">
<rect y="33.2249" width="32.45" height="44" rx="6.55627" transform="rotate(-90 0 33.2249)" fill="url(#paint0_angular_332_4207)"/>
<path d="M6.81763 9.28374C6.81763 7.93131 7.91398 6.83496 9.2664 6.83496H34.6691C36.0215 6.83496 37.1179 7.93132 37.1179 9.28374V25.5964C37.1179 26.9488 36.0215 28.0452 34.6691 28.0452H9.2664C7.91398 28.0452 6.81763 26.9488 6.81763 25.5964V9.28374Z" fill="#009B3A"/>
<path d="M9.39185 17.4407L21.9665 25.4703L34.5411 17.4407L21.9665 9.41113L9.39185 17.4407Z" fill="#FEDF00"/>
<mask id="mask0_332_4207" style="mask-type:alpha" maskUnits="userSpaceOnUse" x="16" y="12" width="12" height="11">
<path d="M21.9737 22.7428C24.9022 22.7428 27.2762 20.3688 27.2762 17.4402C27.2762 14.5117 24.9022 12.1377 21.9737 12.1377C19.0452 12.1377 16.6711 14.5117 16.6711 17.4402C16.6711 20.3688 19.0452 22.7428 21.9737 22.7428Z" fill="#002776"/>
</mask>
<g mask="url(#mask0_332_4207)">
<path d="M21.9737 22.7428C24.9022 22.7428 27.2762 20.3688 27.2762 17.4402C27.2762 14.5117 24.9022 12.1377 21.9737 12.1377C19.0452 12.1377 16.6711 14.5117 16.6711 17.4402C16.6711 20.3688 19.0452 22.7428 21.9737 22.7428Z" fill="#002776"/>
<path d="M6.06616 28.0453C6.06616 24.63 7.42291 21.3545 9.83793 18.9395C12.253 16.5245 15.5284 15.1677 18.9438 15.1677C22.3591 15.1677 25.6346 16.5245 28.0496 18.9395C30.4647 21.3545 31.8214 24.63 31.8214 28.0453H31.0639C31.0639 24.8309 29.787 21.7481 27.514 19.4751C25.241 17.2022 22.1582 15.9252 18.9438 15.9252C15.7293 15.9252 12.6465 17.2022 10.3736 19.4751C8.10061 21.7481 6.82367 24.8309 6.82367 28.0453H6.06616Z" fill="white"/>
<path fill-rule="evenodd" clip-rule="evenodd" d="M17.4495 15.8893C17.5093 15.882 17.5634 15.8485 17.5999 15.7963C17.6365 15.7441 17.6524 15.6775 17.6442 15.611C17.6361 15.5445 17.6045 15.4837 17.5564 15.4419C17.5083 15.4001 17.4477 15.3807 17.3879 15.3881C17.3281 15.3954 17.274 15.4289 17.2374 15.4811C17.2009 15.5333 17.185 15.5999 17.1931 15.6664C17.2013 15.7329 17.2329 15.7937 17.2809 15.8355C17.329 15.8773 17.3896 15.8967 17.4495 15.8893ZM17.438 15.7962C17.4732 15.7919 17.5048 15.7712 17.526 15.7386C17.5472 15.706 17.5563 15.6642 17.5512 15.6224C17.546 15.5807 17.5271 15.5423 17.4987 15.5158C17.4702 15.4893 17.4345 15.4769 17.3993 15.4812C17.3642 15.4855 17.3326 15.5062 17.3113 15.5388C17.2901 15.5714 17.2811 15.6132 17.2862 15.655C17.2913 15.6967 17.3102 15.7351 17.3387 15.7616C17.3672 15.7881 17.4029 15.8005 17.438 15.7962Z" fill="#009B3A"/>
<path fill-rule="evenodd" clip-rule="evenodd" d="M18.5027 15.8052L18.7407 15.8011C18.7692 15.8006 18.7972 15.7945 18.8233 15.7831C18.8493 15.7718 18.8729 15.7555 18.8927 15.735C18.9124 15.7146 18.9279 15.6904 18.9383 15.664C18.9488 15.6375 18.9539 15.6093 18.9534 15.5809L18.9521 15.5088C18.9516 15.4803 18.9455 15.4523 18.9342 15.4262C18.9229 15.4002 18.9065 15.3766 18.8861 15.3568C18.8656 15.3371 18.8415 15.3216 18.815 15.3112C18.7886 15.3007 18.7604 15.2956 18.7319 15.2961L18.4939 15.3003L18.5027 15.8052ZM18.5948 15.7098L18.7319 15.7074C18.7682 15.7068 18.8029 15.6917 18.8281 15.6656C18.8534 15.6394 18.8672 15.6043 18.8666 15.568L18.8658 15.5247C18.8652 15.4883 18.8501 15.4537 18.824 15.4285C18.7978 15.4032 18.7627 15.3894 18.7264 15.39L18.5893 15.3924L18.5948 15.7098Z" fill="#009B3A"/>
<path d="M19.1391 15.7979L19.5933 15.8138L19.5966 15.72L19.2289 15.7072L19.2334 15.5774L19.5218 15.5875L19.5249 15.501L19.2365 15.4909L19.24 15.39L19.5861 15.402L19.5893 15.3083L19.1567 15.2932L19.1391 15.7979Z" fill="#009B3A"/>
<path d="M19.7756 15.8258L19.8618 15.8334L19.892 15.4884L19.9624 15.8422L20.0415 15.8491L20.1723 15.5129L20.1421 15.8579L20.2283 15.8654L20.2724 15.3624L20.1466 15.3514L20.0158 15.6875L19.9454 15.3338L19.8196 15.3228L19.7756 15.8258Z" fill="#009B3A"/>
<path d="M20.8315 15.9428L21.2048 16.007L21.2194 15.9216L20.9315 15.8722L20.951 15.7584L21.1856 15.7987L21.2003 15.7134L20.9657 15.6731L20.9791 15.5949L21.2582 15.6428L21.2728 15.5575L20.9084 15.4949L20.8315 15.9428Z" fill="#009B3A"/>
<path fill-rule="evenodd" clip-rule="evenodd" d="M21.7881 16.1325L21.8789 16.156L21.9259 15.9744L22.1214 16.0249C22.1622 16.0355 22.2055 16.0294 22.2417 16.008C22.278 15.9867 22.3043 15.9518 22.3148 15.911C22.3254 15.8703 22.3193 15.827 22.2979 15.7907C22.2766 15.7545 22.2417 15.7282 22.2009 15.7176L21.9215 15.6454L21.7881 16.1325ZM21.9494 15.8836L22.1379 15.9323C22.1546 15.9366 22.1723 15.9342 22.1871 15.9254C22.202 15.9167 22.2127 15.9024 22.2171 15.8857C22.2214 15.8691 22.2189 15.8514 22.2101 15.8365C22.2014 15.8217 22.1871 15.8109 22.1705 15.8066L21.9819 15.7578L21.9494 15.8836Z" fill="#009B3A"/>
<path fill-rule="evenodd" clip-rule="evenodd" d="M23.2289 16.5738C23.2853 16.595 23.3488 16.5903 23.4053 16.5609C23.4618 16.5314 23.5067 16.4796 23.5302 16.4169C23.5536 16.3542 23.5537 16.2857 23.5303 16.2264C23.507 16.1671 23.4622 16.1219 23.4057 16.1008C23.3493 16.0797 23.2858 16.0844 23.2293 16.1138C23.1728 16.1433 23.1279 16.195 23.1044 16.2578C23.081 16.3205 23.0809 16.389 23.1043 16.4483C23.1276 16.5076 23.1724 16.5527 23.2289 16.5738ZM23.2617 16.486C23.2949 16.4984 23.3325 16.4946 23.3664 16.4755C23.4003 16.4564 23.4276 16.4235 23.4423 16.3841C23.4571 16.3446 23.458 16.3019 23.445 16.2653C23.432 16.2286 23.406 16.2011 23.3729 16.1887C23.3397 16.1763 23.3021 16.1801 23.2682 16.1992C23.2343 16.2183 23.207 16.2512 23.1923 16.2906C23.1775 16.33 23.1766 16.3728 23.1896 16.4094C23.2026 16.4461 23.2286 16.4736 23.2617 16.486Z" fill="#009B3A"/>
<path d="M24.7728 17.274L25.1684 17.4978L25.2146 17.4162L24.8943 17.235L24.9583 17.122L25.2094 17.2641L25.2521 17.1887L25.0009 17.0466L25.0507 16.9587L25.352 17.1293L25.3982 17.0476L25.0215 16.8345L24.7728 17.274Z" fill="#009B3A"/>
<path d="M25.5111 17.5223C25.4839 17.5649 25.5114 17.6124 25.5723 17.6512C25.6331 17.6899 25.6746 17.6885 25.6921 17.6612C25.7473 17.5745 25.428 17.448 25.5264 17.2969C25.6113 17.167 25.7564 17.2681 25.8112 17.303C25.866 17.3379 25.9539 17.4281 25.8855 17.5321L25.7927 17.473C25.8218 17.4273 25.7899 17.3835 25.7412 17.3525C25.694 17.3224 25.6557 17.3087 25.6276 17.3528C25.5806 17.4233 25.8935 17.5564 25.7976 17.707C25.7268 17.8181 25.6038 17.7696 25.5216 17.7173C25.4516 17.6727 25.3471 17.5676 25.4152 17.4613L25.5111 17.5223Z" fill="#009B3A"/>
<path d="M26.0552 17.8797C26.0259 17.9208 26.0509 17.9696 26.1096 18.0115C26.1683 18.0534 26.2098 18.0542 26.2287 18.0278C26.2884 17.9441 25.9761 17.8011 26.0823 17.6553C26.1739 17.5301 26.3136 17.6386 26.3664 17.6763C26.4193 17.714 26.5024 17.8087 26.4286 17.909L26.3391 17.8451C26.3705 17.8011 26.3409 17.7556 26.2939 17.7221C26.2484 17.6896 26.2108 17.6739 26.1805 17.7165C26.1298 17.7844 26.4354 17.9337 26.3317 18.0791C26.2552 18.1863 26.1348 18.1314 26.0555 18.0749C25.988 18.0267 25.8891 17.9163 25.9627 17.8137L26.0552 17.8797Z" fill="#009B3A"/>
<path fill-rule="evenodd" clip-rule="evenodd" d="M26.5598 18.4617C26.6069 18.4993 26.6687 18.5144 26.7316 18.5039C26.7944 18.4934 26.8531 18.458 26.8948 18.4056C26.9365 18.3532 26.9577 18.288 26.9539 18.2244C26.95 18.1608 26.9213 18.104 26.8741 18.0665C26.827 18.029 26.7652 18.0138 26.7023 18.0244C26.6395 18.0349 26.5808 18.0702 26.5391 18.1227C26.4974 18.1751 26.4762 18.2402 26.48 18.3038C26.4839 18.3674 26.5126 18.4242 26.5598 18.4617ZM26.6181 18.3883C26.6459 18.4104 26.6828 18.4184 26.7209 18.4107C26.7591 18.403 26.7952 18.3802 26.8214 18.3472C26.8476 18.3143 26.8617 18.2739 26.8607 18.235C26.8596 18.1962 26.8435 18.162 26.8158 18.1399C26.7881 18.1179 26.7511 18.1098 26.713 18.1175C26.6748 18.1253 26.6387 18.1481 26.6125 18.181C26.5863 18.214 26.5722 18.2543 26.5732 18.2932C26.5743 18.3321 26.5904 18.3663 26.6181 18.3883Z" fill="#009B3A"/>
</g>
<defs>
<radialGradient id="paint0_angular_332_4207" cx="0" cy="0" r="1" gradientUnits="userSpaceOnUse" gradientTransform="translate(15.7382 55.2249) rotate(90) scale(22 15.7382)">
<stop offset="0.362857" stop-color="#D6DFE6"/>
<stop offset="0.370506" stop-color="#FAFBFC"/>
<stop offset="0.865074" stop-color="#D7E0E7"/>
<stop offset="0.871776" stop-color="#F7F8F9"/>
</radialGradient>
</defs>
</svg>
