<svg width="46" height="34" viewBox="0 0 46 34" fill="none" xmlns="http://www.w3.org/2000/svg">
<rect x="0.950195" y="33.2617" width="32.5235" height="44.0996" rx="8.13087" transform="rotate(-90 0.950195 33.2617)" fill="url(#paint0_angular_332_4122)"/>
<mask id="mask0_332_4122" style="mask-type:alpha" maskUnits="userSpaceOnUse" x="4" y="4" width="35" height="25">
<rect x="4.9895" y="4.4812" width="33.9414" height="24.2439" fill="#D9D9D9"/>
</mask>
<g mask="url(#mask0_332_4122)">
<path d="M8.57788 11.9058L11.7412 6.42669L12.6544 6.95391L9.49106 12.433L8.57788 11.9058ZM9.94765 12.6966L13.111 7.21752L14.0242 7.74475L10.8608 13.2238L9.94765 12.6966ZM11.3174 13.4874L14.4808 8.00836L15.3939 8.53558L12.2306 14.0147L11.3174 13.4874Z" fill="black"/>
<path d="M36.1589 11.9609L32.9956 6.48186L32.0824 7.00909L35.2458 12.4882L36.1589 11.9609ZM34.7892 12.7518L31.6258 7.2727L30.7126 7.79992L33.876 13.279L34.7892 12.7518ZM33.4194 13.5426L30.2561 8.06353L29.3429 8.59076L32.5062 14.0698L33.4194 13.5426Z" fill="black"/>
<path d="M36.3931 21.5518L33.2297 27.0308L32.3165 26.5036L35.4799 21.0245L36.3931 21.5518ZM35.0233 20.7609L31.86 26.24L30.9468 25.7128L34.1101 20.2337L35.0233 20.7609ZM33.6535 19.9701L30.4902 25.4492L29.577 24.9219L32.7403 19.4429L33.6535 19.9701Z" fill="black"/>
<path d="M8.81201 21.4968L11.9754 26.9759L12.8885 26.4487L9.72519 20.9696L8.81201 21.4968ZM10.1818 20.706L13.3451 26.1851L14.2583 25.6578L11.095 20.1788L10.1818 20.706ZM11.5515 19.9152L14.7149 25.3942L15.6281 24.867L12.4647 19.3879L11.5515 19.9152Z" fill="black"/>
<path d="M16.8701 13.3594C17.8009 11.9632 19.2481 10.994 20.8935 10.665C22.5388 10.3359 24.2475 10.6739 25.6437 11.6047C27.0398 12.5354 28.009 13.9827 28.3381 15.628C28.6671 17.2734 28.3291 18.9821 27.3984 20.3782L16.8701 13.3594Z" fill="#CD2E3A"/>
<path d="M16.8712 13.3592C15.9405 14.7553 15.6025 16.464 15.9315 18.1093C16.2606 19.7547 17.2298 21.202 18.6259 22.1327C20.0221 23.0635 21.7308 23.4015 23.3761 23.0724C25.0215 22.7433 26.4687 21.7741 27.3995 20.378C27.8649 19.6799 28.0339 18.8256 27.8693 18.0029C27.7048 17.1802 27.2202 16.4566 26.5221 15.9912C25.8241 15.5259 24.9697 15.3568 24.147 15.5214C23.3244 15.6859 22.6007 16.1705 22.1354 16.8686L16.8712 13.3592Z" fill="#0047A0"/>
<path d="M22.1392 16.8686C23.1083 15.4149 22.7155 13.4509 21.2618 12.4818C19.8082 11.5127 17.8442 11.9055 16.8751 13.3591C15.906 14.8128 16.2988 16.7768 17.7524 17.7459C19.2061 18.715 21.1701 18.3222 22.1392 16.8686Z" fill="#CD2E3A"/>
</g>
<defs>
<radialGradient id="paint0_angular_332_4122" cx="0" cy="0" r="1" gradientUnits="userSpaceOnUse" gradientTransform="translate(16.7241 55.3115) rotate(90) scale(22.0498 15.7739)">
<stop offset="0.362857" stop-color="#D6DFE6"/>
<stop offset="0.370506" stop-color="#FAFBFC"/>
<stop offset="0.865074" stop-color="#D7E0E7"/>
<stop offset="0.871776" stop-color="#F7F8F9"/>
</radialGradient>
</defs>
</svg>
