<svg width="236" height="566" viewBox="0 0 236 566" fill="none" xmlns="http://www.w3.org/2000/svg">
<g opacity="0.05">
<mask id="mask0_332_6119" style="mask-type:alpha" maskUnits="userSpaceOnUse" x="0" y="0" width="236" height="566">
<rect width="565.041" height="236" transform="matrix(-4.37114e-08 1 1 4.37114e-08 0 0.861328)" fill="#F4F4F8"/>
</mask>
<g mask="url(#mask0_332_6119)">
<path d="M-8.59848 66.9837C-1.64646 71.8956 -0.0317941 81.5147 -4.99785 88.4248C-9.9639 95.335 -19.6616 96.9614 -26.6127 92.0502C-33.5656 87.1376 -35.1821 77.5172 -30.2161 70.6071C-25.25 63.6969 -15.5514 62.0711 -8.59848 66.9837ZM-21.5971 85.071C-18.5168 87.2474 -14.2186 86.5259 -12.0185 83.4644C-9.81775 80.4021 -10.5344 76.1401 -13.6147 73.9637C-16.6969 71.786 -20.9928 72.5064 -23.1936 75.5688C-25.3937 78.6302 -24.6793 82.8933 -21.5971 85.071Z" fill="#F4F4F8"/>
<path d="M-57.5059 54.7625L-63.3568 46.7515L-58.7399 41.1857L-49.6891 45.3374C-48.2174 43.968 -46.644 42.6827 -44.974 41.4885L-47.4051 31.7682L-41.0201 28.3361L-34.1663 35.6755C-32.0489 34.865 -29.9033 34.2162 -27.7424 33.7186L-26.1578 23.9388L-18.9371 23.2364L-15.509 32.5321C-13.4723 32.5977 -11.448 32.7924 -9.44762 33.1132L-4.26321 24.6276L2.68876 26.6738L2.33132 36.5806C4.3696 37.4778 6.35017 38.518 8.25133 39.6951L16.3429 33.8712L21.939 38.4409L17.7336 47.4291C19.1091 48.8884 20.4034 50.4457 21.6029 52.1007L31.3999 49.6669L34.8473 55.9945L27.4317 62.8146C28.2431 64.9111 28.8955 67.0412 29.3903 69.1842L39.2424 70.7312L39.934 77.8991L30.556 81.319C30.4848 83.3417 30.2848 85.3502 29.9577 87.3366L38.4973 92.4612L36.4176 99.3632L26.4343 99.0335C25.5265 101.057 24.4746 103.026 23.2824 104.915L29.1289 112.928L24.5117 118.492L15.4649 114.341C13.9892 115.71 12.4176 116.996 10.747 118.192L13.1784 127.909L6.79314 131.344L-0.0625173 124.003C-2.17841 124.813 -4.32349 125.465 -6.48526 125.962L-8.06983 135.742L-15.2928 136.446L-18.7196 127.148C-20.7551 127.085 -22.7797 126.889 -24.7813 126.57L-29.9642 135.055L-36.9155 133.008L-36.5574 123.1C-38.5955 122.204 -40.576 121.164 -42.4781 119.986L-50.569 125.809L-56.1651 121.24L-51.959 112.251C-53.3354 110.791 -54.6288 109.234 -55.8287 107.581L-65.6276 110.014L-69.073 103.684L-61.6585 96.867C-62.4717 94.7691 -63.1207 92.6401 -63.6169 90.4934L-73.4688 88.9479L-74.1617 81.7819L-64.785 78.3582C-64.7152 76.3373 -64.5145 74.3278 -64.1832 72.3432L-72.7245 67.2173L-70.6458 60.3146L-60.6628 60.6468C-59.751 58.6199 -58.6991 56.6541 -57.5059 54.7625ZM-38.4381 109.513C-21.9499 121.163 0.96292 117.319 12.7403 100.931C24.5183 84.5427 20.7012 61.8134 4.21393 50.1646C-12.2733 38.5157 -35.1889 42.3575 -46.9669 58.7462C-58.7443 75.134 -54.9254 97.8646 -38.4381 109.513Z" fill="#F4F4F8"/>
<path d="M-3.33515 449.174C0.848462 452.13 1.82056 457.919 -1.16749 462.077C-4.15682 466.237 -9.99295 467.214 -14.1757 464.259C-18.3602 461.302 -19.3329 455.514 -16.3436 451.354C-13.3555 447.196 -7.51967 446.217 -3.33515 449.174ZM-11.1574 460.059C-9.3045 461.368 -6.71674 460.934 -5.39265 459.092C-4.06792 457.248 -4.50122 454.684 -6.35408 453.375C-8.20874 452.065 -10.7934 452.498 -12.1175 454.34C-13.4416 456.183 -13.012 458.748 -11.1574 460.059Z" fill="#F4F4F8"/>
<path d="M-32.7629 441.808L-36.2838 436.987L-33.5048 433.637L-28.0581 436.135C-27.1723 435.312 -26.2264 434.538 -25.2204 433.818L-26.6828 427.969L-22.8395 425.904L-18.7159 430.321C-17.4409 429.833 -16.151 429.443 -14.8497 429.142L-13.8957 423.257L-9.55092 422.835L-7.48771 428.427C-6.26089 428.468 -5.04353 428.584 -3.84001 428.778L-0.720557 423.672L3.46365 424.903L3.2478 430.864C4.47466 431.403 5.66619 432.029 6.81072 432.739L11.6798 429.235L15.0472 431.984L12.5159 437.393C13.3437 438.271 14.1228 439.209 14.8447 440.204L20.7406 438.74L22.8149 442.547L18.352 446.651C18.84 447.913 19.2328 449.195 19.5314 450.485L25.4604 451.415L25.8765 455.73L20.2322 457.788C20.1894 459.005 20.0692 460.213 19.8716 461.409L25.0103 464.493L23.7576 468.646L17.7497 468.447C17.2026 469.665 16.5705 470.85 15.8524 471.988L19.3717 476.809L16.5933 480.157L11.1491 477.66C10.2617 478.484 9.31524 479.258 8.3099 479.977L9.77291 485.825L5.93141 487.892L1.80604 483.474C0.532491 483.961 -0.757784 484.354 -2.05927 484.653L-3.01327 490.538L-7.35962 490.961L-9.42155 485.366C-10.6472 485.328 -11.8648 485.21 -13.0705 485.018L-16.1891 490.124L-20.3727 488.892L-20.1562 482.93C-21.3824 482.39 -22.5739 481.765 -23.7197 481.056L-28.5882 484.559L-31.9555 481.81L-29.4243 476.401C-30.253 475.522 -31.0312 474.585 -31.7528 473.591L-37.6496 475.055L-39.7235 471.246L-35.2619 467.143C-35.7508 465.881 -36.1427 464.599 -36.4407 463.308L-42.3688 462.379L-42.7861 458.066L-37.143 456.006C-37.1005 454.791 -36.98 453.581 -36.7806 452.386L-41.9211 449.301L-40.6694 445.147L-34.662 445.347C-34.1141 444.129 -33.4808 442.947 -32.7629 441.808ZM-21.2894 474.754C-11.3672 481.764 2.42147 479.451 9.50873 469.589C16.5966 459.727 14.3007 446.05 4.37857 439.039C-5.54266 432.03 -19.3332 434.342 -26.4211 444.205C-33.5081 454.067 -31.2106 467.745 -21.2894 474.754Z" fill="#F4F4F8"/>
<path d="M125.414 222.383C137.866 231.181 140.76 248.41 131.865 260.787C122.969 273.164 105.6 276.077 93.1483 267.28C80.6952 258.482 77.8001 241.251 86.6952 228.873C95.5903 216.496 112.961 213.585 125.414 222.383ZM102.132 254.779C107.647 258.676 115.348 257.385 119.289 251.902C123.23 246.417 121.945 238.783 116.429 234.886C110.91 230.986 103.214 232.276 99.273 237.76C95.3323 243.243 96.613 250.88 102.132 254.779Z" fill="#F4F4F8"/>
<path d="M37.8197 200.494L27.3411 186.145L35.6103 176.175L51.8228 183.613C54.459 181.159 57.2757 178.856 60.2673 176.718L55.9133 159.307L67.3506 153.159L79.6272 166.305C83.4184 164.854 87.2633 163.692 91.1339 162.799L93.9726 145.282L106.907 144.024L113.046 160.673C116.694 160.79 120.319 161.139 123.904 161.714L133.188 146.514L145.639 150.179L144.999 167.926C148.65 169.531 152.196 171.394 155.602 173.505L170.093 163.075L180.116 171.261L172.583 187.361C175.047 189.974 177.364 192.764 179.514 195.729L197.063 191.369L203.237 202.702L189.956 214.918C191.409 218.674 192.577 222.488 193.465 226.328L211.11 229.098L212.35 241.936L195.553 248.063C195.425 251.686 195.067 255.284 194.482 258.841L209.778 268.02L206.053 280.383L188.171 279.792C186.547 283.416 184.66 286.942 182.525 290.325L192.999 304.68L184.73 314.646L168.524 307.209C165.882 309.662 163.066 311.967 160.075 314.108L164.43 331.514L152.993 337.664L140.712 324.515C136.924 325.965 133.08 327.133 129.208 328.022L126.37 345.54L113.435 346.8L107.297 330.146C103.649 330.032 100.024 329.68 96.4388 329.11L87.1547 344.309L74.7048 340.64L75.3457 322.895C71.6941 321.29 68.1476 319.427 64.7408 317.318L50.2501 327.748L40.2263 319.562L47.7591 303.462C45.2949 300.847 42.978 298.059 40.8275 295.099L23.2763 299.457L17.1054 288.118L30.3849 275.907C28.9298 272.15 27.7666 268.337 26.8781 264.492L9.23141 261.723L7.99163 248.888L24.7878 242.756C24.9125 239.138 25.2732 235.537 25.8637 231.983L10.5659 222.803L14.2908 210.441L32.1719 211.034C33.7993 207.403 35.6832 203.884 37.8197 200.494ZM71.9738 298.562C101.505 319.427 142.547 312.545 163.643 283.191C184.739 253.836 177.901 213.123 148.37 192.259C118.839 171.394 77.7939 178.275 56.6977 207.629C35.6021 236.983 42.4429 277.698 71.9738 298.562Z" fill="#F4F4F8"/>
<path d="M-96.9894 170.573L-103.199 162.073L-98.2969 156.167L-88.6934 160.573C-87.1283 159.121 -85.4628 157.755 -83.6859 156.487L-86.2693 146.172L-79.4897 142.53L-72.2142 150.317C-69.9666 149.458 -67.6929 148.768 -65.3967 148.243L-63.7168 137.86L-56.0498 137.117L-52.4132 146.983C-50.2537 147.05 -48.1068 147.259 -45.9829 147.596L-40.4799 138.591L-33.0984 140.766L-33.4823 151.278C-31.3179 152.229 -29.2169 153.332 -27.2015 154.583L-18.6127 148.403L-12.6719 153.253L-17.1366 162.795C-15.6767 164.34 -14.307 165.995 -13.0332 167.751L-2.63429 165.166L1.0249 171.881L-6.84492 179.123C-5.98121 181.345 -5.29049 183.608 -4.76544 185.883L5.69071 187.522L6.42529 195.132L-3.52858 198.758C-3.60711 200.906 -3.81679 203.036 -4.16253 205.147L4.90167 210.586L2.69545 217.91L-7.90237 217.558C-8.86852 219.706 -9.98185 221.797 -11.246 223.801L-5.04041 232.305L-9.94228 238.213L-19.5454 233.805C-21.1067 235.261 -22.7771 236.626 -24.554 237.893L-21.9708 248.207L-28.7472 251.854L-36.0231 244.06C-38.2677 244.922 -40.5454 245.613 -42.8441 246.137L-44.5229 256.516L-52.1868 257.265L-55.824 247.4C-57.9871 247.33 -60.1352 247.118 -62.2594 246.784L-67.762 255.786L-75.1351 253.615L-74.7571 243.097C-76.9224 242.149 -79.022 241.045 -81.0402 239.796L-89.6259 245.976L-95.5658 241.126L-91.1024 231.586C-92.5642 230.035 -93.9358 228.382 -95.2085 226.628L-105.609 229.212L-109.266 222.492L-101.399 215.255C-102.261 213.029 -102.952 210.769 -103.475 208.495L-113.933 206.853L-114.665 199.248L-104.713 195.615C-104.636 193.472 -104.428 191.338 -104.074 189.23L-113.139 183.793L-110.936 176.466L-100.337 176.818C-99.3724 174.668 -98.2562 172.585 -96.9894 170.573ZM-64.8838 212.166C-56.5608 218.046 -44.993 216.109 -39.0473 207.835C-33.1036 199.565 -35.0323 188.09 -43.3553 182.21C-51.6747 176.332 -63.2441 178.27 -69.1878 186.54C-75.1326 194.814 -73.2023 206.289 -64.8838 212.166Z" fill="#F4F4F8"/>
<path d="M153.857 355.623L149.546 349.72L152.947 345.621L159.614 348.681C160.699 347.672 161.856 346.724 163.086 345.842L161.296 338.685L166.003 336.155L171.05 341.562C172.612 340.964 174.194 340.488 175.783 340.121L176.953 332.916L182.271 332.397L184.795 339.245C186.297 339.291 187.789 339.436 189.264 339.675L193.083 333.421L198.206 334.93L197.939 342.227C199.441 342.892 200.901 343.653 202.3 344.521L208.262 340.235L212.384 343.601L209.286 350.221C210.299 351.299 211.251 352.444 212.137 353.665L219.353 351.871L221.893 356.532L216.43 361.558C217.032 363.102 217.507 364.671 217.872 366.249L225.132 367.386L225.643 372.67L218.734 375.188C218.679 376.679 218.535 378.159 218.291 379.621L224.584 383.398L223.051 388.478L215.697 388.24C215.031 389.729 214.254 391.179 213.374 392.569L217.679 398.477L214.279 402.577L207.613 399.516C206.526 400.525 205.369 401.473 204.138 402.351L205.929 409.516L201.225 412.042L196.175 406.634C194.618 407.231 193.034 407.71 191.443 408.076L190.275 415.28L184.954 415.803L182.431 408.95C180.931 408.905 179.442 408.757 177.961 408.524L174.145 414.775L169.023 413.266L169.289 405.968C167.784 405.309 166.327 404.542 164.927 403.676L158.965 407.962L154.84 404.599L157.943 397.974C156.927 396.899 155.978 395.752 155.089 394.535L147.873 396.329L145.335 391.665L150.796 386.641C150.196 385.095 149.718 383.529 149.354 381.944L142.093 380.805L141.588 375.526L148.495 373.005C148.546 371.515 148.693 370.036 148.938 368.572L142.642 364.8L144.176 359.714L151.53 359.958C152.199 358.463 152.976 357.018 153.857 355.623ZM164.71 400.403C179.324 410.728 199.634 407.321 210.075 392.794C220.514 378.268 217.131 358.118 202.519 347.794C187.903 337.467 167.591 340.876 157.152 355.402C146.712 369.928 150.094 390.076 164.71 400.403Z" fill="#F4F4F8"/>
<path d="M165.569 399.223C179.498 409.064 198.926 405.806 208.878 391.958C218.828 378.113 215.594 358.838 201.665 348.997C187.734 339.154 168.303 342.415 158.352 356.261C148.401 370.109 151.638 389.38 165.569 399.223ZM199.589 351.885C211.915 360.595 214.781 377.651 205.974 389.905C197.166 402.161 179.971 405.044 167.644 396.334C155.315 387.623 152.449 370.567 161.257 358.312C170.065 346.058 187.26 343.175 199.589 351.885Z" fill="#F4F4F8"/>
<path d="M-112.431 297.146L-111.113 298.392C-109.022 300.371 -105.758 300.693 -103.44 298.975C-100.444 296.759 -100.28 292.493 -102.859 290.05L-104.035 288.938C-105.657 287.405 -105.531 284.795 -103.769 283.418C-102.901 282.736 -102.02 282.075 -101.128 281.435C-99.3549 280.16 -96.8615 280.687 -95.7713 282.566L-94.8509 284.151C-93.4081 286.633 -90.3702 287.854 -87.6569 286.857C-84.1597 285.567 -82.7884 281.514 -84.57 278.449L-85.3762 277.06C-86.4958 275.135 -85.6353 272.658 -83.5465 271.829C-82.5234 271.423 -81.4901 271.039 -80.455 270.675C-78.3932 269.949 -76.1559 271.153 -75.6441 273.261L-75.176 275.185C-74.4189 278.305 -71.2253 280.234 -68.0788 279.476C-65.5559 281.258 -62.1489 278.97 -62.8762 275.979L-64.1151 270.873C-64.6422 268.713 -63.1148 266.578 -60.8837 266.364C-59.7881 266.259 -58.6907 266.174 -57.5931 266.113C-55.4086 265.99 -53.5998 267.773 -53.7078 269.94L-53.8066 271.912C-53.9654 275.118 -51.4501 277.866 -48.2194 278.018C-44.9878 278.166 -42.2141 275.665 -42.0546 272.458L-41.9758 270.848C-41.8657 268.627 -39.7976 267.004 -37.5978 267.422C-36.519 267.627 -35.4405 267.853 -34.3653 268.102C-32.238 268.595 -31.0081 270.81 -31.7287 272.863L-32.3889 274.746C-33.4515 277.781 -31.8196 281.121 -28.7661 282.167L-28.7648 282.166C-25.7085 283.214 -22.3396 281.588 -21.277 278.554L-20.7462 277.038C-20.0111 274.935 -17.5648 273.953 -15.5735 274.973C-14.5986 275.47 -13.6335 275.989 -12.6726 276.531C-10.7734 277.602 -10.2255 280.069 -11.4967 281.838L-12.6566 283.452C-14.5381 286.07 -13.923 289.732 -11.2908 291.592C-8.65762 293.452 -4.96513 292.832 -3.08431 290.215L-2.14648 288.91C-0.84304 287.097 1.77683 286.84 3.3987 288.373C4.19808 289.126 4.98097 289.893 5.74221 290.674C7.26431 292.229 7.08707 294.757 5.36727 296.099L3.92314 297.227C1.64901 299 0.85384 302.163 2.23276 304.681C4.00719 307.933 8.23995 308.691 11.0501 306.5L12.331 305.502C14.097 304.123 16.6839 304.612 17.804 306.54C18.3532 307.487 18.8821 308.445 19.394 309.412C20.4036 311.331 19.5162 313.705 17.4888 314.512L15.6216 315.255C12.6165 316.449 11.1359 319.866 12.3366 322.844C13.5354 325.825 16.9728 327.283 19.9782 326.089L21.4705 325.495C23.5556 324.663 25.8985 325.856 26.4237 328.02C26.6804 329.08 26.9156 330.146 27.1307 331.215C27.5567 333.341 26.0334 335.374 23.8581 335.579L21.8759 335.769C18.6548 336.078 16.2691 338.945 16.5695 342.139C16.873 345.336 19.7563 347.697 22.9792 347.39L24.5844 347.237C26.8173 347.024 28.7236 348.819 28.6163 351.042C28.5636 352.131 28.4875 353.222 28.3918 354.311C28.1987 356.473 26.161 357.998 24.0112 357.594L22.0489 357.22C18.8725 356.614 15.7706 358.698 15.1527 361.851C14.5361 365.002 16.63 368.079 19.8045 368.683L21.3997 368.988C23.5997 369.408 24.921 371.665 24.1832 373.772C23.8225 374.802 23.4407 375.826 23.0344 376.847C22.2336 378.867 19.8454 379.764 17.905 378.769L16.1247 377.859C13.2503 376.391 9.68356 377.524 8.19448 380.379C6.709 383.236 7.84332 386.771 10.7149 388.241L12.148 388.974C14.1301 389.985 14.7696 392.514 13.4726 394.319C13.4649 394.33 13.4553 394.343 13.4475 394.354C12.8026 395.251 12.1441 396.13 11.4685 396.992C10.1318 398.698 7.59512 398.874 6.02075 397.386L4.58191 396.022C2.243 393.809 -1.49935 393.9 -3.73482 396.226C-5.97056 398.55 -5.8865 402.265 -3.54941 404.477L-2.37479 405.59C-0.753563 407.125 -0.878885 409.734 -2.64017 411.113C-3.50793 411.793 -4.38923 412.455 -5.27818 413.095C-7.05196 414.371 -9.54561 413.842 -10.6372 411.965L-11.641 410.234C-13.2542 407.455 -16.8679 406.497 -19.6718 408.105C-22.4766 409.713 -23.451 413.301 -21.8366 416.083L-21.0303 417.468C-19.9118 419.397 -20.7731 421.873 -22.8597 422.701C-23.8838 423.106 -24.9143 423.492 -25.9512 423.855C-28.0108 424.579 -30.2497 423.376 -30.7606 421.268L-31.2287 419.344C-31.9877 416.227 -35.1813 414.298 -38.3265 415.055C-40.8495 413.272 -44.2577 415.562 -43.5316 418.551L-42.292 423.656C-41.7662 425.818 -43.2912 427.953 -45.5232 428.167C-46.6163 428.272 -47.7142 428.354 -48.8129 428.418C-50.9945 428.539 -52.804 426.757 -52.6978 424.589L-52.6088 422.784C-52.4668 419.916 -54.351 417.26 -57.1759 416.644C-60.8176 415.854 -64.1759 418.533 -64.3494 422.07L-64.4301 423.679C-64.5381 425.903 -66.6056 427.525 -68.8082 427.109C-69.887 426.904 -70.9641 426.677 -72.0394 426.427C-74.1667 425.934 -75.3977 423.717 -74.6769 421.666L-74.0646 419.918C-73.1277 417.24 -74.1538 414.208 -76.6347 412.815C-79.9168 410.969 -83.9467 412.602 -85.1286 415.975L-85.6609 417.491C-86.3967 419.595 -88.8432 420.575 -90.8346 419.556C-91.8077 419.054 -92.7742 418.536 -93.7335 417.995C-95.6322 416.926 -96.1798 414.457 -94.9085 412.688L-93.7493 411.075C-91.8685 408.458 -92.486 404.796 -95.1173 402.936C-97.7504 401.076 -101.442 401.694 -103.322 404.311L-104.26 405.615C-105.562 407.428 -108.184 407.684 -109.808 406.153C-110.606 405.4 -111.388 404.633 -112.148 403.851C-113.672 402.295 -113.496 399.768 -111.774 398.424L-110.331 397.3C-108.057 395.524 -107.261 392.364 -108.638 389.844C-110.415 386.593 -114.649 385.834 -117.457 388.027L-118.738 389.024C-120.505 390.403 -123.094 389.916 -124.21 387.986C-124.76 387.038 -125.29 386.08 -125.801 385.114C-126.811 383.192 -125.923 380.821 -123.894 380.015L-122.186 379.336C-119.499 378.267 -117.842 375.454 -118.447 372.649C-119.227 369.03 -123.07 367.12 -126.386 368.438L-127.877 369.032C-129.962 369.861 -132.307 368.67 -132.83 366.507C-133.088 365.447 -133.324 364.38 -133.537 363.311C-133.964 361.185 -132.442 359.153 -130.263 358.945L-128.452 358.771C-125.573 358.495 -123.185 356.258 -122.969 353.398C-122.69 349.704 -125.833 346.796 -129.385 347.135L-130.991 347.288C-133.223 347.501 -135.131 345.704 -135.022 343.484C-134.969 342.394 -134.895 341.305 -134.798 340.217C-134.603 338.051 -132.566 336.527 -130.417 336.934L-128.455 337.306C-125.278 337.913 -122.176 335.827 -121.558 332.673C-119.8 330.227 -121.177 326.802 -124.148 326.236L-127.806 325.539C-130.006 325.12 -131.326 322.859 -130.589 320.756C-130.227 319.725 -129.845 318.698 -129.441 317.678C-128.637 315.659 -126.252 314.765 -124.309 315.756L-122.528 316.667C-119.357 318.286 -115.346 316.74 -114.21 313.21C-113.331 310.477 -114.705 307.522 -117.271 306.21L-118.554 305.555C-120.537 304.541 -121.175 302.012 -119.878 300.208C-119.87 300.197 -119.862 300.185 -119.852 300.172C-119.208 299.276 -118.55 298.396 -117.875 297.536C-116.541 295.829 -114.005 295.655 -112.431 297.146ZM-23.8284 299.875C-34.8886 293.126 -47.5253 290.632 -59.6721 292.053L-56.5381 310.704C-49.2129 310.037 -41.6618 311.507 -34.9186 315.308L-23.8275 299.875L-23.8284 299.875ZM-17.6191 304.262L-28.7102 319.695C-22.884 324.774 -19.0198 331.37 -17.2652 338.452L1.5393 335.301C-1.07118 323.454 -7.57455 312.424 -17.6191 304.262ZM2.65969 342.789L-16.208 345.952C-15.9535 353.033 -17.7484 360.236 -21.7523 366.641L-6.2535 377.592C0.754668 366.913 3.61772 354.665 2.65969 342.789ZM-41.2576 401.675C-29.7441 399.15 -18.9871 393.038 -10.8395 383.655L-26.4179 372.648C-31.4099 377.868 -37.6834 381.37 -44.3894 383.022L-41.2576 401.675ZM-82.6746 394.784C-72.2126 401.17 -60.3415 403.745 -48.809 402.802L-51.953 384.086C-58.6468 384.34 -65.4497 382.812 -71.5834 379.351L-82.6746 394.784ZM-71.6843 372.976C-57.4311 383.046 -37.6305 379.724 -27.4501 365.558C-17.273 351.397 -20.5692 331.754 -34.8224 321.684C-49.0711 311.617 -68.8768 314.937 -79.054 329.098C-89.2343 343.264 -85.933 362.909 -71.6843 372.976ZM-88.8839 390.397L-77.7927 374.964C-83.0966 370.344 -86.772 364.468 -88.7155 358.112L-107.585 361.274C-104.718 372.391 -98.3867 382.677 -88.8839 390.397ZM-108.975 353.831L-90.1703 350.678C-90.7855 343.853 -89.494 336.829 -86.1458 330.449L-101.727 319.441C-108.01 330.14 -110.325 342.217 -108.975 353.831ZM-81.9448 324.113C-77.1456 318.271 -70.8652 314.236 -64.0333 312.162L-67.1755 293.448C-78.8098 296.426 -89.553 303.108 -97.4436 313.163L-81.9448 324.113Z" fill="#F4F4F8"/>
<path d="M5.84216 139.888L6.21517 140.24C6.80698 140.8 7.72962 140.89 8.38625 140.405C9.23289 139.778 9.27973 138.57 8.55045 137.88L8.21807 137.565C7.7605 137.131 7.79474 136.394 8.29328 136.003C8.53906 135.811 8.78807 135.624 9.04058 135.443C9.5425 135.082 10.2484 135.231 10.5564 135.763L10.8169 136.212C11.2251 136.913 12.0844 137.258 12.8519 136.977C13.8423 136.613 14.2295 135.466 13.7255 134.598L13.4975 134.204C13.1803 133.66 13.4251 132.96 14.0151 132.724C14.3052 132.61 14.5977 132.501 14.8911 132.398C15.4743 132.193 16.1069 132.533 16.2516 133.13L16.3835 133.674C16.598 134.556 17.5017 135.102 18.3918 134.887C19.1053 135.392 20.0693 134.744 19.8641 133.898L19.513 132.454C19.3642 131.842 19.7964 131.239 20.4271 131.178C20.737 131.148 21.0471 131.124 21.3591 131.107C21.9776 131.073 22.4893 131.577 22.4586 132.19L22.4297 132.748C22.3844 133.654 23.0974 134.432 24.0104 134.475C24.925 134.518 25.7093 133.809 25.7547 132.903L25.7767 132.446C25.8081 131.818 26.3928 131.359 27.0154 131.476C27.3211 131.534 27.6253 131.598 27.9299 131.669C28.5309 131.808 28.8796 132.436 28.6755 133.015L28.4899 133.548C28.189 134.407 28.6512 135.352 29.5141 135.648L29.5147 135.647C30.3792 135.943 31.3329 135.484 31.6328 134.625L31.7839 134.197C31.9909 133.602 32.6835 133.324 33.2469 133.613C33.5219 133.753 33.7958 133.901 34.0674 134.054C34.6045 134.356 34.7602 135.055 34.4004 135.556L34.0721 136.012C33.5398 136.753 33.7135 137.789 34.4587 138.315C35.2039 138.842 36.2494 138.666 36.781 137.926L37.0462 137.557C37.415 137.044 38.1566 136.971 38.6151 137.406C38.8411 137.618 39.0623 137.835 39.2779 138.057C39.7079 138.497 39.6571 139.212 39.1718 139.591L38.7623 139.911C38.1197 140.413 37.894 141.307 38.2843 142.02C38.786 142.94 39.9842 143.155 40.7787 142.535L41.1405 142.253C41.64 141.863 42.3727 142.001 42.6892 142.546C42.8436 142.815 42.9936 143.085 43.1386 143.359C43.4244 143.902 43.1731 144.573 42.5987 144.802L42.0705 145.012C41.2203 145.35 40.8012 146.318 41.141 147.16C41.4801 148.004 42.4527 148.417 43.3029 148.079L43.7261 147.911C44.3155 147.676 44.9792 148.013 45.1265 148.625C45.1996 148.925 45.2664 149.226 45.3271 149.528C45.4473 150.13 45.0166 150.705 44.4014 150.763L43.8402 150.816C42.9301 150.904 42.2547 151.715 42.3393 152.619C42.4247 153.523 43.2418 154.192 44.1528 154.105L44.6075 154.062C45.24 154.002 45.7783 154.51 45.7487 155.138C45.7332 155.446 45.7124 155.755 45.6849 156.063C45.6303 156.675 45.0529 157.107 44.4456 156.991L43.891 156.886C42.9927 156.714 42.1143 157.303 41.9401 158.196C41.7657 159.087 42.3576 159.957 43.2558 160.129L43.7071 160.215C44.3293 160.335 44.7038 160.974 44.4953 161.569C44.3928 161.861 44.2843 162.15 44.17 162.438C43.9431 163.01 43.2679 163.263 42.7194 162.983L42.2153 162.725C41.4023 162.31 40.3932 162.63 39.9718 163.438C39.5518 164.246 39.8722 165.246 40.6853 165.661L41.0909 165.868C41.6515 166.155 41.8322 166.87 41.4654 167.381C41.4634 167.383 41.4608 167.387 41.4583 167.39C41.2761 167.644 41.0892 167.893 40.8984 168.137C40.5204 168.62 39.8027 168.669 39.357 168.249L38.9496 167.862C38.2878 167.237 37.2289 167.262 36.5958 167.92C35.9636 168.578 35.9873 169.629 36.649 170.254L36.9814 170.569C37.4405 171.003 37.4041 171.741 36.9056 172.132C36.6598 172.324 36.4108 172.511 36.1583 172.692C35.6564 173.053 34.951 172.903 34.6417 172.373L34.3577 171.883C33.9019 171.098 32.8794 170.826 32.0855 171.281C31.2917 171.736 31.0157 172.751 31.4727 173.538L31.7005 173.93C32.0172 174.476 31.773 175.176 31.1828 175.41C30.8936 175.524 30.6012 175.634 30.3083 175.736C29.7251 175.941 29.0917 175.6 28.9479 175.004L28.8151 174.46C28.6006 173.577 27.6969 173.031 26.8075 173.245C26.093 172.74 25.1299 173.389 25.3342 174.234L25.6853 175.678C25.8351 176.29 25.4028 176.894 24.7705 176.955C24.4615 176.985 24.1512 177.007 23.8404 177.027C23.2225 177.06 22.7102 176.556 22.7409 175.943L22.7664 175.432C22.8066 174.622 22.2738 173.87 21.4745 173.696C20.4434 173.472 19.4941 174.23 19.4448 175.231L19.4225 175.687C19.3914 176.316 18.8067 176.775 18.1847 176.657C17.8791 176.599 17.5739 176.534 17.2702 176.464C16.6692 176.325 16.3205 175.697 16.5237 175.117L16.6968 174.622C16.9622 173.865 16.6715 173.007 15.9701 172.613C15.042 172.091 13.901 172.553 13.5664 173.507L13.4154 173.935C13.2077 174.531 12.5148 174.807 11.9508 174.52C11.677 174.377 11.4025 174.231 11.1309 174.078C10.5938 173.775 10.4391 173.077 10.7989 172.577L11.1271 172.12C11.6594 171.379 11.4848 170.343 10.7405 169.817C9.99531 169.291 8.9514 169.466 8.4191 170.207L8.15392 170.576C7.78511 171.089 7.04356 171.162 6.58444 170.728C6.35908 170.515 6.13717 170.299 5.92224 170.076C5.49225 169.636 5.54056 168.921 6.02828 168.542L6.4365 168.224C7.07982 167.721 7.30393 166.827 6.91515 166.114C6.41279 165.194 5.21461 164.98 4.42082 165.599L4.05832 165.882C3.55888 166.272 2.82612 166.133 2.5096 165.588C2.35431 165.319 2.20431 165.049 2.05959 164.776C1.7735 164.233 2.02507 163.562 2.59947 163.333L3.08224 163.141C3.84299 162.839 4.31205 162.044 4.14094 161.249C3.91916 160.225 2.83277 159.685 1.89558 160.058L1.473 160.226C0.88365 160.46 0.219887 160.123 0.0716821 159.511C-0.00138024 159.211 -0.0682468 158.91 -0.128291 158.607C-0.249148 158.006 0.181619 157.431 0.796572 157.371L1.30927 157.323C2.12393 157.245 2.79934 156.612 2.85953 155.802C2.93788 154.757 2.0487 153.935 1.04453 154.03L0.58985 154.073C-0.0417366 154.133 -0.581011 153.625 -0.550527 152.997C-0.535279 152.688 -0.514238 152.38 -0.486739 152.073C-0.43213 151.461 0.145271 151.029 0.751656 151.144L1.30631 151.249C2.20545 151.422 3.08295 150.832 3.25779 149.938C3.75534 149.246 3.36626 148.277 2.524 148.117L1.4887 147.92C0.865799 147.801 0.493482 147.161 0.70206 146.566C0.803844 146.275 0.912327 145.985 1.02636 145.696C1.25418 145.125 1.92873 144.872 2.47857 145.152L2.98263 145.409C3.87926 145.867 5.01414 145.431 5.33636 144.431C5.58407 143.658 5.19604 142.822 4.46997 142.451L4.10681 142.264C3.54549 141.979 3.36544 141.263 3.73233 140.752C3.73426 140.749 3.73683 140.746 3.73941 140.742C3.92156 140.489 4.10758 140.239 4.29865 139.996C4.67846 139.515 5.3971 139.467 5.84216 139.888ZM30.9095 140.659C27.7806 138.75 24.2058 138.045 20.7693 138.447L21.6559 143.723C23.7282 143.534 25.8638 143.949 27.7723 145.025L30.9095 140.659ZM32.6664 141.901L29.5286 146.267C31.1771 147.704 32.2699 149.57 32.7665 151.574L38.0863 150.683C37.3479 147.331 35.5091 144.21 32.6664 141.901ZM38.4027 152.801L33.0646 153.697C33.1365 155.7 32.6281 157.738 31.4962 159.55L35.8808 162.648C37.8641 159.626 38.6746 156.16 38.4027 152.801ZM25.9786 169.462C29.236 168.748 32.2784 167.018 34.5838 164.363L30.1767 161.249C28.7654 162.726 26.9896 163.717 25.0926 164.185L25.9786 169.462ZM14.2605 167.512C17.2193 169.319 20.5786 170.047 23.8416 169.78L22.9518 164.486C21.0577 164.558 19.1332 164.126 17.3977 163.146L14.2605 167.512ZM20.055 157.605C22.0115 158.987 24.728 158.531 26.1254 156.587C27.5221 154.643 27.0697 151.947 25.1141 150.565C23.1585 149.184 20.4404 149.64 19.0437 151.584C17.6463 153.528 18.1003 156.224 20.055 157.605ZM12.5036 166.27L15.6414 161.904C14.1415 160.597 13.1014 158.935 12.5512 157.136L7.21379 158.031C8.02363 161.175 9.81581 164.086 12.5036 166.27ZM6.82007 155.926L12.1404 155.034C11.9662 153.103 12.3321 151.115 13.2791 149.311L8.87109 146.196C7.09293 149.222 6.43788 152.639 6.82007 155.926ZM14.4674 147.517C15.8257 145.864 17.6017 144.723 19.535 144.136L18.6459 138.841C15.3546 139.684 12.3146 141.574 10.0829 144.419L14.4674 147.517Z" fill="#F4F4F8"/>
<path d="M31.6236 372.915C32.6506 371.605 34.6095 371.47 35.8265 372.627L36.8439 373.591C38.4634 375.121 40.9726 375.37 42.7627 374.054C45.0595 372.354 45.1733 369.079 43.1826 367.195L42.2685 366.333C41.0249 365.154 41.1048 363.146 42.4597 362.087C43.1283 361.574 43.8162 361.062 44.493 360.564C45.8578 359.597 47.7819 360.012 48.6264 361.454L49.3344 362.677C50.4572 364.589 52.8069 365.536 54.8871 364.773C57.582 363.794 58.6244 360.678 57.246 358.328L56.6267 357.253C55.7529 355.76 56.4114 353.866 58.0146 353.237C58.8021 352.928 59.5985 352.629 60.3979 352.358C61.978 351.793 63.7063 352.729 64.108 354.355L64.4787 355.831C65.064 358.236 67.5329 359.728 69.961 359.151C71.9013 360.522 74.5187 358.775 73.9536 356.48L72.9886 352.55C72.5776 350.888 73.752 349.242 75.4624 349.085C76.3076 349.004 77.153 348.948 78.0048 348.902C79.6889 348.815 81.0808 350.193 81.01 351.861L80.9357 353.376C80.8262 355.835 82.7737 357.958 85.2542 358.08C87.7619 358.199 89.8823 356.284 89.9904 353.821L90.0514 352.584C90.1325 350.874 91.7202 349.631 93.4204 349.964C94.2528 350.117 95.0726 350.305 95.9011 350.482C97.5497 350.872 98.5036 352.584 97.9629 354.159L97.4524 355.597C96.6442 357.931 97.901 360.507 100.266 361.321C102.626 362.128 105.208 360.89 106.025 358.559L106.431 357.404C106.997 355.783 108.877 355.038 110.421 355.821C111.163 356.212 111.905 356.612 112.651 357.037C114.106 357.861 114.548 359.754 113.569 361.117L112.688 362.343C111.239 364.36 111.716 367.169 113.759 368.612C115.799 370.054 118.638 369.588 120.088 367.571L120.8 366.581C121.796 365.195 123.817 365 125.069 366.171C125.688 366.754 126.287 367.352 126.877 367.956C128.054 369.146 127.926 371.096 126.596 372.129L125.491 372.986C123.747 374.339 123.143 376.783 124.205 378.708C125.582 381.222 128.848 381.815 131.013 380.139L131.997 379.375C133.355 378.312 135.346 378.704 136.212 380.179C136.64 380.915 137.05 381.653 137.443 382.399C138.228 383.875 137.557 385.691 135.993 386.314L134.56 386.883C132.25 387.791 131.116 390.419 132.044 392.704C132.977 395.003 135.637 396.137 137.938 395.218L139.093 394.776C140.701 394.134 142.507 395.064 142.923 396.72C143.116 397.538 143.305 398.355 143.473 399.185C143.807 400.812 142.64 402.375 140.95 402.533L139.429 402.668C136.948 402.902 135.119 405.093 135.356 407.555C135.606 410.008 137.83 411.841 140.308 411.604L141.546 411.491C143.269 411.331 144.739 412.718 144.668 414.432C144.634 415.272 144.571 416.109 144.502 416.948C144.355 418.606 142.793 419.774 141.14 419.46L139.617 419.154C137.168 418.695 134.793 420.287 134.32 422.71C133.853 425.139 135.475 427.5 137.924 427.971L139.145 428.208C140.849 428.541 141.866 430.276 141.308 431.901C141.027 432.69 140.741 433.472 140.433 434.262C139.816 435.808 137.977 436.496 136.482 435.732L135.11 435.022C132.894 433.885 130.142 434.747 129 436.931C127.867 439.131 128.746 441.859 130.961 442.988L132.074 443.556C133.599 444.345 134.105 446.281 133.106 447.671C133.101 447.678 133.092 447.691 133.089 447.695C132.597 448.38 132.092 449.063 131.575 449.718C130.538 451.03 128.583 451.162 127.366 450.009L126.265 448.958C124.446 447.251 121.566 447.319 119.851 449.096C118.129 450.885 118.209 453.725 120.02 455.44L120.918 456.301C122.18 457.473 122.082 459.495 120.735 460.544C120.058 461.064 119.396 461.573 118.703 462.056C117.339 463.038 115.412 462.625 114.574 461.182L113.788 459.845C112.547 457.704 109.75 456.963 107.596 458.184C105.443 459.412 104.696 462.171 105.952 464.313L106.57 465.381C107.445 466.869 106.785 468.768 105.178 469.401C104.384 469.714 103.601 470.002 102.797 470.288C101.21 470.836 99.4856 469.902 99.0814 468.285L98.717 466.794C98.1218 464.401 95.6554 462.905 93.2466 463.479C91.2955 462.1 88.6713 463.849 89.2361 466.162L90.2033 470.086C90.6162 471.75 89.4402 473.387 87.7162 473.547C86.8798 473.623 86.0354 473.686 85.1941 473.738C83.504 473.822 82.1071 472.443 82.1829 470.776L82.2483 469.387C82.3521 467.19 80.8886 465.14 78.7104 464.662C75.9072 464.042 73.3219 466.091 73.2058 468.807L73.1454 470.048C73.0721 471.753 71.4699 473.008 69.7748 472.668C68.9422 472.513 68.1085 472.334 67.288 472.137C65.6369 471.761 64.6934 470.049 65.2404 468.469L65.7147 467.127C66.4242 465.075 65.6261 462.742 63.7033 461.657C61.1734 460.233 58.0766 461.478 57.1762 464.071L56.7653 465.228C56.2043 466.852 54.3281 467.598 52.788 466.801C52.0333 466.421 51.2792 466.02 50.5478 465.603C49.078 464.776 48.6504 462.875 49.6243 461.519L50.517 460.277C51.9621 458.266 51.4724 455.453 49.4373 454.015C47.4057 452.58 44.5659 453.041 43.1208 455.051L42.3999 456.054C41.4016 457.444 39.3762 457.637 38.1312 456.46C37.5066 455.876 36.9044 455.283 36.3162 454.678C35.1305 453.485 35.275 451.539 36.5882 450.511L37.7084 449.644C39.4529 448.29 40.0491 445.859 38.9895 443.922C37.6048 441.421 34.3396 440.825 32.1874 442.497L31.2102 443.254C29.8386 444.318 27.8408 443.937 26.9783 442.459C26.5511 441.721 26.1501 440.986 25.7496 440.232C24.9659 438.755 25.642 436.933 27.2009 436.318L28.526 435.802C30.5879 434.988 31.8571 432.831 31.3845 430.669C30.7769 427.887 27.8069 426.414 25.2531 427.418L24.1066 427.861C22.5004 428.497 20.6952 427.577 20.2844 425.916C20.0847 425.102 19.9023 424.283 19.7339 423.452C19.4005 421.816 20.5659 420.263 22.2424 420.104L23.6423 419.973C25.8567 419.769 27.6902 418.061 27.8525 415.853C28.0555 413.021 25.6271 410.778 22.8901 411.029L21.6543 411.141C19.9321 411.303 18.4587 409.914 18.5364 408.212C18.574 407.368 18.6286 406.53 18.7 405.687C18.8445 404.033 20.4204 402.856 22.0629 403.182L23.5784 403.476C26.0257 403.942 28.4114 402.349 28.8842 399.927C30.2333 398.05 29.166 395.409 26.8764 394.972L24.0508 394.427C22.3535 394.092 21.3326 392.355 21.8992 390.737C22.171 389.941 22.4596 389.161 22.7706 388.372C23.3825 386.823 25.213 386.141 26.7194 386.902L28.091 387.611C30.5381 388.87 33.6252 387.69 34.4925 384.982C35.165 382.875 34.1001 380.601 32.118 379.589L31.1267 379.079C29.6024 378.291 29.1019 376.34 30.0906 374.964C30.0977 374.954 30.1041 374.946 30.1118 374.935C30.6031 374.247 31.1014 373.579 31.6236 372.915ZM59.1592 422.055L76.6505 411.522L56.8087 406.708C55.9507 411.933 56.7691 417.322 59.1592 422.055ZM70.4715 388.276L81.0339 405.629L85.9485 385.919C80.6724 385.071 75.2409 385.9 70.4715 388.276ZM77.6219 407.676L67.0551 390.339C64.8536 391.916 62.8729 393.85 61.2071 396.168C59.6913 398.277 58.5388 400.527 57.7795 402.853L77.6219 407.676ZM49.9912 388.673C48.7013 390.467 49.1169 392.975 50.9334 394.258C52.7527 395.543 55.2782 395.114 56.5681 393.32C57.8658 391.514 57.4521 389.004 55.6329 387.719C53.8163 386.435 51.2888 386.867 49.9912 388.673ZM79.8757 376.587C79.5182 374.395 77.428 372.918 75.2255 373.301C73.0195 373.668 71.5339 375.736 71.9087 377.917C72.2709 380.094 74.3611 381.571 76.5589 381.202C78.7543 380.838 80.2399 378.771 79.8757 376.587ZM103.975 380.115C102.153 378.828 99.6395 379.249 98.3425 381.054C97.0461 382.858 97.4643 385.352 99.2863 386.639C101.097 387.919 103.619 387.502 104.916 385.698C106.213 383.893 105.786 381.395 103.975 380.115ZM96.5553 390.248C94.429 388.745 92.1732 387.62 89.8217 386.869L84.915 406.57L102.421 396.049C100.842 393.857 98.8795 391.89 96.5553 390.248ZM93.1702 433.193L82.5988 415.871L77.7009 435.558C82.9639 436.412 88.3917 435.582 93.1702 433.193ZM111.54 428.06C109.725 426.777 107.201 427.214 105.908 429.013C104.615 430.813 105.022 433.321 106.837 434.603C108.654 435.887 111.182 435.453 112.476 433.653C113.769 431.855 113.356 429.343 111.54 428.06ZM102.436 425.299C103.941 423.204 105.08 420.943 105.858 418.63L86.0191 413.812L96.5782 431.146C98.7882 429.571 100.773 427.613 102.436 425.299ZM104.478 399.424L86.9566 409.949L106.824 414.774C107.695 409.535 106.871 404.16 104.478 399.424ZM119.411 405.109C119.033 402.928 116.958 401.462 114.761 401.824C112.555 402.198 111.073 404.26 111.442 406.443C111.807 408.63 113.882 410.096 116.091 409.728C118.289 409.359 119.771 407.296 119.411 405.109ZM82.596 445.74C82.9665 447.929 85.0432 449.397 87.2534 449.031C89.4601 448.659 90.9399 446.6 90.5773 444.406C90.2009 442.22 88.1242 440.752 85.9199 441.115C83.7189 441.498 82.2385 443.558 82.596 445.74ZM58.4996 442.224C60.3144 443.506 62.8313 443.078 64.1302 441.27C65.4246 439.469 65.0099 436.972 63.1952 435.69C61.3759 434.405 58.8486 434.823 57.5542 436.624C56.2546 438.432 56.6813 440.939 58.4996 442.224ZM67.103 431.23C69.2005 432.712 71.4635 433.861 73.8155 434.616L78.728 414.916L61.2131 425.432C62.799 427.631 64.7634 429.577 67.103 431.23ZM43.0639 417.222C43.4295 419.4 45.517 420.875 47.7114 420.505C49.9204 420.128 51.406 418.061 51.0314 415.886C50.6754 413.698 48.5878 412.223 46.3839 412.602C44.1841 412.959 42.6985 415.026 43.0639 417.222Z" fill="#F4F4F8"/>
<path d="M32.683 490.08L29.4924 485.711L32.01 482.674L36.9474 484.94C37.7496 484.191 38.6084 483.491 39.5193 482.84L38.1933 477.538L41.6762 475.665L45.4147 479.668C46.5702 479.226 47.7398 478.872 48.9194 478.601L49.7844 473.266L53.7237 472.882L55.5935 477.952C56.7041 477.987 57.8084 478.094 58.8999 478.269L61.7269 473.64L65.5185 474.756L65.3237 480.159C66.4357 480.649 67.5163 481.217 68.5522 481.858L72.9661 478.683L76.0189 481.176L73.7234 486.079C74.4737 486.875 75.1799 487.725 75.8345 488.628L81.1799 487.3L83.0595 490.751L79.0154 494.472C79.4581 495.616 79.8128 496.777 80.0839 497.946L85.4581 498.79L85.8361 502.7L80.7194 504.567C80.6811 505.67 80.5706 506.765 80.3929 507.848L85.0518 510.644L83.9172 514.41L78.4724 514.23C77.9769 515.334 77.4031 516.407 76.7521 517.438L79.9414 521.809L77.4235 524.844L72.487 522.579C71.6821 523.325 70.826 524.028 69.9142 524.678L71.2408 529.979L67.7582 531.853L64.0176 527.848C62.8637 528.29 61.6937 528.646 60.5141 528.917L59.6507 534.252L55.7116 534.637L53.8416 529.566C52.731 529.531 51.6266 529.424 50.5355 529.25L47.7084 533.879L43.915 532.762L44.1105 527.358C42.9987 526.869 41.918 526.301 40.8813 525.659L36.4683 528.836L33.4148 526.344L35.7094 521.44C34.9591 520.643 34.2532 519.795 33.5989 518.894L28.2532 520.22L26.3733 516.768L30.4183 513.048C29.975 511.904 29.6203 510.743 29.3514 509.573L23.9763 508.729L23.5986 504.82L28.7144 502.953C28.752 501.85 28.8631 500.754 29.0427 499.672L24.3838 496.876L25.5186 493.112L30.9635 493.293C31.459 492.184 32.0322 491.112 32.683 490.08ZM45.9406 503.993C45.8821 502.388 46.565 500.371 47.1138 499.408L37.9578 492.939C34.8541 497.499 34.253 501.479 34.7011 505.921L45.9406 503.993ZM52.2699 506.612C53.9491 507.799 56.2938 507.405 57.4943 505.735C58.6942 504.065 58.303 501.74 56.6238 500.554C54.9427 499.366 52.5995 499.759 51.3997 501.429C50.1992 503.099 50.5888 505.424 52.2699 506.612ZM39.266 491.163L48.4581 497.657C49.3059 496.906 51.1254 495.674 52.7413 495.33L50.8995 484.195C46.4464 485.081 42.0765 487.747 39.266 491.163ZM53.0456 484.315L55.1353 495.651C56.4673 495.655 57.3339 495.639 59.2474 496.767L65.99 487.385C61.2855 484.456 57.2932 483.859 53.0456 484.315ZM66.9203 487.986L60.1777 497.368C61.9045 498.755 62.1977 499.721 62.6562 501.223L74.3966 499.312C73.355 494.902 70.4815 490.611 66.9203 487.986ZM74.5732 500.873L62.9331 502.797C63.0559 504.317 62.5042 506.231 62.0512 507.261L71.7708 514.128C74.1062 510.376 75.2141 505.369 74.5732 500.873ZM70.5024 515.933L60.8216 509.093C60.0894 509.926 58.5866 511.089 57.167 511.582L59.0832 523.25C63.505 522.235 67.1692 520.33 70.5024 515.933ZM57.541 523.522L55.6708 512.036C53.8611 512.259 52.2908 512.13 50.3915 510.982L43.6637 520.344C47.3332 522.82 52.7797 524.175 57.541 523.522ZM42.789 519.668L49.5168 510.306C47.8363 508.854 47.0741 507.485 46.6852 505.972L35.7002 507.999C36.5516 512.39 38.47 516.202 42.789 519.668Z" fill="#F4F4F8"/>
</g>
</g>
</svg>
