<svg width="252" height="609" viewBox="0 0 252 609" fill="none" xmlns="http://www.w3.org/2000/svg">
<g opacity="0.05">
<mask id="mask0_332_6099" style="mask-type:alpha" maskUnits="userSpaceOnUse" x="0" y="0" width="252" height="609">
<rect width="608.506" height="252" transform="matrix(4.37114e-08 -1 -1 -4.37114e-08 252 608.506)" fill="white"/>
</mask>
<g mask="url(#mask0_332_6099)">
<path d="M261.181 91.735C253.758 97.0247 252.034 107.384 257.337 114.825C262.639 122.267 272.994 124.019 280.417 118.73C287.841 113.439 289.567 103.079 284.264 95.6371C278.962 88.1954 268.606 86.4445 261.181 91.735ZM275.061 111.214C271.772 113.557 267.182 112.78 264.833 109.483C262.483 106.186 263.248 101.596 266.538 99.2519C269.829 96.9067 274.416 97.6826 276.766 100.98C279.115 104.277 278.352 108.868 275.061 111.214Z" fill="white"/>
<path d="M313.404 78.5743L319.652 69.9471L314.722 63.9531L305.058 68.4241C303.486 66.9494 301.806 65.5652 300.023 64.2792L302.619 53.8111L295.801 50.1151L288.482 58.0191C286.221 57.1462 283.93 56.4475 281.623 55.9116L279.931 45.3795L272.221 44.6231L268.56 54.6339C266.386 54.7045 264.224 54.9141 262.088 55.2596L256.552 46.1213L249.129 48.3249L249.51 58.9938C247.334 59.96 245.219 61.0802 243.189 62.3478L234.549 56.076L228.573 60.9971L233.064 70.6767C231.595 72.2484 230.213 73.9254 228.932 75.7078L218.471 73.0867L214.79 79.9011L222.708 87.2457C221.842 89.5036 221.145 91.7975 220.617 94.1053L210.097 95.7713L209.358 103.491L219.372 107.174C219.448 109.352 219.662 111.515 220.011 113.654L210.893 119.173L213.113 126.606L223.773 126.251C224.743 128.429 225.866 130.551 227.139 132.584L220.896 141.214L225.826 147.206L235.486 142.735C237.062 144.21 238.74 145.595 240.524 146.882L237.928 157.348L244.746 161.047L252.067 153.141C254.326 154.014 256.616 154.716 258.925 155.251L260.617 165.783L268.329 166.541L271.989 156.528C274.162 156.46 276.324 156.249 278.461 155.905L283.995 165.043L291.418 162.838L291.036 152.169C293.212 151.204 295.327 150.084 297.358 148.815L305.997 155.086L311.973 150.165L307.481 140.485C308.951 138.912 310.332 137.236 311.614 135.456L322.077 138.076L325.756 131.259L317.839 123.918C318.707 121.658 319.4 119.366 319.93 117.054L330.45 115.389L331.189 107.672L321.177 103.985C321.102 101.809 320.888 99.6447 320.534 97.5073L329.655 91.9871L327.435 84.5535L316.775 84.9112C315.802 82.7284 314.679 80.6114 313.404 78.5743ZM293.044 137.537C275.438 150.082 250.972 145.943 238.396 128.295C225.819 110.645 229.895 86.1676 247.5 73.6227C265.105 61.0778 289.574 65.215 302.151 82.8644C314.727 100.513 310.649 124.992 293.044 137.537Z" fill="white"/>
<path d="M255.561 503.312C251.094 506.496 250.056 512.73 253.246 517.208C256.438 521.688 262.67 522.74 267.136 519.558C271.605 516.374 272.643 510.14 269.451 505.66C266.261 501.183 260.029 500.128 255.561 503.312ZM263.914 515.034C261.935 516.444 259.172 515.977 257.758 513.993C256.343 512.008 256.806 509.246 258.785 507.836C260.765 506.425 263.525 506.892 264.939 508.876C266.353 510.86 265.894 513.623 263.914 515.034Z" fill="white"/>
<path d="M286.984 495.392L290.743 490.2L287.776 486.593L281.96 489.283C281.014 488.397 280.004 487.563 278.93 486.788L280.492 480.489L276.388 478.265L271.985 483.021C270.623 482.496 269.246 482.076 267.856 481.753L266.838 475.415L262.198 474.96L259.995 480.983C258.685 481.026 257.385 481.151 256.1 481.36L252.769 475.861L248.301 477.187L248.532 483.607C247.222 484.187 245.949 484.861 244.727 485.626L239.528 481.852L235.932 484.813L238.635 490.638C237.751 491.584 236.92 492.594 236.149 493.665L229.853 492.088L227.638 496.188L232.404 500.608C231.883 501.967 231.463 503.348 231.144 504.737L224.813 505.739L224.369 510.385L230.396 512.602C230.442 513.913 230.57 515.213 230.781 516.501L225.294 519.822L226.631 524.295L233.047 524.081C233.631 525.393 234.306 526.668 235.073 527.894L231.315 533.086L234.282 536.692L240.095 534.002C241.042 534.889 242.053 535.724 243.127 536.497L241.564 542.795L245.666 545.021L250.071 540.263C251.431 540.788 252.809 541.211 254.199 541.533L255.217 547.871L259.858 548.326L262.06 542.301C263.369 542.26 264.669 542.134 265.957 541.926L269.286 547.425L273.754 546.098L273.523 539.678C274.832 539.097 276.104 538.423 277.328 537.66L282.526 541.432L286.122 538.472L283.419 532.646C284.304 531.7 285.135 530.691 285.905 529.621L292.202 531.197L294.417 527.095L289.652 522.677C290.174 521.317 290.593 519.937 290.911 518.547L297.241 517.546L297.687 512.901L291.661 510.682C291.616 509.374 291.487 508.071 291.274 506.784L296.763 503.462L295.426 498.988L289.012 499.203C288.427 497.892 287.75 496.619 286.984 495.392ZM274.733 530.873C264.138 538.423 249.414 535.931 241.846 525.311C234.278 514.69 236.73 499.96 247.324 492.411C257.918 484.862 272.644 487.353 280.212 497.973C287.78 508.595 285.326 523.324 274.733 530.873Z" fill="white"/>
<path d="M118.083 259.089C104.787 268.563 101.697 287.117 111.195 300.446C120.693 313.775 139.241 316.913 152.536 307.439C165.834 297.964 168.925 279.407 159.427 266.078C149.929 252.749 131.38 249.614 118.083 259.089ZM142.943 293.977C137.055 298.173 128.832 296.782 124.624 290.877C120.415 284.971 121.787 276.75 127.677 272.553C133.571 268.354 141.788 269.742 145.996 275.648C150.204 281.553 148.837 289.777 142.943 293.977Z" fill="white"/>
<path d="M211.616 235.515L222.805 220.062L213.975 209.326L196.664 217.335C193.849 214.693 190.841 212.213 187.646 209.91L192.296 191.159L180.083 184.539L166.974 198.696C162.926 197.133 158.82 195.882 154.687 194.921L151.656 176.056L137.845 174.701L131.289 192.631C127.394 192.757 123.523 193.133 119.695 193.752L109.782 177.383L96.4872 181.33L97.1706 200.441C93.2722 202.171 89.4852 204.177 85.8488 206.45L70.3747 195.218L59.6729 204.034L67.7158 221.372C65.0848 224.186 62.6113 227.191 60.3151 230.383L41.5769 225.688L34.9835 237.893L49.1658 251.049C47.6139 255.094 46.3667 259.201 45.4187 263.336L26.5773 266.319L25.2529 280.145L43.1886 286.743C43.3252 290.645 43.7083 294.52 44.3324 298.351L27.9993 308.235L31.9765 321.55L51.0713 320.913C52.8058 324.816 54.8206 328.613 57.0997 332.257L45.9156 347.716L54.7453 358.448L72.05 350.439C74.8718 353.081 77.8783 355.563 81.0725 357.868L76.4215 376.614L88.6346 383.237L101.748 369.076C105.793 370.638 109.897 371.896 114.032 372.853L117.062 391.718L130.875 393.075L137.428 375.141C141.324 375.017 145.194 374.639 149.023 374.025L158.936 390.393L172.23 386.442L171.546 367.331C175.445 365.603 179.232 363.596 182.87 361.326L198.343 372.558L209.046 363.743L201.003 346.403C203.634 343.587 206.108 340.585 208.404 337.397L227.145 342.091L233.735 329.879L219.555 316.729C221.109 312.683 222.351 308.577 223.299 304.436L242.142 301.454L243.466 287.631L225.531 281.028C225.398 277.131 225.013 273.254 224.383 269.426L240.718 259.54L236.74 246.227L217.647 246.866C215.909 242.956 213.897 239.165 211.616 235.515ZM175.146 341.127C143.613 363.597 99.7883 356.185 77.2626 324.573C54.7361 292.96 62.0378 249.116 93.5707 226.646C125.104 204.177 168.932 211.586 191.458 243.199C213.984 274.811 206.679 318.657 175.146 341.127Z" fill="white"/>
<path d="M355.565 203.294L362.196 194.139L356.961 187.779L346.706 192.524C345.035 190.96 343.257 189.489 341.359 188.124L344.118 177.015L336.879 173.093L329.11 181.479C326.71 180.554 324.282 179.811 321.83 179.245L320.037 168.064L311.85 167.264L307.966 177.888C305.661 177.961 303.368 178.186 301.1 178.549L295.224 168.852L287.342 171.193L287.752 182.514C285.441 183.538 283.198 184.726 281.046 186.074L271.874 179.418L265.531 184.641L270.298 194.917C268.739 196.581 267.277 198.363 265.917 200.254L254.813 197.47L250.906 204.702L259.309 212.501C258.387 214.894 257.649 217.331 257.088 219.781L245.923 221.546L245.139 229.741L255.768 233.646C255.852 235.96 256.075 238.254 256.445 240.527L246.766 246.384L249.122 254.272L260.438 253.893C261.47 256.206 262.658 258.458 264.008 260.616L257.382 269.774L262.616 276.136L272.87 271.389C274.538 272.957 276.321 274.427 278.219 275.792L275.46 286.899L282.696 290.827L290.465 282.433C292.862 283.362 295.294 284.105 297.749 284.67L299.541 295.848L307.725 296.654L311.609 286.03C313.918 285.955 316.212 285.727 318.48 285.367L324.356 295.062L332.229 292.724L331.825 281.396C334.137 280.375 336.379 279.186 338.534 277.841L347.702 284.496L354.045 279.274L349.279 269C350.84 267.329 352.304 265.549 353.663 263.661L364.769 266.443L368.674 259.206L360.273 251.413C361.194 249.016 361.932 246.582 362.49 244.132L373.657 242.364L374.438 234.174L363.812 230.262C363.73 227.953 363.508 225.656 363.13 223.386L372.809 217.53L370.457 209.639L359.14 210.019C358.109 207.704 356.918 205.46 355.565 203.294ZM321.283 248.086C312.395 254.418 300.043 252.332 293.694 243.422C287.348 234.516 289.407 222.158 298.295 215.825C307.178 209.495 319.532 211.582 325.878 220.489C332.226 229.399 330.165 241.756 321.283 248.086Z" fill="white"/>
<path d="M87.7118 402.578L92.3148 396.221L88.6832 391.806L81.564 395.102C80.4055 394.015 79.1706 392.994 77.8566 392.044L79.7684 384.337L74.7423 381.612L69.3526 387.435C67.6851 386.791 65.9963 386.278 64.2987 385.883L63.0499 378.124L57.3718 377.565L54.676 384.939C53.0728 384.989 51.4797 385.146 49.9046 385.403L45.8268 378.668L40.3561 380.293L40.6414 388.151C39.0369 388.867 37.4786 389.686 35.9841 390.622L29.6188 386.006L25.2169 389.631L28.5246 396.76C27.4433 397.921 26.427 399.154 25.481 400.469L17.7752 398.537L15.063 403.556L20.8964 408.969C20.2537 410.632 19.746 412.322 19.3565 414.02L11.6049 415.245L11.0584 420.935L18.4362 423.648C18.4954 425.254 18.6492 426.847 18.9088 428.422L12.19 432.489L13.8271 437.96L21.6794 437.704C22.3902 439.308 23.2204 440.868 24.1596 442.366L19.5626 448.728L23.1933 453.143L30.3118 449.847C31.4719 450.934 32.7068 451.955 34.0216 452.9L32.1091 460.616L37.1325 463.337L42.525 457.512C44.1877 458.156 45.8785 458.671 47.5778 459.066L48.8243 466.824L54.506 467.387L57.201 460.007C58.8023 459.958 60.3923 459.799 61.9732 459.548L66.0483 466.279L71.518 464.655L71.233 456.795C72.8407 456.086 74.3958 455.26 75.8916 454.327L82.257 458.943L86.6616 455.321L83.3489 448.187C84.4332 447.029 85.4464 445.793 86.3958 444.483L94.1017 446.415L96.8112 441.392L90.9798 435.982C91.6211 434.317 92.1309 432.63 92.5201 430.923L100.274 429.697L100.812 424.012L93.4368 421.297C93.3826 419.692 93.2262 418.099 92.9642 416.523L99.6871 412.461L98.0495 406.983L90.1961 407.246C89.4821 405.636 88.6528 404.08 87.7118 402.578ZM76.1231 450.802C60.5185 461.921 38.8307 458.253 27.6823 442.608C16.5353 426.964 20.1474 405.265 35.751 394.146C51.3575 383.025 73.0467 386.696 84.1937 402.339C95.3414 417.983 91.7296 439.681 76.1231 450.802Z" fill="white"/>
<path d="M75.2063 449.518C60.3328 460.117 39.5878 456.608 28.961 441.695C18.3362 426.785 21.7894 406.027 36.6629 395.429C51.5384 384.829 72.2864 388.34 82.9118 403.251C93.5377 418.165 90.0818 438.919 75.2063 449.518ZM38.8796 398.539C25.7172 407.918 22.6573 426.287 32.0614 439.484C41.4661 452.682 59.8273 455.787 72.9897 446.408C86.155 437.026 89.2148 418.658 79.8101 405.46C70.4051 392.263 52.0439 389.159 38.8796 398.539Z" fill="white"/>
<path d="M372.053 339.59L370.645 340.932C368.413 343.063 364.928 343.409 362.452 341.559C359.254 339.173 359.078 334.579 361.832 331.948L363.088 330.751C364.819 329.099 364.686 326.289 362.804 324.805C361.877 324.072 360.936 323.36 359.984 322.67C358.09 321.297 355.428 321.865 354.264 323.888L353.281 325.595C351.74 328.268 348.496 329.583 345.599 328.509C341.865 327.12 340.401 322.755 342.303 319.455L343.164 317.959C344.359 315.885 343.441 313.218 341.21 312.325C340.118 311.888 339.014 311.474 337.909 311.082C335.707 310.301 333.319 311.598 332.772 313.867L332.272 315.94C331.464 319.299 328.054 321.377 324.694 320.56C322 322.48 318.362 320.016 319.139 316.795L320.461 311.296C321.024 308.969 319.393 306.67 317.011 306.44C315.841 306.326 314.669 306.235 313.497 306.17C311.165 306.038 309.233 307.958 309.349 310.291L309.454 312.415C309.624 315.867 306.938 318.827 303.488 318.99C300.037 319.15 297.076 316.457 296.905 313.003L296.821 311.269C296.704 308.877 294.495 307.129 292.146 307.58C290.994 307.8 289.843 308.043 288.695 308.312C286.423 308.842 285.11 311.228 285.879 313.439L286.584 315.467C287.719 318.735 285.976 322.332 282.716 323.459L282.714 323.457C279.451 324.586 275.854 322.835 274.719 319.568L274.152 317.935C273.367 315.67 270.755 314.613 268.629 315.711C267.588 316.246 266.557 316.806 265.531 317.389C263.503 318.543 262.918 321.199 264.276 323.104L265.514 324.843C267.523 327.662 266.866 331.606 264.056 333.608C261.244 335.612 257.301 334.944 255.293 332.126L254.292 330.721C252.9 328.767 250.102 328.491 248.37 330.142C247.517 330.952 246.681 331.779 245.868 332.62C244.243 334.295 244.432 337.018 246.268 338.462L247.81 339.677C250.239 341.587 251.088 344.993 249.615 347.704C247.721 351.207 243.201 352.023 240.2 349.663L238.832 348.589C236.947 347.104 234.184 347.63 232.988 349.706C232.402 350.726 231.837 351.759 231.291 352.8C230.213 354.866 231.16 357.423 233.325 358.291L235.319 359.091C238.528 360.378 240.109 364.058 238.827 367.265C237.546 370.475 233.876 372.045 230.667 370.76L229.073 370.119C226.847 369.224 224.345 370.509 223.784 372.838C223.51 373.98 223.259 375.128 223.029 376.279C222.575 378.569 224.201 380.758 226.524 380.979L228.641 381.184C232.08 381.517 234.627 384.604 234.307 388.044C233.983 391.487 230.904 394.03 227.462 393.699L225.748 393.534C223.364 393.305 221.329 395.238 221.443 397.631C221.499 398.804 221.581 399.98 221.683 401.152C221.889 403.48 224.065 405.123 226.36 404.687L228.456 404.285C231.847 403.632 235.16 405.876 235.82 409.272C236.478 412.665 234.242 415.979 230.852 416.63L229.149 416.958C226.8 417.411 225.389 419.841 226.177 422.11C226.562 423.22 226.97 424.323 227.403 425.421C228.259 427.597 230.809 428.563 232.881 427.491L234.782 426.512C237.851 424.931 241.659 426.151 243.249 429.225C244.836 432.302 243.624 436.109 240.558 437.692L239.028 438.481C236.911 439.571 236.229 442.294 237.613 444.237C237.622 444.249 237.632 444.264 237.64 444.275C238.329 445.242 239.032 446.188 239.753 447.116C241.181 448.954 243.889 449.143 245.571 447.541L247.107 446.072C249.604 443.689 253.601 443.786 255.988 446.291C258.375 448.794 258.285 452.795 255.79 455.177L254.535 456.376C252.804 458.029 252.938 460.839 254.819 462.323C255.745 463.056 256.686 463.768 257.636 464.458C259.53 465.832 262.192 465.262 263.358 463.241L264.43 461.377C266.152 458.384 270.011 457.352 273.005 459.085C276 460.816 277.04 464.68 275.317 467.676L274.456 469.168C273.261 471.245 274.181 473.911 276.409 474.803C277.503 475.239 278.603 475.655 279.71 476.046C281.909 476.826 284.3 475.529 284.846 473.26L285.345 471.188C286.156 467.831 289.566 465.753 292.924 466.568C295.618 464.649 299.258 467.115 298.482 470.333L297.159 475.831C296.597 478.16 298.226 480.459 300.609 480.689C301.776 480.803 302.949 480.891 304.122 480.96C306.451 481.09 308.383 479.171 308.27 476.836L308.175 474.892C308.023 471.804 310.035 468.943 313.052 468.28C316.94 467.429 320.526 470.314 320.712 474.123L320.798 475.857C320.913 478.251 323.121 479.998 325.473 479.55C326.625 479.33 327.775 479.084 328.923 478.816C331.194 478.285 332.509 475.897 331.739 473.688L331.085 471.805C330.085 468.922 331.181 465.657 333.83 464.156C337.334 462.168 341.638 463.927 342.9 467.559L343.468 469.192C344.254 471.458 346.866 472.514 348.992 471.416C350.032 470.876 351.064 470.318 352.088 469.735C354.115 468.584 354.7 465.925 353.343 464.02L352.105 462.283C350.096 459.464 350.756 455.52 353.565 453.518C356.377 451.515 360.319 452.18 362.327 454.999L363.328 456.403C364.719 458.355 367.518 458.631 369.252 456.982C370.104 456.171 370.939 455.345 371.751 454.503C373.378 452.828 373.19 450.106 371.351 448.658L369.81 447.449C367.382 445.535 366.533 442.133 368.003 439.418C369.9 435.917 374.421 435.1 377.42 437.461L378.787 438.536C380.675 440.021 383.439 439.496 384.631 437.417C385.218 436.397 385.783 435.365 386.329 434.325C387.408 432.255 386.46 429.702 384.293 428.833L382.469 428.102C379.6 426.951 377.831 423.922 378.477 420.901C379.31 417.003 383.413 414.946 386.954 416.366L388.546 417.005C390.773 417.898 393.276 416.616 393.835 414.286C394.11 413.145 394.363 411.995 394.59 410.845C395.046 408.555 393.42 406.367 391.094 406.143L389.16 405.956C386.086 405.658 383.536 403.249 383.306 400.168C383.008 396.191 386.364 393.059 390.156 393.424L391.872 393.589C394.254 393.818 396.292 391.883 396.175 389.493C396.119 388.318 396.04 387.146 395.936 385.974C395.729 383.642 393.553 382 391.258 382.438L389.163 382.839C385.771 383.493 382.459 381.246 381.798 377.85C379.921 375.216 381.392 371.527 384.564 370.917L388.47 370.167C390.82 369.716 392.229 367.281 391.442 365.015C391.056 363.906 390.647 362.8 390.216 361.701C389.358 359.527 386.811 358.565 384.736 359.631L382.835 360.612C379.449 362.356 375.165 360.691 373.952 356.89C373.014 353.946 374.481 350.764 377.221 349.351L378.591 348.646C380.708 347.554 381.39 344.83 380.005 342.887C379.996 342.875 379.987 342.863 379.977 342.848C379.29 341.884 378.587 340.936 377.866 340.01C376.441 338.172 373.733 337.984 372.053 339.59ZM277.443 342.528C289.253 335.26 302.747 332.575 315.717 334.105L312.371 354.191C304.549 353.472 296.486 355.055 289.285 359.149L277.442 342.529L277.443 342.528ZM270.813 347.253L282.656 363.873C276.435 369.343 272.309 376.447 270.435 384.073L250.356 380.679C253.143 367.921 260.088 356.043 270.813 347.253ZM249.16 388.744L269.306 392.151C269.035 399.776 270.951 407.533 275.227 414.431L258.677 426.224C251.194 414.724 248.137 401.533 249.16 388.744ZM296.054 452.16C283.76 449.44 272.274 442.858 263.574 432.753L280.208 420.9C285.539 426.521 292.238 430.293 299.398 432.072L296.054 452.16ZM340.279 444.738C329.108 451.615 316.432 454.388 304.118 453.373L307.475 433.218C314.622 433.491 321.886 431.846 328.436 428.118L340.279 444.738ZM328.544 421.253C313.324 432.098 292.181 428.52 281.311 413.264C270.444 398.014 273.963 376.86 289.183 366.015C304.397 355.174 325.546 358.75 336.413 374C347.284 389.255 343.758 410.411 328.544 421.253ZM346.909 440.014L335.066 423.394C340.73 418.419 344.654 412.091 346.73 405.246L366.878 408.651C363.817 420.623 357.057 431.7 346.909 440.014ZM368.362 400.635L348.283 397.24C348.94 389.89 347.561 382.326 343.986 375.455L360.623 363.6C367.332 375.122 369.804 388.127 368.362 400.635ZM339.5 368.631C334.375 362.34 327.669 357.994 320.374 355.761L323.729 335.607C336.152 338.814 347.624 346.01 356.05 356.839L339.5 368.631Z" fill="white"/>
<path d="M245.762 170.247L245.363 170.627C244.731 171.23 243.746 171.327 243.045 170.804C242.141 170.129 242.091 168.829 242.87 168.085L243.225 167.746C243.713 167.278 243.677 166.484 243.144 166.064C242.882 165.857 242.616 165.655 242.346 165.46C241.81 165.071 241.056 165.232 240.728 165.805L240.45 166.288C240.014 167.044 239.096 167.416 238.277 167.113C237.219 166.72 236.806 165.485 237.344 164.55L237.587 164.127C237.926 163.541 237.664 162.786 237.034 162.533C236.725 162.41 236.412 162.292 236.099 162.181C235.476 161.96 234.801 162.327 234.646 162.969L234.506 163.555C234.276 164.505 233.311 165.094 232.361 164.862C231.599 165.405 230.57 164.708 230.789 163.797L231.164 162.241C231.323 161.582 230.861 160.933 230.188 160.867C229.857 160.835 229.526 160.81 229.193 160.791C228.532 160.754 227.986 161.298 228.019 161.958L228.049 162.558C228.098 163.534 227.336 164.372 226.362 164.418C225.385 164.464 224.547 163.701 224.499 162.725L224.475 162.233C224.442 161.557 223.818 161.062 223.153 161.189C222.826 161.251 222.502 161.32 222.176 161.396C221.535 161.546 221.162 162.222 221.38 162.846L221.578 163.42C221.9 164.344 221.406 165.362 220.485 165.681L220.484 165.68C219.561 165.999 218.543 165.505 218.222 164.58L218.061 164.119C217.84 163.478 217.1 163.179 216.499 163.49C216.205 163.641 215.913 163.8 215.623 163.964C215.049 164.29 214.883 165.043 215.267 165.582L215.618 166.074C216.186 166.871 216.001 167.987 215.205 168.554C214.409 169.121 213.293 168.932 212.725 168.135L212.442 167.738C212.048 167.185 211.256 167.106 210.767 167.574C210.525 167.803 210.289 168.037 210.059 168.275C209.6 168.749 209.654 169.519 210.172 169.928L210.609 170.272C211.296 170.813 211.537 171.775 211.12 172.544C210.584 173.535 209.305 173.766 208.456 173.098L208.07 172.794C207.537 172.374 206.754 172.523 206.416 173.11C206.251 173.399 206.091 173.691 205.936 173.986C205.631 174.57 205.9 175.293 206.513 175.54L207.077 175.766C207.985 176.13 208.432 177.172 208.07 178.079C207.707 178.987 206.669 179.432 205.761 179.068L205.309 178.887C204.68 178.635 203.971 178.997 203.814 179.656C203.736 179.979 203.664 180.304 203.6 180.629C203.471 181.277 203.931 181.896 204.588 181.959L205.187 182.016C206.159 182.111 206.88 182.984 206.79 183.957C206.699 184.931 205.826 185.652 204.854 185.558L204.368 185.512C203.693 185.447 203.118 185.994 203.149 186.671C203.166 187.002 203.188 187.335 203.218 187.666C203.276 188.326 203.892 188.791 204.541 188.666L205.133 188.553C206.092 188.368 207.03 189.003 207.216 189.964C207.403 190.923 206.77 191.861 205.811 192.045L205.329 192.138C204.665 192.267 204.265 192.955 204.488 193.596C204.597 193.911 204.713 194.222 204.835 194.532C205.077 195.148 205.798 195.421 206.384 195.118L206.922 194.841C207.791 194.394 208.868 194.739 209.318 195.609C209.766 196.479 209.424 197.556 208.556 198.003L208.123 198.226C207.524 198.535 207.331 199.305 207.723 199.855C207.725 199.858 207.728 199.862 207.731 199.865C207.925 200.138 208.125 200.406 208.329 200.67C208.732 201.189 209.499 201.242 209.975 200.79L210.41 200.374C211.116 199.7 212.247 199.727 212.923 200.435C213.598 201.144 213.573 202.276 212.866 202.95L212.511 203.288C212.021 203.755 212.06 204.551 212.592 204.971C212.855 205.178 213.12 205.38 213.39 205.575C213.926 205.964 214.679 205.802 215.009 205.231L215.313 204.704C215.799 203.858 216.891 203.566 217.739 204.055C218.587 204.545 218.881 205.638 218.393 206.486L218.15 206.908C217.812 207.496 218.073 208.25 218.703 208.502C219.012 208.625 219.324 208.743 219.637 208.853C220.259 209.074 220.936 208.707 221.089 208.065L221.231 207.478C221.46 206.528 222.425 205.94 223.375 206.17C224.138 205.627 225.166 206.325 224.948 207.235L224.573 208.791C224.413 209.45 224.875 210.1 225.55 210.166C225.88 210.198 226.211 210.222 226.543 210.243C227.203 210.279 227.75 209.737 227.717 209.076L227.69 208.526C227.647 207.653 228.216 206.844 229.069 206.656C230.17 206.415 231.184 207.231 231.237 208.309L231.26 208.8C231.294 209.477 231.918 209.972 232.582 209.844C232.909 209.782 233.234 209.713 233.559 209.637C234.2 209.487 234.573 208.811 234.356 208.187L234.171 207.654C233.888 206.838 234.198 205.914 234.947 205.489C235.938 204.927 237.156 205.425 237.514 206.453L237.675 206.914C237.897 207.555 238.636 207.853 239.239 207.543C239.531 207.39 239.824 207.232 240.114 207.067C240.688 206.742 240.853 205.99 240.469 205.451L240.118 204.959C239.55 204.161 239.736 203.045 240.531 202.479C241.327 201.912 242.441 202.101 243.01 202.898L243.293 203.296C243.687 203.848 244.479 203.927 244.969 203.46C245.21 203.23 245.447 202.997 245.676 202.758C246.135 202.284 246.084 201.514 245.563 201.105L245.127 200.763C244.44 200.221 244.201 199.259 244.616 198.491C245.152 197.5 246.432 197.269 247.279 197.936L247.666 198.241C248.2 198.661 248.982 198.512 249.32 197.925C249.486 197.635 249.646 197.344 249.801 197.05C250.106 196.465 249.837 195.743 249.224 195.496L248.709 195.289C247.896 194.963 247.395 194.108 247.578 193.252C247.815 192.149 248.975 191.567 249.976 191.969L250.427 192.149C251.056 192.402 251.765 192.039 251.923 191.38C252.001 191.057 252.073 190.732 252.137 190.406C252.266 189.759 251.806 189.14 251.149 189.075L250.602 189.023C249.732 188.939 249.011 188.258 248.946 187.386C248.863 186.26 249.812 185.374 250.884 185.477L251.37 185.524C252.044 185.589 252.62 185.042 252.588 184.365C252.571 184.032 252.549 183.701 252.519 183.37C252.461 182.71 251.845 182.245 251.197 182.369L250.605 182.483C249.645 182.668 248.708 182.033 248.521 181.071C247.99 180.325 248.405 179.282 249.305 179.109L250.41 178.897C251.075 178.769 251.473 178.08 251.25 177.439C251.141 177.125 251.026 176.814 250.904 176.502C250.661 175.887 249.94 175.615 249.353 175.916L248.815 176.193C247.857 176.686 246.646 176.216 246.302 175.14C246.037 174.307 246.451 173.407 247.227 173.007L247.615 172.807C248.214 172.499 248.406 171.728 248.014 171.178C248.012 171.175 248.01 171.171 248.007 171.167C247.812 170.894 247.614 170.626 247.41 170.364C247.004 169.846 246.237 169.794 245.762 170.247ZM218.995 171.078C222.336 169.022 226.153 168.262 229.822 168.695L228.876 174.377C226.663 174.174 224.383 174.621 222.345 175.779L218.995 171.078ZM217.119 172.415L220.469 177.117C218.709 178.665 217.542 180.674 217.012 182.832L211.331 181.873C212.12 178.263 214.083 174.902 217.119 172.415ZM210.994 184.154L216.693 185.118C216.617 187.276 217.16 189.47 218.368 191.422L213.686 194.758C211.569 191.504 210.703 187.771 210.994 184.154ZM224.26 202.096C220.782 201.327 217.533 199.464 215.071 196.605L219.777 193.252C221.284 194.842 223.18 195.91 225.206 196.413L224.26 202.096ZM236.772 199.996C233.613 201.942 230.026 202.727 226.542 202.439L227.492 196.738C229.514 196.815 231.569 196.349 233.423 195.295L236.772 199.996ZM230.585 189.327C228.496 190.816 225.595 190.325 224.103 188.231C222.612 186.138 223.095 183.234 225.183 181.746C227.271 180.258 230.174 180.75 231.665 182.843C233.157 184.937 232.672 187.84 230.585 189.327ZM238.648 198.659L235.298 193.957C236.9 192.55 238.01 190.759 238.598 188.823L244.297 189.786C243.432 193.172 241.518 196.307 238.648 198.659ZM244.717 187.519L239.036 186.558C239.222 184.479 238.832 182.339 237.82 180.395L242.527 177.041C244.426 180.299 245.125 183.979 244.717 187.519ZM236.552 178.463C235.101 176.683 233.205 175.454 231.14 174.823L232.09 169.12C235.604 170.028 238.85 172.063 241.233 175.127L236.552 178.463Z" fill="white"/>
<path d="M218.232 421.2C217.136 419.79 215.044 419.644 213.744 420.89L212.658 421.929C210.929 423.576 208.249 423.844 206.338 422.427C203.885 420.596 203.764 417.07 205.889 415.04L206.865 414.112C208.193 412.843 208.108 410.68 206.661 409.54C205.947 408.987 205.213 408.436 204.49 407.899C203.033 406.858 200.978 407.305 200.077 408.858L199.321 410.175C198.122 412.234 195.613 413.254 193.391 412.432C190.514 411.378 189.401 408.022 190.873 405.491L191.534 404.334C192.467 402.726 191.764 400.687 190.052 400.009C189.211 399.676 188.361 399.354 187.507 399.062C185.82 398.453 183.974 399.462 183.545 401.213L183.15 402.802C182.525 405.393 179.888 407 177.296 406.378C175.224 407.854 172.429 405.973 173.032 403.501L174.063 399.269C174.502 397.479 173.248 395.706 171.421 395.538C170.519 395.451 169.616 395.39 168.706 395.34C166.908 395.247 165.422 396.731 165.497 398.527L165.577 400.159C165.694 402.807 163.614 405.093 160.966 405.225C158.288 405.353 156.024 403.29 155.908 400.638L155.843 399.306C155.757 397.464 154.061 396.125 152.246 396.484C151.357 396.649 150.481 396.851 149.597 397.042C147.836 397.462 146.818 399.306 147.395 401.002L147.94 402.55C148.803 405.064 147.461 407.838 144.936 408.715C142.415 409.584 139.659 408.251 138.787 405.74L138.352 404.496C137.749 402.751 135.742 401.948 134.093 402.792C133.3 403.213 132.508 403.643 131.711 404.101C130.158 404.988 129.685 407.028 130.731 408.495L131.672 409.815C133.22 411.987 132.709 415.012 130.528 416.566C128.35 418.119 125.318 417.618 123.77 415.446L123.01 414.379C121.947 412.887 119.789 412.677 118.452 413.937C117.79 414.566 117.151 415.209 116.521 415.86C115.264 417.141 115.4 419.241 116.821 420.354L118.001 421.277C119.863 422.734 120.508 425.366 119.375 427.439C117.904 430.147 114.416 430.785 112.105 428.981L111.054 428.157C109.603 427.013 107.478 427.435 106.552 429.024C106.096 429.816 105.658 430.611 105.238 431.414C104.4 433.004 105.116 434.96 106.786 435.63L108.317 436.242C110.783 437.22 111.995 440.051 111.004 442.512C110.008 444.988 107.167 446.209 104.71 445.219L103.477 444.743C101.76 444.052 99.831 445.054 99.3867 446.836C99.1811 447.717 98.9791 448.597 98.8002 449.491C98.4432 451.243 99.6893 452.927 101.493 453.097L103.118 453.242C105.767 453.494 107.72 455.854 107.467 458.505C107.201 461.147 104.825 463.121 102.179 462.866L100.857 462.744C99.0173 462.572 97.4479 464.066 97.5237 465.911C97.5604 466.816 97.6272 467.718 97.7007 468.621C97.8578 470.407 99.5261 471.664 101.291 471.326L102.917 470.996C105.532 470.502 108.068 472.216 108.573 474.826C109.072 477.442 107.34 479.985 104.725 480.491L103.421 480.747C101.601 481.106 100.516 482.974 101.111 484.724C101.411 485.574 101.717 486.416 102.046 487.266C102.705 488.932 104.668 489.672 106.265 488.85L107.73 488.085C110.096 486.86 113.034 487.788 114.254 490.141C115.464 492.51 114.525 495.448 112.16 496.664L110.972 497.276C109.343 498.125 108.803 500.21 109.869 501.707C109.875 501.715 109.885 501.729 109.888 501.733C110.413 502.47 110.952 503.206 111.504 503.912C112.612 505.325 114.699 505.466 115.999 504.225L117.174 503.093C119.117 501.255 122.192 501.328 124.023 503.242C125.862 505.168 125.777 508.227 123.843 510.073L122.884 511.001C121.536 512.264 121.64 514.441 123.08 515.57C123.802 516.131 124.509 516.678 125.249 517.198C126.705 518.256 128.763 517.812 129.658 516.258L130.497 514.818C131.822 512.512 134.809 511.713 137.109 513.028C139.408 514.351 140.206 517.322 138.864 519.629L138.205 520.78C137.27 522.382 137.975 524.427 139.691 525.109C140.539 525.445 141.374 525.756 142.233 526.063C143.928 526.654 145.769 525.648 146.201 523.907L146.59 522.302C147.226 519.724 149.859 518.113 152.431 518.731C154.515 517.246 157.317 519.13 156.714 521.62L155.681 525.847C155.24 527.638 156.496 529.401 158.337 529.574C159.23 529.656 160.131 529.723 161.03 529.779C162.834 529.869 164.326 528.385 164.245 526.589L164.175 525.093C164.064 522.728 165.627 520.52 167.953 520.005C170.946 519.338 173.707 521.544 173.831 524.469L173.895 525.805C173.973 527.641 175.684 528.993 177.494 528.627C178.383 528.46 179.274 528.267 180.15 528.055C181.913 527.65 182.92 525.806 182.336 524.105L181.83 522.66C181.072 520.449 181.924 517.937 183.978 516.769C186.679 515.235 189.986 516.576 190.947 519.368L191.386 520.614C191.985 522.363 193.988 523.167 195.633 522.309C196.439 521.899 197.244 521.468 198.025 521.019C199.594 520.127 200.051 518.08 199.011 516.621L198.058 515.283C196.515 513.117 197.038 510.088 199.211 508.539C201.38 506.993 204.412 507.49 205.955 509.655L206.725 510.735C207.791 512.231 209.954 512.44 211.283 511.173C211.95 510.543 212.593 509.905 213.221 509.253C214.487 507.969 214.333 505.873 212.931 504.766L211.735 503.832C209.872 502.373 209.235 499.755 210.367 497.669C211.845 494.977 215.332 494.335 217.63 496.135L218.674 496.951C220.138 498.096 222.271 497.685 223.192 496.094C223.648 495.299 224.077 494.508 224.504 493.696C225.341 492.105 224.619 490.143 222.955 489.48L221.54 488.925C219.338 488.048 217.983 485.725 218.487 483.397C219.136 480.401 222.308 478.814 225.034 479.896L226.259 480.374C227.974 481.058 229.901 480.067 230.34 478.278C230.553 477.402 230.748 476.52 230.928 475.625C231.284 473.864 230.039 472.191 228.249 472.019L226.755 471.879C224.39 471.659 222.432 469.819 222.259 467.441C222.042 464.392 224.635 461.976 227.558 462.246L228.877 462.367C230.716 462.542 232.29 461.046 232.207 459.213C232.166 458.303 232.108 457.401 232.032 456.494C231.878 454.712 230.195 453.444 228.441 453.795L226.823 454.112C224.21 454.615 221.662 452.899 221.157 450.29C219.717 448.269 220.856 445.425 223.301 444.954L226.318 444.367C228.131 444.006 229.221 442.136 228.616 440.393C228.326 439.537 228.017 438.696 227.685 437.846C227.032 436.178 225.077 435.444 223.469 436.264L222.004 437.027C219.391 438.383 216.095 437.112 215.169 434.196C214.451 431.927 215.588 429.477 217.704 428.388L218.763 427.839C220.39 426.99 220.925 424.889 219.869 423.408C219.861 423.397 219.855 423.387 219.846 423.376C219.322 422.635 218.79 421.915 218.232 421.2ZM188.83 474.121L170.152 462.777L191.34 457.593C192.256 463.219 191.382 469.024 188.83 474.121ZM176.75 437.743L165.472 456.431L160.224 435.205C165.858 434.292 171.658 435.184 176.75 437.743ZM169.115 458.636L180.399 439.965C182.749 441.663 184.864 443.746 186.643 446.242C188.262 448.513 189.492 450.936 190.303 453.442L169.115 458.636ZM198.619 438.17C199.997 440.103 199.553 442.803 197.613 444.185C195.671 445.57 192.974 445.108 191.596 443.175C190.211 441.23 190.653 438.527 192.595 437.143C194.535 435.761 197.234 436.226 198.619 438.17ZM166.709 425.155C167.09 422.794 169.322 421.204 171.674 421.616C174.03 422.012 175.616 424.238 175.216 426.587C174.829 428.932 172.597 430.522 170.25 430.125C167.906 429.733 166.32 427.507 166.709 425.155ZM140.976 428.954C142.921 427.568 145.605 428.022 146.99 429.965C148.374 431.908 147.928 434.594 145.982 435.98C144.048 437.358 141.355 436.91 139.971 434.967C138.586 433.023 139.042 430.332 140.976 428.954ZM148.898 439.866C151.169 438.248 153.577 437.037 156.088 436.228L161.328 457.444L142.635 446.114C144.321 443.753 146.416 441.635 148.898 439.866ZM152.513 486.115L163.801 467.461L169.031 488.662C163.411 489.582 157.615 488.688 152.513 486.115ZM132.898 480.587C134.836 479.206 137.531 479.676 138.911 481.613C140.293 483.552 139.857 486.253 137.919 487.634C135.98 489.016 133.279 488.55 131.898 486.611C130.518 484.674 130.958 481.969 132.898 480.587ZM142.619 477.614C141.011 475.358 139.796 472.923 138.964 470.432L160.149 465.243L148.874 483.91C146.514 482.215 144.394 480.106 142.619 477.614ZM140.439 449.749L159.148 461.083L137.933 466.279C137.004 460.637 137.883 454.849 140.439 449.749ZM124.493 455.871C124.897 453.523 127.112 451.944 129.458 452.333C131.814 452.736 133.397 454.957 133.002 457.308C132.612 459.662 130.397 461.241 128.038 460.845C125.691 460.448 124.108 458.227 124.493 455.871ZM163.804 499.628C163.408 501.985 161.191 503.565 158.831 503.172C156.474 502.771 154.894 500.554 155.282 498.191C155.683 495.836 157.901 494.256 160.255 494.647C162.605 495.059 164.186 497.278 163.804 499.628ZM189.534 495.841C187.596 497.222 184.909 496.76 183.522 494.814C182.139 492.874 182.582 490.185 184.52 488.804C186.463 487.42 189.161 487.87 190.544 489.81C191.931 491.758 191.476 494.457 189.534 495.841ZM180.347 484.001C178.108 485.597 175.691 486.835 173.18 487.647L167.934 466.432L186.636 477.757C184.943 480.126 182.846 482.221 180.347 484.001ZM206.016 468.916C205.626 471.262 203.397 472.85 201.054 472.452C198.695 472.046 197.109 469.819 197.509 467.477C197.889 465.12 200.118 463.532 202.471 463.94C204.82 464.324 206.406 466.551 206.016 468.916Z" fill="white"/>
<path d="M217.101 547.377L220.508 542.672L217.819 539.401L212.547 541.842C211.691 541.036 210.774 540.281 209.801 539.58L211.217 533.87L207.498 531.854L203.506 536.164C202.272 535.688 201.023 535.307 199.764 535.015L198.84 529.269L194.634 528.856L192.637 534.316C191.451 534.354 190.272 534.469 189.107 534.658L186.088 529.673L182.039 530.875L182.247 536.694C181.06 537.221 179.906 537.832 178.8 538.523L174.087 535.103L170.827 537.788L173.278 543.069C172.477 543.926 171.723 544.841 171.024 545.814L165.316 544.383L163.309 548.1L167.627 552.107C167.155 553.339 166.776 554.589 166.486 555.849L160.748 556.757L160.344 560.968L165.808 562.978C165.849 564.166 165.967 565.346 166.156 566.512L161.182 569.524L162.393 573.579L168.207 573.384C168.736 574.574 169.349 575.73 170.044 576.84L166.638 581.547L169.327 584.816L174.598 582.376C175.458 583.18 176.372 583.936 177.345 584.637L175.929 590.345L179.648 592.364L183.642 588.05C184.874 588.526 186.123 588.91 187.383 589.202L188.305 594.947L192.511 595.362L194.508 589.9C195.694 589.862 196.873 589.748 198.038 589.56L201.057 594.546L205.107 593.342L204.899 587.522C206.086 586.996 207.24 586.385 208.347 585.693L213.059 589.114L216.319 586.43L213.869 581.149C214.67 580.292 215.424 579.378 216.123 578.407L221.831 579.836L223.838 576.118L219.519 572.112C219.992 570.88 220.371 569.63 220.658 568.369L226.398 567.46L226.801 563.251L221.339 561.24C221.298 560.053 221.18 558.872 220.988 557.707L225.963 554.696L224.751 550.643L218.937 550.837C218.408 549.643 217.796 548.489 217.101 547.377ZM202.944 562.361C203.007 560.632 202.278 558.46 201.692 557.423L211.468 550.457C214.782 555.366 215.424 559.653 214.946 564.437L202.944 562.361ZM196.186 565.181C194.393 566.459 191.889 566.035 190.607 564.236C189.326 562.438 189.744 559.935 191.537 558.657C193.332 557.378 195.834 557.801 197.115 559.599C198.397 561.398 197.981 563.902 196.186 565.181ZM210.072 548.543L200.256 555.537C199.351 554.728 197.408 553.402 195.683 553.031L197.649 541.04C202.404 541.994 207.07 544.864 210.072 548.543ZM195.358 541.169L193.126 553.377C191.704 553.381 190.779 553.364 188.735 554.578L181.536 544.475C186.559 541.32 190.822 540.678 195.358 541.169ZM180.542 545.122L187.742 555.225C185.898 556.719 185.585 557.76 185.095 559.377L172.559 557.32C173.671 552.57 176.74 547.949 180.542 545.122ZM172.371 559L184.8 561.072C184.669 562.709 185.258 564.77 185.742 565.88L175.363 573.275C172.869 569.235 171.686 563.842 172.371 559ZM176.717 575.219L187.055 567.853C187.836 568.75 189.441 570.002 190.957 570.533L188.911 583.099C184.189 582.006 180.277 579.954 176.717 575.219ZM190.558 583.391L192.555 571.022C194.487 571.262 196.164 571.123 198.192 569.888L205.376 579.969C201.457 582.636 195.642 584.095 190.558 583.391ZM206.31 579.241L199.126 569.159C200.92 567.596 201.734 566.121 202.149 564.492L213.879 566.675C212.97 571.403 210.921 575.508 206.31 579.241Z" fill="white"/>
</g>
</g>
</svg>
