<svg width="252" height="610" viewBox="0 0 252 610" fill="none" xmlns="http://www.w3.org/2000/svg">
<g opacity="0.05">
<mask id="mask0_332_6099" style="mask-type:alpha" maskUnits="userSpaceOnUse" x="0" y="0" width="252" height="610">
<rect width="608.506" height="252" transform="matrix(4.37114e-08 -1 -1 -4.37114e-08 252 609.09)" fill="#F4F4F8"/>
</mask>
<g mask="url(#mask0_332_6099)">
<path d="M261.181 92.319C253.758 97.6087 252.034 107.968 257.337 115.409C262.639 122.851 272.994 124.603 280.417 119.314C287.841 114.023 289.567 103.663 284.264 96.2211C278.962 88.7793 268.606 87.0285 261.181 92.319ZM275.061 111.798C271.772 114.141 267.182 113.364 264.833 110.067C262.483 106.77 263.248 102.18 266.538 99.8359C269.829 97.4907 274.416 98.2665 276.766 101.564C279.115 104.861 278.352 109.452 275.061 111.798Z" fill="#F4F4F8"/>
<path d="M313.404 79.1583L319.652 70.5311L314.722 64.5371L305.058 69.0081C303.486 67.5334 301.806 66.1492 300.023 64.8632L302.619 54.3951L295.801 50.699L288.482 58.6031C286.221 57.7302 283.93 57.0315 281.623 56.4956L279.931 45.9635L272.221 45.207L268.56 55.2179C266.386 55.2885 264.224 55.4981 262.088 55.8436L256.552 46.7053L249.129 48.9089L249.51 59.5777C247.334 60.544 245.219 61.6641 243.189 62.9318L234.549 56.66L228.573 61.5811L233.064 71.2607C231.595 72.8323 230.213 74.5094 228.932 76.2918L218.471 73.6707L214.79 80.4851L222.708 87.8297C221.842 90.0876 221.145 92.3815 220.617 94.6893L210.097 96.3553L209.358 104.075L219.372 107.758C219.448 109.936 219.662 112.099 220.011 114.238L210.893 119.757L213.113 127.19L223.773 126.835C224.743 129.013 225.866 131.135 227.139 133.168L220.896 141.798L225.826 147.79L235.486 143.319C237.062 144.794 238.74 146.179 240.524 147.466L237.928 157.932L244.746 161.631L252.067 153.725C254.326 154.598 256.616 155.3 258.925 155.835L260.617 166.367L268.329 167.125L271.989 157.112C274.162 157.044 276.324 156.832 278.461 156.489L283.995 165.627L291.418 163.422L291.036 152.753C293.212 151.788 295.327 150.668 297.358 149.399L305.997 155.67L311.973 150.749L307.481 141.069C308.951 139.496 310.332 137.82 311.614 136.04L322.077 138.66L325.756 131.843L317.839 124.502C318.707 122.242 319.4 119.949 319.93 117.638L330.45 115.973L331.189 108.256L321.177 104.569C321.102 102.393 320.888 100.229 320.534 98.0913L329.655 92.5711L327.435 85.1375L316.775 85.4952C315.802 83.3124 314.679 81.1954 313.404 79.1583ZM293.044 138.121C275.438 150.666 250.972 146.527 238.396 128.879C225.819 111.229 229.895 86.7516 247.5 74.2067C265.105 61.6618 289.574 65.799 302.151 83.4484C314.727 101.097 310.649 125.576 293.044 138.121Z" fill="#F4F4F8"/>
<path d="M255.561 503.896C251.094 507.08 250.056 513.314 253.246 517.792C256.438 522.272 262.67 523.324 267.136 520.142C271.605 516.957 272.643 510.724 269.451 506.244C266.261 501.767 260.029 500.712 255.561 503.896ZM263.914 515.618C261.935 517.028 259.172 516.561 257.758 514.577C256.343 512.592 256.806 509.83 258.785 508.42C260.765 507.009 263.525 507.476 264.939 509.46C266.353 511.444 265.894 514.207 263.914 515.618Z" fill="#F4F4F8"/>
<path d="M286.984 495.976L290.743 490.784L287.776 487.177L281.96 489.867C281.014 488.981 280.004 488.147 278.93 487.372L280.492 481.073L276.388 478.849L271.985 483.605C270.623 483.08 269.246 482.66 267.856 482.337L266.838 475.999L262.198 475.544L259.995 481.567C258.685 481.61 257.385 481.735 256.1 481.944L252.769 476.445L248.301 477.771L248.532 484.191C247.222 484.771 245.949 485.445 244.727 486.21L239.528 482.436L235.932 485.397L238.635 491.222C237.751 492.168 236.92 493.178 236.149 494.249L229.853 492.672L227.638 496.772L232.404 501.192C231.883 502.551 231.463 503.932 231.144 505.321L224.813 506.323L224.369 510.969L230.396 513.186C230.442 514.497 230.57 515.797 230.781 517.085L225.294 520.406L226.631 524.879L233.047 524.665C233.631 525.977 234.306 527.252 235.073 528.477L231.315 533.67L234.282 537.276L240.095 534.586C241.042 535.473 242.053 536.308 243.127 537.081L241.564 543.379L245.666 545.605L250.071 540.847C251.431 541.372 252.809 541.795 254.199 542.117L255.217 548.455L259.858 548.91L262.06 542.885C263.369 542.844 264.669 542.718 265.957 542.51L269.286 548.009L273.754 546.682L273.523 540.262C274.832 539.681 276.104 539.007 277.328 538.244L282.526 542.016L286.122 539.056L283.419 533.23C284.304 532.284 285.135 531.275 285.905 530.205L292.202 531.781L294.417 527.679L289.652 523.261C290.174 521.901 290.593 520.521 290.911 519.131L297.241 518.13L297.687 513.485L291.661 511.266C291.616 509.958 291.487 508.655 291.274 507.368L296.763 504.046L295.426 499.572L289.012 499.787C288.427 498.476 287.75 497.203 286.984 495.976ZM274.733 531.457C264.138 539.007 249.414 536.515 241.846 525.895C234.278 515.274 236.73 500.544 247.324 492.995C257.918 485.446 272.644 487.936 280.212 498.557C287.78 509.179 285.326 523.908 274.733 531.457Z" fill="#F4F4F8"/>
<path d="M118.083 259.673C104.787 269.147 101.697 287.701 111.195 301.03C120.693 314.359 139.241 317.497 152.536 308.023C165.834 298.548 168.925 279.991 159.427 266.662C149.929 253.333 131.38 250.198 118.083 259.673ZM142.943 294.561C137.055 298.757 128.832 297.366 124.624 291.461C120.415 285.555 121.787 277.334 127.677 273.137C133.571 268.938 141.788 270.326 145.996 276.232C150.204 282.137 148.837 290.361 142.943 294.561Z" fill="#F4F4F8"/>
<path d="M211.616 236.099L222.805 220.646L213.975 209.91L196.664 217.919C193.849 215.277 190.841 212.797 187.646 210.494L192.296 191.744L180.083 185.124L166.974 199.28C162.926 197.717 158.82 196.466 154.687 195.505L151.656 176.64L137.845 175.285L131.289 193.215C127.394 193.341 123.523 193.717 119.695 194.336L109.782 177.967L96.4872 181.914L97.1706 201.025C93.2722 202.755 89.4852 204.761 85.8488 207.034L70.3747 195.802L59.6729 204.618L67.7158 221.956C65.0848 224.77 62.6113 227.775 60.3151 230.967L41.5769 226.272L34.9835 238.477L49.1658 251.633C47.6139 255.678 46.3667 259.785 45.4187 263.92L26.5773 266.903L25.2529 280.729L43.1886 287.327C43.3252 291.229 43.7083 295.104 44.3324 298.935L27.9993 308.819L31.9765 322.134L51.0713 321.497C52.8058 325.4 54.8206 329.197 57.0997 332.841L45.9156 348.3L54.7453 359.032L72.05 351.023C74.8718 353.665 77.8783 356.147 81.0725 358.452L76.4215 377.198L88.6346 383.821L101.748 369.66C105.793 371.222 109.897 372.48 114.032 373.437L117.062 392.303L130.875 393.659L137.428 375.725C141.324 375.601 145.194 375.223 149.023 374.609L158.936 390.977L172.23 387.026L171.546 367.915C175.445 366.187 179.232 364.18 182.87 361.91L198.343 373.142L209.046 364.327L201.003 346.987C203.634 344.171 206.108 341.169 208.404 337.981L227.145 342.675L233.735 330.464L219.555 317.313C221.109 313.267 222.351 309.161 223.299 305.021L242.142 302.038L243.466 288.215L225.531 281.613C225.398 277.715 225.013 273.838 224.383 270.01L240.718 260.124L236.74 246.811L217.647 247.45C215.909 243.54 213.897 239.75 211.616 236.099ZM175.146 341.711C143.613 364.181 99.7883 356.769 77.2626 325.157C54.7361 293.544 62.0378 249.7 93.5707 227.23C125.104 204.761 168.932 212.171 191.458 243.784C213.984 275.395 206.679 319.241 175.146 341.711Z" fill="#F4F4F8"/>
<path d="M355.565 203.878L362.196 194.723L356.961 188.363L346.706 193.108C345.035 191.544 343.257 190.073 341.359 188.708L344.118 177.599L336.879 173.677L329.11 182.063C326.71 181.138 324.282 180.395 321.83 179.829L320.037 168.648L311.85 167.848L307.966 178.472C305.661 178.545 303.368 178.77 301.1 179.133L295.224 169.436L287.342 171.777L287.752 183.098C285.441 184.122 283.198 185.31 281.046 186.658L271.874 180.002L265.531 185.225L270.298 195.501C268.739 197.165 267.277 198.947 265.917 200.838L254.813 198.054L250.906 205.286L259.309 213.085C258.387 215.478 257.649 217.915 257.088 220.365L245.923 222.13L245.139 230.325L255.768 234.23C255.852 236.544 256.075 238.838 256.445 241.111L246.766 246.968L249.122 254.856L260.438 254.477C261.47 256.79 262.658 259.042 264.008 261.2L257.382 270.358L262.616 276.72L272.87 271.973C274.538 273.541 276.321 275.011 278.219 276.376L275.46 287.483L282.696 291.411L290.465 283.017C292.862 283.946 295.294 284.689 297.749 285.254L299.541 296.432L307.725 297.238L311.609 286.614C313.918 286.539 316.212 286.311 318.48 285.951L324.356 295.646L332.229 293.308L331.825 281.98C334.137 280.959 336.379 279.77 338.534 278.425L347.702 285.08L354.045 279.858L349.279 269.584C350.84 267.913 352.304 266.133 353.663 264.244L364.769 267.027L368.674 259.79L360.273 251.997C361.194 249.6 361.932 247.166 362.49 244.716L373.657 242.948L374.438 234.758L363.812 230.846C363.73 228.537 363.508 226.24 363.13 223.97L372.809 218.114L370.457 210.223L359.14 210.603C358.109 208.288 356.918 206.044 355.565 203.878ZM321.283 248.67C312.395 255.002 300.043 252.916 293.694 244.006C287.348 235.1 289.407 222.742 298.295 216.409C307.178 210.079 319.532 212.166 325.878 221.073C332.226 229.983 330.165 242.34 321.283 248.67Z" fill="#F4F4F8"/>
<path d="M87.7118 403.162L92.3148 396.805L88.6832 392.39L81.564 395.686C80.4055 394.599 79.1706 393.578 77.8566 392.628L79.7684 384.921L74.7423 382.196L69.3526 388.019C67.6851 387.375 65.9963 386.862 64.2987 386.467L63.0499 378.708L57.3718 378.149L54.676 385.523C53.0728 385.573 51.4797 385.73 49.9046 385.987L45.8268 379.252L40.3561 380.877L40.6414 388.735C39.0369 389.451 37.4786 390.27 35.9841 391.206L29.6188 386.59L25.2169 390.215L28.5246 397.344C27.4433 398.505 26.427 399.738 25.481 401.053L17.7752 399.121L15.063 404.14L20.8964 409.553C20.2537 411.216 19.746 412.906 19.3565 414.604L11.6049 415.829L11.0584 421.519L18.4362 424.232C18.4954 425.838 18.6492 427.431 18.9088 429.006L12.19 433.073L13.8271 438.544L21.6794 438.288C22.3902 439.892 23.2204 441.452 24.1596 442.95L19.5626 449.312L23.1933 453.727L30.3118 450.431C31.4719 451.518 32.7068 452.539 34.0216 453.484L32.1091 461.2L37.1325 463.921L42.525 458.096C44.1877 458.74 45.8785 459.255 47.5778 459.65L48.8243 467.408L54.506 467.971L57.201 460.591C58.8023 460.542 60.3923 460.383 61.9732 460.132L66.0483 466.863L71.518 465.239L71.233 457.379C72.8407 456.67 74.3958 455.844 75.8916 454.91L82.257 459.527L86.6616 455.905L83.3489 448.771C84.4332 447.613 85.4464 446.377 86.3958 445.067L94.1017 446.999L96.8112 441.976L90.9798 436.566C91.6211 434.901 92.1309 433.214 92.5201 431.507L100.274 430.281L100.812 424.596L93.4368 421.881C93.3826 420.276 93.2262 418.683 92.9642 417.107L99.6871 413.045L98.0495 407.567L90.1961 407.83C89.4821 406.22 88.6528 404.664 87.7118 403.162ZM76.1231 451.386C60.5185 462.505 38.8307 458.837 27.6823 443.191C16.5353 427.548 20.1474 405.849 35.751 394.73C51.3575 383.609 73.0467 387.28 84.1937 402.923C95.3414 418.567 91.7296 440.265 76.1231 451.386Z" fill="#F4F4F8"/>
<path d="M75.2063 450.102C60.3328 460.701 39.5878 457.192 28.961 442.279C18.3362 427.369 21.7894 406.611 36.6629 396.013C51.5384 385.413 72.2864 388.924 82.9118 403.835C93.5377 418.749 90.0818 439.503 75.2063 450.102ZM38.8796 399.123C25.7172 408.502 22.6573 426.871 32.0614 440.068C41.4661 453.266 59.8273 456.371 72.9897 446.992C86.155 437.61 89.2148 419.242 79.8101 406.044C70.4051 392.847 52.0439 389.743 38.8796 399.123Z" fill="#F4F4F8"/>
<path d="M372.053 340.174L370.645 341.516C368.413 343.647 364.928 343.993 362.452 342.143C359.254 339.757 359.078 335.163 361.832 332.532L363.088 331.335C364.819 329.683 364.686 326.873 362.804 325.389C361.877 324.655 360.936 323.944 359.984 323.254C358.09 321.881 355.428 322.449 354.264 324.472L353.281 326.179C351.74 328.852 348.496 330.167 345.599 329.093C341.865 327.704 340.401 323.339 342.303 320.039L343.164 318.543C344.359 316.469 343.441 313.802 341.21 312.909C340.118 312.472 339.014 312.058 337.909 311.666C335.707 310.885 333.319 312.182 332.772 314.451L332.272 316.524C331.464 319.883 328.054 321.961 324.694 321.144C322 323.064 318.362 320.6 319.139 317.379L320.461 311.88C321.024 309.553 319.393 307.254 317.011 307.024C315.841 306.91 314.669 306.819 313.497 306.754C311.165 306.622 309.233 308.542 309.349 310.875L309.454 312.999C309.624 316.451 306.938 319.411 303.488 319.574C300.037 319.734 297.076 317.041 296.905 313.587L296.821 311.853C296.704 309.461 294.495 307.713 292.146 308.164C290.994 308.384 289.843 308.627 288.695 308.896C286.423 309.426 285.11 311.812 285.879 314.023L286.584 316.051C287.719 319.319 285.976 322.916 282.716 324.043L282.714 324.041C279.451 325.17 275.854 323.419 274.719 320.152L274.152 318.519C273.367 316.254 270.755 315.197 268.629 316.295C267.588 316.83 266.557 317.39 265.531 317.973C263.503 319.127 262.918 321.783 264.276 323.688L265.514 325.426C267.523 328.246 266.866 332.19 264.056 334.192C261.244 336.196 257.301 335.528 255.293 332.71L254.292 331.305C252.9 329.351 250.102 329.075 248.37 330.726C247.517 331.536 246.681 332.363 245.868 333.204C244.243 334.879 244.432 337.602 246.268 339.046L247.81 340.261C250.239 342.171 251.088 345.577 249.615 348.288C247.721 351.791 243.201 352.607 240.2 350.247L238.832 349.173C236.947 347.688 234.184 348.214 232.988 350.29C232.402 351.31 231.837 352.343 231.291 353.384C230.213 355.45 231.16 358.007 233.325 358.875L235.319 359.675C238.528 360.962 240.109 364.642 238.827 367.849C237.546 371.059 233.876 372.629 230.667 371.344L229.073 370.703C226.847 369.808 224.345 371.093 223.784 373.422C223.51 374.564 223.259 375.712 223.029 376.863C222.575 379.153 224.201 381.342 226.524 381.563L228.641 381.768C232.08 382.101 234.627 385.188 234.307 388.628C233.983 392.071 230.904 394.614 227.462 394.283L225.748 394.118C223.364 393.889 221.329 395.822 221.443 398.215C221.499 399.388 221.581 400.564 221.683 401.736C221.889 404.064 224.065 405.707 226.36 405.271L228.456 404.869C231.847 404.216 235.16 406.46 235.82 409.856C236.478 413.249 234.242 416.563 230.852 417.214L229.149 417.542C226.8 417.995 225.389 420.425 226.177 422.694C226.562 423.804 226.97 424.907 227.403 426.005C228.259 428.181 230.809 429.147 232.881 428.075L234.782 427.096C237.851 425.515 241.659 426.735 243.249 429.809C244.836 432.886 243.624 436.693 240.558 438.276L239.028 439.065C236.911 440.155 236.229 442.878 237.613 444.821C237.622 444.833 237.632 444.848 237.64 444.859C238.329 445.826 239.032 446.772 239.753 447.7C241.181 449.538 243.889 449.727 245.571 448.124L247.107 446.656C249.604 444.273 253.601 444.37 255.988 446.875C258.375 449.378 258.285 453.379 255.79 455.761L254.535 456.96C252.804 458.613 252.938 461.423 254.819 462.907C255.745 463.64 256.686 464.352 257.636 465.042C259.53 466.416 262.192 465.846 263.358 463.825L264.43 461.961C266.152 458.968 270.011 457.936 273.005 459.668C276 461.4 277.04 465.264 275.317 468.26L274.456 469.752C273.261 471.829 274.181 474.495 276.409 475.387C277.503 475.823 278.603 476.239 279.71 476.63C281.909 477.41 284.3 476.113 284.846 473.844L285.345 471.772C286.156 468.415 289.566 466.337 292.924 467.152C295.618 465.233 299.258 467.699 298.482 470.917L297.159 476.415C296.597 478.744 298.226 481.043 300.609 481.273C301.776 481.387 302.949 481.475 304.122 481.544C306.451 481.674 308.383 479.755 308.27 477.42L308.175 475.476C308.023 472.388 310.035 469.527 313.052 468.864C316.94 468.013 320.526 470.898 320.712 474.707L320.798 476.441C320.913 478.835 323.121 480.582 325.473 480.134C326.625 479.914 327.775 479.668 328.923 479.4C331.194 478.869 332.509 476.481 331.739 474.272L331.085 472.389C330.085 469.506 331.181 466.241 333.83 464.74C337.334 462.752 341.638 464.511 342.9 468.143L343.468 469.776C344.254 472.042 346.866 473.097 348.992 472C350.032 471.46 351.064 470.902 352.088 470.319C354.115 469.168 354.7 466.509 353.343 464.604L352.105 462.867C350.096 460.048 350.756 456.104 353.565 454.102C356.377 452.099 360.319 452.764 362.327 455.583L363.328 456.987C364.719 458.939 367.518 459.215 369.252 457.566C370.104 456.755 370.939 455.929 371.751 455.087C373.378 453.411 373.19 450.69 371.351 449.242L369.81 448.033C367.382 446.119 366.533 442.717 368.003 440.002C369.9 436.501 374.421 435.684 377.42 438.045L378.787 439.12C380.675 440.605 383.439 440.079 384.631 438.001C385.218 436.981 385.783 435.949 386.329 434.909C387.408 432.839 386.46 430.286 384.293 429.417L382.469 428.686C379.6 427.535 377.831 424.506 378.477 421.485C379.31 417.587 383.413 415.53 386.954 416.95L388.546 417.589C390.773 418.482 393.276 417.2 393.835 414.87C394.11 413.729 394.363 412.579 394.59 411.429C395.046 409.139 393.42 406.951 391.094 406.727L389.16 406.54C386.086 406.242 383.536 403.833 383.306 400.752C383.008 396.775 386.364 393.643 390.156 394.008L391.872 394.173C394.254 394.402 396.292 392.467 396.175 390.077C396.119 388.902 396.04 387.73 395.936 386.558C395.729 384.226 393.553 382.584 391.258 383.022L389.163 383.423C385.771 384.077 382.459 381.83 381.798 378.434C379.921 375.8 381.392 372.111 384.564 371.501L388.47 370.751C390.82 370.3 392.229 367.865 391.442 365.599C391.056 364.49 390.647 363.384 390.216 362.285C389.358 360.111 386.811 359.149 384.736 360.215L382.835 361.196C379.449 362.94 375.165 361.275 373.952 357.474C373.014 354.53 374.481 351.348 377.221 349.935L378.591 349.23C380.708 348.138 381.39 345.414 380.005 343.471C379.996 343.459 379.987 343.447 379.977 343.432C379.29 342.468 378.587 341.52 377.866 340.594C376.441 338.756 373.733 338.568 372.053 340.174ZM277.443 343.112C289.253 335.844 302.747 333.159 315.717 334.689L312.371 354.775C304.549 354.056 296.486 355.639 289.285 359.733L277.442 343.113L277.443 343.112ZM270.813 347.837L282.656 364.457C276.435 369.927 272.309 377.031 270.435 384.657L250.356 381.263C253.143 368.505 260.088 356.627 270.813 347.837ZM249.16 389.328L269.306 392.735C269.035 400.36 270.951 408.117 275.227 415.015L258.677 426.808C251.194 415.308 248.137 402.117 249.16 389.328ZM296.054 452.744C283.76 450.024 272.274 443.442 263.574 433.337L280.208 421.484C285.539 427.105 292.238 430.877 299.398 432.656L296.054 452.744ZM340.279 445.322C329.108 452.199 316.432 454.972 304.118 453.957L307.475 433.802C314.622 434.075 321.886 432.43 328.436 428.702L340.279 445.322ZM328.544 421.837C313.324 432.682 292.181 429.104 281.311 413.848C270.444 398.598 273.963 377.444 289.183 366.599C304.397 355.758 325.546 359.334 336.413 374.584C347.284 389.839 343.758 410.995 328.544 421.837ZM346.909 440.598L335.066 423.978C340.73 419.003 344.654 412.675 346.73 405.83L366.878 409.235C363.817 421.207 357.057 432.284 346.909 440.598ZM368.362 401.219L348.283 397.824C348.94 390.474 347.561 382.91 343.986 376.039L360.623 364.184C367.332 375.706 369.804 388.711 368.362 401.219ZM339.5 369.215C334.375 362.924 327.669 358.578 320.374 356.345L323.729 336.191C336.152 339.398 347.624 346.594 356.05 357.423L339.5 369.215Z" fill="#F4F4F8"/>
<path d="M245.762 170.831L245.363 171.211C244.731 171.814 243.746 171.911 243.045 171.388C242.141 170.713 242.091 169.412 242.87 168.668L243.225 168.33C243.713 167.862 243.677 167.068 243.144 166.648C242.882 166.441 242.616 166.239 242.346 166.044C241.81 165.655 241.056 165.816 240.728 166.389L240.45 166.872C240.014 167.628 239.096 167.999 238.277 167.696C237.219 167.304 236.806 166.069 237.344 165.134L237.587 164.71C237.926 164.125 237.664 163.37 237.034 163.116C236.725 162.994 236.412 162.876 236.099 162.765C235.476 162.544 234.801 162.911 234.646 163.553L234.506 164.139C234.276 165.089 233.311 165.678 232.361 165.446C231.599 165.989 230.57 165.291 230.789 164.381L231.164 162.825C231.323 162.166 230.861 161.517 230.188 161.451C229.857 161.419 229.526 161.393 229.193 161.375C228.532 161.338 227.986 161.881 228.019 162.542L228.049 163.142C228.098 164.118 227.336 164.956 226.362 165.002C225.385 165.048 224.547 164.285 224.499 163.309L224.475 162.817C224.442 162.141 223.818 161.646 223.153 161.773C222.826 161.835 222.502 161.904 222.176 161.98C221.535 162.13 221.162 162.806 221.38 163.43L221.578 164.004C221.9 164.928 221.406 165.946 220.485 166.265L220.484 166.264C219.561 166.583 218.543 166.089 218.222 165.164L218.061 164.703C217.84 164.062 217.1 163.763 216.499 164.074C216.205 164.225 215.913 164.384 215.623 164.548C215.049 164.874 214.883 165.627 215.267 166.166L215.618 166.658C216.186 167.455 216.001 168.57 215.205 169.137C214.409 169.704 213.293 169.515 212.725 168.719L212.442 168.321C212.048 167.769 211.256 167.69 210.767 168.158C210.525 168.387 210.289 168.621 210.059 168.859C209.6 169.333 209.654 170.103 210.172 170.512L210.609 170.856C211.296 171.397 211.537 172.359 211.12 173.127C210.584 174.118 209.305 174.35 208.456 173.682L208.07 173.378C207.537 172.958 206.754 173.107 206.416 173.694C206.251 173.983 206.091 174.275 205.936 174.57C205.631 175.154 205.9 175.877 206.513 176.124L207.077 176.35C207.985 176.714 208.432 177.756 208.07 178.663C207.707 179.571 206.669 180.016 205.761 179.652L205.309 179.471C204.68 179.219 203.971 179.581 203.814 180.24C203.736 180.563 203.664 180.887 203.6 181.213C203.471 181.861 203.931 182.48 204.588 182.543L205.187 182.6C206.159 182.695 206.88 183.568 206.79 184.541C206.699 185.515 205.826 186.236 204.854 186.142L204.368 186.095C203.693 186.031 203.118 186.578 203.149 187.255C203.166 187.586 203.188 187.919 203.218 188.25C203.276 188.91 203.892 189.375 204.541 189.25L205.133 189.136C206.092 188.952 207.03 189.586 207.216 190.547C207.403 191.507 206.77 192.444 205.811 192.629L205.329 192.722C204.665 192.851 204.265 193.539 204.488 194.18C204.597 194.495 204.713 194.806 204.835 195.116C205.077 195.732 205.798 196.005 206.384 195.702L206.922 195.425C207.791 194.978 208.868 195.323 209.318 196.193C209.766 197.063 209.424 198.14 208.556 198.587L208.123 198.81C207.524 199.119 207.331 199.889 207.723 200.439C207.725 200.442 207.728 200.445 207.731 200.449C207.925 200.722 208.125 200.99 208.329 201.254C208.732 201.773 209.499 201.826 209.975 201.374L210.41 200.957C211.116 200.284 212.247 200.311 212.923 201.019C213.598 201.728 213.573 202.86 212.866 203.533L212.511 203.872C212.021 204.339 212.06 205.135 212.592 205.555C212.855 205.762 213.12 205.964 213.39 206.159C213.926 206.547 214.679 206.386 215.009 205.815L215.313 205.287C215.799 204.442 216.891 204.149 217.739 204.639C218.587 205.129 218.881 206.222 218.393 207.07L218.15 207.492C217.812 208.08 218.073 208.834 218.703 209.086C219.012 209.209 219.324 209.327 219.637 209.437C220.259 209.658 220.936 209.291 221.089 208.649L221.231 208.062C221.46 207.112 222.425 206.523 223.375 206.754C224.138 206.211 225.166 206.909 224.948 207.819L224.573 209.375C224.413 210.034 224.875 210.684 225.55 210.749C225.88 210.782 226.211 210.806 226.543 210.827C227.203 210.863 227.75 210.32 227.717 209.66L227.69 209.11C227.647 208.237 228.216 207.427 229.069 207.239C230.17 206.999 231.184 207.815 231.237 208.893L231.26 209.384C231.294 210.061 231.918 210.555 232.582 210.428C232.909 210.366 233.234 210.297 233.559 210.221C234.2 210.071 234.573 209.395 234.356 208.77L234.171 208.237C233.888 207.421 234.198 206.498 234.947 206.073C235.938 205.511 237.156 206.008 237.514 207.036L237.675 207.497C237.897 208.139 238.636 208.437 239.239 208.127C239.531 207.974 239.824 207.816 240.114 207.651C240.688 207.325 240.853 206.574 240.469 206.034L240.118 205.543C239.55 204.745 239.736 203.629 240.531 203.063C241.327 202.496 242.441 202.684 243.01 203.482L243.293 203.88C243.687 204.432 244.479 204.511 244.969 204.044C245.21 203.814 245.447 203.581 245.676 203.342C246.135 202.868 246.084 202.098 245.563 201.689L245.127 201.347C244.44 200.805 244.201 199.843 244.616 199.074C245.152 198.084 246.432 197.853 247.279 198.52L247.666 198.825C248.2 199.245 248.982 199.096 249.32 198.509C249.486 198.219 249.646 197.927 249.801 197.634C250.106 197.048 249.837 196.327 249.224 196.08L248.709 195.873C247.896 195.547 247.395 194.691 247.578 193.836C247.815 192.733 248.975 192.151 249.976 192.553L250.427 192.733C251.056 192.986 251.765 192.623 251.923 191.964C252.001 191.641 252.073 191.316 252.137 190.99C252.266 190.342 251.806 189.724 251.149 189.659L250.602 189.607C249.732 189.523 249.011 188.842 248.946 187.97C248.863 186.844 249.812 185.958 250.884 186.061L251.37 186.108C252.044 186.172 252.62 185.625 252.588 184.949C252.571 184.616 252.549 184.285 252.519 183.954C252.461 183.294 251.845 182.829 251.197 182.953L250.605 183.067C249.645 183.252 248.708 182.617 248.521 181.655C247.99 180.909 248.405 179.866 249.305 179.693L250.41 179.481C251.075 179.353 251.473 178.664 251.25 178.023C251.141 177.709 251.026 177.398 250.904 177.086C250.661 176.471 249.94 176.199 249.353 176.5L248.815 176.777C247.857 177.27 246.646 176.8 246.302 175.724C246.037 174.891 246.451 173.991 247.227 173.591L247.615 173.39C248.214 173.083 248.406 172.312 248.014 171.762C248.012 171.759 248.01 171.755 248.007 171.751C247.812 171.478 247.614 171.21 247.41 170.948C247.004 170.43 246.237 170.377 245.762 170.831ZM218.995 171.662C222.336 169.606 226.153 168.846 229.822 169.279L228.876 174.961C226.663 174.758 224.383 175.205 222.345 176.363L218.995 171.662ZM217.119 172.999L220.469 177.701C218.709 179.249 217.542 181.258 217.012 183.416L211.331 182.457C212.12 178.847 214.083 175.486 217.119 172.999ZM210.994 184.738L216.693 185.702C216.617 187.86 217.16 190.054 218.368 192.006L213.686 195.342C211.569 192.088 210.703 188.355 210.994 184.738ZM224.26 202.68C220.782 201.911 217.533 200.048 215.071 197.189L219.777 193.836C221.284 195.426 223.18 196.493 225.206 196.997L224.26 202.68ZM236.772 200.58C233.613 202.526 230.026 203.31 226.542 203.023L227.492 197.321C229.514 197.399 231.569 196.933 233.423 195.879L236.772 200.58ZM230.585 189.911C228.496 191.4 225.595 190.909 224.103 188.815C222.612 186.722 223.095 183.818 225.183 182.33C227.271 180.842 230.174 181.333 231.665 183.426C233.157 185.52 232.672 188.424 230.585 189.911ZM238.648 199.243L235.298 194.541C236.9 193.134 238.01 191.343 238.598 189.406L244.297 190.37C243.432 193.756 241.518 196.891 238.648 199.243ZM244.717 188.103L239.036 187.142C239.222 185.062 238.832 182.922 237.82 180.979L242.527 177.625C244.426 180.883 245.125 184.563 244.717 188.103ZM236.552 179.047C235.101 177.267 233.205 176.038 231.14 175.406L232.09 169.704C235.604 170.611 238.85 172.646 241.233 175.711L236.552 179.047Z" fill="#F4F4F8"/>
<path d="M218.232 421.784C217.136 420.374 215.044 420.228 213.744 421.474L212.658 422.513C210.929 424.16 208.249 424.428 206.338 423.011C203.885 421.18 203.764 417.654 205.889 415.624L206.865 414.696C208.193 413.427 208.108 411.264 206.661 410.124C205.947 409.571 205.213 409.02 204.49 408.483C203.033 407.442 200.978 407.889 200.077 409.442L199.321 410.759C198.122 412.818 195.613 413.838 193.391 413.016C190.514 411.962 189.401 408.606 190.873 406.075L191.534 404.918C192.467 403.31 191.764 401.271 190.052 400.593C189.211 400.26 188.361 399.938 187.507 399.646C185.82 399.037 183.974 400.046 183.545 401.797L183.15 403.386C182.525 405.977 179.888 407.584 177.296 406.962C175.224 408.438 172.429 406.557 173.032 404.085L174.063 399.853C174.502 398.063 173.248 396.29 171.421 396.122C170.519 396.035 169.616 395.974 168.706 395.924C166.908 395.831 165.422 397.315 165.497 399.111L165.577 400.743C165.694 403.391 163.614 405.677 160.966 405.809C158.288 405.937 156.024 403.874 155.908 401.222L155.843 399.89C155.757 398.048 154.061 396.709 152.246 397.068C151.357 397.233 150.481 397.435 149.597 397.626C147.836 398.046 146.818 399.89 147.395 401.586L147.94 403.134C148.803 405.648 147.461 408.422 144.936 409.299C142.415 410.168 139.659 408.835 138.787 406.324L138.352 405.08C137.749 403.335 135.742 402.532 134.093 403.376C133.3 403.797 132.508 404.227 131.711 404.685C130.158 405.572 129.685 407.612 130.731 409.079L131.672 410.399C133.22 412.571 132.709 415.596 130.528 417.15C128.35 418.703 125.318 418.202 123.77 416.03L123.01 414.963C121.947 413.471 119.789 413.261 118.452 414.521C117.79 415.15 117.151 415.793 116.521 416.444C115.264 417.725 115.4 419.825 116.821 420.938L118.001 421.861C119.863 423.318 120.508 425.95 119.375 428.023C117.904 430.731 114.416 431.369 112.105 429.565L111.054 428.741C109.603 427.597 107.478 428.019 106.552 429.608C106.096 430.4 105.658 431.195 105.238 431.998C104.4 433.588 105.116 435.544 106.786 436.214L108.317 436.826C110.783 437.804 111.995 440.635 111.004 443.096C110.008 445.572 107.167 446.793 104.71 445.803L103.477 445.327C101.76 444.636 99.831 445.638 99.3867 447.42C99.1811 448.301 98.9791 449.181 98.8002 450.075C98.4432 451.827 99.6893 453.511 101.493 453.681L103.118 453.826C105.767 454.078 107.72 456.438 107.467 459.089C107.201 461.731 104.825 463.705 102.179 463.45L100.857 463.328C99.0173 463.156 97.4479 464.65 97.5237 466.495C97.5604 467.4 97.6272 468.302 97.7007 469.205C97.8578 470.991 99.5261 472.248 101.291 471.91L102.917 471.58C105.532 471.086 108.068 472.8 108.573 475.41C109.072 478.026 107.34 480.569 104.725 481.075L103.421 481.331C101.601 481.69 100.516 483.558 101.111 485.308C101.411 486.158 101.717 487 102.046 487.85C102.705 489.516 104.668 490.256 106.265 489.434L107.73 488.669C110.096 487.444 113.034 488.372 114.254 490.725C115.464 493.094 114.525 496.032 112.16 497.248L110.972 497.86C109.343 498.709 108.803 500.794 109.869 502.291C109.875 502.299 109.885 502.313 109.888 502.317C110.413 503.054 110.952 503.79 111.504 504.496C112.612 505.909 114.699 506.05 115.999 504.809L117.174 503.677C119.117 501.839 122.192 501.912 124.023 503.826C125.862 505.752 125.777 508.811 123.843 510.657L122.884 511.585C121.536 512.848 121.64 515.025 123.08 516.154C123.802 516.715 124.509 517.262 125.249 517.782C126.705 518.84 128.763 518.396 129.658 516.842L130.497 515.402C131.822 513.096 134.809 512.297 137.109 513.612C139.408 514.935 140.206 517.906 138.864 520.213L138.205 521.364C137.27 522.966 137.975 525.011 139.691 525.693C140.539 526.029 141.374 526.34 142.233 526.647C143.928 527.238 145.769 526.232 146.201 524.491L146.59 522.886C147.226 520.308 149.859 518.697 152.431 519.315C154.515 517.83 157.317 519.714 156.714 522.204L155.681 526.431C155.24 528.222 156.496 529.985 158.337 530.158C159.23 530.24 160.131 530.307 161.03 530.363C162.834 530.453 164.326 528.969 164.245 527.173L164.175 525.677C164.064 523.311 165.627 521.104 167.953 520.589C170.946 519.922 173.707 522.128 173.831 525.053L173.895 526.389C173.973 528.225 175.684 529.577 177.494 529.211C178.383 529.044 179.274 528.851 180.15 528.639C181.913 528.234 182.92 526.39 182.336 524.689L181.83 523.244C181.072 521.033 181.924 518.521 183.978 517.353C186.679 515.819 189.986 517.16 190.947 519.952L191.386 521.198C191.985 522.947 193.988 523.751 195.633 522.893C196.439 522.483 197.244 522.052 198.025 521.603C199.594 520.711 200.051 518.664 199.011 517.205L198.058 515.867C196.515 513.701 197.038 510.672 199.211 509.123C201.38 507.577 204.412 508.074 205.955 510.239L206.725 511.319C207.791 512.815 209.954 513.024 211.283 511.757C211.95 511.127 212.593 510.489 213.221 509.837C214.487 508.553 214.333 506.457 212.931 505.35L211.735 504.416C209.872 502.957 209.235 500.339 210.367 498.253C211.845 495.561 215.332 494.919 217.63 496.719L218.674 497.535C220.138 498.68 222.271 498.269 223.192 496.678C223.648 495.883 224.077 495.092 224.504 494.28C225.341 492.689 224.619 490.727 222.955 490.064L221.54 489.509C219.338 488.632 217.983 486.309 218.487 483.981C219.136 480.985 222.308 479.398 225.034 480.48L226.259 480.957C227.974 481.642 229.901 480.651 230.34 478.862C230.553 477.986 230.748 477.104 230.928 476.209C231.284 474.448 230.039 472.775 228.249 472.603L226.755 472.463C224.39 472.243 222.432 470.403 222.259 468.025C222.042 464.976 224.635 462.56 227.558 462.83L228.877 462.951C230.716 463.126 232.29 461.63 232.207 459.797C232.166 458.887 232.108 457.985 232.032 457.078C231.878 455.296 230.195 454.028 228.441 454.379L226.823 454.696C224.21 455.199 221.662 453.483 221.157 450.874C219.717 448.853 220.856 446.009 223.301 445.538L226.318 444.951C228.131 444.59 229.221 442.72 228.616 440.977C228.326 440.121 228.017 439.28 227.685 438.43C227.032 436.762 225.077 436.028 223.469 436.848L222.004 437.611C219.391 438.967 216.095 437.696 215.169 434.78C214.451 432.511 215.588 430.061 217.704 428.972L218.763 428.423C220.39 427.574 220.925 425.473 219.869 423.992C219.861 423.981 219.855 423.971 219.846 423.96C219.322 423.219 218.79 422.499 218.232 421.784ZM188.83 474.705L170.152 463.361L191.34 458.177C192.256 463.803 191.382 469.608 188.83 474.705ZM176.75 438.327L165.472 457.015L160.224 435.789C165.858 434.876 171.658 435.768 176.75 438.327ZM169.115 459.22L180.399 440.549C182.749 442.247 184.864 444.33 186.643 446.826C188.262 449.097 189.492 451.52 190.303 454.026L169.115 459.22ZM198.619 438.754C199.997 440.687 199.553 443.387 197.613 444.769C195.671 446.154 192.974 445.692 191.596 443.759C190.211 441.814 190.653 439.111 192.595 437.727C194.535 436.345 197.234 436.81 198.619 438.754ZM166.709 425.739C167.09 423.378 169.322 421.788 171.674 422.2C174.03 422.596 175.616 424.822 175.216 427.171C174.829 429.516 172.597 431.106 170.25 430.709C167.906 430.317 166.32 428.091 166.709 425.739ZM140.976 429.538C142.921 428.152 145.605 428.606 146.99 430.549C148.374 432.492 147.928 435.178 145.982 436.564C144.048 437.942 141.355 437.494 139.971 435.551C138.586 433.607 139.042 430.916 140.976 429.538ZM148.898 440.45C151.169 438.832 153.577 437.621 156.088 436.812L161.328 458.028L142.635 446.698C144.321 444.337 146.416 442.219 148.898 440.45ZM152.513 486.699L163.801 468.045L169.031 489.246C163.411 490.166 157.615 489.272 152.513 486.699ZM132.898 481.171C134.836 479.79 137.531 480.26 138.911 482.197C140.293 484.136 139.857 486.837 137.919 488.218C135.98 489.6 133.279 489.133 131.898 487.195C130.518 485.258 130.958 482.553 132.898 481.171ZM142.619 478.198C141.011 475.942 139.796 473.507 138.964 471.016L160.149 465.827L148.874 484.494C146.514 482.799 144.394 480.69 142.619 478.198ZM140.439 450.333L159.148 461.667L137.933 466.863C137.004 461.221 137.883 455.433 140.439 450.333ZM124.493 456.455C124.897 454.107 127.112 452.528 129.458 452.917C131.814 453.32 133.397 455.541 133.002 457.892C132.612 460.246 130.397 461.825 128.038 461.429C125.691 461.032 124.108 458.811 124.493 456.455ZM163.804 500.212C163.408 502.569 161.191 504.149 158.831 503.756C156.474 503.355 154.894 501.138 155.282 498.775C155.683 496.42 157.901 494.84 160.255 495.231C162.605 495.643 164.186 497.862 163.804 500.212ZM189.534 496.425C187.596 497.806 184.909 497.344 183.522 495.398C182.139 493.458 182.582 490.769 184.52 489.388C186.463 488.004 189.161 488.454 190.544 490.394C191.931 492.342 191.476 495.041 189.534 496.425ZM180.347 484.585C178.108 486.181 175.691 487.419 173.18 488.231L167.934 467.016L186.636 478.341C184.943 480.71 182.846 482.805 180.347 484.585ZM206.016 469.5C205.626 471.846 203.397 473.434 201.054 473.036C198.695 472.63 197.109 470.403 197.509 468.061C197.889 465.704 200.118 464.116 202.471 464.524C204.82 464.908 206.406 467.135 206.016 469.5Z" fill="#F4F4F8"/>
<path d="M217.101 547.961L220.508 543.255L217.819 539.985L212.547 542.426C211.691 541.619 210.774 540.865 209.801 540.164L211.217 534.454L207.498 532.438L203.506 536.748C202.272 536.272 201.023 535.891 199.764 535.599L198.84 529.853L194.634 529.44L192.637 534.9C191.451 534.938 190.272 535.053 189.107 535.242L186.088 530.256L182.039 531.459L182.247 537.277C181.06 537.805 179.906 538.416 178.8 539.107L174.087 535.687L170.827 538.372L173.278 543.652C172.477 544.51 171.723 545.425 171.024 546.397L165.316 544.967L163.309 548.684L167.627 552.691C167.155 553.923 166.776 555.173 166.486 556.432L160.748 557.341L160.344 561.552L165.808 563.562C165.849 564.75 165.967 565.93 166.156 567.096L161.182 570.107L162.393 574.163L168.207 573.968C168.736 575.158 169.349 576.313 170.044 577.424L166.638 582.131L169.327 585.399L174.598 582.96C175.458 583.764 176.372 584.52 177.345 585.221L175.929 590.929L179.648 592.948L183.642 588.634C184.874 589.11 186.123 589.494 187.383 589.786L188.305 595.531L192.511 595.945L194.508 590.484C195.694 590.446 196.873 590.332 198.038 590.144L201.057 595.129L205.107 593.926L204.899 588.106C206.086 587.58 207.24 586.969 208.347 586.277L213.059 589.698L216.319 587.014L213.869 581.733C214.67 580.876 215.424 579.962 216.123 578.991L221.831 580.42L223.838 576.702L219.519 572.696C219.992 571.464 220.371 570.214 220.658 568.953L226.398 568.044L226.801 563.835L221.339 561.824C221.298 560.637 221.18 559.456 220.988 558.291L225.963 555.28L224.751 551.226L218.937 551.421C218.408 550.227 217.796 549.072 217.101 547.961ZM202.944 562.945C203.007 561.216 202.278 559.044 201.692 558.007L211.468 551.04C214.782 555.95 215.424 560.237 214.946 565.021L202.944 562.945ZM196.186 565.765C194.393 567.043 191.889 566.619 190.607 564.82C189.326 563.022 189.744 560.518 191.537 559.241C193.332 557.962 195.834 558.385 197.115 560.183C198.397 561.982 197.981 564.486 196.186 565.765ZM210.072 549.127L200.256 556.121C199.351 555.312 197.408 553.985 195.683 553.615L197.649 541.624C202.404 542.578 207.07 545.448 210.072 549.127ZM195.358 541.753L193.126 553.961C191.704 553.965 190.779 553.948 188.735 555.162L181.536 545.059C186.559 541.904 190.822 541.262 195.358 541.753ZM180.542 545.706L187.742 555.809C185.898 557.303 185.585 558.344 185.095 559.961L172.559 557.903C173.671 553.154 176.74 548.533 180.542 545.706ZM172.371 559.584L184.8 561.656C184.669 563.293 185.258 565.354 185.742 566.464L175.363 573.859C172.869 569.819 171.686 564.426 172.371 559.584ZM176.717 575.802L187.055 568.437C187.836 569.334 189.441 570.586 190.957 571.117L188.911 583.683C184.189 582.59 180.277 580.538 176.717 575.802ZM190.558 583.975L192.555 571.606C194.487 571.846 196.164 571.707 198.192 570.471L205.376 580.553C201.457 583.22 195.642 584.679 190.558 583.975ZM206.31 579.825L199.126 569.743C200.92 568.18 201.734 566.705 202.149 565.076L213.879 567.258C212.97 571.987 210.921 576.092 206.31 579.825Z" fill="#F4F4F8"/>
</g>
</g>
</svg>
