<svg width="166" height="167" viewBox="0 0 166 167" fill="none" xmlns="http://www.w3.org/2000/svg">
<path d="M17 85.416C17 46.7561 48.3401 15.416 87 15.416C125.66 15.416 157 46.7561 157 85.416C157 124.076 125.66 155.416 87 155.416H19.7451C18.229 155.416 17 154.187 17 152.671V85.416Z" fill="url(#paint0_linear_222_786)"/>
<g filter="url(#filter0_d_222_786)">
<path d="M24.5 85.416C24.5 50.8982 52.4822 22.916 87 22.916C121.518 22.916 149.5 50.8982 149.5 85.416C149.5 119.934 121.518 147.916 87 147.916H26.4706C25.3823 147.916 24.5 147.034 24.5 145.945V85.416Z" stroke="url(#paint1_radial_222_786)"/>
</g>
<g filter="url(#filter1_d_222_786)">
<path fill-rule="evenodd" clip-rule="evenodd" d="M57.3864 62.8024C58.274 61.9147 59.478 61.416 60.7333 61.416H111C112.255 61.416 113.459 61.9147 114.347 62.8024C115.235 63.6901 115.733 64.894 115.733 66.1493V70.8827H60.7333C59.478 70.8827 58.274 70.384 57.3864 69.4963C56.4987 68.6086 56 67.4047 56 66.1493C56 64.894 56.4987 63.69 57.3864 62.8024ZM121.733 66.1493V73.8827V85.4341C121.734 85.4503 121.734 85.4666 121.734 85.4829C121.734 85.4992 121.734 85.5155 121.733 85.5317V100.901C121.734 100.917 121.734 100.933 121.734 100.95C121.734 100.966 121.734 100.982 121.733 100.998V108.683C121.733 111.529 120.603 114.259 118.59 116.272C116.577 118.285 113.847 119.416 111 119.416H60.7333C57.8867 119.416 55.1566 118.285 53.1437 116.272C51.1308 114.259 50 111.529 50 108.683V66.1493C50 63.3027 51.1308 60.5726 53.1437 58.5597C55.1566 56.5468 57.8867 55.416 60.7333 55.416H111C113.847 55.416 116.577 56.5468 118.59 58.5597C120.603 60.5726 121.733 63.3027 121.733 66.1493ZM115.733 97.9496V88.4829H107.134C105.878 88.4829 104.674 88.9816 103.787 89.8693C102.899 90.7569 102.4 91.9609 102.4 93.2162C102.4 94.4716 102.899 95.6755 103.787 96.5632C104.674 97.4509 105.878 97.9496 107.134 97.9496H115.733ZM115.733 82.4829H107.134C104.287 82.4829 101.557 83.6137 99.5441 85.6266C97.5312 87.6395 96.4004 90.3696 96.4004 93.2162C96.4004 96.0629 97.5312 98.793 99.5441 100.806C101.557 102.819 104.287 103.95 107.134 103.95H115.733V108.683C115.733 109.938 115.235 111.142 114.347 112.03C113.459 112.917 112.255 113.416 111 113.416H60.7333C59.478 113.416 58.274 112.917 57.3864 112.03C56.4987 111.142 56 109.938 56 108.683V75.7826C57.4594 76.4997 59.0766 76.8827 60.7333 76.8827H115.733V82.4829Z" fill="url(#paint2_linear_222_786)"/>
<path d="M85.7174 97.5573L77.8587 105.416L70 97.5573M77.8587 105.416V83.416V105.416Z" stroke="url(#paint3_linear_222_786)" stroke-width="5" stroke-linecap="square"/>
</g>
<defs>
<filter id="filter0_d_222_786" x="0" y="0.416016" width="166" height="166" filterUnits="userSpaceOnUse" color-interpolation-filters="sRGB">
<feFlood flood-opacity="0" result="BackgroundImageFix"/>
<feColorMatrix in="SourceAlpha" type="matrix" values="0 0 0 0 0 0 0 0 0 0 0 0 0 0 0 0 0 0 127 0" result="hardAlpha"/>
<feOffset dx="-4" dy="-2"/>
<feGaussianBlur stdDeviation="10"/>
<feColorMatrix type="matrix" values="0 0 0 0 1 0 0 0 0 0.494874 0 0 0 0 0.0264852 0 0 0 0.3 0"/>
<feBlend mode="normal" in2="BackgroundImageFix" result="effect1_dropShadow_222_786"/>
<feBlend mode="normal" in="SourceGraphic" in2="effect1_dropShadow_222_786" result="shape"/>
</filter>
<filter id="filter1_d_222_786" x="26" y="33.416" width="111.734" height="104" filterUnits="userSpaceOnUse" color-interpolation-filters="sRGB">
<feFlood flood-opacity="0" result="BackgroundImageFix"/>
<feColorMatrix in="SourceAlpha" type="matrix" values="0 0 0 0 0 0 0 0 0 0 0 0 0 0 0 0 0 0 127 0" result="hardAlpha"/>
<feOffset dx="-4" dy="-2"/>
<feGaussianBlur stdDeviation="10"/>
<feColorMatrix type="matrix" values="0 0 0 0 1 0 0 0 0 0.494874 0 0 0 0 0.0264852 0 0 0 0.3 0"/>
<feBlend mode="normal" in2="BackgroundImageFix" result="effect1_dropShadow_222_786"/>
<feBlend mode="normal" in="SourceGraphic" in2="effect1_dropShadow_222_786" result="shape"/>
</filter>
<linearGradient id="paint0_linear_222_786" x1="79.5" y1="15.564" x2="-4.93849" y2="139.767" gradientUnits="userSpaceOnUse">
<stop offset="0.00421588" stop-color="#2C2B2A"/>
<stop offset="1" stop-color="#191F1B"/>
</linearGradient>
<radialGradient id="paint1_radial_222_786" cx="0" cy="0" r="1" gradientUnits="userSpaceOnUse" gradientTransform="translate(150 148.416) rotate(-135) scale(178.191 328.785)">
<stop stop-color="#574031"/>
<stop offset="0.305378" stop-color="#6F5346"/>
<stop offset="0.584339" stop-color="#14141B"/>
<stop offset="0.704703" stop-color="#131320"/>
<stop offset="0.779921" stop-color="#20212C"/>
<stop offset="0.889698" stop-color="#202C32"/>
<stop offset="1" stop-color="#48585A"/>
</radialGradient>
<linearGradient id="paint2_linear_222_786" x1="56.2168" y1="67.5919" x2="102.731" y2="123.192" gradientUnits="userSpaceOnUse">
<stop stop-color="#FFE292"/>
<stop offset="0.085674" stop-color="#FFD562"/>
<stop offset="0.151478" stop-color="#FFE2A0"/>
<stop offset="0.326574" stop-color="#FCC266"/>
<stop offset="0.626342" stop-color="#FFDD9A"/>
<stop offset="0.90625" stop-color="#E98B34"/>
<stop offset="0.979167" stop-color="#FFE292"/>
</linearGradient>
<linearGradient id="paint3_linear_222_786" x1="71.3622" y1="87.6015" x2="87.0241" y2="99.5345" gradientUnits="userSpaceOnUse">
<stop stop-color="#FFE292"/>
<stop offset="0.085674" stop-color="#FFD562"/>
<stop offset="0.151478" stop-color="#FFE2A0"/>
<stop offset="0.326574" stop-color="#FCC266"/>
<stop offset="0.626342" stop-color="#FFDD9A"/>
<stop offset="0.90625" stop-color="#E98B34"/>
<stop offset="0.979167" stop-color="#FFE292"/>
</linearGradient>
</defs>
</svg>
