<svg width="75" height="63" viewBox="0 0 75 63" fill="none" xmlns="http://www.w3.org/2000/svg">
<path d="M46.0581 58.4717C53.3195 52.3561 58.7137 46.2405 62.2407 40.1248C65.5602 34.22 66.9087 29.1588 66.2863 24.9411L65.3527 23.3595H63.4855L62.5519 23.6758L58.195 23.9921C55.083 23.9921 52.4896 22.7268 50.4149 20.1962C48.1328 17.8765 46.9917 15.135 46.9917 11.9717C46.9917 9.01936 48.3402 6.3833 51.0373 4.06358C53.7344 1.74385 57.0539 0.583981 60.9958 0.583981C64.7303 0.583981 68.0498 2.58738 70.9544 6.59418C73.6515 10.601 75 15.2405 75 20.5126C75 28.9479 72.1992 36.9615 66.5975 44.5534C62.6556 50.669 56.7427 56.6792 48.8589 62.584L46.0581 58.4717ZM0 58.4717C7.26141 52.3561 12.6556 46.2405 16.1826 40.1248C19.5021 34.22 20.8506 29.1588 20.2282 24.9411L19.2946 23.3595H17.4274L16.1826 23.6758L12.1369 23.9921C9.02489 23.9921 6.43153 22.7268 4.35685 20.1962C2.07468 17.8765 0.933601 15.135 0.933601 11.9717C0.933601 9.01936 2.28215 6.3833 4.97925 4.06358C7.67635 1.74385 10.9958 0.583981 14.9378 0.583981C18.6722 0.583981 21.9917 2.58738 24.8963 6.59418C27.5934 10.601 28.9419 15.2405 28.9419 20.5126C28.9419 35.0636 20.2282 49.0874 2.80083 62.584L0 58.4717Z" fill="url(#paint0_linear_414_4141)"/>
<defs>
<linearGradient id="paint0_linear_414_4141" x1="68.5001" y1="50.7886" x2="24.1659" y2="-6.40592" gradientUnits="userSpaceOnUse">
<stop stop-color="#FFE292"/>
<stop offset="0.085674" stop-color="#FFD562"/>
<stop offset="0.151478" stop-color="#FFE2A0"/>
<stop offset="0.326574" stop-color="#FCC266"/>
<stop offset="0.626342" stop-color="#FFDD9A"/>
<stop offset="1" stop-color="#E98B34"/>
</linearGradient>
</defs>
</svg>
