<svg width="40" height="34" viewBox="0 0 40 34" fill="none" xmlns="http://www.w3.org/2000/svg">
<path d="M15.4357 2.79018C11.5629 6.04686 8.68603 9.30355 6.80498 12.5602C5.03458 15.7046 4.31535 18.3998 4.6473 20.6458L5.14523 21.488H6.14108L6.639 21.3196L8.96266 21.1512C10.6224 21.1512 12.0055 21.8249 13.112 23.1725C14.3292 24.4078 14.9378 25.8677 14.9378 27.5522C14.9378 29.1244 14.2185 30.5282 12.7801 31.7635C11.3416 32.9987 9.57123 33.6164 7.46888 33.6164C5.47718 33.6164 3.70678 32.5496 2.15768 30.4159C0.719226 28.2822 0 25.8116 0 23.0041C0 18.5121 1.49378 14.2447 4.48133 10.2019C6.58368 6.94526 9.73721 3.74473 13.9419 0.600342L15.4357 2.79018ZM40 2.79018C36.1272 6.04686 33.2503 9.30355 31.3693 12.5602C29.5989 15.7046 28.8797 18.3998 29.2116 20.6458L29.7095 21.488H30.7054L31.3693 21.3196L33.527 21.1512C35.1867 21.1512 36.5698 21.8249 37.6763 23.1725C38.8935 24.4078 39.5021 25.8677 39.5021 27.5522C39.5021 29.1244 38.7829 30.5282 37.3444 31.7635C35.9059 32.9987 34.1355 33.6164 32.0332 33.6164C30.0415 33.6164 28.2711 32.5496 26.722 30.4159C25.2835 28.2822 24.5643 25.8116 24.5643 23.0041C24.5643 15.2554 29.2116 7.78751 38.5062 0.600342L40 2.79018Z" fill="white"/>
</svg>
