<svg width="24" height="21" viewBox="0 0 24 21" fill="none" xmlns="http://www.w3.org/2000/svg">
<path d="M9.26141 1.74255C6.93776 3.71533 5.21162 5.68812 4.08299 7.66091C3.02075 9.56567 2.58921 11.1983 2.78838 12.5589L3.08714 13.0691H3.68465L3.9834 12.967L5.37759 12.865C6.37344 12.865 7.20332 13.2732 7.86722 14.0895C8.59751 14.8378 8.96266 15.7221 8.96266 16.7425C8.96266 17.6949 8.53112 18.5453 7.66805 19.2936C6.80498 20.0419 5.74274 20.416 4.48133 20.416C3.28631 20.416 2.22407 19.7698 1.29461 18.4772C0.431535 17.1847 0 15.6881 0 13.9874C0 11.2664 0.896266 8.68132 2.6888 6.23234C3.95021 4.25955 5.84232 2.32078 8.36515 0.416016L9.26141 1.74255ZM24 1.74255C21.6763 3.71533 19.9502 5.68812 18.8216 7.66091C17.7593 9.56567 17.3278 11.1983 17.527 12.5589L17.8257 13.0691H18.4232L18.8216 12.967L20.1162 12.865C21.112 12.865 21.9419 13.2732 22.6058 14.0895C23.3361 14.8378 23.7012 15.7221 23.7012 16.7425C23.7012 17.6949 23.2697 18.5453 22.4066 19.2936C21.5436 20.0419 20.4813 20.416 19.2199 20.416C18.0249 20.416 16.9627 19.7698 16.0332 18.4772C15.1701 17.1847 14.7386 15.6881 14.7386 13.9874C14.7386 9.29356 17.527 4.76976 23.1037 0.416016L24 1.74255Z" fill="#809AA5"/>
</svg>
