<svg width="155" height="32" viewBox="0 0 155 32" fill="none" xmlns="http://www.w3.org/2000/svg">
<path d="M52.6757 9.84375C53.3697 9.84375 53.9034 10.3542 53.9034 11.0178V12.1919C53.9034 12.8554 53.3697 13.3659 52.6757 13.3659H46.8576V26.5605C46.8576 27.1986 46.2972 27.7086 45.6299 27.7086H43.1746C42.5074 27.7086 41.9469 27.1986 41.9469 26.5605V13.3659H36.1288C35.4349 13.3659 34.9011 12.8554 34.9011 12.1919V11.0178C34.9011 10.3542 35.4349 9.84375 36.1288 9.84375H52.6757Z" fill="#231F20"/>
<path d="M68.0491 20.8681C68.0491 25.5642 65.22 27.9633 60.1759 27.9633C55.1318 27.9633 52.3032 25.5642 52.3032 20.8681C52.3032 16.1724 55.1318 13.7988 60.1759 13.7988C65.22 13.7988 68.0491 16.1724 68.0491 20.8681ZM63.5386 20.8681C63.5386 17.8565 62.4444 16.6318 60.1759 16.6318C57.9073 16.6318 56.8131 17.8569 56.8131 20.8681C56.8131 23.8797 57.9073 25.1303 60.1759 25.1303C62.4444 25.1303 63.5386 23.8797 63.5386 20.8681Z" fill="#231F20"/>
<path d="M85.7175 20.8681C85.7175 25.5642 82.8881 27.9633 78.7249 27.9633C77.1236 27.9633 76.0561 27.6566 74.9618 27.3253V31.1532C74.9618 31.5875 74.6153 31.9188 74.1611 31.9188H71.2521C70.7984 31.9188 70.4514 31.5875 70.4514 31.1532V14.8197C70.4514 14.3858 70.7984 14.0541 71.2521 14.0541H73.7613C74.2149 14.0541 74.5619 14.3858 74.5619 14.8197V15.2025C75.7625 14.3858 77.2304 13.7988 79.1252 13.7988C82.9146 13.7988 85.7175 16.1979 85.7175 20.8681ZM74.9618 17.9334V24.4412C76.0561 24.773 77.1236 24.9517 77.7908 24.9517C80.1923 24.9517 81.0731 23.7015 81.0731 20.8681C81.0731 18.0606 80.1928 16.81 78.0577 16.81C77.0969 16.8105 75.8959 17.3719 74.9618 17.9334Z" fill="#231F20"/>
<path d="M96.8992 9.84375C104.505 9.84375 107.708 12.6767 107.708 18.7761C107.708 24.8759 104.505 27.7085 96.8992 27.7085H89.6142C88.9468 27.7085 88.3862 27.1985 88.3862 26.5605V11.0433C88.3862 10.3797 88.9195 9.84375 89.6142 9.84375H96.8992ZM93.2964 13.3658V24.1869H96.7659C101.543 24.1869 102.797 22.6045 102.797 18.7761C102.797 14.9482 101.544 13.3658 96.7659 13.3658H93.2964Z" fill="#231F20"/>
<path d="M113.899 22.1957C114.087 24.2375 115.047 25.1303 117.236 25.1303C118.357 25.1303 119.344 24.8241 119.797 24.2885C120.144 23.8802 120.625 23.6245 121.292 23.6245H123.24C123.694 23.6245 124.041 23.9563 124.041 24.3901C124.041 27.0445 121.185 27.9633 116.915 27.9633C112.165 27.9633 109.309 25.5131 109.309 20.8936C109.309 16.3 112.191 13.7988 116.915 13.7988C121.666 13.7988 124.521 16.2234 124.521 20.715V21.43C124.521 21.8639 124.174 22.1957 123.721 22.1957H113.899ZM113.874 19.5668H119.932C119.851 17.6527 118.891 16.6318 116.916 16.6318C114.994 16.6318 113.981 17.6527 113.874 19.5668Z" fill="#231F20"/>
<path d="M137.412 19.7966C137.412 17.6782 136.398 16.8104 134.93 16.8104C133.623 16.8104 132.395 17.6782 131.434 18.597V26.9424C131.434 27.3767 131.087 27.7081 130.634 27.7081H127.725C127.271 27.7081 126.924 27.3767 126.924 26.9424V14.8197C126.924 14.3858 127.271 14.0541 127.725 14.0541H130.634C131.087 14.0541 131.434 14.3858 131.434 14.8197V15.6109C132.662 14.6155 133.996 13.7988 135.998 13.7988C139.468 13.7988 141.922 15.5599 141.922 19.7966V26.9424C141.922 27.3767 141.575 27.7081 141.122 27.7081H138.213C137.759 27.7081 137.412 27.3767 137.412 26.9424V19.7966Z" fill="#231F20"/>
<path d="M150.73 27.9648C146.994 27.9648 145.125 26.1782 145.125 22.3499V10.6104C145.125 10.1765 145.472 9.84473 145.926 9.84473H148.835C149.288 9.84473 149.635 10.1765 149.635 10.6104V14.7701H153.265C153.719 14.7701 154.066 15.1019 154.066 15.5358V17.0157C154.066 17.4495 153.719 17.7814 153.265 17.7814H149.635V22.3494C149.635 24.0849 150.57 25.0037 151.931 25.0037C152.624 25.0037 153.132 24.8506 153.719 24.8506H154.199C154.653 24.8506 155 25.1824 155 25.6163V26.9435C155 27.3262 154.653 27.6325 154.199 27.7091C153.399 27.8626 151.931 27.9648 150.73 27.9648Z" fill="#231F20"/>
<path d="M8.42888 7.89941C10.3726 7.89941 12.2849 8.34747 13.6851 9.24382C15.084 8.34747 16.9918 7.89941 18.9411 7.89941C23.0142 7.89941 26.3156 9.80206 26.3156 13.7823C26.3156 17.763 20.4368 30.8059 16.422 30.8059C15.4293 30.8059 14.4858 28.2241 13.6848 24.9962C12.8811 28.2241 11.9379 30.8059 10.9434 30.8059C6.93244 30.8059 1.05371 17.763 1.05371 13.7823C1.05406 9.80206 4.35543 7.89941 8.42888 7.89941Z" fill="white"/>
<path d="M16.4221 31.8337C15.6456 31.8337 14.9915 30.0256 14.3814 28.1876C14.1464 27.4799 13.22 27.4796 12.9847 28.1873C12.3739 30.0254 11.7197 31.8337 10.9436 31.8337C8.12377 31.8337 5.37007 27.712 3.55674 24.2548C1.49577 20.3251 0 15.9199 0 13.78C0.000351283 9.58082 3.30874 6.86719 8.42903 6.86719C10.2286 6.86719 11.9205 7.21437 13.3065 7.85775C13.5463 7.96906 13.8236 7.96906 14.0634 7.85775C15.4488 7.21464 17.1408 6.86719 18.9412 6.86719C24.0611 6.86719 27.3696 9.5805 27.3696 13.78C27.3696 15.9199 25.8734 20.3251 23.8124 24.2548C21.9984 27.712 19.244 31.8337 16.4221 31.8337ZM8.42903 8.92709C6.94627 8.92709 2.10805 9.27733 2.1077 13.78C2.1077 15.602 3.53707 19.701 5.4326 23.3148C7.43395 27.1307 9.26997 29.1438 10.4207 29.6466C10.6553 29.7491 10.8884 29.6356 10.9707 29.3931C11.2909 28.4493 11.9251 25.8582 12.711 22.7019L12.9889 21.4809C13.1735 20.67 14.3177 20.64 14.5446 21.44L14.9025 22.7019C15.683 25.8471 16.1517 28.4343 16.4141 29.3852C16.4823 29.6324 16.7117 29.749 16.9466 29.6463C18.0989 29.1428 19.9357 27.13 21.9369 23.3148C23.8325 19.7013 25.2622 15.602 25.2622 13.78C25.2622 9.27733 20.4243 8.92709 18.9416 8.92709C17.1346 8.92709 15.4294 9.35595 14.2635 10.103L14.119 10.1956C13.8551 10.3647 13.5169 10.3649 13.2528 10.1959L13.1081 10.1033C11.9405 9.35595 10.235 8.92709 8.42903 8.92709Z" fill="#3398D4"/>
<path d="M7.21539 11.3793C7.60676 10.7577 7.13093 9.92644 6.43613 10.1649C5.2746 10.5636 3.98736 11.2998 3.67737 12.6358C3.4083 13.7947 3.82282 15.7381 4.35774 17.5196C4.61393 18.3728 5.77688 18.1508 5.79984 17.2602C5.83456 15.9127 5.92476 14.5752 6.12616 13.7859C6.35048 12.9073 6.78287 12.0663 7.21539 11.3793Z" fill="#D6E1E7"/>
<path d="M17.5058 4.87201C17.6094 5.25468 17.9759 5.50595 18.3717 5.48223C19.3907 5.42115 21.3387 5.38506 22.7715 5.84927C24.1797 6.30587 25.3941 7.27096 26.0048 7.81806C26.2633 8.0496 26.6372 8.11811 26.9508 7.96961L28.4005 7.28286C29.0918 6.95539 28.9773 5.93843 28.2305 5.77297L26.6662 5.42641C26.3497 5.35628 26.1063 5.10271 26.0493 4.78357L25.3629 0.94191C25.2535 0.329697 24.5197 0.0687835 24.0484 0.4745L20.8992 3.18514C20.6603 3.3908 20.3232 3.43764 20.0372 3.30491L18.2201 2.46143C17.601 2.17403 16.9283 2.74111 17.1069 3.39995L17.5058 4.87201Z" fill="#FEA82A"/>
</svg>
