<svg width="99" height="33" viewBox="0 0 99 33" fill="none" xmlns="http://www.w3.org/2000/svg">
<path d="M94.4576 12.6091H98.9999C98.4254 8.18808 95.1966 5.86426 90.7088 5.86426C86.1666 5.86426 83.1293 8.27315 83.1293 12.4107C83.1293 17.1151 87.0422 18.1636 89.1218 18.5888C91.8034 19.1272 94.4303 19.1839 94.4303 21.5644C94.4303 23.1797 93.1168 23.9733 91.2562 23.9733C88.9577 23.9733 87.4254 22.783 87.0422 20.6293H82.5547C82.8283 25.2769 86.0846 27.7708 90.8732 27.7708C95.306 27.7708 98.9452 25.6737 98.9452 21.1394C98.9452 16.2649 94.7587 15.3864 91.8308 14.9329C89.8332 14.6212 87.6442 14.3378 87.6442 12.1556C87.6442 10.6253 88.7661 9.69015 90.6542 9.69015C92.8433 9.69015 94.1566 10.9655 94.4576 12.6091Z" fill="#403F41"/>
<path d="M80.0647 6.57324H75.7686V27.1194H80.0647V6.57324Z" fill="#403F41"/>
<path d="M62.7985 19.9497H68.408C67.5323 22.1604 65.5621 23.2087 63.291 23.2087C59.296 23.2087 57.4354 20.0064 57.4354 16.8324C57.4354 13.63 59.1865 10.371 63.2637 10.371C65.7537 10.371 67.6143 11.5612 68.3258 13.6867L72.9502 13.6867C72.1567 8.89738 68.1069 6.14844 63.3185 6.14844C57.408 6.14844 52.9751 10.3142 52.9751 16.8891C52.9751 23.5489 57.791 27.4881 63.291 27.4881C68.7089 27.4881 72.9502 23.8323 72.9502 18.1077V16.4356H62.7985V19.9497Z" fill="#403F41"/>
<path d="M43.1517 6.14844C38.2264 6.14844 34.587 9.35073 34.6144 14.6786H39.0473C38.9925 12.3548 40.4154 10.2293 42.9328 10.2293C45.1219 10.2293 46.4079 11.8163 46.4079 13.63C46.4079 15.4437 45.1219 16.464 42.7412 17.5693C39.485 19.0713 37.1592 20.0348 34.7786 20.885V27.1197H51.3607V22.9254H39.9769C39.9769 22.9254 40.0148 22.9131 40.0335 22.9073C41.9697 22.2997 43.4243 21.6395 45.1493 20.8566C48.8433 19.1563 50.9502 17.0307 50.9502 13.4034C50.9503 8.95396 47.7761 6.14844 43.1517 6.14844Z" fill="#403F41"/>
<path d="M22.9577 19.893C17.3756 19.9213 16.4726 23.407 16.1717 26.3544L16.0349 27.6579H14.9129L14.7761 26.3544C14.4752 23.407 13.5448 19.9213 8.15421 19.893C7.25125 17.9658 6.86816 16.4071 6.86816 14.6501C6.86816 10.2575 10.3433 6.14815 15.4875 6.14815C20.6318 6.14815 24.0522 10.229 24.0522 14.6785C24.0522 16.4071 23.8881 17.9658 22.9577 19.893ZM15.4329 0.820312C6.95033 0.820312 0 8.01863 0 16.8321C0 25.6742 6.95033 32.8724 15.4329 32.8724C23.9974 32.8724 30.9204 25.6742 30.9204 16.8321C30.9204 8.01865 23.9974 0.820312 15.4329 0.820312Z" fill="#29B24A"/>
</svg>
