<svg width="113" height="28" viewBox="0 0 113 28" fill="none" xmlns="http://www.w3.org/2000/svg">
<path d="M0.992267 1.31379H24.5232C25.0712 1.31379 25.5154 1.75255 25.5154 2.29379V6.86392C25.5154 7.47267 25.248 8.04905 24.7823 8.44792L11.6237 19.3199H24.5232C25.0712 19.3199 25.5154 19.7507 25.5154 20.2919V25.5386C25.5154 26.0798 25.0712 26.5186 24.5232 26.5186H0.992267C0.444253 26.5186 0 26.0798 0 25.5386V20.9759C0 20.3672 0.267465 19.7908 0.733092 19.3919L13.8917 8.51992H0.992267C0.444253 8.51992 0 8.07116 0 7.52992V2.29379C0 1.75255 0.444253 1.31379 0.992267 1.31379ZM41.9182 0.419922C44.639 0.419922 47.0647 1.0242 49.0897 2.12848C51.1148 3.23276 52.7391 4.83704 53.8572 6.83704C54.9753 8.83704 55.5872 11.2328 55.5872 13.9199C55.5872 16.6071 54.9753 19.0028 53.8572 21.0028C52.7391 23.0028 51.1148 24.6071 49.0897 25.7114C47.0647 26.8156 44.639 27.4199 41.9182 27.4199C39.1974 27.4199 36.7717 26.8156 34.7467 25.7114C32.7216 24.6071 31.0973 23.0028 29.9792 21.0028C28.8611 19.0028 28.2492 16.6071 28.2492 13.9199C28.2492 11.2328 28.8611 8.83704 29.9792 6.83704C31.0973 4.83704 32.7216 3.23276 34.7467 2.12848C36.7717 1.0242 39.1974 0.419922 41.9182 0.419922ZM41.9182 7.61992C40.6167 7.61992 39.4741 7.89145 38.5291 8.39631C37.5841 8.90117 36.8366 9.63937 36.3255 10.5727C35.8143 11.506 35.5393 12.6345 35.5393 13.9199C35.5393 15.2053 35.8143 16.3338 36.3255 17.2671C36.8366 18.2005 37.5841 18.9387 38.5291 19.4435C39.4741 19.9484 40.6167 20.2199 41.9182 20.2199C43.2197 20.2199 44.3623 19.9484 45.3073 19.4435C46.2523 18.9387 46.9998 18.2005 47.511 17.2671C48.0221 16.3338 48.2971 15.2053 48.2971 13.9199C48.2971 12.6345 48.0221 11.506 47.511 10.5727C46.9998 9.63937 46.2523 8.90117 45.3073 8.39631C44.3623 7.89145 43.2197 7.61992 41.9182 7.61992ZM71.0787 0.419922C73.7995 0.419922 76.2252 1.0242 78.2502 2.12848C80.2753 3.23276 81.8996 4.83704 83.0177 6.83704C84.1358 8.83704 84.7477 11.2328 84.7477 13.9199C84.7477 16.6071 84.1358 19.0028 83.0177 21.0028C81.8996 23.0028 80.2753 24.6071 78.2502 25.7114C76.2252 26.8156 73.7995 27.4199 71.0787 27.4199C68.3579 27.4199 65.9322 26.8156 63.9072 25.7114C61.8821 24.6071 60.2578 23.0028 59.1397 21.0028C58.0216 19.0028 57.4097 16.6071 57.4097 13.9199C57.4097 11.2328 58.0216 8.83704 59.1397 6.83704C60.2578 4.83704 61.8821 3.23276 63.9072 2.12848C65.9322 1.0242 68.3579 0.419922 71.0787 0.419922ZM71.0787 7.61992C69.7772 7.61992 68.6346 7.89145 67.6896 8.39631C66.7446 8.90117 65.9971 9.63937 65.4859 10.5727C64.9748 11.506 64.6998 12.6345 64.6998 13.9199C64.6998 15.2053 64.9748 16.3338 65.4859 17.2671C65.9971 18.2005 66.7446 18.9387 67.6896 19.4435C68.6346 19.9484 69.7772 20.2199 71.0787 20.2199C72.3802 20.2199 73.5228 19.9484 74.4678 19.4435C75.4128 18.9387 76.1603 18.2005 76.6714 17.2671C77.1826 16.3338 77.4576 15.2053 77.4576 13.9199C77.4576 12.6345 77.1826 11.506 76.6714 10.5727C76.1603 9.63937 75.4128 8.90117 74.4678 8.39631C73.5228 7.89145 72.3802 7.61992 71.0787 7.61992ZM113 2.29691V25.5382C113 26.0794 112.556 26.5182 112.008 26.5182H107.383C106.767 26.5182 106.184 26.2541 105.78 25.7943L94.7716 12.7999V25.5382C94.7716 26.0794 94.3172 26.5182 93.7692 26.5182H88.4707C87.9226 26.5182 87.4784 26.0794 87.4784 25.5382V2.29691C87.4784 1.75564 87.9226 1.31686 88.4707 1.31686H93.0949C93.7113 1.31686 94.2948 1.58108 94.6987 2.04106L105.707 15.04V2.29691C105.707 1.75564 106.143 1.31686 106.691 1.31686H112.008C112.556 1.31686 113 1.75564 113 2.29691Z" fill="url(#paint0_linear_414_4811)"/>
<defs>
<linearGradient id="paint0_linear_414_4811" x1="87.3977" y1="13.9199" x2="24.6467" y2="13.9199" gradientUnits="userSpaceOnUse">
<stop stop-color="#6339F5"/>
<stop offset="1" stop-color="#3D3F55"/>
</linearGradient>
</defs>
</svg>
