<svg width="98" height="30" viewBox="0 0 98 30" fill="none" xmlns="http://www.w3.org/2000/svg">
<path d="M93.6889 25.5472C95.6168 25.5472 96.9824 25.1991 97.9998 24.4494V21.0488C96.9556 21.7718 95.6971 22.227 93.9299 22.227C90.9578 22.227 89.7261 19.9242 89.7261 16.2827C89.7261 12.4537 91.2255 10.4991 93.9567 10.4991C95.5632 10.4991 97.143 11.0614 97.9731 11.5969V8.06248C97.0895 7.58051 95.5632 7.23242 93.4747 7.23242C88.1463 7.23242 85.3884 11.0614 85.3884 16.4166C85.4151 22.2805 88.1195 25.5472 93.6889 25.5472ZM67.6359 23.9942V20.5936C66.3507 21.4772 64.155 22.2537 62.1468 22.2537C59.0944 22.2537 57.943 20.8078 57.7556 17.8625H67.8233V15.6668C67.8233 9.53515 65.119 7.23242 60.9687 7.23242C55.8813 7.23242 53.4714 11.1149 53.4714 16.4433C53.4714 22.575 56.4971 25.5472 61.7988 25.5472C64.4496 25.5472 66.4042 24.8242 67.6359 23.9942ZM29.4266 7.55373V14.5155H23.8572V7.55373H19.6802V25.1991H23.8572V17.8357H29.4266V25.1991H33.6037V7.55373H29.4266ZM52.4272 21.8789H50.5796V7.55373H38.4233V9.05319C38.4233 13.3641 38.1556 18.9335 36.6829 21.8789H35.3441V29.2155H39.1998V25.1991H48.5447V29.2155H52.4004V21.8789H52.4272ZM80.9436 25.1991H85.6829L78.9889 15.6936L84.8796 7.55373H80.6758L74.7851 15.6936V7.55373H70.608V25.1991H74.7851V16.5237L80.9436 25.1991ZM60.8616 10.4991C62.9233 10.4991 63.566 12.2127 63.566 14.4352V14.7832H57.7556C57.8627 11.9718 58.8802 10.4991 60.8616 10.4991ZM46.4026 21.8789H40.5119C41.6632 19.228 41.9845 14.4084 41.9845 11.3559V10.8204H46.4026V21.8789Z" fill="black"/>
<path d="M16.1995 25.1991H11.9421V4.12645H10.041C6.56011 4.12645 4.73934 5.86689 4.73934 8.46415C4.73934 11.4095 5.99781 12.7751 8.59508 14.5155L10.7372 15.9614L4.57869 25.1991H0L5.54262 16.9521C2.35628 14.6762 0.562295 12.4538 0.562295 8.70514C0.562295 4.01935 3.82896 0.833008 10.0142 0.833008H16.1727V25.1991H16.1995Z" fill="#FC3F1D"/>
</svg>
