<svg width="109" height="37" viewBox="0 0 109 37" fill="none" xmlns="http://www.w3.org/2000/svg">
<path d="M46.3603 19.1867C46.3603 24.3173 42.3466 28.098 37.4209 28.098C32.4952 28.098 28.4814 24.3173 28.4814 19.1867C28.4814 14.0199 32.4952 10.2754 37.4209 10.2754C42.3466 10.2754 46.3603 14.0199 46.3603 19.1867ZM42.4471 19.1867C42.4471 15.9806 40.1208 13.7869 37.4209 13.7869C34.721 13.7869 32.3947 15.9806 32.3947 19.1867C32.3947 22.3607 34.721 24.5865 37.4209 24.5865C40.1208 24.5865 42.4471 22.3567 42.4471 19.1867Z" fill="#EA4335"/>
<path d="M65.6455 19.1867C65.6455 24.3173 61.6318 28.098 56.706 28.098C51.7803 28.098 47.7666 24.3173 47.7666 19.1867C47.7666 14.0239 51.7803 10.2754 56.706 10.2754C61.6318 10.2754 65.6455 14.0199 65.6455 19.1867ZM61.7322 19.1867C61.7322 15.9806 59.4059 13.7869 56.706 13.7869C54.0061 13.7869 51.6799 15.9806 51.6799 19.1867C51.6799 22.3607 54.0061 24.5865 56.706 24.5865C59.4059 24.5865 61.7322 22.3567 61.7322 19.1867Z" fill="#FBBC05"/>
<path d="M84.1273 10.8138V26.8123C84.1273 33.3934 80.2462 36.0812 75.6579 36.0812C71.3389 36.0812 68.7394 33.1925 67.7591 30.8301L71.1661 29.4118C71.7728 30.8622 73.2594 32.5738 75.6539 32.5738C78.5909 32.5738 80.4109 30.7618 80.4109 27.3507V26.0691H80.2743C79.3985 27.1498 77.711 28.094 75.5816 28.094C71.126 28.094 67.0439 24.2129 67.0439 19.2188C67.0439 14.1887 71.126 10.2754 75.5816 10.2754C77.707 10.2754 79.3944 11.2196 80.2743 12.2682H80.4109V10.8178H84.1273V10.8138ZM80.6881 19.2188C80.6881 16.081 78.5949 13.7869 75.9312 13.7869C73.2312 13.7869 70.9693 16.081 70.9693 19.2188C70.9693 22.3245 73.2312 24.5865 75.9312 24.5865C78.5949 24.5865 80.6881 22.3245 80.6881 19.2188Z" fill="#4285F4"/>
<path d="M90.2543 1.43652V27.5517H86.4375V1.43652H90.2543Z" fill="#34A853"/>
<path d="M105.128 22.1198L108.165 24.1447C107.185 25.5951 104.822 28.0941 100.74 28.0941C95.6781 28.0941 91.8975 24.1808 91.8975 19.1828C91.8975 13.8834 95.7103 10.2715 100.303 10.2715C104.927 10.2715 107.189 13.9517 107.928 15.9405L108.334 16.953L96.4214 21.8867C97.3334 23.6746 98.7517 24.5866 100.74 24.5866C102.733 24.5866 104.115 23.6063 105.128 22.1198ZM95.7786 18.9136L103.742 15.607C103.304 14.4941 101.986 13.7187 100.435 13.7187C98.4464 13.7187 95.6781 15.4744 95.7786 18.9136Z" fill="#EA4335"/>
<path d="M14.0339 16.8685V13.0878H26.7741C26.8987 13.7467 26.9629 14.5262 26.9629 15.3699C26.9629 18.2064 26.1875 21.7139 23.6885 24.2129C21.2578 26.7441 18.1521 28.094 14.0379 28.094C6.41229 28.094 0 21.8826 0 14.257C0 6.63132 6.41229 0.419922 14.0379 0.419922C18.2565 0.419922 21.2618 2.07522 23.5198 4.23274L20.852 6.90051C19.2328 5.38181 17.0392 4.2006 14.0339 4.2006C8.46535 4.2006 4.11013 8.6884 4.11013 14.257C4.11013 19.8255 8.46535 24.3133 14.0339 24.3133C17.6458 24.3133 19.7029 22.8629 21.0207 21.5451C22.0895 20.4764 22.7926 18.9497 23.0698 16.8645L14.0339 16.8685Z" fill="#4285F4"/>
</svg>
