<svg width="286" height="182" viewBox="0 0 286 182" fill="none" xmlns="http://www.w3.org/2000/svg">
<path d="M32.5062 154.69C31.2162 154.69 30.1392 154.402 29.2752 153.826C28.4172 153.25 27.7722 152.455 27.3402 151.441C26.9082 150.427 26.6922 149.26 26.6922 147.94C26.6922 146.62 26.9082 145.453 27.3402 144.439C27.7722 143.425 28.4172 142.63 29.2752 142.054C30.1392 141.478 31.2162 141.19 32.5062 141.19C34.0182 141.19 35.2362 141.586 36.1602 142.378C37.0842 143.164 37.7082 144.214 38.0322 145.528L37.2402 145.708C36.9522 144.562 36.4122 143.65 35.6202 142.972C34.8342 142.288 33.7962 141.946 32.5062 141.946C31.3962 141.946 30.4722 142.201 29.7342 142.711C29.0022 143.221 28.4502 143.929 28.0782 144.835C27.7062 145.735 27.5142 146.77 27.5022 147.94C27.4902 149.11 27.6702 150.145 28.0422 151.045C28.4142 151.945 28.9722 152.653 29.7162 153.169C30.4662 153.679 31.3962 153.934 32.5062 153.934C33.7962 153.934 34.8342 153.592 35.6202 152.908C36.4122 152.224 36.9522 151.312 37.2402 150.172L38.0322 150.352C37.7082 151.666 37.0842 152.719 36.1602 153.511C35.2362 154.297 34.0182 154.69 32.5062 154.69ZM44.5337 154.69C43.6757 154.69 42.9467 154.462 42.3467 154.006C41.7467 153.55 41.2877 152.935 40.9697 152.161C40.6577 151.381 40.5017 150.508 40.5017 149.542C40.5017 148.558 40.6607 147.682 40.9787 146.914C41.2967 146.14 41.7647 145.534 42.3827 145.096C43.0067 144.652 43.7717 144.43 44.6777 144.43C45.5477 144.43 46.2857 144.658 46.8917 145.114C47.5037 145.564 47.9687 146.176 48.2867 146.95C48.6047 147.724 48.7637 148.588 48.7637 149.542C48.7637 150.514 48.6017 151.39 48.2777 152.17C47.9537 152.944 47.4767 153.559 46.8467 154.015C46.2227 154.465 45.4517 154.69 44.5337 154.69ZM40.3757 158.74V144.7H41.0777V152.35H41.1317V158.74H40.3757ZM44.5337 153.934C45.2837 153.934 45.9107 153.742 46.4147 153.358C46.9247 152.974 47.3087 152.452 47.5667 151.792C47.8247 151.126 47.9537 150.376 47.9537 149.542C47.9537 148.714 47.8277 147.973 47.5757 147.319C47.3297 146.659 46.9547 146.14 46.4507 145.762C45.9467 145.378 45.3077 145.186 44.5337 145.186C43.7777 145.186 43.1417 145.372 42.6257 145.744C42.1157 146.116 41.7287 146.632 41.4647 147.292C41.2067 147.946 41.0777 148.696 41.0777 149.542C41.0777 150.376 41.2067 151.126 41.4647 151.792C41.7227 152.452 42.1067 152.974 42.6167 153.358C43.1327 153.742 43.7717 153.934 44.5337 153.934ZM55.0128 154.69C54.0948 154.69 53.3028 154.483 52.6368 154.069C51.9768 153.655 51.4668 153.064 51.1068 152.296C50.7468 151.528 50.5668 150.616 50.5668 149.56C50.5668 148.498 50.7438 147.583 51.0978 146.815C51.4578 146.047 51.9678 145.459 52.6278 145.051C53.2938 144.637 54.0888 144.43 55.0128 144.43C55.9428 144.43 56.7378 144.64 57.3978 145.06C58.0578 145.48 58.5618 146.089 58.9098 146.887C59.2638 147.685 59.4408 148.648 59.4408 149.776H58.6308V149.524C58.5948 148.126 58.2648 147.055 57.6408 146.311C57.0228 145.561 56.1468 145.186 55.0128 145.186C53.8608 145.186 52.9668 145.57 52.3308 146.338C51.6948 147.1 51.3768 148.174 51.3768 149.56C51.3768 150.946 51.6948 152.023 52.3308 152.791C52.9668 153.553 53.8608 153.934 55.0128 153.934C55.8168 153.934 56.5218 153.745 57.1278 153.367C57.7338 152.989 58.2168 152.446 58.5768 151.738L59.2068 152.098C58.8108 152.926 58.2498 153.565 57.5238 154.015C56.7978 154.465 55.9608 154.69 55.0128 154.69ZM51.0528 149.776V149.02H58.9728V149.776H51.0528ZM61.0651 156.58V153.664C61.6351 153.664 62.0461 153.487 62.2981 153.133C62.5501 152.779 62.7571 152.242 62.9191 151.522C63.0331 151.024 63.1261 150.481 63.1981 149.893C63.2701 149.305 63.3331 148.597 63.3871 147.769C63.4411 146.941 63.4951 145.918 63.5491 144.7H69.4351V153.664H70.3351V156.58H69.5791V154.42H61.8211V156.58H61.0651ZM62.8651 153.664H68.6791V145.456H64.3231C64.2991 145.978 64.2661 146.539 64.2241 147.139C64.1881 147.739 64.1431 148.339 64.0891 148.939C64.0411 149.539 63.9781 150.1 63.9001 150.622C63.8281 151.144 63.7411 151.588 63.6391 151.954C63.5311 152.332 63.4231 152.668 63.3151 152.962C63.2071 153.256 63.0571 153.49 62.8651 153.664ZM72.4987 154.42V144.7H73.2547V149.182H79.4827V144.7H80.2387V154.42H79.4827V149.938H73.2547V154.42H72.4987ZM89.4063 154.42V150.478H86.7783C86.4903 150.478 86.2233 150.463 85.9773 150.433C85.7373 150.403 85.5123 150.37 85.3023 150.334C84.6663 150.208 84.1143 149.926 83.6463 149.488C83.1783 149.05 82.9443 148.432 82.9443 147.634C82.9443 146.86 83.1573 146.239 83.5833 145.771C84.0153 145.303 84.5043 144.994 85.0503 144.844C85.3203 144.772 85.5903 144.73 85.8603 144.718C86.1363 144.706 86.3823 144.7 86.5983 144.7H90.1623L90.1803 154.42H89.4063ZM82.5843 154.42L85.5543 150.1H86.4903L83.4843 154.42H82.5843ZM86.8143 149.722H89.4063V145.456H86.8143C86.6463 145.456 86.4003 145.462 86.0763 145.474C85.7583 145.486 85.4643 145.534 85.1943 145.618C84.9783 145.684 84.7593 145.795 84.5373 145.951C84.3153 146.107 84.1293 146.323 83.9793 146.599C83.8293 146.869 83.7543 147.208 83.7543 147.616C83.7543 148.174 83.9013 148.615 84.1953 148.939C84.4953 149.257 84.8823 149.476 85.3563 149.596C85.6203 149.656 85.8813 149.692 86.1393 149.704C86.4033 149.716 86.6283 149.722 86.8143 149.722ZM99.3464 154.42V150.478H96.7184C96.4304 150.478 96.1634 150.463 95.9174 150.433C95.6774 150.403 95.4524 150.37 95.2424 150.334C94.6064 150.208 94.0544 149.926 93.5864 149.488C93.1184 149.05 92.8844 148.432 92.8844 147.634C92.8844 146.86 93.0974 146.239 93.5234 145.771C93.9554 145.303 94.4444 144.994 94.9904 144.844C95.2604 144.772 95.5304 144.73 95.8004 144.718C96.0764 144.706 96.3224 144.7 96.5384 144.7H100.102L100.12 154.42H99.3464ZM92.5244 154.42L95.4944 150.1H96.4304L93.4244 154.42H92.5244ZM96.7544 149.722H99.3464V145.456H96.7544C96.5864 145.456 96.3404 145.462 96.0164 145.474C95.6984 145.486 95.4044 145.534 95.1344 145.618C94.9184 145.684 94.6994 145.795 94.4774 145.951C94.2554 146.107 94.0694 146.323 93.9194 146.599C93.7694 146.869 93.6944 147.208 93.6944 147.616C93.6944 148.174 93.8414 148.615 94.1354 148.939C94.4354 149.257 94.8224 149.476 95.2964 149.596C95.5604 149.656 95.8214 149.692 96.0794 149.704C96.3434 149.716 96.5684 149.722 96.7544 149.722ZM110.874 154.69C109.914 154.69 109.104 154.471 108.444 154.033C107.784 153.595 107.283 152.989 106.941 152.215C106.599 151.441 106.428 150.55 106.428 149.542C106.428 148.522 106.602 147.628 106.95 146.86C107.298 146.092 107.802 145.495 108.462 145.069C109.128 144.643 109.932 144.43 110.874 144.43C111.84 144.43 112.653 144.649 113.313 145.087C113.973 145.519 114.471 146.119 114.807 146.887C115.149 147.655 115.32 148.54 115.32 149.542C115.32 150.568 115.149 151.468 114.807 152.242C114.465 153.01 113.961 153.61 113.295 154.042C112.635 154.474 111.828 154.69 110.874 154.69ZM110.874 153.934C112.098 153.934 113.01 153.529 113.61 152.719C114.21 151.903 114.51 150.844 114.51 149.542C114.51 148.216 114.207 147.16 113.601 146.374C113.001 145.582 112.092 145.186 110.874 145.186C110.052 145.186 109.371 145.372 108.831 145.744C108.297 146.116 107.898 146.629 107.634 147.283C107.37 147.937 107.238 148.69 107.238 149.542C107.238 150.862 107.544 151.924 108.156 152.728C108.774 153.532 109.68 153.934 110.874 153.934ZM126.16 155.86V154.42H117.664V144.7H118.42V153.664H124.162V144.7H124.918V153.664H126.916V155.86H126.16ZM132.617 154.69C131.699 154.69 130.907 154.483 130.241 154.069C129.581 153.655 129.071 153.064 128.711 152.296C128.351 151.528 128.171 150.616 128.171 149.56C128.171 148.498 128.348 147.583 128.702 146.815C129.062 146.047 129.572 145.459 130.232 145.051C130.898 144.637 131.693 144.43 132.617 144.43C133.547 144.43 134.342 144.64 135.002 145.06C135.662 145.48 136.166 146.089 136.514 146.887C136.868 147.685 137.045 148.648 137.045 149.776H136.235V149.524C136.199 148.126 135.869 147.055 135.245 146.311C134.627 145.561 133.751 145.186 132.617 145.186C131.465 145.186 130.571 145.57 129.935 146.338C129.299 147.1 128.981 148.174 128.981 149.56C128.981 150.946 129.299 152.023 129.935 152.791C130.571 153.553 131.465 153.934 132.617 153.934C133.421 153.934 134.126 153.745 134.732 153.367C135.338 152.989 135.821 152.446 136.181 151.738L136.811 152.098C136.415 152.926 135.854 153.565 135.128 154.015C134.402 154.465 133.565 154.69 132.617 154.69ZM128.657 149.776V149.02H136.577V149.776H128.657ZM139.39 154.42V144.7H140.146V149.182H146.374V144.7H147.13V154.42H146.374V149.938H140.146V154.42H139.39ZM150.015 154.42V144.7H150.771V149.38L155.631 144.7H156.765L151.689 149.56L157.539 154.42H156.243L150.771 149.74V154.42H150.015ZM161.621 154.69C160.865 154.69 160.238 154.558 159.74 154.294C159.242 154.03 158.87 153.682 158.624 153.25C158.378 152.818 158.255 152.35 158.255 151.846C158.255 151.276 158.378 150.805 158.624 150.433C158.876 150.055 159.203 149.758 159.605 149.542C160.007 149.326 160.439 149.17 160.901 149.074C161.465 148.96 162.068 148.861 162.71 148.777C163.358 148.687 163.955 148.612 164.501 148.552C165.047 148.492 165.455 148.444 165.725 148.408L165.455 148.588C165.485 147.442 165.275 146.59 164.825 146.032C164.381 145.468 163.595 145.186 162.467 145.186C161.651 145.186 160.994 145.369 160.496 145.735C160.004 146.095 159.659 146.65 159.461 147.4L158.633 147.184C158.849 146.284 159.29 145.6 159.956 145.132C160.628 144.664 161.477 144.43 162.503 144.43C163.403 144.43 164.153 144.613 164.753 144.979C165.353 145.345 165.761 145.84 165.977 146.464C166.061 146.704 166.121 146.995 166.157 147.337C166.193 147.679 166.211 148.012 166.211 148.336V154.42H165.509V151.756L165.869 151.774C165.611 152.698 165.098 153.415 164.33 153.925C163.562 154.435 162.659 154.69 161.621 154.69ZM161.585 153.934C162.287 153.934 162.905 153.808 163.439 153.556C163.979 153.304 164.414 152.941 164.744 152.467C165.08 151.987 165.293 151.414 165.383 150.748C165.431 150.412 165.455 150.052 165.455 149.668C165.455 149.284 165.455 149.008 165.455 148.84L165.851 149.146C165.533 149.176 165.092 149.218 164.528 149.272C163.97 149.32 163.379 149.386 162.755 149.47C162.131 149.548 161.567 149.65 161.063 149.776C160.769 149.848 160.466 149.962 160.154 150.118C159.842 150.274 159.578 150.493 159.362 150.775C159.152 151.057 159.047 151.42 159.047 151.864C159.047 152.176 159.125 152.491 159.281 152.809C159.437 153.127 159.698 153.394 160.064 153.61C160.436 153.826 160.943 153.934 161.585 153.934ZM172.875 154.42V144.7H173.631V149.182H179.859V144.7H180.615V154.42H179.859V149.938H173.631V154.42H172.875ZM186.326 154.69C185.57 154.69 184.943 154.558 184.445 154.294C183.947 154.03 183.575 153.682 183.329 153.25C183.083 152.818 182.96 152.35 182.96 151.846C182.96 151.276 183.083 150.805 183.329 150.433C183.581 150.055 183.908 149.758 184.31 149.542C184.712 149.326 185.144 149.17 185.606 149.074C186.17 148.96 186.773 148.861 187.415 148.777C188.063 148.687 188.66 148.612 189.206 148.552C189.752 148.492 190.16 148.444 190.43 148.408L190.16 148.588C190.19 147.442 189.98 146.59 189.53 146.032C189.086 145.468 188.3 145.186 187.172 145.186C186.356 145.186 185.699 145.369 185.201 145.735C184.709 146.095 184.364 146.65 184.166 147.4L183.338 147.184C183.554 146.284 183.995 145.6 184.661 145.132C185.333 144.664 186.182 144.43 187.208 144.43C188.108 144.43 188.858 144.613 189.458 144.979C190.058 145.345 190.466 145.84 190.682 146.464C190.766 146.704 190.826 146.995 190.862 147.337C190.898 147.679 190.916 148.012 190.916 148.336V154.42H190.214V151.756L190.574 151.774C190.316 152.698 189.803 153.415 189.035 153.925C188.267 154.435 187.364 154.69 186.326 154.69ZM186.29 153.934C186.992 153.934 187.61 153.808 188.144 153.556C188.684 153.304 189.119 152.941 189.449 152.467C189.785 151.987 189.998 151.414 190.088 150.748C190.136 150.412 190.16 150.052 190.16 149.668C190.16 149.284 190.16 149.008 190.16 148.84L190.556 149.146C190.238 149.176 189.797 149.218 189.233 149.272C188.675 149.32 188.084 149.386 187.46 149.47C186.836 149.548 186.272 149.65 185.768 149.776C185.474 149.848 185.171 149.962 184.859 150.118C184.547 150.274 184.283 150.493 184.067 150.775C183.857 151.057 183.752 151.42 183.752 151.864C183.752 152.176 183.83 152.491 183.986 152.809C184.142 153.127 184.403 153.394 184.769 153.61C185.141 153.826 185.648 153.934 186.29 153.934ZM201.486 154.69C200.52 154.69 199.71 154.474 199.056 154.042C198.402 153.61 197.907 153.01 197.571 152.242C197.235 151.468 197.058 150.574 197.04 149.56C197.058 148.522 197.235 147.619 197.571 146.851C197.913 146.083 198.411 145.489 199.065 145.069C199.719 144.643 200.526 144.43 201.486 144.43C202.386 144.43 203.187 144.646 203.889 145.078C204.597 145.504 205.098 146.092 205.392 146.842L204.672 147.148C204.402 146.524 203.985 146.041 203.421 145.699C202.863 145.357 202.218 145.186 201.486 145.186C200.67 145.186 199.995 145.372 199.461 145.744C198.927 146.11 198.528 146.623 198.264 147.283C198 147.937 197.862 148.696 197.85 149.56C197.868 150.88 198.18 151.939 198.786 152.737C199.392 153.535 200.292 153.934 201.486 153.934C202.2 153.934 202.833 153.769 203.385 153.439C203.937 153.109 204.36 152.626 204.654 151.99L205.392 152.314C204.99 153.094 204.459 153.685 203.799 154.087C203.139 154.489 202.368 154.69 201.486 154.69ZM210.469 154.69C209.713 154.69 209.086 154.558 208.588 154.294C208.09 154.03 207.718 153.682 207.472 153.25C207.226 152.818 207.103 152.35 207.103 151.846C207.103 151.276 207.226 150.805 207.472 150.433C207.724 150.055 208.051 149.758 208.453 149.542C208.855 149.326 209.287 149.17 209.749 149.074C210.313 148.96 210.916 148.861 211.558 148.777C212.206 148.687 212.803 148.612 213.349 148.552C213.895 148.492 214.303 148.444 214.573 148.408L214.303 148.588C214.333 147.442 214.123 146.59 213.673 146.032C213.229 145.468 212.443 145.186 211.315 145.186C210.499 145.186 209.842 145.369 209.344 145.735C208.852 146.095 208.507 146.65 208.309 147.4L207.481 147.184C207.697 146.284 208.138 145.6 208.804 145.132C209.476 144.664 210.325 144.43 211.351 144.43C212.251 144.43 213.001 144.613 213.601 144.979C214.201 145.345 214.609 145.84 214.825 146.464C214.909 146.704 214.969 146.995 215.005 147.337C215.041 147.679 215.059 148.012 215.059 148.336V154.42H214.357V151.756L214.717 151.774C214.459 152.698 213.946 153.415 213.178 153.925C212.41 154.435 211.507 154.69 210.469 154.69ZM210.433 153.934C211.135 153.934 211.753 153.808 212.287 153.556C212.827 153.304 213.262 152.941 213.592 152.467C213.928 151.987 214.141 151.414 214.231 150.748C214.279 150.412 214.303 150.052 214.303 149.668C214.303 149.284 214.303 149.008 214.303 148.84L214.699 149.146C214.381 149.176 213.94 149.218 213.376 149.272C212.818 149.32 212.227 149.386 211.603 149.47C210.979 149.548 210.415 149.65 209.911 149.776C209.617 149.848 209.314 149.962 209.002 150.118C208.69 150.274 208.426 150.493 208.21 150.775C208 151.057 207.895 151.42 207.895 151.864C207.895 152.176 207.973 152.491 208.129 152.809C208.285 153.127 208.546 153.394 208.912 153.61C209.284 153.826 209.791 153.934 210.433 153.934ZM221.485 143.512C221.107 143.512 220.762 143.419 220.45 143.233C220.138 143.047 219.889 142.801 219.703 142.495C219.523 142.183 219.433 141.838 219.433 141.46H220.135C220.135 141.826 220.267 142.144 220.531 142.414C220.801 142.678 221.119 142.81 221.485 142.81C221.863 142.81 222.181 142.678 222.439 142.414C222.703 142.144 222.835 141.826 222.835 141.46H223.537C223.537 141.838 223.444 142.183 223.258 142.495C223.078 142.801 222.832 143.047 222.52 143.233C222.208 143.419 221.863 143.512 221.485 143.512ZM225.013 144.7V154.42H224.257V146.032L218.461 154.42H217.759V144.7H218.515V153.088L224.311 144.7H225.013ZM230.664 154.42V145.456H227.082V144.7H235.002V145.456H231.42V154.42H230.664ZM239.445 154.69C238.689 154.69 238.062 154.558 237.564 154.294C237.066 154.03 236.694 153.682 236.448 153.25C236.202 152.818 236.079 152.35 236.079 151.846C236.079 151.276 236.202 150.805 236.448 150.433C236.7 150.055 237.027 149.758 237.429 149.542C237.831 149.326 238.263 149.17 238.725 149.074C239.289 148.96 239.892 148.861 240.534 148.777C241.182 148.687 241.779 148.612 242.325 148.552C242.871 148.492 243.279 148.444 243.549 148.408L243.279 148.588C243.309 147.442 243.099 146.59 242.649 146.032C242.205 145.468 241.419 145.186 240.291 145.186C239.475 145.186 238.818 145.369 238.32 145.735C237.828 146.095 237.483 146.65 237.285 147.4L236.457 147.184C236.673 146.284 237.114 145.6 237.78 145.132C238.452 144.664 239.301 144.43 240.327 144.43C241.227 144.43 241.977 144.613 242.577 144.979C243.177 145.345 243.585 145.84 243.801 146.464C243.885 146.704 243.945 146.995 243.981 147.337C244.017 147.679 244.035 148.012 244.035 148.336V154.42H243.333V151.756L243.693 151.774C243.435 152.698 242.922 153.415 242.154 153.925C241.386 154.435 240.483 154.69 239.445 154.69ZM239.409 153.934C240.111 153.934 240.729 153.808 241.263 153.556C241.803 153.304 242.238 152.941 242.568 152.467C242.904 151.987 243.117 151.414 243.207 150.748C243.255 150.412 243.279 150.052 243.279 149.668C243.279 149.284 243.279 149.008 243.279 148.84L243.675 149.146C243.357 149.176 242.916 149.218 242.352 149.272C241.794 149.32 241.203 149.386 240.579 149.47C239.955 149.548 239.391 149.65 238.887 149.776C238.593 149.848 238.29 149.962 237.978 150.118C237.666 150.274 237.402 150.493 237.186 150.775C236.976 151.057 236.871 151.42 236.871 151.864C236.871 152.176 236.949 152.491 237.105 152.809C237.261 153.127 237.522 153.394 237.888 153.61C238.26 153.826 238.767 153.934 239.409 153.934ZM245.655 154.42L249.615 149.506L245.745 144.7H246.681L250.065 148.948L253.431 144.7H254.367L250.497 149.506L254.457 154.42H253.503L250.065 150.064L246.609 154.42H245.655ZM39.7169 177.69C38.7209 177.69 37.8749 177.468 37.1789 177.024C36.4829 176.58 35.9489 175.971 35.5769 175.197C35.2109 174.423 35.0249 173.544 35.0189 172.56C35.0249 171.558 35.2169 170.673 35.5949 169.905C35.9729 169.131 36.5129 168.525 37.2149 168.087C37.9169 167.649 38.7599 167.43 39.7439 167.43C40.8059 167.43 41.7119 167.694 42.4619 168.222C43.2179 168.75 43.7159 169.473 43.9559 170.391L42.0839 170.931C41.8979 170.385 41.5919 169.962 41.1659 169.662C40.7459 169.356 40.2629 169.203 39.7169 169.203C39.0989 169.203 38.5919 169.35 38.1959 169.644C37.7999 169.932 37.5059 170.328 37.3139 170.832C37.1219 171.336 37.0229 171.912 37.0169 172.56C37.0229 173.562 37.2509 174.372 37.7009 174.99C38.1569 175.608 38.8289 175.917 39.7169 175.917C40.3229 175.917 40.8119 175.779 41.1839 175.503C41.5619 175.221 41.8499 174.819 42.0479 174.297L43.9559 174.747C43.6379 175.695 43.1129 176.424 42.3809 176.934C41.6489 177.438 40.7609 177.69 39.7169 177.69ZM50.1039 177.42V167.7H51.9849V171.669H56.7279V167.7H58.6089V177.42H56.7279V173.442H51.9849V177.42H50.1039ZM64.2394 177.69C63.5194 177.69 62.9164 177.558 62.4304 177.294C61.9444 177.024 61.5754 176.67 61.3234 176.232C61.0774 175.788 60.9544 175.302 60.9544 174.774C60.9544 174.282 61.0414 173.85 61.2154 173.478C61.3894 173.106 61.6474 172.791 61.9894 172.533C62.3314 172.269 62.7514 172.056 63.2494 171.894C63.6814 171.768 64.1704 171.657 64.7164 171.561C65.2624 171.465 65.8354 171.375 66.4354 171.291C67.0414 171.207 67.6414 171.123 68.2354 171.039L67.5514 171.417C67.5634 170.655 67.4014 170.091 67.0654 169.725C66.7354 169.353 66.1654 169.167 65.3554 169.167C64.8454 169.167 64.3774 169.287 63.9514 169.527C63.5254 169.761 63.2284 170.151 63.0604 170.697L61.3054 170.157C61.5454 169.323 62.0014 168.66 62.6734 168.168C63.3514 167.676 64.2514 167.43 65.3734 167.43C66.2434 167.43 66.9994 167.58 67.6414 167.88C68.2894 168.174 68.7634 168.642 69.0634 169.284C69.2194 169.602 69.3154 169.938 69.3514 170.292C69.3874 170.646 69.4054 171.027 69.4054 171.435V177.42H67.7404V175.197L68.0644 175.485C67.6624 176.229 67.1494 176.784 66.5254 177.15C65.9074 177.51 65.1454 177.69 64.2394 177.69ZM64.5724 176.151C65.1064 176.151 65.5654 176.058 65.9494 175.872C66.3334 175.68 66.6424 175.437 66.8764 175.143C67.1104 174.849 67.2634 174.543 67.3354 174.225C67.4374 173.937 67.4944 173.613 67.5064 173.253C67.5244 172.893 67.5334 172.605 67.5334 172.389L68.1454 172.614C67.5514 172.704 67.0114 172.785 66.5254 172.857C66.0394 172.929 65.5984 173.001 65.2024 173.073C64.8124 173.139 64.4644 173.22 64.1584 173.316C63.9004 173.406 63.6694 173.514 63.4654 173.64C63.2674 173.766 63.1084 173.919 62.9884 174.099C62.8744 174.279 62.8174 174.498 62.8174 174.756C62.8174 175.008 62.8804 175.242 63.0064 175.458C63.1324 175.668 63.3244 175.836 63.5824 175.962C63.8404 176.088 64.1704 176.151 64.5724 176.151ZM76.6654 177.69C75.7354 177.69 74.9554 177.465 74.3254 177.015C73.6954 176.559 73.2184 175.944 72.8944 175.17C72.5704 174.396 72.4084 173.523 72.4084 172.551C72.4084 171.579 72.5674 170.706 72.8854 169.932C73.2094 169.158 73.6834 168.549 74.3074 168.105C74.9374 167.655 75.7114 167.43 76.6294 167.43C77.5414 167.43 78.3274 167.655 78.9874 168.105C79.6534 168.549 80.1664 169.158 80.5264 169.932C80.8864 170.7 81.0664 171.573 81.0664 172.551C81.0664 173.523 80.8864 174.399 80.5264 175.179C80.1724 175.953 79.6654 176.565 79.0054 177.015C78.3514 177.465 77.5714 177.69 76.6654 177.69ZM72.0934 181.74V167.7H73.7674V174.693H73.9834V181.74H72.0934ZM76.4044 175.989C77.0044 175.989 77.4994 175.836 77.8894 175.53C78.2854 175.224 78.5794 174.813 78.7714 174.297C78.9694 173.775 79.0684 173.193 79.0684 172.551C79.0684 171.915 78.9694 171.339 78.7714 170.823C78.5794 170.307 78.2824 169.896 77.8804 169.59C77.4784 169.284 76.9654 169.131 76.3414 169.131C75.7534 169.131 75.2674 169.275 74.8834 169.563C74.5054 169.851 74.2234 170.253 74.0374 170.769C73.8574 171.285 73.7674 171.879 73.7674 172.551C73.7674 173.223 73.8574 173.817 74.0374 174.333C74.2174 174.849 74.5024 175.254 74.8924 175.548C75.2824 175.842 75.7864 175.989 76.4044 175.989ZM87.6346 177.69C86.6626 177.69 85.8196 177.471 85.1056 177.033C84.3916 176.595 83.8396 175.992 83.4496 175.224C83.0656 174.45 82.8736 173.559 82.8736 172.551C82.8736 171.537 83.0716 170.646 83.4676 169.878C83.8636 169.104 84.4186 168.504 85.1326 168.078C85.8466 167.646 86.6806 167.43 87.6346 167.43C88.6066 167.43 89.4496 167.649 90.1636 168.087C90.8776 168.525 91.4296 169.128 91.8196 169.896C92.2096 170.664 92.4046 171.549 92.4046 172.551C92.4046 173.565 92.2066 174.459 91.8106 175.233C91.4206 176.001 90.8686 176.604 90.1546 177.042C89.4406 177.474 88.6006 177.69 87.6346 177.69ZM87.6346 175.917C88.5646 175.917 89.2576 175.605 89.7136 174.981C90.1756 174.351 90.4066 173.541 90.4066 172.551C90.4066 171.537 90.1726 170.727 89.7046 170.121C89.2426 169.509 88.5526 169.203 87.6346 169.203C87.0046 169.203 86.4856 169.347 86.0776 169.635C85.6696 169.917 85.3666 170.31 85.1686 170.814C84.9706 171.312 84.8716 171.891 84.8716 172.551C84.8716 173.571 85.1056 174.387 85.5736 174.999C86.0416 175.611 86.7286 175.917 87.6346 175.917ZM94.0224 179.58V175.908C94.5564 175.908 94.9374 175.731 95.1654 175.377C95.3994 175.017 95.5854 174.408 95.7234 173.55C95.8074 173.028 95.8764 172.473 95.9304 171.885C95.9904 171.297 96.0414 170.661 96.0834 169.977C96.1254 169.287 96.1674 168.528 96.2094 167.7H103.175V175.908H104.129V179.58H102.347V177.42H95.8134V179.58H94.0224ZM96.7134 175.908H101.285V169.212H97.8834C97.8594 169.608 97.8324 170.016 97.8024 170.436C97.7784 170.856 97.7484 171.273 97.7124 171.687C97.6824 172.101 97.6464 172.497 97.6044 172.875C97.5624 173.253 97.5144 173.595 97.4604 173.901C97.3884 174.375 97.3014 174.771 97.1994 175.089C97.1034 175.407 96.9414 175.68 96.7134 175.908ZM106.273 177.42V167.7H108.154V171.669H112.897V167.7H114.778V177.42H112.897V173.442H108.154V177.42H106.273ZM117.655 177.42V167.7H119.545V171.075H120.823C121.099 171.075 121.396 171.081 121.714 171.093C122.032 171.105 122.302 171.135 122.524 171.183C123.046 171.291 123.499 171.471 123.883 171.723C124.267 171.975 124.561 172.311 124.765 172.731C124.975 173.145 125.08 173.655 125.08 174.261C125.08 175.107 124.861 175.782 124.423 176.286C123.985 176.784 123.391 177.12 122.641 177.294C122.401 177.348 122.116 177.384 121.786 177.402C121.462 177.414 121.162 177.42 120.886 177.42H117.655ZM119.545 175.908H120.994C121.15 175.908 121.324 175.902 121.516 175.89C121.708 175.878 121.885 175.851 122.047 175.809C122.329 175.725 122.584 175.554 122.812 175.296C123.04 175.038 123.154 174.693 123.154 174.261C123.154 173.817 123.04 173.463 122.812 173.199C122.59 172.935 122.308 172.764 121.966 172.686C121.81 172.644 121.645 172.617 121.471 172.605C121.303 172.593 121.144 172.587 120.994 172.587H119.545V175.908ZM126.151 177.42V167.7H128.032V177.42H126.151ZM130.899 177.42V167.7H132.474L136.065 174.828L139.647 167.7H141.231V177.42H139.413V171.552L136.488 177.42H135.633L132.708 171.552V177.42H130.899ZM152.308 167.7V177.42H150.499V170.661L145.639 177.42H144.109V167.7H145.918V174.324L150.787 167.7H152.308ZM163.368 177.69C162.396 177.69 161.553 177.471 160.839 177.033C160.125 176.595 159.573 175.992 159.183 175.224C158.799 174.45 158.607 173.559 158.607 172.551C158.607 171.537 158.805 170.646 159.201 169.878C159.597 169.104 160.152 168.504 160.866 168.078C161.58 167.646 162.414 167.43 163.368 167.43C164.34 167.43 165.183 167.649 165.897 168.087C166.611 168.525 167.163 169.128 167.553 169.896C167.943 170.664 168.138 171.549 168.138 172.551C168.138 173.565 167.94 174.459 167.544 175.233C167.154 176.001 166.602 176.604 165.888 177.042C165.174 177.474 164.334 177.69 163.368 177.69ZM163.368 175.917C164.298 175.917 164.991 175.605 165.447 174.981C165.909 174.351 166.14 173.541 166.14 172.551C166.14 171.537 165.906 170.727 165.438 170.121C164.976 169.509 164.286 169.203 163.368 169.203C162.738 169.203 162.219 169.347 161.811 169.635C161.403 169.917 161.1 170.31 160.902 170.814C160.704 171.312 160.605 171.891 160.605 172.551C160.605 173.571 160.839 174.387 161.307 174.999C161.775 175.611 162.462 175.917 163.368 175.917ZM172.775 177.42V169.392H169.454V167.7H177.977V169.392H174.656V177.42H172.775ZM183.511 177.69C182.569 177.69 181.723 177.489 180.973 177.087C180.229 176.685 179.641 176.13 179.209 175.422L180.703 174.441C181.051 174.909 181.453 175.272 181.909 175.53C182.371 175.788 182.89 175.917 183.466 175.917C184.066 175.917 184.54 175.782 184.888 175.512C185.242 175.236 185.419 174.867 185.419 174.405C185.419 174.039 185.317 173.769 185.113 173.595C184.915 173.415 184.639 173.298 184.285 173.244C183.937 173.19 183.541 173.163 183.097 173.163H182.233V171.651H183.097C183.685 171.651 184.168 171.57 184.546 171.408C184.93 171.24 185.122 170.925 185.122 170.463C185.122 170.013 184.957 169.689 184.627 169.491C184.303 169.293 183.916 169.194 183.466 169.194C182.962 169.194 182.473 169.302 181.999 169.518C181.525 169.728 181.111 169.989 180.757 170.301L179.659 169.014C180.175 168.516 180.763 168.129 181.423 167.853C182.089 167.571 182.803 167.43 183.565 167.43C184.189 167.43 184.765 167.541 185.293 167.763C185.827 167.979 186.253 168.3 186.571 168.726C186.895 169.152 187.057 169.677 187.057 170.301C187.057 170.787 186.949 171.231 186.733 171.633C186.517 172.035 186.187 172.401 185.743 172.731L185.689 172.092C186.055 172.206 186.361 172.389 186.607 172.641C186.853 172.893 187.036 173.19 187.156 173.532C187.282 173.868 187.345 174.225 187.345 174.603C187.345 175.257 187.171 175.815 186.823 176.277C186.481 176.739 186.019 177.09 185.437 177.33C184.855 177.57 184.213 177.69 183.511 177.69ZM189.678 177.42V167.7H191.568V171.075H192.846C193.122 171.075 193.419 171.081 193.737 171.093C194.055 171.105 194.325 171.135 194.547 171.183C195.069 171.291 195.522 171.471 195.906 171.723C196.29 171.975 196.584 172.311 196.788 172.731C196.998 173.145 197.103 173.655 197.103 174.261C197.103 175.107 196.884 175.782 196.446 176.286C196.008 176.784 195.414 177.12 194.664 177.294C194.424 177.348 194.139 177.384 193.809 177.402C193.485 177.414 193.185 177.42 192.909 177.42H189.678ZM191.568 175.908H193.017C193.173 175.908 193.347 175.902 193.539 175.89C193.731 175.878 193.908 175.851 194.07 175.809C194.352 175.725 194.607 175.554 194.835 175.296C195.063 175.038 195.177 174.693 195.177 174.261C195.177 173.817 195.063 173.463 194.835 173.199C194.613 172.935 194.331 172.764 193.989 172.686C193.833 172.644 193.668 172.617 193.494 172.605C193.326 172.593 193.167 172.587 193.017 172.587H191.568V175.908ZM198.174 177.42V167.7H200.055V177.42H198.174ZM202.923 177.42V167.7H207.198C207.48 167.7 207.762 167.718 208.044 167.754C208.326 167.784 208.575 167.829 208.791 167.889C209.283 168.027 209.703 168.303 210.051 168.717C210.399 169.125 210.573 169.671 210.573 170.355C210.573 170.745 210.513 171.075 210.393 171.345C210.273 171.609 210.108 171.837 209.898 172.029C209.802 172.113 209.7 172.188 209.592 172.254C209.484 172.32 209.376 172.371 209.268 172.407C209.49 172.443 209.709 172.521 209.925 172.641C210.255 172.815 210.525 173.067 210.735 173.397C210.951 173.721 211.059 174.156 211.059 174.702C211.059 175.356 210.9 175.905 210.582 176.349C210.264 176.787 209.814 177.087 209.232 177.249C209.004 177.315 208.746 177.36 208.458 177.384C208.176 177.408 207.894 177.42 207.612 177.42H202.923ZM204.831 175.935H207.495C207.621 175.935 207.765 175.923 207.927 175.899C208.089 175.875 208.233 175.842 208.359 175.8C208.629 175.716 208.821 175.563 208.935 175.341C209.055 175.119 209.115 174.882 209.115 174.63C209.115 174.288 209.025 174.015 208.845 173.811C208.665 173.601 208.437 173.466 208.161 173.406C208.041 173.364 207.909 173.34 207.765 173.334C207.621 173.328 207.498 173.325 207.396 173.325H204.831V175.935ZM204.831 171.813H206.937C207.111 171.813 207.288 171.804 207.468 171.786C207.648 171.762 207.804 171.723 207.936 171.669C208.17 171.579 208.344 171.429 208.458 171.219C208.572 171.003 208.629 170.769 208.629 170.517C208.629 170.241 208.566 169.995 208.44 169.779C208.314 169.563 208.125 169.413 207.873 169.329C207.699 169.269 207.498 169.236 207.27 169.23C207.048 169.218 206.907 169.212 206.847 169.212H204.831V171.813ZM215.969 177.69C215.249 177.69 214.646 177.558 214.16 177.294C213.674 177.024 213.305 176.67 213.053 176.232C212.807 175.788 212.684 175.302 212.684 174.774C212.684 174.282 212.771 173.85 212.945 173.478C213.119 173.106 213.377 172.791 213.719 172.533C214.061 172.269 214.481 172.056 214.979 171.894C215.411 171.768 215.9 171.657 216.446 171.561C216.992 171.465 217.565 171.375 218.165 171.291C218.771 171.207 219.371 171.123 219.965 171.039L219.281 171.417C219.293 170.655 219.131 170.091 218.795 169.725C218.465 169.353 217.895 169.167 217.085 169.167C216.575 169.167 216.107 169.287 215.681 169.527C215.255 169.761 214.958 170.151 214.79 170.697L213.035 170.157C213.275 169.323 213.731 168.66 214.403 168.168C215.081 167.676 215.981 167.43 217.103 167.43C217.973 167.43 218.729 167.58 219.371 167.88C220.019 168.174 220.493 168.642 220.793 169.284C220.949 169.602 221.045 169.938 221.081 170.292C221.117 170.646 221.135 171.027 221.135 171.435V177.42H219.47V175.197L219.794 175.485C219.392 176.229 218.879 176.784 218.255 177.15C217.637 177.51 216.875 177.69 215.969 177.69ZM216.302 176.151C216.836 176.151 217.295 176.058 217.679 175.872C218.063 175.68 218.372 175.437 218.606 175.143C218.84 174.849 218.993 174.543 219.065 174.225C219.167 173.937 219.224 173.613 219.236 173.253C219.254 172.893 219.263 172.605 219.263 172.389L219.875 172.614C219.281 172.704 218.741 172.785 218.255 172.857C217.769 172.929 217.328 173.001 216.932 173.073C216.542 173.139 216.194 173.22 215.888 173.316C215.63 173.406 215.399 173.514 215.195 173.64C214.997 173.766 214.838 173.919 214.718 174.099C214.604 174.279 214.547 174.498 214.547 174.756C214.547 175.008 214.61 175.242 214.736 175.458C214.862 175.668 215.054 175.836 215.312 175.962C215.57 176.088 215.9 176.151 216.302 176.151ZM223.823 177.42V167.7H225.398L228.989 174.828L232.571 167.7H234.155V177.42H232.337V171.552L229.412 177.42H228.557L225.632 171.552V177.42H223.823ZM245.231 167.7V177.42H243.422V170.661L238.562 177.42H237.032V167.7H238.841V174.324L243.71 167.7H245.231Z" fill="black"/>
<path d="M29.6838 29.9298C32.6894 27.7767 35.2151 25.023 37.1009 21.8429C38.9868 18.6629 40.1917 15.1258 40.6394 11.4558C33.4005 13.5933 27.8606 23.0729 29.6838 29.9298ZM33.7391 113.598C38.1846 109.893 45.9927 111.883 52.6379 116.756C49.4382 121.526 40.1586 120.792 33.7523 113.595L33.7391 113.598ZM23.8262 100.01C28.903 97.2369 36.1002 100.69 41.4784 106.581C37.4033 110.667 28.5716 108.231 23.8464 100.033L23.8262 100.01ZM16.847 84.9288C22.362 83.2109 28.7601 87.9521 32.8201 94.7747C27.9932 97.8479 19.9488 93.8163 16.8567 84.9121L16.847 84.9288ZM12.9279 68.7736C18.6701 68.1673 24.0517 74.0708 26.6886 81.4866C21.3587 83.5787 14.2663 78.0913 12.9376 68.7569L12.9279 68.7736ZM12.2136 52.0846C17.9123 52.6342 22.0989 59.5076 23.2561 67.3058C17.6235 68.3206 11.7082 61.5855 12.2136 52.0846ZM14.8093 35.4128C20.3547 37.077 22.9664 44.7679 22.6032 52.691C16.9085 52.5782 12.3947 44.7472 14.8357 35.4057L14.8093 35.4128ZM20.9415 19.2341C26.0188 21.9984 26.9156 30.2478 24.9254 38.0559C19.3278 36.8295 16.4943 28.1526 20.9415 19.2341ZM43.1537 30.2758C40.1294 36.228 34.4064 40.3324 28.7551 39.0638C30.8051 31.268 38.1326 27.5106 43.1537 30.2758ZM38.8448 41.714C37.1595 47.9713 32.3596 53.0432 26.5753 52.9121C27.0246 44.9942 33.3522 40.0357 38.8448 41.714ZM36.9912 53.5114C36.6016 59.8594 32.8679 65.7474 27.1755 66.75C26.078 58.9641 31.2758 52.9522 36.9912 53.5114ZM37.4976 65.312C38.3409 71.5698 35.8192 78.0795 30.433 80.1725C27.863 72.7953 31.7879 65.8814 37.4976 65.312ZM40.2746 76.7303C42.3015 82.7133 41.1004 89.6178 36.2278 92.7315C32.2373 85.9045 34.7921 78.4112 40.2746 76.7303ZM45.2041 87.4306C48.3712 92.9244 48.5766 100.017 44.4636 104.015C39.117 98.0315 40.1693 90.1498 45.2041 87.4306ZM52.2303 97.0463C56.5243 101.843 58.2667 108.82 55.0002 113.552C48.3884 108.698 47.7478 100.719 52.2303 97.0463ZM69.911 123.018C70.6743 123.337 71.1321 123.991 70.9323 124.51C70.7325 125.03 69.9013 125.196 69.1213 124.869C51.8766 117.688 38.0468 104.162 30.4864 87.0802C22.926 69.9988 22.2121 50.6667 28.4922 33.0743C16.5608 68.3087 33.4922 108.565 69.8776 122.999L69.911 123.018Z" fill="url(#paint0_linear_414_4845)"/>
<path d="M255.534 29.9298C252.529 27.7767 250.003 25.023 248.117 21.8429C246.231 18.6629 245.027 15.1258 244.579 11.4558C251.818 13.5933 257.358 23.0729 255.534 29.9298ZM251.479 113.598C247.034 109.893 239.226 111.883 232.58 116.756C235.78 121.526 245.06 120.792 251.466 113.595L251.479 113.598ZM261.392 100.01C256.315 97.2369 249.118 100.69 243.74 106.581C247.815 110.667 256.647 108.231 261.372 100.033L261.392 100.01ZM268.371 84.9288C262.856 83.2109 256.458 87.9521 252.398 94.7747C257.225 97.8479 265.269 93.8163 268.362 84.9121L268.371 84.9288ZM272.29 68.7736C266.548 68.1673 261.167 74.0708 258.53 81.4866C263.86 83.5787 270.952 78.0913 272.281 68.7569L272.29 68.7736ZM273.005 52.0846C267.306 52.6342 263.119 59.5076 261.962 67.3058C267.595 68.3206 273.51 61.5855 273.005 52.0846ZM270.409 35.4128C264.864 37.077 262.252 44.7679 262.615 52.691C268.31 52.5782 272.824 44.7472 270.383 35.4057L270.409 35.4128ZM264.277 19.2341C259.199 21.9984 258.303 30.2478 260.293 38.0559C265.89 36.8295 268.724 28.1526 264.277 19.2341ZM242.065 30.2758C245.089 36.228 250.812 40.3324 256.463 39.0638C254.413 31.268 247.086 27.5106 242.065 30.2758ZM246.373 41.714C248.059 47.9713 252.859 53.0432 258.643 52.9121C258.194 44.9942 251.866 40.0357 246.373 41.714ZM248.227 53.5114C248.617 59.8594 252.35 65.7474 258.043 66.75C259.14 58.9641 253.942 52.9522 248.227 53.5114ZM247.721 65.312C246.877 71.5698 249.399 78.0795 254.785 80.1725C257.355 72.7953 253.43 65.8814 247.721 65.312ZM244.944 76.7303C242.917 82.7133 244.118 89.6178 248.99 92.7315C252.981 85.9045 250.426 78.4112 244.944 76.7303ZM240.014 87.4306C236.847 92.9244 236.642 100.017 240.755 104.015C246.101 98.0315 245.049 90.1498 240.014 87.4306ZM232.988 97.0463C228.694 101.843 226.952 108.82 230.218 113.552C236.83 108.698 237.471 100.719 232.988 97.0463ZM215.307 123.018C214.544 123.337 214.086 123.991 214.286 124.51C214.486 125.03 215.317 125.196 216.097 124.869C233.342 117.688 247.171 104.162 254.732 87.0802C262.292 69.9988 263.006 50.6667 256.726 33.0743C268.657 68.3087 251.726 108.565 215.341 122.999L215.307 123.018Z" fill="url(#paint1_linear_414_4845)"/>
<path d="M115.463 105.42V90.3519H81.0923V86.2156L105.516 34.5117H110.046L85.6225 86.2156H115.463V64.0568H119.599V86.2156H128.069V90.3519H119.599V105.42H115.463Z" fill="black"/>
<path d="M174.796 33.0345C179.129 33.0345 183.085 34.1014 186.663 36.2352C190.241 38.369 193.097 41.225 195.231 44.8033C197.365 48.3815 198.432 52.3373 198.432 56.6705V83.2611C198.432 87.5944 197.365 91.5501 195.231 95.1284C193.13 98.7066 190.29 101.563 186.712 103.696C183.134 105.83 179.162 106.897 174.796 106.897C170.462 106.897 166.49 105.814 162.879 103.647C159.268 101.481 156.445 98.6246 154.409 95.0791L157.955 93.011C159.629 95.8998 161.96 98.247 164.947 100.053C167.935 101.858 171.217 102.761 174.796 102.761C178.505 102.761 181.821 101.858 184.742 100.053C187.697 98.247 190.028 95.867 191.735 92.9125C193.442 89.958 194.295 86.7409 194.295 83.2611V65.3371L195.871 67.2083C193.803 71.0491 190.914 74.2006 187.204 76.6627C183.528 79.092 179.391 80.3066 174.796 80.3066C170.462 80.3066 166.506 79.2397 162.928 77.1059C159.35 74.9721 156.494 72.116 154.36 68.5378C152.226 64.9596 151.159 61.0038 151.159 56.6705C151.159 52.3373 152.226 48.3815 154.36 44.8033C156.494 41.225 159.35 38.369 162.928 36.2352C166.506 34.1014 170.462 33.0345 174.796 33.0345ZM174.796 37.1708C171.184 37.1708 167.902 38.0407 164.947 39.7806C161.993 41.5205 159.645 43.8677 157.906 46.8222C156.166 49.7767 155.296 53.0595 155.296 56.6705C155.296 60.2816 156.166 63.5644 157.906 66.5189C159.645 69.4734 161.993 71.8206 164.947 73.5605C167.902 75.3004 171.184 76.1703 174.796 76.1703C178.407 76.1703 181.689 75.3004 184.644 73.5605C187.598 71.8206 189.946 69.4734 191.685 66.5189C193.425 63.5644 194.295 60.2816 194.295 56.6705C194.295 53.0595 193.425 49.7767 191.685 46.8222C189.946 43.8677 187.598 41.5205 184.644 39.7806C181.689 38.0407 178.407 37.1708 174.796 37.1708Z" fill="black"/>
<path d="M136.371 118.665L136.681 116.264C137.636 116.316 138.308 116.096 138.695 115.606C139.082 115.141 139.302 114.508 139.353 113.708C139.431 112.933 139.444 112.094 139.392 111.19H136.371V103.638H141.987V113.127C141.987 115.167 141.458 116.69 140.399 117.697C139.34 118.704 137.998 119.027 136.371 118.665Z" fill="black"/>
<defs>
<linearGradient id="paint0_linear_414_4845" x1="43.0243" y1="33.9296" x2="-7.1426" y2="70.3163" gradientUnits="userSpaceOnUse">
<stop stop-color="#FFE292"/>
<stop offset="0.085674" stop-color="#FFD562"/>
<stop offset="0.151478" stop-color="#FFE2A0"/>
<stop offset="0.326574" stop-color="#FCC266"/>
<stop offset="0.626342" stop-color="#FFDD9A"/>
<stop offset="0.90625" stop-color="#E98B34"/>
<stop offset="0.979167" stop-color="#FFE292"/>
</linearGradient>
<linearGradient id="paint1_linear_414_4845" x1="242.194" y1="33.9296" x2="292.361" y2="70.3163" gradientUnits="userSpaceOnUse">
<stop stop-color="#FFE292"/>
<stop offset="0.085674" stop-color="#FFD562"/>
<stop offset="0.151478" stop-color="#FFE2A0"/>
<stop offset="0.326574" stop-color="#FCC266"/>
<stop offset="0.626342" stop-color="#FFDD9A"/>
<stop offset="0.90625" stop-color="#E98B34"/>
<stop offset="0.979167" stop-color="#FFE292"/>
</linearGradient>
</defs>
</svg>
