<svg width="745" height="343" viewBox="0 0 745 343" fill="none" xmlns="http://www.w3.org/2000/svg">
<mask id="mask0_332_3905" style="mask-type:alpha" maskUnits="userSpaceOnUse" x="0" y="0" width="745" height="343">
<rect width="745" height="343" fill="#D9D9D9"/>
</mask>
<g mask="url(#mask0_332_3905)">
<path d="M68.2601 -31.2763C77.5212 -43.7869 95.261 -46.4102 107.803 -37.1264C120.344 -27.8426 123.014 -10.1084 113.755 2.40062C104.492 14.9129 86.75 17.5395 74.2084 8.25566C61.6667 -1.02817 58.9978 -18.764 68.2601 -31.2763ZM101.088 -6.97586C105.191 -12.5192 104.006 -20.3791 98.4501 -24.4922C92.8922 -28.6064 85.032 -27.4419 80.9285 -21.8986C76.8226 -16.352 78.0053 -8.49607 83.5633 -4.38182C89.1197 -0.26878 96.9819 -1.4293 101.088 -6.97586Z" fill="white"/>
<path d="M44.1758 57.4797L29.2528 67.8797L19.1715 59.2772L27.1041 42.9149C24.6348 40.1862 22.3234 37.2749 20.1829 34.1906L2.22992 38.2989L-3.86974 26.5441L9.85158 14.2933C8.43126 10.406 7.30916 6.47274 6.46563 2.51669L-11.464 -0.697991L-12.5171 -13.8856L4.68812 -19.8257C4.87601 -23.5366 5.30069 -27.2207 5.95666 -30.8569L-9.47443 -40.5913L-5.48252 -53.1973L12.7212 -52.2156C14.4383 -55.9018 16.4162 -59.4779 18.6433 -62.9047L8.20231 -77.8505L16.7893 -87.9006L33.1769 -79.9342C35.9056 -82.3933 38.8117 -84.7011 41.8945 -86.8328L37.7429 -104.775L49.4914 -110.849L61.7864 -97.1025C65.6681 -98.5119 69.6063 -99.6304 73.5628 -100.461L76.7327 -118.371L89.9351 -119.393L95.9136 -102.182C99.6302 -101.985 103.317 -101.553 106.958 -100.891L116.663 -116.289L129.285 -112.267L128.349 -94.0776C132.039 -92.3553 135.626 -90.3718 139.058 -88.1354L153.985 -98.5273L164.064 -89.9244L156.132 -73.5694C158.6 -70.8334 160.914 -67.9253 163.056 -64.8398L181.005 -68.9489L187.109 -57.1934L173.385 -44.9393C174.805 -41.0548 175.933 -37.1224 176.775 -33.1647L194.705 -29.9501L195.76 -16.7584L178.552 -10.8207C178.368 -7.11186 177.94 -3.42733 177.288 0.211269L192.718 9.94278L188.725 22.5476L170.519 21.5648C168.805 25.2505 166.827 28.8266 164.599 32.255L175.038 47.1996L166.451 57.2497L150.062 49.2821C147.332 51.7429 144.427 54.049 141.349 56.1814L145.498 74.1269L133.745 80.1974L121.456 66.4529C117.572 67.8655 113.635 68.9779 109.672 69.811L106.505 87.7206L93.3059 88.745L87.3205 71.5364C83.6071 71.3416 79.9189 70.9089 76.2806 70.2388L66.5736 85.6398L53.9504 81.6201L54.8909 63.4312C51.1942 61.7012 47.6144 59.7181 44.1758 57.4797ZM145.476 24.5408C167.44 -5.13082 161.129 -47.0314 131.386 -69.0487C101.642 -91.0673 59.7233 -84.8654 37.7601 -55.1954C15.797 -25.5253 22.1038 16.3802 51.8486 38.3987C81.5917 60.416 123.512 54.2109 145.476 24.5408Z" fill="white"/>
<path d="M149.205 120.739C153.078 115.507 160.497 114.409 165.741 118.291C170.987 122.174 172.104 129.589 168.231 134.821C164.358 140.053 156.938 141.152 151.692 137.269C146.448 133.387 145.331 125.972 149.205 120.739ZM162.933 130.899C164.648 128.582 164.154 125.295 161.83 123.575C159.506 121.855 156.219 122.342 154.503 124.66C152.786 126.979 153.281 130.263 155.605 131.984C157.928 133.704 161.216 133.219 162.933 130.899Z" fill="white"/>
<path d="M139.128 157.863L132.886 162.213L128.669 158.616L131.987 151.772C130.955 150.63 129.989 149.412 129.092 148.122L121.583 149.84L119.033 144.923L124.772 139.798C124.178 138.173 123.708 136.527 123.355 134.872L115.857 133.525L115.415 128.01L122.612 125.525C122.693 123.971 122.869 122.431 123.144 120.911L116.689 116.839L118.358 111.566L125.973 111.976C126.69 110.433 127.518 108.938 128.451 107.504L124.085 101.253L127.677 97.0499L134.532 100.383C135.674 99.354 136.889 98.3889 138.179 97.4966L136.443 89.991L141.356 87.4503L146.498 93.1996C148.122 92.6102 149.769 92.1432 151.424 91.7934L152.75 84.3022L158.273 83.874L160.774 91.073C162.328 91.1563 163.871 91.3367 165.395 91.6123L169.453 85.1723L174.733 86.8539L174.342 94.463C175.885 95.1826 177.385 96.0113 178.822 96.9492L185.066 92.6005L189.281 96.1992L185.963 103.041C186.996 104.185 187.963 105.401 188.859 106.692L196.368 104.973L198.92 109.889L193.179 115.015C193.773 116.64 194.244 118.284 194.596 119.939L202.096 121.284L202.536 126.801L195.339 129.283C195.262 130.835 195.083 132.375 194.809 133.898L201.264 137.97L199.593 143.242L191.978 142.832C191.259 144.373 190.433 145.87 189.502 147.302L193.867 153.553L190.277 157.758L183.422 154.424C182.28 155.454 181.065 156.419 179.778 157.311L181.513 164.818L176.597 167.356L171.457 161.606C169.832 162.197 168.186 162.663 166.529 163.011L165.205 170.501L159.685 170.929L157.18 163.73C155.628 163.648 154.084 163.466 152.563 163.186L148.503 169.629L143.223 167.948L143.616 160.34C142.065 159.63 140.568 158.801 139.128 157.863ZM181.501 144.088C190.689 131.676 188.049 114.149 175.609 104.94C163.167 95.7304 145.633 98.3244 136.446 110.735C127.259 123.147 129.898 140.674 142.34 149.884C154.78 159.093 172.314 156.499 181.501 144.088Z" fill="white"/>
<path d="M756.625 25.2637L747.644 31.5219L741.577 26.344L746.35 16.4972C744.865 14.8549 743.473 13.1047 742.184 11.2468L731.381 13.718L727.711 6.64244L735.967 -0.728158C735.113 -3.06903 734.438 -5.43364 733.929 -7.81591L723.139 -9.7512L722.506 -17.6863L732.857 -21.2615C732.972 -23.4968 733.225 -25.7123 733.622 -27.9L724.336 -33.7572L726.739 -41.3444L737.692 -40.7523C738.723 -42.9711 739.913 -45.1225 741.257 -47.1855L734.975 -56.1791L740.141 -62.2266L750.004 -57.4316C751.645 -58.9115 753.396 -60.3006 755.249 -61.5836L752.75 -72.3812L759.819 -76.0361L767.218 -67.7631C769.554 -68.6106 771.925 -69.284 774.307 -69.7855L776.213 -80.5637L784.16 -81.1785L787.758 -70.8199C789.995 -70.7012 792.211 -70.442 794.404 -70.0419L800.243 -79.3075L807.839 -76.8854L807.275 -65.9389C809.496 -64.901 811.654 -63.709 813.722 -62.362L822.703 -68.6174L828.768 -63.4407L823.996 -53.5984C825.481 -51.9532 826.875 -50.2019 828.163 -48.3451L838.964 -50.8175L842.637 -43.7452L834.377 -36.3714C835.231 -34.0333 835.911 -31.6679 836.417 -29.2852L847.207 -27.35L847.841 -19.412L837.486 -15.8392C837.375 -13.606 837.119 -11.3901 836.725 -9.19834L846.011 -3.34276L843.607 4.24325L832.652 3.65C831.619 5.86756 830.429 8.01893 829.089 10.0843L835.37 19.0767L830.204 25.1242L820.341 20.3292C818.698 21.8107 816.949 23.1983 815.098 24.4808L817.595 35.2801L810.522 38.9342L803.126 30.6636C800.789 31.5127 798.42 32.1845 796.036 32.6848L794.131 43.4614L786.188 44.0786L782.586 33.722C780.353 33.6041 778.132 33.3441 775.942 32.9407L770.1 42.2096L762.503 39.7892L763.069 28.8438C760.849 27.8043 758.695 26.6103 756.625 25.2637ZM817.582 5.44363C830.799 -12.412 827.001 -37.6274 809.103 -50.8767C791.203 -64.1272 765.978 -60.3971 752.761 -42.5415C739.545 -24.6875 743.342 0.531104 761.241 13.7816C779.142 27.0305 804.366 23.2976 817.582 5.44363Z" fill="white"/>
<path d="M315.251 -111.455L288.522 -92.8289L270.464 -108.237L284.675 -137.546C280.251 -142.434 276.109 -147.646 272.276 -153.171L240.118 -145.813L229.193 -166.869L253.769 -188.813C251.226 -195.773 249.217 -202.822 247.704 -209.908L215.588 -215.667L213.702 -239.29L244.518 -249.928C244.853 -256.574 245.615 -263.171 246.79 -269.687L219.149 -287.119L226.3 -309.696L258.908 -307.938C261.981 -314.541 265.524 -320.945 269.517 -327.083L250.819 -353.85L266.201 -371.849L295.555 -357.581C300.442 -361.986 305.648 -366.116 311.17 -369.938L303.732 -402.076L324.775 -412.955L346.798 -388.334C353.752 -390.859 360.803 -392.861 367.893 -394.352L373.568 -426.428L397.215 -428.262L407.925 -397.435C414.583 -397.081 421.187 -396.307 427.708 -395.124L445.09 -422.704L467.7 -415.502L466.021 -382.92C472.633 -379.838 479.053 -376.28 485.203 -372.276L511.943 -390.894L529.994 -375.486L515.785 -346.188C520.208 -341.289 524.353 -336.079 528.189 -330.554L560.339 -337.915L571.269 -316.858L546.686 -294.908C549.227 -287.953 551.248 -280.907 552.754 -273.818L584.871 -268.061L586.76 -244.435L555.936 -233.8C555.606 -227.153 554.839 -220.557 553.673 -214.039L581.312 -196.607L574.155 -174.032L541.548 -175.791C538.476 -169.188 534.933 -162.784 530.944 -156.643L549.643 -129.878L534.261 -111.876L504.905 -126.145C500.016 -121.74 494.814 -117.609 489.3 -113.787L496.734 -81.644L475.681 -70.7715L453.668 -95.3881C446.711 -92.8604 439.662 -90.8669 432.563 -89.3751L426.888 -57.2955L403.247 -55.4628L392.529 -86.2883C385.879 -86.6361 379.27 -87.4137 372.754 -88.6086L355.37 -61.0249L332.763 -68.2276L334.445 -100.807C327.823 -103.895 321.413 -107.447 315.251 -111.455ZM496.697 -170.454C536.036 -223.597 524.737 -298.652 471.461 -338.089C418.183 -377.527 343.1 -366.417 303.761 -313.274C264.421 -260.131 275.717 -185.072 328.995 -145.634C382.271 -106.196 457.358 -117.312 496.697 -170.454Z" fill="white"/>
<path d="M255.786 133.32L239.951 144.358L229.254 135.224L237.672 117.862C235.054 114.961 232.597 111.879 230.326 108.597L211.274 112.963L204.801 100.482L219.359 87.4775C217.854 83.3513 216.659 79.183 215.77 74.9793L196.736 71.5709L195.622 57.5683L213.882 51.267C214.077 47.3323 214.533 43.4252 215.222 39.5643L198.848 29.2319L203.089 15.8469L222.404 16.8969C224.225 12.9829 226.323 9.18924 228.69 5.55652L217.611 -10.3075L226.724 -20.9768L244.122 -12.5192C247.01 -15.1293 250.098 -17.5713 253.37 -19.8352L248.96 -38.8796L261.427 -45.327L274.483 -30.7382C278.598 -32.2388 282.781 -33.4227 286.981 -34.3042L290.34 -53.3123L304.357 -54.398L310.696 -36.1302C314.643 -35.9155 318.553 -35.4622 322.423 -34.7616L332.722 -51.1055L346.116 -46.8393L345.119 -27.5301C349.036 -25.6971 352.845 -23.5978 356.487 -21.2263L372.329 -32.2565L383.029 -23.1231L374.606 -5.76233C377.232 -2.86755 379.687 0.223289 381.959 3.50496L401.008 -0.86091L407.49 11.6147L392.918 24.6198C394.43 28.7408 395.624 32.9162 396.513 37.1244L415.541 40.5309L416.664 54.5278L398.406 60.8303C398.206 64.7715 397.746 68.6806 397.061 72.5423L413.432 82.8739L409.197 96.2435L389.868 95.204C388.054 99.1201 385.955 102.911 383.591 106.549L394.67 122.407L385.558 133.075L368.164 124.62C365.263 127.233 362.179 129.679 358.912 131.941L363.32 150.988L350.843 157.431L337.797 142.847C333.675 144.345 329.497 145.53 325.297 146.407L321.934 165.419L307.926 166.499L301.575 148.234C297.636 148.024 293.72 147.573 289.856 146.857L279.559 163.202L266.16 158.943L267.158 139.632C263.237 137.801 259.442 135.697 255.786 133.32ZM333.322 76.1736C344.409 61.1957 341.229 40.0418 326.213 28.9266C311.203 17.8151 290.041 20.9491 278.953 35.927C267.871 50.8984 271.052 72.0551 286.062 83.1667C301.079 94.2802 322.241 91.1433 333.322 76.1736Z" fill="white"/>
<path d="M392.83 225.282L385.571 230.342L380.668 226.158L384.529 218.201C383.327 216.874 382.203 215.461 381.157 213.96L372.43 215.957L369.462 210.237L376.134 204.281C375.442 202.389 374.899 200.475 374.488 198.553L365.768 196.987L365.254 190.575L373.622 187.687C373.71 185.881 373.919 184.089 374.242 182.319L366.734 177.584L368.677 171.451L377.529 171.932C378.367 170.139 379.324 168.399 380.408 166.734L375.335 159.466L379.511 154.578L387.479 158.453C388.808 157.258 390.22 156.136 391.722 155.098L389.702 146.373L395.415 143.419L401.397 150.104C403.285 149.414 405.199 148.877 407.122 148.472L408.661 139.759L415.085 139.261L417.992 147.632C419.801 147.731 421.594 147.937 423.364 148.262L428.086 140.772L434.22 142.73L433.771 151.577C435.564 152.411 437.307 153.378 438.975 154.467L446.239 149.412L451.141 153.595L447.279 161.551C448.483 162.88 449.608 164.293 450.645 165.795L459.381 163.798L462.346 169.515L455.671 175.475C456.362 177.362 456.91 179.278 457.32 181.2L466.038 182.764L466.557 189.181L458.184 192.069C458.097 193.873 457.885 195.662 457.569 197.438L465.073 202.167L463.13 208.301L454.275 207.818C453.443 209.617 452.481 211.352 451.398 213.019L456.471 220.288L452.299 225.179L444.324 221.299C442.997 222.497 441.583 223.614 440.086 224.658L442.107 233.384L436.391 236.335L430.412 229.651C428.522 230.341 426.611 230.881 424.679 231.283L423.139 239.997L416.721 240.489L413.811 232.12C412.003 232.027 410.212 231.818 408.439 231.49L403.724 238.985L397.584 237.027L398.04 228.181C396.241 227.339 394.503 226.374 392.83 225.282ZM447.422 213.204C460.273 195.843 456.581 171.322 439.174 158.436C421.769 145.552 397.237 149.18 384.386 166.541C371.533 183.905 375.227 208.427 392.632 221.311C410.039 234.197 434.568 230.569 447.422 213.204Z" fill="white"/>
<path d="M445.995 212.15C458.245 195.602 454.713 172.147 438.12 159.864C421.531 147.583 398.064 151.052 385.814 167.6C373.563 184.151 377.097 207.609 393.687 219.89C410.28 232.173 433.743 228.702 445.995 212.15ZM389.276 170.163C400.117 155.517 420.883 152.444 435.566 163.314C450.251 174.184 453.375 194.944 442.535 209.588C431.692 224.236 410.925 227.31 396.241 216.44C381.557 205.57 378.432 184.811 389.276 170.163Z" fill="white"/>
<path d="M487.979 165.689L490.314 163.326C494.021 159.58 494.72 153.641 491.639 149.357C487.663 143.823 479.825 143.38 475.247 148.001L473.164 150.108C470.291 153.013 465.497 152.698 463.023 149.44C461.798 147.834 460.613 146.206 459.464 144.558C457.178 141.283 458.23 136.755 461.721 134.83L464.665 133.205C469.276 130.657 471.622 125.16 469.879 120.18C467.622 113.761 460.214 111.126 454.521 114.272L451.94 115.695C448.363 117.672 443.838 116.021 442.382 112.185C441.669 110.307 440.997 108.41 440.362 106.511C439.096 102.728 441.384 98.689 445.276 97.8261L448.83 97.0368C454.591 95.7605 458.244 90.0026 456.953 84.2408C460.314 79.7007 456.219 73.4132 450.697 74.6395L441.267 76.728C437.277 77.617 433.402 74.7612 433.082 70.6867C432.925 68.6857 432.805 66.6822 432.73 64.6792C432.576 60.6925 435.915 57.4542 439.895 57.7233L443.518 57.9692C449.407 58.3655 454.543 53.8712 454.928 47.9865C455.308 42.0998 450.801 36.9597 444.91 36.5622L441.951 36.3647C437.872 36.0902 434.956 32.2657 435.798 28.2692C436.21 26.3092 436.66 24.3506 437.154 22.3986C438.131 18.5367 442.245 16.3683 445.995 17.7504L449.436 19.0168C454.98 21.0551 461.177 18.1912 463.201 12.6591L463.198 12.6567C465.225 7.11968 462.349 0.923723 456.804 -1.11462L454.035 -2.13277C450.192 -3.54305 448.468 -8.03561 450.408 -11.6321C451.354 -13.3927 452.342 -15.1351 453.368 -16.8687C455.402 -20.2955 459.955 -21.2123 463.166 -18.8357L466.095 -16.6674C470.847 -13.1501 477.601 -14.1495 481.107 -18.8863C484.615 -23.6248 483.597 -30.3773 478.847 -33.8934L476.478 -35.6466C473.187 -38.0834 472.801 -42.8682 475.674 -45.774C477.084 -47.2063 478.521 -48.608 479.982 -49.9698C482.892 -52.693 487.535 -52.2856 489.944 -49.1056L491.971 -46.4352C495.156 -42.2301 500.945 -40.6751 505.62 -43.1051C511.659 -46.2318 513.193 -53.9233 509.256 -59.1195L507.464 -61.488C504.987 -64.7534 505.97 -69.4535 509.553 -71.4313C511.312 -72.401 513.092 -73.3332 514.886 -74.2343C518.449 -76.011 522.784 -74.3142 524.2 -70.5911L525.504 -67.1622C527.602 -61.6438 533.836 -58.8307 539.351 -60.9205C544.871 -63.0068 547.665 -69.225 545.57 -74.7438L544.526 -77.4843C543.065 -81.3134 545.337 -85.545 549.332 -86.4304C551.29 -86.863 553.257 -87.2564 555.23 -87.613C559.154 -88.3188 562.841 -85.4739 563.146 -81.5012L563.431 -77.881C563.892 -71.9984 569.084 -67.5535 574.967 -67.9949C580.856 -68.4416 585.293 -73.6195 584.834 -79.5054L584.606 -82.437C584.288 -86.5149 587.652 -89.9305 591.735 -89.6608C593.736 -89.5286 595.74 -89.3534 597.738 -89.1427C601.707 -88.7186 604.445 -84.9528 603.63 -81.0471L602.878 -77.4819C601.658 -71.7113 605.387 -65.9867 611.164 -64.7552C616.938 -63.5261 622.664 -67.2409 623.881 -73.0083L624.494 -75.9064C625.339 -79.9033 629.533 -82.2369 633.382 -80.8218C635.265 -80.1297 637.135 -79.3996 638.998 -78.6249C642.686 -77.0976 644.257 -72.7137 642.362 -69.2094L640.631 -65.994C637.838 -60.8025 639.803 -54.2623 645.003 -51.4524C650.207 -48.6491 656.744 -50.5993 659.541 -55.7856L660.936 -58.3739C662.861 -61.9537 667.532 -63.0354 670.808 -60.6107C670.827 -60.5963 670.852 -60.5783 670.871 -60.5638C672.5 -59.3581 674.093 -58.1283 675.657 -56.8679C678.75 -54.3741 678.989 -49.7437 676.201 -46.923L673.646 -44.3452C669.5 -40.1549 669.543 -33.3291 673.746 -29.1761C677.946 -25.0227 684.78 -25.0522 688.923 -29.2393L691.009 -31.3437C693.884 -34.2483 698.678 -33.9329 701.154 -30.6759C702.377 -29.0713 703.564 -27.4425 704.712 -25.8005C706.999 -22.5242 705.945 -17.9957 702.457 -16.0682L699.242 -14.2957C694.079 -11.4472 692.198 -4.89095 695.062 0.2744C697.926 5.44138 704.491 7.33742 709.659 4.48685L712.233 3.06305C715.816 1.08804 720.34 2.74081 721.794 6.57246C722.505 8.45298 723.181 10.3446 723.813 12.2471C725.077 16.0261 722.79 20.0677 718.899 20.929L715.346 21.7183C709.589 22.9982 705.936 28.7561 707.224 34.5155C703.863 39.0557 707.961 45.3455 713.48 44.1213L722.908 42.0315C726.901 41.1449 730.776 43.9963 731.096 48.0725C731.253 50.0689 731.367 52.0733 731.448 54.0783C731.599 58.0597 728.262 61.2993 724.279 61.0334L720.964 60.8111C715.695 60.4566 710.749 63.8033 709.524 68.9328C707.95 75.5458 712.766 81.7575 719.263 82.1917L722.22 82.3924C726.305 82.6633 729.219 86.4866 728.381 90.4883C727.969 92.4483 727.515 94.4045 727.021 96.3565C726.045 100.218 721.927 102.389 718.179 101.006L714.985 99.8318C710.092 98.0345 704.485 99.8042 701.84 104.281C698.337 110.203 701.207 117.604 707.37 119.871L710.14 120.892C713.984 122.304 715.706 126.797 713.766 130.393C712.812 132.151 711.827 133.895 710.8 135.626C708.773 139.052 704.214 139.968 701.004 137.592L698.076 135.425C693.326 131.908 686.572 132.912 683.067 137.648C679.559 142.386 680.574 149.136 685.324 152.652L687.69 154.404C690.98 156.84 691.364 161.628 688.496 164.537C687.085 165.967 685.649 167.367 684.186 168.727C681.275 171.454 676.633 171.048 674.219 167.864L672.201 165.195C669.01 160.991 663.227 159.435 658.547 161.862C652.51 164.992 650.975 172.685 654.914 177.878L656.706 180.247C659.184 183.515 658.201 188.218 654.616 190.189C652.855 191.16 651.077 192.094 649.284 192.993C645.716 194.771 641.386 193.073 639.97 189.347L638.779 186.211C636.901 181.275 631.785 178.162 626.607 179.171C619.926 180.473 616.287 187.415 618.602 193.504L619.644 196.243C621.1 200.071 618.833 204.307 614.838 205.189C612.882 205.623 610.911 206.018 608.939 206.371C605.015 207.079 601.33 204.236 601.019 200.256L600.76 196.949C600.347 191.691 596.312 187.263 591.06 186.774C584.278 186.143 578.827 191.775 579.333 198.262L579.561 201.196C579.879 205.271 576.513 208.69 572.435 208.417C570.431 208.285 568.432 208.113 566.434 207.9C562.459 207.474 559.723 203.708 560.542 199.804L561.291 196.239C562.513 190.468 558.779 184.743 553.001 183.51C548.562 180.224 542.218 182.621 541.078 188.018L539.677 194.664C538.834 198.662 534.633 200.992 530.79 199.579C528.908 198.885 527.031 198.153 525.168 197.383C521.484 195.851 519.919 191.472 521.804 187.963L523.538 184.747C526.62 179.019 523.909 171.655 517.457 169.466C512.46 167.772 506.982 170.179 504.484 174.815L503.238 177.131C501.309 180.712 496.637 181.791 493.362 179.367C493.342 179.352 493.321 179.337 493.297 179.319C491.671 178.115 490.075 176.886 488.516 175.626C485.422 173.137 485.185 168.508 487.979 165.689ZM495.922 4.24702C483.148 24.1862 478.146 47.1412 480.356 69.3334L514.754 64.2411C513.768 50.8642 516.721 37.1468 523.933 24.9798L495.923 4.24538L495.922 4.24702ZM504.194 -6.92708L532.204 13.8074C541.735 3.3547 553.992 -3.47047 567.071 -6.43332L561.897 -40.8209C540.028 -36.4564 519.533 -24.9674 504.194 -6.92708ZM575.703 -42.6141L580.897 -8.11088C593.924 -8.33897 607.109 -4.82681 618.754 2.68625L639.4 -25.2051C619.998 -38.3374 597.571 -43.9651 575.703 -42.6141ZM682.526 39.4135C678.263 18.3389 667.38 -1.47587 650.397 -16.6423L629.644 11.3921C639.077 20.6669 645.31 32.2209 648.126 44.5018L682.526 39.4135ZM668.487 114.691C680.574 95.831 685.701 74.2744 684.348 53.2179L649.832 58.3263C650.078 70.5384 647.044 82.8899 640.477 93.957L668.487 114.691ZM628.752 93.9286C647.739 68.2789 642.284 32.0696 616.574 13.0378C590.872 -5.98788 554.647 -0.632916 535.66 25.0168C516.679 50.6583 522.13 86.877 547.831 105.903C573.541 124.934 609.771 119.57 628.752 93.9286ZM660.216 125.866L632.206 105.131C623.536 114.647 612.611 121.152 600.86 124.483L606.051 158.99C626.586 154.133 645.707 142.933 660.216 125.866ZM592.319 161.275L587.143 126.888C574.574 127.782 561.701 125.194 550.082 118.877L529.326 146.916C548.79 158.728 570.919 163.35 592.319 161.275ZM538.57 111.007C527.987 102.063 520.775 90.4787 517.187 77.9543L482.674 83.0594C487.765 104.369 499.696 124.178 517.923 138.898L538.57 111.007Z" fill="white"/>
</g>
</svg>
