<svg width="83" height="83" viewBox="0 0 83 83" fill="none" xmlns="http://www.w3.org/2000/svg">
<path d="M22.6462 15.1679C24.5839 7.11341 32.6842 2.15484 40.7387 4.09259L67.6605 10.5695C75.7149 12.5072 80.6735 20.6075 78.7358 28.6619L72.2589 55.5837C70.3211 63.6382 62.2209 68.5968 54.1664 66.659L27.2446 60.1822C19.1901 58.2444 14.2316 50.1441 16.1693 42.0897L22.6462 15.1679Z" fill="url(#paint0_linear_414_4150)"/>
<g filter="url(#filter0_bd_414_4150)">
<path d="M2 32.894C2 24.6098 8.71573 17.894 17 17.894H44.6899C52.9742 17.894 59.6899 24.6098 59.6899 32.894V60.584C59.6899 68.8683 52.9742 75.584 44.6899 75.584H17C8.71573 75.584 2 68.8683 2 60.584V32.894Z" fill="url(#paint1_linear_414_4150)" fill-opacity="0.15"/>
</g>
<path d="M21.7041 50.8604V47.2164H35.4144C35.6292 47.2164 35.8909 47.2097 36.1996 47.1963C36.5217 47.1694 36.864 47.1023 37.2264 46.995C38.4612 46.6863 39.3604 46.0756 39.9241 45.1629C40.5013 44.2502 40.7898 43.1966 40.7898 42.0021C40.7898 41.2639 40.6691 40.5391 40.4275 39.8277C40.1993 39.103 39.8235 38.4721 39.3 37.9353C38.79 37.385 38.0988 37.0092 37.2264 36.8078C36.8908 36.7139 36.5486 36.6602 36.1996 36.6468C35.8506 36.6199 35.5889 36.6065 35.4144 36.6065H27.5224V32.6404H35.5755C35.7366 32.6404 36.0184 32.6471 36.4211 32.6605C36.8371 32.6739 37.2935 32.7209 37.7901 32.8014C39.4141 33.0565 40.763 33.6067 41.8367 34.4523C42.9239 35.2979 43.7359 36.3649 44.2728 37.6534C44.8097 38.9285 45.0781 40.3445 45.0781 41.9014C45.0781 44.2502 44.4674 46.2165 43.246 47.8003C42.0246 49.3706 40.206 50.337 37.7901 50.6994C37.2935 50.7799 36.8371 50.8269 36.4211 50.8403C36.0184 50.8537 35.7366 50.8604 35.5755 50.8604H21.7041ZM21.7041 57.3633V53.981H38.3538V57.3633H21.7041ZM24.6636 61.6314V32.6404H28.8713V61.6314H24.6636Z" fill="black"/>
<defs>
<filter id="filter0_bd_414_4150" x="-22" y="-6.10596" width="105.69" height="105.69" filterUnits="userSpaceOnUse" color-interpolation-filters="sRGB">
<feFlood flood-opacity="0" result="BackgroundImageFix"/>
<feGaussianBlur in="BackgroundImage" stdDeviation="12"/>
<feComposite in2="SourceAlpha" operator="in" result="effect1_backgroundBlur_414_4150"/>
<feColorMatrix in="SourceAlpha" type="matrix" values="0 0 0 0 0 0 0 0 0 0 0 0 0 0 0 0 0 0 127 0" result="hardAlpha"/>
<feOffset dx="8" dy="-3"/>
<feGaussianBlur stdDeviation="5"/>
<feColorMatrix type="matrix" values="0 0 0 0 0 0 0 0 0 0 0 0 0 0 0 0 0 0 0.1 0"/>
<feBlend mode="normal" in2="effect1_backgroundBlur_414_4150" result="effect2_dropShadow_414_4150"/>
<feBlend mode="normal" in="SourceGraphic" in2="effect2_dropShadow_414_4150" result="shape"/>
</filter>
<linearGradient id="paint0_linear_414_4150" x1="28.4486" y1="12.4244" x2="59.1747" y2="66.4449" gradientUnits="userSpaceOnUse">
<stop stop-color="#FFE292"/>
<stop offset="0.085674" stop-color="#FFD562"/>
<stop offset="0.151478" stop-color="#FFE2A0"/>
<stop offset="0.326574" stop-color="#FCC266"/>
<stop offset="0.626342" stop-color="#FFDD9A"/>
<stop offset="0.90625" stop-color="#E98B34"/>
<stop offset="0.979167" stop-color="#FFE292"/>
</linearGradient>
<linearGradient id="paint1_linear_414_4150" x1="6.99972" y1="28.8695" x2="49.5092" y2="74.2043" gradientUnits="userSpaceOnUse">
<stop stop-color="#FFE292"/>
<stop offset="0.085674" stop-color="#FFD562"/>
<stop offset="0.151478" stop-color="#FFE2A0"/>
<stop offset="0.326574" stop-color="#FCC266"/>
<stop offset="0.626342" stop-color="#FFDD9A"/>
<stop offset="0.90625" stop-color="#E98B34"/>
<stop offset="0.979167" stop-color="#FFE292"/>
</linearGradient>
</defs>
</svg>
