<svg width="113" height="44" viewBox="0 0 113 44" fill="none" xmlns="http://www.w3.org/2000/svg">
<path d="M6.94754 38.8213C5.93954 38.8213 5.08088 38.602 4.37154 38.1633C3.66221 37.72 3.11854 37.104 2.74054 36.3153C2.36721 35.5267 2.18054 34.612 2.18054 33.5713C2.18054 32.5307 2.36721 31.616 2.74054 30.8273C3.11854 30.0387 3.66221 29.425 4.37154 28.9863C5.08088 28.543 5.93954 28.3213 6.94754 28.3213C8.10954 28.3213 9.07088 28.6153 9.83154 29.2033C10.5969 29.7913 11.1289 30.5823 11.4275 31.5763L9.94354 31.9753C9.74754 31.2707 9.39754 30.7177 8.89354 30.3163C8.39421 29.915 7.74554 29.7143 6.94754 29.7143C6.23354 29.7143 5.63854 29.8753 5.16254 30.1973C4.68654 30.5193 4.32721 30.9697 4.08454 31.5483C3.84654 32.127 3.72754 32.8013 3.72754 33.5713C3.72288 34.3413 3.83954 35.0157 4.07754 35.5943C4.32021 36.173 4.67954 36.6233 5.15554 36.9453C5.63621 37.2673 6.23354 37.4283 6.94754 37.4283C7.74554 37.4283 8.39421 37.2277 8.89354 36.8263C9.39754 36.4203 9.74754 35.8673 9.94354 35.1673L11.4275 35.5663C11.1289 36.5603 10.5969 37.3513 9.83154 37.9393C9.07088 38.5273 8.10954 38.8213 6.94754 38.8213ZM13.2401 38.6113V31.0513H14.4651L17.2581 36.5953L20.0441 31.0513H21.2761V38.6113H19.8621V34.0473L17.5871 38.6113H16.9221L14.6471 34.0473V38.6113H13.2401ZM26.8042 38.8213C26.0482 38.8213 25.3926 38.651 24.8372 38.3103C24.2819 37.9697 23.8526 37.5007 23.5492 36.9033C23.2506 36.3013 23.1012 35.6083 23.1012 34.8243C23.1012 34.0357 23.2552 33.3427 23.5632 32.7453C23.8712 32.1433 24.3029 31.6767 24.8582 31.3453C25.4136 31.0093 26.0622 30.8413 26.8042 30.8413C27.5602 30.8413 28.2159 31.0117 28.7712 31.3523C29.3266 31.693 29.7559 32.162 30.0592 32.7593C30.3626 33.3567 30.5142 34.045 30.5142 34.8243C30.5142 35.613 30.3602 36.3083 30.0522 36.9103C29.7489 37.5077 29.3196 37.9767 28.7642 38.3173C28.2089 38.6533 27.5556 38.8213 26.8042 38.8213ZM26.8042 37.4423C27.5276 37.4423 28.0666 37.1997 28.4212 36.7143C28.7806 36.2243 28.9602 35.5943 28.9602 34.8243C28.9602 34.0357 28.7782 33.4057 28.4142 32.9343C28.0549 32.4583 27.5182 32.2203 26.8042 32.2203C26.3142 32.2203 25.9106 32.3323 25.5932 32.5563C25.2759 32.7757 25.0402 33.0813 24.8862 33.4733C24.7322 33.8607 24.6552 34.311 24.6552 34.8243C24.6552 35.6177 24.8372 36.2523 25.2012 36.7283C25.5652 37.2043 26.0996 37.4423 26.8042 37.4423ZM34.1214 38.6113V32.3673H31.5384V31.0513H38.1674V32.3673H35.5844V38.6113H34.1214ZM43.3256 38.8213C42.6022 38.8213 41.9956 38.6463 41.5056 38.2963C41.0156 37.9417 40.6446 37.4633 40.3926 36.8613C40.1406 36.2593 40.0146 35.5803 40.0146 34.8243C40.0146 34.0683 40.1382 33.3893 40.3856 32.7873C40.6376 32.1853 41.0062 31.7117 41.4916 31.3663C41.9816 31.0163 42.5836 30.8413 43.2976 30.8413C44.0069 30.8413 44.6182 31.0163 45.1316 31.3663C45.6496 31.7117 46.0486 32.1853 46.3286 32.7873C46.6086 33.3847 46.7486 34.0637 46.7486 34.8243C46.7486 35.5803 46.6086 36.2617 46.3286 36.8683C46.0532 37.4703 45.6589 37.9463 45.1456 38.2963C44.6369 38.6463 44.0302 38.8213 43.3256 38.8213ZM39.7696 41.9713V31.0513H41.0716V36.4903H41.2396V41.9713H39.7696ZM43.1226 37.4983C43.5892 37.4983 43.9742 37.3793 44.2776 37.1413C44.5856 36.9033 44.8142 36.5837 44.9636 36.1823C45.1176 35.7763 45.1946 35.3237 45.1946 34.8243C45.1946 34.3297 45.1176 33.8817 44.9636 33.4803C44.8142 33.079 44.5832 32.7593 44.2706 32.5213C43.9579 32.2833 43.5589 32.1643 43.0736 32.1643C42.6162 32.1643 42.2382 32.2763 41.9396 32.5003C41.6456 32.7243 41.4262 33.037 41.2816 33.4383C41.1416 33.8397 41.0716 34.3017 41.0716 34.8243C41.0716 35.347 41.1416 35.809 41.2816 36.2103C41.4216 36.6117 41.6432 36.9267 41.9466 37.1553C42.2499 37.384 42.6419 37.4983 43.1226 37.4983ZM51.9271 38.8213C51.1758 38.8213 50.5155 38.658 49.9461 38.3313C49.3815 38 48.9405 37.5403 48.6231 36.9523C48.3105 36.3597 48.1541 35.6737 48.1541 34.8943C48.1541 34.0683 48.3081 33.352 48.6161 32.7453C48.9288 32.1387 49.3628 31.6697 49.9181 31.3383C50.4735 31.007 51.1198 30.8413 51.8571 30.8413C52.6271 30.8413 53.2828 31.021 53.8241 31.3803C54.3655 31.735 54.7691 32.2413 55.0351 32.8993C55.3058 33.5573 55.4131 34.339 55.3571 35.2443H53.8941V34.7123C53.8848 33.835 53.7168 33.1863 53.3901 32.7663C53.0681 32.3463 52.5758 32.1363 51.9131 32.1363C51.1805 32.1363 50.6298 32.3673 50.2611 32.8293C49.8925 33.2913 49.7081 33.9587 49.7081 34.8313C49.7081 35.662 49.8925 36.306 50.2611 36.7633C50.6298 37.216 51.1618 37.4423 51.8571 37.4423C52.3145 37.4423 52.7088 37.3397 53.0401 37.1343C53.3761 36.9243 53.6375 36.6257 53.8241 36.2383L55.2591 36.6933C54.9651 37.37 54.5195 37.895 53.9221 38.2683C53.3248 38.637 52.6598 38.8213 51.9271 38.8213ZM49.2321 35.2443V34.1033H54.6291V35.2443H49.2321ZM58.9692 38.6113V32.3673H56.3862V31.0513H63.0152V32.3673H60.4322V38.6113H58.9692ZM64.6174 38.6113V31.0513H66.0874V33.6763H67.5784C67.793 33.6763 68.0217 33.681 68.2644 33.6903C68.5117 33.6997 68.724 33.723 68.9014 33.7603C69.3074 33.8443 69.6574 33.9843 69.9514 34.1803C70.25 34.3763 70.481 34.6377 70.6444 34.9643C70.8077 35.2863 70.8894 35.683 70.8894 36.1543C70.8894 36.8123 70.7167 37.3373 70.3714 37.7293C70.0307 38.1167 69.5687 38.378 68.9854 38.5133C68.7987 38.5553 68.577 38.5833 68.3204 38.5973C68.0684 38.6067 67.8374 38.6113 67.6274 38.6113H64.6174ZM66.0874 37.4353H67.7114C67.828 37.4353 67.961 37.4307 68.1104 37.4213C68.2597 37.412 68.3974 37.391 68.5234 37.3583C68.7474 37.293 68.948 37.16 69.1254 36.9593C69.3027 36.7587 69.3914 36.4903 69.3914 36.1543C69.3914 35.809 69.3027 35.5337 69.1254 35.3283C68.9527 35.123 68.7334 34.99 68.4674 34.9293C68.3414 34.8967 68.213 34.8757 68.0824 34.8663C67.9517 34.857 67.828 34.8523 67.7114 34.8523H66.0874V37.4353ZM79.3497 41.7613V38.7443C78.6124 38.861 77.9427 38.7817 77.3407 38.5063C76.7387 38.231 76.2604 37.783 75.9057 37.1623C75.5511 36.5417 75.3737 35.767 75.3737 34.8383C75.3737 33.9097 75.5511 33.1327 75.9057 32.5073C76.2604 31.882 76.7387 31.4317 77.3407 31.1563C77.9427 30.881 78.6124 30.8017 79.3497 30.9183V28.6293H80.6657V30.9183C81.4031 30.8017 82.0727 30.881 82.6747 31.1563C83.2767 31.4317 83.7551 31.882 84.1097 32.5073C84.4644 33.1327 84.6417 33.9097 84.6417 34.8383C84.6417 35.767 84.4644 36.5417 84.1097 37.1623C83.7551 37.783 83.2767 38.231 82.6747 38.5063C82.0727 38.7817 81.4031 38.861 80.6657 38.7443V41.7613H79.3497ZM79.3497 37.4213V32.2483C78.9717 32.183 78.6287 32.1947 78.3207 32.2833C78.0174 32.372 77.7584 32.5283 77.5437 32.7523C77.3291 32.9717 77.1634 33.2587 77.0467 33.6133C76.9301 33.9633 76.8717 34.3717 76.8717 34.8383C76.8717 35.305 76.9301 35.7133 77.0467 36.0633C77.1681 36.4133 77.3384 36.7003 77.5577 36.9243C77.7817 37.1437 78.0454 37.2977 78.3487 37.3863C78.6521 37.4703 78.9857 37.482 79.3497 37.4213ZM80.6657 37.4213C81.0297 37.482 81.3634 37.4703 81.6667 37.3863C81.9701 37.3023 82.2314 37.1507 82.4507 36.9313C82.6747 36.712 82.8451 36.4273 82.9617 36.0773C83.0831 35.7227 83.1437 35.3097 83.1437 34.8383C83.1437 34.3623 83.0854 33.9493 82.9687 33.5993C82.8521 33.2447 82.6864 32.9577 82.4717 32.7383C82.2571 32.5143 81.9957 32.3603 81.6877 32.2763C81.3844 32.1923 81.0437 32.183 80.6657 32.2483V37.4213ZM89.7474 38.8213C88.9914 38.8213 88.3357 38.651 87.7804 38.3103C87.225 37.9697 86.7957 37.5007 86.4924 36.9033C86.1937 36.3013 86.0444 35.6083 86.0444 34.8243C86.0444 34.0357 86.1984 33.3427 86.5064 32.7453C86.8144 32.1433 87.246 31.6767 87.8014 31.3453C88.3567 31.0093 89.0054 30.8413 89.7474 30.8413C90.5034 30.8413 91.159 31.0117 91.7144 31.3523C92.2697 31.693 92.699 32.162 93.0024 32.7593C93.3057 33.3567 93.4574 34.045 93.4574 34.8243C93.4574 35.613 93.3034 36.3083 92.9954 36.9103C92.692 37.5077 92.2627 37.9767 91.7074 38.3173C91.152 38.6533 90.4987 38.8213 89.7474 38.8213ZM89.7474 37.4423C90.4707 37.4423 91.0097 37.1997 91.3644 36.7143C91.7237 36.2243 91.9034 35.5943 91.9034 34.8243C91.9034 34.0357 91.7214 33.4057 91.3574 32.9343C90.998 32.4583 90.4614 32.2203 89.7474 32.2203C89.2574 32.2203 88.8537 32.3323 88.5364 32.5563C88.219 32.7757 87.9834 33.0813 87.8294 33.4733C87.6754 33.8607 87.5984 34.311 87.5984 34.8243C87.5984 35.6177 87.7804 36.2523 88.1444 36.7283C88.5084 37.2043 89.0427 37.4423 89.7474 37.4423ZM97.0646 38.6113V32.3673H94.4816V31.0513H101.111V32.3673H98.5276V38.6113H97.0646ZM105.866 38.8213C105.11 38.8213 104.454 38.651 103.899 38.3103C103.344 37.9697 102.914 37.5007 102.611 36.9033C102.312 36.3013 102.163 35.6083 102.163 34.8243C102.163 34.0357 102.317 33.3427 102.625 32.7453C102.933 32.1433 103.365 31.6767 103.92 31.3453C104.475 31.0093 105.124 30.8413 105.866 30.8413C106.622 30.8413 107.278 31.0117 107.833 31.3523C108.388 31.693 108.818 32.162 109.121 32.7593C109.424 33.3567 109.576 34.045 109.576 34.8243C109.576 35.613 109.422 36.3083 109.114 36.9103C108.811 37.5077 108.381 37.9767 107.826 38.3173C107.271 38.6533 106.617 38.8213 105.866 38.8213ZM105.866 37.4423C106.589 37.4423 107.128 37.1997 107.483 36.7143C107.842 36.2243 108.022 35.5943 108.022 34.8243C108.022 34.0357 107.84 33.4057 107.476 32.9343C107.117 32.4583 106.58 32.2203 105.866 32.2203C105.376 32.2203 104.972 32.3323 104.655 32.5563C104.338 32.7757 104.102 33.0813 103.948 33.4733C103.794 33.8607 103.717 34.311 103.717 34.8243C103.717 35.6177 103.899 36.2523 104.263 36.7283C104.627 37.2043 105.161 37.4423 105.866 37.4423Z" fill="white"/>
<path d="M38.7639 10.4643C48.5644 -2.15477 64.4533 -2.15477 74.2538 10.4643M62.6536 3.70982C65.8005 6.85672 65.8005 11.9589 62.6536 15.1058C59.5067 18.2527 54.4046 18.2527 51.2577 15.1058C48.1107 11.9589 48.1107 6.85672 51.2577 3.70982C54.4046 0.562907 59.5067 0.562907 62.6536 3.70982" stroke="white" stroke-width="1.5" stroke-linejoin="round"/>
</svg>
