<svg width="20" height="20" viewBox="0 0 20 20" fill="none" xmlns="http://www.w3.org/2000/svg">
<path d="M19.2009 8.40747C19.8676 7.82017 19.4945 6.71993 18.608 6.65938L13.6433 6.32031C13.2548 6.29377 12.917 6.04409 12.7776 5.68043L10.9294 0.856951C10.6013 0.000688434 9.38991 0.000687957 9.06182 0.85695L7.21359 5.68048C7.07425 6.04411 6.7365 6.29379 6.348 6.32035L1.38934 6.65938C0.503246 6.71997 0.129979 7.81947 0.79605 8.407L4.67064 11.8247C4.94966 12.0708 5.06898 12.4515 4.98036 12.8128L3.72052 17.9499C3.50415 18.8322 4.48127 19.5226 5.24062 19.024L9.44674 16.2621C9.77995 16.0433 10.2113 16.0433 10.5445 16.2621L14.7507 19.024C15.51 19.5226 16.4871 18.8322 16.2708 17.9499L15.011 12.8133C14.9224 12.4517 15.0419 12.0708 15.3213 11.8247L19.2009 8.40747Z" fill="url(#paint0_linear_602_2323)"/>
<defs>
<linearGradient id="paint0_linear_602_2323" x1="0.906637" y1="2.6054" x2="17.1176" y2="19.8938" gradientUnits="userSpaceOnUse">
<stop stop-color="#FFE292"/>
<stop offset="0.085674" stop-color="#FFD562"/>
<stop offset="0.151478" stop-color="#FFE2A0"/>
<stop offset="0.326574" stop-color="#FCC266"/>
<stop offset="0.626342" stop-color="#FFDD9A"/>
<stop offset="0.90625" stop-color="#E98B34"/>
<stop offset="0.979167" stop-color="#FFE292"/>
</linearGradient>
</defs>
</svg>
