<svg width="8" height="11" viewBox="0 0 8 11" fill="none" xmlns="http://www.w3.org/2000/svg">
<g clip-path="url(#clip0_332_2875)">
<path fill-rule="evenodd" clip-rule="evenodd" d="M5.05823 -0.000976562C5.69528 -0.000976562 6.2116 0.519645 6.2116 1.162C6.2116 1.80437 5.69528 2.32499 5.05823 2.32499C4.42118 2.32499 3.90486 1.80437 3.90486 1.162C3.90486 0.519645 4.42118 -0.000976562 5.05823 -0.000976562ZM5.15221 4.59597L4.32439 6.04176C4.98035 6.6266 5.26097 7.02414 5.03902 7.94528C4.85105 8.72415 4.38217 9.81454 4.38084 9.81755C4.08189 10.4864 3.07319 10.0281 3.37214 9.35922C3.37332 9.3565 3.80142 8.36284 3.96529 7.68333C4.05928 7.2928 3.95554 7.21114 3.68068 6.95516C3.18402 6.87798 2.85818 6.85503 2.54948 6.72688C2.24655 8.17444 1.77264 8.84214 1.02993 10.0401C0.646015 10.6624 -0.293527 10.0729 0.0903876 9.45066L0.583212 8.65573C1.41606 7.31218 1.31986 6.08572 1.72697 5.37422L2.88892 3.34478C2.17517 3.30872 1.66491 4.30973 1.24597 4.86119C0.805018 5.44336 -0.0737883 4.76643 0.367019 4.18441C1.32636 2.92131 1.513 2.02772 3.28244 2.26554C4.32897 2.40604 5.31683 2.71359 5.93689 3.65366C6.09191 3.88864 6.15914 4.11527 6.22771 4.30467C6.5568 4.15595 6.89224 4.02349 7.22636 3.88686C7.90138 3.61134 8.31665 4.64618 7.64189 4.92155C7.49927 4.97996 6.33277 5.47212 6.32405 5.47212C5.39722 5.79024 5.40076 5.17574 5.15221 4.59597Z" fill="black"/>
</g>
<defs>
<clipPath id="clip0_332_2875">
<rect width="8" height="11" fill="white" transform="translate(0 -0.000976562)"/>
</clipPath>
</defs>
</svg>
