<svg width="40" height="40" viewBox="0 0 40 40" fill="none" xmlns="http://www.w3.org/2000/svg">
<path fill-rule="evenodd" clip-rule="evenodd" d="M9.43784 19.9007C15.0738 17.6498 18.8258 16.1542 20.7098 15.4286C26.0721 13.3702 27.1992 13.0148 27.9239 13C28.0849 13 28.4392 13.0296 28.6807 13.2073C28.8739 13.3554 28.9222 13.5479 28.9545 13.696C28.9867 13.8441 29.0189 14.155 28.9867 14.392C28.6968 17.2056 27.4408 24.0322 26.7967 27.1715C26.5229 28.5043 25.9915 28.9485 25.4762 28.993C24.349 29.0818 23.4956 28.3118 22.4167 27.6602C20.7098 26.6384 19.7597 26.0017 18.1012 24.9947C16.1849 23.8397 17.4248 23.2029 18.5198 22.1663C18.8097 21.8998 23.7532 17.7535 23.8499 17.3833C23.866 17.3388 23.866 17.1611 23.7532 17.0723C23.6405 16.9834 23.4795 17.0131 23.3507 17.0427C23.1735 17.0723 20.4683 18.7308 15.2026 22.0034C14.4297 22.4921 13.7373 22.7291 13.1093 22.7142C12.4169 22.6994 11.0964 22.3588 10.0981 22.0627C8.89035 21.7073 7.92418 21.5148 8.00469 20.8928C8.053 20.567 8.53608 20.2413 9.43784 19.9007Z" fill="white"/>
</svg>
