<svg width="40" height="40" viewBox="0 0 40 40" fill="none" xmlns="http://www.w3.org/2000/svg">
<path d="M30.6517 25.5069C30.6517 25.4169 30.563 25.4169 30.563 25.3269C30.2084 24.6067 29.4103 23.7065 28.3463 22.7163C27.8143 22.2662 27.5483 21.9061 27.3709 21.7261C27.1049 21.366 27.1049 21.096 27.1936 20.7359C27.2823 20.4658 27.6369 20.0157 28.2576 19.2055C28.6123 18.7554 28.7896 18.4854 29.0556 18.2153C30.3857 16.4149 31.0064 15.2447 30.829 14.7046L30.7404 14.6146C30.6517 14.5245 30.563 14.4345 30.3857 14.4345C30.2083 14.3445 29.9423 14.3445 29.6763 14.4345H26.3069C26.2182 14.4345 26.2182 14.4345 26.0409 14.4345C25.9522 14.4345 25.8636 14.4345 25.8636 14.4345H25.7749H25.6862L25.5975 14.5245C25.5089 14.6145 25.5089 14.6145 25.5089 14.7046C25.1542 15.6948 24.7108 16.505 24.2675 17.4052C24.0015 17.8553 23.7355 18.3054 23.4695 18.6654C23.2035 19.0255 23.0261 19.2956 22.8488 19.4756C22.6714 19.6556 22.4941 19.7457 22.4054 19.9257C22.3168 20.0157 22.1394 20.1057 22.1394 20.0157C22.0508 20.0157 21.9621 20.0157 21.9621 19.9257C21.8734 19.8357 21.7848 19.7457 21.6961 19.6556C21.6074 19.5656 21.6074 19.3856 21.5187 19.2055C21.5187 19.0255 21.5187 18.8455 21.5187 18.7554C21.5187 18.6654 21.5187 18.3954 21.5187 18.2153C21.5187 17.9453 21.5187 17.7652 21.5187 17.6752C21.5187 17.4052 21.5187 17.0451 21.5187 16.685C21.5187 16.3249 21.5187 16.0549 21.5187 15.8748C21.5187 15.6948 21.5187 15.4247 21.5187 15.2447C21.5187 14.9746 21.5187 14.7946 21.5187 14.7046C21.5187 14.6145 21.4301 14.4345 21.4301 14.3445C21.3414 14.2545 21.2527 14.1644 21.1641 14.0744C21.0754 13.9844 20.8981 13.9844 20.8094 13.8944C20.366 13.8044 19.834 13.7144 19.2134 13.7144C17.7946 13.7144 16.8193 13.8044 16.4646 13.9844C16.2873 14.0744 16.1099 14.1645 16.0212 14.3445C15.8439 14.5245 15.8439 14.6146 15.9326 14.6146C16.3759 14.7046 16.7306 14.8846 16.9079 15.1547L16.9966 15.3347C17.0853 15.4247 17.0853 15.6048 17.1739 15.8748C17.2626 16.1449 17.2626 16.4149 17.2626 16.775C17.2626 17.3151 17.2626 17.8553 17.2626 18.2153C17.2626 18.6654 17.1739 18.9355 17.1739 19.2055C17.1739 19.4756 17.0853 19.6556 16.9966 19.7457C16.9079 19.9257 16.9079 20.0157 16.8193 20.0157C16.8193 20.0157 16.8193 20.1057 16.7306 20.1057C16.6419 20.1057 16.5533 20.1958 16.3759 20.1958C16.2872 20.1958 16.1099 20.1057 16.0212 20.0157C15.8439 19.9257 15.6666 19.7457 15.5779 19.5656C15.4006 19.3856 15.2232 19.1155 15.0459 18.7554C14.8685 18.3954 14.6025 18.0353 14.4252 17.4952L14.2479 17.1351C14.1592 16.9551 13.9818 16.595 13.8045 16.1449C13.6272 15.6948 13.4498 15.3347 13.2725 14.8846C13.1838 14.7046 13.0952 14.6145 13.0065 14.5245H12.9178C12.9178 14.5245 12.8291 14.4345 12.7405 14.4345C12.6518 14.4345 12.5631 14.3445 12.4745 14.3445H9.28236C8.92768 14.3445 8.75034 14.4345 8.66167 14.5245L8.573 14.6146C8.573 14.6146 8.573 14.7046 8.573 14.7946C8.573 14.8846 8.573 14.9746 8.66167 15.1547C9.10502 16.2349 9.63703 17.3151 10.1691 18.3954C10.7011 19.3856 11.2331 20.2858 11.5878 20.9159C12.0311 21.5461 12.3858 22.1762 12.8291 22.7163C13.2725 23.2564 13.5385 23.6165 13.6272 23.7966C13.8045 23.9766 13.8932 24.0666 13.9818 24.1566L14.2479 24.4267C14.4252 24.6067 14.6912 24.8768 15.0459 25.1468C15.4006 25.4169 15.8439 25.687 16.2872 25.957C16.7306 26.2271 17.2626 26.4071 17.7946 26.5872C18.4153 26.7672 18.9473 26.8572 19.4793 26.7672H20.8094C21.0754 26.7672 21.2527 26.6772 21.4301 26.4971L21.5187 26.4071C21.5187 26.3171 21.6074 26.3171 21.6074 26.2271C21.6074 26.1371 21.6074 26.047 21.6074 25.867C21.6074 25.5069 21.6074 25.2369 21.6961 24.9668C21.7848 24.6968 21.7848 24.5167 21.8734 24.3367C21.9621 24.1566 22.0508 24.0666 22.1394 23.9766C22.2281 23.8866 22.3168 23.7966 22.3168 23.7966H22.4054C22.5828 23.7065 22.8488 23.7965 23.0261 23.9766C23.2921 24.1566 23.5581 24.4267 23.7355 24.6967C23.9128 24.9668 24.1788 25.2369 24.5335 25.5969C24.8882 25.957 25.1542 26.2271 25.3315 26.3171L25.5975 26.4971C25.7749 26.5872 25.9522 26.6772 26.2182 26.7672C26.4842 26.8572 26.6616 26.8572 26.8389 26.8572L29.8537 26.7672C30.1197 26.7672 30.3857 26.6772 30.563 26.5872C30.7404 26.4971 30.829 26.4071 30.829 26.2271C30.829 26.1371 30.829 25.957 30.829 25.867C30.6517 25.687 30.6517 25.5969 30.6517 25.5069Z" fill="white"/>
</svg>
