<svg width="1220" height="340" viewBox="0 0 1220 340" fill="none" xmlns="http://www.w3.org/2000/svg">
<mask id="mask0_414_4258" style="mask-type:alpha" maskUnits="userSpaceOnUse" x="0" y="0" width="1220" height="340">
<rect width="1220" height="340" rx="15" transform="matrix(1 0 0 -1 0 340)" fill="url(#paint0_linear_414_4258)"/>
</mask>
<g mask="url(#mask0_414_4258)">
<rect width="1220" height="340" rx="15" transform="matrix(1 0 0 -1 0 340)" fill="url(#paint1_linear_414_4258)"/>
<g filter="url(#filter0_f_414_4258)">
<ellipse cx="1131.37" cy="-84.0692" rx="115.368" ry="161.347" fill="#785C1A" fill-opacity="0.4"/>
</g>
<g filter="url(#filter1_f_414_4258)">
<ellipse cx="1287.3" cy="28.8455" rx="153.7" ry="215.219" fill="#C6650D" fill-opacity="0.6"/>
</g>
<g opacity="0.1">
<path d="M208.355 202.945C203.147 198.648 195.404 199.4 191.096 204.621C186.788 209.842 187.52 217.588 192.727 221.884C197.936 226.182 205.68 225.431 209.989 220.21C214.297 214.989 213.564 207.243 208.355 202.945ZM197.079 216.611C194.771 214.707 194.447 211.274 196.356 208.961C198.265 206.647 201.696 206.315 204.003 208.219C206.312 210.124 206.637 213.555 204.728 215.869C202.819 218.182 199.388 218.517 197.079 216.611Z" fill="#8D8D8D"/>
<path d="M227.785 237.79L235.156 240.607L238.499 235.93L233.447 229.872C234.201 228.465 234.869 226.997 235.448 225.475L243.436 225.325L244.773 219.738L237.714 216.017C237.905 214.232 237.966 212.458 237.907 210.705L245.119 207.475L244.182 201.813L236.317 201.113C235.849 199.57 235.285 198.064 234.628 196.602L240.106 190.889L237.106 185.999L229.545 188.318C228.436 186.946 227.229 185.647 225.933 184.438L228.764 177.053L224.097 173.721L218.032 178.79C216.626 178.04 215.161 177.373 213.64 176.798L213.51 168.81L207.928 167.483L204.191 174.557C202.409 174.37 200.634 174.311 198.882 174.376L195.673 167.168L190.008 168.119L189.292 175.991C187.748 176.463 186.242 177.03 184.778 177.69L179.081 172.224L174.188 175.238L176.486 182.797C175.113 183.909 173.81 185.119 172.599 186.42L165.228 183.607L161.885 188.284L166.936 194.339C166.183 195.749 165.514 197.215 164.935 198.739L156.949 198.887L155.609 204.475L162.669 208.198C162.478 209.981 162.415 211.755 162.475 213.509L155.263 216.739L156.2 222.403L164.066 223.102C164.531 224.644 165.097 226.15 165.753 227.614L160.275 233.326L163.276 238.214L170.837 235.895C171.944 237.267 173.151 238.565 174.448 239.776L171.618 247.16L176.285 250.492L182.35 245.422C183.757 246.172 185.221 246.839 186.74 247.415L186.872 255.404L192.455 256.729L196.19 249.657C197.973 249.845 199.747 249.901 201.502 249.837L204.71 257.045L210.374 256.095L211.093 248.224C212.636 247.753 214.143 247.185 215.604 246.522L221.303 251.99L226.196 248.976L223.897 241.417C225.272 240.302 226.571 239.093 227.785 237.79ZM181.691 234.526C169.339 224.334 167.61 206.034 177.827 193.652C188.044 181.269 206.34 179.493 218.692 189.684C231.044 199.876 232.775 218.178 222.557 230.561C212.34 242.943 194.043 244.718 181.691 234.526Z" fill="#8D8D8D"/>
<path d="M190.18 275.416C188.002 273.619 184.764 273.934 182.963 276.117C181.161 278.301 181.467 281.539 183.645 283.336C185.823 285.133 189.061 284.819 190.863 282.636C192.665 280.453 192.359 277.214 190.18 275.416ZM185.465 281.131C184.5 280.335 184.364 278.899 185.162 277.932C185.961 276.964 187.395 276.826 188.36 277.622C189.326 278.418 189.461 279.853 188.663 280.82C187.865 281.788 186.43 281.927 185.465 281.131Z" fill="#8D8D8D"/>
<path d="M198.31 289.99L201.393 291.168L202.792 289.212L200.679 286.678C200.994 286.09 201.273 285.476 201.515 284.839L204.857 284.776L205.416 282.439L202.463 280.882C202.543 280.136 202.569 279.394 202.544 278.66L205.56 277.309L205.168 274.941L201.878 274.647C201.682 274.002 201.446 273.372 201.172 272.761L203.463 270.371L202.208 268.326L199.045 269.296C198.582 268.721 198.077 268.178 197.534 267.672L198.718 264.584L196.766 263.19L194.229 265.311C193.64 264.997 193.028 264.718 192.391 264.477L192.337 261.136L190.003 260.581L188.439 263.539C187.694 263.461 186.952 263.437 186.218 263.463L184.876 260.448L182.506 260.846L182.207 264.138C181.561 264.336 180.931 264.573 180.318 264.849L177.936 262.562L175.889 263.823L176.85 266.985C176.276 267.45 175.731 267.956 175.224 268.501L172.14 267.324L170.742 269.28L172.855 271.813C172.54 272.403 172.261 273.016 172.018 273.653L168.677 273.715L168.117 276.052L171.071 277.609C170.991 278.355 170.965 279.097 170.99 279.83L167.973 281.181L168.365 283.55L171.655 283.842C171.849 284.487 172.086 285.117 172.361 285.729L170.07 288.119L171.325 290.164L174.488 289.194C174.952 289.768 175.456 290.311 175.998 290.817L174.815 293.905L176.766 295.299L179.303 293.179C179.892 293.492 180.504 293.771 181.139 294.012L181.195 297.354L183.53 297.908L185.092 294.95C185.838 295.029 186.579 295.052 187.313 295.026L188.655 298.04L191.024 297.642L191.325 294.35C191.969 294.153 192.6 293.914 193.211 293.637L195.595 295.925L197.642 294.664L196.68 291.502C197.259 291.041 197.802 290.536 198.31 289.99ZM179.03 288.626C173.863 284.363 173.14 276.708 177.413 271.529C181.687 266.349 189.34 265.606 194.507 269.869C199.673 274.133 200.397 281.788 196.123 286.967C191.849 292.146 184.197 292.889 179.03 288.626Z" fill="#8D8D8D"/>
<path d="M61.172 132.641C51.844 124.944 37.9753 126.29 30.2589 135.642C22.5425 144.994 23.8535 158.866 33.1815 166.563C42.5108 174.261 56.3814 172.916 64.0978 163.564C71.8142 154.212 70.5013 140.339 61.172 132.641ZM40.975 157.118C36.8436 153.709 36.2618 147.559 39.6803 143.416C43.0993 139.272 49.2453 138.678 53.3774 142.087C57.5122 145.499 58.0941 151.645 54.6751 155.789C51.2566 159.932 45.1097 160.53 40.975 157.118Z" fill="#8D8D8D"/>
<path d="M95.9733 195.047L109.175 200.09L115.165 191.714L106.115 180.862C107.465 178.342 108.663 175.714 109.699 172.987L124.007 172.718L126.402 162.711L113.76 156.045C114.101 152.849 114.21 149.671 114.105 146.53L127.022 140.744L125.344 130.601L111.257 129.348C110.42 126.585 109.409 123.888 108.232 121.268L118.045 111.036L112.671 102.28L99.1274 106.433C97.1425 103.975 94.9808 101.65 92.6574 99.4838L97.7272 86.2582L89.3677 80.2909L78.5034 89.3701C75.9853 88.0271 73.3612 86.8333 70.6368 85.8023L70.4039 71.4943L60.4064 69.1166L53.7122 81.7868C50.5204 81.4519 47.3425 81.3469 44.2018 81.4614L38.4552 68.5517L28.3083 70.2548L27.026 84.3534C24.2602 85.1992 21.5612 86.2163 18.9396 87.3973L8.73534 77.6056L-0.0291283 83.0042L4.08772 96.545C1.62714 98.5345 -0.703391 100.704 -2.8734 103.033L-16.0793 97.9948L-22.0657 106.37L-13.0173 117.217C-14.3665 119.743 -15.5662 122.37 -16.6031 125.097L-30.9081 125.363L-33.3052 135.372L-20.6586 142.04C-21.0008 145.233 -21.1138 148.411 -21.006 151.553L-33.924 157.339L-32.2466 167.482L-18.1572 168.733C-17.3221 171.497 -16.309 174.194 -15.136 176.815L-24.9469 187.047L-19.571 195.802L-6.02802 191.648C-4.04368 194.107 -1.88207 196.432 0.440229 198.599L-4.63024 211.824L3.72946 217.793L14.5942 208.713C17.1136 210.056 19.7359 211.251 22.4573 212.282L22.6922 226.592L32.6931 228.966L39.3838 216.298C42.577 216.634 45.7533 216.736 48.8977 216.621L54.6444 229.532L64.7888 227.829L66.0748 213.73C68.8379 212.888 71.5385 211.868 74.1565 210.683L84.3622 220.476L93.1254 215.078L89.0075 201.538C91.4721 199.545 93.7986 197.379 95.9733 195.047ZM13.4121 189.2C-8.71146 170.946 -11.8104 138.166 6.49026 115.987C24.7915 93.808 57.5631 90.6265 79.6867 108.881C101.81 127.136 104.911 159.917 86.61 182.097C68.3093 204.275 35.5356 207.455 13.4121 189.2Z" fill="#8D8D8D"/>
<path d="M146.628 291.868L154.449 294.858L157.997 289.893L152.636 283.465C153.434 281.969 154.146 280.415 154.758 278.796L163.236 278.64L164.655 272.708L157.164 268.757C157.366 266.862 157.433 264.982 157.367 263.12L165.024 259.692L164.027 253.681L155.68 252.939C155.186 251.303 154.585 249.706 153.891 248.153L159.703 242.089L156.517 236.898L148.495 239.362C147.319 237.905 146.038 236.527 144.662 235.246L147.666 227.408L142.712 223.87L136.274 229.251C134.784 228.455 133.229 227.75 131.615 227.139L131.478 218.661L125.554 217.251L121.585 224.759C119.696 224.558 117.811 224.498 115.95 224.566L112.547 216.916L106.532 217.926L105.776 226.28C104.136 226.783 102.538 227.383 100.982 228.083L94.9355 222.281L89.7432 225.479L92.1841 233.503C90.7267 234.685 89.3433 235.967 88.0582 237.347L80.2343 234.362L76.6859 239.326L82.0487 245.754C81.2463 247.247 80.5362 248.805 79.9235 250.424L71.447 250.58L70.024 256.511L77.5196 260.461C77.3146 262.354 77.2488 264.236 77.3152 266.101L69.6612 269.527L70.6533 275.537L78.9996 276.279C79.4962 277.917 80.0992 279.515 80.7915 281.069L74.9812 287.132L78.1634 292.317L86.1916 289.856C87.3653 291.315 88.6458 292.691 90.0215 293.975L87.0173 301.811L91.9698 305.348L98.4077 299.968C99.9025 300.765 101.457 301.471 103.069 302.082L103.207 310.562L109.134 311.968L113.099 304.463C114.991 304.662 116.874 304.724 118.734 304.653L122.14 312.305L128.15 311.294L128.912 302.94C130.548 302.439 132.15 301.839 133.701 301.133L139.747 306.937L144.942 303.741L142.501 295.716C143.96 294.535 145.337 293.252 146.628 291.868ZM108.005 275.926C101.77 270.781 100.894 261.543 106.052 255.292C111.208 249.043 120.445 248.147 126.681 253.292C132.913 258.435 133.788 267.675 128.632 273.924C123.474 280.174 114.237 281.068 108.005 275.926Z" fill="#8D8D8D"/>
<path d="M192.322 350.229L197.547 352.226L199.916 348.911L196.334 344.619C196.869 343.621 197.343 342.583 197.756 341.502L203.415 341.396L204.363 337.435L199.361 334.798C199.497 333.532 199.538 332.275 199.497 331.033L204.608 328.743L203.946 324.73L198.371 324.235C198.041 323.14 197.64 322.073 197.172 321.036L201.056 316.986L198.928 313.519L193.571 315.165C192.783 314.193 191.931 313.271 191.012 312.415L193.016 307.182L189.708 304.82L185.411 308.413C184.413 307.883 183.376 307.41 182.296 307.002L182.204 301.341L178.249 300.4L175.599 305.414C174.335 305.279 173.078 305.241 171.837 305.286L169.564 300.175L165.547 300.85L165.04 306.429C163.946 306.765 162.877 307.165 161.841 307.635L157.801 303.76L154.337 305.897L155.962 311.256C154.989 312.041 154.067 312.9 153.21 313.823L147.982 311.829L145.613 315.143L149.196 319.435C148.66 320.434 148.185 321.473 147.778 322.553L142.114 322.66L141.167 326.619L146.171 329.257C146.035 330.521 145.991 331.78 146.033 333.021L140.922 335.311L141.583 339.327L147.161 339.821C147.489 340.915 147.892 341.98 148.357 343.022L144.474 347.068L146.602 350.534L151.961 348.888C152.746 349.864 153.6 350.782 154.519 351.639L152.516 356.872L155.821 359.237L160.122 355.64C161.119 356.173 162.157 356.642 163.234 357.054L163.325 362.716L167.283 363.655L169.931 358.642C171.196 358.777 172.451 358.817 173.697 358.769L175.971 363.88L179.984 363.203L180.493 357.624C181.587 357.291 182.655 356.89 183.692 356.419L187.728 360.297L191.197 358.16L189.567 352.802C190.543 352.011 191.462 351.154 192.322 350.229ZM156.987 351.146C146.454 342.455 144.979 326.849 153.693 316.288C162.406 305.729 178.009 304.213 188.542 312.903C199.076 321.596 200.55 337.204 191.837 347.763C183.123 358.323 167.521 359.839 156.987 351.146Z" fill="#8D8D8D"/>
<path d="M157.702 350.282C147.662 341.998 146.252 327.07 154.558 317.003C162.862 306.939 177.788 305.487 187.828 313.772C197.869 322.057 199.278 336.987 190.974 347.052C182.668 357.119 167.743 358.568 157.702 350.282ZM186.095 315.871C177.21 308.54 164.001 309.823 156.651 318.731C149.3 327.639 150.55 340.852 159.434 348.183C168.32 355.516 181.53 354.234 188.881 345.325C196.231 336.417 194.982 323.205 186.095 315.871Z" fill="#8D8D8D"/>
<path d="M52.2645 329.799L51.034 329.049C49.0816 327.86 48.1654 325.433 49.0144 323.307C50.1086 320.561 53.362 319.554 55.7729 321.02L56.8703 321.689C58.384 322.612 60.3692 321.977 61.0699 320.346C61.4172 319.542 61.746 318.733 62.057 317.919C62.6766 316.301 61.7598 314.505 60.0887 314.06L58.6791 313.684C56.4712 313.094 54.9081 311.025 55.121 308.746C55.3992 305.808 58.2419 303.923 60.9678 304.651L62.2034 304.981C63.9163 305.438 65.6484 304.27 65.8599 302.503C65.9633 301.637 66.0477 300.768 66.1162 299.902C66.2532 298.177 64.8674 296.716 63.1385 296.76L61.5599 296.8C59.001 296.866 56.8603 294.824 56.8007 292.263C54.9106 290.704 55.9765 287.628 58.4298 287.567L62.6181 287.459C64.3908 287.415 65.7231 285.808 65.4315 284.059C65.2882 283.2 65.1289 282.344 64.9507 281.493C64.5983 279.798 62.854 278.785 61.2065 279.315L59.7072 279.797C57.2694 280.58 54.6367 279.226 53.8586 276.789C53.0827 274.35 54.4419 271.715 56.8802 270.931L58.1052 270.538C59.7939 269.996 60.6213 268.08 59.8484 266.486C59.47 265.704 59.0752 264.927 58.663 264.156C57.8477 262.633 55.8888 262.151 54.4547 263.125L53.1386 264.018C51.0179 265.457 48.1095 264.9 46.6783 262.783L46.6794 262.781C45.2462 260.662 45.8088 257.753 47.9296 256.314L48.9887 255.596C50.4589 254.6 50.7147 252.528 49.5215 251.217C48.939 250.575 48.3408 249.945 47.7271 249.323C46.5124 248.093 44.4994 248.183 43.3965 249.52L42.3903 250.739C40.7582 252.718 37.8103 253.004 35.8384 251.377C33.8657 249.749 33.5875 246.8 35.2191 244.822L36.0327 243.836C37.1634 242.466 36.8251 240.411 35.3114 239.489C34.5679 239.033 33.816 238.594 33.0583 238.173C31.5486 237.331 29.6366 237.989 28.9552 239.58L28.3815 240.916C27.4805 243.02 25.2063 244.28 22.9838 243.747C20.1144 243.062 18.6635 239.985 19.7768 237.385L20.2834 236.201C20.9844 234.567 20.0786 232.691 18.3633 232.233C17.5211 232.009 16.6743 231.803 15.8246 231.612C14.139 231.236 12.4915 232.405 12.2851 234.12L12.0949 235.7C11.7895 238.243 9.45949 240.08 6.91892 239.777C4.37668 239.477 2.54972 237.151 2.85393 234.609L3.00652 233.346C3.22071 231.581 1.82139 230.037 0.0470666 230.082C-0.82263 230.105 -1.69191 230.146 -2.55964 230.202C-4.28567 230.316 -5.53994 231.899 -5.25263 233.604L-4.99345 235.157C-4.57207 237.682 -6.29265 240.097 -8.8154 240.527C-11.3414 240.955 -13.7512 239.24 -14.174 236.714L-14.3849 235.456C-14.6778 233.706 -16.4514 232.62 -18.1421 233.161C-18.9706 233.426 -19.796 233.709 -20.615 234.007C-22.2414 234.601 -23 236.473 -22.248 238.032L-21.5583 239.454C-20.441 241.756 -21.4117 244.556 -23.7147 245.679C-26.0166 246.801 -28.8163 245.837 -29.9323 243.536L-30.4936 242.38C-31.2677 240.786 -33.2773 240.242 -34.7496 241.241C-35.47 241.729 -36.1809 242.233 -36.8838 242.754C-38.2766 243.783 -38.4792 245.793 -37.3148 247.07L-36.2496 248.242C-34.5301 250.135 -34.6729 253.094 -36.5678 254.821C-38.4654 256.546 -41.4213 256.409 -43.1418 254.519L-44 253.575C-45.1852 252.27 -47.2648 252.303 -48.39 253.667C-48.3967 253.675 -48.405 253.685 -48.4117 253.693C-48.9713 254.371 -49.5133 255.056 -50.0395 255.75C-51.0808 257.124 -50.6965 259.098 -49.2278 259.994L-47.8824 260.811C-45.6984 262.142 -45.002 265.02 -46.3367 267.208C-47.6701 269.396 -50.55 270.099 -52.7327 268.77L-53.8312 268.102C-55.3455 267.18 -57.3307 267.815 -58.0321 269.445C-58.3789 270.249 -58.7082 271.059 -59.0194 271.87C-59.6396 273.489 -58.7215 275.285 -57.0515 275.731L-55.5128 276.141C-53.041 276.8 -51.5627 279.363 -52.228 281.837C-52.8927 284.312 -55.4583 285.797 -57.9321 285.138L-59.1646 284.808C-60.8798 284.352 -62.6113 285.521 -62.8223 287.286C-62.9251 288.153 -63.0115 289.02 -63.0786 289.887C-63.2152 291.61 -61.8293 293.072 -60.101 293.027L-58.5225 292.988C-55.9652 292.924 -53.8246 294.966 -53.7638 297.525C-51.8738 299.085 -52.9407 302.161 -55.3921 302.224L-59.5799 302.331C-61.3536 302.375 -62.6868 303.981 -62.3945 305.731C-62.252 306.588 -62.0902 307.444 -61.9144 308.296C-61.561 309.988 -59.8173 311.003 -58.1684 310.474L-56.7959 310.033C-54.6151 309.333 -52.1826 310.224 -51.1298 312.255C-49.7752 314.874 -51.1522 317.993 -53.8422 318.856L-55.0659 319.25C-56.7572 319.792 -57.584 321.706 -56.8121 323.303C-56.4337 324.085 -56.0378 324.861 -55.6256 325.631C-54.8103 327.155 -52.8495 327.638 -51.4165 326.663L-50.1947 325.835C-48.3232 324.566 -45.7771 324.724 -44.1953 326.332C-42.1007 328.458 -42.5343 331.874 -44.8914 333.474L-45.9505 334.194C-47.4212 335.19 -47.6758 337.262 -46.4826 338.573C-45.8972 339.213 -45.3001 339.844 -44.6865 340.465C-43.4743 341.695 -41.4595 341.604 -40.3567 340.268L-39.351 339.049C-37.7194 337.071 -34.7708 336.787 -32.7995 338.414C-30.8268 340.041 -30.5475 342.989 -32.1791 344.967L-32.9921 345.952C-34.1223 347.322 -33.7826 349.377 -32.2706 350.302C-31.5272 350.756 -30.7759 351.195 -30.0178 351.615C-28.5067 352.458 -26.5953 351.801 -25.9121 350.208L-25.342 348.873C-24.4386 346.77 -22.1668 345.509 -19.9427 346.041C-17.0737 346.727 -15.6221 349.805 -16.7368 352.403L-17.2434 353.588C-17.9443 355.223 -17.0384 357.1 -15.3228 357.555C-14.4798 357.779 -13.6336 357.986 -12.7845 358.177C-11.0965 358.552 -9.45152 357.384 -9.24518 355.667L-9.07202 354.222C-8.79818 351.948 -6.97013 350.102 -4.6848 349.985C-1.73585 349.834 0.522519 352.375 0.185546 355.181L0.0334905 356.443C-0.178905 358.207 1.21875 359.753 2.99295 359.706C3.86209 359.684 4.73328 359.644 5.60022 359.586C7.32637 359.474 8.58009 357.891 8.29434 356.183L8.05738 354.764C7.68099 352.507 8.91589 350.22 11.0759 349.465C13.8648 348.489 16.749 350.29 17.2151 353.074L17.4261 354.333C17.7189 356.082 19.4939 357.169 21.182 356.627C22.0117 356.362 22.8354 356.08 23.6544 355.781C25.2831 355.186 26.0405 353.314 25.2874 351.756L24.5989 350.334C23.4804 348.032 24.4528 345.231 26.7564 344.107C28.2814 342.259 31.203 342.604 32.2475 344.757L33.5329 347.408C34.3065 349.003 36.319 349.544 37.789 348.547C38.5087 348.058 39.2219 347.554 39.9257 347.034C41.3164 346.004 41.5167 343.996 40.3558 342.717L39.2894 341.544C37.3922 339.456 37.7629 336.072 40.2499 334.475C42.1763 333.239 44.7343 333.679 46.2711 335.369L47.0382 336.213C48.2253 337.519 50.3047 337.484 51.4299 336.121C51.4366 336.113 51.4438 336.104 51.4522 336.094C52.0106 335.417 52.5539 334.732 53.0783 334.039C54.1204 332.667 53.7356 330.693 52.2645 329.799ZM32.0227 262.666C39.4876 269.723 43.996 278.863 45.3882 288.437L30.3741 289.894C29.389 284.159 26.7103 278.693 22.4005 274.326L32.022 262.665L32.0227 262.666ZM27.3709 258.828L17.7494 270.488C12.6426 267.086 6.76847 265.495 0.952378 265.617L-0.469011 250.599C9.1944 250.147 19.0249 252.839 27.3709 258.828ZM-6.46871 251.289L-5.0437 266.358C-10.5518 267.625 -15.7349 270.484 -19.8509 274.865L-31.462 265.285C-24.6683 257.725 -15.8161 253.009 -6.46871 251.289ZM-42.854 297.002C-43.265 287.684 -40.7574 278.203 -35.1951 270.04L-23.5244 279.67C-26.5246 284.562 -27.9392 290.079 -27.8395 295.543L-42.854 297.002ZM-29.0647 327.223C-36.1271 320.549 -40.5417 312.01 -42.1761 303.004L-27.1108 301.542C-25.9359 306.709 -23.366 311.591 -19.4431 315.563L-29.0647 327.223ZM-14.51 314.324C-25.1879 305.513 -26.6813 289.698 -17.8498 278.995C-9.02116 268.296 6.78976 266.758 17.4677 275.569C28.1423 284.377 29.6384 300.195 20.8098 310.895C11.9783 321.598 -3.83541 323.132 -14.51 314.324ZM-24.4129 331.062L-14.7913 319.401C-10.1456 322.5 -4.86555 324.095 0.430289 324.267L1.85663 339.337C-7.29655 339.442 -16.5185 336.728 -24.4129 331.062ZM7.87692 338.862L6.45677 323.844C11.8418 322.905 16.9898 320.468 21.2204 316.592L32.8931 326.224C25.9352 333.234 17.1031 337.496 7.87692 338.862ZM25.243 312.074C28.7622 307.201 30.5859 301.569 30.7852 295.921L45.8491 294.458C45.9364 303.962 42.9866 313.55 36.8541 321.655L25.243 312.074Z" fill="#8D8D8D"/>
<path d="M149.221 206.966L148.873 206.754C148.32 206.417 148.062 205.731 148.301 205.129C148.611 204.353 149.532 204.067 150.214 204.482L150.524 204.671C150.952 204.931 151.514 204.752 151.712 204.291C151.81 204.063 151.904 203.835 151.991 203.604C152.167 203.146 151.907 202.638 151.434 202.512L151.035 202.406C150.411 202.239 149.969 201.654 150.029 201.009C150.107 200.177 150.911 199.644 151.683 199.85L152.033 199.943C152.517 200.073 153.007 199.742 153.068 199.242C153.096 198.997 153.12 198.751 153.14 198.505C153.178 198.018 152.787 197.604 152.298 197.617L151.851 197.629C151.128 197.647 150.521 197.069 150.505 196.345C149.97 195.904 150.272 195.034 150.966 195.016L152.151 194.986C152.652 194.973 153.029 194.518 152.947 194.024C152.906 193.781 152.861 193.539 152.81 193.297C152.71 192.818 152.217 192.531 151.75 192.681L151.327 192.818C150.637 193.04 149.892 192.656 149.672 191.967C149.452 191.277 149.838 190.531 150.527 190.31L150.874 190.198C151.351 190.045 151.586 189.503 151.368 189.052C151.261 188.83 151.149 188.611 151.032 188.393C150.802 187.962 150.247 187.825 149.842 188.101L149.469 188.353C148.869 188.76 148.047 188.602 147.642 188.004L147.642 188.003C147.237 187.404 147.396 186.58 147.996 186.174L148.295 185.97C148.711 185.689 148.783 185.103 148.446 184.732C148.281 184.551 148.111 184.372 147.938 184.196C147.595 183.848 147.025 183.873 146.713 184.252L146.428 184.597C145.966 185.156 145.132 185.237 144.574 184.777C144.016 184.316 143.937 183.481 144.398 182.922L144.628 182.643C144.948 182.256 144.853 181.674 144.424 181.413C144.214 181.285 144.001 181.16 143.787 181.041C143.36 180.804 142.819 180.99 142.626 181.439L142.463 181.818C142.208 182.413 141.566 182.77 140.936 182.619C140.124 182.425 139.714 181.554 140.029 180.819L140.172 180.485C140.37 180.023 140.114 179.491 139.629 179.362C139.39 179.299 139.151 179.241 138.91 179.186C138.434 179.08 137.968 179.411 137.909 179.897L137.855 180.344C137.769 181.063 137.109 181.583 136.39 181.498C135.671 181.413 135.154 180.755 135.24 180.035L135.283 179.677C135.343 179.179 134.948 178.741 134.446 178.755C134.2 178.761 133.954 178.772 133.709 178.788C133.22 178.82 132.865 179.268 132.947 179.75L133.021 180.19C133.139 180.903 132.653 181.587 131.939 181.709C131.225 181.83 130.542 181.344 130.422 180.63L130.362 180.274C130.279 179.778 129.778 179.472 129.299 179.624C129.065 179.7 128.831 179.779 128.6 179.864C128.139 180.032 127.925 180.562 128.138 181.002L128.333 181.404C128.649 182.055 128.375 182.848 127.723 183.165C127.072 183.483 126.28 183.21 125.964 182.559L125.805 182.232C125.586 181.782 125.017 181.627 124.601 181.91C124.396 182.048 124.196 182.191 123.997 182.338C123.603 182.629 123.546 183.197 123.875 183.558L124.177 183.89C124.663 184.426 124.623 185.263 124.086 185.752C123.55 186.239 122.713 186.201 122.227 185.666L121.985 185.399C121.649 185.029 121.061 185.039 120.743 185.425C120.741 185.427 120.739 185.429 120.737 185.432C120.579 185.624 120.425 185.818 120.276 186.014C119.981 186.402 120.09 186.961 120.505 187.215L120.887 187.446C121.504 187.823 121.701 188.637 121.324 189.256C120.947 189.875 120.132 190.074 119.514 189.698L119.204 189.509C118.776 189.248 118.214 189.428 118.015 189.889C117.917 190.117 117.824 190.346 117.736 190.576C117.561 191.034 117.821 191.542 118.293 191.669L118.728 191.785C119.427 191.971 119.845 192.696 119.657 193.397C119.47 194.097 118.744 194.517 118.044 194.331L117.695 194.238C117.209 194.109 116.72 194.44 116.661 194.939C116.632 195.183 116.607 195.429 116.588 195.674C116.55 196.162 116.942 196.576 117.431 196.563L117.878 196.552C118.601 196.533 119.208 197.111 119.225 197.835C119.76 198.276 119.457 199.146 118.764 199.165L117.579 199.195C117.077 199.207 116.7 199.661 116.783 200.157C116.823 200.399 116.869 200.641 116.918 200.883C117.019 201.362 117.512 201.649 117.978 201.499L118.366 201.374C118.983 201.176 119.671 201.428 119.969 202.002C120.352 202.744 119.963 203.626 119.201 203.87L118.855 203.981C118.377 204.135 118.143 204.677 118.361 205.127C118.468 205.349 118.58 205.569 118.696 205.786C118.927 206.217 119.482 206.354 119.887 206.079L120.233 205.844C120.763 205.485 121.483 205.53 121.93 205.984C122.523 206.586 122.4 207.553 121.733 208.006L121.434 208.209C121.018 208.491 120.947 209.078 121.284 209.449C121.45 209.629 121.619 209.808 121.792 209.984C122.135 210.332 122.705 210.306 123.017 209.928L123.302 209.583C123.763 209.023 124.598 208.943 125.155 209.403C125.714 209.864 125.792 210.697 125.33 211.257L125.1 211.536C124.78 211.923 124.876 212.505 125.304 212.766C125.515 212.895 125.727 213.019 125.942 213.138C126.369 213.375 126.91 213.191 127.103 212.74L127.264 212.362C127.52 211.767 128.163 211.411 128.792 211.561C129.603 211.755 130.014 212.626 129.699 213.36L129.556 213.696C129.358 214.158 129.614 214.689 130.099 214.819C130.338 214.882 130.577 214.94 130.817 214.995C131.294 215.101 131.759 214.77 131.818 214.284L131.868 213.876C131.945 213.232 132.461 212.709 133.109 212.676C133.943 212.634 134.582 213.353 134.486 214.146L134.444 214.503C134.383 215.002 134.779 215.44 135.281 215.426C135.527 215.42 135.773 215.409 136.019 215.392C136.507 215.361 136.862 214.913 136.782 214.431L136.714 214.029C136.607 213.39 136.957 212.744 137.568 212.531C138.357 212.255 139.173 212.764 139.306 213.551L139.365 213.908C139.448 214.403 139.95 214.71 140.428 214.557C140.663 214.481 140.896 214.402 141.127 214.317C141.588 214.149 141.802 213.619 141.589 213.179L141.394 212.777C141.078 212.126 141.353 211.334 142.005 211.015C142.437 210.492 143.263 210.59 143.559 211.2L143.923 211.95C144.142 212.402 144.711 212.554 145.127 212.272C145.331 212.134 145.531 211.991 145.731 211.844C146.124 211.553 146.181 210.985 145.853 210.623L145.552 210.291C145.015 209.7 145.119 208.743 145.824 208.29C146.369 207.941 147.092 208.065 147.527 208.543L147.745 208.782C148.08 209.152 148.669 209.142 148.987 208.756C148.988 208.754 148.991 208.751 148.993 208.749C149.151 208.557 149.305 208.364 149.453 208.167C149.746 207.778 149.637 207.219 149.221 206.966ZM143.494 187.973C145.606 189.969 146.882 192.555 147.275 195.263L143.028 195.675C142.749 194.053 141.993 192.507 140.773 191.271L143.494 187.973ZM142.178 186.887L139.456 190.185C138.011 189.223 136.349 188.773 134.704 188.807L134.301 184.559C137.035 184.431 139.816 185.191 142.178 186.887ZM132.604 184.754L133.007 189.018C131.448 189.377 129.982 190.186 128.818 191.425L125.533 188.714C127.455 186.575 129.96 185.24 132.604 184.754ZM122.31 197.687C122.193 195.051 122.903 192.369 124.477 190.059L127.778 192.784C126.929 194.167 126.529 195.728 126.557 197.274L122.31 197.687ZM126.211 206.237C124.213 204.35 122.964 201.934 122.502 199.385L126.763 198.972C127.096 200.434 127.823 201.815 128.933 202.939L126.211 206.237ZM132.659 199.765C131.193 198.555 130.988 196.386 132.2 194.916C133.412 193.448 135.582 193.237 137.047 194.446C138.513 195.655 138.717 197.826 137.506 199.294C136.294 200.763 134.123 200.973 132.659 199.765ZM127.527 207.323L130.249 204.025C131.564 204.901 133.058 205.352 134.556 205.401L134.96 209.664C132.371 209.694 129.761 208.926 127.527 207.323ZM136.662 209.53L136.26 205.281C137.784 205.015 139.24 204.325 140.437 203.229L143.74 205.954C141.772 207.937 139.273 209.143 136.662 209.53ZM141.576 201.951C142.572 200.572 143.088 198.979 143.144 197.381L147.406 196.967C147.431 199.656 146.597 202.369 144.861 204.661L141.576 201.951Z" fill="#8D8D8D"/>
</g>
<g opacity="0.1">
<path d="M1028.7 177.246C1025.57 174.66 1020.91 175.112 1018.31 178.254C1015.72 181.397 1016.16 186.058 1019.3 188.643C1022.43 191.23 1027.09 190.778 1029.68 187.635C1032.28 184.494 1031.84 179.833 1028.7 177.246ZM1021.91 185.47C1020.53 184.325 1020.33 182.258 1021.48 180.866C1022.63 179.473 1024.69 179.275 1026.08 180.42C1027.47 181.566 1027.67 183.631 1026.52 185.023C1025.37 186.415 1023.3 186.616 1021.91 185.47Z" fill="#8D8D8D"/>
<path d="M1040.39 198.211L1044.83 199.906L1046.84 197.091L1043.8 193.445C1044.25 192.598 1044.66 191.716 1045 190.799L1049.81 190.708L1050.62 187.345L1046.37 185.107C1046.48 184.032 1046.52 182.966 1046.48 181.91L1050.82 179.966L1050.26 176.559L1045.53 176.137C1045.25 175.208 1044.91 174.302 1044.51 173.422L1047.81 169.985L1046 167.042L1041.45 168.438C1040.79 167.612 1040.06 166.83 1039.28 166.103L1040.98 161.659L1038.17 159.654L1034.52 162.705C1033.68 162.253 1032.8 161.852 1031.88 161.506L1031.8 156.699L1028.44 155.9L1026.2 160.157C1025.12 160.045 1024.06 160.009 1023 160.048L1021.07 155.71L1017.66 156.283L1017.23 161.02C1016.3 161.304 1015.39 161.645 1014.51 162.043L1011.08 158.754L1008.14 160.568L1009.52 165.118C1008.7 165.787 1007.91 166.515 1007.18 167.298L1002.75 165.605L1000.74 168.419L1003.78 172.063C1003.32 172.911 1002.92 173.794 1002.57 174.711L997.766 174.8L996.96 178.162L1001.21 180.402C1001.09 181.475 1001.06 182.542 1001.09 183.598L996.752 185.543L997.316 188.951L1002.05 189.371C1002.33 190.299 1002.67 191.206 1003.06 192.087L999.768 195.524L1001.57 198.466L1006.12 197.07C1006.79 197.895 1007.52 198.676 1008.3 199.405L1006.59 203.848L1009.4 205.854L1013.05 202.803C1013.9 203.254 1014.78 203.656 1015.69 204.002L1015.77 208.809L1019.13 209.607L1021.38 205.352C1022.45 205.464 1023.52 205.499 1024.58 205.46L1026.51 209.798L1029.92 209.226L1030.35 204.489C1031.28 204.206 1032.18 203.864 1033.06 203.465L1036.49 206.755L1039.44 204.941L1038.05 200.393C1038.88 199.723 1039.66 198.995 1040.39 198.211ZM1012.66 196.247C1005.22 190.114 1004.18 179.101 1010.33 171.65C1016.48 164.198 1027.49 163.128 1034.92 169.262C1042.35 175.395 1043.4 186.409 1037.25 193.86C1031.1 201.312 1020.09 202.38 1012.66 196.247Z" fill="#8D8D8D"/>
<path d="M1177.09 32.0517C1167.76 24.3548 1153.89 25.701 1146.18 35.0528C1138.46 44.4047 1139.77 58.2775 1149.1 65.9745C1158.43 73.6725 1172.3 72.3267 1180.02 62.9749C1187.73 53.6231 1186.42 39.7498 1177.09 32.0517ZM1156.89 56.5293C1152.76 53.1203 1152.18 46.9698 1155.6 42.8268C1159.02 38.6832 1165.16 38.0887 1169.3 41.4983C1173.43 44.9101 1174.01 51.0561 1170.59 55.1998C1167.18 59.3428 1161.03 59.9411 1156.89 56.5293Z" fill="#8D8D8D"/>
<path d="M1211.89 94.4581L1225.1 99.5015L1231.08 91.125L1222.03 80.2736C1223.39 77.7528 1224.58 75.1252 1225.62 72.3979L1239.93 72.1296L1242.32 62.1218L1229.68 55.4561C1230.02 52.2599 1230.13 49.0823 1230.02 45.9407L1242.94 40.1549L1241.26 30.0126L1227.18 28.7596C1226.34 25.9966 1225.33 23.299 1224.15 20.6789L1233.96 10.4472L1228.59 1.69098L1215.05 5.84414C1213.06 3.38623 1210.9 1.06118 1208.58 -1.10504L1213.65 -14.3306L1205.29 -20.2979L1194.42 -11.2188C1191.9 -12.5618 1189.28 -13.7556 1186.56 -14.7865L1186.32 -29.0946L1176.33 -31.4722L1169.63 -18.8021C1166.44 -19.137 1163.26 -19.242 1160.12 -19.1274L1154.37 -32.0372L1144.23 -30.334L1142.95 -16.2355C1140.18 -15.3896 1137.48 -14.3726 1134.86 -13.1916L1124.66 -22.9832L1115.89 -17.5847L1120.01 -4.04385C1117.55 -2.05437 1115.22 0.115226 1113.05 2.44457L1099.84 -2.59412L1093.85 5.78152L1102.9 16.6281C1101.55 19.1536 1100.35 21.7808 1099.32 24.5083L1085.01 24.7744L1082.61 34.783L1095.26 41.4508C1094.92 44.6446 1094.81 47.8226 1094.91 50.9645L1082 56.7498L1083.67 66.8934L1097.76 68.1443C1098.6 70.9081 1099.61 73.6049 1100.78 76.2266L1090.97 86.4581L1096.35 95.2129L1109.89 91.0592C1111.88 93.5178 1114.04 95.8428 1116.36 98.0104L1111.29 111.235L1119.65 117.204L1130.51 108.124C1133.03 109.467 1135.66 110.662 1138.38 111.693L1138.61 126.003L1148.61 128.377L1155.3 115.709C1158.5 116.045 1161.67 116.147 1164.82 116.032L1170.56 128.943L1180.71 127.24L1181.99 113.141C1184.76 112.299 1187.46 111.28 1190.08 110.095L1200.28 119.887L1209.05 114.489L1204.93 100.949C1207.39 98.9565 1209.72 96.7904 1211.89 94.4581ZM1129.33 88.6115C1107.21 70.3567 1104.11 37.5774 1122.41 15.3986C1140.71 -6.78086 1173.48 -9.96232 1195.61 8.29249C1217.73 26.5473 1220.83 59.3283 1202.53 81.5078C1184.23 103.687 1151.46 106.866 1129.33 88.6115Z" fill="#8D8D8D"/>
<path d="M1262.55 191.28L1270.37 194.269L1273.92 189.304L1268.55 182.876C1269.35 181.381 1270.07 179.826 1270.68 178.207L1279.16 178.051L1280.57 172.119L1273.08 168.168C1273.29 166.273 1273.35 164.393 1273.29 162.531L1280.94 159.103L1279.95 153.092L1271.6 152.35C1271.11 150.714 1270.5 149.117 1269.81 147.564L1275.62 141.5L1272.44 136.309L1264.41 138.773C1263.24 137.316 1261.96 135.939 1260.58 134.657L1263.59 126.819L1258.63 123.281L1252.19 128.663C1250.7 127.866 1249.15 127.161 1247.53 126.551L1247.4 118.072L1241.47 116.662L1237.5 124.17C1235.61 123.969 1233.73 123.909 1231.87 123.977L1228.47 116.327L1222.45 117.337L1221.7 125.691C1220.06 126.194 1218.46 126.794 1216.9 127.494L1210.85 121.692L1205.66 124.89L1208.1 132.914C1206.65 134.096 1205.26 135.378 1203.98 136.758L1196.15 133.773L1192.61 138.738L1197.97 145.165C1197.17 146.658 1196.46 148.216 1195.84 149.836L1187.37 149.991L1185.94 155.922L1193.44 159.872C1193.23 161.765 1193.17 163.648 1193.23 165.512L1185.58 168.938L1186.57 174.948L1194.92 175.69C1195.42 177.328 1196.02 178.926 1196.71 180.48L1190.9 186.543L1194.08 191.728L1202.11 189.267C1203.28 190.726 1204.57 192.102 1205.94 193.386L1202.94 201.222L1207.89 204.759L1214.33 199.379C1215.82 200.176 1217.38 200.883 1218.99 201.493L1219.13 209.973L1225.05 211.379L1229.02 203.874C1230.91 204.074 1232.79 204.135 1234.65 204.065L1238.06 211.716L1244.07 210.705L1244.83 202.351C1246.47 201.85 1248.07 201.25 1249.62 200.545L1255.67 206.348L1260.86 203.152L1258.42 195.127C1259.88 193.946 1261.26 192.663 1262.55 191.28ZM1223.92 175.337C1217.69 170.192 1216.81 160.954 1221.97 154.703C1227.13 148.454 1236.36 147.558 1242.6 152.703C1248.83 157.846 1249.71 167.086 1244.55 173.335C1239.39 179.585 1230.16 180.479 1223.92 175.337Z" fill="#8D8D8D"/>
<path d="M1068.6 37.8312L1074.03 39.9059L1076.49 36.4609L1072.77 31.9988C1073.32 30.9615 1073.82 29.8821 1074.25 28.7598L1080.13 28.65L1081.11 24.5314L1075.91 21.7912C1076.05 20.4745 1076.1 19.1678 1076.05 17.8775L1081.37 15.4963L1080.68 11.3262L1074.88 10.8112C1074.54 9.67364 1074.12 8.56375 1073.64 7.48599L1077.68 3.27689L1075.46 -0.326007L1069.9 1.38476C1069.08 0.373894 1068.19 -0.583971 1067.23 -1.47398L1069.32 -6.91366L1065.88 -9.36825L1061.41 -5.63461C1060.37 -6.18585 1059.3 -6.67658 1058.17 -7.10126L1058.08 -12.9854L1053.97 -13.9639L1051.21 -8.75214C1049.9 -8.89303 1048.59 -8.93241 1047.3 -8.88548L1044.94 -14.1972L1040.77 -13.4973L1040.24 -7.69811C1039.1 -7.34794 1037.99 -6.9324 1036.91 -6.44468L1032.72 -10.4723L1029.11 -8.25202L1030.8 -2.6826C1029.79 -1.8665 1028.83 -0.973271 1027.94 -0.0140766L1022.51 -2.08364L1020.05 1.36078L1023.77 5.82221C1023.21 6.86077 1022.72 7.94014 1022.3 9.06209L1016.41 9.17315L1015.42 13.2891L1020.63 16.0309C1020.49 17.3439 1020.44 18.6526 1020.48 19.9442L1015.17 22.3235L1015.86 26.4969L1021.66 27.0103C1022 28.1467 1022.42 29.254 1022.9 30.3371L1018.86 34.5435L1021.07 38.1458L1026.64 36.4349C1027.46 37.4493 1028.35 38.4037 1029.3 39.295L1027.22 44.7347L1030.66 47.192L1035.13 43.4537C1036.16 44.0076 1037.24 44.4957 1038.36 44.9238L1038.46 50.808L1042.57 51.7837L1045.32 46.574C1046.64 46.7135 1047.94 46.7549 1049.24 46.7062L1051.6 52.019L1055.77 51.3146L1056.3 45.5165C1057.44 45.17 1058.55 44.7526 1059.63 44.263L1063.82 48.2947L1067.43 46.0727L1065.73 40.5038C1066.75 39.6842 1067.7 38.7925 1068.6 37.8312ZM1031.87 38.7849C1020.92 29.7512 1019.39 13.5295 1028.45 2.55284C1037.5 -8.42242 1053.72 -9.99823 1064.67 -0.965084C1075.62 8.06974 1077.15 24.2928 1068.09 35.2681C1059.04 46.244 1042.82 47.8197 1031.87 38.7849Z" fill="#8D8D8D"/>
<path d="M1032.61 37.8825C1022.18 29.272 1020.71 13.7555 1029.34 3.29245C1037.98 -7.16858 1053.49 -8.6775 1063.93 -0.0669912C1074.36 8.54464 1075.83 24.0637 1067.2 34.5254C1058.56 44.9879 1043.05 46.4941 1032.61 37.8825ZM1062.13 2.11548C1052.89 -5.50443 1039.16 -4.17211 1031.52 5.08703C1023.88 14.3468 1025.18 28.0801 1034.41 35.7C1043.65 43.3216 1057.38 41.9893 1065.02 32.7294C1072.66 23.4698 1071.36 9.73651 1062.13 2.11548Z" fill="#8D8D8D"/>
<path d="M1168.18 229.21L1166.95 228.46C1165 227.271 1164.09 224.844 1164.93 222.718C1166.03 219.972 1169.28 218.965 1171.69 220.431L1172.79 221.1C1174.3 222.023 1176.29 221.388 1176.99 219.757C1177.34 218.953 1177.67 218.144 1177.98 217.33C1178.6 215.712 1177.68 213.916 1176.01 213.471L1174.6 213.095C1172.39 212.505 1170.83 210.436 1171.04 208.157C1171.32 205.219 1174.16 203.334 1176.89 204.063L1178.12 204.392C1179.84 204.85 1181.57 203.681 1181.78 201.914C1181.88 201.048 1181.97 200.179 1182.04 199.313C1182.17 197.588 1180.79 196.127 1179.06 196.172L1177.48 196.211C1174.92 196.277 1172.78 194.235 1172.72 191.675C1170.83 190.115 1171.9 187.039 1174.35 186.978L1178.54 186.87C1180.31 186.827 1181.64 185.219 1181.35 183.47C1181.21 182.611 1181.05 181.755 1180.87 180.904C1180.52 179.21 1178.77 178.196 1177.13 178.726L1175.63 179.208C1173.19 179.992 1170.56 178.637 1169.78 176.2C1169 173.762 1170.36 171.126 1172.8 170.342L1174.02 169.949C1175.71 169.407 1176.54 167.491 1175.77 165.897C1175.39 165.115 1174.99 164.338 1174.58 163.568C1173.77 162.044 1171.81 161.562 1170.37 162.536L1169.06 163.429C1166.94 164.868 1164.03 164.311 1162.6 162.194L1162.6 162.192C1161.17 160.074 1161.73 157.164 1163.85 155.726L1164.91 155.007C1166.38 154.011 1166.63 151.939 1165.44 150.628C1164.86 149.986 1164.26 149.356 1163.65 148.734C1162.43 147.504 1160.42 147.595 1159.32 148.931L1158.31 150.151C1156.68 152.129 1153.73 152.415 1151.76 150.788C1149.79 149.16 1149.51 146.211 1151.14 144.233L1151.95 143.247C1153.08 141.877 1152.74 139.822 1151.23 138.9C1150.49 138.444 1149.74 138.005 1148.98 137.584C1147.47 136.742 1145.56 137.4 1144.87 138.991L1144.3 140.327C1143.4 142.431 1141.13 143.691 1138.9 143.158C1136.03 142.473 1134.58 139.396 1135.7 136.796L1136.2 135.612C1136.9 133.978 1136 132.102 1134.28 131.644C1133.44 131.42 1132.59 131.214 1131.74 131.023C1130.06 130.648 1128.41 131.816 1128.2 133.531L1128.01 135.111C1127.71 137.654 1125.38 139.491 1122.84 139.188C1120.3 138.888 1118.47 136.562 1118.77 134.02L1118.93 132.757C1119.14 130.992 1117.74 129.448 1115.97 129.494C1115.1 129.516 1114.23 129.557 1113.36 129.613C1111.63 129.727 1110.38 131.31 1110.67 133.015L1110.93 134.568C1111.35 137.093 1109.63 139.508 1107.1 139.938C1104.58 140.366 1102.17 138.651 1101.75 136.125L1101.53 134.867C1101.24 133.117 1099.47 132.031 1097.78 132.572C1096.95 132.837 1096.12 133.12 1095.3 133.418C1093.68 134.012 1092.92 135.884 1093.67 137.443L1094.36 138.865C1095.48 141.167 1094.51 143.967 1092.2 145.09C1089.9 146.212 1087.1 145.248 1085.99 142.947L1085.43 141.791C1084.65 140.197 1082.64 139.653 1081.17 140.652C1080.45 141.141 1079.74 141.644 1079.04 142.165C1077.64 143.194 1077.44 145.204 1078.6 146.481L1079.67 147.653C1081.39 149.546 1081.25 152.505 1079.35 154.232C1077.45 155.957 1074.5 155.821 1072.78 153.93L1071.92 152.986C1070.73 151.681 1068.65 151.714 1067.53 153.078C1067.52 153.086 1067.51 153.096 1067.51 153.104C1066.95 153.782 1066.41 154.467 1065.88 155.161C1064.84 156.535 1065.22 158.509 1066.69 159.405L1068.04 160.223C1070.22 161.553 1070.92 164.431 1069.58 166.619C1068.25 168.807 1065.37 169.51 1063.19 168.181L1062.09 167.513C1060.57 166.591 1058.59 167.226 1057.89 168.856C1057.54 169.66 1057.21 170.47 1056.9 171.281C1056.28 172.9 1057.2 174.696 1058.87 175.142L1060.41 175.552C1062.88 176.211 1064.36 178.774 1063.69 181.248C1063.03 183.723 1060.46 185.209 1057.99 184.549L1056.76 184.219C1055.04 183.763 1053.31 184.932 1053.1 186.698C1052.99 187.564 1052.91 188.431 1052.84 189.298C1052.7 191.021 1054.09 192.483 1055.82 192.438L1057.4 192.399C1059.95 192.335 1062.1 194.377 1062.16 196.936C1064.05 198.496 1062.98 201.573 1060.53 201.635L1056.34 201.742C1054.57 201.787 1053.23 203.393 1053.53 205.142C1053.67 205.999 1053.83 206.855 1054.01 207.707C1054.36 209.399 1056.1 210.414 1057.75 209.885L1059.12 209.444C1061.3 208.744 1063.74 209.635 1064.79 211.666C1066.14 214.285 1064.77 217.404 1062.08 218.267L1060.85 218.661C1059.16 219.203 1058.34 221.117 1059.11 222.714C1059.49 223.496 1059.88 224.272 1060.29 225.042C1061.11 226.566 1063.07 227.049 1064.5 226.074L1065.73 225.246C1067.6 223.977 1070.14 224.135 1071.72 225.743C1073.82 227.869 1073.39 231.286 1071.03 232.885L1069.97 233.605C1068.5 234.601 1068.24 236.673 1069.44 237.984C1070.02 238.624 1070.62 239.255 1071.23 239.877C1072.45 241.107 1074.46 241.015 1075.56 239.679L1076.57 238.46C1078.2 236.482 1081.15 236.198 1083.12 237.825C1085.09 239.452 1085.37 242.4 1083.74 244.378L1082.93 245.363C1081.8 246.733 1082.14 248.789 1083.65 249.713C1084.39 250.167 1085.14 250.606 1085.9 251.026C1087.41 251.869 1089.32 251.212 1090.01 249.619L1090.58 248.285C1091.48 246.181 1093.75 244.92 1095.98 245.452C1098.85 246.138 1100.3 249.216 1099.18 251.815L1098.68 252.999C1097.98 254.634 1098.88 256.511 1100.6 256.966C1101.44 257.191 1102.29 257.397 1103.14 257.588C1104.82 257.963 1106.47 256.795 1106.67 255.079L1106.85 253.634C1107.12 251.359 1108.95 249.513 1111.23 249.396C1114.18 249.245 1116.44 251.786 1116.11 254.592L1115.95 255.854C1115.74 257.618 1117.14 259.164 1118.91 259.117C1119.78 259.095 1120.65 259.055 1121.52 258.997C1123.25 258.885 1124.5 257.302 1124.21 255.594L1123.98 254.175C1123.6 251.918 1124.84 249.632 1127 248.876C1129.78 247.9 1132.67 249.701 1133.13 252.485L1133.35 253.744C1133.64 255.493 1135.41 256.58 1137.1 256.038C1137.93 255.773 1138.76 255.491 1139.57 255.192C1141.2 254.597 1141.96 252.725 1141.21 251.167L1140.52 249.745C1139.4 247.443 1140.37 244.642 1142.68 243.519C1144.2 241.67 1147.12 242.016 1148.17 244.168L1149.45 246.819C1150.23 248.414 1152.24 248.956 1153.71 247.958C1154.43 247.469 1155.14 246.965 1155.85 246.446C1157.24 245.415 1157.44 243.408 1156.28 242.128L1155.21 240.955C1153.31 238.867 1153.68 235.483 1156.17 233.886C1158.1 232.65 1160.65 233.09 1162.19 234.78L1162.96 235.624C1164.14 236.93 1166.22 236.895 1167.35 235.532C1167.36 235.524 1167.36 235.515 1167.37 235.505C1167.93 234.828 1168.47 234.143 1169 233.45C1170.04 232.078 1169.66 230.105 1168.18 229.21ZM1147.94 162.077C1155.41 169.134 1159.92 178.274 1161.31 187.848L1146.29 189.305C1145.31 183.57 1142.63 178.104 1138.32 173.737L1147.94 162.077L1147.94 162.077ZM1143.29 158.239L1133.67 169.899C1128.56 166.497 1122.69 164.906 1116.87 165.028L1115.45 150.01C1125.11 149.558 1134.94 152.25 1143.29 158.239ZM1109.45 150.7L1110.88 165.769C1105.37 167.036 1100.18 169.895 1096.07 174.277L1084.46 164.696C1091.25 157.136 1100.1 152.42 1109.45 150.7ZM1073.07 196.413C1072.65 187.095 1075.16 177.614 1080.72 169.452L1092.4 179.081C1089.4 183.973 1087.98 189.49 1088.08 194.955L1073.07 196.413ZM1086.86 226.635C1079.79 219.96 1075.38 211.421 1073.74 202.415L1088.81 200.953C1089.98 206.12 1092.55 211.002 1096.48 214.974L1086.86 226.635ZM1101.41 213.735C1090.73 204.924 1089.24 189.109 1098.07 178.406C1106.9 167.707 1122.71 166.169 1133.39 174.98C1144.06 183.788 1145.56 199.606 1136.73 210.306C1127.9 221.009 1112.08 222.543 1101.41 213.735ZM1091.51 230.473L1101.13 218.812C1105.77 221.911 1111.05 223.506 1116.35 223.678L1117.78 238.748C1108.62 238.853 1099.4 236.14 1091.51 230.473ZM1123.8 238.273L1122.38 223.255C1127.76 222.316 1132.91 219.879 1137.14 216.003L1148.81 225.635C1141.85 232.645 1133.02 236.907 1123.8 238.273ZM1141.16 211.485C1144.68 206.612 1146.51 200.981 1146.7 195.333L1161.77 193.869C1161.86 203.373 1158.91 212.961 1152.77 221.066L1141.16 211.485Z" fill="#8D8D8D"/>
<path d="M1080.3 134.792C1081.1 133.737 1080.8 132.213 1079.66 131.522L1078.71 130.943C1077.2 130.022 1076.49 128.156 1077.14 126.517C1077.98 124.411 1080.48 123.648 1082.34 124.78L1083.19 125.3C1084.35 126.007 1085.88 125.531 1086.42 124.277C1086.68 123.661 1086.93 123.029 1087.18 122.409C1087.65 121.167 1086.93 119.783 1085.65 119.435L1084.56 119.147C1082.86 118.683 1081.65 117.084 1081.81 115.337C1082.01 113.076 1084.2 111.636 1086.29 112.204L1087.25 112.455C1088.58 112.814 1089.9 111.92 1090.06 110.565C1090.13 109.9 1090.2 109.23 1090.25 108.563C1090.36 107.239 1089.28 106.112 1087.95 106.141L1086.74 106.162C1084.76 106.212 1083.11 104.633 1083.05 102.659C1081.6 101.46 1082.41 99.0991 1084.3 99.0569L1087.52 98.9828C1088.89 98.9536 1089.91 97.7165 1089.68 96.3774C1089.57 95.7149 1089.44 95.0573 1089.31 94.3969C1089.03 93.0924 1087.68 92.3134 1086.41 92.7118L1085.26 93.0815C1083.39 93.6728 1081.35 92.6232 1080.75 90.7533C1080.14 88.8618 1081.19 86.8462 1083.06 86.2552L1084 85.9531C1085.3 85.538 1085.94 84.0683 1085.33 82.838C1085.04 82.2337 1084.73 81.646 1084.42 81.0497C1083.79 79.8706 1082.27 79.4953 1081.17 80.2336L1080.16 80.9205C1078.53 82.0199 1076.29 81.5916 1075.18 79.9531C1074.07 78.3158 1074.5 76.0881 1076.13 74.9823L1076.93 74.4332C1078.07 73.6665 1078.26 72.0766 1077.34 71.0585C1076.88 70.5722 1076.42 70.0878 1075.94 69.6053C1075.01 68.6638 1073.46 68.717 1072.61 69.7463L1071.85 70.6727C1070.59 72.1967 1068.33 72.4115 1066.8 71.149C1065.27 69.8876 1065.05 67.6224 1066.3 66.0984L1066.92 65.35C1067.79 64.3031 1067.52 62.7185 1066.36 62.0037C1065.79 61.6508 1065.2 61.3165 1064.62 60.9907C1063.46 60.3369 1061.98 60.8373 1061.46 62.0672L1061.03 63.0886C1060.34 64.6998 1058.58 65.6662 1056.88 65.2526C1054.66 64.7192 1053.53 62.346 1054.38 60.3465L1054.77 59.4369C1055.31 58.1791 1054.6 56.7395 1053.29 56.3818C1052.63 56.2071 1051.98 56.0459 1051.32 55.8999C1050.03 55.6048 1048.76 56.4923 1048.61 57.8157L1048.46 59.0281C1048.23 60.9805 1046.44 62.3901 1044.49 62.1532C1042.53 61.9149 1041.11 60.1164 1041.35 58.1685L1041.45 57.195C1041.62 55.8336 1040.53 54.6458 1039.17 54.6696C1038.5 54.6914 1037.83 54.7155 1037.16 54.7589C1035.83 54.8395 1034.87 56.0538 1035.09 57.3772L1035.3 58.5677C1035.63 60.5112 1034.31 62.3616 1032.37 62.6889C1030.43 63.0045 1028.56 61.6833 1028.23 59.7407L1028.07 58.772C1027.84 57.4223 1026.47 56.5856 1025.16 56.9937C1024.52 57.1934 1023.89 57.4142 1023.26 57.6399C1022.01 58.0947 1021.43 59.5295 1022.01 60.7272L1022.56 61.8276C1023.41 63.6042 1022.67 65.7473 1020.9 66.6093C1019.13 67.4676 1016.97 66.7158 1016.11 64.942L1015.68 64.058C1015.07 62.8247 1013.53 62.4062 1012.39 63.1678C1011.84 63.5452 1011.29 63.9257 1010.75 64.3239C1009.68 65.1147 1009.53 66.6612 1010.42 67.6462L1011.25 68.5478C1012.58 70.0059 1012.48 72.2865 1011.03 73.6101C1009.57 74.9301 1007.29 74.8216 1005.96 73.3623L1005.3 72.6296C1004.38 71.6271 1002.78 71.6404 1001.92 72.6906C1001.91 72.696 1001.9 72.7055 1001.9 72.7089C1001.47 73.2259 1001.05 73.7526 1000.65 74.2832C999.853 75.3462 1000.15 76.8669 1001.29 77.5588L1002.32 78.1831C1004.01 79.2206 1004.55 81.4351 1003.53 83.1119C1002.51 84.7975 1000.3 85.3229 998.609 84.2928L997.761 83.7844C996.599 83.0625 995.062 83.5545 994.529 84.8008C994.267 85.4249 994.01 86.0359 993.78 86.6649C993.302 87.9098 994.015 89.2974 995.299 89.6399L996.49 89.964C998.393 90.4702 999.538 92.454 999.038 94.3516C998.532 96.2504 996.559 97.3911 994.651 96.8734L993.702 96.6222C992.376 96.2606 991.048 97.1569 990.889 98.5158C990.811 99.187 990.748 99.8443 990.693 100.518C990.596 101.843 991.668 102.968 992.997 102.943L994.22 102.914C996.186 102.874 997.844 104.45 997.895 106.409C999.357 107.615 998.546 109.981 996.649 110.027L993.426 110.098C992.06 110.126 991.04 111.363 991.269 112.713C991.381 113.368 991.506 114.026 991.638 114.68C991.92 115.988 993.268 116.771 994.537 116.369L995.594 116.032C997.266 115.499 999.145 116.194 999.96 117.759C1001.01 119.773 999.961 122.172 997.892 122.821L996.949 123.123C995.65 123.531 995.01 125.015 995.619 126.24C995.909 126.844 996.218 127.444 996.537 128.03C997.166 129.214 998.678 129.581 999.783 128.837L1000.72 128.198C1002.16 127.232 1004.12 127.36 1005.35 128.605C1006.96 130.244 1006.64 132.867 1004.82 134.09L1004.02 134.643C1002.88 135.407 1002.69 136.995 1003.62 138.007C1004.07 138.505 1004.53 138.998 1005 139.471C1005.94 140.423 1007.49 140.357 1008.34 139.334L1009.11 138.395C1010.36 136.876 1012.63 136.669 1014.16 137.927C1015.68 139.183 1015.9 141.448 1014.65 142.967L1014.03 143.725C1013.16 144.775 1013.43 146.362 1014.59 147.07C1015.16 147.427 1015.75 147.764 1016.33 148.089C1017.49 148.749 1018.96 148.236 1019.49 147.021L1019.93 145.986C1020.61 144.373 1022.36 143.416 1024.07 143.826C1026.28 144.367 1027.41 146.739 1026.56 148.729L1026.18 149.632C1025.64 150.899 1026.34 152.347 1027.66 152.701C1028.32 152.875 1028.96 153.029 1029.63 153.18C1030.93 153.473 1032.19 152.581 1032.35 151.263L1032.47 150.144C1032.68 148.4 1034.08 146.985 1035.84 146.9C1038.11 146.79 1039.85 148.755 1039.6 150.913L1039.5 151.881C1039.33 153.239 1040.41 154.428 1041.78 154.399C1042.45 154.384 1043.11 154.354 1043.79 154.311C1045.12 154.228 1046.08 153.017 1045.85 151.703L1045.67 150.607C1045.37 148.873 1046.31 147.119 1047.98 146.539C1050.12 145.799 1052.35 147.192 1052.72 149.335L1052.88 150.302C1053.11 151.651 1054.48 152.49 1055.78 152.079C1056.42 151.876 1057.05 151.662 1057.69 151.433C1058.93 150.981 1059.52 149.534 1058.93 148.346L1058.39 147.249C1057.53 145.476 1058.27 143.324 1060.04 142.463C1061.21 141.044 1063.47 141.314 1064.27 142.974L1065.27 145.02C1065.88 146.248 1067.42 146.669 1068.55 145.902C1069.11 145.53 1069.65 145.148 1070.2 144.748C1071.27 143.961 1071.42 142.421 1070.52 141.427L1069.7 140.526C1068.22 138.916 1068.5 136.314 1070.41 135.092C1071.9 134.143 1073.87 134.487 1075.05 135.793L1075.65 136.445C1076.57 137.447 1078.17 137.426 1079.03 136.387C1079.04 136.379 1079.04 136.373 1079.05 136.364C1079.48 135.847 1079.89 135.328 1080.3 134.792ZM1036.79 123.9L1041.33 108.361L1049.1 122.527C1045.25 124.262 1040.93 124.749 1036.79 123.9ZM1060.51 108.282L1044.97 103.795L1059.15 95.9707C1060.89 99.8269 1061.36 104.148 1060.51 108.282ZM1044.09 106.825L1059.62 111.319C1058.85 113.326 1057.77 115.239 1056.32 116.99C1055.01 118.584 1053.51 119.929 1051.87 120.99L1044.09 106.825ZM1064.39 124.012C1063.28 125.368 1061.26 125.568 1059.9 124.446C1058.53 123.321 1058.35 121.303 1059.47 119.947C1060.59 118.582 1062.61 118.38 1063.97 119.505C1065.34 120.628 1065.52 122.648 1064.39 124.012ZM1067.59 98.6838C1069.35 98.5044 1070.92 99.7965 1071.07 101.558C1071.24 103.32 1069.95 104.881 1068.2 105.046C1066.44 105.218 1064.88 103.926 1064.71 102.171C1064.54 100.418 1065.83 98.8566 1067.59 98.6838ZM1059.94 80.9995C1061.3 82.1258 1061.49 84.1331 1060.37 85.4967C1059.24 86.8596 1057.23 87.055 1055.87 85.9288C1054.51 84.8092 1054.32 82.7962 1055.44 81.4333C1056.57 80.0697 1058.58 79.88 1059.94 80.9995ZM1053.65 88.7604C1055.24 90.0748 1056.57 91.566 1057.63 93.2076L1043.45 101.024L1047.98 85.4766C1049.99 86.2304 1051.91 87.3237 1053.65 88.7604ZM1021.25 100.214L1036.76 104.714L1022.59 112.521C1020.86 108.677 1020.39 104.358 1021.25 100.214ZM1021.44 85.1189C1022.8 86.2407 1022.98 88.2595 1021.86 89.6183C1020.74 90.9785 1018.72 91.1848 1017.36 90.063C1016 88.9401 1015.82 86.9185 1016.94 85.5583C1018.06 84.1995 1020.08 83.996 1021.44 85.1189ZM1025.43 91.5047C1026.74 89.9218 1028.25 88.585 1029.87 87.5128L1037.65 101.676L1022.13 97.1874C1022.89 95.1738 1023.99 93.2527 1025.43 91.5047ZM1044.95 84.6019L1040.43 100.162L1032.65 85.9787C1036.51 84.2317 1040.82 83.7514 1044.95 84.6019ZM1037.52 74.3664C1039.27 74.2049 1040.83 75.4875 1041 77.2404C1041.16 79.0034 1039.88 80.5619 1038.12 80.7302C1036.36 80.9026 1034.81 79.62 1034.64 77.8562C1034.47 76.1009 1035.76 74.5424 1037.52 74.3664ZM1013.74 110.884C1011.98 111.053 1010.43 109.769 1010.26 108.005C1010.09 106.242 1011.37 104.686 1013.14 104.51C1014.9 104.346 1016.46 105.63 1016.63 107.389C1016.78 109.15 1015.5 110.706 1013.74 110.884ZM1021.39 128.568C1020.03 127.447 1019.84 125.435 1020.97 124.069C1022.09 122.709 1024.1 122.51 1025.46 123.632C1026.82 124.756 1027.02 126.774 1025.9 128.135C1024.77 129.501 1022.75 129.692 1021.39 128.568ZM1028.1 119.725C1026.53 118.429 1025.18 116.937 1024.11 115.295L1038.29 107.475L1033.77 123.028C1031.75 122.271 1029.85 121.171 1028.1 119.725ZM1043.81 135.2C1042.06 135.37 1040.5 134.08 1040.33 132.327C1040.17 130.561 1041.46 128.999 1043.21 128.836C1044.97 128.657 1046.53 129.947 1046.69 131.709C1046.87 133.464 1045.58 135.025 1043.81 135.2Z" fill="#8D8D8D"/>
<path d="M989.797 158.175L993.817 159.71L995.642 157.16L992.885 153.855C993.297 153.088 993.661 152.287 993.977 151.456L998.333 151.375L999.063 148.327L995.214 146.297C995.318 145.323 995.351 144.356 995.319 143.399L999.252 141.637L998.741 138.548L994.452 138.166C994.197 137.325 993.889 136.503 993.531 135.705L996.519 132.589L994.882 129.923L990.759 131.187C990.154 130.439 989.495 129.73 988.789 129.071L990.332 125.043L987.786 123.226L984.478 125.992C983.711 125.583 982.911 125.219 982.081 124.905L982.01 120.547L978.966 119.823L976.927 123.681C975.955 123.58 974.988 123.548 974.031 123.582L972.281 119.651L969.19 120.169L968.799 124.464C967.957 124.721 967.136 125.031 966.337 125.391L963.229 122.409L960.56 124.053L961.814 128.176C961.064 128.782 960.354 129.442 959.693 130.153L955.672 128.618L953.849 131.169L956.605 134.473C956.195 135.242 955.829 136.041 955.514 136.872L951.158 136.953L950.427 140.001L954.279 142.032C954.175 143.005 954.139 143.972 954.172 144.929L950.238 146.691L950.748 149.78L955.038 150.161C955.293 151.003 955.601 151.824 955.959 152.622L952.97 155.738L954.608 158.406L958.732 157.14C959.336 157.889 959.995 158.597 960.702 159.257L959.158 163.285L961.703 165.103L965.012 162.337C965.779 162.746 966.578 163.11 967.406 163.424L967.478 167.782L970.524 168.506L972.562 164.647C973.534 164.75 974.501 164.781 975.458 164.745L977.209 168.677L980.299 168.159L980.69 163.865C981.532 163.608 982.354 163.297 983.151 162.937L986.259 165.919L988.927 164.275L987.673 160.152C988.426 159.544 989.135 158.885 989.797 158.175ZM976.361 150.918C977.61 150.631 979.025 149.693 979.654 149.075L986.514 154.735C983.636 158.048 980.692 159.329 977.177 159.903L976.361 150.918ZM973.048 146.623C971.79 145.585 971.613 143.712 972.654 142.45C973.695 141.189 975.566 141.007 976.825 142.045C978.084 143.085 978.261 144.956 977.22 146.218C976.178 147.48 974.307 147.662 973.048 146.623ZM987.615 153.368L980.728 147.686C981.134 146.883 981.71 145.239 981.645 143.933L990.602 143.041C990.831 146.627 989.672 150.516 987.615 153.368ZM990.07 141.426L980.907 142.17C980.632 141.153 980.466 140.488 979.206 139.259L985.055 132.17C988.275 135.16 989.552 138.087 990.07 141.426ZM984.401 131.583L978.552 138.672C977.13 137.639 976.325 137.615 975.074 137.574L974.143 128.21C977.755 128.095 981.649 129.405 984.401 131.583ZM972.904 128.397L973.804 137.688C972.608 137.908 971.246 138.725 970.545 139.283L963.264 133.275C965.677 130.716 969.309 128.836 972.904 128.397ZM962.133 134.617L969.385 140.601C968.893 141.333 968.305 142.721 968.216 143.907L958.832 144.853C958.709 141.265 959.427 138.071 962.133 134.617ZM958.938 146.087L968.172 145.144C968.371 146.573 968.791 147.746 970.064 148.96L964.228 156.034C961.569 153.741 959.409 149.86 958.938 146.087ZM964.928 156.562L970.765 149.489C972.227 150.473 973.438 150.773 974.684 150.758L975.371 159.569C971.813 159.825 968.483 159.147 964.928 156.562Z" fill="#8D8D8D"/>
</g>
</g>
<defs>
<filter id="filter0_f_414_4258" x="406.279" y="-855.137" width="1450.18" height="1542.14" filterUnits="userSpaceOnUse" color-interpolation-filters="sRGB">
<feFlood flood-opacity="0" result="BackgroundImageFix"/>
<feBlend mode="normal" in="SourceGraphic" in2="BackgroundImageFix" result="shape"/>
<feGaussianBlur stdDeviation="304.86" result="effect1_foregroundBlur_414_4258"/>
</filter>
<filter id="filter1_f_414_4258" x="624.601" y="-695.373" width="1325.4" height="1448.44" filterUnits="userSpaceOnUse" color-interpolation-filters="sRGB">
<feFlood flood-opacity="0" result="BackgroundImageFix"/>
<feBlend mode="normal" in="SourceGraphic" in2="BackgroundImageFix" result="shape"/>
<feGaussianBlur stdDeviation="254.5" result="effect1_foregroundBlur_414_4258"/>
</filter>
<linearGradient id="paint0_linear_414_4258" x1="1182.72" y1="4.23208e-06" x2="1161.81" y2="400.648" gradientUnits="userSpaceOnUse">
<stop offset="0.0233732" stop-color="#352A24"/>
<stop offset="1" stop-color="#141421"/>
</linearGradient>
<linearGradient id="paint1_linear_414_4258" x1="1182.72" y1="4.23208e-06" x2="1161.81" y2="400.648" gradientUnits="userSpaceOnUse">
<stop offset="0.0233732" stop-color="#352A24"/>
<stop offset="1" stop-color="#141421"/>
</linearGradient>
</defs>
</svg>
