<svg width="40" height="40" viewBox="0 0 40 40" fill="none" xmlns="http://www.w3.org/2000/svg">
<path fill-rule="evenodd" clip-rule="evenodd" d="M28.1955 13.4271C29.0749 13.6626 29.7662 14.3537 30.0016 15.2332C30.427 16.8258 30.4287 20.1504 30.4287 20.1504C30.4287 20.1504 30.4287 23.475 30.0016 25.0676C29.7662 25.9471 29.0749 26.6382 28.1955 26.8736C26.603 27.3008 20.2143 27.3008 20.2143 27.3008C20.2143 27.3008 13.8258 27.3008 12.2332 26.8736C11.3537 26.6382 10.6626 25.9471 10.4271 25.0676C10 23.475 10 20.1504 10 20.1504C10 20.1504 10 16.8258 10.4271 15.2332C10.6626 14.3537 11.3537 13.6626 12.2332 13.4271C13.8258 13 20.2143 13 20.2143 13C20.2143 13 26.603 13 28.1955 13.4271ZM23.4768 20.1507L18.1695 23.2146V17.0867L23.4768 20.1507Z" fill="white"/>
</svg>
