<svg width="321" height="37" viewBox="0 0 321 37" fill="none" xmlns="http://www.w3.org/2000/svg">
<path d="M12.2735 28.9922C10.7 28.9922 9.12647 28.6922 7.63162 28.0922C6.13677 27.4922 4.87794 26.5922 3.69779 25.4672C2.59632 24.3422 1.65221 22.9172 1.02279 21.2672C0.314706 19.6172 0 17.8172 0 15.7172C0 13.6172 0.314706 11.8172 1.02279 10.0922C1.65221 8.44219 2.59632 6.94219 3.77647 5.74219C4.95662 4.54219 6.29412 3.64219 7.86765 2.96719C9.44118 2.29219 11.0934 1.99219 12.9029 1.99219C14.2404 1.99219 15.4206 2.14219 16.5221 2.44219C17.6235 2.74219 18.6463 3.19219 19.5904 3.79219L20.3772 2.59219H21.8721L22.0294 11.8172H20.4559C20.2199 10.9172 19.9838 9.94219 19.5118 8.89219C19.1184 7.84219 18.6463 6.94219 18.0956 6.26719C17.4662 5.44219 16.7581 4.76719 15.8926 4.31719C15.0272 3.86719 14.0831 3.64219 12.9816 3.64219C11.7228 3.64219 10.6213 3.86719 9.51985 4.39219C8.57574 4.84219 7.71029 5.66719 6.92353 6.64219C6.21544 7.61719 5.58603 8.89219 5.19265 10.3922C4.79926 11.8922 4.56324 13.6172 4.56324 15.4922C4.56324 17.1422 4.79926 18.6422 5.19265 19.9922C5.66471 21.3422 6.29412 22.5422 7.08088 23.5922C7.86765 24.6422 8.89044 25.3922 9.99191 25.9922C11.0934 26.5922 12.3522 26.8922 13.6897 26.8922C14.7125 26.8922 15.6566 26.7422 16.5221 26.4422C17.3875 26.1422 18.0956 25.6922 18.8037 25.2422C19.4331 24.7172 19.9838 24.1172 20.4559 23.4422C20.9279 22.7672 21.3213 22.0172 21.636 21.1922L23.0522 21.8672C21.9507 24.4172 20.5346 26.2172 18.725 27.3422C16.9154 28.4672 14.7912 28.9922 12.2735 28.9922ZM42.3279 23.3672C42.3279 24.2672 42.0919 25.0172 41.6985 25.6922C41.3051 26.3672 40.6757 26.8922 39.9676 27.2672C39.2596 27.6422 38.5515 27.9422 37.686 28.0922C36.8206 28.3172 35.8765 28.3922 34.9324 28.3922H25.0191V27.1922C25.3338 27.1922 25.6485 27.1172 25.9632 27.1172C26.2779 27.1172 26.514 27.0422 26.75 26.9672C27.1434 26.8922 27.3794 26.6672 27.5368 26.3672C27.6941 26.0672 27.7728 25.7672 27.7728 25.3172V13.6922C27.7728 13.3172 27.6941 12.9422 27.5368 12.7172C27.3794 12.4172 27.0647 12.2672 26.75 12.1172C26.4353 11.9672 26.1206 11.8922 25.8059 11.8172C25.4912 11.7422 25.1765 11.7422 24.9404 11.7422V10.5422H34.3816C35.3257 10.5422 36.2699 10.6172 37.0566 10.7672C37.9221 10.9172 38.6301 11.1422 39.2596 11.4422C39.9677 11.7422 40.4397 12.1922 40.8331 12.7172C41.2265 13.2422 41.3838 13.9172 41.3838 14.6672C41.3838 15.8672 40.9904 16.8422 40.2037 17.5172C39.4169 18.1922 38.3941 18.7172 37.1353 18.9422V19.1672C37.7647 19.2422 38.3941 19.3922 39.0235 19.6172C39.6529 19.8422 40.2037 20.0672 40.6757 20.4422C41.1478 20.8172 41.6199 21.1922 41.9346 21.7172C42.1706 22.0172 42.3279 22.6172 42.3279 23.3672ZM37.5287 14.5922C37.5287 13.9922 37.45 13.4672 37.214 13.0922C36.9779 12.7172 36.6632 12.4172 36.2699 12.1922C35.8765 12.0422 35.4044 11.8922 34.9324 11.8172C34.4603 11.7422 33.9096 11.6672 33.4375 11.6672H32.336C31.9426 11.6672 31.5493 11.6672 31.3132 11.7422V18.2672H33.1228C33.9882 18.2672 34.6963 18.1922 35.3257 17.9672C35.9552 17.7422 36.3485 17.5172 36.6632 17.2172C36.9779 16.9172 37.214 16.5422 37.3713 16.0922C37.45 15.6422 37.5287 15.1922 37.5287 14.5922ZM38.5515 23.0672C38.5515 22.0172 38.1581 21.1922 37.2926 20.5172C36.4272 19.9172 35.2471 19.6172 33.7522 19.6172H31.2346V25.5422C31.2346 25.9922 31.4706 26.3672 31.864 26.6672C32.2574 26.8922 32.9654 27.0422 33.8309 27.0422C34.775 27.0422 35.5618 26.8922 36.1912 26.6672C36.8206 26.4422 37.2926 26.1422 37.686 25.6922C38.0007 25.3172 38.2368 24.8672 38.3941 24.4172C38.4728 24.1172 38.5515 23.5922 38.5515 23.0672ZM63.4919 19.2422C63.4919 20.5172 63.2559 21.7172 62.8625 22.9922C62.4691 24.1922 61.8397 25.2422 61.0529 26.0672C60.1875 27.0422 59.1647 27.7922 57.9846 28.2422C56.8044 28.6922 55.5456 28.9172 54.1294 28.9172C52.9493 28.9172 51.7691 28.6922 50.7463 28.2422C49.6449 27.7922 48.7007 27.1922 47.8353 26.3672C46.9699 25.5422 46.3404 24.5672 45.8684 23.3672C45.3963 22.1672 45.1603 20.8922 45.1603 19.4672C45.1603 16.6922 46.0257 14.3672 47.7566 12.5672C49.4875 10.7672 51.6904 9.86719 54.4441 9.86719C57.0404 9.86719 59.2434 10.6922 60.9743 12.4172C62.6265 14.1422 63.4919 16.3922 63.4919 19.2422ZM59.5581 19.2422C59.5581 18.3422 59.4794 17.3672 59.2434 16.3922C59.086 15.4172 58.7713 14.5172 58.3779 13.8422C57.9846 13.0922 57.4338 12.4922 56.8044 12.0422C56.175 11.5922 55.3096 11.3672 54.3654 11.3672C53.4213 11.3672 52.5559 11.5922 51.8478 12.0422C51.1397 12.4922 50.589 13.1672 50.1956 13.9172C49.8022 14.6672 49.4875 15.4922 49.3302 16.4672C49.1728 17.4422 49.0941 18.3422 49.0941 19.2422C49.0941 20.4422 49.1728 21.4922 49.4088 22.4672C49.6449 23.4422 49.9596 24.3422 50.3529 25.0922C50.825 25.8422 51.2971 26.4422 52.0051 26.8922C52.6346 27.3422 53.5 27.5672 54.4441 27.5672C56.0176 27.5672 57.2765 26.8172 58.2206 25.3922C59.1647 23.9672 59.5581 21.8672 59.5581 19.2422ZM68.2125 15.1172H68.3699C68.9993 13.6922 69.9434 12.4922 71.2022 11.5172C72.461 10.5422 73.9559 10.0922 75.6868 10.0922C77.1029 10.0922 78.3618 10.3172 79.5419 10.7672C80.6434 11.2172 81.5875 11.8922 82.3743 12.7172C83.161 13.5422 83.7118 14.5172 84.1051 15.6422C84.4985 16.7672 84.6559 17.9672 84.6559 19.3172C84.6559 20.5922 84.4199 21.8672 84.0265 23.0672C83.6331 24.2672 83.0037 25.3172 82.2169 26.1422C81.3515 27.0422 80.4074 27.7922 79.2272 28.2422C78.1257 28.7672 76.7882 28.9922 75.2147 28.9922C74.0346 28.9922 72.9331 28.7672 71.8316 28.3172C70.7302 27.8672 69.786 27.1922 68.9993 26.2922C68.2125 25.3922 67.5044 24.1922 67.0324 22.6922C66.5603 21.1922 66.3243 19.5422 66.3243 17.5172C66.3243 15.6422 66.4816 13.9172 66.7177 12.4172C66.9537 10.9172 67.3471 9.56719 67.7404 8.36719C68.2912 6.64219 69.2353 5.29219 70.4941 4.24219C71.7529 3.19219 73.2478 2.59219 75.0574 2.51719C75.9228 2.44219 76.9456 2.44219 77.9684 2.36719C78.9912 2.29219 79.7779 2.29219 80.3287 2.21719C80.8794 2.21719 81.3515 2.06719 81.9022 1.76719C82.3743 1.54219 82.925 1.09219 83.3971 0.492188L84.4985 1.24219C84.1838 1.61719 83.8691 2.06719 83.3971 2.66719C82.925 3.26719 82.5316 3.71719 82.1382 4.09219C81.8235 4.39219 81.5875 4.61719 81.4302 4.84219C81.1941 5.06719 81.0368 5.14219 80.8007 5.29219C80.5647 5.36719 80.3287 5.51719 80.0927 5.51719C79.7779 5.59219 79.3846 5.59219 78.9125 5.59219C78.3618 5.59219 77.7324 5.66719 76.9456 5.74219C76.1588 5.81719 75.4507 5.81719 74.9 5.81719C74.0346 5.81719 73.2478 6.04219 72.6184 6.41719C71.989 6.79219 71.4382 7.16719 70.9662 7.69219C70.4941 8.14219 70.1007 8.74219 69.8647 9.34219C69.55 9.94219 69.3926 10.4672 69.2353 10.9172C68.9993 11.6672 68.7632 12.4172 68.6059 13.0922C68.3699 13.6172 68.2912 14.3672 68.2125 15.1172ZM79.3846 25.0922C79.8566 24.2672 80.1713 23.3672 80.3287 22.4672C80.5647 21.5672 80.6434 20.4422 80.6434 19.2422C80.6434 18.2672 80.5647 17.2922 80.4074 16.3922C80.25 15.4172 79.9353 14.5922 79.5419 13.8422C79.1485 13.0922 78.5978 12.4922 77.9684 12.0422C77.339 11.5922 76.5522 11.3672 75.5294 11.3672C74.5066 11.3672 73.6412 11.5922 72.9331 12.0422C72.225 12.4922 71.6743 13.0922 71.2809 13.8422C70.8875 14.5922 70.5728 15.4172 70.4154 16.3922C70.2581 17.3672 70.1794 18.2672 70.1794 19.0922C70.1794 20.5172 70.2581 21.7172 70.4941 22.6172C70.7301 23.5922 71.0449 24.4172 71.4382 25.0922C71.8316 25.8422 72.3824 26.3672 73.0118 26.8172C73.6412 27.1922 74.5066 27.4172 75.4507 27.4172C76.3162 27.4172 77.1029 27.1922 77.7324 26.7422C78.4404 26.4422 78.9912 25.8422 79.3846 25.0922ZM105.663 19.2422C105.663 20.5172 105.426 21.7172 105.033 22.9922C104.64 24.1922 104.01 25.2422 103.224 26.0672C102.358 27.0422 101.335 27.7922 100.155 28.2422C98.975 28.6922 97.7162 28.9172 96.3 28.9172C95.1199 28.9172 93.9397 28.6922 92.9169 28.2422C91.8154 27.7922 90.8713 27.1922 90.0059 26.3672C89.2191 25.5422 88.511 24.5672 88.039 23.3672C87.5669 22.1672 87.3309 20.8922 87.3309 19.4672C87.3309 16.6922 88.1963 14.3672 89.9272 12.5672C91.6581 10.7672 93.861 9.86719 96.6147 9.86719C99.211 9.86719 101.414 10.6922 103.145 12.4172C104.797 14.1422 105.663 16.3922 105.663 19.2422ZM101.729 19.2422C101.729 18.3422 101.65 17.3672 101.414 16.3922C101.257 15.4172 100.942 14.5172 100.549 13.8422C100.155 13.0922 99.6044 12.4922 98.975 12.0422C98.3456 11.5922 97.4801 11.3672 96.536 11.3672C95.5919 11.3672 94.7265 11.5922 94.0184 12.0422C93.3103 12.4922 92.7596 13.1672 92.3662 13.9172C91.9728 14.6672 91.6581 15.4922 91.5007 16.4672C91.3434 17.4422 91.2647 18.3422 91.2647 19.2422C91.2647 20.4422 91.3434 21.4922 91.5794 22.4672C91.8154 23.4422 92.1301 24.3422 92.5235 25.0922C92.9956 25.8422 93.4677 26.4422 94.1757 26.8922C94.8051 27.3422 95.6706 27.5672 96.6147 27.5672C98.1882 27.5672 99.4471 26.8172 100.391 25.3922C101.257 23.8922 101.729 21.8672 101.729 19.2422ZM109.124 26.8922C110.383 25.3172 111.485 23.2172 112.429 20.6672C113.373 18.1172 113.845 15.9422 113.845 14.2922C113.845 13.6922 113.766 13.1672 113.609 12.8672C113.451 12.5672 113.215 12.3422 112.822 12.1922C112.586 12.0422 112.193 11.9672 111.642 11.8922C111.091 11.8172 110.619 11.7422 110.304 11.6672V10.4672H127.456V11.6672C127.063 11.6672 126.748 11.7422 126.512 11.7422C126.276 11.7422 125.961 11.8172 125.725 11.8922C125.332 11.9672 125.096 12.1922 124.938 12.4922C124.781 12.7922 124.702 13.1672 124.702 13.5422V25.1672C124.702 25.8422 124.86 26.2922 125.096 26.5172C125.332 26.8172 125.882 26.8922 126.748 26.8922H128.007V33.5672H126.669C126.433 32.3672 125.961 31.1672 125.332 30.1172C124.702 28.9922 123.994 28.3922 123.286 28.2422H112.193C111.485 28.3172 110.776 28.9922 110.068 30.0422C109.36 31.0922 108.888 32.2922 108.652 33.5672H107.315V26.8922H109.124ZM111.327 26.8922H119.51C120.06 26.8922 120.454 26.8172 120.69 26.5922C120.926 26.3672 121.083 26.1422 121.083 25.6922V11.9672H115.812C115.733 15.0422 115.261 17.8172 114.474 20.3672C113.688 22.9172 112.665 25.0922 111.327 26.8922ZM151.295 28.3922H142.09V27.1922C142.404 27.1922 142.719 27.1172 143.034 27.1172C143.349 27.1172 143.585 27.0422 143.821 26.9672C144.214 26.8922 144.45 26.6672 144.607 26.3672C144.765 26.0672 144.922 25.7672 144.922 25.3172V19.6172H136.582V25.1672C136.582 25.5422 136.661 25.9172 136.818 26.2172C136.976 26.5172 137.29 26.6672 137.605 26.8172C137.841 26.9672 138.156 27.0422 138.471 27.1172C138.785 27.1922 139.1 27.1922 139.415 27.2672V28.4672H130.21V27.2672C130.524 27.2672 130.839 27.1922 131.154 27.1922C131.468 27.1922 131.704 27.1172 131.94 27.0422C132.334 26.9672 132.57 26.7422 132.727 26.4422C132.885 26.1422 132.963 25.8422 132.963 25.3922V13.6922C132.963 13.3172 132.885 12.9422 132.727 12.7172C132.57 12.4172 132.255 12.2672 131.94 12.1172C131.626 11.9672 131.311 11.8922 130.996 11.8172C130.682 11.7422 130.367 11.7422 130.131 11.7422V10.5422H139.336V11.7422C138.943 11.7422 138.628 11.8172 138.392 11.8172C138.156 11.8172 137.841 11.8922 137.605 11.9672C137.212 12.0422 136.976 12.2672 136.818 12.5672C136.661 12.8672 136.582 13.2422 136.582 13.6172V18.2672H144.922V13.8422C144.922 13.4672 144.843 13.0922 144.686 12.8672C144.529 12.5672 144.214 12.4172 143.899 12.2672C143.585 12.1172 143.27 12.0422 142.955 11.9672C142.64 11.8922 142.326 11.8922 142.09 11.8922V10.6922H151.295V11.8922C150.901 11.8922 150.587 11.9672 150.351 11.9672C150.115 11.9672 149.8 12.0422 149.564 12.1172C149.171 12.1922 148.935 12.4172 148.777 12.7172C148.62 13.0172 148.541 13.3922 148.541 13.7672V25.3922C148.541 25.8422 148.62 26.1422 148.777 26.4422C148.935 26.6672 149.171 26.8922 149.564 27.0422C149.8 27.1922 150.115 27.2672 150.429 27.3422C150.744 27.4172 151.059 27.4172 151.374 27.4922V28.3922H151.295ZM171.751 28.0172C171.121 28.2422 170.649 28.3922 170.177 28.5422C169.705 28.6922 169.233 28.7672 168.604 28.7672C167.581 28.7672 166.794 28.5422 166.243 28.0922C165.693 27.6422 165.299 27.0422 165.142 26.1422H165.063C164.276 27.0422 163.332 27.7172 162.388 28.1672C161.444 28.6172 160.264 28.8422 159.005 28.8422C157.589 28.8422 156.409 28.4672 155.543 27.6422C154.599 26.8172 154.206 25.7672 154.206 24.4172C154.206 23.7422 154.285 23.1422 154.521 22.5422C154.757 22.0172 154.993 21.4922 155.465 21.0422C155.779 20.6672 156.173 20.3672 156.724 20.0672C157.274 19.7672 157.746 19.5422 158.218 19.3922C158.769 19.1672 159.949 18.7922 161.68 18.2672C163.411 17.7422 164.591 17.2922 165.221 16.9922V15.1172C165.221 14.9672 165.221 14.6672 165.142 14.2172C165.063 13.7672 164.906 13.3172 164.67 12.9422C164.434 12.4922 164.04 12.1172 163.568 11.7422C163.096 11.4422 162.467 11.2172 161.601 11.2172C161.051 11.2172 160.5 11.2922 159.949 11.5172C159.477 11.7422 159.084 11.8922 158.926 12.1172C158.926 12.3422 159.005 12.7172 159.084 13.1672C159.241 13.6172 159.241 14.0672 159.241 14.4422C159.241 14.8922 159.005 15.2672 158.612 15.6422C158.218 16.0172 157.668 16.1672 156.96 16.1672C156.33 16.1672 155.858 15.9422 155.543 15.4922C155.229 15.0422 155.071 14.5922 155.071 14.0672C155.071 13.5422 155.307 12.9422 155.701 12.4922C156.094 11.9672 156.645 11.5172 157.274 11.1422C157.825 10.7672 158.533 10.5422 159.32 10.2422C160.107 10.0172 160.893 9.86719 161.68 9.86719C162.782 9.86719 163.647 9.94219 164.434 10.0922C165.221 10.2422 165.929 10.5422 166.637 10.9922C167.266 11.4422 167.738 12.0422 168.132 12.7922C168.446 13.5422 168.604 14.5172 168.604 15.7922C168.604 17.5172 168.604 19.0922 168.525 20.3672C168.446 21.6422 168.446 23.1422 168.446 24.7922C168.446 25.2422 168.525 25.6172 168.682 25.9172C168.84 26.2172 169.154 26.4422 169.469 26.5922C169.626 26.6672 169.941 26.7422 170.413 26.7422H171.672V28.0172H171.751ZM165.142 18.4172C164.04 18.7172 163.096 19.0172 162.31 19.3172C161.523 19.6172 160.736 19.9922 160.028 20.4422C159.399 20.8922 158.926 21.3422 158.533 21.9422C158.14 22.5422 157.982 23.1422 157.982 23.9672C157.982 24.9422 158.297 25.6922 158.848 26.2172C159.399 26.6672 160.107 26.8922 160.972 26.8922C161.838 26.8922 162.703 26.6672 163.332 26.2922C164.04 25.8422 164.591 25.3922 165.063 24.7922L165.142 18.4172ZM180.169 19.6922V19.6172C178.438 19.3172 177.179 18.7172 176.393 17.9672C175.606 17.2172 175.213 16.2422 175.213 15.1172C175.213 13.6922 175.921 12.5672 177.258 11.7422C178.596 10.9172 180.326 10.4672 182.372 10.4672H192.207V11.6672C191.813 11.6672 191.499 11.7422 191.263 11.7422C191.026 11.7422 190.712 11.8172 190.476 11.8922C190.082 11.9672 189.846 12.1922 189.689 12.4922C189.532 12.7922 189.453 13.1672 189.453 13.5422V25.1672C189.453 25.6172 189.532 25.9172 189.689 26.2172C189.846 26.4422 190.082 26.6672 190.476 26.8172C190.712 26.9672 191.026 27.0422 191.341 27.1172C191.656 27.1922 191.971 27.1922 192.285 27.2672V28.4672H183.08V27.2672C183.395 27.2672 183.71 27.1922 184.024 27.1922C184.339 27.1922 184.575 27.1172 184.811 27.0422C185.204 26.9672 185.44 26.7422 185.598 26.4422C185.755 26.1422 185.913 25.8422 185.913 25.3922V20.3672H185.126C183.946 20.3672 183.001 20.5922 182.372 21.0422C181.743 21.4922 181.035 22.3172 180.484 23.4422C180.012 24.3422 179.697 25.1672 179.382 25.9172C179.068 26.6672 178.832 27.4922 178.517 28.4672H172.065V27.2672C172.38 27.2672 172.616 27.1922 172.931 27.1922C173.167 27.1922 173.482 27.1172 173.796 27.0422C174.19 26.9672 174.583 26.8172 174.898 26.5922C175.213 26.3672 175.527 25.9922 175.763 25.5422C175.921 25.2422 176.078 24.8672 176.314 24.4172C176.55 23.9672 176.786 23.4422 177.101 22.8422C177.494 22.0922 177.966 21.4922 178.438 20.9672C178.832 20.3672 179.461 19.9922 180.169 19.6922ZM185.913 18.9422V11.7422H183.788C182.451 11.7422 181.349 12.0422 180.484 12.6422C179.618 13.2422 179.146 14.1422 179.146 15.2672C179.146 16.4672 179.618 17.3672 180.563 18.0422C181.507 18.6422 182.844 19.0172 184.496 19.0172H185.913V18.9422Z" fill="black"/>
<path d="M223.284 28.3918H212.033V27.1168C212.348 27.1168 212.741 27.0418 213.371 27.0418C213.921 26.9668 214.315 26.8918 214.551 26.8168C214.944 26.6668 215.18 26.4418 215.416 26.1418C215.574 25.8418 215.652 25.4668 215.652 25.0168V4.1668H203.221V24.7168C203.221 25.1668 203.3 25.4668 203.457 25.7668C203.615 26.0668 203.93 26.2918 204.323 26.5168C204.559 26.5918 204.952 26.7418 205.503 26.8168C206.054 26.8918 206.526 26.9668 206.841 26.9668V28.2418H195.59V26.9668C195.905 26.9668 196.298 26.8918 196.927 26.8918C197.557 26.8918 197.871 26.7418 198.107 26.6668C198.501 26.5168 198.737 26.2918 198.973 25.9918C199.13 25.6918 199.209 25.3168 199.209 24.8668V6.3418C199.209 5.9668 199.13 5.5918 198.973 5.2918C198.816 4.9918 198.501 4.6918 198.107 4.5418C197.793 4.3918 197.321 4.2418 196.849 4.0918C196.377 3.9418 195.905 3.8668 195.59 3.8668V2.5918H223.363V3.8668C222.969 3.8668 222.576 3.9418 222.025 4.0168C221.474 4.0918 221.16 4.2418 220.845 4.3168C220.452 4.4668 220.137 4.6918 219.98 5.0668C219.822 5.4418 219.744 5.7418 219.744 6.1918V24.7918C219.744 25.2418 219.822 25.5418 219.98 25.8418C220.137 26.1418 220.452 26.3668 220.845 26.5918C221.081 26.6668 221.474 26.8168 222.025 26.8918C222.576 26.9668 223.048 27.0418 223.363 27.0418V28.3918H223.284ZM243.74 12.5668C244.527 13.3918 245.077 14.3668 245.471 15.4918C245.864 16.6168 246.1 17.8918 246.1 19.3168C246.1 20.7418 245.864 22.0168 245.392 23.2168C244.92 24.4168 244.212 25.3918 243.425 26.2168C242.56 27.0418 241.616 27.7168 240.593 28.1668C239.57 28.6168 238.469 28.8418 237.288 28.8418C236.187 28.8418 235.243 28.6918 234.535 28.4668C233.827 28.2418 233.197 27.9418 232.725 27.6418H232.568V33.0418C232.568 33.4918 232.646 33.8668 232.804 34.1668C232.961 34.4668 233.276 34.6918 233.591 34.8418C233.905 34.9168 234.299 35.0668 234.928 35.1418C235.479 35.2168 235.951 35.2918 236.344 35.2918V36.4918H225.88V35.2918C226.274 35.2918 226.667 35.2168 227.06 35.2168C227.454 35.2168 227.769 35.1418 228.083 35.0668C228.477 34.9168 228.713 34.7668 228.87 34.4668C229.027 34.1668 229.106 33.7918 229.106 33.4168V14.2168C229.106 13.8418 229.027 13.4668 228.791 13.1668C228.555 12.8668 228.319 12.5668 228.083 12.3418C227.847 12.1918 227.532 12.1168 227.139 12.0418C226.746 11.9668 226.352 11.8918 225.959 11.8918V10.6918L232.332 10.3168L232.568 10.5418V12.5668H232.725C233.355 11.8168 234.22 11.2168 235.164 10.7668C236.108 10.3168 237.131 10.0168 238.075 10.0168C239.255 10.0168 240.278 10.2418 241.301 10.6918C242.245 11.1418 243.032 11.7418 243.74 12.5668ZM240.671 25.4668C241.144 24.7168 241.537 23.8168 241.773 22.8418C242.009 21.8668 242.166 20.7418 242.166 19.5418C242.166 18.6418 242.088 17.7418 241.852 16.7668C241.616 15.8668 241.301 15.0418 240.907 14.3668C240.514 13.6918 239.885 13.0918 239.177 12.6418C238.469 12.1918 237.603 11.9668 236.659 11.9668C235.715 11.9668 234.928 12.1918 234.22 12.5668C233.591 12.9418 232.961 13.4668 232.489 13.9918V24.5668C232.568 24.8668 232.804 25.2418 233.04 25.6168C233.276 25.9918 233.591 26.2918 233.905 26.5168C234.299 26.8168 234.692 27.0418 235.164 27.2668C235.636 27.4918 236.187 27.5668 236.816 27.5668C237.524 27.5668 238.232 27.4168 238.862 27.0418C239.649 26.5918 240.199 26.1418 240.671 25.4668ZM265.612 24.1168C264.825 25.5418 263.802 26.6668 262.465 27.5668C261.127 28.3918 259.632 28.8418 257.902 28.8418C256.407 28.8418 255.069 28.6168 253.889 28.0918C252.788 27.5668 251.844 26.8918 251.057 25.9918C250.349 25.0918 249.798 24.1168 249.405 22.9168C249.011 21.7918 248.854 20.5168 248.854 19.2418C248.854 18.1168 249.011 16.9168 249.405 15.7918C249.798 14.6668 250.349 13.6918 251.135 12.7918C251.844 11.9668 252.788 11.2168 253.81 10.6918C254.912 10.1668 256.092 9.8668 257.43 9.8668C258.767 9.8668 259.947 10.0918 260.97 10.4668C261.914 10.8418 262.78 11.4418 263.33 12.1918C263.881 12.8668 264.353 13.6918 264.668 14.5918C264.982 15.4918 265.061 16.5418 265.061 17.5918V18.7918H252.63C252.63 19.9918 252.709 21.0418 252.945 22.0168C253.181 22.9918 253.574 23.8168 254.046 24.5668C254.519 25.2418 255.227 25.8418 256.013 26.2168C256.8 26.5918 257.744 26.8168 258.846 26.8168C259.947 26.8168 260.97 26.5918 261.757 26.0668C262.544 25.5418 263.33 24.6418 264.117 23.3668L265.612 24.1168ZM261.363 17.2918C261.363 16.6168 261.285 15.8668 261.206 15.1168C261.049 14.3668 260.891 13.6918 260.655 13.1668C260.341 12.6418 259.947 12.1918 259.475 11.8168C259.003 11.4418 258.295 11.2918 257.508 11.2918C256.171 11.2918 255.069 11.8168 254.204 12.8668C253.338 13.9168 252.866 15.4168 252.788 17.2918H261.363ZM276.469 28.8418C273.716 28.8418 271.591 28.0168 270.096 26.2918C268.523 24.5668 267.815 22.2418 267.815 19.3918C267.815 18.1168 268.051 16.9918 268.444 15.8668C268.838 14.7418 269.467 13.7668 270.254 12.8668C271.041 12.0418 271.906 11.2918 273.086 10.7668C274.188 10.2418 275.446 9.9418 276.784 9.9418C278.594 9.9418 280.088 10.3918 281.269 11.2168C282.449 12.0418 282.999 13.2418 282.999 14.6668C282.999 15.2668 282.842 15.7918 282.527 16.2418C282.213 16.6918 281.741 16.9168 281.033 16.9168C280.246 16.9168 279.695 16.7668 279.302 16.3918C278.908 16.0168 278.672 15.6418 278.672 15.1918C278.672 14.6668 278.751 14.0668 278.908 13.5418C279.066 12.9418 279.144 12.5668 279.144 12.2668C278.908 11.8918 278.594 11.6668 278.121 11.5168C277.649 11.3668 277.177 11.2918 276.705 11.2918C276.076 11.2918 275.525 11.4418 274.974 11.6668C274.424 11.8918 273.873 12.3418 273.401 13.0168C272.929 13.6168 272.535 14.4418 272.221 15.4918C271.906 16.5418 271.749 17.7418 271.749 19.1668C271.749 21.4168 272.299 23.2918 273.322 24.7168C274.345 26.1418 275.761 26.8168 277.413 26.8168C278.672 26.8168 279.695 26.5168 280.482 25.9918C281.269 25.4668 282.055 24.5668 282.763 23.4418L283.944 24.1918C283.078 25.6168 281.977 26.7418 280.639 27.5668C279.302 28.3918 277.885 28.8418 276.469 28.8418ZM294.171 28.8418C291.418 28.8418 289.294 28.0168 287.799 26.2918C286.225 24.5668 285.517 22.2418 285.517 19.3918C285.517 18.1168 285.753 16.9918 286.146 15.8668C286.54 14.7418 287.169 13.7668 287.956 12.8668C288.743 12.0418 289.608 11.2918 290.788 10.7668C291.89 10.2418 293.149 9.9418 294.486 9.9418C296.296 9.9418 297.791 10.3918 298.971 11.2168C300.151 12.0418 300.702 13.2418 300.702 14.6668C300.702 15.2668 300.544 15.7918 300.23 16.2418C299.915 16.6918 299.443 16.9168 298.735 16.9168C297.948 16.9168 297.397 16.7668 297.004 16.3918C296.61 16.0168 296.374 15.6418 296.374 15.1918C296.374 14.6668 296.453 14.0668 296.61 13.5418C296.768 12.9418 296.846 12.5668 296.846 12.2668C296.61 11.8918 296.296 11.6668 295.824 11.5168C295.352 11.3668 294.88 11.2918 294.408 11.2918C293.778 11.2918 293.227 11.4418 292.677 11.6668C292.126 11.8918 291.575 12.3418 291.103 13.0168C290.631 13.6168 290.238 14.4418 289.923 15.4918C289.608 16.5418 289.451 17.7418 289.451 19.1668C289.451 21.4168 290.002 23.2918 291.024 24.7168C292.047 26.1418 293.463 26.8168 295.116 26.8168C296.374 26.8168 297.397 26.5168 298.184 25.9918C299.049 25.3918 299.757 24.5668 300.466 23.4418L301.646 24.1918C300.78 25.6168 299.679 26.7418 298.341 27.5668C297.004 28.3918 295.588 28.8418 294.171 28.8418ZM321 28.0168C320.371 28.2418 319.899 28.3918 319.427 28.5418C318.955 28.6918 318.482 28.7668 317.853 28.7668C316.83 28.7668 316.044 28.5418 315.493 28.0918C314.942 27.6418 314.549 27.0418 314.391 26.1418H314.313C313.526 27.0418 312.582 27.7168 311.638 28.1668C310.694 28.6168 309.513 28.8418 308.255 28.8418C306.838 28.8418 305.658 28.4668 304.793 27.6418C303.927 26.8168 303.455 25.7668 303.455 24.4168C303.455 23.7418 303.534 23.1418 303.77 22.5418C304.006 22.0168 304.242 21.4918 304.714 21.0418C305.029 20.6668 305.422 20.3668 305.973 20.0668C306.524 19.7668 306.996 19.5418 307.468 19.3918C308.019 19.1668 309.199 18.7918 310.93 18.2668C312.66 17.7418 313.841 17.2918 314.47 16.9918V15.1168C314.47 14.9668 314.47 14.6668 314.391 14.2168C314.313 13.7668 314.155 13.3168 313.919 12.9418C313.683 12.4918 313.29 12.1168 312.818 11.7418C312.346 11.4418 311.716 11.2168 310.851 11.2168C310.3 11.2168 309.749 11.2918 309.199 11.5168C308.727 11.7418 308.333 11.8918 308.176 12.1168C308.176 12.3418 308.255 12.7168 308.333 13.1668C308.491 13.6168 308.491 14.0668 308.491 14.4418C308.491 14.8918 308.255 15.2668 307.861 15.6418C307.468 16.0168 306.917 16.1668 306.209 16.1668C305.58 16.1668 305.107 15.9418 304.793 15.4918C304.478 15.0418 304.321 14.5918 304.321 14.0668C304.321 13.5418 304.557 12.9418 304.95 12.4918C305.344 11.9668 305.894 11.5168 306.524 11.1418C307.074 10.7668 307.783 10.5418 308.569 10.2418C309.356 10.0168 310.143 9.8668 310.93 9.8668C312.031 9.8668 312.896 9.9418 313.683 10.0918C314.47 10.2418 315.178 10.5418 315.886 10.9918C316.516 11.4418 316.988 12.0418 317.381 12.7918C317.696 13.5418 317.853 14.5168 317.853 15.7918C317.853 17.5168 317.853 19.0918 317.774 20.3668C317.774 21.7168 317.696 23.1418 317.696 24.7918C317.696 25.2418 317.774 25.6168 317.932 25.9168C318.089 26.2168 318.404 26.4418 318.719 26.5918C318.876 26.6668 319.191 26.7418 319.663 26.7418H320.921V28.0168H321ZM314.313 18.4168C313.211 18.7168 312.267 19.0168 311.48 19.3168C310.694 19.6168 309.907 19.9918 309.199 20.4418C308.569 20.8918 308.097 21.3418 307.704 21.9418C307.31 22.5418 307.153 23.1418 307.153 23.9668C307.153 24.9418 307.468 25.6918 308.019 26.2168C308.569 26.6668 309.277 26.8918 310.143 26.8918C311.008 26.8918 311.874 26.6668 312.503 26.2918C313.211 25.8418 313.762 25.3918 314.234 24.7918L314.313 18.4168Z" fill="#DF0810"/>
</svg>
