<svg width="269" height="62" viewBox="0 0 269 62" fill="none" xmlns="http://www.w3.org/2000/svg">
<path d="M201.75 0.418945H0V61.4189H201.75V0.418945Z" fill="url(#paint0_linear_414_4530)"/>
<path d="M269 0.418945H206.374V61.4189H269V0.418945Z" fill="#C40000"/>
<path d="M170.41 15.0176C164.593 15.0176 159.798 19.1708 159.798 24.9536C159.798 28.9292 162.06 32.4273 165.367 34.2237L159.325 47.0713H167.035L172.144 35.5032H175.034V47.0713H181.969V15.0176H170.41ZM170.41 20.9322H175.034V29.2231H170.41C168.341 29.2231 166.733 27.4041 166.733 25.0711C166.733 22.7381 168.341 20.9322 170.41 20.9322Z" fill="white"/>
<path d="M148.896 15.0176L137.18 33.7145V15.0176H130.244V47.0713H136.26L147.858 28.5572V47.0713H154.793V15.0176H148.896Z" fill="white"/>
<path d="M31.0876 20.9305H26.4642V29.2231H31.0876C33.157 29.2231 34.7654 27.4098 34.7654 25.0768C34.7654 22.7437 33.157 20.9305 31.0876 20.9305ZM31.0876 15.0176C36.9051 15.0176 41.7005 19.1714 41.7005 24.9542C41.7005 30.7369 36.9051 35.5038 31.0876 35.5038H26.4642V47.0713H19.5291V15.0176H31.0876Z" fill="white"/>
<path d="M64.0189 31.0638C64.0189 29.0959 63.805 27.3342 63.7562 25.9522C63.6436 22.7673 61.1894 20.2008 58.0163 20.2008C54.8432 20.2008 52.3739 22.7672 52.2633 25.9522C52.2153 27.3342 52.0006 29.0959 52.0006 31.0638C52.0006 33.0317 52.2144 34.8065 52.2633 36.1885C52.3758 39.3734 54.8432 41.9399 58.0163 41.9399C61.1894 41.9399 63.6436 39.3734 63.7562 36.1885C63.805 34.8065 64.0189 33.0317 64.0189 31.0638ZM58.0032 47.9981C50.8541 47.9981 45.0654 42.2309 45.0654 35.1244V27.0032C45.0654 19.8967 50.8541 14.1426 58.0032 14.1426C65.1523 14.1426 70.954 19.8967 70.954 27.0032V35.1244C70.954 42.2309 65.1523 47.9981 58.0032 47.9981Z" fill="white"/>
<path d="M88.6202 14.1426C81.4711 14.1426 75.6276 18.8047 75.6825 27.0032C75.7006 29.7102 75.6825 35.1244 75.6825 35.1244C75.6825 43.5413 81.4711 47.9981 88.6202 47.9981C91.6771 47.9981 95.1891 47.4172 98.1692 46.2094L96.6456 40.2295C93.7704 41.299 90.326 41.9399 88.6334 41.9399C85.4603 41.9399 82.9929 39.3799 82.8804 36.195C82.8315 34.813 82.6177 33.0317 82.6177 31.0638C82.6177 29.0959 82.8324 27.3407 82.8804 25.9587C82.9909 22.7737 85.4603 20.2008 88.6334 20.2008C90.4544 20.2008 94.0271 20.732 96.7638 21.7806L98.2349 16.0227C95.4719 14.6921 92.0086 14.1426 88.6202 14.1426Z" fill="white"/>
<path d="M115.577 14.1426C108.428 14.1426 102.584 18.8047 102.639 27.0032C102.657 29.7102 102.639 35.1244 102.639 35.1244C102.639 43.5413 108.428 47.9981 115.577 47.9981C118.634 47.9981 122.146 47.4172 125.126 46.2094L123.602 40.2295C120.727 41.299 117.283 41.9399 115.59 41.9399C112.417 41.9399 109.949 39.3799 109.837 36.195C109.788 34.813 109.574 33.0317 109.574 31.0638C109.574 29.0959 109.789 27.3407 109.837 25.9587C109.947 22.7737 112.417 20.2008 115.59 20.2008C117.411 20.2008 120.984 20.732 123.72 21.7806L125.191 16.0227C122.428 14.6921 118.965 14.1426 115.577 14.1426Z" fill="white"/>
<path d="M252.61 31.8721V38.5955H238.176V31.8721H252.61ZM252.713 14.7734L238.244 30.8904H247.165L261.634 14.7734H252.713ZM253.722 14.7734V15.0346L253.953 14.7734H253.722ZM261.308 16.5178L253.722 24.968V45.4406H261.308V16.5178Z" fill="white"/>
<path d="M225.435 14.7842V21.5527C226.936 21.8227 228.072 23.1264 228.072 24.6967C228.072 27.2839 226.24 29.0226 223.648 31.11L213.74 39.0902V45.0753H219.508L231.844 34.348C234.551 31.9944 236.689 28.6038 236.689 24.1222C236.689 17.89 231.672 14.864 225.435 14.7842ZM224.478 14.8051C218.861 15.141 214.34 19.4857 213.75 24.9996H221.652C221.642 24.8988 221.641 24.7999 221.641 24.6967C221.641 23.059 222.882 21.7192 224.479 21.5318V14.8051H224.478ZM228.955 37.9412L220.748 45.0753H236.447V37.9412H228.955Z" fill="white"/>
<defs>
<linearGradient id="paint0_linear_414_4530" x1="201.667" y1="61.0716" x2="201.667" y2="0.75946" gradientUnits="userSpaceOnUse">
<stop stop-color="#0029A6"/>
<stop offset="1" stop-color="#0069E4"/>
</linearGradient>
</defs>
</svg>
