<svg width="213" height="60" viewBox="0 0 213 60" fill="none" xmlns="http://www.w3.org/2000/svg">
<path fill-rule="evenodd" clip-rule="evenodd" d="M97.9679 24.5947L106.402 29.821V38.9281H94.0353V32.4082H88.0329V51.916H94.0353V43.8956H106.402V54.5033L97.9679 59.7295H84.1003L75.6658 54.5033V29.821L84.1003 24.5947H97.9679ZM64.0417 24.5947L72.4761 29.821V54.4515L64.0417 59.6778H50.1741L41.7397 54.4515V29.821L50.1741 24.5947H64.0417ZM15.213 25.1122C15.213 25.1122 19.0939 38.7728 19.4561 39.963C19.7666 38.7211 23.3887 25.1122 23.3887 25.1122H38.6017V59.2121H26.2347V43.4299C24.7858 49.0701 22.0951 59.2121 22.0951 59.2121H16.5066C16.5066 59.2121 13.8676 49.0183 12.367 43.4299V59.2121H0V25.1122H15.213ZM121.752 25.1122V37.3757C123.511 34.3745 128.945 25.1122 128.945 25.1122H142.347C142.347 25.1122 132.101 39.8595 131.584 40.5839C132.082 41.3313 142.513 57.9131 143.285 59.1404L143.33 59.2121H129.514C129.514 59.2121 123.511 49.691 121.7 46.845V59.2121H109.333V25.1122H121.752ZM167.166 25.1122L175.031 29.614V39.0316C175.031 39.0316 171.616 40.9979 170.115 41.8258C171.719 42.6537 176.014 44.7752 176.014 44.7752V54.1411L167.528 59.2121H145.226V25.1122H167.166ZM203.317 25.1122L212.217 59.2121H199.332C199.332 59.2121 198.349 54.1411 198.194 53.1579H190.743C190.588 54.1411 189.76 59.2121 189.76 59.2121H176.875L184.482 25.1122H203.317ZM60.1091 32.4082H54.1067V51.916H60.1091V32.4082ZM163.647 45.9136H157.645V51.6056H163.647V45.9136ZM194.417 32.7704C194.158 33.8053 192.192 44.1026 191.985 45.5514H196.642C196.383 44.1026 194.572 33.8053 194.417 32.7704ZM163.647 32.7187H157.645V38.3071H163.647V32.7187Z" fill="#FC0E49"/>
<path fill-rule="evenodd" clip-rule="evenodd" d="M34.7647 0.692913V8.59879L31.5472 10.5753L34.7647 12.5517V20.4576H15V0.692913H34.7647ZM122.608 0.692913V14.7259H111.209V20.4576H105.039V0.692913H122.608ZM169.757 0.692913V5.76585H169.824V20.4576H162.847V14.5941H160.787L156.734 20.4576H148.961L153.678 14.1988H149.891V0.692913H169.757ZM192.882 0.692913V20.4576H185.906V14.5941H183.846L179.793 20.4576H172.02L176.737 14.1988H172.95V0.692913H192.882ZM56.8655 0.416016V5.10931H45.174V7.95172H51.0197V12.645H45.174V15.5535H56.8655V20.1807H38.1989V0.416016H56.8655ZM66.0024 0.416016V8.67885H71.8855V0.416016H78.8263V20.1807H71.8855V13.7027H59.0616V0.416016H66.0024ZM100.787 0.416016V5.10931H89.0955V7.95172H94.9413V12.645H89.0955V15.5535H100.787V20.1807H82.1204V0.416016H100.787ZM132.937 0.416016V7.68731H138.912V0.416016H145.807V20.1807H138.912V12.7772H132.937V20.1807H126.042V0.416016H132.937ZM27.3529 12.7713H22.7549V16.0655H29.2745V14.089L27.3529 12.7713ZM117.118 5.08507H111.627V9.47723H117.118V5.08507ZM163.235 5.08507H157.745V9.47723H163.235V5.08507ZM186.294 5.08507H180.804V9.47723H186.294V5.08507ZM29.2745 5.14496H22.6863V8.37919H27.3529L29.2745 7.06154V5.14496Z" fill="#FC0E49"/>
</svg>
